<svg xmlns="http://www.w3.org/2000/svg" width="72.768" height="72.768" viewBox="0 0 72.768 72.768"><defs><style>.a{fill:#06759c;}</style></defs><path class="a" d="M179.186,163.593a15.593,15.593,0,1,0-15.593,15.593A15.593,15.593,0,0,0,179.186,163.593Zm-27.6,1.733H153.2a1.733,1.733,0,0,0,0-3.465h-1.607a12.153,12.153,0,0,1,10.27-10.27V153.2a1.733,1.733,0,0,0,3.465,0v-1.607a12.153,12.153,0,0,1,10.27,10.27h-1.607a1.733,1.733,0,0,0,0,3.465H175.6a12.153,12.153,0,0,1-10.27,10.27v-1.607a1.733,1.733,0,0,0-3.465,0V175.6A12.153,12.153,0,0,1,151.591,165.326Z" transform="translate(-127.209 -127.209)"/><path class="a" d="M217.576,219.9a1.733,1.733,0,0,0,2-.325l4.62-4.62a1.733,1.733,0,1,0-2.45-2.45l-3.737,3.737-3.5-1.752a1.733,1.733,0,1,0-1.55,3.1Z" transform="translate(-181.966 -181.969)"/><path class="a" d="M61.733,62.651a1.733,1.733,0,0,0,1.733-1.733A24.866,24.866,0,0,1,86.35,36.162l-1.586,1.586a1.733,1.733,0,1,0,2.45,2.45l4.62-4.62a1.733,1.733,0,0,0,0-2.45l-4.62-4.62a1.733,1.733,0,1,0-2.45,2.45l1.722,1.722A28.334,28.334,0,0,0,60,60.919,1.733,1.733,0,0,0,61.733,62.651Z" transform="translate(-51.915 -24.535)"/><path class="a" d="M258.61,244a1.733,1.733,0,0,0-1.733,1.733,24.867,24.867,0,0,1-22.884,24.757l1.586-1.586a1.733,1.733,0,1,0-2.45-2.45l-4.62,4.62a1.733,1.733,0,0,0,0,2.45l4.62,4.62a1.733,1.733,0,1,0,2.45-2.45l-1.722-1.722a28.334,28.334,0,0,0,26.486-28.239A1.733,1.733,0,0,0,258.61,244Z" transform="translate(-195.66 -209.349)"/><path class="a" d="M382.481,11.508a8.87,8.87,0,0,0-.9-3.663A6.972,6.972,0,0,0,374.973,4h-9.24A1.733,1.733,0,0,0,364,5.733a6.525,6.525,0,0,0,3.466,5.727c0,.016,0,.032,0,.048a7.508,7.508,0,0,0,15.016,0Zm-7.508-4.043A3.661,3.661,0,0,1,378.112,8.8l-.281-.094a1.733,1.733,0,0,0-.548-.089H369.53a3.9,3.9,0,0,1-1.491-1.155Zm0,8.085a4.048,4.048,0,0,1-4-3.465H377l1.835.612a4.05,4.05,0,0,1-3.864,2.853Z" transform="translate(-312.023 -4)"/><path class="a" d="M386.438,108H377.2a5.2,5.2,0,0,0-5.2,5.2v10.4a1.733,1.733,0,0,0,1.733,1.733H389.9a1.733,1.733,0,0,0,1.733-1.733V113.2A5.2,5.2,0,0,0,386.438,108Zm1.733,13.861H375.465V113.2a1.734,1.734,0,0,1,1.733-1.733h9.24a1.734,1.734,0,0,1,1.733,1.733Z" transform="translate(-318.868 -92.984)"/><path class="a" d="M22.481,291.508a8.87,8.87,0,0,0-.9-3.663,6.972,6.972,0,0,0-6.6-3.845H5.733A1.733,1.733,0,0,0,4,285.733a6.525,6.525,0,0,0,3.466,5.727c0,.016,0,.032,0,.048a7.508,7.508,0,1,0,15.016,0Zm-7.508-4.043a3.661,3.661,0,0,1,3.139,1.338l-.281-.094a1.733,1.733,0,0,0-.548-.089H9.53a3.9,3.9,0,0,1-1.491-1.155Zm0,8.085a4.049,4.049,0,0,1-4-3.465H17l1.835.612A4.05,4.05,0,0,1,14.973,295.551Z" transform="translate(-4 -243.573)"/><path class="a" d="M26.438,388H17.2a5.2,5.2,0,0,0-5.2,5.2v10.4a1.733,1.733,0,0,0,1.733,1.733H29.9a1.733,1.733,0,0,0,1.733-1.733V393.2A5.2,5.2,0,0,0,26.438,388Zm1.733,13.861H15.465V393.2a1.734,1.734,0,0,1,1.733-1.733h9.24a1.734,1.734,0,0,1,1.733,1.733Z" transform="translate(-10.845 -332.558)"/></svg>