<svg xmlns="http://www.w3.org/2000/svg" width="82.841" height="82.841" viewBox="0 0 82.841 82.841"><defs><style>.a{fill:#06759c;}</style></defs><path class="a" d="M81.5,208H73.488a1.336,1.336,0,0,0-1.336,1.336v1.336H40.084a1.33,1.33,0,0,0-.945.391l-1.728,1.728-1.728-1.728a1.33,1.33,0,0,0-.945-.391H10.689v-1.336A1.336,1.336,0,0,0,9.353,208H1.336A1.336,1.336,0,0,0,0,209.336V241.4a1.336,1.336,0,0,0,1.336,1.336H9.353a1.336,1.336,0,0,0,1.336-1.336v-1.336H21.4c0,.078-.023.151-.023.228a5.121,5.121,0,0,0,5.115,5.116c.087,0,.168-.02.254-.025,0,.085-.024.168-.024.254a5.121,5.121,0,0,0,5.115,5.116c.087,0,.168-.02.254-.025,0,.085-.024.168-.024.254A5.114,5.114,0,0,0,40.8,254.6l.621-.62.621.62a5.114,5.114,0,0,0,8.732-3.617c0-.087-.02-.168-.025-.254.087.005.168.025.255.025a5.121,5.121,0,0,0,5.115-5.116c0-.087-.02-.168-.025-.254.087.005.168.025.255.025a5.121,5.121,0,0,0,5.115-5.116c0-.078-.019-.152-.023-.228H72.152V241.4a1.336,1.336,0,0,0,1.336,1.336H81.5a1.336,1.336,0,0,0,1.336-1.336V209.336A1.336,1.336,0,0,0,81.5,208ZM8.017,240.067H2.672v-29.4H8.017Zm2.672-26.723h23.5l5.183,5.181a2.444,2.444,0,0,1-1.728,4.172,2.459,2.459,0,0,1-1.728-.716l-5.574-5.573L28.45,218.3l1.06,1.06L17.532,231.336a5.039,5.039,0,0,0-.849,6.06H10.689ZM38.91,252.714a2.443,2.443,0,0,1-4.17-1.729,2.429,2.429,0,0,1,.715-1.728l.621-.62,3.455,3.455Zm9.191-1.729a2.442,2.442,0,0,1-4.17,1.728l-7.14-7.137a2.444,2.444,0,0,1,1.728-4.172,2.459,2.459,0,0,1,1.728.716l7.14,7.137A2.431,2.431,0,0,1,48.1,250.985Zm5.345-5.345a2.442,2.442,0,0,1-4.17,1.728l-7.14-7.137a2.444,2.444,0,0,1,1.728-4.172,2.459,2.459,0,0,1,1.728.716l7.14,7.137A2.431,2.431,0,0,1,53.446,245.64Zm2.9-2.9a2.459,2.459,0,0,1-1.728-.716l-7.14-7.137a2.444,2.444,0,0,1,1.728-4.172,2.459,2.459,0,0,1,1.728.716l7.14,7.137a2.444,2.444,0,0,1-1.728,4.172ZM52.11,227.814a2.442,2.442,0,0,1,4.17-1.728l7.14,7.137a2.444,2.444,0,0,1-1.728,4.172,2.459,2.459,0,0,1-1.728-.716l-7.14-7.137A2.431,2.431,0,0,1,52.11,227.814ZM66.158,237.4a5.041,5.041,0,0,0-.849-6.061l-7.14-7.137a5.114,5.114,0,0,0-8.732,3.617c0,.087.02.168.025.254-.087-.005-.168-.025-.255-.025a5.121,5.121,0,0,0-5.115,5.116c0,.087.02.168.025.254-.087-.005-.168-.025-.255-.025a5.121,5.121,0,0,0-5.115,5.116c0,.087.02.168.025.254-.087-.005-.168-.025-.255-.025a5.116,5.116,0,0,0-4.261,7.946l-.692.692a2.443,2.443,0,0,1-4.17-1.729,2.429,2.429,0,0,1,.715-1.728l2.9-2.9-1.889-1.889-2.9,2.9a2.443,2.443,0,0,1-4.17-1.729,2.429,2.429,0,0,1,.715-1.728l2.9-2.9-1.889-1.889-2.9,2.9a2.443,2.443,0,0,1-4.17-1.729,2.429,2.429,0,0,1,.715-1.728L31.4,221.245l2.625,2.624a5.07,5.07,0,0,0,3.617,1.5,5.116,5.116,0,0,0,3.617-8.733L39.3,214.681l1.336-1.336H72.152V237.4Zm14.011,2.672H74.824v-29.4h5.345Zm0,0" transform="translate(0 -173.26)"/><path class="a" d="M201.353,66.706A9.353,9.353,0,1,0,192,57.353,9.364,9.364,0,0,0,201.353,66.706Zm0-16.034a6.681,6.681,0,1,1-6.681,6.681A6.689,6.689,0,0,1,201.353,50.672Zm0,0" transform="translate(-159.932 -39.983)"/><path class="a" d="M36.008,21.378a4,4,0,0,0,3.762-2.672H50.706v1.336a1.336,1.336,0,0,0,1.336,1.336h1.895a14.578,14.578,0,0,0,1.247,2.986L53.77,25.778a1.334,1.334,0,0,0,0,1.889l4.008,4.008a1.334,1.334,0,0,0,1.889,0l1.414-1.414a14.65,14.65,0,0,0,2.986,1.247V33.4A1.336,1.336,0,0,0,65.4,34.74h5.345A1.336,1.336,0,0,0,72.084,33.4V31.512a14.581,14.581,0,0,0,3-1.232l1.4,1.4a1.334,1.334,0,0,0,1.889,0l3.617-3.617h6.373a4.008,4.008,0,1,0,0-2.672H81.991l-1-1a14.58,14.58,0,0,0,1.232-3H84.11a1.336,1.336,0,0,0,1.336-1.336V18.706H96.381a4.008,4.008,0,1,0,0-2.672H85.446V14.7a1.336,1.336,0,0,0-1.336-1.336H82.215a14.578,14.578,0,0,0-1.247-2.986l1.414-1.414a1.334,1.334,0,0,0,0-1.889L78.374,3.064a1.334,1.334,0,0,0-1.889,0L75.07,4.477a14.589,14.589,0,0,0-2.986-1.247V1.336A1.336,1.336,0,0,0,70.748,0H65.4a1.336,1.336,0,0,0-1.336,1.336V3.228a14.581,14.581,0,0,0-3,1.232l-1.4-1.4a1.334,1.334,0,0,0-1.889,0L54.161,6.681H47.788a4.008,4.008,0,1,0,0,2.672h6.373l1,1a14.581,14.581,0,0,0-1.232,3H52.042A1.336,1.336,0,0,0,50.706,14.7v1.336H39.771a4,4,0,1,0-3.762,5.345Zm64.135-5.345a1.336,1.336,0,1,1-1.336,1.336A1.338,1.338,0,0,1,100.143,16.034Zm-8.017,9.353a1.336,1.336,0,1,1-1.336,1.336A1.338,1.338,0,0,1,92.126,25.387ZM44.025,9.353a1.336,1.336,0,1,1,1.336-1.336A1.338,1.338,0,0,1,44.025,9.353Zm9.353,6.681h1.6a1.336,1.336,0,0,0,1.309-1.07,11.862,11.862,0,0,1,1.675-4.091A1.337,1.337,0,0,0,57.789,9.2L56.6,8.017,58.723,5.9,59.91,7.084a1.333,1.333,0,0,0,1.669.178A11.867,11.867,0,0,1,65.67,5.587a1.338,1.338,0,0,0,1.07-1.309v-1.6h2.672v1.6a1.337,1.337,0,0,0,1.07,1.309,11.842,11.842,0,0,1,4.074,1.7A1.337,1.337,0,0,0,76.225,7.1l1.2-1.205,2.119,2.119-1.2,1.2a1.335,1.335,0,0,0-.179,1.668,11.876,11.876,0,0,1,1.694,4.074,1.336,1.336,0,0,0,1.309,1.071h1.6v2.672h-1.6a1.336,1.336,0,0,0-1.309,1.07,11.863,11.863,0,0,1-1.675,4.091,1.337,1.337,0,0,0,.179,1.669l1.185,1.187-2.119,2.119-1.187-1.186a1.337,1.337,0,0,0-1.669-.178,11.867,11.867,0,0,1-4.091,1.675,1.338,1.338,0,0,0-1.07,1.309v1.6H66.74v-1.6a1.337,1.337,0,0,0-1.07-1.309,11.842,11.842,0,0,1-4.074-1.7,1.339,1.339,0,0,0-1.669.179l-1.2,1.205L56.6,26.723l1.2-1.2a1.335,1.335,0,0,0,.179-1.668,11.876,11.876,0,0,1-1.694-4.074,1.336,1.336,0,0,0-1.309-1.071h-1.6Zm-17.37,0a1.336,1.336,0,1,1-1.336,1.336A1.338,1.338,0,0,1,36.008,16.034Zm0,0" transform="translate(-26.655)"/></svg>