<svg xmlns="http://www.w3.org/2000/svg" width="87.844" height="81.988" viewBox="0 0 87.844 81.988"><defs><style>.a{fill:#06759c;}</style></defs><path class="a" d="M286.306,115.268a15.2,15.2,0,0,0,1.788-23.079A14.37,14.37,0,0,0,277.728,88,14.871,14.871,0,0,0,263.3,103.006a15.1,15.1,0,0,0,6.276,12.264.787.787,0,0,1,.313.645v1.955a4.39,4.39,0,0,0,.732,7.943v1.715a4.4,4.4,0,0,0,4.392,4.392h5.856a4.4,4.4,0,0,0,4.392-4.392v-1.716a4.39,4.39,0,0,0,.732-7.943v-1.954A.789.789,0,0,1,286.306,115.268ZM266.225,103A11.933,11.933,0,0,1,277.77,90.927h.167a11.474,11.474,0,0,1,8.1,3.349,12.27,12.27,0,0,1-1.435,18.61,3.723,3.723,0,0,0-1.543,3.031v1.363H272.813v-1.364a3.718,3.718,0,0,0-1.541-3.029A12.171,12.171,0,0,1,266.225,103Zm14.641,25.991h-5.856a1.466,1.466,0,0,1-1.464-1.464v-1.464h8.784v1.464A1.466,1.466,0,0,1,280.865,128.992Zm2.928-5.856H272.081a1.464,1.464,0,1,1,0-2.928h11.712a1.464,1.464,0,0,1,0,2.928Z" transform="translate(-218.039 -79.214)"/><path class="a" d="M352.2,125.955a6.618,6.618,0,0,1,3.814,4.323,1.464,1.464,0,1,0,2.819-.793,9.568,9.568,0,0,0-5.524-6.241,1.464,1.464,0,1,0-1.109,2.71Z" transform="translate(-289.932 -107.921)"/><path class="a" d="M338.228,44.392V41.464a1.464,1.464,0,1,0-2.928,0v2.928a1.464,1.464,0,1,0,2.928,0Z" transform="translate(-276.866 -40)"/><path class="a" d="M285.887,56.668a1.465,1.465,0,0,0,1.336-2.06l-1.191-2.675a1.464,1.464,0,1,0-2.675,1.191l1.191,2.675A1.464,1.464,0,0,0,285.887,56.668Z" transform="translate(-234.325 -49.039)"/><path class="a" d="M243.815,87.239a1.464,1.464,0,0,0,.98-2.552l-2.176-1.959a1.464,1.464,0,0,0-1.959,2.177l2.176,1.958A1.459,1.459,0,0,0,243.815,87.239Z" transform="translate(-199.149 -74.601)"/><path class="a" d="M219.2,131.266a1.464,1.464,0,0,0-.94-1.845l-2.785-.9a1.464,1.464,0,1,0-.9,2.785l2.785.9a1.462,1.462,0,0,0,1.845-.94Z" transform="translate(-177.406 -112.258)"/><path class="a" d="M212.223,179.715l-2.912.306a1.464,1.464,0,0,0,.306,2.912l2.912-.306a1.464,1.464,0,0,0-.306-2.912Z" transform="translate(-172.862 -154.139)"/><path class="a" d="M448,182.627l2.912.306a1.464,1.464,0,1,0,.306-2.912l-2.912-.306a1.464,1.464,0,1,0-.306,2.912Z" transform="translate(-367.866 -154.139)"/><path class="a" d="M443.275,132.278a1.463,1.463,0,0,0,.453-.072l2.785-.9a1.464,1.464,0,1,0-.9-2.785l-2.785.9a1.464,1.464,0,0,0,.452,2.857Z" transform="translate(-363.883 -112.258)"/><path class="a" d="M420.975,86.864l2.176-1.958a1.464,1.464,0,1,0-1.959-2.176l-2.176,1.959a1.464,1.464,0,0,0,1.96,2.176Z" transform="translate(-344.865 -74.603)"/><path class="a" d="M382.318,56.668a1.464,1.464,0,0,0,1.338-.869l1.191-2.675a1.464,1.464,0,1,0-2.675-1.191l-1.191,2.675a1.465,1.465,0,0,0,1.336,2.06Z" transform="translate(-314.084 -49.039)"/><path class="a" d="M99.452,306.353H80.419v-1.464c0-2.2-2.861-3.8-3.737-4.238a1.473,1.473,0,0,0-.234-.093l-14.329-4.3c-.907-.8-4.148-3.614-8.111-6.467-6.327-4.555-11.233-6.864-14.582-6.864H27.713v-1.464A1.464,1.464,0,0,0,26.248,280H17.464A1.464,1.464,0,0,0,16,281.464v32.209a1.464,1.464,0,0,0,1.464,1.464h8.784a1.464,1.464,0,0,0,1.464-1.464v-1.464h4.324c.913.122,8.385,1.6,14.989,2.9,13.21,2.608,15.076,2.956,15.488,2.956H99.452a4.4,4.4,0,0,0,4.392-4.392v-2.928A4.4,4.4,0,0,0,99.452,306.353Zm-74.667,5.856H18.928V282.928h5.856Zm76.131,1.464a1.466,1.466,0,0,1-1.464,1.464H62.582c-.913-.122-8.385-1.6-14.988-2.9-13.211-2.608-15.077-2.956-15.489-2.956H27.713V285.856H39.425c5.54,0,17.024,9.24,20.982,12.8a1.466,1.466,0,0,0,.559.314l14.513,4.354a5.461,5.461,0,0,1,2.012,1.609v2.883a1.466,1.466,0,0,1-1.344,1.459l-14.24-2.848L51.864,300.69a1.464,1.464,0,1,0-1.453,2.542l10.248,5.856a1.463,1.463,0,0,0,.439.165l14.641,2.928a1.472,1.472,0,0,0,.287.028,4.4,4.4,0,0,0,4.141-2.928H99.452a1.466,1.466,0,0,1,1.464,1.464Z" transform="translate(-16 -236.078)"/></svg>