<svg xmlns="http://www.w3.org/2000/svg" width="80.789" height="80.789" viewBox="0 0 80.789 80.789"><defs><style>.a{fill:#98e4ff;}.b{fill:#39c3f5;}.c,.f{fill:#fff;}.c,.d{stroke:#233743;}.d{fill:#64e1dc;}.e{fill:#1cadb5;}.g{fill:#e9edf5;}</style></defs><g transform="translate(0 0)"><g transform="translate(0 0)"><circle class="a" cx="40.358" cy="40.358" r="40.358"/></g><path class="b" d="M220.742,143.091q0-1.593-.121-3.156l-18.02-18.02-18.924,18.759-17.561,29.609,13.228,13.228q.483.011.968.011A40.431,40.431,0,0,0,220.742,143.091Z" transform="translate(-139.953 -102.733)"/><g transform="translate(14.091 14.608)"><path class="c" d="M142.215,107.309a14.534,14.534,0,0,0-26.266-8.394,14.534,14.534,0,0,0-23.526,17.072,34.045,34.045,0,0,1,5.813,14.034l.744,10.362a10.759,10.759,0,0,0,10.595,8.887h2.367V131.814a4.008,4.008,0,0,1,8.016,0V149.27h2.367a10.759,10.759,0,0,0,10.595-8.887l.744-10.362a34.045,34.045,0,0,1,5.813-14.034,14.472,14.472,0,0,0,2.74-8.678Z" transform="translate(-89.682 -92.958)"/></g><g transform="translate(45.727 27.938)"><circle class="d" cx="13.086" cy="13.086" r="13.086"/></g><g transform="translate(58.8 27.938)"><path class="e" d="M372.787,177.357h-.013v26.172h.013a13.086,13.086,0,0,0,0-26.173Z" transform="translate(-372.774 -177.357)"/></g><g transform="translate(50.445 32.656)"><path class="f" d="M336.605,212.4h-5.169v-5.169h-6.4V212.4h-5.169v6.4h5.169v5.169h6.4V218.8h5.169Z" transform="translate(-319.868 -207.229)"/></g><g transform="translate(58.801 32.656)"><path class="g" d="M375.987,212.4v-5.169h-3.212v16.737h3.212V218.8h5.169v-6.4Z" transform="translate(-372.775 -207.229)"/></g></g></svg>