<svg xmlns="http://www.w3.org/2000/svg" width="93.826" height="93.827" viewBox="0 0 93.826 93.827"><defs><style>.a{fill:#06759c;}</style></defs><path class="a" d="M381.607,30.234a1.364,1.364,0,0,0,1.374-1.353v-.043a1.375,1.375,0,0,0-2.749,0v.043A1.364,1.364,0,0,0,381.607,30.234Z" transform="translate(-310.555 -22.456)"/><path class="a" d="M338.193,40.057a1.368,1.368,0,0,0-1.861-.5,1.35,1.35,0,0,0-.5,1.849,1.392,1.392,0,0,0,1.883.538,1.35,1.35,0,0,0,.5-1.849Z" transform="translate(-274.139 -32.161)"/><path class="a" d="M305.075,72.2l-.038-.022a1.345,1.345,0,0,0-1.85.506,1.384,1.384,0,0,0,.5,1.876,1.368,1.368,0,0,0,1.888-.484A1.384,1.384,0,0,0,305.075,72.2Z" transform="translate(-247.48 -58.799)"/><path class="a" d="M292.456,116.548a1.386,1.386,0,0,0-1.4,1.374,1.375,1.375,0,1,0,1.4-1.374Z" transform="translate(-237.723 -95.19)"/><path class="a" d="M457.932,163.547a1.368,1.368,0,0,0,1.888-.484,1.385,1.385,0,0,0-.5-1.877l-.038-.022a1.345,1.345,0,0,0-1.851.506A1.385,1.385,0,0,0,457.932,163.547Z" transform="translate(-373.46 -131.48)"/><path class="a" d="M469.168,117.922a1.364,1.364,0,0,0,1.353,1.374h.043a1.375,1.375,0,0,0,0-2.749h-.043A1.364,1.364,0,0,0,469.168,117.922Z" transform="translate(-383.192 -95.19)"/><path class="a" d="M458.609,74.741a1.45,1.45,0,0,0,.712-.2,1.368,1.368,0,0,0,.5-1.861,1.351,1.351,0,0,0-1.851-.5l-.038.022a1.367,1.367,0,0,0-.5,1.861A1.353,1.353,0,0,0,458.609,74.741Z" transform="translate(-373.46 -58.799)"/><path class="a" d="M425.385,41.945a1.392,1.392,0,0,0,1.883-.538,1.35,1.35,0,0,0-.5-1.849,1.368,1.368,0,0,0-1.861.5l-.022.038A1.349,1.349,0,0,0,425.385,41.945Z" transform="translate(-346.873 -32.163)"/><path class="a" d="M389.205,71.523a1.374,1.374,0,0,0-1.374-1.374h-4.849V61.1a1.374,1.374,0,0,0-2.749,0V71.523a1.374,1.374,0,0,0,1.374,1.374h6.224A1.375,1.375,0,0,0,389.205,71.523Z" transform="translate(-310.555 -48.79)"/><path class="a" d="M89.833,217.485l4.08-4.072c1.217-1.215-.669-3.216-1.942-1.946l-4.08,4.072A1.377,1.377,0,1,0,89.833,217.485Z" transform="translate(-71.407 -172.383)"/><path class="a" d="M100.476,211.467,88.125,223.794a1.375,1.375,0,0,0,1.942,1.946l12.351-12.327C103.635,212.2,101.749,210.2,100.476,211.467Z" transform="translate(-71.64 -172.382)"/><path class="a" d="M92.729,52.423c-.5-1.942-3.051-.548-4.089-.1a53.248,53.248,0,0,0-3.565-11.676C102.013,27.408,92.591.034,71.055,0,56.5-.19,45.295,14.136,48.944,28.185H10.531a5,5,0,0,0-5,5v7.025a1.374,1.374,0,1,0,2.749,0V33.182a2.251,2.251,0,0,1,2.249-2.249H69.287a2.251,2.251,0,0,1,2.249,2.249V45.609l-.043.138a19.821,19.821,0,0,0-2.647-2.328v-8.43a1.374,1.374,0,0,0-1.374-1.374H12.347a1.374,1.374,0,0,0-1.374,1.374V67.817H8.282V48.049a1.374,1.374,0,0,0-2.749,0V67.817H4.06a4.057,4.057,0,0,0,0,8.114H63.848a21.745,21.745,0,0,0,2.782,4.261v4.77A8.876,8.876,0,0,0,75.5,93.828h3.958a8.876,8.876,0,0,0,8.866-8.866v-4.8a22.088,22.088,0,0,0,3.521-6.117,1.375,1.375,0,0,0-2.565-.988A19.417,19.417,0,0,1,86.3,78.29H77.4c-.44-9.709,3.366-19.966,12.969-23.711a41.911,41.911,0,0,1,.482,11.8,1.375,1.375,0,0,0,2.731.309,43.771,43.771,0,0,0-.858-14.267ZM69.287,28.185h-17.5C48.07,15.709,57.993,2.557,71.056,2.751c18.622.011,27.1,23.459,12.814,35.335a36.81,36.81,0,0,0-3.624-5.921,1.387,1.387,0,0,0-2.207.078,49.314,49.314,0,0,0-3.755,6.462V33.182A5,5,0,0,0,69.287,28.185ZM13.722,36.363H66.1v8.753a42.023,42.023,0,0,0-4.832,14.091,30.151,30.151,0,0,0,.017,8.61H13.722ZM4.06,73.182a1.308,1.308,0,0,1,0-2.617H61.837a26.809,26.809,0,0,0,.814,2.617Zm81.511,7.857v3.923a6.124,6.124,0,0,1-6.117,6.117H75.5a6.124,6.124,0,0,1-6.117-6.117V81.039Zm-9.828-13.07A35.7,35.7,0,0,0,74.65,78.29H68.624c-6.613-7.925-6.242-20.941-.209-31.682,2.174,1.951,6.821,6.991,9.274,16.132A27.343,27.343,0,0,0,75.743,67.968ZM79.6,59.552A37.458,37.458,0,0,0,73.63,48.2a48.706,48.706,0,0,1,5.576-12.726,49.073,49.073,0,0,1,6.872,18.148A21.135,21.135,0,0,0,79.6,59.552Z" transform="translate(-0.003 0)"/></svg>