<svg xmlns="http://www.w3.org/2000/svg" width="612.915" height="393.099" viewBox="0 0 612.915 393.099"><defs><style>.a,.c,.i{fill:#06759c;}.a{opacity:0.16;}.b{fill:#254854;}.d{fill:#a6c6d1;}.e{fill:#5254cf;}.f{fill:#fff;}.g{fill:#6f8d97;}.h{opacity:0.63;}.i{opacity:0.36;}.j{fill:#ffbc96;}.k{fill:#d28572;}.l,.r{fill:#1b1b43;}.m{fill:#087754;}.n{fill:#159f74;}.o{fill:#fed3d1;}.p{fill:#01e9a1;}.q{fill:#fefefe;}.r{opacity:0.2;}.s{fill:#cbcbff;}.t{fill:#925d4f;}</style></defs><g transform="translate(-320.262 -201.765)"><path class="a" d="M855.969,350.4c-4.375-80.751-48.777-145.37-122.777-148.517-21.881-.931-43.392,3.867-63.831,12.643-26.481,11.37-49.406,31.589-76.581,41.1-37.89,13.258-76.507,8.787-115.515,9.855-26.6.728-53.592,4.125-78.093,15.97-102.406,49.51-90.026,201.627-56.865,298.849q2.411,7.069,5.025,14.063H801.94C837.616,519.6,860.343,431.121,855.969,350.4Z" transform="translate(76.671 0)"/><g transform="translate(525.264 274.781)"><rect class="b" width="62.969" height="112.107" transform="translate(0 207.469)"/><rect class="b" width="65.924" height="148.357" transform="translate(106.941 171.218)"/><rect class="b" width="69.037" height="195.55" transform="translate(221.489 124.025)"/><g transform="translate(0 0)"><g transform="translate(0 8.823)"><path class="c" d="M719.75,689.174l-.143-12.187c13.019-.3,48.551-4.959,89.843-20.438a388,388,0,0,0,86.2-45.514,422.8,422.8,0,0,0,90.611-86.666l5.976,8.945a432.161,432.161,0,0,1-92.778,88.71,395.464,395.464,0,0,1-87.984,46.391C758.871,688.09,721.323,689.14,719.75,689.174Z" transform="translate(-719.607 -524.369)"/></g><g transform="translate(242.638)"><path class="c" d="M2127.76,527.261l-37.672-37.672h37.672Z" transform="translate(-2090.088 -489.589)"/></g></g></g><g transform="translate(654.298 290.856)"><g transform="translate(0 0)"><path class="d" d="M1710.625,580.473l-14.026-8.631c-.115-.567-.246-1.133-.408-1.7a21.674,21.674,0,0,0-42.3,8.948l-10.066,12.31a.246.246,0,0,0,.263.391l13-4.018a21.676,21.676,0,0,0,39.225-6.082l14.167-.627A.32.32,0,0,0,1710.625,580.473Z" transform="translate(-1643.384 -554.064)"/><path class="e" d="M1674.218,597.079a21.889,21.889,0,0,1-7.925-1.492,22.242,22.242,0,0,1-10.495-8.473l-12.72,3.933a.627.627,0,0,1-.67-1l9.962-12.182a22.055,22.055,0,0,1,43.069-8.94c.137.478.262.992.382,1.565l13.885,8.545a.7.7,0,0,1-.336,1.3l-13.89.615a22.11,22.11,0,0,1-21.262,16.127Zm-18.092-10.863.156.245a21.413,21.413,0,0,0,23.83,9.02,21.143,21.143,0,0,0,14.707-15l.072-.27,14.25-.631-14-8.616-.033-.162c-.126-.62-.257-1.165-.4-1.669a21.294,21.294,0,0,0-41.561,8.791l.023.165-9.889,12.093Z" transform="translate(-1642.266 -552.955)"/></g><g transform="translate(20.082 5.509)"><g transform="translate(5.994 9.048)"><path class="d" d="M1757.965,617.541a5.708,5.708,0,1,0-10.418,3.215,2.652,2.652,0,0,1,.459,1.5v3.527h8.5v-3.527a2.616,2.616,0,0,1,.448-1.488A5.659,5.659,0,0,0,1757.965,617.541Z" transform="translate(-1746.169 -611.454)"/><path class="e" d="M1755.772,625.05h-9.264v-3.908a2.263,2.263,0,0,0-.392-1.288,6.088,6.088,0,1,1,10.037.016,2.223,2.223,0,0,0-.381,1.272Zm-8.5-.761h7.742v-3.146a2.98,2.98,0,0,1,.516-1.7,5.281,5.281,0,0,0,.94-3.013,5.327,5.327,0,1,0-9.724,3,3.023,3.023,0,0,1,.525,1.718Z" transform="translate(-1745.053 -610.337)"/></g><g transform="translate(7.449 25.419)"><rect class="d" width="8.503" height="3.135" transform="translate(0.381 0.38)"/><path class="e" d="M1760.054,678.765h-9.264v-3.9h9.264Zm-8.5-.761h7.742V675.63h-7.742Z" transform="translate(-1750.79 -674.869)"/></g><g transform="translate(8.618 12.407)"><path class="f" d="M1757.944,624.833a2.514,2.514,0,0,0-.824,3.108" transform="translate(-1756.511 -624.515)"/><path class="e" d="M1755.655,627.147a2.886,2.886,0,0,1,.969-3.569l.417.637-.208-.318.21.317a2.132,2.132,0,0,0-.682,2.647Z" transform="translate(-1755.399 -623.578)"/></g><g transform="translate(0 5.884)"><line class="f" x1="4.883" y1="3.488" transform="translate(0.221 0.31)"/><rect class="e" width="0.761" height="6.001" transform="translate(0 0.619) rotate(-54.462)"/></g><g transform="translate(18.456 5.566)"><line class="f" y1="3.488" x2="4.883" transform="translate(0.221 0.31)"/><rect class="e" width="6.001" height="0.761" transform="translate(0 3.488) rotate(-35.541)"/></g><g transform="translate(11.566 0)"><line class="f" y1="5.998" x2="0.191" transform="translate(0.38 0.012)"/><rect class="e" width="6.001" height="0.761" transform="translate(0 5.998) rotate(-88.172)"/></g></g></g><g transform="translate(512.878 320.052)"><g transform="translate(0 0)"><path class="d" d="M1109.7,669.542a16.862,16.862,0,0,0-16.01,22.225l-7.354,8.933a.179.179,0,0,0,.207.278l9.884-4.137a16.88,16.88,0,1,0,13.274-27.3Z" transform="translate(-1085.915 -669.161)"/><path class="e" d="M1108.584,702.575a17.164,17.164,0,0,1-13.392-6.391l-9.619,4.026a.559.559,0,0,1-.648-.871l7.222-8.772a17.261,17.261,0,1,1,16.437,12.008Zm-13.154-7.315.179.228a16.533,16.533,0,1,0-2.674-4.96l.067.2-6.971,8.467Z" transform="translate(-1084.798 -668.042)"/></g><g transform="translate(18.171 8.849)"><path class="d" d="M1157.5,712.886l4.82,4.947,5.962-14.333" transform="translate(-1157.228 -703.354)"/><path class="e" d="M1161.648,718.082l-5.222-5.36.545-.531,4.417,4.534,5.74-13.8.7.292Z" transform="translate(-1156.426 -702.924)"/></g></g><g transform="translate(832.147 329.681)"><path class="d" d="M2389.165,728.945a22.916,22.916,0,1,1-23.151-22.912c-.077,2.494-.154,5.423-.213,8.343a14.576,14.576,0,1,0,15.021,14.568,14.264,14.264,0,0,0-.735-4.543l7.968-2.494A22.566,22.566,0,0,1,2389.165,728.945Z" transform="translate(-2343.333 -706.025)"/><path class="g" d="M2454.153,721.884l-7.967,2.494a14.547,14.547,0,0,0-13.843-10.034c-.145,0-.3,0-.444.009.06-2.921.137-5.85.213-8.343a2.112,2.112,0,0,1,.23-.008A22.921,22.921,0,0,1,2454.153,721.884Z" transform="translate(-2409.431 -706)"/></g><g transform="translate(446.202 469.883)"><g class="h" transform="translate(19.753 50.598)"><circle class="c" cx="17.674" cy="17.674" r="17.674"/><g transform="translate(11.363 6.128)"><path class="f" d="M541.518,1505.369v-2.687a11.4,11.4,0,0,1-4.811-1.217l.849-3.312a10,10,0,0,0,4.7,1.244c1.613,0,2.717-.622,2.717-1.754,0-1.076-.906-1.756-3-2.463-3.029-1.019-5.1-2.434-5.1-5.178,0-2.491,1.755-4.443,4.783-5.038v-2.689h2.774v2.491a10.214,10.214,0,0,1,4.1.933l-.82,3.2a9.383,9.383,0,0,0-4.075-.963c-1.84,0-2.434.792-2.434,1.585,0,.933.991,1.528,3.4,2.434,3.368,1.189,4.726,2.745,4.726,5.293,0,2.519-1.783,4.668-5.037,5.236v2.885Z" transform="translate(-536.707 -1482.277)"/></g></g><g transform="translate(0 24.591)"><circle class="c" cx="9.297" cy="9.297" r="9.297"/><g transform="translate(5.977 3.224)"><path class="f" d="M440.143,1380.457v-1.413a6,6,0,0,1-2.531-.64l.447-1.742a5.258,5.258,0,0,0,2.471.655c.849,0,1.429-.327,1.429-.923,0-.566-.476-.924-1.578-1.3-1.594-.536-2.68-1.28-2.68-2.724a2.751,2.751,0,0,1,2.516-2.65v-1.415h1.459v1.31a5.381,5.381,0,0,1,2.159.491l-.432,1.683a4.935,4.935,0,0,0-2.144-.507c-.968,0-1.281.417-1.281.834,0,.491.521.8,1.787,1.28,1.772.625,2.486,1.444,2.486,2.784a2.853,2.853,0,0,1-2.65,2.754v1.518Z" transform="translate(-437.612 -1368.309)"/></g></g><g transform="translate(38.053)"><circle class="c" cx="9.297" cy="9.297" r="9.297"/><g transform="translate(5.977 3.224)"><path class="f" d="M590.146,1283.521v-1.413a5.991,5.991,0,0,1-2.531-.64l.447-1.742a5.264,5.264,0,0,0,2.471.655c.849,0,1.429-.327,1.429-.922,0-.566-.476-.924-1.578-1.3-1.593-.536-2.68-1.28-2.68-2.724a2.75,2.75,0,0,1,2.516-2.649v-1.415h1.459v1.31a5.381,5.381,0,0,1,2.159.491l-.432,1.683a4.938,4.938,0,0,0-2.144-.507c-.968,0-1.281.417-1.281.834,0,.491.521.8,1.787,1.28,1.772.625,2.486,1.444,2.486,2.784a2.853,2.853,0,0,1-2.65,2.754v1.518Z" transform="translate(-587.615 -1271.374)"/></g></g></g><g transform="translate(837.225 430.185)"><g transform="translate(0 50.888)"><circle class="c" cx="18.816" cy="18.816" r="18.816"/><g transform="translate(12.097 6.524)"><path class="f" d="M2416.16,1353.075v-2.86a12.129,12.129,0,0,1-5.123-1.3l.9-3.525a10.647,10.647,0,0,0,5,1.325c1.717,0,2.892-.662,2.892-1.867,0-1.146-.964-1.869-3.193-2.623-3.225-1.084-5.424-2.591-5.424-5.512,0-2.652,1.869-4.73,5.092-5.363v-2.863h2.953v2.652a10.868,10.868,0,0,1,4.369.994l-.874,3.405a9.989,9.989,0,0,0-4.338-1.026c-1.959,0-2.592.844-2.592,1.688,0,.994,1.055,1.627,3.616,2.591,3.585,1.266,5.032,2.922,5.032,5.635,0,2.681-1.9,4.97-5.363,5.574v3.071Z" transform="translate(-2411.037 -1328.491)"/></g></g><g transform="translate(16.084 0)"><circle class="i" cx="11.512" cy="11.512" r="11.512" transform="translate(0 16.281) rotate(-45)"/><g transform="translate(12.17 8.76)"><path class="f" d="M2477.858,1151.75V1150a7.426,7.426,0,0,1-3.134-.793l.553-2.157a6.512,6.512,0,0,0,3.06.811c1.05,0,1.769-.405,1.769-1.142,0-.7-.59-1.144-1.953-1.6-1.973-.663-3.319-1.585-3.319-3.373,0-1.623,1.143-2.894,3.115-3.281v-1.752h1.806v1.623a6.65,6.65,0,0,1,2.673.608l-.534,2.083a6.112,6.112,0,0,0-2.654-.627c-1.2,0-1.586.516-1.586,1.032,0,.608.646,1,2.212,1.585,2.194.775,3.079,1.788,3.079,3.448,0,1.641-1.162,3.041-3.281,3.41v1.879Z" transform="translate(-2474.724 -1136.709)"/></g></g></g><g transform="translate(594.448 323.839)"><g transform="translate(6.192 0)"><path class="j" d="M1489.864,778.52l-5.1,15.008,13.547,7.133,3.511-19.99-11.948-2.151Z" transform="translate(-1471.059 -754.28)"/><path class="k" d="M1527.1,785.78l-1.786,10.665A39.562,39.562,0,0,1,1519,784.582l2.506-.142Z" transform="translate(-1496.613 -758.699)"/><path class="j" d="M1523.27,701.963s3.041,21.046-2.8,22.628-15.572-5.839-15.572-5.839l2.92-17.518,8.516-2.8Z" transform="translate(-1486.09 -694.512)"/><path class="l" d="M1518.617,690.421s-5.474-2.19-9.124,7.178l-1.825,3.163-9-.973,1.46-11.435,7.907-3.893S1516.914,678.5,1518.617,690.421Z" transform="translate(-1481.438 -682.969)"/><path class="l" d="M1490.524,691.472s-4.582-3.285-11.881,4.014-3.569,21.817,4.217,21.655c7.589-.158,5.475-7.664,4.988-9S1490.524,691.472,1490.524,691.472Z" transform="translate(-1463.564 -688.765)"/><ellipse class="j" cx="3.506" cy="3.999" rx="3.506" ry="3.999" transform="matrix(0.866, -0.5, 0.5, 0.866, 20.921, 15.429)"/><path class="l" d="M1529.808,747.128a3.018,3.018,0,0,0-.775-1.969,2.014,2.014,0,0,0-1.6-.444l-.069-.758a2.737,2.737,0,0,1,2.185.642,3.748,3.748,0,0,1,1.02,2.527h-.761Z" transform="translate(-1502.855 -728.473)"/><circle class="l" cx="6.57" cy="6.57" r="6.57" transform="translate(0 13.088) rotate(-74.068)"/></g><g transform="translate(4.183 112.942)"><g transform="translate(7.437 131.285)"><path class="k" d="M1467.863,1657.027a95.486,95.486,0,0,1-1.81-11.334l-13.905.857.34,9.005c3.5,2.264,10.354,5.972,17.652,6.015A13.129,13.129,0,0,1,1467.863,1657.027Z" transform="translate(-1452.148 -1645.693)"/><path class="l" d="M1479.816,1698.518c-1.75-1.909-5.91-4.257-8.677-7.934-7.3-.043-14.148-3.751-17.652-6.015l.612,16.235h2.762l1.524-7.715s9.239,7.429,15.715,7.81S1480.863,1699.661,1479.816,1698.518Z" transform="translate(-1453.147 -1674.707)"/></g><path class="m" d="M1423.793,1128.177c-3.232,2.811,2.572,104.578,4.572,135.437l19.144-.286-3.143-131.151Z" transform="translate(-1422.833 -1128.177)"/><g transform="translate(20.295 131.285)"><path class="j" d="M1518.548,1657.027a95.411,95.411,0,0,1-1.81-11.334l-13.906.857.34,9.005c3.5,2.264,10.354,5.972,17.652,6.015A13.125,13.125,0,0,1,1518.548,1657.027Z" transform="translate(-1502.833 -1645.693)"/><path class="l" d="M1530.5,1698.518c-1.75-1.909-5.91-4.257-8.677-7.934-7.3-.043-14.148-3.751-17.652-6.015l.613,16.235h2.762l1.524-7.715s9.239,7.429,15.715,7.81S1531.548,1699.661,1530.5,1698.518Z" transform="translate(-1503.832 -1674.707)"/></g><path class="n" d="M1451.4,1134.935l10.808,133.707,20.052.587s.857-107.721-3.715-132.58Z" transform="translate(-1444.151 -1133.221)"/><path class="l" d="M1547.4,1381.842c-.045,0-.091,0-.137-.006l-1.995-.166.063-.759,1.994.166a.859.859,0,1,0,.085-1.714l-6.429-.1.012-.761,6.43.1a1.62,1.62,0,0,1-.023,3.24Z" transform="translate(-1511.006 -1314.997)"/></g><g transform="translate(0 29.651)"><path class="o" d="M1490.068,805.8l1.333-5.953A68.547,68.547,0,0,1,1501.926,806a7.6,7.6,0,0,1,2.958,5.5l.376,5.356-11.429-3.143Z" transform="translate(-1468.828 -799.85)"/><path class="k" d="M1729.257,1037.457a22.126,22.126,0,0,1-14.858-6.1l-.191-9.81,16.763,1.333,4.667,4.381Z" transform="translate(-1636.109 -965.309)"/><path class="l" d="M1616.217,1028.25s7.143-1.619,7.81-15.334l-6.286,4.953Z" transform="translate(-1562.976 -958.865)"/><path class="p" d="M1427.583,823.315l10.382,5.374a14.461,14.461,0,0,1,7.473,9.671c2.929,13.057,8.22,43.657,2.908,76.961a96.979,96.979,0,0,1-42-12.953l8.056-60.92a20.985,20.985,0,0,1,7.508-13.485Z" transform="translate(-1406.343 -817.362)"/><path class="j" d="M1596.636,1011.789l18.778.833a12.614,12.614,0,0,1,5.468,1.488,42.476,42.476,0,0,1,7.482,5.2,3.851,3.851,0,0,1,.82,4.8h0a3.84,3.84,0,0,1-.913,1.084l-2.293,1.876a3.848,3.848,0,0,1-.625.417l-3.273,1.745a3.721,3.721,0,0,1-1.6.447,11.215,11.215,0,0,1-8.793-3.656l-24-2.714,4-9Z" transform="translate(-1541.68 -958.024)"/><path class="k" d="M1714.26,1015.345l-11.324-3.73a3.281,3.281,0,0,0-1.693-.1c-2.7.557-10.635,2.4-9.27,4.543,1,1.572,8.953-.9,8.953-.9Z" transform="translate(-1619.396 -957.77)"/><g transform="translate(66.909 63.533)"><path class="k" d="M1670.76,1055.616h0a1.531,1.531,0,0,1-.4-2.127l1.728-2.529a1.531,1.531,0,0,1,2.127-.4h0a1.531,1.531,0,0,1,.4,2.127l-1.728,2.529A1.531,1.531,0,0,1,1670.76,1055.616Z" transform="translate(-1670.093 -1050.293)"/><path class="k" d="M1679.351,1058.138h0a1.531,1.531,0,0,1-.4-2.127l2.306-3.374a1.531,1.531,0,0,1,2.127-.4h0a1.531,1.531,0,0,1,.4,2.127l-2.306,3.374A1.531,1.531,0,0,1,1679.351,1058.138Z" transform="translate(-1676.505 -1051.544)"/><path class="k" d="M1689.766,1065.432h0a1.531,1.531,0,0,1-.4-2.127l1.728-2.529a1.531,1.531,0,0,1,2.127-.4h0a1.531,1.531,0,0,1,.4,2.127l-1.728,2.529A1.531,1.531,0,0,1,1689.766,1065.432Z" transform="translate(-1684.278 -1057.619)"/><rect class="k" width="2.685" height="4.759" rx="1.342" transform="matrix(0.826, 0.564, -0.564, 0.826, 9.449, 4.137)"/></g><path class="p" d="M1497.53,865.786s6.667-3.81,8.382,32.955l22.287,4.286a40.9,40.9,0,0,0-7.81,15.334l-18.979-2.039a12.487,12.487,0,0,1-7.092-3.2h0a12.488,12.488,0,0,1-4.025-8.258l-2.478-32.22Z" transform="translate(-1467.147 -848.975)"/><path class="l" d="M1521.694,939.75l-20.181-2.061a12.629,12.629,0,0,1-11.335-12.022l-1.01-23.528.76-.033,1.01,23.528a11.869,11.869,0,0,0,10.652,11.3l19.514,1.992a35.419,35.419,0,0,1,7.363-14.677l-21.883-4.209-3.883-26.148.752-.112,3.8,25.614,22.728,4.371-.509.507a33.749,33.749,0,0,0-7.708,15.15Z" transform="translate(-1468.157 -869.952)"/><rect class="l" width="0.761" height="12.841" transform="translate(24.181 74.654) rotate(-77.062)"/><g transform="translate(78.274 61.139)"><path class="k" d="M1734.515,1046.724l-2.372-4.244-2.34-1.17.227-.454,2.48,1.24,2.448,4.381Z" transform="translate(-1726.02 -1040.855)"/><rect class="k" width="0.507" height="5.259" transform="translate(3.108 3.528) rotate(-30.875)"/><rect class="k" width="0.507" height="5.259" transform="translate(0 5.241) rotate(-30.875)"/></g></g></g><g transform="translate(687.597 320.232)"><g transform="translate(18.192 109.12)"><g transform="translate(0 137.914)"><path class="l" d="M1861.431,1644.443l-.19,14.477-16,10.477h30.288l1.143-26.859Z" transform="translate(-1845.239 -1642.538)"/><rect class="q" width="1.015" height="6.16" transform="matrix(0.586, -0.811, 0.811, 0.586, 15.704, 16.793)"/></g><g transform="translate(66.861 133.723)"><path class="l" d="M2121.47,1626.019l3.428,18.573,10.858,12.477h-22.573l-4.381-26.859Z" transform="translate(-2108.802 -1626.019)"/><rect class="q" width="5.694" height="1.015" transform="translate(11.933 22.49) rotate(-48.345)"/></g><path class="e" d="M1898.924,1104s-9.334,37.717-6.477,138.866h21.716s5.715-84.577,13.715-141.724Z" transform="translate(-1880.066 -1100.574)"/><path class="e" d="M2018.984,1098.893l17.049,139.723-22.382,3.714-26.983-143.157Z" transform="translate(-1950.789 -1098.893)"/><path class="l" d="M1994.288,1245.823l-6.043-34.577-7.18-1.306.136-.749,7.7,1.4.046.262,6.088,34.839Z" transform="translate(-1946.608 -1181.211)"/><path class="l" d="M1895.542,1428.1a1.371,1.371,0,0,1-1.361-1.235,1.376,1.376,0,0,1,1.125-1.486l6.262-1.108.133.75-6.262,1.108a.61.61,0,0,0-.279,1.073.606.606,0,0,0,.448.134l2.69-.278.078.757-2.689.278A1.428,1.428,0,0,1,1895.542,1428.1Z" transform="translate(-1881.76 -1341.729)"/><path class="l" d="M2049.563,1422.256a1.371,1.371,0,0,1-1.361-1.235,1.376,1.376,0,0,1,1.125-1.486l6.262-1.108.133.749-6.262,1.108a.612.612,0,0,0-.5.661.605.605,0,0,0,.221.412.6.6,0,0,0,.448.134l2.69-.278.078.757-2.69.278A1.349,1.349,0,0,1,2049.563,1422.256Z" transform="translate(-1996.709 -1337.367)"/></g><g transform="translate(0 36.523)"><path class="f" d="M1941.053,812.721l-19.38,49.738-2.1,26.287,41.717,2.857-6.077-78.482Z" transform="translate(-1882.528 -812.721)"/><path class="r" d="M1922.667,939.4a32.8,32.8,0,0,0,9.458-.737,37.5,37.5,0,0,0,8.783-3.163,39.328,39.328,0,0,0,4.01-2.419c.64-.45,1.329-.837,1.933-1.34s1.222-.99,1.847-1.474a19.333,19.333,0,0,0,1.786-1.56l1.766-1.608c1.134-1.12,2.2-2.311,3.4-3.428-.828,1.384-1.7,2.76-2.649,4.088l-1.565,1.881a16.258,16.258,0,0,1-1.67,1.8,33.656,33.656,0,0,1-7.926,5.864,29.382,29.382,0,0,1-9.448,2.915A21.581,21.581,0,0,1,1922.667,939.4Z" transform="translate(-1884.833 -895.522)"/><path class="l" d="M1917.8,812.721s-8.007,11.668-15.692,96.427a.607.607,0,0,1-.953.444l-12.736-9.13,11.144-72.576Z" transform="translate(-1859.271 -812.721)"/><path class="l" d="M1832.055,812.721l-16.91,4.6a7.62,7.62,0,0,0-5.344,5.316l-11.127,40.11-23.43,4.286-1.714,14.572,30.4-1.425a7.834,7.834,0,0,0,7.328-6.357l8.271-43.364Z" transform="translate(-1773.529 -812.721)"/><path class="l" d="M2034.626,814.3s-8.9,61.315-8.642,96.323l27.905-1.268.053-58.861Z" transform="translate(-1961.937 -813.9)"/><rect class="s" width="42.679" height="32.372" rx="4.507" transform="translate(55.927 52.972) rotate(7.565)"/><path class="f" d="M2061.558,1089.415a.379.379,0,0,1-.053,0h0l-5.144-.683a.4.4,0,0,1-.344-.451l.509-3.831a.4.4,0,0,1,.45-.344l5.144.683a.4.4,0,0,1,.344.45l-.509,3.832a.4.4,0,0,1-.4.348Zm-5.025-1.176,4.933.655.48-3.62-4.933-.655Zm-.014.105h0Zm.389-3.739h0Z" transform="translate(-1984.351 -1015.255)"/><path class="k" d="M2058.115,1089.078l-1.228,1.754a6.8,6.8,0,0,1-3.384,2.551c-2.775.939-8.468,2.714-7.707,4.469.436,1.006,5.737-.363,5.737-.363s-6.125,7.222-3.565,9.417a8.209,8.209,0,0,0,3.325,1.438,13.114,13.114,0,0,0,4.908.113,5.5,5.5,0,0,0,3.3-1.822,25.952,25.952,0,0,0,2.849-3.941,47.329,47.329,0,0,0,4.727-10.324Z" transform="translate(-1976.674 -1018.971)"/><path class="l" d="M2060.067,814.3l12.571,2.782a10.578,10.578,0,0,1,7.564,6.471l12.606,29.05a15.148,15.148,0,0,1-.809,13.659l-14.235,24.424-11.049-5.9,10.477-26.287Z" transform="translate(-1987.377 -813.9)"/><path class="l" d="M2008.515,841.052a11.932,11.932,0,0,1-6.789-2.295l.477-.593c.051.041,5.123,4.027,10.742.977l.363.669A9.93,9.93,0,0,1,2008.515,841.052Z" transform="translate(-1943.836 -831.71)"/><rect class="e" width="70.63" height="0.761" transform="matrix(0.142, -0.99, 0.99, 0.142, 28.775, 87.688)"/><path class="e" d="M2085.6,946.964l-.7-.3,11.874-27.791-8.9-21.161.7-.3,9.026,21.458Z" transform="translate(-2005.908 -875.932)"/><g transform="translate(71.617 83.813)"><rect class="t" width="5.113" height="0.508" transform="matrix(0.562, -0.827, 0.827, 0.562, 0, 4.228)"/><rect class="t" width="5.113" height="0.508" transform="matrix(0.562, -0.827, 0.827, 0.562, 2.706, 5.496)"/><rect class="t" width="5.113" height="0.508" transform="translate(6.68 5.581) rotate(-55.781)"/></g></g><g transform="translate(47.836 0)"><path class="k" d="M2018.8,743.72l-.4,17.91c-7.083,7.347-14.166-.406-14.166-.406l.507-3.673.223-1.634,1-7.316.264-1.938,7.387-1.725Z" transform="translate(-1993.549 -724.702)"/><path class="t" d="M2015.819,757.281s-2.334,4.617-9.579,9.823l.223-1.634,1-7.316,7.59-1.634Z" transform="translate(-1995.041 -734.254)"/><path class="k" d="M1982.9,689.417s-4.1,22.092,1.426,21.736,15.856-6.057,15.856-6.057l1.247-10.512-4.632-6.948-8.018.178Z" transform="translate(-1976.531 -682.844)"/><path class="l" d="M1981.137,686.057s4.677,8.084,7.015,7.817,6.547-15.233,1.4-21.446-16.836-2.673-17.771-2.673-6.147-.133-9.687-.2c0,0,2.873,10.623,14.632,7.416,0,0,1.4,5.144,4.209,5.812Z" transform="translate(-1962.096 -668.751)"/><ellipse class="k" cx="4.075" cy="3.319" rx="4.075" ry="3.319" transform="translate(14.577 18.071) rotate(-71.126)"/><path class="l" d="M2031.064,726.6a3.437,3.437,0,0,1,.408-2.495,3.243,3.243,0,0,1,2.31-1.333l.123.751a2.523,2.523,0,0,0-1.8,1,2.67,2.67,0,0,0-.3,1.894Z" transform="translate(-2013.51 -709.066)"/></g></g><rect class="l" width="579.656" height="1.015" transform="translate(320.262 593.849)"/></g></svg>