<svg xmlns="http://www.w3.org/2000/svg" width="80.791" height="80.791" viewBox="0 0 80.791 80.791"><defs><style>.a{fill:#04bbfd;}.b{fill:#0b7faa;}.c{fill:#f39f9e;}.d{fill:#cc7172;}.e{fill:#fff;}.f{fill:#fbc072;}.g{fill:#eeb66c;}</style></defs><g transform="translate(0 0)"><g transform="translate(0 0)"><g transform="translate(0 0)"><g transform="translate(0 0)"><circle class="a" cx="40.395" cy="40.395" r="40.395"/><path class="b" d="M234.1,159.461q0-1.592-.121-3.154l-30.877-8.363-6.035,9.1-16.463,16.581,12.134,26.218q.482.011.967.011A40.4,40.4,0,0,0,234.1,159.461Z" transform="translate(-153.314 -119.065)"/><g transform="translate(11.743 11.743)"><path d="M1195.37,369.267c-8.792-.277-15.941-3.638-21.417-10.4-2.232-2.755-4.4-5.558-6.595-8.346a3.857,3.857,0,0,1,1.007-5.841q4.537-2.769,9.078-5.532a15.17,15.17,0,0,1,14.511-1.121,8.146,8.146,0,0,0,6.6.018,15.185,15.185,0,0,1,14.516,1.077q4.794,2.921,9.586,5.846c1.026.623,1.112,1.482,1.267,2.657.293,2.222-1.139,3.339-2.2,4.733-1.783,2.348-3.589,4.682-5.482,6.94A27.164,27.164,0,0,1,1195.37,369.267Zm25.236-18.163-.287-.309c-.23.162-.471.311-.689.487-1.673,1.351-3.365,2.68-5.006,4.067a27.776,27.776,0,0,1-14.019,6.443c-9.159,1.382-17.481-.424-24.7-6.469-1.74-1.457-3.518-2.867-5.283-4.293a2.724,2.724,0,0,0-.4-.226c1.836,2.567,3.721,5.033,5.7,7.418a24.944,24.944,0,0,0,35.454,3.141C1214.827,358.374,1217.551,354.548,1220.607,351.1Zm.9-4.434c-.391-.318-.522-.452-.677-.547-3.055-1.871-6.087-3.78-9.176-5.593a12.98,12.98,0,0,0-12.15-.79,10.344,10.344,0,0,1-8.442.007,13.125,13.125,0,0,0-12.363.882c-2.057,1.213-4.077,2.488-6.113,3.736l-3.331,2.04A82.236,82.236,0,0,1,1221.508,346.671Zm-1.806,2.068-.093-.177c-.4.151-.81.286-1.2.454a39.124,39.124,0,0,1-15.708,3.072c-5.261-.03-10.528.152-15.779-.074a65.211,65.211,0,0,1-9.9-1.376,55.31,55.31,0,0,1-6.394-2.093c2.23,1.819,4.254,3.493,6.313,5.123a1.879,1.879,0,0,0,1.1.3q17.216.02,34.431-.008a2.067,2.067,0,0,0,1.2-.347C1215.7,352.017,1217.695,350.37,1219.7,348.739Zm-30.106,1.338h4.627v-5.571H1189.6Zm11.325.025v-5.585H1196.3V350.1Zm-17.065-.083h3.664v-5.457l-3.664.388Zm22.853-5.081-3.7-.363V350.2l3.7-.2Zm-16.156,15.029,3.686.389v-4.362h-3.686Zm9.45-3.977h-3.667v4.381l3.667-.415Zm-11.524,3.615v-3.642h-3.723a15.951,15.951,0,0,0,.02,1.8c.033.287.214.714.433.8C1186.265,358.957,1187.357,359.257,1188.479,359.6Zm13.552.014,3.7-1.118v-2.524h-3.7Zm-20.242-9.857V345.27l-2.733.575v3.385Zm26.929.026,2.783-.575v-3.382l-2.783-.529Zm-31.664-3.453-3.768,1.1,3.768,1.3Zm36.457-.01v2.435l3.724-1.34Zm-33.237,9.623-.055.226,2.553,1.419v-1.645Zm27.5,1.662,2.864-1.627h-2.864Z" transform="translate(-1166.443 -320.568)"/><path d="M1351.218,289.876v-1.852a5.619,5.619,0,0,0,4.45-1.834,6.366,6.366,0,0,0,1.221-4.811h1.492a26.244,26.244,0,0,0,1.634,4.648c.89,1.556,2.6,1.985,4.46,1.955v1.879c-1.753-.066-3.52.326-4.436,1.905a27.057,27.057,0,0,0-1.692,4.741h-.983a26.692,26.692,0,0,0-1.642-4.7C1354.833,290.249,1353.126,289.808,1351.218,289.876ZM1357.9,287l-2.034,1.835,1.913,1.887,2.17-1.721Z" transform="translate(-1307.026 -278.483)"/><path d="M1286.567,274.038v1.749c-3.173.737-4.2,1.764-4.836,4.853h-1.749a5.037,5.037,0,0,0-4.813-4.8v-1.769a5.021,5.021,0,0,0,4.787-4.8h1.8A5.021,5.021,0,0,0,1286.567,274.038Zm-7.432.881,1.58,1.821,1.943-1.625-1.691-2.052Z" transform="translate(-1249.165 -269.272)"/><path d="M1192.838,478.686h-1.723c-.554-2.638-1.406-3.484-3.9-3.854V473.1c2.639-.578,3.43-1.372,3.845-3.895h1.728c.525,2.6,1.38,3.456,3.889,3.848v1.729C1194.045,475.333,1193.225,476.157,1192.838,478.686Zm-.879-6.114-1.323,1.411,1.354,1.271,1.115-1.188Z" transform="translate(-1182.248 -421.391)"/><path class="c" d="M1232.629,395.971c-3.055,3.444-5.78,7.269-9.229,10.259a24.945,24.945,0,0,1-35.454-3.141c-1.981-2.385-3.866-4.851-5.7-7.418a2.718,2.718,0,0,1,.4.226c1.764,1.427,3.543,2.837,5.283,4.293,7.219,6.044,15.541,7.851,24.7,6.469a27.772,27.772,0,0,0,14.018-6.443c1.642-1.388,3.334-2.716,5.007-4.067.218-.177.459-.326.69-.487Z" transform="translate(-1178.465 -365.434)"/><path class="c" d="M1230.458,352.734a82.237,82.237,0,0,0-52.251-.264l3.331-2.04c2.036-1.247,4.057-2.523,6.113-3.736a13.124,13.124,0,0,1,12.363-.882,10.344,10.344,0,0,0,8.441-.007,12.979,12.979,0,0,1,12.15.79c3.088,1.813,6.121,3.723,9.176,5.593C1229.936,352.282,1230.067,352.416,1230.458,352.734Z" transform="translate(-1175.393 -326.63)"/><path class="d" d="M1233.008,386.442c-2.007,1.631-4,3.278-6.034,4.876a2.068,2.068,0,0,1-1.2.348q-17.215.03-34.431.008a1.879,1.879,0,0,1-1.1-.3c-2.059-1.63-4.082-3.3-6.313-5.123a55.336,55.336,0,0,0,6.394,2.093,65.219,65.219,0,0,0,9.9,1.376c5.251.226,10.518.044,15.779.074a39.121,39.121,0,0,0,15.707-3.072c.394-.168.8-.3,1.2-.454Z" transform="translate(-1179.749 -358.271)"/><path class="e" d="M1263.248,374.933v-5.571h4.627v5.571Z" transform="translate(-1240.095 -345.424)"/><path class="e" d="M1295.893,374.992h-4.624v-5.585h4.624Z" transform="translate(-1261.415 -345.458)"/><path class="e" d="M1239.251,375.054v-5.069l3.664-.388v5.457Z" transform="translate(-1221.837 -345.603)"/><path class="e" d="M1323.041,370.015v5.054l-3.7.2v-5.622Z" transform="translate(-1282.775 -345.644)"/><path class="e" d="M1267.249,421.369v-3.974h3.686v4.362Z" transform="translate(-1243.14 -381.969)"/><path class="e" d="M1295.1,417.378v3.966l-3.667.415v-4.381Z" transform="translate(-1261.539 -381.956)"/><path class="e" d="M1246.685,420.905c-1.121-.347-2.213-.647-3.269-1.043-.22-.082-.4-.509-.433-.8a15.868,15.868,0,0,1-.02-1.8h3.722Z" transform="translate(-1224.649 -381.868)"/><path class="e" d="M1315.244,420.967v-3.642h3.7v2.524Z" transform="translate(-1279.655 -381.916)"/><path class="e" d="M1221.914,377.051l-2.734-.531v-3.385l2.734-.575Z" transform="translate(-1206.567 -347.857)"/><path class="e" d="M1343.2,377.178v-4.486l2.783.529V376.6Z" transform="translate(-1300.928 -347.957)"/><path class="e" d="M1198.824,377.009v2.4l-3.769-1.3Z" transform="translate(-1188.212 -351.242)"/><path class="e" d="M1363.245,376.969l3.725,1.1-3.725,1.34Z" transform="translate(-1316.177 -351.211)"/><path class="e" d="M1224.1,417.2h2.5v1.645l-2.552-1.419Z" transform="translate(-1210.27 -381.823)"/><path class="e" d="M1339.258,418.975v-1.627h2.864Z" transform="translate(-1297.927 -381.933)"/><path class="f" d="M1372.688,304.865l2.05,2-2.17,1.721-1.914-1.887Z" transform="translate(-1321.813 -296.352)"/><path class="g" d="M1291.755,286.977l1.831-1.855,1.692,2.052-1.943,1.625Z" transform="translate(-1261.784 -281.331)"/><path class="f" d="M1202.839,483.273l1.146,1.495-1.115,1.188-1.355-1.271Z" transform="translate(-1193.128 -432.091)"/></g></g></g></g></g></svg>