<svg xmlns="http://www.w3.org/2000/svg" xmlns:xlink="http://www.w3.org/1999/xlink" width="437.888" height="388.112" viewBox="0 0 437.888 388.112"><defs><style>.a{opacity:0.99;}.b,.c{opacity:0.17;}.b{mix-blend-mode:screen;isolation:isolate;fill:url(#a);}.d{fill:#40382e;opacity:0.12;}.e{fill:#01e9a1;}.f{fill:#04bbfd;}.g{fill:#06759c;}.h{opacity:0.07;}.i{fill:#98e4ff;}.j{fill:#39c3f5;}.k,.n{fill:#fff;}.k,.l{stroke:#233743;}.l{fill:#64e1dc;}.m{fill:#1cadb5;}.o{fill:#e9edf5;}.p{fill:#ffde07;}.q{fill:#c9b008;}.r{fill:#3ec0fc;}.s{fill:#40a2fb;}.t{fill:red;}.u{fill:#b10909;}.v{fill:#b29d13;}.w{fill:#ada5cc;}.x{fill:#433f5c;}.y{fill:#f3f0ff;}.z{fill:#cbc4e5;}.aa{fill:#e2defb;}.ab{fill:#ffbd86;}.ac{fill:#f6a96c;}.ad{fill:#ffee9a;}.ae{fill:#fcdd66;}.af{fill:#b5adcf;}.ag{fill:#233743;}</style><radialGradient id="a" cx="0.5" cy="0.5" r="0.5" gradientUnits="objectBoundingBox"><stop offset="0" stop-color="#fff"/><stop offset="0.376" stop-color="#9a9a9a"/><stop offset="0.808" stop-color="#2c2c2c"/><stop offset="1"/></radialGradient></defs><g class="a" transform="translate(-1166.37 -194.029)"><g transform="translate(1166.37 194.029)"><g transform="translate(0 0)"><circle class="b" cx="194.056" cy="194.056" r="194.056"/></g><g transform="translate(113.717 49.986)"><g class="c" transform="translate(55.188 0.99)"><path d="M536.993,199.265l-9.221-3.977a5.679,5.679,0,0,1-1.378-9.585l7.727-6.414a.249.249,0,0,0,.067-.294l-11.7-25.626a.247.247,0,0,0-.266-.141l-9.907,1.639a5.707,5.707,0,0,1-5.515-2.255,5.614,5.614,0,0,1-.826-5.063L509,137.976a.248.248,0,0,0-.1-.283l-23.7-15.231a.248.248,0,0,0-.3.025l-7.448,6.735a5.57,5.57,0,0,1-3.788,1.471,5.636,5.636,0,0,1-5.5-4.2l-2.625-9.693a.247.247,0,0,0-.238-.183H437.126a.247.247,0,0,0-.238.183l-2.625,9.693a5.636,5.636,0,0,1-5.5,4.2,5.571,5.571,0,0,1-3.788-1.471l-7.448-6.735a.249.249,0,0,0-.3-.025l-23.7,15.231a.249.249,0,0,0-.1.283l3.033,9.573a5.615,5.615,0,0,1-.826,5.064,5.7,5.7,0,0,1-5.515,2.255l-9.907-1.639a.25.25,0,0,0-.266.141L368.236,179a.249.249,0,0,0,.067.294l7.727,6.414a5.679,5.679,0,0,1-1.379,9.585l-9.221,3.977a.249.249,0,0,0-.147.263l4.01,27.885a.247.247,0,0,0,.215.21l9.968,1.218a5.679,5.679,0,0,1,4.022,8.808l-5.607,8.331a.248.248,0,0,0,.018.3l18.449,21.291a.249.249,0,0,0,.295.061l9.045-4.364a5.646,5.646,0,0,1,2.468-.572,5.742,5.742,0,0,1,4.074,1.726,5.612,5.612,0,0,1,1.6,4.081l-.212,10.04a.247.247,0,0,0,.178.243l27.031,7.937a.247.247,0,0,0,.28-.107l5.249-8.561a5.679,5.679,0,0,1,9.683,0l5.249,8.561a.247.247,0,0,0,.211.117.234.234,0,0,0,.069-.01l27.032-7.937a.247.247,0,0,0,.178-.243l-.212-10.04a5.613,5.613,0,0,1,1.6-4.081,5.742,5.742,0,0,1,4.074-1.726,5.651,5.651,0,0,1,2.468.572l9.045,4.364a.249.249,0,0,0,.295-.061l18.449-21.291a.249.249,0,0,0,.018-.3l-5.607-8.331a5.679,5.679,0,0,1,4.022-8.808l9.968-1.218a.247.247,0,0,0,.215-.21l4.01-27.885A.248.248,0,0,0,536.993,199.265Zm-85.781,43.029a40.619,40.619,0,1,1,40.618-40.618A40.619,40.619,0,0,1,451.212,242.295Z" transform="translate(-365.282 -116.618)"/></g><ellipse class="d" cx="159.48" cy="12.524" rx="159.48" ry="12.524" transform="translate(5.212 292.905)"/><g transform="translate(50.733)"><path class="e" d="M529.446,197.588l-9.221-3.977a5.679,5.679,0,0,1-1.379-9.585l7.727-6.415a.248.248,0,0,0,.067-.293l-11.7-25.626a.247.247,0,0,0-.266-.141l-9.907,1.639a5.707,5.707,0,0,1-5.515-2.255,5.614,5.614,0,0,1-.827-5.063l3.033-9.573a.249.249,0,0,0-.1-.283l-23.7-15.231a.248.248,0,0,0-.3.025l-7.448,6.735a5.57,5.57,0,0,1-3.788,1.471,5.636,5.636,0,0,1-5.5-4.2l-2.625-9.693a.247.247,0,0,0-.239-.183H429.579a.247.247,0,0,0-.239.183l-2.625,9.693a5.635,5.635,0,0,1-5.5,4.2,5.57,5.57,0,0,1-3.788-1.471l-7.448-6.735a.247.247,0,0,0-.3-.025l-23.7,15.231a.249.249,0,0,0-.1.283l3.033,9.573a5.614,5.614,0,0,1-.826,5.063,5.7,5.7,0,0,1-5.515,2.255l-9.907-1.639a.25.25,0,0,0-.266.141l-11.7,25.626a.248.248,0,0,0,.067.293l7.727,6.415a5.679,5.679,0,0,1-1.378,9.585l-9.221,3.977a.248.248,0,0,0-.147.263l4.01,27.885a.247.247,0,0,0,.216.21l9.968,1.218a5.679,5.679,0,0,1,4.022,8.808l-5.607,8.331a.249.249,0,0,0,.018.3L388.812,265.9a.249.249,0,0,0,.295.061l9.045-4.364a5.638,5.638,0,0,1,2.468-.572,5.743,5.743,0,0,1,4.074,1.726,5.613,5.613,0,0,1,1.6,4.081l-.213,10.04a.248.248,0,0,0,.178.243l27.032,7.937a.246.246,0,0,0,.28-.108l5.249-8.56a5.679,5.679,0,0,1,9.683,0l5.249,8.56a.246.246,0,0,0,.211.118.233.233,0,0,0,.07-.01l27.032-7.937a.248.248,0,0,0,.178-.243l-.213-10.04a5.613,5.613,0,0,1,1.6-4.081,5.741,5.741,0,0,1,4.074-1.726,5.642,5.642,0,0,1,2.468.572l9.045,4.364a.249.249,0,0,0,.294-.061L516.967,244.6a.249.249,0,0,0,.018-.3l-5.607-8.331a5.679,5.679,0,0,1,4.022-8.808l9.968-1.218a.247.247,0,0,0,.215-.21l4.01-27.885A.248.248,0,0,0,529.446,197.588Zm-85.781,43.029A40.619,40.619,0,1,1,484.283,200,40.618,40.618,0,0,1,443.665,240.618Z" transform="translate(-357.735 -114.941)"/></g><g transform="translate(164.691 142.24)"><path class="f" d="M682.974,451.582l-5.451-5.948a4.563,4.563,0,0,1,2.142-7.48l7.774-2.161a.2.2,0,0,0,.146-.194l-.15-22.634a.2.2,0,0,0-.149-.191l-7.8-2.057a4.584,4.584,0,0,1-3.3-3.467,4.51,4.51,0,0,1,1.06-3.983l5.372-6.02a.2.2,0,0,0,.018-.242l-12.365-18.959a.2.2,0,0,0-.228-.081l-7.675,2.488a4.474,4.474,0,0,1-3.261-.167,4.528,4.528,0,0,1-2.654-4.889l1.264-7.969a.2.2,0,0,0-.115-.213l-20.652-9.265a.2.2,0,0,0-.235.055l-5.112,6.243a4.527,4.527,0,0,1-5.415,1.268,4.476,4.476,0,0,1-2.294-2.324l-3.244-7.387a.2.2,0,0,0-.212-.117l-22.382,3.371a.2.2,0,0,0-.168.174l-.926,8.015a4.512,4.512,0,0,1-2.271,3.44,4.579,4.579,0,0,1-4.784-.161l-6.724-4.46a.2.2,0,0,0-.241.016L565.93,381.222a.2.2,0,0,0-.047.237l3.555,7.243a4.563,4.563,0,0,1-4.163,6.573l-8.068-.117a.2.2,0,0,0-.194.144l-6.232,21.761a.2.2,0,0,0,.089.225l6.906,4.171a4.563,4.563,0,0,1,.052,7.78l-6.85,4.263a.2.2,0,0,0-.086.226l6.522,21.675a.2.2,0,0,0,.2.142l8.066-.224a4.529,4.529,0,0,1,2,.392,4.613,4.613,0,0,1,2.419,2.605,4.512,4.512,0,0,1-.166,3.52l-3.458,7.29a.2.2,0,0,0,.051.236l17.205,14.708a.2.2,0,0,0,.241.014l6.663-4.55a4.563,4.563,0,0,1,7.1,3.185l1.033,8a.2.2,0,0,0,.116.156.22.22,0,0,0,.054.016l22.426,3.072a.2.2,0,0,0,.21-.119l3.146-7.43a4.509,4.509,0,0,1,2.518-2.464,4.612,4.612,0,0,1,3.555.074,4.534,4.534,0,0,1,1.62,1.231l5.2,6.174a.2.2,0,0,0,.236.052l20.527-9.54a.2.2,0,0,0,.112-.214l-1.37-7.951a4.563,4.563,0,0,1,5.845-5.135l7.708,2.386a.2.2,0,0,0,.227-.084L683,451.823A.2.2,0,0,0,682.974,451.582Zm-77.034,3.331A32.635,32.635,0,1,1,649.074,438.5,32.636,32.636,0,0,1,605.939,454.914Z" transform="translate(-550.774 -355.887)"/></g><g transform="translate(71.537 173.109)"><path class="g" d="M477.571,469.412l-3.488-3.806a2.92,2.92,0,0,1,1.371-4.786l4.974-1.383a.127.127,0,0,0,.093-.124l-.1-14.484a.127.127,0,0,0-.1-.122l-4.992-1.316a2.935,2.935,0,0,1-2.113-2.218,2.887,2.887,0,0,1,.678-2.549l3.437-3.852a.128.128,0,0,0,.012-.155l-7.912-12.133a.128.128,0,0,0-.146-.051l-4.912,1.592a2.865,2.865,0,0,1-2.086-.107,2.9,2.9,0,0,1-1.7-3.128l.809-5.1a.128.128,0,0,0-.074-.136l-13.215-5.929a.127.127,0,0,0-.151.035l-3.271,3.995a2.9,2.9,0,0,1-3.465.812,2.867,2.867,0,0,1-1.467-1.488l-2.076-4.727a.127.127,0,0,0-.136-.074l-14.323,2.156a.128.128,0,0,0-.107.112l-.592,5.129a2.887,2.887,0,0,1-1.453,2.2,2.932,2.932,0,0,1-3.062-.1l-4.3-2.854a.128.128,0,0,0-.154.01l-10.883,9.558a.128.128,0,0,0-.03.152l2.275,4.635a2.92,2.92,0,0,1-2.664,4.206l-5.162-.075a.127.127,0,0,0-.124.092l-3.988,13.925a.127.127,0,0,0,.057.143l4.419,2.669a2.92,2.92,0,0,1,.033,4.978l-4.383,2.728a.128.128,0,0,0-.054.145l4.173,13.87a.128.128,0,0,0,.125.09l5.161-.143a2.894,2.894,0,0,1,1.278.251,2.95,2.95,0,0,1,1.548,1.667,2.887,2.887,0,0,1-.106,2.252l-2.213,4.665a.126.126,0,0,0,.032.151L414.06,490.2a.127.127,0,0,0,.155.009l4.264-2.912a2.92,2.92,0,0,1,4.542,2.038l.661,5.121a.127.127,0,0,0,.074.1.11.11,0,0,0,.035.01l14.35,1.966a.126.126,0,0,0,.134-.077l2.014-4.755a2.887,2.887,0,0,1,1.611-1.577,2.955,2.955,0,0,1,2.275.048,2.9,2.9,0,0,1,1.037.788l3.324,3.951a.129.129,0,0,0,.151.033l13.135-6.1a.127.127,0,0,0,.071-.137l-.877-5.087a2.92,2.92,0,0,1,3.74-3.286l4.932,1.526a.127.127,0,0,0,.145-.053l7.749-12.237A.126.126,0,0,0,477.571,469.412Zm-49.294,2.132a20.883,20.883,0,1,1,27.6-10.506A20.883,20.883,0,0,1,428.276,471.544Z" transform="translate(-392.976 -408.177)"/></g><g class="h" transform="translate(50.733 52.906)"><path d="M425.01,272.791A40.76,40.76,0,0,1,406.2,252.413l-.063-.069c-14.093-15.594-27.857-31.482-41.116-47.784l-4.326,9.472a.248.248,0,0,0,.067.293l7.727,6.415a5.679,5.679,0,0,1-1.378,9.585l-9.221,3.977a.248.248,0,0,0-.147.263l4.01,27.885a.247.247,0,0,0,.216.21l9.968,1.218a5.679,5.679,0,0,1,4.022,8.808l-5.607,8.331a.249.249,0,0,0,.018.3l18.449,21.291a.249.249,0,0,0,.295.061l9.045-4.364a5.638,5.638,0,0,1,2.468-.572,5.743,5.743,0,0,1,4.074,1.726,5.613,5.613,0,0,1,1.6,4.081l-.213,10.04a.248.248,0,0,0,.178.243l27.032,7.937a.246.246,0,0,0,.28-.108l5.249-8.561a5.679,5.679,0,0,1,9.683,0l5.249,8.561a.246.246,0,0,0,.211.118.235.235,0,0,0,.07-.01l13.6-3.992C453.489,302.712,439.146,287.85,425.01,272.791Z" transform="translate(-357.735 -204.56)"/><g transform="translate(113.958 128.605)"><path d="M616.9,484.943a32.658,32.658,0,0,1-30.2-34.151q-12.72-14.25-25.633-28.326l-3.861-.056a.2.2,0,0,0-.194.144l-6.232,21.761a.2.2,0,0,0,.089.225l6.906,4.171a4.563,4.563,0,0,1,.052,7.78l-6.85,4.263a.2.2,0,0,0-.085.226l6.522,21.675a.2.2,0,0,0,.2.142l8.066-.224a4.529,4.529,0,0,1,2,.392,4.612,4.612,0,0,1,2.419,2.606,4.511,4.511,0,0,1-.166,3.519l-3.458,7.29a.2.2,0,0,0,.051.236l17.2,14.708a.2.2,0,0,0,.242.014l6.663-4.55a4.563,4.563,0,0,1,7.1,3.185l1.032,8a.2.2,0,0,0,.116.156.211.211,0,0,0,.054.016l22.426,3.072a.2.2,0,0,0,.21-.119l3.146-7.43a4.509,4.509,0,0,1,2.518-2.464,4.611,4.611,0,0,1,3.554.074,4.539,4.539,0,0,1,1.621,1.231l5.2,6.174a.2.2,0,0,0,.236.052l6.217-2.89Q630.453,500.416,616.9,484.943Z" transform="translate(-550.774 -422.41)"/></g><g transform="translate(20.804 133.853)"><path d="M447.148,480.114a20.886,20.886,0,0,1-26.707-31.1q-7.468-8.818-14.851-17.709l-2.916,2.561a.127.127,0,0,0-.03.152l2.275,4.635a2.921,2.921,0,0,1-2.664,4.206l-5.163-.075a.127.127,0,0,0-.124.092L392.981,456.8a.127.127,0,0,0,.057.144l4.419,2.669a2.92,2.92,0,0,1,.033,4.978l-4.383,2.728a.129.129,0,0,0-.055.145l4.174,13.87a.128.128,0,0,0,.125.09l5.161-.143a2.9,2.9,0,0,1,1.278.251,2.952,2.952,0,0,1,1.548,1.667,2.884,2.884,0,0,1-.106,2.252l-2.213,4.665a.128.128,0,0,0,.032.151l11.01,9.412a.127.127,0,0,0,.155.009l4.263-2.912a2.92,2.92,0,0,1,4.543,2.038l.661,5.121a.126.126,0,0,0,.074.1.114.114,0,0,0,.035.01l14.35,1.966a.127.127,0,0,0,.135-.077l2.013-4.755A2.891,2.891,0,0,1,441.9,499.6a2.954,2.954,0,0,1,2.274.048,2.9,2.9,0,0,1,1.037.788l3.324,3.95a.129.129,0,0,0,.151.033l13.135-6.1a.127.127,0,0,0,.071-.137l-.251-1.458Q454.378,488.431,447.148,480.114Z" transform="translate(-392.976 -431.3)"/></g></g></g></g><g transform="translate(1490.411 431.497)"><g transform="translate(0)"><ellipse class="i" cx="24.111" cy="24.111" rx="24.111" ry="24.111"/></g><path class="j" d="M198.692,134.543q0-.95-.072-1.882l-10.747-10.747L176.588,133.1l-10.473,17.658L174,158.648q.288.007.577.007A24.111,24.111,0,0,0,198.692,134.543Z" transform="translate(-150.469 -110.431)"/><g transform="translate(8.447 8.755)"><path class="k" d="M121.011,101.516a8.667,8.667,0,0,0-15.664-5.006,8.667,8.667,0,0,0-14.03,10.181,20.3,20.3,0,0,1,3.466,8.369l.443,6.18a6.416,6.416,0,0,0,6.318,5.3h1.412V116.13a2.39,2.39,0,1,1,4.781,0v10.41h1.412a6.416,6.416,0,0,0,6.318-5.3l.443-6.18a20.3,20.3,0,0,1,3.466-8.369A8.63,8.63,0,0,0,121.011,101.516Z" transform="translate(-89.682 -92.958)"/></g><g transform="translate(27.313 16.704)"><ellipse class="l" cx="7.804" cy="7.804" rx="7.804" ry="7.804"/></g><g transform="translate(35.11 16.704)"><path class="m" d="M372.782,177.357h-.008v15.608h.008a7.8,7.8,0,1,0,0-15.608Z" transform="translate(-372.774 -177.357)"/></g><g transform="translate(30.127 19.518)"><path class="n" d="M329.849,210.311h-3.082v-3.082H322.95v3.082h-3.082v3.816h3.082v3.083h3.816v-3.083h3.082Z" transform="translate(-319.868 -207.229)"/></g><g transform="translate(35.11 19.518)"><path class="o" d="M374.691,210.311v-3.082h-1.916v9.981h1.916v-3.083h3.082v-3.816Z" transform="translate(-372.775 -207.229)"/></g></g><g transform="translate(1386.479 299.043)"><g transform="translate(0 0)"><g transform="translate(0)"><ellipse class="p" cx="30.881" cy="30.881" rx="30.881" ry="30.881"/><path class="q" d="M209.725,134.574q0-1.217-.093-2.411l-26.991-8.015-1.627,3.641-16.1,21.929L178.1,165.446q.369.009.74.009A30.881,30.881,0,0,0,209.725,134.574Z" transform="translate(-147.964 -103.693)"/></g></g><g transform="translate(12.867 10.293)"><path d="M865.307,541.139c.952-1.342,1.822-2.589,2.715-3.82,1.134-1.56,2.238-1.856,3.713-.67,1.714,1.378,3.707,1.618,5.732,1.935a6.15,6.15,0,0,1,5.377,5.862c.137,2.846.11,5.7.119,8.553a1.987,1.987,0,0,1-1.794,2.072c-3.674.776-7.359,1.5-11.041,2.239-4.714.945-9.362.191-14-.6-1.966-.333-3.918-.756-5.87-1.168a2.766,2.766,0,0,1-2.441-2.969c-.042-2.382-.089-4.763-.1-7.144a6.3,6.3,0,0,1,5.648-6.644,11.715,11.715,0,0,0,5.64-2.216c1.4-1.073,2.463-.8,3.493.643C863.4,538.485,864.311,539.748,865.307,541.139Zm2.655,14.915a4.442,4.442,0,0,0,.678,0q6.045-1.176,12.088-2.364c.647-.127.811-.545.8-1.158-.062-2.617-.073-5.234-.145-7.85a4.74,4.74,0,0,0-3.881-4.6c-.891-.178-1.807-.237-2.695-.427-.532-.114-.729.1-.917.531-.659,1.506-1.347,3-2.024,4.5-.792,1.749-1.6,2.128-3.476,1.568-.369,1.2-1.012,2.27-.814,3.679C867.853,551.919,867.844,553.956,867.962,556.054ZM856.517,539.69c-.984.181-1.9.37-2.824.517a4.814,4.814,0,0,0-4.47,5.168c0,2.351.035,4.7.066,7.054.015,1.106.3,1.479,1.379,1.693,2.7.534,5.409,1.062,8.124,1.54,1.251.22,2.524.314,3.866.475.122-1.815.188-3.458.356-5.09a6.8,6.8,0,0,0-.838-4.786c-1.763.527-2.581.167-3.358-1.515S857.291,541.393,856.517,539.69Zm9.829,2.586c.949.859,1.791,1.635,2.649,2.393.486.429.961.472,1.271-.2.824-1.78,1.631-3.568,2.466-5.4-.8-.516-1.534-1.048-2.329-1.475a.915.915,0,0,0-.863.2C868.456,539.245,867.429,540.741,866.347,542.277Zm-8.433-3.22c.836,1.839,1.635,3.595,2.43,5.352.288.636.73.753,1.249.308.907-.776,1.783-1.59,2.713-2.424-1.083-1.516-2.113-2.97-3.156-4.414a.76.76,0,0,0-1.2-.193C859.307,538.146,858.641,538.569,857.914,539.057Zm8.113,9.509h-1.4c-.16,2.593-.317,5.123-.474,7.666h2.36C866.346,553.636,866.188,551.125,866.026,548.565Zm-.654-5.132c-2.057,1.483-2.18,1.906-1.107,3.611,2.293.1,2.319.112,2.731-1.38a1.23,1.23,0,0,0-.242-.961A13.549,13.549,0,0,0,865.372,543.433Z" transform="translate(-847.718 -516.153)"/><path d="M911.255,433.828a1.936,1.936,0,0,1-1.9,2.1,1.684,1.684,0,0,0-1.025,1.942,2.227,2.227,0,0,1-3,3.029,1.678,1.678,0,0,0-1.957.992,1.828,1.828,0,0,1-2.06,1.807,1.914,1.914,0,0,1-2.233-1.833,1.669,1.669,0,0,0-1.983-.952,2.226,2.226,0,0,1-3-2.985,1.636,1.636,0,0,0-1.018-2.006,1.841,1.841,0,0,1-1.765-2.1,1.9,1.9,0,0,1,1.8-2.174,1.752,1.752,0,0,0,1.034-1.963c-.535-1.223-.451-1.768.4-2.611a1.869,1.869,0,0,1,2.541-.387,1.682,1.682,0,0,0,2-1.066,1.837,1.837,0,0,1,2.115-1.746,1.884,1.884,0,0,1,2.155,1.723,1.579,1.579,0,0,0,2.05,1.028,2.239,2.239,0,0,1,2.964,3,1.619,1.619,0,0,0,.978,2.02A1.939,1.939,0,0,1,911.255,433.828Zm-13.81,5.229a10.554,10.554,0,0,0,1.808.764,1.433,1.433,0,0,1,1.262,1.53c.017.489.135.881.742.865.552-.014.676-.371.68-.83a1.413,1.413,0,0,1,1.318-1.568,1.775,1.775,0,0,0,.732-.291,1.517,1.517,0,0,1,2.074.029.691.691,0,0,0,.941-.923,1.45,1.45,0,0,1-.006-2.056,1.433,1.433,0,0,0,.3-.727c.088-1.029.549-1.534,1.647-1.438.218.019.472-.39.71-.6-.251-.228-.492-.47-.759-.676-.075-.058-.23-.024-.346-.015a.979.979,0,0,1-1.156-.918,5.25,5.25,0,0,0-.6-1.542,1.091,1.091,0,0,1,.025-1.371c.261-.345.559-.67.1-1.142-.478-.495-.814-.2-1.218.061-.57.366-3.314-.483-3.588-1.109a2.894,2.894,0,0,1-.149-.687c-.029-.174.03-.4-.063-.515-.183-.219-.442-.511-.673-.515s-.655.329-.646.495c.074,1.324-.717,1.793-1.822,2.039-.278.062-.515.327-.79.369a2.108,2.108,0,0,1-1.126-.052c-.473-.215-.891-.52-1.349-.055s-.049.846.2,1.234c.395.62-.629,3.34-1.335,3.547a4.337,4.337,0,0,1-.607.1c-.146.021-.345-.022-.428.059-.2.2-.5.458-.492.689s.339.64.513.632c1.259-.057,1.8.614,1.983,1.748a1.156,1.156,0,0,0,.22.477,1.292,1.292,0,0,1-.044,1.759c-.321.386-.332.8.123,1.032a1.575,1.575,0,0,0,.975.037A3.674,3.674,0,0,0,897.445,439.056Z" transform="translate(-883.627 -423.871)"/><path class="r" d="M960.479,573.307c-.118-2.1-.109-4.135-.39-6.131-.2-1.409.446-2.477.814-3.679,1.871.56,2.684.181,3.475-1.568.678-1.5,1.365-2.992,2.024-4.5.189-.431.386-.645.917-.531.888.19,1.8.249,2.7.427a4.74,4.74,0,0,1,3.881,4.6c.072,2.616.083,5.234.145,7.85.015.614-.149,1.032-.8,1.159q-6.044,1.183-12.088,2.364A4.406,4.406,0,0,1,960.479,573.307Z" transform="translate(-940.235 -533.406)"/><path class="r" d="M863.55,557.288c.774,1.7,1.528,3.383,2.3,5.056s1.595,2.042,3.358,1.515a6.8,6.8,0,0,1,.838,4.786c-.168,1.632-.234,3.275-.356,5.09-1.341-.161-2.615-.255-3.866-.475-2.714-.477-5.42-1.006-8.123-1.54-1.081-.213-1.364-.587-1.378-1.693-.031-2.351-.067-4.7-.066-7.054a4.813,4.813,0,0,1,4.469-5.168C861.65,557.657,862.567,557.469,863.55,557.288Z" transform="translate(-854.751 -533.751)"/><path class="s" d="M953.314,549.893c1.082-1.535,2.11-3.032,3.195-4.485a.915.915,0,0,1,.863-.2c.8.427,1.534.959,2.329,1.475-.835,1.834-1.642,3.622-2.466,5.4-.31.671-.785.628-1.272.2C955.105,551.529,954.264,550.753,953.314,549.893Z" transform="translate(-934.685 -523.77)"/><path class="s" d="M905.512,546.3c.727-.488,1.393-.911,2.032-1.371a.76.76,0,0,1,1.2.193c1.043,1.444,2.073,2.9,3.156,4.415-.93.834-1.805,1.647-2.713,2.424-.519.444-.96.328-1.249-.309C907.147,549.894,906.347,548.139,905.512,546.3Z" transform="translate(-895.316 -523.396)"/><path class="n" d="M942.735,607.594c.161,2.56.319,5.07.483,7.666h-2.36c.157-2.543.314-5.073.474-7.666Z" transform="translate(-924.426 -575.182)"/><path class="n" d="M939.514,578.5a13.5,13.5,0,0,1,1.382,1.271,1.229,1.229,0,0,1,.242.961c-.412,1.492-.438,1.485-2.731,1.38C937.334,580.41,937.457,579.987,939.514,578.5Z" transform="translate(-921.859 -551.224)"/><path class="e" d="M904.485,446.093a3.655,3.655,0,0,1-.849.436,1.57,1.57,0,0,1-.975-.037c-.455-.229-.443-.646-.123-1.032a1.292,1.292,0,0,0,.045-1.759,1.158,1.158,0,0,1-.22-.477c-.181-1.134-.724-1.805-1.983-1.748-.174.008-.51-.409-.513-.632s.287-.488.492-.689c.083-.081.283-.038.428-.059a4.327,4.327,0,0,0,.608-.1c.706-.207,1.729-2.927,1.334-3.547-.247-.388-.67-.754-.2-1.234s.875-.16,1.349.055a2.111,2.111,0,0,0,1.126.052c.276-.043.513-.307.79-.369,1.105-.247,1.9-.715,1.822-2.039-.01-.166.422-.5.645-.5s.49.3.673.515c.093.111.034.342.063.515a2.857,2.857,0,0,0,.149.687c.273.627,3.017,1.475,3.588,1.109.4-.259.74-.555,1.218-.06.456.471.158.8-.1,1.142a1.092,1.092,0,0,0-.025,1.371,5.247,5.247,0,0,1,.6,1.542.979.979,0,0,0,1.156.919c.116-.009.271-.044.346.015.267.207.508.448.759.676-.238.212-.493.621-.711.6-1.1-.094-1.559.409-1.646,1.439a1.432,1.432,0,0,1-.3.727,1.45,1.45,0,0,0,.007,2.056.691.691,0,0,1-.941.923,1.517,1.517,0,0,0-2.074-.028,1.78,1.78,0,0,1-.732.291,1.412,1.412,0,0,0-1.318,1.568c0,.459-.129.816-.681.83-.607.015-.725-.376-.742-.865a1.433,1.433,0,0,0-1.262-1.53A10.537,10.537,0,0,1,904.485,446.093Zm-.49-5.32a4.269,4.269,0,1,0,4.2-4.23A4.252,4.252,0,0,0,904,440.773Z" transform="translate(-890.667 -430.908)"/><path d="M923.266,460.046a4.269,4.269,0,1,1,4.2,4.319A4.261,4.261,0,0,1,923.266,460.046Zm7.048.053a2.783,2.783,0,1,0-2.846,2.775A2.809,2.809,0,0,0,930.314,460.1Z" transform="translate(-909.938 -450.18)"/><path class="e" d="M937.232,467.062a2.837,2.837,0,0,1-2.846,2.776,2.784,2.784,0,1,1,2.846-2.776Z" transform="translate(-916.857 -457.143)"/></g></g><g transform="translate(1380.574 445.863)"><g transform="translate(0 0)"><ellipse class="t" cx="15.341" cy="15.341" rx="15.341" ry="15.341"/><path class="u" d="M187.176,129.844q0-.6-.046-1.2l-10.743-6.353-3.275,6.634-8.2,8.441,6.552,7.813q.183,0,.367,0A15.341,15.341,0,0,0,187.176,129.844Z" transform="translate(-156.494 -114.503)"/></g><g transform="translate(5.113 2.557)"><g transform="translate(4.266 0.318)"><g transform="translate(3.627)"><path class="p" d="M248.112,9.456h2.03a3.474,3.474,0,0,1,1.164.2V9.187A1.687,1.687,0,0,0,249.618,7.5h-.983a1.687,1.687,0,0,0-1.687,1.687v.469A3.474,3.474,0,0,1,248.112,9.456Z" transform="translate(-246.948 -7.5)"/></g><g transform="translate(3.627 0)"><path class="v" d="M248.112,9.456h.594V9.187a1.687,1.687,0,0,1,1.3-1.642,1.69,1.69,0,0,0-.387-.045h-.983a1.687,1.687,0,0,0-1.687,1.687v.469A3.474,3.474,0,0,1,248.112,9.456Z" transform="translate(-246.948 -7.5)"/></g><g transform="translate(1.309 1.956)"><path class="p" d="M192.939,58.858h.6v-.046a.463.463,0,0,1,.463-.463h1.387a1.967,1.967,0,0,0,1.762-1.092.465.465,0,0,1,.416-.26h2.124a.464.464,0,0,1,.464.464v1.4h.6a.837.837,0,0,1,.591.243V57.057a3.481,3.481,0,0,0-3.481-3.481h-2.03a3.481,3.481,0,0,0-3.481,3.481V59.1A.837.837,0,0,1,192.939,58.858Z" transform="translate(-192.348 -53.576)"/></g><g transform="translate(1.309 1.956)"><path class="v" d="M192.941,58.857h.6V58.81a.463.463,0,0,1,.464-.463h.123V57.056a3.481,3.481,0,0,1,3.481-3.481h-1.775a3.481,3.481,0,0,0-3.481,3.481V59.1A.837.837,0,0,1,192.941,58.857Z" transform="translate(-192.35 -53.575)"/></g><path class="w" d="M170.453,303.753h-1.081v1.7a.212.212,0,0,1-.252.208v.659a.212.212,0,0,1-.048.134l-1.6,1.956a.212.212,0,0,1-.329,0l-1.6-1.956a.212.212,0,0,1-.048-.134v-.659a.212.212,0,0,1-.253-.208v-1.7h-1.081a3.022,3.022,0,0,0-2.664,1.593.941.941,0,0,1,.628.886v.3h.57a.17.17,0,0,1,.17.17v.415h1.294a.17.17,0,0,1,.17.17v4.987h8.926a.212.212,0,0,0,.212-.212v-5.286A3.023,3.023,0,0,0,170.453,303.753Z" transform="translate(-161.507 -291.178)"/><path class="x" d="M164.645,303.751A3.022,3.022,0,0,0,162,305.306a.983.983,0,0,1,.649.924v.257h.527l.025,0a3.024,3.024,0,0,1,2.522-2.7v-.04h-1.081Z" transform="translate(-161.981 -291.176)"/><g transform="translate(3.997 13.079)"><path class="y" d="M259.2,316.981l-1.577-1.31a.212.212,0,0,0-.271,0l-1.577,1.31a.21.21,0,0,1-.1.045v.659a.212.212,0,0,0,.048.134l1.6,1.956a.212.212,0,0,0,.329,0l1.6-1.956a.212.212,0,0,0,.048-.134v-.659A.21.21,0,0,1,259.2,316.981Z" transform="translate(-255.683 -315.622)"/></g><g transform="translate(3.997 13.8)"><path class="z" d="M256.545,333.526v-.9l-.767.637a.21.21,0,0,1-.1.045v.659a.212.212,0,0,0,.048.134l1.6,1.956a.212.212,0,0,0,.329,0l.445-.546-1.507-1.848A.212.212,0,0,1,256.545,333.526Z" transform="translate(-255.683 -332.622)"/></g><g transform="translate(3.745 11.592)"><path class="y" d="M253.767,280.656l-.086-.063a2.549,2.549,0,0,1-1.14.268h-1.493a2.549,2.549,0,0,1-1.14-.268l-.086.063a.212.212,0,0,0-.087.171v2.448a.212.212,0,0,0,.348.163l1.577-1.31a.212.212,0,0,1,.271,0l1.577,1.31a.212.212,0,0,0,.348-.163v-2.448A.212.212,0,0,0,253.767,280.656Z" transform="translate(-249.734 -280.593)"/></g><path class="aa" d="M249.907,280.593l-.086.063a.212.212,0,0,0-.087.171v2.448a.212.212,0,0,0,.348.163l.512-.426v-1.922a.212.212,0,0,1,.087-.171l.1-.072A2.544,2.544,0,0,1,249.907,280.593Z" transform="translate(-245.989 -269.001)"/><g transform="translate(1.061 7.237)"><path class="ab" d="M187.929,180.066v-2.061h-.6a.84.84,0,0,0-.84.84v.559a.84.84,0,0,0,.84.84h.6C187.932,180.185,187.929,180.125,187.929,180.066Z" transform="translate(-186.493 -178.005)"/><path class="ab" d="M376.652,178.005h-.6v2.061c0,.06,0,.119-.007.178h.6a.84.84,0,0,0,.84-.84v-.559A.839.839,0,0,0,376.652,178.005Z" transform="translate(-368.002 -178.005)"/></g><g transform="translate(4.695 11.833)"><path class="ac" d="M273.964,286.309h-1.493a2.578,2.578,0,0,1-.364-.026l.929,1.544a.212.212,0,0,0,.364,0l.929-1.544A2.579,2.579,0,0,1,273.964,286.309Z" transform="translate(-272.107 -286.283)"/></g><g transform="translate(2.497 5.375)"><path class="ab" d="M224.359,134.138a.465.465,0,0,0-.416.26,1.967,1.967,0,0,1-1.762,1.092h-1.387a.464.464,0,0,0-.464.464v2.107a2.562,2.562,0,0,0,2.562,2.562h1.493a2.562,2.562,0,0,0,2.562-2.562V134.6a.463.463,0,0,0-.464-.464h-2.124Z" transform="translate(-220.33 -134.138)"/></g><g transform="translate(2.497 6.727)"><path class="ac" d="M221.674,168.564v-2.107a.463.463,0,0,1,.464-.463h-1.344a.464.464,0,0,0-.464.463v2.107a2.562,2.562,0,0,0,2.562,2.562h1.344A2.562,2.562,0,0,1,221.674,168.564Z" transform="translate(-220.33 -165.994)"/></g><g transform="translate(7.638 17.382)"><path class="n" d="M344.389,418.795h-2.8a.127.127,0,0,1-.127-.127v-1.542a.127.127,0,0,1,.127-.127h2.8a.127.127,0,0,1,.127.127v1.542A.127.127,0,0,1,344.389,418.795Z" transform="translate(-341.457 -416.998)"/></g><g transform="translate(7.638 17.382)"><path class="y" d="M342.793,418.667v-1.542a.127.127,0,0,1,.127-.127h-1.336a.127.127,0,0,0-.127.127v1.542a.127.127,0,0,0,.127.127h1.336A.127.127,0,0,1,342.793,418.667Z" transform="translate(-341.457 -416.998)"/></g></g><path class="ad" d="M85.258,382H84.006v.264a.212.212,0,0,1-.212.212H80.774a.212.212,0,0,1-.212-.212V382H79.31a.212.212,0,0,0-.212.212V387.2H85.47v-4.987A.212.212,0,0,0,85.258,382Z" transform="translate(-78.33 -365.786)"/><path class="ae" d="M80.774,382.476a.212.212,0,0,1-.212-.212V382H79.31a.212.212,0,0,0-.212.212v2.469h1.044a.213.213,0,0,1,.213.213v2.3h.521v-4.724Z" transform="translate(-78.33 -365.786)"/><g transform="translate(2.972 14.39)"><path class="y" d="M132.981,340.265v-.257a.982.982,0,0,0-1.965,0v.257Z" transform="translate(-131.016 -339.026)"/></g><g transform="translate(2.972 14.39)"><path class="aa" d="M131.907,340.265v-.257a.982.982,0,0,1,.537-.875.982.982,0,0,0-1.428.875v.257Z" transform="translate(-131.016 -339.026)"/></g><g transform="translate(2.232 15.63)"><path class="z" d="M116.825,369.28h-3.019a.212.212,0,0,1-.212-.212v-.637a.212.212,0,0,1,.212-.212h3.019a.212.212,0,0,1,.212.212v.637A.212.212,0,0,1,116.825,369.28Z" transform="translate(-113.593 -368.219)"/></g><g transform="translate(2.232 15.63)"><path class="af" d="M114.92,369.068v-.637a.212.212,0,0,1,.212-.212h-1.328a.212.212,0,0,0-.212.212v.637a.212.212,0,0,0,.212.212h1.328A.212.212,0,0,1,114.92,369.068Z" transform="translate(-113.593 -368.219)"/></g><g transform="translate(0.318 18.896)"><path class="ab" d="M70.207,447.687h-1.38a.327.327,0,0,1-.327-.327v-1.865a.327.327,0,0,1,.327-.327h1.167a.213.213,0,0,1,.213.213Z" transform="translate(-68.5 -445.168)"/></g><g transform="translate(0.318 18.896)"><path class="ac" d="M69.37,447.36v-1.865a.327.327,0,0,1,.327-.327h-.87a.327.327,0,0,0-.327.327v1.865a.327.327,0,0,0,.327.327h.87A.327.327,0,0,1,69.37,447.36Z" transform="translate(-68.5 -445.168)"/></g><g transform="translate(0 0)"><path class="ag" d="M249.515,180.944v-.584a.318.318,0,0,0-.637,0v.584a.318.318,0,0,0,.637,0Z" transform="translate(-240.903 -172.399)"/><path class="ag" d="M332.98,180.041a.318.318,0,0,0-.318.318v.584a.318.318,0,0,0,.637,0v-.584A.318.318,0,0,0,332.98,180.041Z" transform="translate(-321.131 -172.399)"/><path class="ag" d="M263.883,230.655a1.45,1.45,0,0,1-2.053,0,.318.318,0,0,0-.45.45,2.087,2.087,0,0,0,2.953,0,.318.318,0,0,0-.45-.45Z" transform="translate(-252.785 -220.776)"/><path class="ag" d="M285.205,185.122h.5a.318.318,0,0,0,0-.637h-.181v-.514a.318.318,0,1,0-.637,0v.832A.318.318,0,0,0,285.205,185.122Z" transform="translate(-275.384 -175.858)"/><ellipse class="ag" cx="0.318" cy="0.318" rx="0.318" ry="0.318" transform="translate(9.753 14.517)"/><ellipse class="ag" cx="0.318" cy="0.318" rx="0.318" ry="0.318" transform="translate(9.753 15.875)"/><path class="ag" d="M333.957,409.944v1.542a.446.446,0,0,0,.446.446h2.8a.446.446,0,0,0,.446-.446v-1.542a.446.446,0,0,0-.446-.446h-2.8A.446.446,0,0,0,333.957,409.944Zm.637.191h2.422v1.16h-2.422Z" transform="translate(-322.371 -392.116)"/><path class="ag" d="M359.328,387.137a.318.318,0,0,0,0-.637h-1.019a.318.318,0,1,0,0,.637Z" transform="translate(-345.385 -370.094)"/><path class="ag" d="M77.236,16.83a.318.318,0,0,0,.318-.318v-.6a3.345,3.345,0,0,0-3.342-3.342h-.7v-.5a.522.522,0,0,0-.016-.127,2.884,2.884,0,0,0,1.155-1.84h.322a1.159,1.159,0,0,0,1.158-1.158V8.4a1.152,1.152,0,0,0-.249-.716V5.755a3.765,3.765,0,0,0-.374-1.646.318.318,0,0,0-.574.276,3.132,3.132,0,0,1,.311,1.37V7.27a1.157,1.157,0,0,0-.273-.033H74.7V6.157a.783.783,0,0,0-.782-.782H71.792a.779.779,0,0,0-.7.436,1.641,1.641,0,0,1-1.477.916H68.226a.782.782,0,0,0-.732.51h-.328a1.155,1.155,0,0,0-.273.033V5.755a3.166,3.166,0,0,1,3.163-3.163h2.029a3.167,3.167,0,0,1,2.02.729.318.318,0,1,0,.407-.49,3.791,3.791,0,0,0-.945-.574V2.005A2.007,2.007,0,0,0,71.563,0H70.58a2.007,2.007,0,0,0-2.005,2.005v.252a3.805,3.805,0,0,0-2.318,3.5V7.68a1.152,1.152,0,0,0-.249.716v.559a1.159,1.159,0,0,0,1.158,1.158h.322a2.886,2.886,0,0,0,1.273,1.921c0,.015,0,.03,0,.046v.5H67.93a3.34,3.34,0,0,0-2.793,1.51,1.3,1.3,0,0,0-1.482,1.226h-.211a.531.531,0,0,0-.531.531V15.9H61.98a.531.531,0,0,0-.531.531v2.181a.646.646,0,0,0-.45.615v1.865a.646.646,0,0,0,.645.645H77.023a.531.531,0,0,0,.531-.531V18a.318.318,0,1,0-.637,0v3.1H68.459V19.738a.318.318,0,1,0-.637,0V21.1H63.344V19.109a.532.532,0,0,0-.532-.532h-.726V16.533h.83a.531.531,0,0,0,.528.476h3.019a.531.531,0,0,0,.528-.476h.83v1.719a.318.318,0,1,0,.637,0V16.427a.531.531,0,0,0-.531-.531h-.934v-.054a.531.531,0,0,0-.531-.531h-.211a1.3,1.3,0,0,0-.516-.976,2.7,2.7,0,0,1,2.192-1.124h.829v1.315a.525.525,0,0,0,.187.4v.529a.532.532,0,0,0,.119.335l1.6,1.956a.531.531,0,0,0,.822,0l1.6-1.956a.532.532,0,0,0,.119-.335v-.448l.013-.005a.526.526,0,0,0,.305-.48V13.212h.7a2.708,2.708,0,0,1,2.7,2.7v.6a.318.318,0,0,0,.318.318ZM74.7,7.874h.278A.522.522,0,0,1,75.5,8.4v.559a.522.522,0,0,1-.521.521H74.7ZM69.211,2.005A1.37,1.37,0,0,1,70.58.637h.983a1.37,1.37,0,0,1,1.368,1.368v.047a3.792,3.792,0,0,0-.845-.1H70.057a3.8,3.8,0,0,0-.845.095V2.005ZM67.445,9.476h-.278a.522.522,0,0,1-.521-.521V8.4a.522.522,0,0,1,.521-.521h.278Zm-4.737,9.739V21.1H61.645a.009.009,0,0,1-.009-.009V19.223a.009.009,0,0,1,.009-.009Zm2.247-4.505a.665.665,0,0,1,.661.6H64.293A.665.665,0,0,1,64.954,14.709Zm1.4,1.239v.424H63.551v-.424Zm6.2-.525-1.489,1.826-1.489-1.826v-.454a.538.538,0,0,0,.046-.034l1.118-.929a.527.527,0,0,0,.325.111h0a.525.525,0,0,0,.387-.169l1.1.916ZM69.4,14.3V12.341a2.859,2.859,0,0,0,.368.1l.623,1.036Zm1.144-1.8H71.6l-.532.884Zm2.339,1.8L71.8,13.4l.579-.963a2.855,2.855,0,0,0,.5-.148ZM71.818,11.86H70.325a2.246,2.246,0,0,1-2.243-2.243V7.509a.145.145,0,0,1,.145-.145h1.387A2.274,2.274,0,0,0,71.661,6.1a.146.146,0,0,1,.131-.083h2.124a.145.145,0,0,1,.145.145V9.616A2.246,2.246,0,0,1,71.818,11.86Z" transform="translate(-61 0)"/></g></g></g></g></svg>