<svg xmlns="http://www.w3.org/2000/svg" width="84.085" height="84.085" viewBox="0 0 84.085 84.085"><defs><style>.a{fill:#8394e5;}.b{fill:#6672af;}.c{fill:#fb6771;}.d{fill:#7ce5e9;}.e{fill:#53d8d8;}.f{fill:#494b53;}.g{fill:#9be147;}.h{fill:#c6e02d;}.i{fill:#ffd8b7;}.j{fill:#c79a83;}.k{fill:#cae6ee;}.l{fill:#3090fc;}.m{fill:#50dd5a;}.n{fill:#81c83d;}.o{fill:#43a2ff;}.p{fill:#e0b699;}.q{fill:#b2826d;}.r{fill:#1581d1;}.s{fill:#3093d6;}.t{fill:#db4d65;}.u{fill:#7d8696;}.v{fill:#fff655;}.w{fill:#61687a;}.x{fill:#233743;}</style></defs><g transform="translate(0)"><g transform="translate(0 0)"><g transform="translate(0 0)"><g transform="translate(0)"><circle class="a" cx="42.004" cy="42.004" r="42.004"/></g><path class="b" d="M225.978,138.355q0-1.658-.126-3.285L189.07,124.148,187.4,135.839l-22.483,23.154,17.973,21.432q.5.012,1.008.012A42.082,42.082,0,0,0,225.978,138.355Z" transform="translate(-141.893 -96.352)"/></g></g><g transform="translate(15.304 17.457)"><path class="c" d="M205.419,139s-.007,0-.011,0h-9.191s-.007,0-.011,0A2.437,2.437,0,0,0,194,141.459v9.847h13.625v-9.847A2.437,2.437,0,0,0,205.419,139Z" transform="translate(-174.114 -128.384)"/><path class="d" d="M241.441,159.031l1.1,5.3-1.889,1.487-1.889-1.487,1.1-5.306Z" transform="translate(-213.955 -146.213)"/><path class="e" d="M245.976,139.45v.062l-.616,2.091h-1.583l-.616-2.091v-.06Z" transform="translate(-217.872 -128.784)"/><path class="f" d="M110.18,223.47h3.867v3.175H110.18Z" transform="translate(-99.503 -203.573)"/><path class="g" d="M429.122,244.36a11.635,11.635,0,0,0-1.156,8.142,9.315,9.315,0,0,0-1.153,1.22,7.8,7.8,0,0,0-1.164-3.449S425.791,245.842,429.122,244.36Z" transform="translate(-380.311 -222.167)"/><path class="h" d="M388.974,280.167a10.448,10.448,0,0,0-1.936,4.153s-.005-.424-.056-1.1c-.175-2.4-.9-7.974-3.842-9.148a6.017,6.017,0,0,1,4.671,2.648A7.8,7.8,0,0,1,388.974,280.167Z" transform="translate(-342.471 -248.613)"/><ellipse class="i" cx="4.157" cy="4.15" rx="4.157" ry="4.15" transform="translate(22.539 0.659)"/><path class="i" d="M18.865,251l.027,3.516H55.359V251Z" transform="translate(-18.222 -228.078)"/><path class="j" d="M67.884,282.86v19.693h-33V282.86Z" transform="translate(-32.477 -256.437)"/><path class="k" d="M111.9,335.024v3.635h-6.026a4.744,4.744,0,0,1-8.556,0H91.29v-3.635h6.026a4.744,4.744,0,0,1,8.556,0Z" transform="translate(-82.689 -300.471)"/><path class="l" d="M395.178,404.37l-.853,6.51h-5.573l-.853-6.51Z" transform="translate(-346.708 -364.596)"/><path class="m" d="M418.455,300.008a9.337,9.337,0,0,1,1.153-1.22,10.881,10.881,0,0,1,5.083-2.428,11.307,11.307,0,0,0-5.445,9.891H416.26a9.615,9.615,0,0,1,.259-2.09A10.448,10.448,0,0,1,418.455,300.008Z" transform="translate(-371.952 -268.454)"/><path class="n" d="M377.983,325.7c.051.678.056,1.1.056,1.1a9.606,9.606,0,0,0-.259,2.09h-1.487a10.431,10.431,0,0,0-3.263-7.1,6.483,6.483,0,0,1,4.928,3.907Z" transform="translate(-333.472 -291.089)"/><path class="o" d="M378,386h9.449v2.087H378Z" transform="translate(-337.896 -348.244)"/><path class="p" d="M22.161,251h-3.3l.027,3.516,3.3-.015Z" transform="translate(-18.222 -228.078)"/><path class="q" d="M34.88,282.86v19.693h3.3V282.875Z" transform="translate(-32.477 -256.437)"/><path class="r" d="M391.279,405h-3.3l.844,6.441h3.3Z" transform="translate(-346.782 -365.157)"/><path class="s" d="M378,386h3.3v2.087H378Z" transform="translate(-337.896 -348.244)"/><path class="t" d="M196.217,139s-.007,0-.011,0A2.437,2.437,0,0,0,194,141.459v9.847h3.3v-9.847A2.437,2.437,0,0,1,199.5,139s.007,0,.011,0Z" transform="translate(-174.114 -128.384)"/><path class="u" d="M192.334,224.015c.031,0,.061-.009.092-.015h-.266A1.339,1.339,0,0,0,192.334,224.015Z" transform="translate(-172.476 -204.044)"/><path class="u" d="M66.509,129H52.36A1.378,1.378,0,0,0,51,130.4v7.7a1.327,1.327,0,0,0,1.361,1.338H66.509a1.356,1.356,0,0,0,.174.015A1.377,1.377,0,0,0,67.92,138.1v-7.7A1.419,1.419,0,0,0,66.509,129Z" transform="translate(-46.825 -119.483)"/><path class="v" d="M119.464,167.14a1.025,1.025,0,1,1-1.024,1.025A1.025,1.025,0,0,1,119.464,167.14Z" transform="translate(-106.856 -153.432)"/><path class="w" d="M54.295,138.1v-7.7a1.378,1.378,0,0,1,1.361-1.4h-3.3A1.378,1.378,0,0,0,51,130.4v7.7a1.327,1.327,0,0,0,1.361,1.338h3.3a1.327,1.327,0,0,1-1.361-1.338Z" transform="translate(-46.825 -119.483)"/><path class="x" d="M50.161,136.4H47.18v-9.188a3.088,3.088,0,0,0-3.037-3.118H35.268a2.8,2.8,0,0,0-.7.093A2.084,2.084,0,0,0,32.694,123H18.546a2.035,2.035,0,0,0-2.021,2.058v7.7a1.984,1.984,0,0,0,2.021,2h4.462V136.4H13.669a.7.7,0,0,0-.659.692l.011,3.473a.67.67,0,0,0,.659.67h1.087v19.018a.64.64,0,0,0,.646.649h33a.628.628,0,0,0,.632-.649V141.239h1.113a.661.661,0,0,0,.645-.675V137.1A.683.683,0,0,0,50.161,136.4ZM40.25,125.417l-.246.858-.6-.013-.246-.846Zm-.8,2.2h.507l.905,4.38-1.161.914L38.543,132Zm-5.9,6.98a2.011,2.011,0,0,0,1.209-1.84V125.5a1.586,1.586,0,0,1,.5-.087h2.52l.449,1.547-1.067,5.154a.669.669,0,0,0,.238.658l1.889,1.49a.658.658,0,0,0,.816,0L42,132.782a.659.659,0,0,0,.238-.651l-1.062-5.164.45-1.55h2.518a1.769,1.769,0,0,1,1.718,1.8V136.4H33.556Zm-15.01-1.161a.665.665,0,0,1-.7-.679v-7.7a.715.715,0,0,1,.7-.739H32.694a.757.757,0,0,1,.752.739v7.7a.747.747,0,0,1-.654.724c-.006,0-.016-.025-.022-.024s-.05-.021-.076-.021Zm13.692,1.319V136.4H28.172v-1.648Zm-5.384,0V136.4H24.326v-1.648Zm22.635,5.164h-26.2a.659.659,0,0,0,0,1.319H47.73v18.349H16.085V141.239h3.566a.659.659,0,0,0,0-1.319H14.337l-.007-2.2H49.488Z" transform="translate(-13.01 -114.142)"/><path class="x" d="M85.691,334.119h5.629a5.4,5.4,0,0,0,9.349,0H106.3a.681.681,0,0,0,.677-.667v-3.635a.661.661,0,0,0-.677-.643h-5.629a5.4,5.4,0,0,0-9.349,0H85.691a.674.674,0,0,0-.691.643v3.635A.694.694,0,0,0,85.691,334.119Zm.627-3.626h5.4a.667.667,0,0,0,.594-.382,4.081,4.081,0,0,1,7.367,0,.665.665,0,0,0,.595.381h5.384V332.8h-5.384a.656.656,0,0,0-.595.37,4.087,4.087,0,0,1-7.367,0,.656.656,0,0,0-.594-.371h-5.4Z" transform="translate(-77.09 -295.264)"/><path class="x" d="M216.956,52a4.809,4.809,0,1,0-4.816-4.809A4.809,4.809,0,0,0,216.956,52Zm0-8.3a3.491,3.491,0,1,1-3.5,3.491A3.491,3.491,0,0,1,216.956,43.7Z" transform="translate(-190.26 -42.38)"/><path class="x" d="M57.659,324.69a.659.659,0,0,0-.659.659v7.536a.659.659,0,1,0,1.319,0v-7.536A.659.659,0,0,0,57.659,324.69Z" transform="translate(-52.167 -293.671)"/><path class="x" d="M57.659,300.37a.659.659,0,0,0-.659.659v.621a.659.659,0,0,0,1.319,0v-.621A.659.659,0,0,0,57.659,300.37Z" transform="translate(-52.167 -272.023)"/><path class="x" d="M114.114,161.14a1.684,1.684,0,1,0,1.683,1.684A1.684,1.684,0,0,0,114.114,161.14Zm0,2.049a.365.365,0,1,1,.365-.365A.365.365,0,0,1,114.114,163.189Z" transform="translate(-101.506 -148.091)"/><path class="x" d="M380.739,244.083a12.012,12.012,0,0,0-4.456,1.86,10.8,10.8,0,0,1,1.214-6.563.659.659,0,0,0-.816-.968,6.353,6.353,0,0,0-3.341,3.9,9.718,9.718,0,0,0-.307,1.079,6.433,6.433,0,0,0-1.253-.918,6.766,6.766,0,0,0-2.973-.857h0a.663.663,0,0,0-.244,1.278c1.676.668,2.536,3.2,2.961,5.2.056.261.1.52.149.774a6.374,6.374,0,0,0-3.895-1.992.658.658,0,0,0-.689.4.63.63,0,0,0,.2.75,9.617,9.617,0,0,1,2.938,5.9h-1.975a.7.7,0,0,0-.664.7v2.086a.63.63,0,0,0,.664.619h.506l.776,5.87a.7.7,0,0,0,.653.613h5.572a.7.7,0,0,0,.653-.613l.776-5.87h.506a.626.626,0,0,0,.659-.619v-2.086a.7.7,0,0,0-.659-.7h-1.6a9.971,9.971,0,0,1,2.443-6.327,10.787,10.787,0,0,1,2.665-2.3.654.654,0,0,0-.455-1.212Zm-5.419-2.83a13.5,13.5,0,0,0-.237,5.668l-.033.032a7.874,7.874,0,0,0-.9-2.192A7.956,7.956,0,0,1,375.32,241.253Zm-4,2.48a5.864,5.864,0,0,1,2.628,4.466,10.363,10.363,0,0,0-.84,1.329c-.074-.534-.171-1.108-.295-1.7A13.032,13.032,0,0,0,371.322,243.733Zm-1.537,5.232A6.746,6.746,0,0,1,372,251.653c.026.392.036.658.04.784a12.763,12.763,0,0,0-.228,1.481h-.265a12.277,12.277,0,0,0-1.765-4.953Zm5.391,13.524h-4.418l-.677-5.164h5.772Zm1.854-7.252v.769H368.9v-.769Zm.527-8.539a11.381,11.381,0,0,0-2.792,7.22h-1.628a10.932,10.932,0,0,1,.9-3.313,8.743,8.743,0,0,1,3.6-3.994Z" transform="translate(-328.136 -216.822)"/></g></g></svg>