<svg xmlns="http://www.w3.org/2000/svg" width="80.788" height="80.788" viewBox="0 0 80.788 80.788"><defs><style>.a{fill:#fce794;}.b{fill:#f6d13e;}.c{fill:#f7f7f7;}.d{fill:#efefef;}.e{fill:#ff815c;}.f{fill:#ffe66b;}.g{fill:#c9f0ff;}.h{fill:#b5eaff;}.i{fill:#288a9a;}.j{fill:#3498ac;}</style></defs><g transform="translate(0 0)"><g transform="translate(0 0)"><circle class="a" cx="40.317" cy="40.317" r="40.317"/><path class="b" d="M223.642,137.812q0-1.595-.122-3.16l-35.374-10.5-2.132,4.772-21.1,28.74L182.2,178.271q.483.011.969.011A40.471,40.471,0,0,0,223.642,137.812Z" transform="translate(-142.854 -97.495)"/></g><g transform="translate(18.563 18.835)"><g transform="translate(0.629 0.628)"><g transform="translate(0)"><g transform="translate(0 15.944)"><g transform="translate(2.516)"><path class="c" d="M92.706,225.516H62.134a2.341,2.341,0,0,1,0-4.681H92.706A5.14,5.14,0,0,0,92.706,225.516Z" transform="translate(-58.186 -218.886)"/><path class="d" d="M118.269,220.834h-2.516a5.14,5.14,0,0,0,0,4.681h2.516A5.14,5.14,0,0,1,118.269,220.834Z" transform="translate(-83.749 -218.885)"/><path class="e" d="M44.906,206.172a4.294,4.294,0,0,1-4.289-4.332,4.327,4.327,0,0,1,4.337-4.248H75.477a1.268,1.268,0,0,1,0,2.535H44.906a1.755,1.755,0,0,0,0,3.51H75.477a1.268,1.268,0,0,1,0,2.535Z" transform="translate(-40.617 -197.592)"/></g><g transform="translate(0 8.58)"><g transform="translate(0 8.58)"><path class="c" d="M71.8,430.117H36.2a2.341,2.341,0,0,1,0-4.681H71.8A5.139,5.139,0,0,0,71.8,430.117Z" transform="translate(-31.909 -423.487)"/><path class="d" d="M452.622,425.436h-2.516a5.141,5.141,0,0,0,0,4.681h2.516A5.139,5.139,0,0,1,452.622,425.436Z" transform="translate(-412.729 -423.487)"/><path class="f" d="M14.906,410.773a4.294,4.294,0,0,1-4.289-4.332,4.327,4.327,0,0,1,4.337-4.248H50.51a1.268,1.268,0,0,1,0,2.535h-35.6a1.755,1.755,0,0,0,0,3.51h35.6a1.268,1.268,0,0,1,0,2.535Z" transform="translate(-10.617 -402.193)"/></g><g transform="translate(0)"><path class="c" d="M25.729,323.135h35.6a2.341,2.341,0,0,1,0,4.681h-35.6A5.14,5.14,0,0,0,25.729,323.135Z" transform="translate(-24.462 -321.186)"/><path class="g" d="M11.884,308.472a1.268,1.268,0,0,1,0-2.535h35.6a1.755,1.755,0,0,0,0-3.51h-35.6a1.267,1.267,0,0,1,0-2.535h35.6a4.294,4.294,0,0,1,4.289,4.332,4.327,4.327,0,0,1-4.337,4.248Z" transform="translate(-10.617 -299.892)"/><path class="h" d="M425.277,301.165a4.259,4.259,0,0,0-3.047-1.273h-2.516A4.294,4.294,0,0,1,424,304.224a4.328,4.328,0,0,1-4.337,4.248h2.516a4.327,4.327,0,0,0,4.337-4.248A4.26,4.26,0,0,0,425.277,301.165Z" transform="translate(-385.359 -299.892)"/></g></g></g><g transform="translate(1.05)"><path class="i" d="M139.481,105.054H116l2.516-8.472h18.452Z" transform="translate(-108.208 -89.11)"/><path class="j" d="M40.492,7.773,23.8,12.157a.9.9,0,0,0,0,1.74l16.691,4.384a8.537,8.537,0,0,0,4.337,0L61.521,13.9a.9.9,0,0,0,0-1.74L44.829,7.773A8.537,8.537,0,0,0,40.492,7.773Z" transform="translate(-23.13 -7.493)"/><path class="i" d="M223.466,12.157,206.774,7.773a8.536,8.536,0,0,0-4.337,0l-2.536.666a8.538,8.538,0,0,1,3.519.173L220.111,13a.9.9,0,0,1,0,1.74l3.355-.839A.9.9,0,0,0,223.466,12.157Z" transform="translate(-185.075 -7.493)"/><path class="f" d="M305.921,181.318H302.3s0-5.463,1.81-5.463S305.921,181.318,305.921,181.318Z" transform="translate(-278.887 -161.734)"/></g></g><path class="j" d="M95.989,338.7,93,340.268v-10.15h2.992Z" transform="translate(-86.088 -303.059)"/></g><path d="M43.848,39.16a4.527,4.527,0,0,1,0-2.276,1.9,1.9,0,0,0,.013-3.768,4.89,4.89,0,0,0,1.674-3.626,4.971,4.971,0,0,0-2.86-4.518,1.919,1.919,0,0,0-1.686-2.985,4.529,4.529,0,0,1,0-2.252c2.506.131,2.671-3.793.134-3.793H36.537L34.742,9.9l8.6-2.26a1.538,1.538,0,0,0,0-2.957L26.654.3A9.182,9.182,0,0,0,22,.3L15.791,1.93a.63.63,0,0,0,.32,1.217l6.206-1.63a7.924,7.924,0,0,1,4.018,0L43.026,5.9a.271.271,0,0,1,0,.523L30.18,9.8,26.137,6.132V4.676a1.873,1.873,0,0,0-3.745,0V6.464a.629.629,0,0,0,.3.536,2.944,2.944,0,0,0,2.755.2l3.282,2.976-2.393.629a7.924,7.924,0,0,1-4.018,0L5.626,6.424a.271.271,0,0,1,0-.523l7.3-1.918a.63.63,0,0,0-.32-1.217l-7.3,1.918a1.538,1.538,0,0,0,0,2.957l8.6,2.26-1.795,6.042H10.6a4.918,4.918,0,0,0-3.33,8.58H5.013A1.9,1.9,0,0,0,4.8,28.3a4.519,4.519,0,0,1,0,2.276,1.9,1.9,0,0,0-.013,3.768,4.909,4.909,0,0,0,3.245,8.594h35.6a1.9,1.9,0,0,0,.21-3.781ZM24.879,6.077a1.664,1.664,0,0,1-1.229,0v-1.4a.615.615,0,0,1,1.229,0ZM40.616,28.316a1.126,1.126,0,0,1,0,2.252H14.276V28.316Zm-27.6,7.571-1.734.91v-8.48h1.734Zm-2.992-5.319H6.1a5.784,5.784,0,0,0,0-2.252h3.93Zm.3,7.807a.629.629,0,0,0,.618.019L13.8,36.9H42.556a5.8,5.8,0,0,0,0,2.252H8.035a1.126,1.126,0,0,1,0-2.252h1.991v.941A.629.629,0,0,0,10.329,38.375ZM39.7,21.988H10.551a1.126,1.126,0,0,1,0-2.252H27.59c-.016.448-.014,1.105.619,1.105h3.62c.634,0,.635-.657.619-1.105H39.7A5.8,5.8,0,0,0,39.7,21.988Zm-9.679-6.61c.554,0,1.082,1.967,1.169,4.205H28.851C28.937,17.345,29.465,15.378,30.019,15.378Zm11.741,2.462a.639.639,0,0,1-.638.639H32.366c-.041-.428-.1-.854-.173-1.277h8.929A.639.639,0,0,1,41.761,17.839Zm-6.536-1.9H31.879a2.676,2.676,0,0,0-1.23-1.686V10.976l2.877-.756Zm-20.1-5.723L22,12.025a9.218,9.218,0,0,0,4.657,0l2.736-.719v2.95a2.676,2.676,0,0,0-1.23,1.686H13.427ZM7.951,23.437a3.635,3.635,0,0,1-1.061-2.611A3.7,3.7,0,0,1,10.6,17.2H27.846c-.076.423-.131.849-.173,1.277H10.551a2.384,2.384,0,0,0,0,4.768H41.122a.639.639,0,0,1,0,1.277H10.551a3.635,3.635,0,0,1-2.6-1.086ZM4.374,26.42a.639.639,0,0,1,.638-.639h35.6a3.661,3.661,0,1,1-.047,7.322h-3.3a.63.63,0,0,0,0,1.258h6.369a.639.639,0,0,1,0,1.277H14.276V34.361H33.954a.63.63,0,0,0,0-1.258H14.276V31.826H40.616a2.384,2.384,0,0,0,0-4.768H5.013A.639.639,0,0,1,4.374,26.42ZM5.013,33.1a.639.639,0,0,1,0-1.277h5.013V33.1Zm38.626,8.58H8.035a3.665,3.665,0,0,1-3.66-3.7,3.7,3.7,0,0,1,3.708-3.625h1.943v1.277H8.035a2.384,2.384,0,0,0,0,4.768h35.6a.639.639,0,0,1,0,1.277Z" transform="translate(-3.116 0)"/></g></g></svg>