<svg xmlns="http://www.w3.org/2000/svg" width="84.086" height="84.086" viewBox="0 0 84.086 84.086"><defs><style>.a{fill:red;}.b{fill:#b10909;}.c{fill:#ffde07;}.d{fill:#b29d13;}.e{fill:#ada5cc;}.f{fill:#433f5c;}.g{fill:#f3f0ff;}.h{fill:#cbc4e5;}.i{fill:#e2defb;}.j{fill:#ffbd86;}.k{fill:#f6a96c;}.l{fill:#fff;}.m{fill:#ffee9a;}.n{fill:#fcdd66;}.o{fill:#b5adcf;}.p{fill:#233743;}</style></defs><g transform="translate(0 0)"><g transform="translate(0 0)"><circle class="a" cx="41.977" cy="41.977" r="41.977"/><path class="b" d="M226.017,143.02q0-1.66-.126-3.287L196.4,122.292l-8.99,18.21-22.5,23.169L182.9,185.117q.5.012,1.008.012A42.109,42.109,0,0,0,226.017,143.02Z" transform="translate(-141.931 -101.042)"/></g><g transform="translate(13.905 6.887)"><g transform="translate(11.71 0.874)"><g transform="translate(9.955)"><path class="c" d="M250.142,12.868h5.571a9.537,9.537,0,0,1,3.194.549V12.13a4.63,4.63,0,0,0-4.63-4.63h-2.7a4.63,4.63,0,0,0-4.63,4.63v1.287a9.536,9.536,0,0,1,3.194-.549Z" transform="translate(-246.948 -7.5)"/></g><g transform="translate(9.955 0)"><path class="d" d="M250.142,12.868h1.63V12.13a4.631,4.631,0,0,1,3.567-4.506,4.641,4.641,0,0,0-1.063-.124h-2.7a4.63,4.63,0,0,0-4.63,4.63v1.287A9.537,9.537,0,0,1,250.142,12.868Z" transform="translate(-246.948 -7.5)"/></g><g transform="translate(3.593 5.368)"><path class="c" d="M193.97,68.073h1.638v-.127a1.272,1.272,0,0,1,1.272-1.272h3.807a5.4,5.4,0,0,0,4.837-3,1.277,1.277,0,0,1,1.142-.713H212.5a1.272,1.272,0,0,1,1.272,1.272v3.839h1.638a2.3,2.3,0,0,1,1.622.668v-5.61a9.555,9.555,0,0,0-9.555-9.555H201.9a9.555,9.555,0,0,0-9.555,9.555v5.61A2.3,2.3,0,0,1,193.97,68.073Z" transform="translate(-192.348 -53.576)"/></g><g transform="translate(3.594 5.368)"><path class="d" d="M193.972,68.073h1.638v-.127a1.272,1.272,0,0,1,1.272-1.272h.339V63.13a9.556,9.556,0,0,1,9.555-9.555h-4.871a9.555,9.555,0,0,0-9.555,9.555v5.61a2.3,2.3,0,0,1,1.622-.668Z" transform="translate(-192.35 -53.575)"/></g><path class="e" d="M186.064,303.753H183.1v4.665a.583.583,0,0,1-.693.572v1.81a.582.582,0,0,1-.131.368l-4.379,5.37a.583.583,0,0,1-.9,0l-4.379-5.37a.582.582,0,0,1-.131-.368v-1.81a.583.583,0,0,1-.693-.572v-4.665h-2.967a8.3,8.3,0,0,0-7.312,4.373,2.584,2.584,0,0,1,1.724,2.433v.821h1.564a.467.467,0,0,1,.466.466v1.14h3.553a.467.467,0,0,1,.466.466v13.69h24.5a.583.583,0,0,0,.583-.582V312.051A8.3,8.3,0,0,0,186.064,303.753Z" transform="translate(-161.507 -269.236)"/><path class="f" d="M169.256,303.751A8.3,8.3,0,0,0,162,308.02a2.7,2.7,0,0,1,1.783,2.537v.7h1.447a.548.548,0,0,1,.069.007,8.3,8.3,0,0,1,6.923-7.409v-.109h-2.968Z" transform="translate(-161.944 -269.234)"/><g transform="translate(10.973 35.9)"><path class="g" d="M265.345,319.352l-4.328-3.6a.583.583,0,0,0-.745,0l-4.328,3.6a.575.575,0,0,1-.262.124v1.81a.582.582,0,0,0,.131.368l4.379,5.37a.583.583,0,0,0,.9,0l4.379-5.37a.582.582,0,0,0,.131-.368v-1.81A.576.576,0,0,1,265.345,319.352Z" transform="translate(-255.683 -315.622)"/></g><g transform="translate(10.973 37.881)"><path class="h" d="M258.05,335.1v-2.48l-2.105,1.749a.576.576,0,0,1-.262.124v1.81a.582.582,0,0,0,.131.368l4.379,5.37a.583.583,0,0,0,.9,0l1.223-1.5-4.138-5.074A.582.582,0,0,1,258.05,335.1Z" transform="translate(-255.683 -332.622)"/></g><g transform="translate(10.279 31.819)"><path class="g" d="M260.8,280.766l-.237-.173a7,7,0,0,1-3.129.735h-4.1a7,7,0,0,1-3.129-.735l-.237.173a.582.582,0,0,0-.239.47v6.72a.582.582,0,0,0,.955.448l4.328-3.6a.582.582,0,0,1,.745,0l4.328,3.6a.583.583,0,0,0,.955-.448v-6.72A.583.583,0,0,0,260.8,280.766Z" transform="translate(-249.734 -280.593)"/></g><path class="i" d="M250.21,280.593l-.237.173a.583.583,0,0,0-.239.47v6.72a.582.582,0,0,0,.955.448l1.406-1.168v-5.277a.582.582,0,0,1,.239-.47l.272-.2A6.983,6.983,0,0,1,250.21,280.593Z" transform="translate(-239.454 -248.774)"/><g transform="translate(2.911 19.866)"><path class="j" d="M190.436,183.661V178H188.8a2.3,2.3,0,0,0-2.3,2.3v1.535a2.3,2.3,0,0,0,2.3,2.3h1.657C190.443,183.988,190.436,183.825,190.436,183.661Z" transform="translate(-186.493 -178.005)"/><path class="j" d="M377.7,178h-1.638v5.656c0,.164-.008.326-.019.488H377.7a2.3,2.3,0,0,0,2.3-2.3v-1.535A2.3,2.3,0,0,0,377.7,178Z" transform="translate(-353.963 -178.005)"/></g><g transform="translate(12.886 32.482)"><path class="k" d="M277.2,286.355h-4.1a7.083,7.083,0,0,1-1-.072l2.549,4.239a.583.583,0,0,0,1,0l2.549-4.239A7.087,7.087,0,0,1,277.2,286.355Z" transform="translate(-272.107 -286.283)"/></g><g transform="translate(6.854 14.755)"><path class="j" d="M231.388,134.138a1.277,1.277,0,0,0-1.142.713,5.4,5.4,0,0,1-4.837,3H221.6a1.272,1.272,0,0,0-1.272,1.272v5.784a7.031,7.031,0,0,0,7.031,7.031h4.1a7.031,7.031,0,0,0,7.031-7.031v-9.5a1.272,1.272,0,0,0-1.272-1.272h-5.831Z" transform="translate(-220.33 -134.138)"/></g><g transform="translate(6.854 18.466)"><path class="k" d="M224.02,173.05v-5.783a1.272,1.272,0,0,1,1.272-1.272H221.6a1.272,1.272,0,0,0-1.272,1.272v5.783a7.031,7.031,0,0,0,7.031,7.031h3.69A7.031,7.031,0,0,1,224.02,173.05Z" transform="translate(-220.33 -165.994)"/></g><g transform="translate(20.966 47.711)"><path class="l" d="M349.5,421.929h-7.7a.349.349,0,0,1-.35-.349v-4.232a.349.349,0,0,1,.35-.35h7.7a.35.35,0,0,1,.35.35v4.232A.349.349,0,0,1,349.5,421.929Z" transform="translate(-341.457 -416.998)"/></g><g transform="translate(20.966 47.711)"><path class="g" d="M345.124,421.58v-4.232a.349.349,0,0,1,.35-.35h-3.667a.349.349,0,0,0-.35.35v4.232a.349.349,0,0,0,.35.349h3.667A.349.349,0,0,1,345.124,421.58Z" transform="translate(-341.457 -416.998)"/></g></g><path class="m" d="M96.006,382H92.57v.724a.583.583,0,0,1-.583.583H83.7a.583.583,0,0,1-.583-.583V382H79.681a.583.583,0,0,0-.583.583v13.69H96.589v-13.69A.582.582,0,0,0,96.006,382Z" transform="translate(-76.989 -337.492)"/><path class="n" d="M83.7,383.307a.583.583,0,0,1-.583-.583V382H79.681a.583.583,0,0,0-.583.583v6.777h2.866a.586.586,0,0,1,.586.586v6.327h1.43V383.307Z" transform="translate(-76.989 -337.492)"/><g transform="translate(8.158 39.501)"><path class="g" d="M136.409,342.427v-.7a2.7,2.7,0,0,0-5.393,0v.7Z" transform="translate(-131.016 -339.026)"/></g><g transform="translate(8.158 39.501)"><path class="i" d="M133.461,342.427v-.7a2.7,2.7,0,0,1,1.474-2.4,2.7,2.7,0,0,0-3.919,2.4v.7Z" transform="translate(-131.016 -339.026)"/></g><g transform="translate(6.128 42.902)"><path class="h" d="M122.463,371.132h-8.288a.583.583,0,0,1-.583-.583V368.8a.583.583,0,0,1,.583-.583h8.288a.583.583,0,0,1,.583.583v1.748A.582.582,0,0,1,122.463,371.132Z" transform="translate(-113.593 -368.219)"/></g><g transform="translate(6.128 42.902)"><path class="o" d="M117.237,370.549V368.8a.583.583,0,0,1,.583-.583h-3.644a.583.583,0,0,0-.583.583v1.748a.583.583,0,0,0,.583.583h3.644A.583.583,0,0,1,117.237,370.549Z" transform="translate(-113.593 -368.219)"/></g><g transform="translate(0.874 51.867)"><path class="j" d="M73.187,452.081H69.4a.9.9,0,0,1-.9-.9v-5.118a.9.9,0,0,1,.9-.9h3.2a.586.586,0,0,1,.586.586Z" transform="translate(-68.5 -445.168)"/></g><g transform="translate(0.874 51.867)"><path class="k" d="M70.888,451.183v-5.118a.9.9,0,0,1,.9-.9H69.4a.9.9,0,0,0-.9.9v5.118a.9.9,0,0,0,.9.9h2.389A.9.9,0,0,1,70.888,451.183Z" transform="translate(-68.5 -445.168)"/></g><g transform="translate(0 0)"><path class="p" d="M250.626,182.519v-1.6a.874.874,0,0,0-1.748,0v1.6a.874.874,0,1,0,1.748,0Z" transform="translate(-226.988 -159.064)"/><path class="p" d="M333.536,180.041a.874.874,0,0,0-.874.874v1.6a.874.874,0,0,0,1.748,0v-1.6A.874.874,0,0,0,333.536,180.041Z" transform="translate(-301.01 -159.064)"/><path class="p" d="M268.413,230.818a3.982,3.982,0,0,1-5.634,0,.874.874,0,0,0-1.236,1.236,5.729,5.729,0,0,0,8.106,0,.874.874,0,1,0-1.236-1.236Z" transform="translate(-237.951 -203.699)"/><path class="p" d="M285.761,187.686h1.371a.874.874,0,0,0,0-1.748h-.5v-1.411a.874.874,0,1,0-1.748,0v2.285A.874.874,0,0,0,285.761,187.686Z" transform="translate(-258.801 -162.255)"/><circle class="p" cx="0.874" cy="0.874" r="0.874" transform="translate(26.771 39.847)"/><circle class="p" cx="0.874" cy="0.874" r="0.874" transform="translate(26.771 43.575)"/><path class="p" d="M333.957,410.721v4.232a1.225,1.225,0,0,0,1.223,1.223h7.7a1.225,1.225,0,0,0,1.223-1.223v-4.232a1.225,1.225,0,0,0-1.223-1.223h-7.7A1.225,1.225,0,0,0,333.957,410.721Zm1.748.524h6.649v3.184H335.7Z" transform="translate(-302.154 -361.786)"/><path class="p" d="M361.661,388.248a.874.874,0,1,0,0-1.748h-2.8a.874.874,0,1,0,0,1.748Z" transform="translate(-323.388 -341.468)"/><path class="p" d="M105.566,46.2a.874.874,0,0,0,.874-.874V43.69a9.183,9.183,0,0,0-9.172-9.172H95.354V33.155a1.432,1.432,0,0,0-.044-.348,7.918,7.918,0,0,0,3.171-5.05h.883a3.182,3.182,0,0,0,3.178-3.178V23.044a3.162,3.162,0,0,0-.682-1.964V15.8a10.335,10.335,0,0,0-1.028-4.519.874.874,0,0,0-1.575.758,8.6,8.6,0,0,1,.855,3.761v4.158a3.175,3.175,0,0,0-.748-.09H98.6V16.9a2.148,2.148,0,0,0-2.146-2.146H90.622a2.139,2.139,0,0,0-1.924,1.2,4.5,4.5,0,0,1-4.054,2.514H80.836a2.148,2.148,0,0,0-2.009,1.4h-.9a3.17,3.17,0,0,0-.748.09V15.8a8.692,8.692,0,0,1,8.682-8.682H91.43a8.692,8.692,0,0,1,5.544,2,.874.874,0,1,0,1.117-1.344A10.407,10.407,0,0,0,95.5,6.2V5.5a5.51,5.51,0,0,0-5.5-5.5H87.3a5.51,5.51,0,0,0-5.5,5.5v.691a10.445,10.445,0,0,0-6.361,9.6V21.08a3.162,3.162,0,0,0-.682,1.964v1.535a3.182,3.182,0,0,0,3.178,3.178h.883a7.922,7.922,0,0,0,3.5,5.272c0,.042-.007.084-.007.126v1.362H80.022a9.168,9.168,0,0,0-7.665,4.145,3.568,3.568,0,0,0-4.069,3.366H67.71a1.458,1.458,0,0,0-1.456,1.456v.149H63.691a1.458,1.458,0,0,0-1.456,1.456v5.987A1.774,1.774,0,0,0,61,52.765v5.118a1.773,1.773,0,0,0,1.771,1.771h42.212A1.458,1.458,0,0,0,106.44,58.2V49.4a.874.874,0,1,0-1.748,0v8.505H81.474V54.178a.874.874,0,1,0-1.748,0v3.728H67.434V52.453a1.461,1.461,0,0,0-1.46-1.46H63.982V45.381h2.279a1.458,1.458,0,0,0,1.449,1.307H76a1.459,1.459,0,0,0,1.449-1.307h2.279V50.1a.874.874,0,1,0,1.748,0V45.09a1.458,1.458,0,0,0-1.456-1.456H77.455v-.149A1.458,1.458,0,0,0,76,42.028H75.42A3.568,3.568,0,0,0,74,39.35a7.417,7.417,0,0,1,6.018-3.085H82.3v3.61a1.441,1.441,0,0,0,.513,1.11v1.453a1.46,1.46,0,0,0,.328.92l4.379,5.37a1.456,1.456,0,0,0,2.258,0l4.379-5.37a1.461,1.461,0,0,0,.328-.92v-1.23l.036-.014a1.443,1.443,0,0,0,.838-1.318v-3.61h1.913a7.433,7.433,0,0,1,7.425,7.425v1.634a.873.873,0,0,0,.873.874ZM98.6,21.614h.764a1.432,1.432,0,0,1,1.431,1.431v1.535a1.432,1.432,0,0,1-1.431,1.431H98.6ZM83.539,5.5A3.76,3.76,0,0,1,87.3,1.748h2.7A3.76,3.76,0,0,1,93.751,5.5v.128a10.409,10.409,0,0,0-2.32-.264H85.859a10.426,10.426,0,0,0-2.32.261V5.5ZM78.69,26.01h-.764A1.432,1.432,0,0,1,76.5,24.579V23.044a1.432,1.432,0,0,1,1.431-1.431h.764Zm-13,26.731v5.165H62.771a.024.024,0,0,1-.024-.024V52.765a.024.024,0,0,1,.024-.024Zm6.167-12.367a1.825,1.825,0,0,1,1.814,1.654H70.04A1.825,1.825,0,0,1,71.854,40.374Zm3.853,3.4v1.165H68V43.776Zm17.026-1.442-4.088,5.013-4.088-5.013V41.089A1.487,1.487,0,0,0,84.683,41l3.069-2.55a1.446,1.446,0,0,0,.892.3h0a1.441,1.441,0,0,0,1.062-.463L92.733,40.8Zm-8.688-3.08V33.876a7.845,7.845,0,0,0,1.01.273l1.711,2.845Zm3.14-4.953H90.1l-1.46,2.428Zm6.422,4.953-2.961-2.46,1.591-2.645a7.837,7.837,0,0,0,1.371-.406Zm-2.912-6.7H86.6A6.164,6.164,0,0,1,80.438,26.4V20.612a.4.4,0,0,1,.4-.4h3.808a6.241,6.241,0,0,0,5.619-3.483.4.4,0,0,1,.359-.228h5.831a.4.4,0,0,1,.4.4v9.5A6.164,6.164,0,0,1,90.694,32.553Z" transform="translate(-61 0)"/></g></g></g></svg>