<svg xmlns="http://www.w3.org/2000/svg" width="84.394" height="84.394" viewBox="0 0 84.394 84.394"><defs><style>.a{fill:#ffde07;}.b{fill:#c9b008;}.c{fill:#3ec0fc;}.d{fill:#40a2fb;}.e{fill:#fff;}.f{fill:#01e9a1;}</style></defs><g transform="translate(-1720.394 -270.394)"><g transform="translate(1720 270)"><g transform="translate(0)"><circle class="a" cx="42" cy="42" r="42" transform="translate(0.394 0.394)"/><path class="b" d="M226.431,138.46q0-1.671-.127-3.31l-37.054-11-2.233,5-22.1,30.1,18.106,21.59q.506.012,1.015.012A42.394,42.394,0,0,0,226.431,138.46Z" transform="translate(-141.644 -96.067)"/></g></g><g transform="translate(1737.664 284.131)"><path d="M871.865,543.085c1.307-1.841,2.5-3.554,3.728-5.243,1.556-2.142,3.072-2.548,5.1-.92,2.353,1.891,5.089,2.221,7.869,2.657a8.444,8.444,0,0,1,7.382,8.047c.188,3.908.15,7.827.163,11.742a2.728,2.728,0,0,1-2.462,2.845c-5.044,1.065-10.1,2.061-15.158,3.073-6.472,1.3-12.852.262-19.22-.817-2.7-.457-5.379-1.037-8.059-1.6a3.8,3.8,0,0,1-3.351-4.076c-.058-3.27-.122-6.538-.135-9.808-.02-4.9,2.9-8.411,7.754-9.121a16.086,16.086,0,0,0,7.743-3.042c1.924-1.474,3.381-1.1,4.795.883C869.25,539.441,870.5,541.175,871.865,543.085Zm3.645,20.475a6.078,6.078,0,0,0,.931-.006q8.3-1.615,16.594-3.245c.889-.174,1.114-.748,1.094-1.59-.086-3.592-.1-7.185-.2-10.777a6.507,6.507,0,0,0-5.328-6.32c-1.224-.244-2.481-.325-3.7-.586-.73-.157-1,.137-1.259.729-.9,2.067-1.849,4.118-2.779,6.174-1.087,2.4-2.2,2.922-4.771,2.153-.506,1.65-1.39,3.116-1.118,5.051C875.36,557.884,875.347,560.68,875.51,563.56ZM859.8,541.1c-1.35.249-2.609.507-3.877.71-3.976.636-6.134,3.094-6.136,7.095,0,3.228.048,6.456.091,9.684.02,1.518.409,2.031,1.893,2.324,3.712.733,7.426,1.459,11.152,2.114,1.718.3,3.465.432,5.307.652.168-2.492.257-4.747.489-6.988.238-2.315.226-4.552-1.15-6.57-2.421.723-3.543.23-4.61-2.08S860.86,543.432,859.8,541.1Zm13.493,3.55c1.3,1.18,2.459,2.245,3.637,3.285.667.589,1.32.649,1.746-.272,1.131-2.443,2.239-4.9,3.385-7.416-1.092-.708-2.106-1.438-3.2-2.025a1.257,1.257,0,0,0-1.185.27C876.188,540.484,874.777,542.539,873.292,544.646Zm-11.577-4.42c1.147,2.525,2.244,4.935,3.336,7.346.4.873,1,1.033,1.715.423,1.246-1.066,2.448-2.183,3.724-3.328-1.486-2.081-2.9-4.077-4.332-6.06a1.043,1.043,0,0,0-1.652-.265C863.627,538.975,862.713,539.556,861.715,540.226Zm11.137,13.054h-1.926c-.22,3.56-.435,7.034-.651,10.524h3.24C873.29,560.24,873.073,556.794,872.852,553.279Zm-.9-7.045c-2.824,2.036-2.992,2.617-1.52,4.958,3.148.144,3.184.153,3.75-1.894a1.689,1.689,0,0,0-.332-1.319A18.551,18.551,0,0,0,871.954,546.234Z" transform="translate(-847.718 -508.783)"/><path d="M918.688,437.54a2.658,2.658,0,0,1-2.6,2.884,2.312,2.312,0,0,0-1.407,2.666,3.058,3.058,0,0,1-4.114,4.158,2.3,2.3,0,0,0-2.685,1.361,2.51,2.51,0,0,1-2.828,2.481c-1.877.017-2.74-.692-3.065-2.517a2.292,2.292,0,0,0-2.722-1.306,3.056,3.056,0,0,1-4.124-4.1,2.247,2.247,0,0,0-1.4-2.753,2.528,2.528,0,0,1-2.423-2.888,2.615,2.615,0,0,1,2.476-2.984,2.406,2.406,0,0,0,1.42-2.7c-.734-1.679-.619-2.428.553-3.585,1.134-1.119,1.936-1.242,3.488-.531A2.308,2.308,0,0,0,902,426.267c.257-1.671,1.14-2.4,2.9-2.4s2.69.743,2.959,2.365a2.168,2.168,0,0,0,2.813,1.411,3.073,3.073,0,0,1,4.069,4.123,2.223,2.223,0,0,0,1.343,2.773A2.662,2.662,0,0,1,918.688,437.54Zm-18.959,7.178a14.461,14.461,0,0,0,2.483,1.048,1.967,1.967,0,0,1,1.732,2.1c.023.671.186,1.209,1.019,1.188.759-.019.929-.509.934-1.14a1.94,1.94,0,0,1,1.809-2.152,2.434,2.434,0,0,0,1-.4,2.082,2.082,0,0,1,2.847.039.949.949,0,0,0,1.292-1.267,1.99,1.99,0,0,1-.009-2.822,1.969,1.969,0,0,0,.407-1c.121-1.413.754-2.105,2.261-1.975.3.026.649-.536.976-.826-.345-.313-.675-.645-1.043-.929-.1-.079-.315-.033-.475-.02a1.344,1.344,0,0,1-1.587-1.26,7.2,7.2,0,0,0-.828-2.117,1.5,1.5,0,0,1,.035-1.882c.358-.473.768-.92.142-1.567-.657-.679-1.117-.273-1.672.083-.783.5-4.55-.662-4.925-1.523a3.972,3.972,0,0,1-.2-.943c-.039-.238.041-.554-.087-.708-.251-.3-.606-.7-.924-.706s-.9.452-.886.679c.1,1.818-.984,2.461-2.5,2.8-.381.085-.706.448-1.085.507a2.894,2.894,0,0,1-1.546-.072c-.65-.295-1.224-.714-1.852-.075-.647.658-.067,1.162.272,1.694.542.851-.863,4.585-1.832,4.869a5.968,5.968,0,0,1-.834.142c-.2.029-.474-.03-.588.081-.282.276-.68.629-.676.946s.464.879.7.868c1.728-.078,2.473.843,2.722,2.4a1.592,1.592,0,0,0,.3.655,1.773,1.773,0,0,1-.061,2.415c-.439.531-.455,1.1.169,1.417a2.161,2.161,0,0,0,1.338.051A5.044,5.044,0,0,0,899.729,444.718Z" transform="translate(-880.759 -423.871)"/><path class="c" d="M960.638,579.435c-.163-2.88-.149-5.677-.535-8.417-.272-1.934.612-3.4,1.118-5.051,2.568.769,3.684.248,4.771-2.152.93-2.057,1.874-4.107,2.779-6.175.26-.592.53-.886,1.259-.73,1.219.261,2.476.342,3.7.586a6.507,6.507,0,0,1,5.328,6.32c.1,3.591.114,7.185.2,10.777.02.843-.205,1.416-1.094,1.59q-8.3,1.624-16.594,3.245A5.988,5.988,0,0,1,960.638,579.435Z" transform="translate(-932.846 -524.658)"/><path class="c" d="M866.27,557.288c1.062,2.337,2.1,4.644,3.159,6.941s2.189,2.8,4.609,2.08c1.377,2.018,1.388,4.254,1.15,6.57-.231,2.241-.321,4.5-.489,6.988-1.841-.22-3.589-.35-5.308-.652-3.726-.655-7.44-1.381-11.152-2.114-1.484-.293-1.872-.806-1.892-2.324-.042-3.228-.091-6.456-.091-9.684,0-4,2.16-6.458,6.136-7.095C863.66,557.795,864.92,557.537,866.27,557.288Z" transform="translate(-854.189 -524.976)"/><path class="d" d="M953.314,551.655c1.485-2.107,2.9-4.162,4.386-6.158a1.256,1.256,0,0,1,1.184-.27c1.092.586,2.106,1.316,3.2,2.024-1.147,2.518-2.254,4.973-3.385,7.416-.426.921-1.078.861-1.746.272C955.773,553.9,954.618,552.835,953.314,551.655Z" transform="translate(-927.739 -515.792)"/><path class="d" d="M905.512,546.89c1-.67,1.913-1.25,2.79-1.883a1.044,1.044,0,0,1,1.652.265c1.432,1.983,2.846,3.979,4.332,6.06-1.276,1.145-2.479,2.262-3.724,3.328-.712.609-1.318.45-1.715-.423C907.756,551.825,906.659,549.415,905.512,546.89Z" transform="translate(-891.515 -515.448)"/><path class="e" d="M943.434,607.594c.222,3.515.439,6.961.664,10.524h-3.24c.216-3.491.431-6.964.651-10.524Z" transform="translate(-918.3 -563.098)"/><path class="e" d="M940.175,578.5a18.57,18.57,0,0,1,1.9,1.745,1.688,1.688,0,0,1,.332,1.319c-.566,2.048-.6,2.038-3.749,1.894C937.182,581.121,937.351,580.54,940.175,578.5Z" transform="translate(-915.938 -541.053)"/><path class="f" d="M906.207,451.192a5.024,5.024,0,0,1-1.165.6,2.156,2.156,0,0,1-1.338-.051c-.625-.315-.609-.887-.169-1.417a1.772,1.772,0,0,0,.061-2.415,1.6,1.6,0,0,1-.3-.655c-.249-1.557-.994-2.478-2.722-2.4-.239.011-.7-.561-.7-.868s.394-.67.676-.946c.113-.111.388-.052.587-.081a5.971,5.971,0,0,0,.834-.142c.969-.284,2.373-4.018,1.832-4.869-.339-.533-.919-1.036-.272-1.694.627-.639,1.2-.22,1.851.075a2.9,2.9,0,0,0,1.546.072c.378-.058.7-.422,1.085-.507,1.518-.339,2.6-.982,2.5-2.8-.013-.227.579-.684.886-.68s.673.405.924.706c.127.153.047.469.087.707a3.946,3.946,0,0,0,.2.943c.376.861,4.143,2.025,4.925,1.523.555-.356,1.016-.762,1.672-.083.627.647.216,1.094-.141,1.567a1.5,1.5,0,0,0-.035,1.882,7.2,7.2,0,0,1,.828,2.117,1.345,1.345,0,0,0,1.587,1.261c.16-.012.372-.06.475.02.367.284.7.615,1.043.929-.326.291-.676.852-.976.826-1.507-.13-2.14.562-2.26,1.975a1.968,1.968,0,0,1-.408,1,1.991,1.991,0,0,0,.009,2.822.949.949,0,0,1-1.292,1.267,2.082,2.082,0,0,0-2.847-.039,2.442,2.442,0,0,1-1,.4,1.939,1.939,0,0,0-1.809,2.152c-.006.631-.176,1.121-.935,1.14-.833.021-1-.517-1.018-1.188a1.968,1.968,0,0,0-1.732-2.1A14.484,14.484,0,0,1,906.207,451.192Zm-.672-7.3a5.86,5.86,0,1,0,5.76-5.807A5.838,5.838,0,0,0,905.535,443.889Z" transform="translate(-887.238 -430.346)"/><path d="M923.266,461.623a5.86,5.86,0,1,1,5.76,5.93A5.85,5.85,0,0,1,923.266,461.623Zm9.675.073a3.82,3.82,0,1,0-3.907,3.81A3.856,3.856,0,0,0,932.942,461.7Z" transform="translate(-904.969 -448.079)"/><path class="f" d="M939.307,468.1a3.894,3.894,0,0,1-3.906,3.81,3.821,3.821,0,1,1,3.906-3.81Z" transform="translate(-911.335 -454.486)"/></g></g></svg>