<svg xmlns="http://www.w3.org/2000/svg" width="98.643" height="61.65" viewBox="0 0 98.643 61.65"><defs><style>.a{fill:#06759c;}</style></defs><g transform="translate(14.381 4.364)"><g transform="translate(0 0)"><path class="a" d="M138.149,156.565c-1.936-4.036-8.861-9.638-15.553-15.051-3.732-3.017-7.259-5.869-9.507-8.117a2.054,2.054,0,0,0-2.15-.481c-1.385.5-2.24.888-2.914,1.188a6.8,6.8,0,0,1-2.758.756,2.054,2.054,0,0,0-1.5.9c-2.906,4.344-5.915,3.974-7.924,3.3-.641-.214-.756-.489-.818-.752-.432-1.8,1.735-6,4.542-8.812,6.679-6.683,10.123-8.356,17.4-5.1,8.253,3.691,16.523,6.58,16.605,6.609a2.056,2.056,0,1,0,1.352-3.884c-.082-.029-8.187-2.861-16.276-6.482-9.424-4.213-14.6-1.439-21.981,5.952-2.811,2.811-6.63,8.5-5.643,12.672a5.083,5.083,0,0,0,3.531,3.7c4.657,1.537,8.907.066,12.072-4.135a10.375,10.375,0,0,0,3.087-.978c.386-.173.838-.374,1.439-.617,2.351,2.207,5.524,4.776,8.866,7.476,6.042,4.887,12.894,10.428,14.435,13.633a2.408,2.408,0,0,1-.612,3.087,2.265,2.265,0,0,1-2.532.5,2.054,2.054,0,0,0-3.21,1.911,2.483,2.483,0,0,1-1.574,2.314,3.154,3.154,0,0,1-3.2.074,2.054,2.054,0,0,0-3.448,1.311,3.905,3.905,0,0,1-2.425,3.148,2.167,2.167,0,0,1-2.359-.366,2.079,2.079,0,0,0-1.878-.477,2.052,2.052,0,0,0-1.443,1.295c-.078.206-.255.7-2.178.7a11.834,11.834,0,0,1-5.035-1.722c-1.443-.949-10.489-7.7-18.3-14.242-1.1-.925-3-2.906-4.673-4.657-1.488-1.554-2.848-2.963-3.547-3.555a2.056,2.056,0,0,0-2.655,3.14c.637.538,1.87,1.841,3.231,3.259,1.833,1.915,3.728,3.9,5,4.965,7.653,6.408,16.852,13.325,18.685,14.529a15.767,15.767,0,0,0,7.3,2.392,7.073,7.073,0,0,0,4.665-1.373,6.4,6.4,0,0,0,4.673-.049,8.1,8.1,0,0,0,4.279-3.95,7.947,7.947,0,0,0,5.158-.744,6.973,6.973,0,0,0,3.432-3.584,6.721,6.721,0,0,0,4.714-1.689A6.534,6.534,0,0,0,138.149,156.565Z" transform="translate(-74.642 -118.658)"/></g></g><g transform="translate(20.55 8.219)"><path class="a" d="M127.217,138.663h-18.5a2.055,2.055,0,0,0,0,4.11h18.5a2.055,2.055,0,1,0,0-4.11Z" transform="translate(-106.666 -138.663)"/></g><g transform="translate(74.139 36.986)"><path class="a" d="M394.581,288.889a2.05,2.05,0,0,0-2.852-.559l-6.009,4.036a2.055,2.055,0,0,0,2.294,3.411l6.009-4.036A2.057,2.057,0,0,0,394.581,288.889Z" transform="translate(-384.811 -287.977)"/></g><g transform="translate(55.49 34.932)"><path class="a" d="M303.676,290.09c-1.471-1.159-8.052-7.9-12.121-12.137a2.055,2.055,0,0,0-2.968,2.844c1.056,1.1,10.374,10.814,12.54,12.523a2.046,2.046,0,0,0,1.27.44,2.076,2.076,0,0,0,1.619-.785A2.054,2.054,0,0,0,303.676,290.09Z" transform="translate(-288.016 -277.317)"/></g><g transform="translate(49.323 41.102)"><g transform="translate(0 0)"><path class="a" d="M269.621,320.063c-2.462-1.969-8.648-8.541-10.045-10.062a2.057,2.057,0,1,0-3.029,2.783c.074.078,7.456,8.048,10.506,10.489a2.056,2.056,0,0,0,2.569-3.21Z" transform="translate(-256.005 -309.337)"/></g></g><g transform="translate(41.103 45.206)"><path class="a" d="M227,341.4c-2.931-2.47-8.927-8.853-10.1-10.107a2.056,2.056,0,1,0-3,2.807c1.685,1.8,7.423,7.887,10.452,10.444A2.056,2.056,0,0,0,227,341.4Z" transform="translate(-213.343 -330.644)"/></g><g transform="translate(0 0)"><path class="a" d="M24.02,100.675C20.5,97.338,6.412,96.257,2.178,96.006A2.053,2.053,0,0,0,0,98.057v36.991A2.056,2.056,0,0,0,2.055,137.1h12.33a2.053,2.053,0,0,0,1.952-1.418c.3-.921,7.382-22.655,8.315-33.341A2.045,2.045,0,0,0,24.02,100.675ZM12.885,132.994H4.11V100.26c6.605.522,13.732,1.656,16.321,2.914C19.342,112.175,14.414,128.168,12.885,132.994Z" transform="translate(0 -96.004)"/></g><g transform="translate(69.945 4.108)"><path class="a" d="M389.689,117.33c-16.137,0-25.088,4.131-25.462,4.3a2.045,2.045,0,0,0-1.1,1.278,2.072,2.072,0,0,0,.226,1.669c2.54,4.09,10.493,26.8,12.022,32.343a2.055,2.055,0,0,0,1.981,1.508h12.33a2.056,2.056,0,0,0,2.055-2.055V119.385A2.053,2.053,0,0,0,389.689,117.33Zm-2.055,36.991H378.9c-1.948-6.346-7.7-22.894-10.912-29.733a66.937,66.937,0,0,1,19.651-3.124Z" transform="translate(-363.046 -117.33)"/></g></svg>