<svg xmlns="http://www.w3.org/2000/svg" width="78.355" height="69.308" viewBox="0 0 78.355 69.308"><defs><style>.a{fill:#06759c;}</style></defs><path class="a" d="M77.942,57.843l-26.021-27.8a1.53,1.53,0,0,0-2.235,0L34.46,46.31a26.834,26.834,0,1,0,5.6,49.059H61.956a1.53,1.53,0,0,0,1.53-1.53V87.718a1.53,1.53,0,1,0-3.061,0v4.591H44.389a26.815,26.815,0,0,0-6.807-44.855L50.8,33.329,73.3,57.358H61.956a1.53,1.53,0,0,0-1.53,1.53V73.945a1.53,1.53,0,1,0,3.061,0V60.419H76.825a1.53,1.53,0,0,0,1.117-2.576ZM50.6,72.035A23.771,23.771,0,1,1,26.831,48.265,23.8,23.8,0,0,1,50.6,72.035Z" transform="translate(0 -29.559)"/><circle class="a" cx="1.53" cy="1.53" r="1.53" transform="translate(60.425 49.742)"/><path class="a" d="M40.079,192.565a20.7,20.7,0,1,0,20.7-20.7A20.721,20.721,0,0,0,40.079,192.565Zm38.335,0a17.637,17.637,0,1,1-17.637-17.637A17.657,17.657,0,0,1,78.414,192.565Z" transform="translate(-33.945 -150.088)"/><path class="a" d="M107.07,324.138a4.635,4.635,0,0,0-6.52,0,4.584,4.584,0,0,0,0,6.508,4.635,4.635,0,0,0,6.52,0,4.584,4.584,0,0,0,0-6.508Zm-2.158,4.337a1.567,1.567,0,0,1-2.2,0,1.524,1.524,0,0,1,0-2.167,1.567,1.567,0,0,1,2.2,0h0a1.523,1.523,0,0,1,0,2.166Z" transform="translate(-84.014 -277.921)"/><path class="a" d="M195.758,240.578a4.611,4.611,0,0,0,3.26-1.34,4.585,4.585,0,0,0,0-6.507h0a4.635,4.635,0,0,0-6.52,0,4.584,4.584,0,0,0,0,6.508A4.61,4.61,0,0,0,195.758,240.578Zm-1.1-5.678a1.567,1.567,0,0,1,2.2,0,1.524,1.524,0,0,1,0,2.166,1.567,1.567,0,0,1-2.2,0,1.524,1.524,0,0,1,0-2.166Z" transform="translate(-161.891 -200.501)"/><path class="a" d="M114.518,244.455a1.53,1.53,0,0,0-2.158,2.171L128.71,262.88a1.53,1.53,0,0,0,2.158-2.171Z" transform="translate(-94.782 -211.191)"/></svg>