<svg xmlns="http://www.w3.org/2000/svg" width="77.229" height="77.231" viewBox="0 0 77.229 77.231"><defs><style>.a{fill:#01e9a1;}</style></defs><g transform="translate(0 0)"><g transform="translate(0 0)"><g transform="translate(0)"><path class="a" d="M62.455,22.438a1.508,1.508,0,0,0,1.508-1.508V4.525A4.53,4.53,0,0,0,59.439,0H4.532A4.53,4.53,0,0,0,.007,4.525v68.18a4.53,4.53,0,0,0,4.525,4.525H59.439a4.53,4.53,0,0,0,4.525-4.525V61.593a1.508,1.508,0,1,0-3.017,0V72.706a1.51,1.51,0,0,1-1.508,1.508H4.532a1.51,1.51,0,0,1-1.508-1.508V4.525A1.51,1.51,0,0,1,4.532,3.017H59.439a1.51,1.51,0,0,1,1.508,1.508v16.4A1.508,1.508,0,0,0,62.455,22.438Z" transform="translate(-0.007)"/></g></g><g transform="translate(18.101 8.145)"><path class="a" d="M133.884,54a13.871,13.871,0,0,0-9.521,23.964,1.5,1.5,0,0,0,.162.151,13.851,13.851,0,0,0,18.717,0,1.51,1.51,0,0,0,.162-.151A13.87,13.87,0,0,0,133.884,54Zm0,24.738a10.8,10.8,0,0,1-6.56-2.213,7.542,7.542,0,0,1,13.12,0A10.8,10.8,0,0,1,133.884,78.738Zm-2.413-11.464v-.98a2.413,2.413,0,1,1,4.827,0v.98a2.413,2.413,0,1,1-4.827,0Zm11.153,7.042a10.465,10.465,0,0,0-4.444-3.725,5.4,5.4,0,0,0,1.135-3.316v-.98a5.43,5.43,0,0,0-10.861,0v.98a5.4,5.4,0,0,0,1.135,3.316,10.465,10.465,0,0,0-4.444,3.725,10.861,10.861,0,1,1,17.48,0Z" transform="translate(-120.007 -54)"/></g><g transform="translate(30.47 66.068)"><path class="a" d="M211.661,438h-8.145a1.508,1.508,0,1,0,0,3.017h8.145a1.508,1.508,0,0,0,0-3.017Z" transform="translate(-202.007 -438)"/></g><g transform="translate(17.196 57.621)"><path class="a" d="M136.935,382h-21.42a1.508,1.508,0,0,0,0,3.017h21.42a1.508,1.508,0,0,0,0-3.017Z" transform="translate(-114.007 -382)"/></g><g transform="translate(17.196 49.174)"><path class="a" d="M136.935,326h-21.42a1.508,1.508,0,0,0,0,3.017h21.42a1.508,1.508,0,0,0,0-3.017Z" transform="translate(-114.007 -326)"/></g><g transform="translate(10.752 40.727)"><path class="a" d="M73.863,270.442a1.507,1.507,0,1,0,.442,1.066A1.52,1.52,0,0,0,73.863,270.442Z" transform="translate(-71.287 -270)"/></g><g transform="translate(10.752 49.174)"><path class="a" d="M73.863,326.442a1.507,1.507,0,1,0,.442,1.067A1.523,1.523,0,0,0,73.863,326.442Z" transform="translate(-71.287 -326)"/></g><g transform="translate(10.752 57.621)"><path class="a" d="M73.863,382.442a1.507,1.507,0,1,0,.442,1.066A1.523,1.523,0,0,0,73.863,382.442Z" transform="translate(-71.287 -382)"/></g><g transform="translate(17.196 40.727)"><path class="a" d="M136.935,270h-21.42a1.508,1.508,0,0,0,0,3.017h21.42a1.508,1.508,0,0,0,0-3.017Z" transform="translate(-114.007 -270)"/></g><g transform="translate(44.888 18.806)"><path class="a" d="M326.764,125.527a6.335,6.335,0,0,0-8.654,2.319l-18.982,32.878a1.51,1.51,0,0,0-.193.587L297.6,173.279a1.508,1.508,0,0,0,2.394,1.382l9.7-7.142a1.506,1.506,0,0,0,.412-.46l18.982-32.878A6.343,6.343,0,0,0,326.764,125.527Zm-25.785,44.66.7-6.25,4.366,2.521Zm7.263-5.943-5.748-3.319,15.233-26.384,5.748,3.319Zm18.228-31.572-1.487,2.575-5.748-3.319,1.487-2.575a3.319,3.319,0,0,1,5.748,3.319Z" transform="translate(-297.589 -124.675)"/></g></g></svg>