<svg xmlns="http://www.w3.org/2000/svg" width="92.413" height="91.778" viewBox="0 0 92.413 91.778"><defs><style>.a{fill:#06759c;}</style></defs><g transform="translate(18.006 49.933)"><path class="a" d="M103.875,278.4a4.113,4.113,0,1,0,4.113,4.113A4.118,4.118,0,0,0,103.875,278.4Zm0,5.514a1.4,1.4,0,1,1,1.4-1.4A1.4,1.4,0,0,1,103.875,283.916Z" transform="translate(-99.762 -278.402)"/></g><g transform="translate(33.013 66.551)"><path class="a" d="M209.225,380.011a1.356,1.356,0,0,0-1.29-.937h-8.057l-2.49-7.663a1.356,1.356,0,0,0-2.58,0l-2.49,7.663h-8.057a1.356,1.356,0,0,0-.8,2.454l6.518,4.736-2.49,7.662a1.356,1.356,0,0,0,2.087,1.516l6.518-4.736,6.518,4.736a1.356,1.356,0,0,0,2.087-1.516l-2.49-7.663,6.518-4.736A1.355,1.355,0,0,0,209.225,380.011Zm-9.4,4.636a1.356,1.356,0,0,0-.493,1.516l1.5,4.63-3.938-2.861a1.368,1.368,0,0,0-1.594,0l-3.938,2.861,1.5-4.63a1.356,1.356,0,0,0-.493-1.516l-3.938-2.861H193.3a1.356,1.356,0,0,0,1.29-.937l1.5-4.63,1.5,4.63a1.356,1.356,0,0,0,1.29.937h4.868Z" transform="translate(-182.906 -370.474)"/></g><g transform="translate(66.027 66.551)"><path class="a" d="M392.132,380.01a1.356,1.356,0,0,0-1.29-.937h-8.057l-2.49-7.663a1.356,1.356,0,0,0-2.58,0l-2.49,7.663h-8.057a1.356,1.356,0,0,0-.8,2.454l6.518,4.736-2.49,7.662a1.356,1.356,0,0,0,2.087,1.516l6.518-4.736,6.518,4.736a1.356,1.356,0,0,0,2.087-1.516l-2.49-7.662,6.518-4.736A1.355,1.355,0,0,0,392.132,380.01Zm-9.4,4.637a1.356,1.356,0,0,0-.493,1.516l1.5,4.63-3.938-2.861a1.356,1.356,0,0,0-1.594,0l-3.938,2.861,1.5-4.63a1.356,1.356,0,0,0-.493-1.516l-3.938-2.861h4.868a1.356,1.356,0,0,0,1.29-.937l1.5-4.63,1.5,4.63a1.356,1.356,0,0,0,1.29.937h4.868Z" transform="translate(-365.813 -370.473)"/></g><g transform="translate(0 66.551)"><g transform="translate(0)"><path class="a" d="M26.319,380.011a1.356,1.356,0,0,0-1.29-.937H16.972l-2.49-7.663a1.356,1.356,0,0,0-2.58,0l-2.49,7.663H1.356a1.356,1.356,0,0,0-.8,2.454l6.518,4.736-2.49,7.662a1.356,1.356,0,0,0,2.087,1.516l6.518-4.736,6.518,4.736a1.356,1.356,0,0,0,2.087-1.516l-2.49-7.663,6.518-4.736A1.355,1.355,0,0,0,26.319,380.011Zm-9.4,4.636a1.356,1.356,0,0,0-.493,1.516l1.5,4.63-3.938-2.861a1.368,1.368,0,0,0-1.594,0l-3.938,2.861,1.5-4.63a1.356,1.356,0,0,0-.493-1.516L5.53,381.786H10.4a1.356,1.356,0,0,0,1.29-.937l1.5-4.63,1.5,4.63a1.356,1.356,0,0,0,1.29.937h4.868Z" transform="translate(0 -370.474)"/></g></g><g transform="translate(11.574)"><g transform="translate(0 0)"><path class="a" d="M133.984,35.572a6.144,6.144,0,0,0-3.847-10.936H108.32a24.9,24.9,0,0,0,1.908-6.862c1.039-7.276-.531-11.137-2.032-13.1a7.237,7.237,0,0,0-4.934-2.9,2.891,2.891,0,0,0-3.2,2.769c-.254,2.609-1.183,9.766-2.514,12.428-3.418,6.837-11.568,10.913-14.086,12.041A5.009,5.009,0,0,0,80.185,27.8H69.158a5.037,5.037,0,0,0-5.032,5.032V60.4a5.037,5.037,0,0,0,5.032,5.032H80.185a5.02,5.02,0,0,0,3.742-1.673,12.842,12.842,0,0,0,6.932,1.911h35.446a6.143,6.143,0,0,0,4.613-10.2,6.142,6.142,0,0,0,1.916-9.58,6.143,6.143,0,0,0,1.151-10.312Zm-53.8,27.146H69.158A2.322,2.322,0,0,1,66.839,60.4V32.831a2.322,2.322,0,0,1,2.319-2.319H80.185a2.311,2.311,0,0,1,1.654.7V61.456a1.35,1.35,0,0,0,.085.471A2.313,2.313,0,0,1,80.185,62.717Zm44.254-25.789h5.7a3.434,3.434,0,1,1,0,6.867h-5.7a1.356,1.356,0,0,0,0,2.713h3.783a3.434,3.434,0,0,1,0,6.867H123.4a1.356,1.356,0,0,0,0,2.713h2.907a3.434,3.434,0,0,1,0,6.867H90.86a10.033,10.033,0,0,1-5.728-1.642,5.033,5.033,0,0,0,.085-.915V32.831a5.011,5.011,0,0,0-.236-1.521c3.178-1.459,11.315-5.771,14.99-13.122,1.838-3.676,2.755-13.039,2.793-13.435,0-.043.006-.086.006-.13a.149.149,0,0,1,.053-.116.135.135,0,0,1,.111-.035,4.561,4.561,0,0,1,3.109,1.856c1.184,1.546,2.406,4.72,1.5,11.063-.768,5.376-2.589,7.728-2.6,7.743a1.368,1.368,0,0,0,1.05,2.215h24.146a3.434,3.434,0,0,1,0,6.867h-5.7a1.356,1.356,0,1,0,0,2.712Z" transform="translate(-64.126 -1.758)"/></g></g></svg>