<svg xmlns="http://www.w3.org/2000/svg" width="89.111" height="66.412" viewBox="0 0 89.111 66.412"><defs><style>.a{fill:#06759c;}</style></defs><path class="a" d="M193.438,117.652,173.51,97.718a23.127,23.127,0,1,0-11.466,11.67l19.827,19.832a8.18,8.18,0,1,0,11.567-11.568Zm-53.77-16.615a17.925,17.925,0,1,1,25.346,0A17.951,17.951,0,0,1,139.668,101.037Zm50.078,24.491a2.955,2.955,0,0,1-4.182,0l-18.943-18.947a23.32,23.32,0,0,0,4.15-4.217l18.975,18.98A2.963,2.963,0,0,1,189.746,125.528Z" transform="translate(-106.719 -65.206)"/><path class="a" d="M2.611,220.169H13.744a2.611,2.611,0,0,0,0-5.222H2.611a2.611,2.611,0,0,0,0,5.222Z" transform="translate(0 -188.885)"/><path class="a" d="M2.611,284.169H17.918a2.611,2.611,0,0,0,0-5.222H2.611a2.611,2.611,0,0,0,0,5.222Z" transform="translate(0 -241.745)"/><path class="a" d="M2.611,348.169H29.051a2.611,2.611,0,0,0,0-5.222H2.611a2.611,2.611,0,0,0,0,5.222Z" transform="translate(0 -294.605)"/><path class="a" d="M59.667,406.947H2.611a2.611,2.611,0,0,0,0,5.222H59.667a2.611,2.611,0,0,0,0-5.222Z" transform="translate(0 -347.467)"/></svg>