<svg xmlns="http://www.w3.org/2000/svg" width="88.04" height="88.04" viewBox="0 0 88.04 88.04"><defs><style>.a{fill:#06759c;}</style></defs><path class="a" d="M87.936,6.572A6.843,6.843,0,0,0,81.467.1C74.41-.282,60.6.093,47.4,6.922a66.885,66.885,0,0,0-19.531,16.2c-.07.084-.138.168-.208.252l-12.893,1A6.806,6.806,0,0,0,9.58,27.418l-8.8,13.3A4.714,4.714,0,0,0,4,47.981l10.862,1.682c-.038.211-.077.422-.112.633a6.84,6.84,0,0,0,1.917,5.949l15.13,15.131a6.857,6.857,0,0,0,4.839,2.009,6.742,6.742,0,0,0,1.11-.092c.211-.035.422-.074.633-.112l1.682,10.863a4.71,4.71,0,0,0,7.259,3.211l13.3-8.8a6.8,6.8,0,0,0,3.051-5.186l1-12.893c.084-.069.169-.138.253-.208a66.878,66.878,0,0,0,16.2-19.531c6.83-13.2,7.2-27.013,6.819-34.069ZM57.777,74.156,45.05,82.57l-1.64-10.586a57.781,57.781,0,0,0,15.768-7.507l-.649,8.4a1.68,1.68,0,0,1-.753,1.281ZM35.441,67.729,20.31,52.6a1.672,1.672,0,0,1-.477-1.451,44.372,44.372,0,0,1,2.014-7.663l22.7,22.7a44.557,44.557,0,0,1-7.658,2.019,1.672,1.672,0,0,1-1.451-.477ZM15.164,29.509l8.4-.649a57.777,57.777,0,0,0-7.508,15.768L5.469,42.989l8.414-12.727A1.68,1.68,0,0,1,15.164,29.509Zm46.454,26.7a59.137,59.137,0,0,1-11.94,7.809L24.019,38.361a60.16,60.16,0,0,1,7.81-11.939A61.555,61.555,0,0,1,49.768,11.5C61.886,5.236,74.654,4.9,81.186,5.254a1.692,1.692,0,0,1,1.6,1.6c.356,6.532.018,19.3-6.25,31.418A61.555,61.555,0,0,1,61.618,56.211Z" transform="translate(0)"/><path class="a" d="M288.619,112.1a12.886,12.886,0,1,0-9.119-3.771A12.859,12.859,0,0,0,288.619,112.1Zm-5.471-18.361a7.737,7.737,0,1,1-2.266,5.471A7.713,7.713,0,0,1,283.148,93.737Z" transform="translate(-228.312 -71.476)"/><path class="a" d="M2.881,356.544a2.57,2.57,0,0,0,1.824-.756l8.421-8.421a2.579,2.579,0,0,0-3.648-3.648l-8.421,8.421a2.579,2.579,0,0,0,1.824,4.4Z" transform="translate(-0.25 -283.991)"/><path class="a" d="M20.594,388.6a2.579,2.579,0,0,0-3.648,0L.756,404.791A2.579,2.579,0,1,0,4.4,408.439l16.19-16.19A2.579,2.579,0,0,0,20.594,388.6Z" transform="translate(0 -321.154)"/><path class="a" d="M99.239,433.482,90.818,441.9a2.579,2.579,0,1,0,3.647,3.648l8.421-8.421a2.579,2.579,0,0,0-3.647-3.648Z" transform="translate(-74.576 -358.318)"/></svg>