<svg xmlns="http://www.w3.org/2000/svg" width="285.794" height="329.768" viewBox="0 0 285.794 329.768"><defs><style>.a{opacity:0.16;}.b,.n{fill:#01e69f;}.c,.m{fill:#332fba;}.d{fill:#6b7fff;}.e,.j{fill:#0a1640;}.f,.i{fill:#fff;}.f,.n,.p,.q{opacity:0.5;}.g{fill:#efffff;}.h,.m{opacity:0.25;}.j{opacity:0.18;}.k{fill:#00d4fc;}.l{fill:#96e2cb;}.o{fill:#ffce00;}.p,.r{fill:#e38921;}</style></defs><g transform="translate(-1342.394 -1197.576)"><g class="a" transform="translate(1287.269 1282.626) rotate(-16)"><g transform="matrix(0.999, -0.035, 0.035, 0.999, 85.445, 7.791)"><g transform="translate(119.119 102.887)"><g transform="translate(1.069 1.068)"><path class="b" d="M0,68.26c.135,7.209,10.543,16.871,16.53,14.463C22,80.532,31.07,72.055,36.623,66.15c7.971-8.486,7.971-7.943,16.454-16.591,3.43-3.491,8.236-8.468,15.515-16.149L27.182,0l4.161,25.536a3.245,3.245,0,0,1-1.548,3.32l-7.105,4.22a6.016,6.016,0,0,0-2.5,7.442l.793,1.943a4.59,4.59,0,0,1-.667,4.621A73.694,73.694,0,0,1,2.846,62.944,5.853,5.853,0,0,0,0,68.26Z" transform="translate(0 0)"/><path class="c" d="M0,31.3c.135,7.209,10.543,16.871,16.53,14.463.365-.146.753-.322,1.15-.525a28.024,28.024,0,0,0,2.852-1.7c1.488-1,3.079-2.226,4.7-3.559.828-.686,1.657-1.4,2.484-2.138,1.468-1.3,2.929-2.663,4.321-4,.8-.777,1.582-1.55,2.322-2.3.8-.817,1.563-1.606,2.261-2.35.733-.781,1.4-1.487,2.016-2.121.844-.891,1.586-1.667,2.261-2.351,1.662-1.71,2.885-2.92,4.193-4.19.735-.71,1.491-1.443,2.36-2.294,1.428-1.405,3.175-3.134,5.624-5.636a43.049,43.049,0,0,0-7.332-9.881A8.647,8.647,0,0,0,41.589.069c-4.718-.944-8,7.953-18.983,18.852C16.407,25.077,8.754,30.418,0,31.3Z" transform="translate(0.002 36.957)"/><g transform="translate(10.547 45.601)"><path class="d" d="M.12,1.211A65.227,65.227,0,0,0,4.045,6.63c1.365,1.754,2.816,3.439,4.273,5.106.043.047.091.1.135.151.735-.71,1.491-1.443,2.36-2.294-.015-.015-.02-.027-.035-.043C9.294,7.9,7.782,6.276,6.209,4.7S3.028,1.6,1.288.18A.777.777,0,0,0,.182.291.786.786,0,0,0,.12,1.211Z" transform="translate(26.093 0)"/><path class="d" d="M.124,1.212A65.21,65.21,0,0,0,4.048,6.631q1.619,2.048,3.327,4.01C8.219,9.75,8.961,8.974,9.636,8.29,8.52,7.082,7.383,5.876,6.212,4.706,4.638,3.135,3.022,1.6,1.282.179A.785.785,0,0,0,.124,1.212Z" transform="translate(20.717 7.787)"/><path class="d" d="M.121,1.209A64.9,64.9,0,0,0,4.045,6.628c1.189,1.527,2.447,3,3.712,4.455.8-.777,1.582-1.55,2.322-2.3C8.818,7.4,7.532,6.029,6.206,4.711A64.808,64.808,0,0,0,1.288.178.789.789,0,0,0,.121,1.209Z" transform="translate(13.736 14.115)"/><path class="d" d="M.12,1.209A64.9,64.9,0,0,0,4.046,6.628c1.242,1.6,2.554,3.141,3.885,4.661.828-.686,1.657-1.4,2.484-2.138-1.368-1.5-2.757-3-4.21-4.44A64.553,64.553,0,0,0,1.287.178.789.789,0,0,0,.12,1.209Z" transform="translate(6.756 20.049)"/><path class="d" d="M.125,1.2C1.337,3.1,2.67,4.883,4.048,6.63,5.043,7.9,6.086,9.137,7.136,10.362a28.026,28.026,0,0,0,2.852-1.7C8.751,7.319,7.509,5.993,6.21,4.705,4.637,3.135,3.02,1.6,1.281.178A.785.785,0,0,0,.175.289.777.777,0,0,0,.125,1.2Z" transform="translate(0 26.234)"/></g></g><path class="e" d="M.417,71.97c-.066-.234-.132-.467-.183-.7,0-.021-.005-.041-.011-.063-.063-.3-.116-.6-.152-.9-.015-.118-.015-.234-.025-.352-.016-.2-.039-.4-.043-.6H0a6.908,6.908,0,0,1,3.336-6.235A73.194,73.194,0,0,0,20.55,47.479a3.527,3.527,0,0,0,.511-3.549l-.794-1.943a7.119,7.119,0,0,1,2.945-8.762l7.1-4.22a2.163,2.163,0,0,0,1.04-2.23L27.2,1.239a1.069,1.069,0,0,1,1.726-1L70.333,33.648a1.069,1.069,0,0,1,.1,1.566c-6.429,6.781-11.508,12.068-15.528,16.16h0c-2.454,2.51-4.206,4.241-5.64,5.654-.574.56-1.09,1.062-1.591,1.547l-.255.25c-.864.84-1.665,1.62-2.539,2.488-.658.657-1.354,1.363-2.157,2.188-.67.675-1.405,1.448-2.256,2.345-.261.267-.535.555-.814.849-.382.4-.762.8-1.187,1.257-.511.543-1.05,1.1-1.6,1.667l-.681.7-.15.147c-.627.635-1.277,1.277-1.937,1.92-.087.084-.166.166-.253.25-.043.041-.082.076-.124.118-2.058,1.989-4.233,3.97-6.374,5.757-.123.1-.246.217-.37.32-.572.471-1.112.9-1.637,1.31l-.107.083c-1.1.858-2.111,1.6-3.042,2.229-.178.119-.34.214-.513.325-.2.131-.4.254-.592.376-.227.14-.455.281-.673.408-.286.167-.563.318-.838.464-.11.059-.234.135-.341.189-.025.013-.049.021-.075.035-.4.2-.792.384-1.163.532a6.546,6.546,0,0,1-2.453.455A12.4,12.4,0,0,1,8.9,82.883a21.818,21.818,0,0,1-8.3-10.3c-.037-.114-.084-.227-.119-.341C.46,72.148.442,72.06.417,71.97ZM29.753,3.652l3.712,22.775a4.284,4.284,0,0,1-2.056,4.414L24.3,35.064a4.973,4.973,0,0,0-2.056,6.12l.793,1.94a5.659,5.659,0,0,1-.822,5.693A74.263,74.263,0,0,1,4.492,64.91,4.809,4.809,0,0,0,2.239,68.1c6.83-1.058,13.782-5.058,20.685-11.912A115.555,115.555,0,0,0,32.937,44.626c3.892-4.98,6.461-8.271,9.933-7.58a9.531,9.531,0,0,1,4.694,2.942,43.389,43.389,0,0,1,6.789,8.9c3.678-3.761,8.184-8.453,13.735-14.306ZM15.966,83.065a4.218,4.218,0,0,0,1.242-.267c.321-.127.665-.286,1.02-.467.082-.041.17-.094.254-.136.289-.152.59-.318.9-.5.182-.107.369-.222.558-.34s.4-.25.6-.381a59.934,59.934,0,0,0,5.546-4.193c.662-.558,1.324-1.121,1.987-1.71,1.293-1.146,2.7-2.448,4.172-3.86l.289-.282c.679-.659,1.34-1.314,1.971-1.949.274-.275.542-.552.81-.828.32-.329.628-.651.932-.968.221-.231.445-.464.662-.694.127-.136.233-.246.356-.377.285-.3.564-.6.829-.879,2.33-2.463,3.93-4.1,5.327-5.483.683-.681,1.325-1.31,1.995-1.961l.683-.66c1.507-1.465,3.21-3.127,5.827-5.773l.416-.421c.154-.155.316-.321.475-.483A41.576,41.576,0,0,0,46.058,41.5a7.7,7.7,0,0,0-3.609-2.363c-2.178-.451-4.427,2.444-7.83,6.8A117.109,117.109,0,0,1,24.429,57.705c-7.342,7.288-14.8,11.509-22.2,12.559.005.037.012.076.019.115a9.555,9.555,0,0,0,.294,1.245c.013.044.031.09.045.134A12.566,12.566,0,0,0,3.106,73.1l.007.016c.206.453.449.911.713,1.365.028.048.052.1.08.143.258.435.543.865.846,1.292l.138.2c.3.417.631.828.975,1.23l.171.2c.352.4.719.792,1.1,1.169.057.056.115.11.172.164.4.382.813.753,1.243,1.1.041.035.084.065.126.1.455.364.921.711,1.4,1.031A9.833,9.833,0,0,0,15.966,83.065Z" transform="translate(0 0)"/></g><g transform="translate(0 0)"><g transform="translate(43.668 1.067)"><path class="d" d="M37.042,0,0,99.417c.218-.04.44-.068.663-.1l.793-.1c3.093-.384,6.166-.611,7.066-.721,33.255-4.172,69.45,4.8,100.45,18.743q6.981,3.133,13.559,6.568c.032.021.078.039.1.058,10.976,5.725,21.222,11.916,33.239,4.193,6.442-4.143,10.773-11.973,12.167-19.673a29.715,29.715,0,0,0,.467-3.936,15.822,15.822,0,0,0-.762-5.868c-1.943-5.875-7.187-9.607-12.139-12.441-1.677-.948-5.657-3.138-11.017-6.074-4.137-2.258-9.089-4.962-14.456-7.9C111.391,61.936,87.607,48.955,76.281,42.544A93.483,93.483,0,0,1,37.042,0Z" transform="translate(9.992 9.615)"/><g transform="translate(0 0)"><path class="b" d="M0,45.073c4.653,2.089,9.18,4.289,13.566,6.568.029.021.071.036.1.056C24.639,57.421,34.886,63.614,46.9,55.89c7.546-4.853,12.2-14.757,12.636-23.605.461-9.419-6.465-14.637-12.9-18.307-1.674-.951-5.652-3.143-11.019-6.078C31.479,5.641,26.524,2.935,21.159,0,19.493,12.7,14.555,32.1,0,45.073Z" transform="translate(118.962 81.786)"/><path class="b" d="M39.983,2.916.283,109.468a4.472,4.472,0,1,0,8.381,3.123L48.365,6.039a4.472,4.472,0,1,0-8.382-3.123Z"/></g><g transform="translate(1.862 31.2)"><path class="c" d="M.36,27.905,9.37,3.723A5.724,5.724,0,0,1,16.209.2L26.482,2.957,12.8,39.681,3.224,35.048A5.725,5.725,0,0,1,.36,27.905Z" transform="translate(0 0)"/><path class="c" d="M22.045,0c5.367,2.935,9.345,5.128,11.019,6.078,6.439,3.67,13.365,8.887,12.9,18.305-.436,8.85-5.09,18.753-12.636,23.607C21.321,55.715,11.073,49.522.1,43.8c-.029-.02-.071-.035-.1-.056C14.6,31.562,20.04,13.014,22.045,0Z" transform="translate(130.666 58.485)"/></g><path class="f" d="M13.075,10.761C7.624,5.924,2.613.457,2.68.53,1.462-.771-.651.548.194,2.079c9.532,17.3,30.375,31.052,49.518,33.945A1.344,1.344,0,0,0,50.4,33.43C47.812,32.032,30.787,26.479,13.075,10.761Z" transform="translate(48.791 32.703)"/><path class="g" d="M3.493,33.515,2.75,34.561l-.822.976C1.014,36.628.184,37.711.24,37.637a1.1,1.1,0,0,0,1.53,1.555,36.218,36.218,0,0,0,6.1-5.483C16.322,23.557,19.9,10.8,19.562,1A1.038,1.038,0,0,0,17.515.8C16.418,3.917,14.219,18.7,3.493,33.515Z" transform="translate(128.365 88.703)"/><g transform="translate(146.756 102.384)"><path class="d" d="M17.062,8.765A46.6,46.6,0,0,0,1.139.033.906.906,0,0,0,.3,1.577a46.61,46.61,0,0,0,15.974,8.64.852.852,0,0,0,.79-1.452Z" transform="translate(10.02 0)"/><path class="d" d="M17.062,8.765A46.456,46.456,0,0,0,1.139.033.905.905,0,0,0,.3,1.576a46.4,46.4,0,0,0,15.974,8.641.852.852,0,0,0,.79-1.452Z" transform="translate(5.632 10.465)"/><path class="d" d="M17.062,8.765A46.6,46.6,0,0,0,1.14.033.906.906,0,0,0,.3,1.577a46.6,46.6,0,0,0,15.972,8.64.852.852,0,0,0,.792-1.452Z" transform="translate(0 21.191)"/></g><g class="h" transform="translate(1.862 44.705)"><path class="e" d="M2.547,8.53.36,14.4a5.725,5.725,0,0,0,2.864,7.143L12.8,26.175,22.552,0A55.73,55.73,0,0,1,2.547,8.53Z" transform="translate(0 0)"/><path class="e" d="M0,13.021c3.093-.384,6.166-.611,7.066-.721,33.255-4.172,69.45,4.8,100.45,18.743q6.981,3.133,13.559,6.568c.032.021.078.039.1.058,10.976,5.725,21.222,11.916,33.239,4.193,6.442-4.143,10.773-11.973,12.167-19.673-19.707,21.56-58.043-2.508-80.435-10.579C70.127,5.842,53.682.048,36.452,0,24.083-.033,8.223,2.743,0,13.021Z" transform="translate(9.585 51.112)"/></g></g><path class="e" d="M14.389,72.486l-8.7-4.212A6.761,6.761,0,0,1,2.29,59.8l9.01-24.18a6.763,6.763,0,0,1,8.119-4.186l9.333,2.508,11.3-30.33A5.553,5.553,0,0,1,47.176.347a5.467,5.467,0,0,1,3.1,2.887,5.477,5.477,0,0,1,.159,4.245l-1.173,3.149A92.938,92.938,0,0,0,87.869,52.3c11.068,6.264,34.087,18.834,52.582,28.935l1.253.683,2.079,1.139,10.175,5.561c.754.41,1.495.816,2.2,1.2l1.753.96c2.131,1.167,3.97,2.178,5.479,3.011,1.8.992,3.047,1.685,3.8,2.112.784.449,1.6.935,2.412,1.455l.079.049c.783.5,1.571,1.038,2.345,1.615.067.048.132.1.2.15q.467.351.924.723c.076.062.152.123.227.186.357.3.709.6,1.052.913l.005,0q.533.491,1.04,1.013l.147.158q.413.433.8.889c.071.083.14.166.21.25q.381.461.735.948c.045.06.091.119.135.179a17.658,17.658,0,0,1,1.48,2.483c.047.1.091.2.136.3q.237.51.439,1.04c.049.127.1.253.143.382.036.1.078.193.111.293.07.209.118.425.179.638s.12.4.17.607c.084.341.148.687.21,1.036.033.186.074.368.1.558.055.384.087.777.116,1.17.012.17.033.334.041.507.023.517.02,1.042,0,1.572,0,.059,0,.115,0,.175-.033.687-.1,1.374-.176,2.06l-.008.064a33.632,33.632,0,0,1-7.259,17.184c-.132.16-.263.322-.4.479-.183.213-.37.417-.559.622s-.386.418-.583.62c-.16.164-.322.325-.485.484-.246.241-.5.472-.75.7-.13.118-.259.235-.392.349q-.493.425-1,.817c-.068.051-.132.107-.2.156-.431.324-.866.634-1.31.92a21.971,21.971,0,0,1-12.142,3.76c-7.13,0-13.837-3.526-20.4-6.975L133.2,135.5c-.024-.013-.047-.025-.071-.04l-.036-.021c-4.482-2.332-9.022-4.529-13.5-6.536-34.961-15.726-70.436-22.35-99.883-18.656-.312.036-.88.088-1.618.156-1.362.123-3.42.312-5.446.563l-.793.1-.015,0-1.106,2.966a5.545,5.545,0,0,1-7.132,3.26,5.542,5.542,0,0,1-3.25-7.129Zm153.386,64.343q.449-.345.882-.718c.144-.124.287-.254.429-.384.2-.182.4-.369.6-.56s.373-.366.555-.556c.13-.134.255-.27.382-.408.229-.249.457-.5.679-.759.033-.039.064-.079.1-.118a31.521,31.521,0,0,0,6.649-14.452,28.963,28.963,0,0,0,.449-3.792c0-.066,0-.13,0-.2.017-.452.02-.9,0-1.329-.007-.171-.028-.337-.041-.505-.024-.325-.049-.649-.094-.961-.028-.193-.067-.381-.1-.571-.049-.273-.1-.546-.163-.809-.057-.233-.126-.461-.194-.69-.053-.179-.107-.358-.166-.535a14.619,14.619,0,0,0-.762-1.824c-.039-.076-.082-.148-.12-.223a15.644,15.644,0,0,0-.931-1.547c-.044-.065-.084-.132-.13-.2a17.914,17.914,0,0,0-1.165-1.471c-.1-.111-.2-.219-.3-.329-.368-.4-.75-.788-1.147-1.159-.072-.068-.139-.139-.213-.206-.439-.4-.9-.781-1.362-1.15q-.243-.193-.489-.381c-.4-.306-.81-.6-1.223-.89q-.241-.166-.483-.329-.614-.413-1.235-.8-.3-.191-.61-.376c-.31-.189-.619-.37-.929-.55-.17-.1-.338-.2-.508-.3-.983-.558-2.825-1.579-5.346-2.966l-.947-.52q-1.55-.852-3.385-1.857c-2.19,12.935-7.625,30.023-20.973,41.864l.487.255c10.051,5.284,19.542,10.279,30.38,3.309.41-.263.813-.547,1.209-.844C167.632,136.945,167.7,136.885,167.775,136.829Zm-42.138-7.465c.658.313,1.31.61,1.969.929q2.9,1.408,5.819,2.921c13.6-11.668,18.959-29.023,21.04-41.89l-2.3-1.257c-2.92-1.594-6.142-3.353-9.564-5.226l-.566-.309c-1.927,13.183-7.009,30.676-20.094,43.085C123.167,128.177,124.4,128.777,125.637,129.364ZM17.9,108.275c.709-.064,1.255-.115,1.55-.15,29.641-3.718,65.259,2.871,100.356,18.54,13.4-12.27,18.407-30.09,20.222-43.232l-.6-.328C120.925,73,97.9,60.427,86.817,54.155a95.3,95.3,0,0,1-38.6-40.72L12.683,108.808C14.643,108.572,16.59,108.394,17.9,108.275Zm.965-74.781A4.631,4.631,0,0,0,13.3,36.363l-9.01,24.18a4.633,4.633,0,0,0,2.328,5.808l8.518,4.123L28,35.95Zm-16.42,80.02a3.406,3.406,0,0,0,6.287-.229L48.432,6.733a3.406,3.406,0,0,0-3.184-4.6,3.413,3.413,0,0,0-3.194,2.219L30.416,35.593v0L16.732,72.32v0L2.354,110.909A3.391,3.391,0,0,0,2.445,113.513Z" transform="translate(42.599 0)"/><path class="e" d="M.407.229a1.067,1.067,0,0,1,1.5.179L23.877,28.34A1.068,1.068,0,1,1,22.2,29.661L.229,1.729A1.069,1.069,0,0,1,.407.229Z" transform="translate(19.733 6.984)"/><path class="e" d="M.946,4.013,35.677.006a1.077,1.077,0,0,1,1.185.939,1.071,1.071,0,0,1-.94,1.185L1.192,6.136c-.041,0-.083.007-.123.007a1.068,1.068,0,0,1-.123-2.13Z" transform="translate(0 53.631)"/><path class="e" d="M.067.694A1.073,1.073,0,0,1,1.441.066L36.077,12.971a1.069,1.069,0,0,1-.374,2.07,1.11,1.11,0,0,1-.373-.067L.7,2.069A1.07,1.07,0,0,1,.067.694Z" transform="translate(3.665 31.146)"/></g></g><g transform="translate(26.106 179.781) rotate(-30)"><g transform="translate(1.068 1.066)"><path class="i" d="M142.323,41.092l-21.75,68.034a3.744,3.744,0,0,1-4.7,2.425L2.6,75.341a3.742,3.742,0,0,1-2.424-4.7L21.929,2.6a4.116,4.116,0,0,1,.4-.86,4.917,4.917,0,0,1,.414-.535A3.733,3.733,0,0,1,26.631.179L139.9,36.39A3.742,3.742,0,0,1,142.323,41.092Z" transform="translate(0 0)"/><path class="j" d="M121.167,105.525l-.594,1.857a3.744,3.744,0,0,1-4.7,2.425L2.6,73.6a3.742,3.742,0,0,1-2.424-4.7L21.929.86a4.116,4.116,0,0,1,.4-.86A24.7,24.7,0,0,1,24.7,8.556c1.108,10.623-4.628,29.371-8.207,39.435-5.269,14.726-1.749,18.7,7.966,22.1C106.5,98.82,103.6,94.8,111.394,98.092A22,22,0,0,1,121.167,105.525Z" transform="translate(0 1.744)"/><path class="k" d="M40.238,26.985A20.62,20.62,0,0,1,3.471,32.067c-.078-.11-.154-.218-.229-.336a20.622,20.622,0,1,1,37-4.747Z" transform="translate(24.807 15.152)"/><g transform="translate(28.051 21.665)"><path class="l" d="M24.931,17.3a20.53,20.53,0,0,1-13.919.42c-.341-.11-.664-.227-.984-.358a15.751,15.751,0,0,1-1.5-.626,18.8,18.8,0,0,1-2.472-1.4c-.227-.144-.452-.3-.675-.461a8.551,8.551,0,0,1-.713-.531c-.233-.176-.461-.365-.677-.549q-.562-.483-1.07-.992c-.213-.2-.406-.4-.587-.606-.388-.413-.758-.836-1.108-1.28-.178-.215-.35-.444-.508-.669-.174-.229-.332-.453-.488-.69C.147,9.445.08,9.336,0,9.224,3.733,2.341,10.563-1.443,16.6.514a11.9,11.9,0,0,1,7.225,7.18A19.154,19.154,0,0,1,24.931,17.3Z" transform="translate(0 16.001)"/><path class="l" d="M.329,4.633A6.7,6.7,0,1,0,8.767.329,6.7,6.7,0,0,0,.329,4.633Z" transform="translate(13.084 0)"/></g><path class="m" d="M13.17,16.111A20.545,20.545,0,0,1,1.107,28.944,19.154,19.154,0,0,0,0,19.343C7.013,14.809,10.238,6.665,11.718,0A20.493,20.493,0,0,1,13.17,16.111Z" transform="translate(51.874 26.017)"/><path class="n" d="M24.7,9.6a20.53,20.53,0,0,1-13.919.42c-.341-.11-.664-.227-.984-.358a15.751,15.751,0,0,1-1.5-.626,18.8,18.8,0,0,1-2.472-1.4c-.227-.144-.452-.3-.675-.461a8.551,8.551,0,0,1-.713-.531c-.233-.176-.461-.365-.677-.549q-.562-.483-1.07-.992c-.213-.2-.406-.4-.587-.606C1.717,4.087,1.346,3.665,1,3.221c-.178-.215-.35-.444-.508-.669C.314,2.324.156,2.1,0,1.863c10.7,3,18.265,1.62,23.6-1.863A19.154,19.154,0,0,1,24.7,9.6Z" transform="translate(28.277 45.36)"/><g transform="translate(16.999 32.429)"><path class="d" d="M34.678,16.7a3.333,3.333,0,0,1-1.018-.16L2.325,6.527A3.342,3.342,0,1,1,4.362.16L35.7,10.176A3.343,3.343,0,0,1,34.678,16.7Z" transform="translate(0 24.473)"/><path class="d" d="M26.466,14.08a3.339,3.339,0,0,1-1.019-.16L2.325,6.528A3.342,3.342,0,1,1,4.362.161L27.483,7.554a3.342,3.342,0,0,1-1.017,6.526Z" transform="translate(70.973 0)"/></g></g><g transform="translate(0 0)"><path class="e" d="M141.292,36.439,28.025.228A4.824,4.824,0,0,0,23,1.579a5.94,5.94,0,0,0-.521.681,5.246,5.246,0,0,0-.5,1.084L.228,71.38a4.818,4.818,0,0,0,3.117,6.046l113.268,36.21a4.808,4.808,0,0,0,6.045-3.117l21.751-68.034A4.815,4.815,0,0,0,141.292,36.439Zm1.082,5.395-21.751,68.036a2.682,2.682,0,0,1-3.36,1.731L4,75.391a2.677,2.677,0,0,1-1.733-3.36L24.013,4a3,3,0,0,1,.279-.61,3.8,3.8,0,0,1,.3-.39,2.672,2.672,0,0,1,1.965-.861,2.623,2.623,0,0,1,.814.128l113.266,36.21A2.676,2.676,0,0,1,142.374,41.834Z"/><path class="e" d="M29.647,41.868A21.677,21.677,0,1,0,3.409,33.375l.017.027c.007.011.011.023.017.033l.2.3c.17.257.342.5.505.715s.313.425.471.622A21.783,21.783,0,0,0,6.331,37c.048.047.095.1.142.147s.11.1.162.148c.278.271.56.539.853.793.04.036.076.074.116.108.233.2.479.4.693.562l.016.012c.234.183.473.358.714.532.013.008.028.021.041.031.1.075.2.139.309.211q.642.441,1.313.837c.2.119.405.238.61.35.25.135.5.263.758.389.11.055.214.116.325.168.25.118.467.211.681.3.63.271,1.272.523,1.933.737a21.493,21.493,0,0,0,13.579-.09c.353-.118.71-.222,1.058-.358Zm-1.925-1.591c-.249.08-.5.162-.747.231s-.532.138-.8.2-.542.128-.814.181c-.254.048-.508.084-.763.122-.289.044-.578.09-.868.119-.241.025-.481.037-.722.053-.306.02-.611.044-.917.051-.225,0-.448-.005-.673-.008-.324-.005-.646-.005-.968-.027-.2-.012-.389-.039-.584-.056-.352-.033-.7-.063-1.054-.115-.124-.019-.247-.048-.37-.07a19.46,19.46,0,0,1-2.792-.674c-.07-.023-.138-.047-.206-.071-.249-.084-.492-.179-.737-.273l-.017-.007c-.234-.082-.481-.179-.745-.291-.328-.14-.648-.3-.967-.452-.214-.106-.427-.214-.636-.329s-.4-.226-.6-.342c-.27-.162-.539-.318-.809-.5-.049-.032-.1-.072-.152-.106q-.289-.193-.57-.394c-.186-.126-.365-.259-.564-.422-.267-.209-.528-.425-.785-.648-.237-.207-.469-.427-.7-.652-.131-.126-.262-.251-.39-.381s-.237-.238-.353-.366c-.368-.39-.717-.789-1.062-1.226l-.023-.031c-.266-.338-.517-.69-.762-1.047C9.2,26.53,15.3,23.4,20.58,25.118a10.861,10.861,0,0,1,6.566,6.565,17.84,17.84,0,0,1,1.11,8.41C28.078,40.156,27.9,40.219,27.722,40.277ZM3.1,15.66A19.579,19.579,0,0,1,21.671,2.136a19.606,19.606,0,0,1,17.243,10.31,19.346,19.346,0,0,1,1.377,15.28h0a19.453,19.453,0,0,1-9.837,11.426,19.646,19.646,0,0,0-1.328-8.274,12.959,12.959,0,0,0-7.886-7.794c-5.957-1.929-12.691,1.173-16.895,7.6A19.5,19.5,0,0,1,3.1,15.66Z" transform="translate(24.807 15.146)"/><path class="e" d="M5.375,15.159A7.768,7.768,0,1,0,.851,11.3,7.791,7.791,0,0,0,5.375,15.159ZM2.416,6.032a5.63,5.63,0,1,1,7.914,6.753A5.63,5.63,0,0,1,2.416,6.032Z" transform="translate(41.133 21.661)"/><path class="e" d="M21.441.051A1.069,1.069,0,0,0,20.1.743L.051,63.449a1.068,1.068,0,1,0,2.035.651L22.132,1.395A1.069,1.069,0,0,0,21.441.051Z" transform="translate(61.799 24.693)"/><path class="e" d="M39.236,12.148,1.395.049A1.069,1.069,0,1,0,.743,2.086l37.841,12.1a1.068,1.068,0,1,0,.651-2.035Z" transform="translate(86.687 45.669)"/><path class="e" d="M39.236,12.148,1.395.051A1.069,1.069,0,0,0,.743,2.086l37.842,12.1a1.068,1.068,0,1,0,.651-2.035Z" transform="translate(83.607 55.3)"/><path class="e" d="M39.236,12.148,1.394.051A1.068,1.068,0,0,0,.743,2.086l37.842,12.1a1.069,1.069,0,0,0,.651-2.036Z" transform="translate(80.528 64.933)"/><path class="e" d="M39.237,12.149,1.395.052A1.068,1.068,0,1,0,.743,2.087l37.842,12.1a1.068,1.068,0,0,0,.651-2.035Z" transform="translate(77.448 74.565)"/><path class="e" d="M32.37,9.952,1.394.05A1.068,1.068,0,1,0,.743,2.085l30.975,9.9a1.068,1.068,0,1,0,.651-2.035Z" transform="translate(74.369 84.199)"/></g></g><g transform="matrix(-0.07, -0.998, 0.998, -0.07, 3.804, 254.391)"><g transform="translate(1.064 1.063)"><path class="o" d="M.014,71a.142.142,0,0,0,.068.19l7.81,3.717,5.943,2.829.025-.053L47.6,6.609,33.717,0,32.3,2.982l-1.52,3.21Z" transform="translate(0.041 11.299)"/><path class="p" d="M.935,77.684,34.68,6.609,20.792,0,19.375,2.983c-1.5,3.155,1.925,5.324,4.185,6.542,6.719,3.618,6.112-.6-19.31,53.035C2.421,66.42-1.892,73.616.935,77.684Z" transform="translate(12.966 11.299)"/><g transform="translate(0 0.006)"><path class="b" d="M.025,4.5.056,9.433l.037,6.438a.814.814,0,0,0,.41.671.886.886,0,0,0,1.028.012l5.01-4.033,7.34-5.915L0,0Z" transform="translate(0 82.409)"/><path class="l" d="M15.762,3.156,10.27.543C8.077-.5,5.4-.038,4.459,1.919L0,11.3l11.142,5.3L13.883,17.9l4.464-9.374C19.232,6.656,18.068,4.254,15.762,3.156Z" transform="translate(33.763 0)"/></g><g class="q" transform="translate(0 0)"><path class="b" d="M.025,4.5a2.233,2.233,0,0,0,.5.281c.931.378,2.015.147,2.962.48,1.556.54,2.258,2.476,1.932,4.086C4.839,12.223,1.869,14.106.5,16.542a.886.886,0,0,0,1.028.012l5.01-4.033,7.34-5.915L0,0Z" transform="translate(0 82.415)"/><path class="b" d="M10.6,3.162,5.1.549A4.666,4.666,0,0,0,0,.977C1.048,3.33,5.585,3.109,8.12,7.046c1.949,3.024-2.075,8.108-2.436,10.166l2.741,1.306,4.756-9.984C14.066,6.662,12.9,4.259,10.6,3.162Z" transform="translate(38.929 0)"/></g><path class="d" d="M0,4.343l13.881,6.614,2.062-4.343L2.062,0Z" transform="translate(31.893 10.874)"/><g transform="translate(5.682 21.176)"><path class="r" d="M29.433,1.152c-3.978,10.023-8.454,19.806-13.055,29.53-4.649,9.7-9.424,19.343-14.7,28.743a.894.894,0,0,1-1.611-.769c3.99-10.016,8.484-19.791,13.1-29.506C17.835,19.458,22.626,9.824,27.918.429a.841.841,0,0,1,1.515.723Z" transform="translate(0 0)"/><path class="r" d="M29.432,1.153c-3.978,10.021-8.454,19.8-13.054,29.53-4.649,9.7-9.425,19.342-14.7,28.743a.9.9,0,0,1-1.612-.77c3.99-10.016,8.482-19.791,13.1-29.506,4.668-9.692,9.46-19.326,14.75-28.72a.841.841,0,0,1,1.515.723Z" transform="translate(4.758 2.271)"/></g></g><path class="e" d="M51.048,3.264,45.553.644C42.705-.707,39.47.136,38.32,2.529L34.161,11.3a.185.185,0,0,0-.04.053c-.027.04-.04.08-.067.12l-.2.428L32,15.819.16,82.9c-.013.027-.027.04-.027.067a.773.773,0,0,0-.067.187A.714.714,0,0,0,0,83.487L.094,99.345a1.845,1.845,0,0,0,.9,1.564,1.991,1.991,0,0,0,1.137.348,1.824,1.824,0,0,0,1.15-.4l12.341-9.934a1.065,1.065,0,0,0,.2-.227,1,1,0,0,0,.094-.16c.013-.013.027-.013.027-.027l33.72-71.051.027-.053.187-.4,4.265-8.945C55.273,7.663,53.883,4.615,51.048,3.264ZM35.325,13.787l.2-.428,11.953,5.7-.2.414v.013l-.949,1.992-11.953-5.7ZM6.2,95.761,2.193,93.851h0l-.053-8.664,10.8,5.148Zm8.236-7.1L2.5,82.979,33.466,17.7l11.967,5.7ZM52.212,9.134l-3.811,8-11.953-5.7,3.8-7.982c.7-1.444,2.835-1.618,4.4-.882L50.126,5.19C51.9,6.032,52.84,7.81,52.212,9.134Z" transform="translate(0 0)"/></g></g><g transform="translate(1307.269 1308.396) rotate(-16)"><g transform="matrix(0.999, -0.035, 0.035, 0.999, 54.479, 4.968)"><g transform="translate(75.949 65.6)"><g transform="translate(0.681 0.681)"><path class="b" d="M0,43.522c.086,4.6,6.722,10.757,10.539,9.221,3.485-1.4,9.269-6.8,12.809-10.567,5.083-5.411,5.083-5.065,10.491-10.578,2.187-2.226,5.251-5.4,9.892-10.3L17.331,0l2.653,16.282A2.069,2.069,0,0,1,19,18.4l-4.53,2.69a3.836,3.836,0,0,0-1.6,4.745l.506,1.239a2.926,2.926,0,0,1-.425,2.946A46.988,46.988,0,0,1,1.815,40.133,3.732,3.732,0,0,0,0,43.522Z"/><path class="c" d="M0,19.959c.086,4.6,6.722,10.757,10.539,9.221.233-.093.48-.205.733-.335a17.863,17.863,0,0,0,1.818-1.083c.949-.638,1.963-1.419,3-2.269.528-.437,1.056-.893,1.584-1.363.936-.829,1.868-1.7,2.755-2.551.511-.5,1.008-.988,1.481-1.465.508-.521,1-1.024,1.442-1.5.467-.5.892-.948,1.286-1.352.538-.568,1.011-1.063,1.442-1.5,1.06-1.09,1.84-1.862,2.673-2.672.469-.453.951-.92,1.5-1.463.91-.9,2.025-2,3.586-3.593a27.448,27.448,0,0,0-4.675-6.3A5.513,5.513,0,0,0,26.517.044c-3.008-.6-5.1,5.071-12.1,12.02C10.461,15.989,5.581,19.394,0,19.959Z" transform="translate(0.001 23.563)"/><g transform="translate(6.724 29.075)"><path class="d" d="M.076.772a41.579,41.579,0,0,0,2.5,3.455C3.45,5.346,4.375,6.42,5.3,7.483c.027.03.058.066.086.1.469-.453.951-.92,1.5-1.463-.009-.009-.013-.017-.022-.027C5.926,5.039,4.962,4,3.959,3S1.93,1.021.821.115A.5.5,0,0,0,.116.186.5.5,0,0,0,.076.772Z" transform="translate(16.637 0)"/><path class="d" d="M.079.773a41.578,41.578,0,0,0,2.5,3.455Q3.613,5.534,4.7,6.785c.538-.568,1.011-1.063,1.442-1.5C5.432,4.515,4.707,3.746,3.961,3,2.957,2,1.927,1.02.817.114A.5.5,0,0,0,.079.773Z" transform="translate(13.209 4.965)"/><path class="d" d="M.077.771a41.372,41.372,0,0,0,2.5,3.455c.758.974,1.56,1.912,2.367,2.841.511-.5,1.008-.988,1.481-1.465C5.622,4.719,4.8,3.844,3.957,3A41.321,41.321,0,0,0,.821.113.5.5,0,0,0,.077.771Z" transform="translate(8.758 9)"/><path class="d" d="M.077.771a41.378,41.378,0,0,0,2.5,3.455c.792,1.018,1.628,2,2.477,2.972C5.585,6.76,6.113,6.3,6.641,5.835,5.769,4.875,4.883,3.919,3.956,3A41.153,41.153,0,0,0,.821.113.5.5,0,0,0,.077.771Z" transform="translate(4.308 12.783)"/><path class="d" d="M.08.767c.772,1.21,1.622,2.346,2.5,3.46.634.806,1.3,1.6,1.968,2.379A17.861,17.861,0,0,0,6.368,5.523C5.579,4.667,4.787,3.821,3.96,3,2.956,2,1.926,1.02.817.113A.5.5,0,0,0,.112.184.5.5,0,0,0,.08.767Z" transform="translate(0 16.727)"/></g></g><path class="e" d="M.266,45.887c-.042-.149-.084-.3-.117-.446,0-.014,0-.026-.007-.04-.04-.192-.074-.384-.1-.575-.009-.075-.009-.149-.016-.224C.019,44.474,0,44.345,0,44.217H0a4.4,4.4,0,0,1,2.127-3.975A46.669,46.669,0,0,0,13.1,30.272a2.249,2.249,0,0,0,.326-2.263l-.506-1.239A4.539,4.539,0,0,1,14.8,21.185l4.529-2.69a1.379,1.379,0,0,0,.663-1.422L17.34.79a.682.682,0,0,1,1.1-.639l26.4,21.3a.681.681,0,0,1,.066,1c-4.1,4.324-7.337,7.695-9.9,10.3h0c-1.564,1.6-2.682,2.7-3.6,3.605-.366.357-.695.677-1.014.986l-.163.159c-.551.535-1.061,1.033-1.619,1.586-.419.419-.864.869-1.375,1.395-.427.431-.9.923-1.438,1.5-.166.171-.341.354-.519.541-.244.257-.486.513-.757.8-.326.346-.669.7-1.02,1.063l-.434.448-.1.094c-.4.4-.814.814-1.235,1.224-.055.054-.106.106-.161.159l-.079.075c-1.312,1.268-2.7,2.531-4.064,3.671-.078.066-.157.138-.236.2-.365.3-.709.574-1.043.835l-.068.053c-.7.547-1.346,1.022-1.939,1.421-.113.076-.217.136-.327.207-.127.084-.252.162-.378.24-.145.09-.29.179-.429.26-.182.107-.359.2-.535.3-.07.038-.149.086-.217.12-.016.009-.032.014-.048.022-.257.129-.5.245-.742.339a4.174,4.174,0,0,1-1.564.29,7.9,7.9,0,0,1-4.235-1.5,13.911,13.911,0,0,1-5.291-6.57C.362,46.2.332,46.13.31,46.058.293,46,.282,45.945.266,45.887ZM18.97,2.329,21.337,16.85a2.731,2.731,0,0,1-1.311,2.814l-4.531,2.692a3.171,3.171,0,0,0-1.311,3.9l.506,1.237a3.608,3.608,0,0,1-.524,3.63,47.351,47.351,0,0,1-11.3,10.261A3.066,3.066,0,0,0,1.428,43.42c4.355-.674,8.787-3.225,13.189-7.595A73.678,73.678,0,0,0,21,28.453c2.482-3.176,4.119-5.273,6.333-4.833A6.077,6.077,0,0,1,30.326,25.5a27.665,27.665,0,0,1,4.329,5.675c2.345-2.4,5.218-5.389,8.758-9.122ZM10.179,52.961a2.689,2.689,0,0,0,.792-.171c.2-.081.424-.182.65-.3.052-.026.108-.06.162-.087.184-.1.376-.2.576-.32.116-.068.235-.142.355-.217s.254-.159.384-.243a38.211,38.211,0,0,0,3.536-2.673c.422-.356.844-.714,1.267-1.09.824-.731,1.72-1.561,2.66-2.461l.184-.18c.433-.42.854-.838,1.257-1.243.175-.176.345-.352.517-.528.2-.21.4-.415.594-.617.141-.147.284-.3.422-.442.081-.087.148-.157.227-.24.182-.194.36-.383.529-.56,1.486-1.57,2.505-2.611,3.4-3.5.436-.434.845-.835,1.272-1.251l.436-.421c.961-.934,2.047-1.994,3.715-3.681l.265-.268.3-.308a26.508,26.508,0,0,0-4.311-5.7,4.907,4.907,0,0,0-2.3-1.506c-1.389-.287-2.823,1.558-4.992,4.336a74.664,74.664,0,0,1-6.5,7.5C10.895,41.439,6.137,44.13,1.422,44.8c0,.024.008.049.012.073a6.091,6.091,0,0,0,.188.794c.009.028.02.057.029.085a8.014,8.014,0,0,0,.33.855l0,.01c.131.289.286.581.454.87.018.031.033.061.051.091.165.277.346.552.54.824l.088.124c.194.266.4.528.621.784l.109.125c.224.255.459.5.7.745l.11.1c.255.244.518.48.793.7.026.022.054.042.08.063.29.232.587.453.894.657A6.269,6.269,0,0,0,10.179,52.961Z"/></g><g transform="translate(0 0)"><g transform="translate(27.842 0.68)"><path class="d" d="M23.617,0,0,63.388c.139-.026.28-.043.423-.061l.506-.062c1.972-.245,3.932-.39,4.505-.459,21.2-2.66,44.281,3.06,64.046,11.95q4.451,2,8.645,4.187c.02.014.049.025.064.037,7,3.65,13.531,7.6,21.193,2.673,4.107-2.642,6.869-7.634,7.758-12.544a18.949,18.949,0,0,0,.3-2.51,10.088,10.088,0,0,0-.486-3.742c-1.239-3.746-4.582-6.125-7.74-7.932-1.069-.6-3.607-2-7.025-3.873-2.638-1.44-5.8-3.164-9.217-5.037-11.948-6.525-27.112-14.8-34.333-18.889A59.6,59.6,0,0,1,23.617,0Z" transform="translate(6.371 6.13)"/><g transform="translate(0 0)"><path class="b" d="M0,28.738c2.967,1.332,5.853,2.735,8.649,4.187.019.014.045.023.064.036,7,3.65,13.53,7.6,21.188,2.673,4.811-3.095,7.779-9.409,8.057-15.051.294-6.006-4.122-9.332-8.227-11.672-1.067-.606-3.6-2-7.025-3.875C20.071,3.6,16.912,1.871,13.491,0,12.428,8.1,9.28,20.466,0,28.738Z" transform="translate(75.849 52.146)"/><path class="b" d="M25.493,1.859.181,69.8a2.851,2.851,0,1,0,5.343,1.991L30.837,3.851a2.852,2.852,0,1,0-5.344-1.991Z"/></g><g transform="translate(1.187 19.893)"><path class="c" d="M.229,17.792,5.974,2.374a3.649,3.649,0,0,1,4.36-2.25l6.55,1.761L8.16,25.3l-6.1-2.954A3.65,3.65,0,0,1,.229,17.792Z"/><path class="c" d="M14.056,0c3.422,1.871,5.958,3.269,7.025,3.875,4.106,2.34,8.521,5.667,8.227,11.671C29.031,21.189,26.063,27.5,21.252,30.6,13.594,35.523,7.06,31.574.064,27.925.045,27.912.019,27.9,0,27.889,9.312,20.124,12.777,8.3,14.056,0Z" transform="translate(83.311 37.289)"/></g><path class="f" d="M8.337,6.861C4.861,3.777,1.666.292,1.709.338.932-.492-.415.35.124,1.326,6.2,12.355,19.491,21.124,31.7,22.969a.857.857,0,0,0,.436-1.654C30.484,20.423,19.63,16.883,8.337,6.861Z" transform="translate(31.109 20.851)"/><path class="g" d="M2.227,21.369l-.474.667-.524.622C.647,23.354.117,24.044.153,24a.7.7,0,0,0,.975.991,23.091,23.091,0,0,0,3.89-3.5A32.252,32.252,0,0,0,12.472.636a.662.662,0,0,0-1.305-.13C10.468,2.5,9.066,11.922,2.227,21.369Z" transform="translate(81.844 56.556)"/><g transform="translate(93.571 65.279)"><path class="d" d="M10.878,5.588A29.71,29.71,0,0,0,.726.021a.578.578,0,0,0-.536.985A29.718,29.718,0,0,0,10.375,6.514a.543.543,0,0,0,.5-.926Z" transform="translate(6.389 0)"/><path class="d" d="M10.879,5.588A29.62,29.62,0,0,0,.726.021.577.577,0,0,0,.19,1a29.587,29.587,0,0,0,10.185,5.51.543.543,0,0,0,.5-.926Z" transform="translate(3.591 6.672)"/><path class="d" d="M10.879,5.589A29.71,29.71,0,0,0,.727.021a.578.578,0,0,0-.536.985A29.715,29.715,0,0,0,10.374,6.514a.543.543,0,0,0,.5-.926Z" transform="translate(0 13.511)"/></g><g class="h" transform="translate(1.187 28.504)"><path class="e" d="M1.624,5.439.229,9.181a3.65,3.65,0,0,0,1.826,4.554l6.1,2.954L14.379,0A35.534,35.534,0,0,1,1.624,5.439Z"/><path class="e" d="M0,8.3c1.972-.245,3.932-.39,4.505-.46,21.2-2.66,44.281,3.06,64.046,11.95Q73,21.79,77.2,23.98c.02.014.049.025.064.037,7,3.65,13.531,7.6,21.193,2.673,4.107-2.642,6.868-7.634,7.758-12.544C93.646,27.893,69.2,12.547,54.926,7.4,44.712,3.725,34.227.031,23.241,0,15.355-.021,5.243,1.749,0,8.3Z" transform="translate(6.112 32.589)"/></g></g><path class="e" d="M9.174,46.216,3.628,43.531a4.311,4.311,0,0,1-2.168-5.4L7.205,22.709a4.312,4.312,0,0,1,5.176-2.669l5.95,1.6L25.536,2.3A3.541,3.541,0,0,1,30.079.221a3.486,3.486,0,0,1,1.976,1.841,3.492,3.492,0,0,1,.1,2.707l-.748,2.008A59.256,59.256,0,0,0,56.025,33.343c7.057,3.994,21.733,12.008,33.526,18.449l.8.436,1.326.726L98.162,56.5l1.4.766,1.118.612c1.359.744,2.531,1.389,3.494,1.92,1.147.633,1.943,1.074,2.424,1.347.5.286,1.017.6,1.538.928l.05.032c.5.32,1,.662,1.5,1.03.043.031.084.063.126.1q.3.224.589.461c.049.039.1.078.145.118.228.188.452.381.671.582l0,0q.34.313.663.646l.094.1q.263.276.512.567l.134.159q.243.294.469.6c.029.038.058.076.086.114a11.26,11.26,0,0,1,.944,1.583c.03.062.058.126.087.188q.151.325.28.663c.032.081.062.161.091.244.023.063.049.123.071.187.044.133.075.271.114.407s.077.256.108.387c.054.217.095.438.134.661.021.119.047.234.064.355.035.245.055.5.074.746.008.108.021.213.026.323.014.33.013.664,0,1,0,.037,0,.073,0,.112-.021.438-.061.876-.113,1.314l-.005.041a21.443,21.443,0,0,1-4.628,10.956c-.084.1-.168.205-.253.305-.117.136-.236.266-.356.4s-.246.267-.372.4c-.1.1-.205.207-.309.309-.157.153-.316.3-.478.446-.083.075-.165.15-.25.222q-.315.271-.64.521c-.043.032-.084.068-.127.1-.275.206-.552.4-.835.587a14.009,14.009,0,0,1-7.741,2.4c-4.546,0-8.822-2.248-13-4.447l-1.13-.592-.045-.026-.023-.014C82,84.867,79.1,83.466,76.252,82.186,53.962,72.159,31.343,67.936,12.568,70.292c-.2.023-.561.056-1.032.1-.869.078-2.181.2-3.472.359l-.506.062-.009,0-.705,1.891A3.535,3.535,0,0,1,2.3,74.783,3.533,3.533,0,0,1,.225,70.238Zm97.8,41.024q.286-.22.563-.458c.092-.079.183-.162.274-.245.129-.116.257-.235.382-.357s.238-.234.354-.355c.083-.085.163-.172.244-.26.146-.159.292-.318.433-.484l.062-.075a20.1,20.1,0,0,0,4.239-9.215,18.47,18.47,0,0,0,.286-2.418c0-.042,0-.083,0-.124.011-.288.013-.572,0-.847,0-.109-.018-.215-.026-.322-.015-.207-.032-.413-.06-.613-.018-.123-.043-.243-.065-.364-.032-.174-.064-.348-.1-.516-.037-.148-.08-.294-.124-.44-.034-.114-.068-.228-.106-.341a9.322,9.322,0,0,0-.486-1.163c-.025-.049-.052-.095-.077-.142a9.975,9.975,0,0,0-.593-.986c-.028-.042-.054-.084-.083-.125a11.417,11.417,0,0,0-.743-.938c-.062-.071-.127-.14-.191-.21-.234-.255-.478-.5-.731-.739-.046-.043-.089-.089-.136-.131-.28-.256-.572-.5-.869-.733q-.155-.123-.312-.243c-.257-.2-.517-.385-.78-.568q-.153-.106-.308-.21-.391-.263-.788-.51-.194-.121-.389-.24c-.2-.12-.395-.236-.592-.35-.108-.063-.216-.128-.324-.19-.627-.355-1.8-1.007-3.408-1.891l-.6-.332-2.158-1.184c-1.4,8.247-4.862,19.143-13.372,26.692l.31.163c6.408,3.369,12.46,6.554,19.37,2.11.262-.168.518-.349.771-.538C106.881,87.315,106.926,87.277,106.972,87.241ZM80.1,82.481c.419.2.835.389,1.256.592q1.846.9,3.71,1.863c8.673-7.44,12.088-18.505,13.415-26.709l-1.465-.8c-1.862-1.016-3.916-2.138-6.1-3.332l-.361-.2C89.333,62.3,86.093,73.456,77.749,81.368,78.53,81.724,79.319,82.107,80.1,82.481ZM11.413,69.035c.452-.041.8-.073.988-.1,18.9-2.371,41.608,1.83,63.986,11.821C84.931,72.937,88.123,61.575,89.28,53.2l-.382-.209C77.1,46.545,62.419,38.528,55.354,34.529A60.762,60.762,0,0,1,30.742,8.566L8.087,69.375C9.336,69.224,10.578,69.111,11.413,69.035Zm.615-47.68a2.953,2.953,0,0,0-3.546,1.829L2.737,38.6a2.954,2.954,0,0,0,1.484,3.7l5.431,2.629,8.2-22.013ZM1.559,72.375a2.171,2.171,0,0,0,4.008-.146L30.88,4.293a2.172,2.172,0,0,0-2.03-2.931,2.176,2.176,0,0,0-2.037,1.415l-7.42,19.917v0L10.668,46.111v0L1.5,70.714A2.162,2.162,0,0,0,1.559,72.375Z" transform="translate(27.161 0)"/><path class="e" d="M.259.146A.68.68,0,0,1,1.216.26L15.224,18.07a.681.681,0,1,1-1.07.842L.146,1.1A.681.681,0,0,1,.259.146Z" transform="translate(12.582 4.453)"/><path class="e" d="M.6,2.559,22.747,0A.687.687,0,0,1,23.5.6a.683.683,0,0,1-.6.755L.76,3.912c-.026,0-.053,0-.078,0A.681.681,0,0,1,.6,2.559Z" transform="translate(0 34.194)"/><path class="e" d="M.043.443a.684.684,0,0,1,.876-.4L23,8.27a.681.681,0,0,1-.239,1.32.708.708,0,0,1-.238-.043L.443,1.319A.682.682,0,0,1,.043.443Z" transform="translate(2.337 19.858)"/></g></g><g transform="translate(16.645 114.627) rotate(-30)"><g transform="translate(0.681 0.68)"><path class="i" d="M90.744,26.2,76.876,69.578a2.387,2.387,0,0,1-3,1.546L1.66,48.037a2.386,2.386,0,0,1-1.546-3L13.981,1.66a2.623,2.623,0,0,1,.252-.548A3.142,3.142,0,0,1,14.5.771,2.38,2.38,0,0,1,16.98.114L89.2,23.2A2.386,2.386,0,0,1,90.744,26.2Z"/><path class="j" d="M77.255,67.282l-.378,1.184a2.387,2.387,0,0,1-3,1.546L1.66,46.924a2.386,2.386,0,0,1-1.546-3L13.981.548A2.623,2.623,0,0,1,14.234,0a15.749,15.749,0,0,1,1.515,5.455c.707,6.773-2.95,18.727-5.233,25.143C7.156,39.988,9.4,42.524,15.6,44.687,67.906,63.007,66.057,60.443,71.024,62.543A14.027,14.027,0,0,1,77.255,67.282Z" transform="translate(0 1.112)"/><path class="k" d="M25.655,17.205a13.147,13.147,0,0,1-23.443,3.24c-.049-.07-.1-.139-.146-.214a13.149,13.149,0,1,1,23.588-3.026Z" transform="translate(15.817 9.661)"/><g transform="translate(17.885 13.813)"><path class="l" d="M15.9,11.028a13.09,13.09,0,0,1-8.874.268c-.217-.07-.424-.145-.627-.228a10.039,10.039,0,0,1-.959-.4,11.987,11.987,0,0,1-1.576-.891c-.145-.092-.288-.194-.431-.294a5.454,5.454,0,0,1-.454-.338c-.148-.112-.294-.233-.431-.35q-.358-.308-.682-.633c-.136-.126-.259-.257-.374-.386C1.239,7.512,1,7.243.779,6.96.666,6.822.556,6.676.455,6.533s-.211-.289-.311-.44C.094,6.022.051,5.953,0,5.881,2.38,1.493,6.735-.92,10.583.328A7.59,7.59,0,0,1,15.19,4.906,12.213,12.213,0,0,1,15.9,11.028Z" transform="translate(0 10.202)"/><path class="l" d="M.21,2.954A4.271,4.271,0,1,0,5.59.21,4.271,4.271,0,0,0,.21,2.954Z" transform="translate(8.342 0)"/></g><path class="m" d="M8.4,10.272A13.1,13.1,0,0,1,.706,18.455,12.213,12.213,0,0,0,0,12.333C4.471,9.442,6.527,4.25,7.471,0A13.066,13.066,0,0,1,8.4,10.272Z" transform="translate(33.075 16.588)"/><path class="n" d="M15.751,6.122a13.09,13.09,0,0,1-8.874.268c-.217-.07-.424-.145-.627-.228a10.039,10.039,0,0,1-.959-.4,11.987,11.987,0,0,1-1.576-.891c-.145-.092-.288-.194-.431-.294a5.454,5.454,0,0,1-.454-.338c-.148-.112-.294-.233-.431-.35q-.358-.308-.682-.633C1.581,3.13,1.457,3,1.342,2.87c-.247-.263-.483-.533-.707-.816C.522,1.916.412,1.771.311,1.627S.1,1.338,0,1.188C6.822,3.1,11.646,2.221,15.046,0A12.213,12.213,0,0,1,15.751,6.122Z" transform="translate(18.029 28.921)"/><g transform="translate(10.838 20.676)"><path class="d" d="M22.11,10.65a2.125,2.125,0,0,1-.649-.1L1.483,4.162A2.131,2.131,0,1,1,2.781.1L22.759,6.488a2.132,2.132,0,0,1-.649,4.162Z" transform="translate(0 15.604)"/><path class="d" d="M16.874,8.977a2.13,2.13,0,0,1-.65-.1L1.483,4.162A2.131,2.131,0,1,1,2.781.1L17.523,4.816a2.131,2.131,0,0,1-.649,4.161Z" transform="translate(45.252 0)"/></g></g><path class="e" d="M90.086,23.233,17.869.145a3.076,3.076,0,0,0-3.205.862,3.788,3.788,0,0,0-.332.434,3.347,3.347,0,0,0-.317.691L.146,45.511a3.072,3.072,0,0,0,1.987,3.855L74.351,72.453a3.065,3.065,0,0,0,3.854-1.987L92.074,27.088A3.07,3.07,0,0,0,90.086,23.233Zm.69,3.44L76.908,70.052a1.71,1.71,0,0,1-2.142,1.1L2.549,48.069a1.707,1.707,0,0,1-1.1-2.142L15.31,2.548a1.909,1.909,0,0,1,.178-.389,2.42,2.42,0,0,1,.193-.249,1.7,1.7,0,0,1,1.253-.549,1.672,1.672,0,0,1,.519.082L89.671,24.53A1.706,1.706,0,0,1,90.776,26.673Z"/><path class="e" d="M18.9,26.694A13.821,13.821,0,1,0,2.174,21.279l.011.017c0,.007.007.015.011.021l.129.188c.108.164.218.32.322.456s.2.271.3.4a13.891,13.891,0,0,0,1.089,1.229c.031.03.061.066.09.094s.07.063.1.095c.177.173.357.344.544.506.026.023.049.047.074.069.148.126.305.256.442.358l.01.008c.149.117.3.228.455.339.009.005.018.014.026.02.066.048.13.089.2.135q.409.281.837.534c.129.076.258.152.389.223.159.086.321.168.483.248.07.035.136.074.207.107.159.075.3.135.434.193.4.173.811.333,1.233.47a13.7,13.7,0,0,0,8.658-.057c.225-.075.453-.141.674-.228ZM17.675,25.68c-.159.051-.316.1-.477.147s-.339.088-.51.128-.345.082-.519.115-.324.054-.487.078c-.184.028-.368.057-.553.076-.153.016-.307.024-.46.034-.2.013-.39.028-.585.032-.143,0-.286,0-.429-.005-.206,0-.412,0-.617-.017-.124-.008-.248-.025-.373-.036-.224-.021-.448-.04-.672-.073-.079-.012-.158-.031-.236-.044a12.411,12.411,0,0,1-1.78-.43l-.131-.045c-.159-.054-.314-.114-.47-.174l-.011,0c-.149-.052-.307-.114-.475-.186-.209-.09-.413-.188-.616-.288-.136-.067-.272-.136-.406-.21s-.254-.144-.38-.218c-.172-.1-.344-.2-.516-.318-.032-.02-.066-.046-.1-.067q-.184-.123-.363-.252c-.118-.08-.233-.165-.36-.269-.17-.133-.337-.271-.5-.413s-.3-.272-.448-.416c-.084-.08-.167-.16-.249-.243s-.151-.152-.225-.234c-.234-.249-.457-.5-.677-.782l-.014-.02c-.17-.216-.33-.44-.486-.668,2.311-3.963,6.2-5.959,9.567-4.863A6.925,6.925,0,0,1,17.308,20.2a11.375,11.375,0,0,1,.708,5.362C17.9,25.6,17.79,25.643,17.675,25.68Zm-15.7-15.7A12.483,12.483,0,0,1,13.817,1.362,12.5,12.5,0,0,1,24.811,7.935a12.335,12.335,0,0,1,.878,9.742h0a12.4,12.4,0,0,1-6.272,7.285,12.526,12.526,0,0,0-.847-5.275,8.263,8.263,0,0,0-5.028-4.969c-3.8-1.23-8.092.748-10.772,4.846A12.434,12.434,0,0,1,1.976,9.985Z" transform="translate(15.817 9.657)"/><path class="e" d="M3.427,9.665A4.953,4.953,0,1,0,.543,7.2,4.968,4.968,0,0,0,3.427,9.665ZM1.54,3.846A3.59,3.59,0,1,1,6.586,8.152,3.59,3.59,0,0,1,1.54,3.846Z" transform="translate(26.226 13.811)"/><path class="e" d="M13.67.032a.682.682,0,0,0-.857.442L.032,40.455a.681.681,0,1,0,1.3.415L14.111.889A.681.681,0,0,0,13.67.032Z" transform="translate(39.403 15.744)"/><path class="e" d="M25.016,7.746.889.031a.682.682,0,1,0-.415,1.3L24.6,9.043a.681.681,0,1,0,.415-1.3Z" transform="translate(55.271 29.118)"/><path class="e" d="M25.017,7.746.889.032a.681.681,0,0,0-.416,1.3L24.6,9.043a.681.681,0,1,0,.415-1.3Z" transform="translate(53.307 35.259)"/><path class="e" d="M25.017,7.746.889.032a.681.681,0,0,0-.415,1.3L24.6,9.044a.682.682,0,0,0,.415-1.3Z" transform="translate(51.344 41.4)"/><path class="e" d="M25.017,7.746.889.033a.681.681,0,1,0-.415,1.3L24.6,9.044a.681.681,0,0,0,.415-1.3Z" transform="translate(49.38 47.542)"/><path class="e" d="M20.639,6.346.889.032a.681.681,0,1,0-.415,1.3l19.75,6.314a.681.681,0,1,0,.415-1.3Z" transform="translate(47.417 53.684)"/></g><g transform="matrix(-0.07, -0.998, 0.998, -0.07, 2.425, 162.197)"><g transform="translate(0.679 0.678)"><path class="o" d="M.009,45.27a.091.091,0,0,0,.043.121l4.979,2.37,3.789,1.8.016-.034L30.352,4.214,21.5,0l-.9,1.9-.969,2.047Z" transform="translate(0.026 7.204)"/><path class="p" d="M.6,49.53,22.112,4.214,13.257,0l-.9,1.9C11.4,3.914,13.581,5.3,15.021,6.073c4.284,2.307,3.9-.382-12.312,33.815C1.544,42.349-1.207,46.937.6,49.53Z" transform="translate(8.267 7.204)"/><g transform="translate(0 0.004)"><path class="b" d="M.016,2.87l.02,3.144.024,4.1a.519.519,0,0,0,.262.428.565.565,0,0,0,.656.008L4.171,7.984l4.68-3.771L0,0Z" transform="translate(0 52.543)"/><path class="l" d="M10.05,2.012,6.548.346c-1.4-.666-3.106-.371-3.7.877L0,7.2l7.1,3.379,1.748.833L11.7,5.437A2.724,2.724,0,0,0,10.05,2.012Z" transform="translate(21.527 0)"/></g><g class="q"><path class="b" d="M.016,2.87a1.425,1.425,0,0,0,.317.179c.593.241,1.285.094,1.888.306A2.268,2.268,0,0,1,3.453,5.961C3.085,7.793,1.192,8.994.321,10.547a.565.565,0,0,0,.656.008L4.171,7.984l4.68-3.771L0,0Z" transform="translate(0 52.547)"/><path class="b" d="M6.756,2.016,3.254.35A2.975,2.975,0,0,0,0,.623c.668,1.5,3.561,1.36,5.177,3.869C6.42,6.421,3.854,9.662,3.624,10.974l1.748.833L8.4,5.441A2.724,2.724,0,0,0,6.756,2.016Z" transform="translate(24.821 0)"/></g><path class="d" d="M0,2.769,8.851,6.986l1.315-2.769L1.315,0Z" transform="translate(20.335 6.933)"/><g transform="translate(3.623 13.502)"><path class="r" d="M18.766.735c-2.536,6.39-5.39,12.628-8.324,18.828C7.478,25.748,4.434,31.9,1.068,37.889A.57.57,0,0,1,.041,37.4C2.585,31.012,5.45,24.78,8.395,18.586,11.371,12.406,14.426,6.264,17.8.273a.536.536,0,0,1,.966.461Z"/><path class="r" d="M18.766.735c-2.536,6.389-5.39,12.627-8.323,18.828C7.479,25.748,4.434,31.9,1.069,37.889A.571.571,0,0,1,.041,37.4C2.585,31.012,5.449,24.779,8.4,18.585c2.976-6.18,6.031-12.322,9.4-18.311a.536.536,0,0,1,.966.461Z" transform="translate(3.033 1.448)"/></g></g><path class="e" d="M32.548,2.081,29.044.411a3.405,3.405,0,0,0-4.612,1.2L21.781,7.2a.118.118,0,0,0-.026.034c-.017.026-.026.051-.043.077l-.128.273-1.185,2.5L.1,52.856c-.009.017-.017.026-.017.043a.494.494,0,0,0-.043.119A.455.455,0,0,0,0,53.231L.06,63.341a1.177,1.177,0,0,0,.571,1,1.27,1.27,0,0,0,.725.222,1.163,1.163,0,0,0,.733-.256l7.868-6.334a.679.679,0,0,0,.128-.145.639.639,0,0,0,.06-.1c.008-.009.017-.009.017-.017l21.5-45.3.017-.034.119-.256,2.719-5.7A3.4,3.4,0,0,0,32.548,2.081ZM22.523,8.791l.128-.273,7.621,3.632-.128.264v.008l-.605,1.27-7.621-3.632ZM3.956,61.057,1.4,59.838h0l-.034-5.524L8.252,57.6ZM9.207,56.53,1.594,52.907,21.338,11.288l7.63,3.632ZM33.29,5.824l-2.43,5.1L23.239,7.29,25.66,2.2c.443-.921,1.807-1.031,2.8-.563l3.5,1.671A2.062,2.062,0,0,1,33.29,5.824Z" transform="translate(0)"/></g></g></g></svg>