<svg xmlns="http://www.w3.org/2000/svg" xmlns:xlink="http://www.w3.org/1999/xlink" width="50.929" height="50.929" viewBox="0 0 50.929 50.929"><defs><style>.a{fill:#3d525b;}.b{fill:#1c2c33;}.c{filter:url(#a);}</style><filter id="a" x="0" y="0" width="50.929" height="50.929" filterUnits="userSpaceOnUse"><feOffset dy="3" input="SourceAlpha"/><feGaussianBlur stdDeviation="3" result="b"/><feFlood flood-opacity="0.161"/><feComposite operator="in" in2="b"/><feComposite in="SourceGraphic"/></filter></defs><g transform="translate(9 6)"><g class="c" transform="matrix(1, 0, 0, 1, -9, -6)"><path class="a" d="M28.105,0H4.824A4.829,4.829,0,0,0,0,4.824V28.105a4.829,4.829,0,0,0,4.824,4.824H28.105a4.829,4.829,0,0,0,4.824-4.824V4.824A4.829,4.829,0,0,0,28.105,0ZM11.641,26.112H7.782V12.606h3.859Zm0-15.436H7.782V6.817h3.859ZM25.147,26.112H21.288V18.394a1.929,1.929,0,0,0-3.859,0v7.718H13.57V12.606h3.859v.727a8.365,8.365,0,0,1,2.894-.727,5.051,5.051,0,0,1,4.824,5.125Zm0,0" transform="translate(9 6)"/></g><rect class="a" width="26" height="26" transform="translate(4.962 5.101)"/><path class="b" d="M7.2,15.8a16.566,16.566,0,0,1-2.559-.2,12.008,12.008,0,0,1-3.5-1.274L0,13.7l1.238-.407c1.354-.445,2.177-.721,3.2-1.154A4.253,4.253,0,0,1,2.249,9.605L1.961,8.73l.236.036A4.3,4.3,0,0,1,1.659,8.1,4.073,4.073,0,0,1,.968,5.682l.054-.763L1.48,5.1a4.273,4.273,0,0,1-.414-1.161A4.416,4.416,0,0,1,1.536.961l.4-.731.532.64A9.8,9.8,0,0,0,8.815,4.444a3.8,3.8,0,0,1,.231-2.017A3.777,3.777,0,0,1,10.581.666,4.612,4.612,0,0,1,13.258.009a4.275,4.275,0,0,1,2.628,1.084,8.822,8.822,0,0,0,.962-.321C17.059.693,17.3.6,17.6.5l1.1-.38-.719,2.054c.047,0,.1-.007.147-.01l1.178-.053-.7.951c-.04.054-.05.07-.064.091-.056.085-.126.19-1.081,1.466a1.8,1.8,0,0,0-.336,1.172,11.085,11.085,0,0,1-.6,4.458,7.889,7.889,0,0,1-2.118,3.137A9.354,9.354,0,0,1,9.972,15.53,13.649,13.649,0,0,1,7.2,15.8Zm0,0" transform="translate(6.949 8.493)"/></g></svg>