<svg xmlns="http://www.w3.org/2000/svg" width="72.022" height="71.909" viewBox="0 0 72.022 71.909"><defs><style>.a{fill:#fff;}</style></defs><g transform="translate(-1708.658 308.888)"><path class="a" d="M1726.275-262.693c0-2.466,0-4.8,0-7.128a16.875,16.875,0,0,1,5.706-12.965,50.706,50.706,0,0,1,4.119-3.095c-5.746-7.341-5.823-14.371-.189-19.564a12.859,12.859,0,0,1,17.6.083c5.555,5.214,5.446,12.365-.356,19.566.4.244.786.48,1.171.723,5.606,3.538,8.655,8.545,8.729,15.243.026,2.332,0,4.663,0,7.137h1.7c4.313,0,8.625-.016,12.937.008,2.106.012,2.972.914,2.979,3.026.011,3.139,0,6.279,0,9.418,0,3.3-.556,3.864-3.8,3.864h-61.312c-1.312,0-2.625.013-3.937,0-2.122-.026-2.956-.871-2.962-3.009q-.014-4.99,0-9.98c0-2.541.792-3.318,3.394-3.322q6.258-.009,12.515,0Zm-12.594,11.347h61.948v-6.29h-61.948Zm44.475-11.421c0-2.4.013-4.725,0-7.052a13.091,13.091,0,0,0-11.474-12.852c-6.6-.992-13.384,2.945-14.866,9.184-.814,3.428-.608,7.1-.866,10.72Zm-13.436-24.978a8.075,8.075,0,0,0,7.993-8.107,8.08,8.08,0,0,0-8.024-8.084,8.08,8.08,0,0,0-8.06,8.186A8.066,8.066,0,0,0,1744.72-287.745Z"/><path class="a" d="M1809.53-70.076v4.756h-34.913v-4.756Z" transform="translate(-47.413 -171.663)"/><path class="a" d="M1740.8-70.125h4.994v4.743H1740.8Z" transform="translate(-23.103 -171.628)"/><path class="a" d="M1914.708-65.307v-4.757h5.023v4.757Z" transform="translate(-148.113 -171.672)"/><path class="a" d="M1818.988-194.373v-3.49h4.943v3.428h3.5v4.968h-3.417v3.5h-4.987v-3.449h-3.534v-4.962Z" transform="translate(-76.794 -79.807)"/></g></svg>