<svg xmlns="http://www.w3.org/2000/svg" width="66.697" height="71.046" viewBox="0 0 66.697 71.046"><defs><style>.a{fill:#fff;}</style></defs><g transform="translate(-1317.078 732.743)"><path class="a" d="M1339.729-689.27a19.986,19.986,0,0,1-9.721-14.425c-.562-3.675-.352-7.472-.437-11.215-.053-2.341-.011-2.339-2.263-2.987-2.71-.779-5.412-1.584-8.13-2.335-1.175-.325-2.1-.873-2.089-2.212.014-1.258.881-1.806,2.013-2.128,9.427-2.676,18.846-5.384,28.278-8.046a3.643,3.643,0,0,1,1.885,0c9.476,2.673,18.94,5.391,28.412,8.082a2.348,2.348,0,0,1,1.894,2.63q-.057,10.9.06,21.8a1.894,1.894,0,0,0,.821,1.329,6.4,6.4,0,0,1,3.308,5.72c.012,1.25.028,2.5,0,3.75a2.1,2.1,0,0,1-2.34,2.311q-3.89.044-7.78,0c-1.6-.017-2.35-.794-2.38-2.414q-.034-1.874,0-3.75a6.339,6.339,0,0,1,3.277-5.594,1.787,1.787,0,0,0,.848-1.177c.053-6.478.037-12.956.037-19.7l-8.332,2.358c0,2.863-.017,5.638,0,8.413.059,8.212-2.906,14.869-9.958,19.438-.069.045-.1.148-.149.223.306,1.677,1.256,2.319,3.008,2.516,9.542,1.073,18.1,9.718,19.308,19.341a31.2,31.2,0,0,1,.272,3.315,2.074,2.074,0,0,1-2.184,2.318c-.277.017-.556,0-.834,0h-56.4c-2.566,0-3.163-.634-3.062-3.238a23.183,23.183,0,0,1,20.06-21.833C1338.834-686.974,1338.834-686.974,1339.729-689.27Zm6.508,23.335c0-1.823.035-3.488-.022-5.151a2.851,2.851,0,0,0-.472-1.39c-2.08-3.173-4.211-6.312-6.288-9.488a1.377,1.377,0,0,0-1.577-.729c-7.713,1.17-12.888,5.441-15.578,12.72a38.394,38.394,0,0,0-1.022,4.037Zm29.01-.008c-.071-.607-.093-1.118-.194-1.613a18.981,18.981,0,0,0-16.12-15.115,1.573,1.573,0,0,0-1.809.8c-2.04,3.143-4.145,6.244-6.211,9.372a2.355,2.355,0,0,0-.476,1.112c-.05,1.792-.022,3.586-.022,5.444Zm-48.278-56.528c.4.184.524.257.654.294,6.657,1.91,13.311,3.831,19.981,5.7a3.682,3.682,0,0,0,1.872-.115c5.469-1.528,10.929-3.094,16.389-4.656,1.2-.343,2.386-.713,3.953-1.183-5.234-1.5-10.157-2.639-14.877-4.341a18.638,18.638,0,0,0-13.258.008C1336.96-725.073,1332.041-723.926,1326.968-722.471Zm7.227,18.027c.6,7.418,7.675,13.657,14.935,13.261,6.535-.356,13.435-7.233,13.252-13.238A36.2,36.2,0,0,1,1334.2-704.444Zm28.7-11.62c-3.74,1.065-7.335,1.953-10.832,3.131a11.169,11.169,0,0,1-7.533-.012c-3.491-1.188-7.089-2.065-10.783-3.115,0,1.945-.112,3.752.059,5.531a2.582,2.582,0,0,0,1.256,1.789,30.7,30.7,0,0,0,26.57-.027,2.579,2.579,0,0,0,1.206-1.813C1363.009-712.318,1362.9-714.084,1362.9-716.064Zm-14.573,39.893c1.94-2.908,3.849-5.576,5.493-8.4.321-.551-.3-1.734-.664-2.548-.1-.225-.828-.229-1.269-.234q-3.572-.035-7.145-.006c-.436,0-1.154.031-1.256.262-.359.812-1.414,1.517-.711,2.588C1344.569-681.771,1346.4-679.058,1348.325-676.17Zm31.255-15.049c-.07-1.493.473-3.082-1.182-3.814a2.507,2.507,0,0,0-2.05.153c-1.365.888-.893,2.329-.842,3.661Z" transform="translate(0)"/><path class="a" d="M1471.309-523.054c.693,0,1.39-.041,2.08.007a2.084,2.084,0,0,1,2.052,2.031,2.04,2.04,0,0,1-1.972,2.1,39.506,39.506,0,0,1-4.437-.011,1.941,1.941,0,0,1-1.905-2.008,2.035,2.035,0,0,1,1.962-2.105C1469.824-523.1,1470.569-523.053,1471.309-523.054Z" transform="translate(-108.364 -151.425)"/></g></svg>