<svg xmlns="http://www.w3.org/2000/svg" width="71.344" height="71.374" viewBox="0 0 71.344 71.374"><defs><style>.a{fill:#fff;}</style></defs><path class="a" d="M1920.111-726.023c0-3.357,0-6.506,0-9.655,0-2.228.651-2.877,2.917-2.883,4.133-.011,8.266,0,12.4,0h1.6v-12.528c-1.38,0-2.751,0-4.122,0a5.7,5.7,0,0,1-1.934-.058,3.592,3.592,0,0,1-1.979-1.385,2.572,2.572,0,0,1,.525-2.215c1.727-1.939,3.619-3.731,5.451-5.577q5.349-5.388,10.7-10.771c1.421-1.425,2.369-1.428,3.785-.005q7.911,7.949,15.8,15.914c.782.788,1.455,1.6.919,2.815s-1.583,1.288-2.69,1.283c-1.761-.007-3.522,0-5.374,0v46.113c1.889,0,3.735-.007,5.579,0,1.713.008,2.7.8,2.681,2.126-.023,1.281-.981,2.054-2.615,2.054q-33.089.007-66.178,0c-1.594,0-2.568-.835-2.551-2.117s.973-2.052,2.605-2.062c1.852-.012,3.7,0,5.747,0v-1.55q0-8.358,0-16.715c0-2.065.681-2.765,2.747-2.773C1910.73-726.034,1915.324-726.023,1920.111-726.023Zm21.19,20.933h12.538v-1.775q0-22.634,0-45.268c0-2.6.551-3.138,3.208-3.157.6,0,1.2-.058,2.083-.1L1947.8-766.435l-11.477,11.15c.586,0,1.129,0,1.672,0,2.824.008,3.308.5,3.309,3.333q0,22.565,0,45.129Zm-16.96.007h12.69v-29.167h-12.69Zm-4.348.068v-16.717h-12.305v16.717Z" transform="translate(-1895.034 772.169)"/></svg>