<svg xmlns="http://www.w3.org/2000/svg" width="77.344" height="83.972" viewBox="0 0 77.344 83.972"><defs><style>.a{fill:#01e69f;}</style></defs><g transform="translate(-1488.074 -85.995)"><path class="a" d="M1637.69,176.249c-4.071-6.191-3.869-11.566.548-15.492a10.486,10.486,0,0,1,13.933-.1q6.816,5.859.7,15.605a15.5,15.5,0,0,1,7.322,9.642,17.325,17.325,0,0,1,.5,3.555,2.378,2.378,0,0,1-2.569,2.717q-12.87.039-25.742,0c-1.678-.006-2.557-.994-2.52-2.745a15.1,15.1,0,0,1,6.484-12.277C1636.781,176.825,1637.243,176.547,1637.69,176.249Zm17.668,10.954a10.252,10.252,0,0,0-10.879-7.908c-4.526.276-8.784,3.912-9.2,7.908Zm-4.452-18.484a5.626,5.626,0,1,0-5.667,5.58A5.681,5.681,0,0,0,1650.905,168.719Z" transform="translate(-95.282 -48.424)"/><path class="a" d="M1511.137,176.248c4.677,2.968,7.483,7.1,7.776,12.732.121,2.336-.728,3.2-3.05,3.2q-12.378.013-24.758,0c-2.252,0-3.179-.979-3.013-3.269a15.329,15.329,0,0,1,6.4-11.675c.436-.325.889-.629,1.33-.948.034-.025.04-.091.058-.137-4.033-6-3.848-11.333.532-15.308a10.479,10.479,0,0,1,13.93-.278C1514.933,164.407,1515.2,169.558,1511.137,176.248Zm2.448,10.955a10.183,10.183,0,0,0-10.373-7.937c-4.77.125-9.121,3.662-9.706,7.937Zm-4.445-18.533a5.627,5.627,0,1,0-5.608,5.625A5.632,5.632,0,0,0,1509.14,168.669Z" transform="translate(0 -48.42)"/><path class="a" d="M1570.928,93.208a9.267,9.267,0,0,1,1.756-2.084,2.353,2.353,0,0,1,3.507,1.918c.216,2.008.336,4.03.395,6.049a2.4,2.4,0,0,1-2.5,2.639c-1.523.132-3.051.218-4.576.333-1.461.109-2.929.177-3.586-1.523s.4-2.637,1.8-3.491a32.3,32.3,0,0,0-14.873-5.788,33.366,33.366,0,0,0-28.1,9.247c-1.356,1.273-2.88,1.34-3.893.219-1.047-1.158-.852-2.461.576-3.858a38.762,38.762,0,0,1,47.734-4.812C1569.812,92.467,1570.443,92.889,1570.928,93.208Z" transform="translate(-21.588)"/><path class="a" d="M1525.538,301.728a9.2,9.2,0,0,1-1.414,1.957,2.348,2.348,0,0,1-3.758-1.58,57.093,57.093,0,0,1-.412-6.537,2.245,2.245,0,0,1,2.308-2.3c1.63-.166,3.271-.218,4.9-.36,1.511-.131,2.935-.026,3.492,1.673.524,1.594-.473,2.542-1.878,3.336a32.318,32.318,0,0,0,14.883,5.8,33.36,33.36,0,0,0,28.1-9.242c1.355-1.274,2.876-1.344,3.893-.226,1.05,1.155.857,2.465-.567,3.859a38.767,38.767,0,0,1-48.013,4.639C1526.53,302.392,1525.99,302.028,1525.538,301.728Z" transform="translate(-21.423 -139.015)"/></g></svg>