<svg xmlns="http://www.w3.org/2000/svg" width="62.034" height="82.773" viewBox="0 0 62.034 82.773"><defs><style>.a{fill:#fff;}</style></defs><g transform="translate(-970.986 -194.786)"><path class="a" d="M986.494,205.19c0-.842-.015-1.527,0-2.211.052-1.992.99-2.908,3.014-2.956a12.747,12.747,0,0,1,1.291,0c2.228.175,3.859-.134,5.439-2.346,3.09-4.326,9.7-3.641,12.355.988a2.308,2.308,0,0,0,2.513,1.37c1.071-.079,2.151-.027,3.228-.014,2.228.026,3.138.923,3.173,3.121.01.632,0,1.264,0,2.046,3.26,0,6.367-.006,9.474,0,4.046.01,6.03,2,6.031,6.056q.006,30.108,0,60.216c0,4.141-1.974,6.093-6.155,6.094q-24.861,0-49.722,0c-4.18,0-6.15-1.952-6.151-6.1q-.006-30.108,0-60.216c0-4.059,1.986-6.043,6.035-6.052C980.131,205.183,983.237,205.19,986.494,205.19Zm0,5.275H976.281V272.3h51.465V210.482h-10.238c0,.867.032,1.619-.006,2.368a2.518,2.518,0,0,1-2.636,2.663q-12.838.05-25.675,0a2.545,2.545,0,0,1-2.689-2.777C986.471,212,986.5,211.26,986.5,210.465Zm5.269-5.269v5.056h20.445V205.2c-1.575,0-3.024.012-4.473,0-2.034-.021-2.824-.692-3.158-2.65-.275-1.613-1.255-2.583-2.641-2.49a2.56,2.56,0,0,0-2.518,2.456c-.313,1.991-1.108,2.661-3.12,2.683C994.809,205.209,993.318,205.2,991.765,205.2Z"/><path class="a" d="M1010.706,300.276c2.634-2.64,5.091-5.1,7.552-7.564a11.141,11.141,0,0,1,1.29-1.211,2.389,2.389,0,0,1,3.358.234,2.342,2.342,0,0,1,.218,3.351,26.633,26.633,0,0,1-2.23,2.322q-3.87,3.88-7.751,7.748c-1.8,1.786-2.956,1.771-4.787-.042-1.45-1.437-2.907-2.868-4.325-4.336-1.255-1.3-1.335-2.758-.279-3.857,1.1-1.141,2.618-1.068,3.971.252C1008.712,298.138,1009.642,299.165,1010.706,300.276Z" transform="translate(-21.685 -65.08)"/><path class="a" d="M1010.635,364.64c2.9-2.908,5.511-5.6,8.232-8.182a3.656,3.656,0,0,1,2.49-1.086,2.892,2.892,0,0,1,2.061,1.639,3.356,3.356,0,0,1-.652,2.724c-2,2.244-4.2,4.3-6.329,6.428-1.177,1.178-2.339,2.372-3.538,3.527-1.485,1.431-2.753,1.456-4.21.049q-2.376-2.294-4.672-4.672c-1.252-1.295-1.321-2.76-.255-3.855s2.549-1.047,3.858.159q.77.709,1.483,1.479C1009.576,363.363,1010.012,363.91,1010.635,364.64Z" transform="translate(-21.683 -108.703)"/><path class="a" d="M1090.79,312.134c-1.663,0-3.326.031-4.988-.01a2.584,2.584,0,1,1,.046-5.151q4.907-.052,9.815,0a2.589,2.589,0,0,1,2.852,2.6c-.015,1.513-1.133,2.524-2.9,2.557C1094.009,312.159,1092.4,312.135,1090.79,312.134Z" transform="translate(-75.849 -75.928)"/><path class="a" d="M1090.772,370.975c1.609,0,3.219-.022,4.827.006,1.771.031,2.892,1.029,2.918,2.538a2.585,2.585,0,0,1-2.833,2.619q-4.907.05-9.815,0a2.586,2.586,0,0,1-2.838-2.614c.023-1.51,1.144-2.511,2.914-2.543C1087.553,370.953,1089.163,370.975,1090.772,370.975Z" transform="translate(-75.85 -119.266)"/></g></svg>