<svg xmlns="http://www.w3.org/2000/svg" width="96.55" height="96.55" viewBox="0 0 96.55 96.55"><defs><style>.a{fill:#5abad3;}.b{fill:#e2a77d;}.c{fill:#e6e7e8;}.d{fill:#d6d7d8;}.e{fill:#cccdce;}.f{fill:#6a828c;}.g{fill:#f0b784;}.h{fill:#ffc28e;}.i{fill:#393b42;}.j{fill:#fff;}.k{fill:#f0f1f2;}.l{fill:#373434;}.m{fill:#a5a7a8;}.n{fill:#6fc3df;}</style></defs><g transform="translate(-124.02 -126.78)"><path class="a" d="M220.57,175.06c0,.3,0,.61-.02.9-.01.66-.04,1.32-.08,1.98a47.466,47.466,0,0,1-1.16,8.05c-.18.8-.39,1.59-.62,2.37a48.54,48.54,0,0,1-14.88,23.25,48.552,48.552,0,0,1-6.41,4.69c-.27.16-.54.32-.81.47-1.12.66-2.27,1.27-3.44,1.83-.27.13-.54.25-.81.37a.672.672,0,0,1-.12.06c-1.23.56-2.49,1.07-3.77,1.52q-.87.315-1.77.6h-.01a47.716,47.716,0,0,1-12.89,2.15c-.49.02-.99.03-1.49.03h-.48c-.29,0-.59-.01-.88-.02-1.21-.03-2.42-.11-3.6-.23a46.886,46.886,0,0,1-7.24-1.31,47.565,47.565,0,0,1-9.25-3.47c-.5-.24-.99-.5-1.48-.78a48.27,48.27,0,1,1,71.18-44.15C220.56,173.93,220.57,174.49,220.57,175.06Z"/><path class="b" d="M183.761,173.234a1.618,1.618,0,0,1-.755-.932c-.678-1.935-.837-8.094-.308-10.115l-19.967.453c-.01,1.641.923,5.856.518,8.394-.207,1.3-.419,2.493-1.826,3.214.112.573.388,1.079.509,1.665a13.712,13.712,0,0,0,.48,1.805,8.043,8.043,0,0,0,2.012,3.156,11.057,11.057,0,0,0,7.723,2.875,12.474,12.474,0,0,0,9.525-4.255c.394-1.063.893-2.09,1.183-3.192.125-.48.079-1.042.246-1.494a4.155,4.155,0,0,1,.819-1.169.284.284,0,0,0,.085-.146C184.021,173.367,183.874,173.292,183.761,173.234Z"/><path class="c" d="M173.78,179.44V223.3c-.49.02-.99.03-1.49.03h-.48c-.29,0-.59-.01-.88-.02-1.21-.03-2.42-.11-3.6-.23a46.886,46.886,0,0,1-7.24-1.31,47.565,47.565,0,0,1-9.25-3.47c-.5-.24-.99-.5-1.48-.78a47.97,47.97,0,0,1-13.2-10.47c1.88-10.87,3.91-22.41,4.18-22.93a11.052,11.052,0,0,1,1.62-1.94c1.59-1.99,9.65-4.74,14.89-6.57.23-.08.46-.16.67-.24.51-.18.99-.35,1.42-.51.29-.1.55-.2.8-.29.37-.13.69-.26.95-.37a.938.938,0,0,1,.73.04h.01a2.808,2.808,0,0,1,.55.31c1.04.72,2.22,2.19,3.04,2.68,2.11,1.26,3.89,2.27,6.43,2.27.43,0,.86,0,1.29-.02h.21a.709.709,0,0,0,.14-.01,1.211,1.211,0,0,0,.19-.01C173.45,179.46,173.61,179.45,173.78,179.44Z"/><path class="d" d="M211.36,203.38a47.93,47.93,0,0,1-7.55,8.23,48.552,48.552,0,0,1-6.41,4.69c-.27.16-.54.32-.81.47-1.12.66-2.27,1.27-3.44,1.83-.27.13-.54.25-.81.37v.06h-.12c-1.23.56-2.49,1.07-3.77,1.52q-.87.315-1.77.6h-.01a47.716,47.716,0,0,1-12.89,2.15V179.44c.11-.01.21-.01.32-.02.07-.01.13-.01.2-.02.17-.01.35-.03.52-.05s.34-.04.51-.07.34-.05.51-.08.34-.06.51-.1c.15-.03.3-.06.44-.1a9.93,9.93,0,0,0,1.06-.32,7.909,7.909,0,0,0,3.23-2.19,10.2,10.2,0,0,0,2.28-3.48.815.815,0,0,1,.1.01h.01c.02.01.05.01.08.02h.01a3.3,3.3,0,0,1,.38.08c.24.05.56.12.93.21.15.03.3.07.46.11.09.02.19.05.3.07a2.8,2.8,0,0,0,.31.08l.12.03q.315.09.69.18c.14.04.28.07.43.11.37.1.76.21,1.17.32,4.26,1.23,10.94,3.57,13.99,4.88a5.307,5.307,0,0,1,2.49,2.19C207.7,186.28,209.85,194.99,211.36,203.38Z"/><path class="e" d="M186.753,173.8c-2.017-.514-3.386-.823-3.4-.792a10.186,10.186,0,0,1-2.274,3.478,7.837,7.837,0,0,1-3.231,2.192,14.815,14.815,0,0,1-4.076.762c-.345.022-.689.035-1.032.044v18.946c.344.366.671.725,1.032,1.1C181,190.593,185.683,186.22,186.753,173.8Z"/><path class="d" d="M171.451,179.5c-2.542,0-4.322-1.008-6.432-2.274-1.193-.721-3.169-3.519-4.332-3.025-.257.113-.576.236-.947.37.18,4.307,2.318,12.506,13,23.858V179.483Q172.1,179.5,171.451,179.5Z"/><path class="f" d="M171.477,185.494a2.163,2.163,0,0,1,.2,1.483L169.208,198.2a17.467,17.467,0,0,0,3.305,1.254c2.678.657,4.249-.528,5.086-2.7l-2.154-9.778a2.163,2.163,0,0,1,.2-1.483L176.973,183a.4.4,0,0,0-.09-.436l-1.531-1.521a4.09,4.09,0,0,1-.966-1.119c-.144-.323-.54-1.048-1-.74-.4.269-.536.692-.8,1.049a9,9,0,0,1-.979.973l-1.367,1.358a.4.4,0,0,0-.09.436Z"/><path class="g" d="M161.833,164.176a3.181,3.181,0,0,0,.945,1.908l4.53,4.34c-1.015-4.8-3.521-8.723-6.295-12.857Z"/><path class="h" d="M183.769,159.553l.783-6.668c-.009-2.663.075-5.341-.03-8a3.58,3.58,0,0,0-1.916-3.337c-1.692-1.061-2.987-.518-4.487.033a12.536,12.536,0,0,1-1.572.489c-1.6.36-3.371.681-4.9-.058-2.52-1.213-4.957-3.188-7.97-3.014a3.725,3.725,0,0,0-1.544.392,4.117,4.117,0,0,0-1.823,2.646c-.72,2.59.364,4.768.091,7.437.02,1.2.04,2.4.06,3.6l.557,4.493c2.774,4.134,5.28,8.054,6.295,12.857l1.083,1.038a2.657,2.657,0,0,0,1.859.75l2.314-.019,2.321-.018a2.659,2.659,0,0,0,1.842-.772l1.609-1.577C178.408,165.469,179.868,161.121,183.769,159.553Z"/><path class="g" d="M183.769,159.553c-3.9,1.568-5.361,5.916-5.433,10.273l4.26-4.173a2.077,2.077,0,0,0,.6-1.243Z"/><path class="h" d="M161.926,153.008c-.173-1.186-.3-2.13-.382-2.393s-.2-.548-.466-.606c-.144-.032-.307.148-.433.07-.97-.6-1.573.089-1.878,1.05a3.353,3.353,0,0,0,.246,2.861c.577,1.162.942,2.443,1.426,3.651.125.311.654,2.079,1.091,2.076l2.114-.017C162.941,159.706,162.322,155.723,161.926,153.008Z"/><path class="h" d="M183.076,152.843a8.656,8.656,0,0,1,.735-2.617c.209-.446.67-.967,1.12-.737a3.327,3.327,0,0,1,1.3,1.708c.395.973.009,1.481-.369,2.412-.246.6-1.963,5.932-2.342,5.935l-2.114.016a35.958,35.958,0,0,0,1.374-4.45C182.918,154.295,182.976,153.564,183.076,152.843Z"/><path class="i" d="M161.46,155.208c-.208-2.034-.353-4.085-.718-6.095-.485-2.672.915-5.444,2.4-7.736a1.928,1.928,0,0,1,.971-.9,2.176,2.176,0,0,1,1.717.515,38.623,38.623,0,0,0,5.608,2.554,32.717,32.717,0,0,0,5.991-.309c1.336-.306,3.144-1.328,4.5-.5,1.105.673,1.4,2.768,1.857,3.993l.077,10.117,1.251-4.044c1-3.555,1.249-11.76,1.249-11.76s-5.388-5.8-8.546-5.174c1.119-.223,3.167.1,4.286-.121-4.26-1.385-7.765-2.7-11.276-2.085A21.233,21.233,0,0,0,161.3,138.1a25.564,25.564,0,0,0-3.067,3.439S158.266,150.343,161.46,155.208Z"/><rect class="c" width="12.234" height="4.979" transform="translate(180.108 203.808)"/><rect class="c" width="12.23" height="9.18" transform="translate(180.11 209.85)"/><path class="j" d="M187.913,205.842a1.688,1.688,0,1,1-1.688-1.688A1.688,1.688,0,0,1,187.913,205.842Z"/><path class="j" d="M175.347,210.494a1.688,1.688,0,1,1-1.688-1.688A1.688,1.688,0,0,1,175.347,210.494Z"/><path class="j" d="M161.6,175.729c.309-.875.546-1.679.731-2.377-1.573.725-3.163,1.41-4.794,1.991a18.336,18.336,0,0,0-3.068,6.96c-.334,6.685.227,6.988.227,6.988l9.088-1.528c.49,0-3.855,6.239-3.855,6.239,2.371,1.258,12.791,7.39,14.256,8.678V198.2C173.038,196.991,159.465,182.453,161.6,175.729Z"/><path class="k" d="M182.435,188.32c-.049-.054-.062-.081-.053-.081a2.145,2.145,0,0,1,.339.263c1.288.526,5.771.214,8.405-.294-.05-7.526-1.1-11.783-2.938-14.2-1.315-.228-4.632-1.177-4.762-1.193.328.637.822,1.218,1.332,2.108a.733.733,0,0,0,0,.1,28.949,28.949,0,0,1-3.151,12.814c-.12.236-.241.468-.366.7l-6.966,9.76v4.4c3.532-4.869,11.04-8.572,13.068-10.029,0,0-3.5-3.213-4.617-4.163A.713.713,0,0,1,182.435,188.32Z"/><path class="l" d="M185.7,151.87a2.346,2.346,0,0,0-.34-.13,6.8,6.8,0,0,0-.81-.23c-.22-.06-.46-.12-.73-.17-.13-.03-.27-.05-.42-.08a18.034,18.034,0,0,0-9.13.94c-.6.08-1.16.11-1.47.12h-.03a14.189,14.189,0,0,1-1.44-.12,19.5,19.5,0,0,0-9.64-.79q-.33.06-.6.12c-.26.06-.47.11-.65.16a4.547,4.547,0,0,0-.54.18l-.01.01a1.056,1.056,0,0,0,.01,1.04c.01.02.27.08.31.1s.08.04.13.06a.827.827,0,0,1,.13.07,1.256,1.256,0,0,1,.52.43,4.364,4.364,0,0,1,.13.97c.01.05.01.09.02.14a8.984,8.984,0,0,0,.34,1.45,3.4,3.4,0,0,0,1.32,1.81h.01c1.39.82,4.22.65,5.67.29,1.59-.49,3-3.36,3.15-4.27.11-.56.76-.68,1.14-.71h.03c.38.02,1.06.14,1.17.71.15.91,1.56,3.78,3.16,4.27a11.272,11.272,0,0,0,4.69.09,3.777,3.777,0,0,0,.98-.38,3.071,3.071,0,0,0,1.06-1.2,1.417,1.417,0,0,0,.08-.18c0-.01.01-.02.01-.03a3.419,3.419,0,0,0,.17-.4,2.584,2.584,0,0,0,.08-.26,5.025,5.025,0,0,0,.16-.67.037.037,0,0,0,.01-.03c.04-.21.08-.42.11-.63a4.365,4.365,0,0,1,.13-.97.989.989,0,0,1,.36-.34,2.86,2.86,0,0,1,.42-.22c.04-.02.3-.08.31-.1S186.05,152.3,185.7,151.87Zm-19.78,5.77a4.349,4.349,0,0,1-2.74-.99,2.723,2.723,0,0,1-.51-1.02,3.832,3.832,0,0,1-.09-2.28,1.325,1.325,0,0,1,.39-.57,4.426,4.426,0,0,1,2.89-.65c2.12.06,4.16.31,4.33,1.81C170.14,154.83,169.34,158.02,165.92,157.64Zm17.01-2.01a2.722,2.722,0,0,1-.51,1.02c-.01.01-.02.03-.04.04a4.447,4.447,0,0,1-2.7.95c-3.42.38-4.22-2.81-4.27-3.7.17-1.5,2.21-1.75,4.33-1.81a4.426,4.426,0,0,1,2.89.65,1.264,1.264,0,0,1,.39.55v.02A3.832,3.832,0,0,1,182.93,155.63Z"/><path class="m" d="M172.324,213.839l.821-.73c-2.607-2.749-2.6-6.909.037-12.363a48.687,48.687,0,0,1,5.733-8.8,9.221,9.221,0,0,1-.958-.6C173.1,197.415,166.564,207.764,172.324,213.839Z"/><path class="i" d="M193.174,191.834a5.381,5.381,0,0,0-3.288-3.561s-2.044-.744-2.055-.751c.067-.561.116-1.633.141-3.786.024-1.995.011-4.045-.005-4.314a24.714,24.714,0,0,0-.875-5.855,1.167,1.167,0,0,0-1.273-.372,24.589,24.589,0,0,1,1.025,6.269c.034.56.035,6.2-.112,7.771l-2.106-.209a5.294,5.294,0,0,0-4.5,1.731c-.64.723-1.382,1.6-2.169,2.583a9.62,9.62,0,0,0,.957.605c.784-.979,1.5-1.819,2.074-2.469a4.166,4.166,0,0,1,3.547-1.363c.862.084,1.437.142,1.818.18a5.552,5.552,0,0,1,1.384.324c.359.139.91.347,1.758.671a4.236,4.236,0,0,1,2.591,2.808c.2.708.426,1.583.659,2.577.369-.037.74-.1,1.109-.168C193.621,193.515,193.389,192.613,193.174,191.834Z"/><path class="m" d="M193.855,194.506c-.371.068-.741.131-1.111.167A50.229,50.229,0,0,1,194.2,205.7c-.009,6.072-1.805,9.811-5.341,11.114l.42,1.022C197.3,214.878,195.629,202.068,193.855,194.506Z"/><path class="i" d="M157,175.315a27.227,27.227,0,0,0-2.244,6.282,59.837,59.837,0,0,0-1.249,11.485l1.49.046c.215-6.432.743-13.1,4.136-18.614,0-.046,0-.091.007-.137a2.692,2.692,0,0,0-2.14.938Z"/><path class="i" d="M158.347,196.855a4.4,4.4,0,0,1-4,4.807,4.48,4.48,0,0,1-4.987-3.847,4.4,4.4,0,0,1,4-4.806A4.479,4.479,0,0,1,158.347,196.855Z"/><path class="m" d="M157.4,196.957a3.465,3.465,0,0,1-3.149,3.788,3.53,3.53,0,0,1-3.931-3.032,3.466,3.466,0,0,1,3.15-3.788A3.53,3.53,0,0,1,157.4,196.957Z"/><path class="j" d="M163.249,171.034l9.7,8.449-5.684,6.8-5.843-12.037Z"/><path class="c" d="M182.753,171.034l-9.494,8.449,5.478,6.8,5.843-12.037Z"/><path class="n" d="M162.13,208.993a4.727,4.727,0,0,0-1.54.235,4.852,4.852,0,0,0-1.652.883,4.67,4.67,0,0,0-1.89,4.452,1.446,1.446,0,0,0,.291.734,1.178,1.178,0,0,0,1.023.329c.9-.105,1.572-.853,2.359-1.305a4.17,4.17,0,0,1,1.729-.5c1.366-.058,4.811.577,4.05-1.973C166.062,210.377,163.571,209.031,162.13,208.993Z"/><path class="n" d="M156.771,211.513c1.605-.545-.121-2.87-1.034-3.437-.977-.605-2.012-.4-2.062.9,0,.106,0,.21,0,.309A2.518,2.518,0,0,0,156.771,211.513Z"/><path class="n" d="M157.022,207.961a3.228,3.228,0,0,0,2.2.966.9.9,0,0,0,.45-.158.971.971,0,0,0,.27-.362,2.71,2.71,0,0,0-.05-2.217c-.443-1.011-1.706-2.744-3-2.19a1.66,1.66,0,0,0-.874.983,2.531,2.531,0,0,0,.2,2.2A3.84,3.84,0,0,0,157.022,207.961Z"/><path class="n" d="M167.49,205.224c-1.6-.43-3.07,1.549-2.907,3a1.326,1.326,0,0,0,.364.841c.774.715,2.259.045,2.83-.609a2.893,2.893,0,0,0,.6-2.263A1.2,1.2,0,0,0,167.49,205.224Z"/><path class="n" d="M162.23,207.984a.9.9,0,0,0,.469-.091,3.224,3.224,0,0,0,1.409-1.944,3.844,3.844,0,0,0,.3-1.076,2.531,2.531,0,0,0-.942-2,1.67,1.67,0,0,0-1.252-.408c-1.392.174-1.606,2.308-1.477,3.4a2.709,2.709,0,0,0,1.077,1.939A.965.965,0,0,0,162.23,207.984Z"/></g></svg>