<svg xmlns="http://www.w3.org/2000/svg" width="96.55" height="96.55" viewBox="0 0 96.55 96.55"><defs><style>.a{fill:#01e69f;}.b{fill:#eab081;}.c{fill:#4db2e7;}.d{fill:#d6d7d8;}.e{fill:#ccd0d4;}.f{fill:#e0dfde;}.g{fill:#efeeed;}.h{fill:#a74214;}.i{fill:#373434;}.j{fill:#3a3838;}.k{fill:#494b46;}.l{fill:#a5aaa5;}.m{fill:#d9dde1;}.n{fill:#f0b784;}.o{fill:#ffc28e;}.p{fill:#cddff2;}.q{fill:#7492a5;}.r{fill:#c5ced8;}.s{fill:#d0dae8;}.t{fill:#fff;opacity:0.25;}.u{fill:#b2b1af;}.v{fill:#ffbfe6;}.w{fill:#e9ebed;}.x{fill:#414244;}.y{fill:#393b42;}</style></defs><g transform="translate(-230.85 -230.59)"><path class="a" d="M327.4,278.87c0,.89-.02,1.78-.07,2.67-.03.49-.061.97-.11,1.46a47.487,47.487,0,0,1-2.58,11.95,48.111,48.111,0,0,1-8.56,14.98c-.12.15-.25.29-.39.44a48.153,48.153,0,0,1-12.47,10.34c-.52.3-1.04.58-1.56.86q-2.04,1.08-4.2,1.97a47.8,47.8,0,0,1-14.47,3.45,1.224,1.224,0,0,0-.19.02c-1.21.08-2.43.13-3.67.13h-.44c-.13,0-.27,0-.4-.01-.44,0-.87-.01-1.3-.03-.95-.04-1.9-.11-2.83-.2-.44-.04-.88-.1-1.32-.16l-.44-.06c-.53-.07-1.05-.16-1.58-.25a46.1,46.1,0,0,1-4.82-1.1,5.53,5.53,0,0,1-.58-.17,48.017,48.017,0,0,1-22.3-14.14,48.274,48.274,0,1,1,84.25-33.8Q327.4,278.045,327.4,278.87Z"/><path class="b" d="M273.386,286.395s4.178-3.955,2.289-13.23c-.792-3.885,15.71,1.446,15.71,1.446-.988,2.318-1.75,5.315-.674,8.161.893,2.362,2.444,3.013,2.139,4.356-.521,2.281-8.865,4.241-10.46,4.084-1.615-.159-6.607-1.461-7.265-2.43A22.051,22.051,0,0,0,273.386,286.395Z"/><path class="c" d="M272.179,286.395a27.5,27.5,0,0,0,11.288,3.353A18.5,18.5,0,0,0,295,286.729s1.106,3.243-4.478,10.034l-7.264,17.109a1.2,1.2,0,0,1-.223.337,1.14,1.14,0,0,1-.224-.337l-7.264-17.109C271.515,289.531,272.179,286.395,272.179,286.395Z"/><path class="d" d="M315.69,310.37a48.153,48.153,0,0,1-12.47,10.34c-.52.3-1.04.58-1.56.86q-2.04,1.08-4.2,1.97a47.8,47.8,0,0,1-14.47,3.45,1.224,1.224,0,0,0-.19.02V311.29a1.964,1.964,0,0,1,.1.32.142.142,0,0,1,.02.06,1.723,1.723,0,0,0,.07.21c.01.05.029.09.04.14.67-2.14,1.32-4.29,1.989-6.44q2.011-6.555,4.031-13.13l.02-.04c.31-1.02.63-2.04.94-3.06.009-.03.02-.06.03-.09v-.02a2.169,2.169,0,0,0,.07-.24c.48-1.54.95-3.09,1.42-4.63.08-.23.15-.47.22-.7a.762.762,0,0,0,.06.57,1.147,1.147,0,0,0,.22.3,6.035,6.035,0,0,0,2.05,1.3c.36.16.73.31,1.13.46.47.17.95.34,1.45.5.62.2,1.25.39,1.85.56,1.95.55,3.63.92,3.91,1.01,4.94,1.51,7.91,2.84,9.26,7.87C312.269,298.45,313.94,304.31,315.69,310.37Z"/><path class="e" d="M283.03,311.29v.73l-.011,2.18-.009,6.53-.02,6.26a1.224,1.224,0,0,0-.19.02c-1.21.08-2.43.13-3.67.13h-.44c-.13,0-.27,0-.4-.01-.44,0-.87-.01-1.3-.03-.95-.04-1.9-.11-2.83-.2-.44-.04-.88-.1-1.32-.16l-.44-.06c-.53-.07-1.05-.16-1.58-.25a46.1,46.1,0,0,1-4.82-1.1,5.53,5.53,0,0,1-.58-.17c.06-4.98-.21-10.3-1.3-12.09-.11.14-.22.29-.351.45.1-7.75,1-15.6.111-23.13-.09-.74-.19-1.48-.31-2.21a27.64,27.64,0,0,0,5.59-1.19c.06-.03.19-.09.359-.19h.011c.53-.3,1.5-.9,2.4-1.48a11.826,11.826,0,0,0,2.14-1.6.169.169,0,0,0,.02-.05c.05.17.1.33.15.5.07.22.14.45.21.67l.02.06v.01c.31,1,.61,1.99.92,2.99.14.47.29.93.43,1.4q2.5,8.145,5,16.28c.66,2.15,1.33,4.31,1.98,6.45l.06-.15c.01-.05.03-.09.04-.14.01-.02.01-.05.02-.07.02-.08.05-.15.06-.22v-.01A.977.977,0,0,0,283.03,311.29Z"/><path class="f" d="M283.034,311.6l3.731-12.313,5.259-15.672,2.471,1.988c1.285.689,3.906,6.36,4.355,7.751l-6.369,2.488s3.59,3.936,3.593,3.942c.269.482-11.9,17.158-13.04,20.994-.037-.092-.085-.2-.131-.3v-9.3Z"/><path class="g" d="M273.808,296.456l-6.047-3.1c.448-1.391,2.525-7.062,3.811-7.751l2.471-1.988L279.3,299.29l3.6,11.884v9.3c-2.084-4.707-13.175-20.221-12.911-20.692C270,299.781,273.808,296.456,273.808,296.456Z"/><path class="d" d="M266,325.33a5.53,5.53,0,0,1-.58-.17,47.376,47.376,0,0,1-11.34-5.01c-.22-6.88.03-13.81.59-15.64.3-.99.58-2.27.88-3.69.95-4.47,2.16-10.19,5.26-11.72a10.767,10.767,0,0,1,2.76-.92c.12.73.22,1.47.31,2.21a68.741,68.741,0,0,1,.52,10.54c-.07,3.16.51,6.27.64,9.42.12,2.87.74,5.62.93,8.43C266.06,320.07,266.09,322.6,266,325.33Z"/><path class="h" d="M296.588,261.288a.4.4,0,0,0-.018-.2C296.546,261.272,296.534,261.422,296.588,261.288Z"/><path class="i" d="M296.507,314.324l-1.228-.468c.07-.178,6.728-17.8,1.765-26.463a9.121,9.121,0,0,0-6.8-4.517l-.053-.014c-.012,0-.113-.026-.3-.065-.044-.45-.079-.908-.1-1.363.371.079.607.131.69.153a10.391,10.391,0,0,1,7.7,5.155C303.452,295.938,296.79,313.577,296.507,314.324Z"/><path class="j" d="M269.49,309.86l-1.67-3.67c-.15-.37-1.77-4.83.4-12.59a39.663,39.663,0,0,1,1.46-4.23,10.313,10.313,0,0,1,4.55-5.19.01.01,0,0,1,.01-.01c.16-.1.33-.19.5-.28a4.144,4.144,0,0,0,.73-1.72,9.694,9.694,0,0,0-5.94,4.63h-.011a13.053,13.053,0,0,0-1.049,2.07c-4.58,11.24-1.97,17.57-1.84,17.87a14.793,14.793,0,0,1,.82,3.9c-.01.25-.01.58-.01.99,0,3.16.32,10.6,3.38,14.8.53.09,1.05.18,1.58.25l.44.06c-4.3-3.88-4.04-12.06-4-13.67l.12-1.95a39.554,39.554,0,0,1,5.62,4.62c2.04,2.25,4.1,5.4,3.14,8.58-.27.91-.46,1.86-.73,2.78.43.02.86.03,1.3.03.27-.87.479-1.73.69-2.43C281.09,317.71,270.85,310.76,269.49,309.86Z"/><path class="k" d="M300.294,316.8a5.069,5.069,0,0,1-4.107,4.98,4.7,4.7,0,0,1-.969.1,5.076,5.076,0,0,1,0-10.152,4.768,4.768,0,0,1,.969.1A5.071,5.071,0,0,1,300.294,316.8Z"/><path class="l" d="M300.294,316.8a4.185,4.185,0,1,1-4.107-4.981A5.069,5.069,0,0,1,300.294,316.8Z"/><path class="m" d="M298.621,316.306a2.292,2.292,0,1,1-2.239-2.785A2.557,2.557,0,0,1,298.621,316.306Z"/><path class="n" d="M255.044,277.742c-.12.332-1.069.81-1.328,1a3.585,3.585,0,0,0-.857.95c-.455.688-.695,1.483-1.156,2.152a6.074,6.074,0,0,0-.488.841,5.817,5.817,0,0,0-.59,2.413c-.009.465.672,3.785.681,3.782A39.788,39.788,0,0,1,244.4,291.3c-.039-.112-.016.073-.039-.041q-.293-1.441-.584-2.883c0-.017-.005-.033-.009-.049a5.152,5.152,0,0,0-.3-1.466,25.959,25.959,0,0,0-1.418-2.679c-.819-1.331-3.185-7-2.934-8.4a1.813,1.813,0,0,1,.156-.5c.244-.474.691-.546,1.331-.37,1.277.351,1.234-.8,1.466-1.826a.885.885,0,0,1,.219-.483,1.259,1.259,0,0,1,.543-.2c.755-.2,1.239-.916,1.9-1.333a12.309,12.309,0,0,1,1.223-.459,13.044,13.044,0,0,0,1.277-.951,1.9,1.9,0,0,1,.814-.369,1.162,1.162,0,0,1,.921.323,1.529,1.529,0,0,1,.439.886,11.765,11.765,0,0,0,.3,1.954c.2.64-.118,1.185.01,1.845.034.174.067.342.1.5.123.625.234,1.162.375,1.727s.313,1.16.558,1.9c.084-.193.148-.406.307-.484a6.311,6.311,0,0,1,2.2-.751C253.791,277.117,255.317,276.976,255.044,277.742Z"/><path class="o" d="M241.652,277.043c-.55-.251-1.1-.5-1.662-.744a3.116,3.116,0,0,1-.763-.41,1.155,1.155,0,0,1-.2-1.374c.707-.9,1.3-.308,1.9-.07a7.987,7.987,0,0,1,1.7.985c.6.426,1.316.651,1.928,1.064a.945.945,0,0,1,.429.766c0,.312-.156.652-.808.731a1,1,0,0,1-.485-.063C243,277.653,242.326,277.35,241.652,277.043Z"/><path class="o" d="M241.811,272.749c.265.546.988.9,1.418,1.277,1.029.9,2.21,2.391,3.64,2.719.894.456,1.695-.48,1.349-1.046-.758-1.009-4.1-4.232-4.118-4.247a1.806,1.806,0,0,0-1.265-.75,1.361,1.361,0,0,0-1.148,1.68A1.541,1.541,0,0,0,241.811,272.749Z"/><path class="o" d="M246.9,273.254a8.779,8.779,0,0,0,1.838,1.43c.829.4,1.754.062,1.567-.918a6.991,6.991,0,0,0-2.086-2.709,10.474,10.474,0,0,0-2.837-1.912,1.307,1.307,0,0,0-1.035.022c-1.236.663-.162,2.142.634,2.744.433.327.918.579,1.365.9C246.538,272.944,246.721,273.1,246.9,273.254Z"/><path class="o" d="M252.967,270.433a10.107,10.107,0,0,1-2.4-.08,8.987,8.987,0,0,1-3.032-.191c-1.564-.434.6-1.609,1.469-1.791a5.874,5.874,0,0,1,1.848,0,5.788,5.788,0,0,1,2.177.558,1.491,1.491,0,0,1,.654.624C253.9,270.021,253.531,270.282,252.967,270.433Z"/><path class="b" d="M250.745,278.432a1.731,1.731,0,0,1,.307-.484c-.906,1.452-1.961,3.355-1.591,2.452.427-1.038.822-1.9,1.064-2.658Z"/><path class="p" d="M250.544,262.926l-3.5,1.161-.151-.457,1.076-1.2.844-.28,1.577.315Z"/><rect class="q" width="3.685" height="0.698" transform="translate(246.895 263.63) rotate(-18.367)"/><rect class="r" width="3.685" height="11.042" transform="matrix(0.949, -0.315, 0.315, 0.949, 247.115, 264.293)"/><rect class="r" width="4.263" height="0.506" transform="translate(251.107 277.227) rotate(-18.331)"/><rect class="s" width="3.035" height="13.535" transform="matrix(0.949, -0.315, 0.315, 0.949, 247.424, 264.19)"/><rect class="t" width="0.385" height="13.534" transform="matrix(0.949, -0.315, 0.315, 0.949, 248.682, 263.773)"/><path class="u" d="M248.448,262.276l-.18.06-2.1-6.571.038-.013Z"/><rect class="v" width="0.422" height="1.421" transform="translate(247.728 261.019) rotate(-18.388)"/><rect class="r" width="5.707" height="0.699" transform="translate(249.636 275.093) rotate(-18.409)"/><rect class="q" width="0.926" height="0.698" transform="matrix(0.949, -0.316, 0.316, 0.949, 247.716, 261.785)"/><path class="q" d="M247.683,264.853l.079.239,2.537-.843-.08-.239Z"/><rect class="q" width="1.337" height="0.253" transform="translate(247.927 265.59) rotate(-18.413)"/><path class="q" d="M248.206,266.43l.08.24,1.269-.421-.08-.24Z"/><path class="q" d="M248.479,267.253l.08.239,2.536-.842-.079-.24Z"/><rect class="q" width="1.337" height="0.253" transform="matrix(0.949, -0.316, 0.316, 0.949, 248.724, 267.991)"/><rect class="q" width="1.337" height="0.253" transform="translate(249.003 268.831) rotate(-18.443)"/><rect class="q" width="2.673" height="0.252" transform="translate(249.289 269.69) rotate(-18.226)"/><path class="q" d="M249.534,270.43l.08.24,1.269-.421-.08-.24Z"/><path class="q" d="M249.813,271.27l.08.24,1.267-.421-.079-.24Z"/><path class="q" d="M250.107,272.155l.08.24,2.537-.843-.08-.24Z"/><path class="q" d="M250.352,272.893l.079.24,1.269-.421-.079-.24Z"/><rect class="q" width="1.337" height="0.253" transform="translate(250.631 273.733) rotate(-18.413)"/><path class="w" d="M260.62,323.47a48.171,48.171,0,0,1-17.5-12.45c-.73-5.88-.81-11.92-1.24-17.17-.06-.68-.111-1.35-.17-2.03l2.59-.87,6.95-2.33,1.31-.44,2.99,12.64,3.63,15.38C259.64,318.63,260.2,321.04,260.62,323.47Z"/><path class="s" d="M244.984,258.091c0,.671.245.92.547.92s.548-.249.548-.92a1.953,1.953,0,0,0-.548-1.214A1.955,1.955,0,0,0,244.984,258.091Z"/><path class="s" d="M243.356,261.065c-.212.543-.091.824.154.919s.523-.028.736-.573a.637.637,0,1,0-.89-.346Z"/><path class="n" d="M293.514,262.647a9.943,9.943,0,0,0-2.249-4.152,11.779,11.779,0,0,0-5.8-3.59,20.528,20.528,0,0,1-2.713-.737c-.055-.023-.1-.049-.156-.076v27.332h.1a5.15,5.15,0,0,0,2.036-.271,14.99,14.99,0,0,0,4.532-2.97c.134-.11.268-.22.4-.328,1.995-1.6,2.8-3.928,3.548-6.117A17.366,17.366,0,0,0,293.514,262.647Z" transform="translate(-0.101)"/><path class="o" d="M281.286,252.77c-.338-.33-.735-.707-1.186-1.219a3.561,3.561,0,0,0-.849-.763,2.776,2.776,0,0,0-2.174-.115,6.225,6.225,0,0,0-3.808,3.844,13.753,13.753,0,0,0-.571,4.755,22.2,22.2,0,0,1-.86,3.914,17.755,17.755,0,0,0,.423,8.551c.744,2.189,1.54,4.521,3.518,6.117.216.175.432.355.649.535a13.805,13.805,0,0,0,4.241,2.763,4.991,4.991,0,0,0,1.922.272c.032,0,0-4.118,0-4.353V255.665A3.345,3.345,0,0,0,281.286,252.77Z"/><path class="o" d="M272.179,271.349a2.582,2.582,0,0,1-1.246-.562,2.816,2.816,0,0,1-.739-1.685,7.839,7.839,0,0,0-.371-1.833c-.162-.382-.41-.721-.557-1.106a1.245,1.245,0,0,1,.064-1.188,1.36,1.36,0,0,1,1.131-.418,1.665,1.665,0,0,1,1.145.428c-.021.288-.032.58-.036.871a21.661,21.661,0,0,0,.256,3.516C271.92,270.042,272.042,270.7,272.179,271.349Z"/><path class="o" d="M295.88,266.163c-.148.385-.4.724-.558,1.106a7.787,7.787,0,0,0-.371,1.833,2.791,2.791,0,0,1-.738,1.685,2.284,2.284,0,0,1-.955.493,14.3,14.3,0,0,0,.436-2.034,18.84,18.84,0,0,0,.155-3.541c-.015-.306-.04-.608-.069-.9a1.731,1.731,0,0,1,.9-.245,1.359,1.359,0,0,1,1.13.418A1.24,1.24,0,0,1,295.88,266.163Z"/><path class="x" d="M280.081,245.26a24.884,24.884,0,0,0-3.089.978,15.712,15.712,0,0,0-4.054,1.969,13.617,13.617,0,0,0-5.031,9.262,23.872,23.872,0,0,0-.13,3.811,17.221,17.221,0,0,0,.938,5.576,14.055,14.055,0,0,0,1.12,2.656,11.485,11.485,0,0,0,.816,1.161.447.447,0,0,1,.116-.062,3.114,3.114,0,0,1-.573-1.509,7.849,7.849,0,0,0-.371-1.833c-.162-.382-.41-.721-.557-1.106a1.245,1.245,0,0,1,.064-1.188,1.36,1.36,0,0,1,1.131-.418,1.562,1.562,0,0,1,1.5,1.224,5.536,5.536,0,0,1,.079-1.339,8.548,8.548,0,0,1,.139-1.563,18.054,18.054,0,0,1,2.134-4.706,25.6,25.6,0,0,0,2.363-6.11,12.344,12.344,0,0,0,5.813,4.125L282.578,245A12.788,12.788,0,0,0,280.081,245.26Z"/><path class="y" d="M297.652,259.9a32.893,32.893,0,0,0-1.27-6.187c-1.625-5.406-8.267-8.831-13.892-8.731v11.208a12.031,12.031,0,0,0,1.493.4c.978.193,1.978.266,2.95.486a7.436,7.436,0,0,1,5.162,3.76c0-.281-.339-1.651.006-1.135.525,1.4,1.388,4,1.175,5.5a4.182,4.182,0,0,0,.451-.855c.02.156.039.312.054.47V264.8a1.731,1.731,0,0,1,.9-.245,1.359,1.359,0,0,1,1.13.418,1.24,1.24,0,0,1,.065,1.188c-.148.385-.4.724-.558,1.106a7.8,7.8,0,0,0-.371,1.833,2.8,2.8,0,0,1-.739,1.686c-.2.185-.764.3-.954.492-.33.339-.246.789-.295,1.306a13.111,13.111,0,0,0,4.654-8.518A18.239,18.239,0,0,0,297.652,259.9Z"/><path class="y" d="M294.357,274.046a12.412,12.412,0,0,1,.62,2.292,9.839,9.839,0,0,1-1.737,6.254c-.987,1.63-2.214,3.232-2.4,5.13-.211,2.144.959,4.206.988,6.361a6.235,6.235,0,0,1-4.252,5.868,14.036,14.036,0,0,0,1.843-2.814,4.733,4.733,0,0,0,.328-3.284c-.248-.8-.774-1.488-1.066-2.274a6.973,6.973,0,0,1-.34-2.384c-.021-3.3.066-7.027,1.524-9.987,1.067-2.165,2.48-3.915,2.986-6.212.083-.376.3-.768.408-1.139a1.016,1.016,0,0,1,.56-.752A7.557,7.557,0,0,0,294.357,274.046Z"/><path class="x" d="M290.928,296.016a6,6,0,0,1-.276.936c-.23.6-.958,1.9-1.627,2.038a4.809,4.809,0,0,0,3.146-2.445,6.374,6.374,0,0,0,.609-3.992c-.229-1.46-.882-2.951-.428-4.358.378-1.174,1.434-1.971,2.241-2.9a8.984,8.984,0,0,0,2.08-5.755,11.831,11.831,0,0,0-1.648-5.949,5.019,5.019,0,0,1-.977-2.505,1.572,1.572,0,0,0-1.008,1.293,5.087,5.087,0,0,0,.122,1.717c.514,2.9.591,6.041-.832,8.618-.385.7-.869,1.334-1.256,2.029a8.378,8.378,0,0,0-1,4.986c.166,1.455.712,2.842.922,4.292A5.806,5.806,0,0,1,290.928,296.016Z"/><path class="i" d="M294.24,263.46a4.493,4.493,0,0,0-.7-.27h-.01c-.12-.03-.261-.08-.42-.12a14.249,14.249,0,0,0-9.22.68c-.52.07-1.02.1-1.3.11h-.03a.037.037,0,0,0-.03-.01c-.28-.01-.77-.03-1.3-.1a14.27,14.27,0,0,0-9.07-.72c-.11.03-.21.05-.3.08a6.116,6.116,0,0,0-.98.35c-.31.37,0,.92,0,.92.01.02.25.08.28.1a2.494,2.494,0,0,1,.45.24.719.719,0,0,1,.26.26.8.8,0,0,1,.08.26v.05c.02.18.01.39.03.55a8.731,8.731,0,0,0,.33,1.41,2.99,2.99,0,0,0,1.2,1.61c1.259.73,3.89.63,5.19.32,1.44-.44,2.67-3.05,2.8-3.86.1-.49.69-.61,1.03-.63h.06c.34.03.929.13,1.03.63.14.81,1.36,3.42,2.8,3.86,1.3.31,3.94.41,5.19-.32a3,3,0,0,0,1.2-1.61,8.735,8.735,0,0,0,.33-1.41,2.979,2.979,0,0,1,.12-.86c.009-.02.02-.02.03-.03h.01v-.03a.853.853,0,0,1,.28-.25c.06-.03.11-.06.17-.09h.01c.07-.04.14-.07.2-.1.03-.02.27-.08.28-.1C294.24,264.38,294.55,263.83,294.24,263.46Zm-17.971,5.55a4.649,4.649,0,0,1-2.909-1.04,2.962,2.962,0,0,1-.54-1.06,4,4,0,0,1-.09-2.38,1.345,1.345,0,0,1,.41-.59,4.841,4.841,0,0,1,3.07-.68c2.25.06,4.41.32,4.59,1.89C280.74,266.08,279.9,269.4,276.269,269.01Zm16.031-2.1a2.962,2.962,0,0,1-.54,1.06,4.65,4.65,0,0,1-2.91,1.04c-3.62.39-4.47-2.93-4.52-3.86.17-1.57,2.33-1.83,4.58-1.89a4.827,4.827,0,0,1,3.07.68,1.455,1.455,0,0,1,.42.59A4,4,0,0,1,292.3,266.91Z"/></g></svg>