<svg xmlns="http://www.w3.org/2000/svg" width="96" height="96" viewBox="0 0 96 96"><defs><style>.a{fill:#6c95a1;}.b{fill:#eaccb0;}.c{fill:#272728;}.d{fill:#f2d4b6;}.e{fill:#1e1d1e;}.f{fill:#505e63;}</style></defs><g transform="translate(-807.69 -686.926)"><path class="a" d="M48,0A48,48,0,1,1,0,48,48,48,0,0,1,48,0Z" transform="translate(807.69 686.926)"/><g transform="translate(819.492 701.432)"><path class="b" d="M871.594,766.467c3.823,0,7.237-2.485,8.418-2.739a17.156,17.156,0,0,1-.111-2.227c-2.908,2.45-4.191,3.288-8.046,3.156-4.007.138-5.238-.775-8.4-3.454a18.213,18.213,0,0,1-.112,2.556c1.276.378,4.549,2.7,8.25,2.7Z" transform="translate(-835.421 -722.69)"/><path class="c" d="M893.8,780.172c-.754-.788-6.471-1.862-10.163-3.434-4.109-1.751-8.331-3.158-10.446-4.869h0a.856.856,0,0,1-.1.119c-4.344,4.248-10.858,3.927-10.858,3.927v-.006s-6.465.327-10.808-3.921a.917.917,0,0,1-.1-.119h0c-2.116,1.712-6.337,3.118-10.446,4.869-3.879,1.652-9.994,2.753-10.239,3.552,4.47-1.8,6.8,10.825,7.662,20.534a47.959,47.959,0,0,0,48.166-.144C887.321,791.219,889.558,779.072,893.8,780.172Z" transform="translate(-826.06 -725.743)"/><path class="d" d="M868.743,755.308c3.855.133,5.138-.705,8.046-3.156.226-.19.458-.387.706-.6,3.6-3.06,1.789-9.447,3.977-9.048s4.69-5.657,2.971-6.986c-.036-.028-.071-.047-.106-.073v0c-.859-.3-1.54.451-2.172,1.514s-.387,2.7-1.016,2.666c-.849-2.877-.658-5.441-.492-8.429-5.9,1.731-11.971,2.629-16.885-.979-1.006-.739-1.981-1.711-3.507-1.685-1.762.029-2.469,1.075-2.222,2.767.124.847.185,1.992.233,2.5a7.225,7.225,0,0,1-1.329,4.341c-.263.271-.9,1.395-1.287,1.489-.315.077-.1-1.761-1.151-3.346-.594-.9-.956-1.006-1.116-1a3.116,3.116,0,0,0-.35.233c-1.719,1.329.782,7.385,2.971,6.986s.373,5.988,3.977,9.048l.353.3C863.505,754.532,864.736,755.445,868.743,755.308Z" transform="translate(-832.309 -713.341)"/><path class="e" d="M828.8,783.6c-.067.027-.132.041-.2.074-.989.49-2.891,3.815-4.378,10.376a48.2,48.2,0,0,0,12.241,10.084C835.6,794.422,833.272,781.793,828.8,783.6Z" transform="translate(-824.224 -729.05)"/><path class="e" d="M916.7,783.666a2.667,2.667,0,0,0-.515-.192c-4.244-1.1-6.481,11.047-7.335,20.508a48.216,48.216,0,0,0,12.177-10.156C919.55,787.41,917.68,784.15,916.7,783.666Z" transform="translate(-848.446 -729.045)"/><path class="e" d="M870.479,773.858v.006s6.514.321,10.858-3.927a.864.864,0,0,0,.1-.119c.533-.738-.859-1.513-1.036-2.355-.186-.887-.316-2.931-1.442-2.749-.018,0-.042.011-.061.016-1.181.253-4.6,2.739-8.418,2.739v-.006c-3.7,0-6.974-2.325-8.25-2.7a1.462,1.462,0,0,0-.181-.046c-1.125-.182-1.255,1.862-1.441,2.749-.178.842-1.57,1.617-1.037,2.355a.937.937,0,0,0,.1.119C864.015,774.185,870.479,773.858,870.479,773.858Z" transform="translate(-834.306 -723.692)"/><path class="f" d="M854.379,730.193c1.05,1.585.837,3.423,1.151,3.345.382-.094,1.024-1.218,1.287-1.489a7.226,7.226,0,0,0,1.329-4.341c-.049-.5-.11-1.649-.233-2.5-.247-1.692.46-2.739,2.222-2.767,1.526-.026,2.5.946,3.507,1.685,4.914,3.608,10.988,2.709,16.885.979-.166,2.989-.357,5.552.492,8.429.629.038.383-1.6,1.016-2.666s1.313-1.812,2.172-1.514v0c1.752-3.724,1.939-9.781.207-13.513s-4.5-5.481-7.239-8.593c.252.844-.888,2.106-1.964,2.2a19.633,19.633,0,0,1-3.29-.51c-4.536-.547-7.126-.754-10.837.548a13.845,13.845,0,0,0-5.153,3.013,14.24,14.24,0,0,0-3.7,7.6,18.785,18.785,0,0,0-.13,4.552,17.8,17.8,0,0,0,1.063,4.558.244.244,0,0,1,.1-.023C853.423,729.186,853.785,729.3,854.379,730.193Z" transform="translate(-832.178 -707.248)"/></g></g></svg>