<svg xmlns="http://www.w3.org/2000/svg" xmlns:xlink="http://www.w3.org/1999/xlink" width="561.242" height="443.08" viewBox="0 0 561.242 443.08"><defs><style>.a,.d{fill:#224552;}.a,.e{opacity:0.95;}.b{fill:#96bfe6;}.c{fill:#4598e6;}.e{fill:url(#a);}.f{fill:#417ee7;}.g{fill:#eea886;}.h{fill:#434343;}.i{fill:#a77860;}.j{fill:#0e2d3d;}.k{fill:#163342;}.l{fill:#1b364d;}.m{fill:#285173;}.n{fill:#01e69f;}.o{fill:#183c59;}.p{fill:#616161;}.q{fill:#e0cec7;}.r{fill:#eea987;}.s{fill:url(#b);}.t{fill:url(#c);}.u{fill:url(#d);}.v{fill:url(#e);}.w{fill:url(#f);}.x{fill:#fff;}.y{fill:#27444e;}.z{fill:#344052;}.aa{fill:#393d63;}.ab{fill:#e8ffff;}.ac{fill:#decbc4;}.ad{fill:#e8734d;}.ae{fill:#3675a7;}.af{fill:#1d4361;}.ag{fill:#f5e2d9;}.ah{fill:#03b8fa;}.ai{fill:#2d3133;}</style><linearGradient id="a" x1="0.5" y1="2.165" x2="0.5" y2="0.322" gradientUnits="objectBoundingBox"><stop offset="0" stop-color="#d1d7e0"/><stop offset="1" stop-color="#ebebff"/></linearGradient><linearGradient id="b" x1="-34.651" y1="0.5" x2="-33.651" y2="0.5" gradientUnits="objectBoundingBox"><stop offset="0" stop-color="#3076a1"/><stop offset="1" stop-color="#48c9b6"/></linearGradient><linearGradient id="c" x1="-17.756" x2="-16.756" xlink:href="#b"/><linearGradient id="d" x1="-23.761" x2="-22.761" xlink:href="#b"/><linearGradient id="e" x1="-17.099" x2="-16.099" xlink:href="#b"/><linearGradient id="f" x1="0.983" y1="0.961" x2="0.233" y2="0.108" gradientUnits="objectBoundingBox"><stop offset="0" stop-color="#01e69f"/><stop offset="1" stop-color="#48c9b6"/></linearGradient></defs><g transform="translate(-0.092 51.499)"><path class="a" d="M58.669,0H82.483a58.67,58.67,0,0,1,58.67,58.67V82.483a58.669,58.669,0,0,1-58.669,58.669H58.669A58.669,58.669,0,0,1,0,82.484V58.669A58.669,58.669,0,0,1,58.669,0Z" transform="translate(203.778 10.744)"/><rect class="b" width="65.351" height="3.229" transform="translate(241.679 119.76)"/><rect class="b" width="46.839" height="3.229" transform="translate(250.935 129.933)"/><rect class="a" width="193.183" height="226.753" rx="69.115" transform="translate(368.151 59.699)"/><g transform="translate(455.742 193.469)"><rect class="c" width="15.322" height="2.838" transform="translate(0 0)"/></g><g transform="translate(397.572 219.472)"><rect class="b" width="89.156" height="5.494" transform="translate(0 0)"/><rect class="b" width="72.097" height="5.494" transform="translate(0 26.377)"/><rect class="b" width="42.266" height="5.494" transform="translate(0 13.188)"/></g><g transform="translate(399.107 82.312)"><path class="c" d="M2100.841,763.9v2.775h16.338V782.01h2.775V763.9ZM1989.9,782.01h2.775V766.677h16.338V763.9H1989.9Zm127.284,79.12v15.339h-16.338v2.775h19.113V861.13Zm-124.509,0H1989.9v18.113h19.113v-2.775H1992.67Z" transform="translate(-1989.895 -763.902)"/></g><g transform="translate(504.177 219.069)"><g transform="translate(0 0)"><path class="c" d="M2398.862,1307.618a16.339,16.339,0,1,1,16.339-16.339A16.358,16.358,0,0,1,2398.862,1307.618Zm0-29.516a13.177,13.177,0,1,0,13.176,13.177A13.192,13.192,0,0,0,2398.862,1278.1Z" transform="translate(-2382.523 -1274.94)"/></g><g transform="translate(7.874 11.026)"><path class="c" d="M2419.37,1327.886l-7.423-7.424,2.236-2.236,5.187,5.187,7.271-7.271,2.237,2.236Z" transform="translate(-2411.947 -1316.143)"/></g></g><path class="d" d="M1029.089,1839.265c0,6.853-118.7,12.409-265.125,12.409s-265.125-5.556-265.125-12.409,118.7-12.409,265.125-12.409S1029.089,1832.411,1029.089,1839.265Z" transform="translate(-498.747 -1460.092)"/><path class="e" d="M95.141,81.631h0Z" transform="translate(226.784 16.022)"/><g transform="translate(226.447 4.213)"><path class="f" d="M1428.941,652.337c-3.134-8.289-10.661-12.1-14.215-13.281-1.265-.42-3.526-1.158-5.907-1.929-4.291-1.387-8.98-2.9-8.98-2.9h-14.808s-5.127,1.719-10.577,3.629a0,0,0,0,1,0,0c-5.02,1.76-10.306,3.68-12.09,4.576-3.722,1.858-9.984,15.144-11.25,16.667a117.174,117.174,0,0,0-6.416,11.74h15.952c1.686-2.9,2.984-5.141,2.984-5.141s1.009,2.213,2.232,5.141h51.106c.808-3.4,1.312-7.682,1.312-7.682s2.736,3.722,5.725,7.682h14.729C1435.151,664.838,1430.706,657.016,1428.941,652.337Z" transform="translate(-1344.693 -590.833)"/><g transform="translate(35.651 2.599)"><path class="g" d="M1491.769,481.88s11.578,1.824,9.815,19.939-11.982,16.63-12.665,16.612-10.259.33-11-21.787C1477.914,496.644,1477.588,480.289,1491.769,481.88Z" transform="translate(-1477.914 -481.771)"/></g><g transform="translate(58.827 16.933)"><path class="g" d="M1565.194,535.932s1.268-1.354,1.733.017-1.729,7.486-1.808,7.772c0,0-.231.532-.535.239S1565.194,535.932,1565.194,535.932Z" transform="translate(-1564.521 -535.336)"/></g><g transform="translate(34.154 16.683)"><path class="g" d="M1474.131,535.02s-1.241-1.378-1.733-.017,1.566,7.516,1.658,7.805c0,0,.221.536.531.249S1474.131,535.02,1474.131,535.02Z" transform="translate(-1472.322 -534.402)"/></g><g transform="translate(34.314 0)"><path class="h" d="M1498.1,492.367l-1.658,2.216a44.288,44.288,0,0,0-.219-5.62c-.266-.762-.673-3.089-.9-3.638s-9.943-3.273-18.529.8c0,0,.378,3.494-.445,3.8s-.419,5.69-.419,5.69l-1.363-1.538s-2.086-13.937-1.571-15.39,2.157-10.186,19.771-5c0,0,5.492-1.163,6.594,2.628S1498.1,492.367,1498.1,492.367Z" transform="translate(-1472.918 -472.059)"/></g><path class="g" d="M1488.168,602.6c-.005-.016-1.486-.73-1.486-.73-.721-1.613-.185-8.418-.185-8.418s-14.747-3.753-14.325-.883-1.271,9.538-1.271,9.538l-7.565,3.756s8.06,21.643,17.324,18.851,12.762-19.631,12.762-19.631Z" transform="translate(-1431.586 -559.527)"/><path class="i" d="M1497.146,606.541a8.743,8.743,0,0,0,6.5,3.067c2.712,0,4.66-.76,7.362-3.4,0,0-1.172,5-7.344,5.469C1503.663,611.682,1499.188,612.251,1497.146,606.541Z" transform="translate(-1456.348 -570.313)"/></g><g transform="translate(226.448 117.378)"><g transform="translate(24.071 0)"><path class="j" d="M1278.182,873.886s8.508,4.162,6.4,15.483-3.035,12.848-.682,17.272,5.13,23.3,3.012,26.872-26.213-15.719-29.555-31.908,2.118-23.389,4.047-26.072S1270.671,870.074,1278.182,873.886Z" transform="translate(-1256.303 -872.018)"/></g><g transform="translate(40.744 241.09)"><path class="k" d="M1320.605,1796.464h1.928v-9.094a25.829,25.829,0,0,1,6.156,6.007c2.373,3.486,5.636,3.189,10.605,2.967s4.747-2.225,4.3-5.043-5.488-3.708-7.12-4.153-5.335-6.826-6.526-8.38a21.305,21.305,0,0,1-2.484-4.153s-.927-3.782-5.525,0-3.263,11.05-2.744,11.718S1320.605,1796.464,1320.605,1796.464Z" transform="translate(-1318.611 -1772.933)"/></g><g transform="translate(43.029 241.771)"><path class="g" d="M1336.573,1789.012c1.706,1.113,6.156,0,6.156,0-1.261-1.632-9.011-12.533-9.011-12.533-4.709-2.744-6.57,1.032-6.57,1.032C1329.069,1778.1,1334.868,1787.9,1336.573,1789.012Z" transform="translate(-1327.148 -1775.48)"/></g><g transform="translate(101.796 82.417)"><path class="g" d="M1547,1185.117s3.087.592,4.142-.859a10.077,10.077,0,0,1,3.578-2.473c.844-.392,2.985-2.558,3.49-1.5s-3.359,3.741-4.057,4.465,3.788,1.044,4.562,1.749-.178,8.1-3.231,7.528-5.935-3.207-6.491-3.2a19.051,19.051,0,0,1-2.238-.331Z" transform="translate(-1546.752 -1179.997)"/></g><g transform="translate(110.672 88.617)"><path class="g" d="M1582.323,1203.166s9.23,2.384,9.712,3.058.323,1.166-.549.979-8.985-2.046-8.985-2.046,10.45,4.658,10.966,5.123c.3.273.051,1.245-.425,1.188s-11.1-4.081-11.1-4.081,9.749,4.367,10.064,4.885a.735.735,0,0,1-.923,1.013c-.745-.274-10.023-3.815-10.023-3.815s6.9,3.625,6.9,4.22c.005.365-.172,1.214-1.923.224s-6.125-2.9-6.125-2.9Z" transform="translate(-1579.92 -1203.166)"/></g><g transform="translate(17.211 248.488)"><path class="k" d="M1231.214,1817.332h1.187v-6.675a14.52,14.52,0,0,1,3.074,5.36c.965,3.189,4.416,4.135,9.682,3.987s5.34-2.227,4.895-5.342-4.895-4.746-4.895-4.746c-2-1.78-6.971-9.159-6.971-9.159a6.946,6.946,0,0,0-5.692,1.168c-2.5,2.02-1.725,6.583-1.65,7.769S1231.214,1817.332,1231.214,1817.332Z" transform="translate(-1230.671 -1800.578)"/></g><g transform="translate(10.591 103.603)"><path class="l" d="M1216.728,1261.8s-6.274,8.158-7.976,17.836,1.005,42.162.931,46.945-4.524,16.687-3.634,25.7,4.4,53.859,4.4,53.859l9.615-1.908s-.556-45.721,0-49.5,1.673-17.569,1.9-19.127,14.124-42.453,14.124-49.43S1231.858,1250.416,1216.728,1261.8Z" transform="translate(-1205.931 -1259.166)"/></g><g transform="translate(31.333 107.383)"><path class="l" d="M1305.016,1275.335s10.308,39.343,11.532,44.794,3,9.947,3,12.261c0,5.37-2,13.993-2,13.993l-13.09,62.607h-12.467s6.946-37.56,7.133-44.9c.187-7.361,5.854-17.814,4.741-20.929s-17.91-39.047-17.91-39.047S1273.238,1263.914,1305.016,1275.335Z" transform="translate(-1283.443 -1273.292)"/></g><g transform="translate(19.034 248.666)"><path class="g" d="M1250.144,1810.405l-6.971-9.159-5.692,1.168a25.812,25.812,0,0,0,4.3,7.184C1245.056,1813.25,1250.144,1810.405,1250.144,1810.405Z" transform="translate(-1237.481 -1801.246)"/></g><g transform="translate(44.906 42.567)"><path class="m" d="M1337.906,1031.084a12.864,12.864,0,0,1,7.462,3.842,49.242,49.242,0,0,1,7.066,10.763c.841,1.835,12.631,18.842,13.243,19.224s6.538,2.363,10.465,3.684c6.06,2.039,18.207,6.454,18.207,6.454l-2.412,7.638s-22.842-7.474-28.562-8.883c-6.995-1.723-23.1-22.382-23.1-22.382S1328.271,1037.354,1337.906,1031.084Z" transform="translate(-1334.162 -1031.084)"/></g><g transform="translate(11.725 39.297)"><path class="n" d="M1239.677,1019.153a57.576,57.576,0,0,0,7.417,2.982c1.911.382,9.328,10.017,10.628,13.534s0,8.793-2.676,14.986-.153,8.258-1.376,14.451-.83,29.363-.6,32.8-35.789,8.656-42.9,2.386c0,0,4.814-20.881,10.513-26.842,1.233-1.288,1.1-9.878.261-12.019s-10.323-18.122-10.323-18.122-.7-16.208,3.441-19.421c3.594-2.791,13.388-3.786,15.147-4.4S1236.083,1018.618,1239.677,1019.153Z" transform="translate(-1210.169 -1018.865)"/></g><g transform="translate(30.766 25.698)"><path class="g" d="M1294.417,975.581s-.164,1.516-.354,3.564c-.073.811-.154,1.705-.226,2.622a61.932,61.932,0,0,0-.289,7.2s-5.723,5.734-12.227-6.69a17.072,17.072,0,0,0,.676-12.1C1279.937,963.2,1294.417,975.581,1294.417,975.581Z" transform="translate(-1281.321 -968.047)"/></g><g transform="translate(57.16 58.642)"><path class="o" d="M1382.667,1105.883s1.377-9.159-.087-14.729a35.575,35.575,0,0,1-2.626,11.591Z" transform="translate(-1379.954 -1091.154)"/></g><g transform="translate(26.37 39.786)"><path class="g" d="M1264.894,1021.719s3.935,11.623,14.74,10.768,5.122-9.814,5.122-9.814a23.849,23.849,0,0,0-3.45-1.69c-.758-.146-11.945-.288-11.945-.288Z" transform="translate(-1264.894 -1020.695)"/></g><g transform="translate(46.231 41.764)"><path class="m" d="M1339.112,1028.084s5.659,15.653,5.659,31.607.456,41.942,2.432,50.149,7.6,33.587,7.6,33.587l4.407-2.28s-10.6-40.507-11.4-43.427.608-33.778,1.368-36.361,3.992-14.084,3.489-17.275c-.633-4.022-4.4-9.974-10.476-15.092Z" transform="translate(-1339.112 -1028.084)"/></g><g transform="translate(4.624 40.321)"><path class="m" d="M1207.514,1022.691a162.735,162.735,0,0,1,5.3,25.686c1.782,14.423-5.471,81.374-10.334,96.572l-18.846-3.04s4.057-47.323,9.564-55.936,7.259-16.232,1.315-34.207,2.606-26.878,2.606-26.878S1205.862,1022.878,1207.514,1022.691Z" transform="translate(-1183.634 -1022.691)"/></g><g transform="translate(0.584 72.841)"><path class="p" d="M1216.789,1159.452l-22.85,39.578-25.4-14.666,21.857-40.15Z" transform="translate(-1168.537 -1144.214)"/></g><g transform="translate(3.227 75.907)"><path class="q" d="M1221.269,1169.206l-20.294,35.15-22.56-13.025,19.412-35.658Z" transform="translate(-1178.415 -1155.672)"/></g><g transform="translate(29.118 78.55)"><path class="p" d="M1284.64,1173.282l1.424-2.467-9.121-5.266-1.781,2.261Z" transform="translate(-1275.163 -1165.549)"/></g><g transform="translate(27.028 102.062)"><path class="g" d="M1277.833,1265.71a4.728,4.728,0,0,1-1.495-.215s-.8-.463-1.385-.758a4.322,4.322,0,0,0-.463-.208,8.666,8.666,0,0,1-2.547-1.078,57.985,57.985,0,0,1-4.588-4.843l1.69-2.57,1.239-2.631s7.512.485,8.529,1.029a2.872,2.872,0,0,1,.281.171,11.008,11.008,0,0,1,1.59,1.626c.145.124,1.5,1.449,1.452,2.014a1.851,1.851,0,0,1-.9,1.559,4.425,4.425,0,0,1-.947,2.242,2.751,2.751,0,0,1-1.324,2.036S1278.668,1265.5,1277.833,1265.71Z" transform="translate(-1267.355 -1253.408)"/></g><g transform="translate(0 42.334)"><path class="m" d="M1188.376,1030.447s-6.939-1.988-10.915,5.659-3.956,10.909-4.488,14.642c-.5,3.525-2.767,13.151-3,14.145s-5.36,12.847-3.007,16.99c2.365,4.165,26.382,16.422,26.229,17.34s4.16-9.267,4.16-9.267-9.718-5.417-11.31-7.084c-2.585-2.709-8.04-5.628-6.919-8.989,1.316-3.948,5.27-17.267,6.187-19.217S1194.226,1032.932,1188.376,1030.447Z" transform="translate(-1166.355 -1030.214)"/></g><g transform="translate(28.422 2.762)"><path class="r" d="M1288.856,882.7s12.354,3.882,5.648,25.2-23.578-2.47-21.813-15.46S1288.856,882.7,1288.856,882.7Z" transform="translate(-1272.563 -882.342)"/></g><g transform="translate(27.448 1.05)"><path class="j" d="M1293.1,890.456a27.869,27.869,0,0,1-16.411,6.777s-3.948,4.629-4.251,6.446c0,0-9.166-15.623,2.1-24.988S1297.242,886.6,1293.1,890.456Z" transform="translate(-1268.922 -875.943)"/></g><g transform="translate(31.051 18.497)"><path class="r" d="M1286.676,945.407c-.079-1.552-1.035-5.083-3.341-4.094s.141,8.179,1.671,7.736C1285.005,949.049,1286.864,949.078,1286.676,945.407Z" transform="translate(-1282.389 -941.141)"/></g><g transform="translate(34.184 30.982)"><path class="i" d="M1303.418,993.609c-.073.811-.154,1.705-.227,2.622,0,0-5.452-.325-9.1-8.436C1294.332,988.149,1298.327,994.018,1303.418,993.609Z" transform="translate(-1294.095 -987.795)"/></g></g><g transform="translate(96.191 177.752)"><g transform="translate(54.371 37.462)"><path class="s" d="M821.375,1386.95c7.921-5.571,17.192-44.392,17.745-67.515.283-11.845,3.785-16.779,6.874-21.133,2.953-4.162,5.5-7.756,4.017-16.008-2.839-15.771,4.625-22.579,4.7-22.646l-.864-.985c-.332.291-8.1,7.313-5.126,23.863,1.388,7.711-.9,10.935-3.8,15.018-3.039,4.284-6.822,9.615-7.115,21.86-.594,24.815-10.071,61.469-17.189,66.474Z" transform="translate(-820.622 -1258.664)"/></g><g transform="translate(0 90.863)"><path class="t" d="M655.967,1521.778c-.748-1.7-1.521-3.447-2.4-5.3-4.525-9.552-8.533-11.125-15.175-13.731-1.623-.637-3.462-1.359-5.481-2.266-9.513-4.275-7.671-10.575-6.046-16.134.227-.778.454-1.553.651-2.32.837-3.269-.771-4.909-3.2-7.392a27.753,27.753,0,0,1-5.794-7.769c-1.9-3.969-.931-6.1.215-7.184,2.413-2.288,7.978-1.866,13.231,1a19.133,19.133,0,0,1,4.4,3.788c3.349,3.507,7.517,7.872,18.059,7.921,6.011.028,9.3.858,11.009,2.774,1.935,2.174,1.571,5.43,1.066,9.936-.175,1.559-.373,3.325-.493,5.233a30.529,30.529,0,0,0,6.071,19.68c4.016,4.782,8.963,14.7,6.827,20.809-.895,2.56-2.9,4.171-5.949,4.788a16.933,16.933,0,0,1-3.349.363C662.233,1535.979,659.534,1529.864,655.967,1521.778Zm-24.627-59.94c-4.692-2.561-9.723-3.078-11.7-1.2-1.5,1.426-.8,3.869.065,5.668a26.263,26.263,0,0,0,5.548,7.417c2.546,2.6,4.557,4.65,3.537,8.634-.2.782-.431,1.571-.662,2.363-1.618,5.536-3.146,10.764,5.326,14.572,1.99.894,3.813,1.61,5.423,2.241,6.7,2.631,11.132,4.369,15.88,14.39.883,1.865,1.66,3.625,2.412,5.329,4.1,9.288,6.571,14.894,15.531,13.082a6.079,6.079,0,0,0,4.973-3.936c1.881-5.382-2.621-14.8-6.6-19.535a31.291,31.291,0,0,1-6.374-20.6c.122-1.94.322-3.723.5-5.3.467-4.169.8-7.181-.742-8.919-1.414-1.589-4.509-2.309-10.037-2.335-11.1-.052-15.48-4.64-19-8.327a17.921,17.921,0,0,0-4.078-3.542Z" transform="translate(-617.445 -1458.216)"/></g><g transform="translate(10.161 101.325)"><path class="u" d="M700.623,1572.174l1.308-.069c-.064-1.229-1.714-30.2-13.347-38.679-12.762-9.3-16.786-19.3-18.7-26.01-2.258-7.906-13.751-10.02-14.239-10.106l-.228,1.29c.111.02,11.175,2.059,13.207,9.176,1.97,6.9,6.1,17.168,19.19,26.708C698.946,1542.6,700.607,1571.879,700.623,1572.174Z" transform="translate(-655.415 -1497.31)"/></g><g transform="translate(43.053 0)"><path class="v" d="M788.428,1301.379c-2.737-1.363-2.638-6.844-2.488-15.139.19-10.483.45-24.839-5.038-38.045-5.83-14.027-.63-18.127,4.4-22.093,5.631-4.44,10.95-8.635.742-27.567-4.688-8.7-6.177-14.577-4.684-18.509,1.475-3.886,5.614-5.4,10-7.005,7.564-2.768,16.136-5.906,15.029-21.914-.339-4.907.237-7.925,1.816-9.5,1.715-1.708,4.242-1.522,7.167-1.309,4.42.323,9.427.69,13.788-5,.454-1.422,4.623-14.114,9.612-16.287a3.532,3.532,0,0,1,3.052.017h0c3.443,1.647,5.442,3.6,6.109,5.972,1.161,4.125-1.86,8.777-5.359,14.164-5.5,8.466-11.729,18.06-5.266,29.478,8.545,15.1,4.032,20.381-2.215,27.693-3.579,4.189-7.635,8.937-10.347,16.682-2.181,6.229,1.539,12.167,5.137,17.911,4.513,7.2,9.18,14.654-.646,21.118-16.245,10.688-32.289,45.576-32.449,45.927l-.066.145-.125.1c-2.993,2.345-5.172,3.465-6.812,3.465A2.978,2.978,0,0,1,788.428,1301.379Zm40.082-50.426c8.756-5.76,4.817-12.048.256-19.328-3.587-5.726-7.653-12.216-5.264-19.04,2.793-7.976,6.934-12.823,10.587-17.1,6.121-7.165,10.164-11.9,2.071-26.2-6.854-12.11-.111-22.494,5.308-30.837,3.325-5.12,6.2-9.542,5.2-13.1-.559-1.987-2.33-3.67-5.413-5.145h0a2.245,2.245,0,0,0-1.963,0c-4.628,2.016-8.878,15.452-8.92,15.588l-.034.109-.069.091c-4.807,6.352-10.456,5.939-15,5.606-2.713-.2-4.855-.355-6.146.93-1.272,1.266-1.74,4.04-1.434,8.479,1.176,16.99-8.284,20.452-15.885,23.234-4.271,1.563-7.959,2.913-9.221,6.239-1.347,3.551.118,9.087,4.613,17.423,10.731,19.9,4.725,24.638-1.084,29.218-4.858,3.832-9.448,7.451-4,20.561,5.593,13.458,5.33,27.973,5.138,38.571-.131,7.235-.234,12.949,1.762,13.943,1.168.582,3.4-.4,6.644-2.922C796.955,1294.461,812.321,1261.6,828.51,1250.953Z" transform="translate(-778.327 -1118.674)"/></g><path class="w" d="M694.337,1232.265c8.268-2.835,6.55,13.1,10.044,24.891s38.865,5.143,24.018,34.668,18.778,9.874,8.734,35.638-.873,53.32-11.791,46.311-6.133-39.454-17.487-43.309-13.207-8.352-1.965-18.832-29.457-20.885-19.413-42.048S684.784,1235.54,694.337,1232.265Z" transform="translate(-666.824 -1201.625)"/><g transform="translate(32.93 67.141)"><path class="x" d="M762.28,1472.887c1.04-4.411,9.919-43.226,1.634-47.918-7.3-4.135-7.122-20.22-5.983-35.408,1.008-13.445-16.259-19.729-16.995-19.99l-.438,1.235c.171.061,17.06,6.212,16.126,18.657-1.17,15.6-1.3,32.15,6.644,36.646,6.291,3.562.5,34.758-2.264,46.477Z" transform="translate(-740.498 -1369.572)"/></g><path class="l" d="M801.649,1704l-11.8,44.785h-26.38L751.66,1704Z" transform="translate(-715.744 -1547.361)"/><path class="y" d="M801.649,1704s-25.987,4.879-25.987,44.785h-12.2L751.66,1704Z" transform="translate(-715.743 -1547.361)"/></g><path class="a" d="M46.7,0H57.006a46.7,46.7,0,0,1,46.7,46.7v0a46.7,46.7,0,0,1-46.7,46.7H46.7A46.7,46.7,0,0,1,0,46.7v0A46.7,46.7,0,0,1,46.7,0Z" transform="translate(358.795 -41.527)"/><g transform="translate(406.142 34.208)"><rect class="c" width="8.225" height="1.523" transform="translate(0 0)"/></g><g transform="translate(390.508 -51.499)"><g transform="translate(9.023 0)"><path class="z" d="M2009.639,265.665s6.627,3.639,4.523,12.587-2.9,10.129-1.194,13.745,3.212,18.767,1.389,21.539-20.308-13.52-22.362-26.554,2.57-18.57,4.21-20.636S2003.793,262.342,2009.639,265.665Z" transform="translate(-1991.477 -263.873)"/></g><g transform="translate(20.548 33.354)"><path class="g" d="M2053.624,430.9h-7.1c-.343-3.5-.66-5.936-.6-6.3.1-.595-7.06-19.388-7.729-20.942s-3.3-5.719-3.644-9.644,4.772-5.51,4.772-5.51c6.908,1.238,9.249,10.795,9.249,10.795s2.9,19.379,4.369,24.833A34.744,34.744,0,0,1,2053.624,430.9Z" transform="translate(-2034.545 -388.512)"/></g><path class="n" d="M2050.381,399.316l-10.565,4.454s-9.712-24.1-1.572-21.409C2046.36,385.044,2050.011,390.087,2050.381,399.316Z" transform="translate(-2014.325 -350.5)"/><g transform="translate(3.329 30.267)"><path class="n" d="M2000.574,406.871c-.308,2.393-1.572,10.869-1.29,13.157.048.378.2,1.247.438,2.427h-25.475c.677-2.419,1.294-4.56,1.667-5.806,1.238-4.1.052-5.2-.573-8.484-.243-1.285-1.1-3.726-2.033-6.483-.312-.921-.634-1.88-.942-2.844a58.7,58.7,0,0,1-1.962-9.093c-1.537-9.8,6-10.742,6-10.742,2.8-.517,7.694-2.028,7.694-2.028l7.664,1.594a8.317,8.317,0,0,1,1.793,1.06,0,0,0,0,1,0,0,13.964,13.964,0,0,1,1.724,1.511,46.286,46.286,0,0,1,4.168,6.027c.508.83,1.021,1.681,1.5,2.518,1.559,2.7,2.666,4.872,2.631,7.325C2003.557,399.429,2000.883,404.478,2000.574,406.871Z" transform="translate(-1970.198 -376.975)"/></g><path class="g" d="M2018.337,378.746s4.8,8.206,3.016,8.819-11.2-1.459-14.873-9.212C2006.48,378.353,2012.657,375.546,2018.337,378.746Z" transform="translate(-1993.442 -346.883)"/><path class="g" d="M2022.066,353.695s-4.265,1.8-8.127-4.136c0,0,1.038-6.746-1.156-10.649s9.59,4.678,9.59,4.678-.191.8-.388,1.992c-.1.608-.2,1.315-.284,2.065-.066.625-.118,1.282-.14,1.936A10.591,10.591,0,0,0,2022.066,353.695Z" transform="translate(-1997.859 -318.084)"/><path class="aa" d="M1986.425,431.289c-.878,4.516-7.177,10.173-7.177,10.173-.312-.923-.633-1.881-.941-2.843A41.219,41.219,0,0,0,1986.425,431.289Z" transform="translate(-1972.808 -386.487)"/><g transform="translate(0.944 33.649)"><path class="g" d="M1972.38,404.361c-.4,1.646-2.236,18.315-2.036,18.884.117.326,1.008,4.182,1.9,8.468h-8.224a20.21,20.21,0,0,1-1.22-6.353c.525-5.623-1.381-23.548-1.381-23.548s-1.707-10.842,7.291-12.2c0,0,5.315.7,5.636,4.624S1972.78,402.72,1972.38,404.361Z" transform="translate(-1961.288 -389.615)"/></g><path class="n" d="M1958.168,403.229l11.166,2.608s8.857-17.2.88-20.337C1961.806,382.19,1956.153,393.848,1958.168,403.229Z" transform="translate(-1957.759 -352.531)"/><g transform="translate(12.704 2.298)"><path class="r" d="M2018.681,272.908s9.7,3.561,3.553,20.307-18.707-2.859-16.81-13.149S2018.681,272.908,2018.681,272.908Z" transform="translate(-2005.231 -272.459)"/></g><g transform="translate(12.348 0.907)"><path class="z" d="M2022.748,279.28a22.243,22.243,0,0,1-13.34,4.785s-1.921,4.682-2.231,6.119c0,0-8.12-13.942,1.216-20.985S2026.2,276.359,2022.748,279.28Z" transform="translate(-2003.902 -267.262)"/></g><g transform="translate(15.614 15.215)"><path class="r" d="M2019.456,324.227c-.005-1.24-.634-4.091-2.51-3.39s-.2,6.526,1.041,6.231C2017.987,327.068,2019.468,327.161,2019.456,324.227Z" transform="translate(-2016.107 -320.727)"/></g><path class="i" d="M2028.917,364.754a10.322,10.322,0,0,1-6.378-5.753c3.708,4.792,6.506,4.1,6.506,4.1C2028.978,363.73,2028.973,364.12,2028.917,364.754Z" transform="translate(-2005.203 -333.544)"/></g><g transform="translate(375.739 -24.625)"><path class="c" d="M1962.129,364.3v1.489h8.77v8.231h1.49V364.3Zm-59.559,9.721h1.49v-8.231h8.77V364.3h-10.26Zm68.329,42.473v8.234h-8.77v1.49h10.26v-9.724Zm-66.839,0h-1.49v9.724h10.26v-1.49h-8.77Z" transform="translate(-1902.57 -364.297)"/></g><g transform="translate(268.861 103.989)"><rect class="c" width="10.986" height="2.035" transform="translate(0 0)"/></g><g transform="translate(227.726 25.407)"><path class="ab" d="M1429.022,551.257v1.989h11.715v10.995h1.99V551.257Zm-79.552,12.984h1.99V553.246h11.715v-1.989h-13.7Zm91.267,56.731v11h-11.715v1.99h13.7V620.972Zm-89.277,0h-1.99v12.989h13.7v-1.99H1351.46Z" transform="translate(-1349.47 -551.257)"/></g><g transform="translate(399.289 44.22)"><g transform="translate(3.008 62.693)"><path class="ac" d="M2119.28,927.19h-9.292c-.17-.372-.307-.7-.421-.954-2.758-6.511-16.968-21.44-16.968-21.44v.032a.027.027,0,0,0-.008.016v.016c-.008.024-.016.04-.024.064s-.016.073-.033.122a.284.284,0,0,0-.015.081c-.008.024-.017.041-.025.065-.582,2.176-3.445,13.013-4.877,22h-62.881c-.145-.833-.315-1.626-.51-2.362a51.006,51.006,0,0,1-1.213-6.5c-.008-.1-.024-.2-.032-.307-.049-.38-.089-.76-.122-1.132a59.623,59.623,0,0,1-.1-10.409c-.178.38-1.448,5.038-3.114,10.789-.914,3.154-1.949,6.64-2.976,9.924h-14.849l18.634-53.758c.412-.324,5.249-2.661,8.775-4.343,3.6-1.715,7.942-4.23,11.865-6.381,2.006-1.1,3.9-2.095,5.54-2.847l.251-.113v-.008c2.709-1.238,4.513-2.055,4.513-2.055h.008c.065-.008.493-.049,1.173-.113,3.785-.364,15.528-1.464,19.459-1.69.324-.025.6-.032.809-.041a3.291,3.291,0,0,1,.4,0,49.54,49.54,0,0,1,6.1,2.087c.121.041.243.089.364.138.154.057.3.113.453.17.275.105.558.211.841.324.567.226,1.157.453,1.748.687.2.081.412.162.622.243,6.365,2.523,13.66,5.653,15.391,6.9,1.148.817,4.715,7.538,8.847,15.852C2112.049,896.49,2117.492,917.048,2119.28,927.19Z" transform="translate(-2001.815 -855.835)"/></g><g transform="translate(52.332 41.582)"><path class="g" d="M2208.126,796.234c-.167,8.453-16.534,13.077-16.534,13.077s-6.846-8.583-5.21-9.4c.642-.323.9-1.6.983-3.04a29.792,29.792,0,0,0-.093-3.834c-.049-.6-.1-.982-.1-.982s2.338-2.467,5.313-5.407c5.2-5.14,12.345-11.725,12.356-9.1a2.324,2.324,0,0,1-.061.5C2203.53,783.931,2208.126,796.234,2208.126,796.234Z" transform="translate(-2186.13 -776.945)"/></g><g transform="translate(51.849 48.487)"><path class="i" d="M2200.5,802.748v0c-.033.049-.727,1.088-1.912,2.578-2.512,3.16-7.235,8.352-12.545,10.437a29.783,29.783,0,0,0-.093-3.834,8.54,8.54,0,0,1-1.625-.2,50.33,50.33,0,0,1,3.559-5.21l3.285-.983Z" transform="translate(-2184.324 -802.748)"/></g><g transform="translate(40.812 13.884)"><path class="g" d="M2173.436,701.849c-1.416,3.08-2.76,5.312-3.142,6.2v0a10.959,10.959,0,0,1-1.911,2.578c-2.7,2.906-7.71,6.738-12.638,6.6a8.527,8.527,0,0,1-1.626-.2,7.734,7.734,0,0,1-5.633-3.891c-10.21-19.99-2.818-36.337-2.818-36.337s27.918-7.9,32.286.509C2181.017,683.209,2176.761,694.612,2173.436,701.849Z" transform="translate(-2143.08 -673.442)"/></g><g transform="translate(39.988 0)"><path class="ad" d="M2143.413,638.806s-2.593-.144-3.234-5.059c-.634-4.857.647-6.2.647-6.2s11.526-4.825,15.665-5.452,14.316-1.23,16.7,1.5c0,0,5.8-1.347,7.375,8.275,2.5,15.265-8.537,30.087-8.537,30.087s.094-9.973-2.105-11.294-4.1,1.821-4.1,1.821l-4.5.806s6.833-14.754-1.364-15.3S2148.1,639.661,2143.413,638.806Z" transform="translate(-2140.002 -621.559)"/></g><g transform="translate(65.793 22.737)"><path class="g" d="M2236.576,710.731c.427-4.394,8.373-6.071,7.841-1.466s-4.445,9.029-6.252,8.874S2236.25,714.08,2236.576,710.731Z" transform="translate(-2236.431 -706.523)"/></g><g transform="translate(58.917 64.786)"><path class="ae" d="M2264.263,888.379c-2.588-8.29-4.828-14.849-5.823-15.561-1.739-1.245-15.521-5.038-22.063-7.6-.21-.081-.42-.162-.623-.243-.59-.234-1.181-.461-1.747-.687-.283-.113-.566-.218-.841-.324-.154-.057-.3-.113-.453-.17-.121-.049-.243-.1-.364-.138-.008.008-.016.024-.032.032a107.466,107.466,0,0,0-7.222,9.237c-6.761,9.608-15.569,25.177-14.218,39.548.437,4.61.97,11.234,1.868,18.666.065.59.138,1.181.219,1.779h30.507c.372-7.781,1.035-18.027,2.038-22,.008-.024.016-.04.024-.065a.277.277,0,0,1,.016-.081c.008-.041.024-.081.033-.122.008-.024.016-.04.023-.064v-.016a.027.027,0,0,1,.009-.016s7.384,11.541,7.764,22.362h19.2C2271.639,922.865,2268.7,902.6,2264.263,888.379Z" transform="translate(-2210.738 -863.655)"/></g><g transform="translate(0 66.719)"><path class="ae" d="M2038.524,870.975s-2.305,7.667-5.281,26.811v.008c-.1.639-.2,1.294-.307,1.965-.008.073-.024.154-.032.235-.073.437-.137.89-.2,1.343-.008.056-.016.105-.024.162-.049.3-.1.606-.138.922-.113.752-.227,1.529-.339,2.313-1.117,7.813-2.6,20.227-4.117,33.474h-12.059a56.231,56.231,0,0,1-1.221-9.325,1.165,1.165,0,0,0-.057.154c-.963,2.669-2.022,5.572-3.1,8.395l-.291.776h-20.785l20.7-54.163c.412-.323,5.742-3.194,9.268-4.869,3.68-1.755,8.33-3.915,12.455-5.815,1.973-.914,3.825-1.763,5.394-2.483Z" transform="translate(-1990.573 -870.878)"/></g><g transform="translate(58.919 64.786)"><path class="af" d="M2227.815,884.626l-7.967,4.5,3.405,3.47-7.473,40.325h-2.814c-1.035-8.152-1.626-15.472-2.087-20.446-2.079-22.225,20.1-47.288,21.472-48.817,1.067.4,2.216.849,3.405,1.318Z" transform="translate(-2210.742 -863.655)"/></g><g transform="translate(34.793 66.606)"><path class="af" d="M2133.869,870.455s-2.976,9.713-6.438,33.968c-1.116,7.8-2.612,20.227-4.125,33.474h-1.173l-1.545-38.1,3.793-4.109-3.373-4.214,7.214-18.424c1.973-.914,3.826-1.763,5.395-2.483Z" transform="translate(-2120.589 -870.455)"/></g><g transform="translate(57.795 60.872)"><path class="ag" d="M2229.679,853.038l-6.6-4.01s-.185,3.62-16.533,13.077l4.643,13.077Z" transform="translate(-2206.544 -849.028)"/></g><g transform="translate(48.073 62.696)"><path class="ag" d="M2175.588,855.844s.257,3.907,4.349,11.253l-9.061,11.812-.661-19.158Z" transform="translate(-2170.216 -855.844)"/></g><g transform="translate(52.307 73.949)"><path class="ah" d="M2191.548,897.9s1.756,7.024,1.124,8.99c0,0-3.862,1.4-6.637-.351A30.857,30.857,0,0,1,2191.548,897.9Z" transform="translate(-2186.035 -897.895)"/></g><g transform="translate(46.329 80.97)"><path class="ah" d="M2173.059,940.993a176.588,176.588,0,0,0-1.164,36.216h-7.74c-.1-1.529-.2-3.122-.3-4.788-1.44-24.983,7.392-47.3,7.392-47.3l3.939-.986S2173.917,935.169,2173.059,940.993Z" transform="translate(-2163.697 -924.13)"/></g><g transform="translate(20.808 98.505)"><path class="ai" d="M2072,1004.551c-.3,5.995-.252,11.318-.252,11.318v0c0,.029-.008.191-.021.459-.012-.1-.025-.2-.037-.3-.959,2.668-2.022,5.569-3.094,8.392a89.915,89.915,0,0,1-.241-9.146c.43-16.807,5.716-25.621,5.716-25.621C2072.862,992.586,2072.281,998.871,2072,1004.551Z" transform="translate(-2068.331 -989.656)"/></g></g></g></svg>