<svg xmlns="http://www.w3.org/2000/svg" xmlns:xlink="http://www.w3.org/1999/xlink" width="455.329" height="311.655" viewBox="0 0 455.329 311.655"><defs><style>.a{fill:#5d9fb4;}.b{fill:#91b3fa;}.c{fill:#06627e;}.d{fill:#557f8b;}.ap,.e,.h,.i,.n,.t,.v{fill:#fff;}.e{opacity:0.47;}.f{fill:url(#a);}.g{fill:url(#b);}.h{opacity:0.37;}.j{fill:url(#c);}.k{fill:url(#d);}.l,.s{fill:#bdd0fb;}.af,.m{fill:url(#e);}.af,.ah,.n,.s{opacity:0.43;}.o{fill:url(#i);}.ad,.ag,.ak,.am,.p{opacity:0.2;}.p{fill:url(#j);}.q{fill:url(#k);}.r{fill:url(#l);}.t{opacity:0.57;}.u{fill:url(#n);}.v{opacity:0.83;}.w{fill:url(#o);}.x{fill:url(#p);}.y{fill:url(#q);}.z{fill:url(#s);}.aa{fill:url(#t);}.ab{fill:#7d97f4;}.ac{fill:url(#y);}.ad{fill:url(#z);}.ae{fill:url(#aa);}.ag{fill:url(#ap);}.ai{fill:url(#ar);}.aj{fill:url(#ay);}.ak{fill:url(#az);}.al{fill:url(#bh);}.am{fill:url(#bi);}.an{fill:url(#bj);}.ao{fill:url(#bo);}.ap{opacity:0.12;}.aq{fill:url(#bp);}</style><linearGradient id="a" x1="0.482" y1="1.105" x2="0.508" y2="-0.183" gradientUnits="objectBoundingBox"><stop offset="0" stop-color="#09005d"/><stop offset="1" stop-color="#1a0f91"/></linearGradient><linearGradient id="b" x1="0.922" y1="-0.287" x2="-0.361" y2="2.167" gradientUnits="objectBoundingBox"><stop offset="0" stop-color="#01e69f"/><stop offset="1" stop-color="#417ee7"/></linearGradient><linearGradient id="c" x1="0.5" y1="-11.018" x2="0.5" y2="-0.015" xlink:href="#a"/><linearGradient id="d" x1="0.874" y1="-0.354" x2="-0.413" y2="2.582" gradientUnits="objectBoundingBox"><stop offset="0" stop-color="#4042e2"/><stop offset="1" stop-color="#4f52ff"/></linearGradient><linearGradient id="e" y1="0.5" x2="1" y2="0.5" gradientUnits="objectBoundingBox"><stop offset="0" stop-color="#dae3fe"/><stop offset="1" stop-color="#e9effd"/></linearGradient><linearGradient id="i" x1="1.988" y1="-2.841" x2="-0.479" y2="2.651" xlink:href="#d"/><linearGradient id="j" x1="33.005" y1="17.773" x2="34.005" y2="17.773" gradientUnits="objectBoundingBox"><stop offset="0" stop-color="#53d8ff"/><stop offset="1" stop-color="#3840f7"/></linearGradient><linearGradient id="k" x1="1.257" y1="-1.365" x2="-0.581" y2="3.163" xlink:href="#d"/><linearGradient id="l" x1="0" y1="0.5" x2="1" y2="0.5" xlink:href="#d"/><linearGradient id="n" x1="0.936" y1="-0.078" x2="-0.19" y2="1.416" gradientUnits="objectBoundingBox"><stop offset="0" stop-color="#01e69f"/><stop offset="1" stop-color="#03b8fa"/></linearGradient><linearGradient id="o" x1="1.214" y1="-0.449" x2="-0.632" y2="2.003" gradientUnits="objectBoundingBox"><stop offset="0" stop-color="#01e69f"/><stop offset="1" stop-color="#01e69f"/></linearGradient><linearGradient id="p" x1="-0.569" y1="1.919" x2="-5.335" y2="8.247" xlink:href="#b"/><linearGradient id="q" x1="-318.14" y1="10.466" x2="-326.14" y2="11.325" xlink:href="#a"/><linearGradient id="s" x1="-30.053" y1="57.442" x2="-30.353" y2="62.183" xlink:href="#d"/><linearGradient id="t" x1="-23.782" y1="39.395" x2="-24.224" y2="42.614" xlink:href="#d"/><linearGradient id="y" x1="1.988" y1="-2.841" x2="-0.479" y2="2.651" xlink:href="#d"/><linearGradient id="z" x1="31.244" y1="19.909" x2="32.244" y2="19.909" xlink:href="#j"/><linearGradient id="aa" x1="1.257" y1="-1.365" x2="-0.581" y2="3.163" xlink:href="#d"/><linearGradient id="ap" x1="28.972" y1="21.75" x2="29.975" y2="21.75" xlink:href="#j"/><linearGradient id="ar" x1="0.879" y1="-0.35" x2="-0.423" y2="2.573" xlink:href="#d"/><linearGradient id="ay" x1="1.988" y1="-2.841" x2="-0.479" y2="2.651" xlink:href="#d"/><linearGradient id="az" x1="26.775" y1="24.63" x2="27.775" y2="24.63" xlink:href="#j"/><linearGradient id="bh" x1="1.988" y1="-2.841" x2="-0.479" y2="2.651" xlink:href="#j"/><linearGradient id="bi" x1="24.309" y1="27.689" x2="25.312" y2="27.689" xlink:href="#j"/><linearGradient id="bj" x1="1.257" y1="-1.365" x2="-0.581" y2="3.163" xlink:href="#j"/><linearGradient id="bo" x1="0.533" y1="-0.195" x2="0.587" y2="-1.321" xlink:href="#a"/><linearGradient id="bp" x1="0.746" y1="-0.181" x2="0.226" y2="1.259" xlink:href="#a"/></defs><g transform="translate(1031.861 -593.236)"><g transform="translate(-1031.861 593.236)"><g transform="translate(0 0)"><path class="a" d="M606.142,286.954c-24.56-12.786,17.162-50.121-18.762-73.587-56.771-37.085-105.047,6.238-121.652,25.007-30.67,34.667-36,71.6-121.069,16.76s-116.579,43.093-90.869,69.89,12.79,27.294-3.3,73.883,46.824,79.565,101.468,50.561,47.111-32.005,119.525-1.688,124.848-6.066,170.552-38.92C733.1,343.394,630.7,299.74,606.142,286.954Z" transform="translate(-223.759 -175.892)"/><g transform="translate(377.654 204.925)"><g transform="translate(0 31.6)"><path class="b" d="M2245.8,1388.08a.307.307,0,0,1-.2-.543q.469-.387.925-.789a.306.306,0,1,1,.4.46q-.462.408-.939.8A.3.3,0,0,1,2245.8,1388.08Z" transform="translate(-2183.247 -1351.714)"/><path class="b" d="M1987.633,1283.845a.307.307,0,0,1-.01-.613c.781-.026,1.572-.078,2.352-.154a.306.306,0,1,1,.06.61c-.792.077-1.6.13-2.39.157Zm-3.86-.066h-.021c-.794-.055-1.6-.134-2.384-.239a.306.306,0,0,1-.264-.344.3.3,0,0,1,.344-.264c.775.1,1.565.181,2.346.234a.306.306,0,0,1-.02.612Zm10.048-.66a.306.306,0,0,1-.06-.607c.765-.154,1.537-.336,2.3-.539a.307.307,0,0,1,.159.592c-.771.206-1.555.39-2.333.547A.3.3,0,0,1,1993.822,1283.12Zm-16.211-.274a.305.305,0,0,1-.071-.008c-.773-.183-1.551-.393-2.313-.624a.307.307,0,0,1,.179-.587c.75.228,1.515.434,2.276.615a.306.306,0,0,1-.07.6Zm22.2-1.454a.307.307,0,0,1-.109-.593l.206-.079c.662-.255,1.326-.533,1.973-.824a.307.307,0,0,1,.252.559c-.657.3-1.331.578-2,.838l-.208.08A.308.308,0,0,1,1999.81,1281.391Zm-28.127-.472a.306.306,0,0,1-.118-.024c-.734-.307-1.468-.641-2.18-.992a.307.307,0,0,1,.271-.55c.7.346,1.422.674,2.146.976a.307.307,0,0,1-.118.589Zm33.756-2.2a.307.307,0,0,1-.154-.572c.678-.393,1.351-.811,2-1.245a.307.307,0,1,1,.34.51c-.661.44-1.345.866-2.034,1.265A.3.3,0,0,1,2005.44,1278.718Zm-39.291-.662a.3.3,0,0,1-.162-.047c-.676-.423-1.346-.871-1.99-1.332a.306.306,0,1,1,.357-.5c.634.454,1.293.895,1.958,1.311a.306.306,0,0,1-.163.566Zm-4.993-3.724a.3.3,0,0,1-.2-.076c-.6-.526-1.184-1.078-1.745-1.639a.306.306,0,1,1,.433-.433c.552.553,1.13,1.1,1.717,1.613a.306.306,0,0,1-.2.536Zm-4.314-4.489a.306.306,0,0,1-.238-.113c-.5-.615-.989-1.255-1.451-1.9a.306.306,0,0,1,.5-.356c.455.637.936,1.267,1.428,1.872a.307.307,0,0,1-.237.5Zm-3.519-5.139a.307.307,0,0,1-.266-.155c-.393-.691-.77-1.4-1.12-2.117a.307.307,0,0,1,.551-.269c.344.7.715,1.4,1.1,2.083a.306.306,0,0,1-.115.418A.3.3,0,0,1,1953.323,1264.7Zm-2.634-5.647a.306.306,0,0,1-.287-.2c-.278-.749-.535-1.513-.764-2.271a.306.306,0,0,1,.587-.177c.226.746.478,1.5.752,2.235a.307.307,0,0,1-.287.413Zm-1.687-6a.307.307,0,0,1-.3-.248c-.151-.777-.281-1.572-.384-2.365a.306.306,0,1,1,.608-.08c.1.78.229,1.562.378,2.327a.307.307,0,0,1-.242.359A.3.3,0,0,1,1949,1253.058Zm-.683-6.195a.306.306,0,0,1-.306-.3q-.014-.516-.014-1.03c0-.457.008-.916.025-1.365a.306.306,0,0,1,.306-.3h.011a.306.306,0,0,1,.295.317c-.016.442-.024.894-.024,1.343q0,.506.014,1.014a.306.306,0,0,1-.3.315Z" transform="translate(-1947.999 -1238.796)"/><path class="b" d="M1950.037,1221.427l-.042,0a.307.307,0,0,1-.261-.346q.085-.612.19-1.22a.307.307,0,0,1,.6.1q-.1.6-.187,1.2A.307.307,0,0,1,1950.037,1221.427Z" transform="translate(-1949.369 -1219.604)"/></g><g transform="translate(15.387)"><path class="b" d="M2021.841,1102.2a.306.306,0,0,1-.183-.553q.5-.367,1-.719a.306.306,0,1,1,.348.5q-.5.346-.989.707A.3.3,0,0,1,2021.841,1102.2Z" transform="translate(-2021.534 -1094.116)"/><path class="b" d="M2099.306,1110.111h-.024a.306.306,0,0,1-.281-.329c.063-.823.1-1.66.108-2.487a.307.307,0,0,1,.307-.3h0a.307.307,0,0,1,.3.31c-.009.841-.046,1.691-.111,2.528A.306.306,0,0,1,2099.306,1110.111Zm-.07-6.581a.306.306,0,0,1-.3-.277c-.081-.821-.19-1.651-.325-2.468a.306.306,0,0,1,.6-.1c.138.83.249,1.674.331,2.509a.307.307,0,0,1-.275.335Zm-1.21-6.469a.306.306,0,0,1-.295-.224c-.222-.794-.473-1.594-.747-2.376a.306.306,0,1,1,.578-.2c.279.795.534,1.607.759,2.414a.307.307,0,0,1-.213.378A.316.316,0,0,1,2098.026,1097.061Zm-2.3-6.166a.306.306,0,0,1-.277-.175c-.354-.747-.738-1.492-1.14-2.213a.306.306,0,1,1,.535-.3c.408.733.8,1.49,1.158,2.249a.307.307,0,0,1-.145.408A.311.311,0,0,1,2095.724,1090.894Zm-3.322-5.68a.306.306,0,0,1-.25-.129c-.478-.674-.984-1.341-1.5-1.981a.306.306,0,1,1,.475-.387c.529.651,1.044,1.328,1.529,2.013a.306.306,0,0,1-.249.484Zm-4.255-5.014a.306.306,0,0,1-.216-.089c-.586-.58-1.2-1.149-1.826-1.691a.307.307,0,0,1,.4-.463c.635.55,1.26,1.128,1.856,1.718a.307.307,0,0,1-.216.524Zm-5.06-4.2a.306.306,0,0,1-.175-.055c-.68-.471-1.383-.926-2.091-1.351a.307.307,0,0,1,.316-.526c.719.432,1.434.894,2.125,1.373a.307.307,0,0,1-.175.558Zm-39.881-2.178a.306.306,0,0,1-.146-.576c.737-.4,1.5-.781,2.262-1.132a.306.306,0,0,1,.256.557c-.752.346-1.5.721-2.226,1.114A.3.3,0,0,1,2043.206,1073.819Zm34.171-1.093a.3.3,0,0,1-.129-.029c-.75-.347-1.521-.675-2.292-.972a.306.306,0,0,1,.221-.572c.784.3,1.567.635,2.329.988a.307.307,0,0,1-.129.585Zm-28.138-1.537a.307.307,0,0,1-.1-.6c.8-.269,1.612-.515,2.422-.731a.306.306,0,0,1,.157.592c-.8.212-1.6.454-2.384.719A.3.3,0,0,1,2049.24,1071.189Zm21.952-.707a.305.305,0,0,1-.08-.01c-.8-.214-1.614-.4-2.425-.565a.307.307,0,0,1,.119-.6c.824.163,1.653.357,2.464.574a.306.306,0,0,1-.079.6Zm-15.558-.855a.307.307,0,0,1-.046-.609c.831-.128,1.676-.229,2.513-.3a.3.3,0,0,1,.332.279.307.307,0,0,1-.279.332c-.823.071-1.655.171-2.472.3A.343.343,0,0,1,2055.633,1069.627Zm9.077-.292h-.027c-.823-.073-1.66-.119-2.486-.137a.306.306,0,0,1-.3-.313.311.311,0,0,1,.313-.3c.84.019,1.69.065,2.527.14a.306.306,0,0,1-.027.612Z" transform="translate(-2038.429 -1068.584)"/><path class="b" d="M2307.583,1285.354a.329.329,0,0,1-.066-.007.307.307,0,0,1-.233-.365q.132-.593.243-1.191a.306.306,0,1,1,.6.113q-.114.607-.246,1.21A.306.306,0,0,1,2307.583,1285.354Z" transform="translate(-2247.486 -1238.562)"/></g><g transform="translate(9.317 9.694)"><path class="c" d="M2049.063,1153.36a.456.456,0,0,0-.09-.522l-3.943-3.912a24.2,24.2,0,0,0,.446-7.826l4.358-3.439a.456.456,0,0,0,.148-.509l-2.2-6.29a.457.457,0,0,0-.433-.306l-5.551.022a24.194,24.194,0,0,0-5.222-5.846l.65-5.516a.457.457,0,0,0-.255-.464l-6-2.894a.457.457,0,0,0-.522.09l-3.912,3.943a24.193,24.193,0,0,0-7.826-.446l-3.439-4.357a.457.457,0,0,0-.509-.148l-6.29,2.2a.456.456,0,0,0-.306.433l.022,5.551a24.2,24.2,0,0,0-5.846,5.222l-5.516-.65a.457.457,0,0,0-.464.255l-2.894,6a.456.456,0,0,0,.089.522l3.944,3.912a24.185,24.185,0,0,0-.447,7.826l-4.358,3.439a.456.456,0,0,0-.148.509l2.2,6.29a.457.457,0,0,0,.433.306l5.551-.022a24.187,24.187,0,0,0,5.223,5.846l-.65,5.516a.457.457,0,0,0,.255.465l6,2.894a.456.456,0,0,0,.522-.09l3.912-3.943a24.193,24.193,0,0,0,7.826.446l3.439,4.358a.457.457,0,0,0,.509.148l6.29-2.2a.456.456,0,0,0,.306-.433l-.022-5.551a24.2,24.2,0,0,0,5.847-5.222l5.516.65a.456.456,0,0,0,.464-.255Z" transform="translate(-1992.525 -1114.913)"/><g transform="translate(22.517 22.517)"><path class="b" d="M2106.368,1234.967a6.22,6.22,0,1,1,3.418-1.027A6.221,6.221,0,0,1,2106.368,1234.967Zm-.021-11.832a5.623,5.623,0,1,0,1.137.116A5.672,5.672,0,0,0,2106.347,1223.135Z" transform="translate(-2100.134 -1222.522)"/></g><path class="b" d="M2067.347,1206.464a16.373,16.373,0,1,1,16.208-18.687q.021.148.04.3a.333.333,0,0,1,0,.038.306.306,0,0,1-.611.038,15.841,15.841,0,0,0-.767-3.269,15.764,15.764,0,1,0-2.78,15.308.306.306,0,0,1,.471.392,16.4,16.4,0,0,1-12.564,5.884Z" transform="translate(-2038.723 -1161.39)"/></g></g><g transform="translate(0 197.676)"><path class="d" d="M143.5,1035.587a.936.936,0,0,1,.689-1.643c9.179.765,33.553,5.526,50.916,33.872,21.785,35.564,37.93,42.036,52.067,42.581a46.276,46.276,0,0,1-31.035-.471C174.9,1094.6,155.834,1045.975,143.5,1035.587Z" transform="translate(-143.166 -1033.941)"/><path class="e" d="M202.215,1073.005a36.921,36.921,0,0,1,5.027,3.008l.6.412.589.432,1.179.864q1.154.9,2.3,1.808a97.87,97.87,0,0,1,8.518,8c2.723,2.791,5.192,5.809,7.645,8.834l1.769,2.324.885,1.162.442.581.422.6,3.371,4.755a117.768,117.768,0,0,0,14.945,17.5q4.125,4.026,8.607,7.667c.74.612,1.5,1.2,2.25,1.8s1.525,1.168,2.292,1.746,1.548,1.135,2.337,1.679,1.582,1.094,2.364,1.6l.022.014a.905.905,0,0,1-.963,1.533c-1.7-1.043-3.294-2.143-4.885-3.288-.787-.579-1.573-1.158-2.35-1.748s-1.548-1.191-2.307-1.8c-3.044-2.444-5.956-5.049-8.755-7.77-1.418-1.342-2.758-2.762-4.107-4.174-.667-.713-1.3-1.453-1.958-2.177l-.975-1.093c-.326-.363-.627-.749-.942-1.122l-1.868-2.256c-.615-.758-1.191-1.548-1.788-2.32l-.888-1.165c-.146-.2-.3-.386-.44-.585l-.419-.6-1.675-2.4c-.565-.8-1.1-1.6-1.641-2.395l-1.624-2.39-.406-.6-.426-.583-.852-1.166-1.7-2.333-1.782-2.274c-.6-.755-1.178-1.525-1.809-2.252l-1.861-2.209c-.305-.373-.628-.73-.949-1.088l-.962-1.077a96.822,96.822,0,0,0-8.173-8.157q-1.09-.946-2.194-1.878l-1.128-.9-.565-.451-.579-.431c-.388-.285-.769-.58-1.162-.857l-1.186-.821c-.8-.523-1.613-1.062-2.448-1.5l-.011-.006a.243.243,0,0,1,.218-.433Z" transform="translate(-189.584 -1064.813)"/></g><g transform="translate(25.878 167.042)"><path class="c" d="M266.86,888.148c3.926,14.06,30.071,99.953,84.9,107.927a2.254,2.254,0,0,0,2.459-2.947c-3.4-10.121-16-41.523-49.433-70.828-24.121-21.144-33.9-31.134-37.116-34.6A.477.477,0,0,0,266.86,888.148Z" transform="translate(-266.841 -887.54)"/><path class="e" d="M418.676,1094.172a.521.521,0,0,1-.34-.115c-20.632-16.57-38.419-36.732-49.709-50.728-12.128-15.037-20.206-27.241-20.285-28.1a.523.523,0,0,1,1.033-.156c.716,1.865,30.43,46.694,69.616,78.165a.523.523,0,0,1-.315.931Zm-69.293-79.038h0Z" transform="translate(-331.286 -988.061)"/></g><g transform="translate(354.771 37.199)"><path class="c" d="M1838.639,364.031s24.672-3.657,37.922-30.515c12.879-26.105,24.556-64.569,58.815-66.5a1.324,1.324,0,0,1,1.093,2.168c-4.37,5.253-15.134,19.162-21.4,35.628C1907.079,325.825,1877.335,372.323,1838.639,364.031Z" transform="translate(-1838.639 -267.008)"/><path class="e" d="M1999.406,304.951l-.067.022-.092.033c-.061.022-.125.046-.19.073-.129.049-.259.1-.389.161-.259.112-.519.23-.776.356-.515.249-1.024.518-1.526.8a32.613,32.613,0,0,0-2.916,1.87c-.944.67-1.845,1.4-2.721,2.158s-1.716,1.56-2.529,2.387a47.308,47.308,0,0,0-8.016,11.358,57.978,57.978,0,0,0-2.783,6.419l-.581,1.654-.525,1.673-.53,1.7c-.175.569-.353,1.137-.549,1.7a107.444,107.444,0,0,1-5.408,13.19l-.791,1.6-.825,1.58c-.271.529-.559,1.048-.846,1.568s-.566,1.044-.868,1.556c-1.173,2.066-2.428,4.082-3.727,6.07s-2.7,3.906-4.137,5.8-2.967,3.706-4.542,5.48-3.244,3.464-4.964,5.1a70.34,70.34,0,0,1-5.416,4.607,57.326,57.326,0,0,1-5.878,3.988,50.775,50.775,0,0,1-6.332,3.194,50.668,50.668,0,0,0,6.239-3.346,57.1,57.1,0,0,0,5.75-4.116q2.746-2.228,5.275-4.7t4.829-5.156q2.293-2.687,4.4-5.525,2.083-2.852,3.99-5.825c1.258-1.989,2.473-4.006,3.6-6.069.292-.511.557-1.036.837-1.553s.555-1.037.815-1.565l.793-1.576.76-1.592a106.294,106.294,0,0,0,5.153-13.113c.185-.557.352-1.12.516-1.683s.327-1.119.505-1.694l.523-1.714.581-1.7a59.376,59.376,0,0,1,2.8-6.607,48.972,48.972,0,0,1,3.665-6.188,45.878,45.878,0,0,1,4.585-5.56,38.462,38.462,0,0,1,5.481-4.7,34.092,34.092,0,0,1,3.07-1.926c.263-.15.535-.285.8-.429s.543-.272.822-.4.557-.251.841-.368c.143-.058.286-.116.434-.17.073-.028.147-.055.226-.081l.117-.04.145-.044a.7.7,0,0,1,.424,1.332Z" transform="translate(-1912.055 -295.918)"/></g><g transform="translate(362.319 98.271)"><path class="d" d="M1963.639,560.381a.724.724,0,0,0-.306-1.343c-7.094-.639-26.293-.257-43.292,19.023-21.327,24.19-34.487,26.97-45.328,25.5a35.784,35.784,0,0,0,23.7,3.772C1931.864,601.154,1952.859,566.651,1963.639,560.381Z" transform="translate(-1874.714 -558.879)"/><path class="e" d="M2027.919,582.4c-.694.223-1.384.525-2.064.817l-1.013.468c-.336.158-.666.332-1,.5l-.5.251-.49.268-.98.535q-.965.563-1.921,1.138a74.864,74.864,0,0,0-7.311,5.125l-.876.692c-.292.23-.586.459-.868.7l-1.711,1.435c-.578.469-1.122.979-1.678,1.474l-1.66,1.495-1.609,1.55-.8.775-.4.387-.389.4-1.555,1.6c-.519.535-1.031,1.068-1.569,1.606l-1.6,1.609-.4.4c-.134.134-.276.258-.413.387l-.832.769c-.558.509-1.1,1.034-1.671,1.529l-1.723,1.47c-.289.242-.57.5-.866.729l-.888.7c-.594.465-1.179.944-1.781,1.4-1.215.9-2.425,1.8-3.684,2.632-2.494,1.7-5.059,3.3-7.7,4.753-.66.366-1.332.711-2,1.067s-1.347.683-2.023,1.019c-1.364.66-2.724,1.286-4.158,1.854a.7.7,0,0,1-.531-1.3l.02-.008c.663-.279,1.347-.584,2.013-.9s1.337-.642,2-.968,1.322-.676,1.978-1.024,1.308-.7,1.954-1.073c2.6-1.445,5.125-3.016,7.576-4.694a91.058,91.058,0,0,0,13.713-11.338l3.2-3.173.4-.4.415-.384.829-.768,1.657-1.535c2.271-1.978,4.553-3.948,7-5.711a75.652,75.652,0,0,1,7.552-4.956q.991-.543,1.99-1.071l1.013-.5.506-.25.515-.234a28.54,28.54,0,0,1,4.229-1.622.188.188,0,0,1,.109.359Z" transform="translate(-1949.135 -577.186)"/></g><g transform="translate(74.786 95.607)"><g transform="translate(14.138)"><path class="f" d="M849.47,715.295a4.989,4.989,0,0,1-4.977,4.972H575.355a4.989,4.989,0,0,1-4.977-4.972l-2.24-154.667c0-2.735,3.222-8.074,9.127-7.672L840.3,546.15a12.542,12.542,0,0,1,12.87,12.828Z" transform="translate(-568.138 -546.146)"/><path class="g" d="M870.575,732.813a4.722,4.722,0,0,1-4.709,4.708h-258a4.723,4.723,0,0,1-4.709-4.708l-2.113-140.408c.249-8.449,7.657-11.486,12.147-11.307l252.092-6.763a8.814,8.814,0,0,1,9.043,9.02Z" transform="translate(-594.157 -568.434)"/><g transform="translate(10.381 13.517)"><path class="h" d="M622.492,965.623a.356.356,0,0,1-.355-.35l-.167-11.387a.356.356,0,0,1,.35-.361h.005a.356.356,0,0,1,.355.35l.167,11.387a.356.356,0,0,1-.35.361Z" transform="translate(-621.087 -881.8)"/><path class="i" d="M618.746,666.665a.356.356,0,0,1-.356-.35l-.64-43.611a9.21,9.21,0,0,1,2.659-6.9c3.189-3.055,8.177-2.9,8.39-2.893l80.506-2.161a.356.356,0,0,1,.019.711L628.8,613.617c-.225-.01-4.923-.153-7.9,2.7a8.523,8.523,0,0,0-2.44,6.387l.641,43.6a.356.356,0,0,1-.35.361Z" transform="translate(-617.75 -610.745)"/></g><path class="h" d="M663.5,764.893c.27-11.6.169-114.369-.5-123.244s13.157-10.54,34.378-11.538,200.277-4.953,204.888-5.327c10.363-.84,12.508,14.649,11.471,48.275-.779,25.263-2.07,66.88-2.663,86.018a10.561,10.561,0,0,1-10.536,10.236c-43.088.118-208.232.592-219.226.919C668.665,770.608,663.394,769.495,663.5,764.893Z" transform="translate(-643.136 -608.303)"/></g><rect class="j" width="317.304" height="13.59" rx="6.795" transform="translate(0 173.371)"/></g><g transform="translate(38.817 27.282)"><rect class="k" width="121.179" height="125.958" rx="43.373"/><rect class="l" width="109.715" height="118.932" rx="43.373" transform="translate(5.837 3.691)"/><rect class="m" width="72.404" height="7.547" rx="3.774" transform="translate(9.527 7.029)"/><g transform="translate(85.5 7.996)"><path class="m" d="M740.375,263.652a2.915,2.915,0,1,1,3.088-2.91A3.007,3.007,0,0,1,740.375,263.652Zm0-5.011a2.108,2.108,0,1,0,2.279,2.1A2.2,2.2,0,0,0,740.375,258.641Z" transform="translate(-737.286 -257.832)"/><path class="m" d="M790.333,263.652a2.915,2.915,0,1,1,3.088-2.91A3.007,3.007,0,0,1,790.333,263.652Zm0-5.011a2.108,2.108,0,1,0,2.279,2.1A2.2,2.2,0,0,0,790.333,258.641Z" transform="translate(-776.791 -257.832)"/><path class="m" d="M840.291,263.652a2.915,2.915,0,1,1,3.089-2.91A3.007,3.007,0,0,1,840.291,263.652Zm0-5.011a2.108,2.108,0,1,0,2.28,2.1A2.2,2.2,0,0,0,840.291,258.641Z" transform="translate(-816.296 -257.832)"/></g><path class="n" d="M452.186,267.178H387.925a1.588,1.588,0,1,1,0-3.176h64.261a1.588,1.588,0,1,1,0,3.176Z" transform="translate(-374.271 -254.715)"/><g transform="translate(5.843 4.607)"><path class="o" d="M364.078,290.3l-7.263,7.394a.746.746,0,0,0,.052,1.094l.055.046a.693.693,0,0,0,.979-.089l6.651-8.021Z" transform="translate(-356.601 -280.12)"/><ellipse class="p" cx="4.808" cy="4.721" rx="4.808" ry="4.721" transform="translate(4.226 4.142) rotate(-25.513)"/><path class="q" d="M384.835,247.225a5.254,5.254,0,1,0,7.091,2.437A5.3,5.3,0,0,0,384.835,247.225Zm4.193,8.786A4.482,4.482,0,1,1,391.217,250,4.524,4.524,0,0,1,389.028,256.011Z" transform="translate(-376.499 -245.635)"/></g><path class="r" d="M488.752,369.9H399.524a1.854,1.854,0,1,1,0-3.708h89.228a1.854,1.854,0,1,1,0,3.708Z" transform="translate(-383.233 -335.522)"/><path class="r" d="M523.461,334.9h-62.1a1.854,1.854,0,1,1,0-3.708h62.1a1.854,1.854,0,1,1,0,3.708Z" transform="translate(-432.133 -307.845)"/><g transform="translate(16.502 40.36)"><rect class="b" width="89.215" height="74.478" rx="25.137"/><g transform="translate(5.713 3.504)"><path class="s" d="M510.815,432.954H437.2a1.854,1.854,0,0,1,0-3.708h73.614a1.854,1.854,0,0,1,0,3.708Z" transform="translate(-435.241 -429.246)"/><path class="s" d="M510.494,466.787H436.88a1.854,1.854,0,0,1,0-3.708h73.614a1.854,1.854,0,0,1,0,3.708Z" transform="translate(-434.987 -456)"/><path class="s" d="M511.505,502.755H437.891a1.854,1.854,0,0,1,0-3.708h73.614a1.854,1.854,0,1,1,0,3.708Z" transform="translate(-435.787 -484.441)"/><path class="s" d="M511.184,536.588H437.57a1.854,1.854,0,0,1,0-3.708h73.614a1.854,1.854,0,0,1,0,3.708Z" transform="translate(-435.533 -511.195)"/><path class="s" d="M510.642,567.521H437.028a1.854,1.854,0,1,1,0-3.708h73.614a1.854,1.854,0,0,1,0,3.708Z" transform="translate(-435.105 -535.655)"/><path class="s" d="M510.321,601.354H436.707a1.854,1.854,0,1,1,0-3.708h73.614a1.854,1.854,0,1,1,0,3.708Z" transform="translate(-434.851 -562.409)"/><path class="s" d="M511.332,637.322H437.718a1.854,1.854,0,0,1,0-3.708h73.614a1.854,1.854,0,1,1,0,3.708Z" transform="translate(-435.65 -590.851)"/><path class="s" d="M511.011,671.155H437.4a1.854,1.854,0,1,1,0-3.708h73.614a1.854,1.854,0,0,1,0,3.708Z" transform="translate(-435.396 -617.604)"/><path class="s" d="M510.31,703.127H436.7a1.854,1.854,0,1,1,0-3.708H510.31a1.854,1.854,0,0,1,0,3.708Z" transform="translate(-434.842 -642.886)"/><path class="s" d="M511.32,739.1H437.706a1.854,1.854,0,1,1,0-3.708H511.32a1.854,1.854,0,1,1,0,3.708Z" transform="translate(-435.641 -671.328)"/></g></g></g><g transform="translate(304.597)"><g transform="translate(0 7.502)"><path class="t" d="M1700.228,278.145a.506.506,0,0,1,0-1.011c.464,0,.935-.015,1.4-.032a.506.506,0,1,1,.037,1.01c-.475.017-.955.028-1.427.033Zm-1.415-.006h-.009c-.478-.009-.959-.024-1.429-.045a.506.506,0,1,1,.046-1.01c.461.02.932.035,1.4.043a.506.506,0,0,1-.009,1.011Zm4.243-.1a.506.506,0,0,1-.032-1.01c.463-.03.934-.066,1.4-.108a.506.506,0,1,1,.091,1.008c-.473.043-.952.08-1.425.11Zm-7.07-.029h-.037c-.477-.034-.956-.075-1.424-.122a.506.506,0,1,1,.1-1.006c.459.046.929.086,1.4.119a.506.506,0,0,1-.036,1.01Zm9.889-.227a.506.506,0,0,1-.059-1.008c.468-.056.936-.117,1.39-.184a.506.506,0,1,1,.146,1c-.463.068-.94.131-1.417.188A.538.538,0,0,1,1705.874,277.787Zm-12.706-.052a.513.513,0,0,1-.064,0c-.474-.06-.951-.127-1.416-.2a.506.506,0,0,1,.155-1c.456.071.923.137,1.388.2a.506.506,0,0,1-.063,1.008Zm15.507-.358a.506.506,0,0,1-.086-1c.459-.08.923-.168,1.378-.26a.506.506,0,1,1,.2.991c-.463.094-.936.183-1.4.265A.5.5,0,0,1,1708.675,277.377Zm-18.3-.076a.508.508,0,0,1-.092-.008c-.465-.085-.937-.178-1.4-.277a.506.506,0,1,1,.209-.989c.457.1.919.188,1.375.271a.506.506,0,0,1-.09,1Zm21.079-.487a.506.506,0,0,1-.114-1c.452-.105.91-.218,1.361-.335a.506.506,0,0,1,.255.978c-.46.12-.927.235-1.388.342A.5.5,0,0,1,1711.45,276.814Zm-23.848-.1a.5.5,0,0,1-.119-.014c-.462-.111-.928-.23-1.385-.354a.506.506,0,1,1,.264-.976c.448.121.905.237,1.358.346a.506.506,0,0,1-.118,1Zm26.588-.617a.506.506,0,0,1-.141-.991c.445-.13.9-.267,1.34-.41a.506.506,0,0,1,.309.963c-.453.145-.913.286-1.367.418A.5.5,0,0,1,1714.189,276.1Zm-29.321-.121a.5.5,0,0,1-.145-.022c-.455-.136-.914-.281-1.364-.43a.506.506,0,0,1,.318-.96c.441.146.891.287,1.337.421a.506.506,0,0,1-.145.99Zm32.016-.744a.506.506,0,0,1-.167-.983c.437-.154.88-.317,1.315-.483a.506.506,0,1,1,.362.945c-.444.17-.9.336-1.342.493A.507.507,0,0,1,1716.884,275.234Zm-34.709-.145a.5.5,0,0,1-.172-.03c-.45-.162-.9-.333-1.342-.506a.506.506,0,0,1,.37-.941c.431.17.874.336,1.315.5a.506.506,0,0,1-.172.982Zm37.348-.865a.506.506,0,0,1-.194-.973c.427-.177.858-.363,1.283-.553a.506.506,0,1,1,.413.923c-.433.194-.873.383-1.308.564A.5.5,0,0,1,1719.523,274.223Zm-39.991-.173a.5.5,0,0,1-.2-.04c-.441-.187-.882-.382-1.311-.579a.506.506,0,1,1,.421-.919c.421.193.854.384,1.285.567a.506.506,0,0,1-.2.971Zm42.567-.98a.506.506,0,0,1-.22-.961c.419-.2.84-.411,1.251-.623a.506.506,0,1,1,.463.9c-.419.216-.849.43-1.276.635A.5.5,0,0,1,1722.1,273.07Zm-45.147-.2a.5.5,0,0,1-.223-.052c-.43-.212-.86-.43-1.277-.65a.506.506,0,1,1,.472-.895c.409.215.83.43,1.252.637a.506.506,0,0,1-.224.96Zm47.657-1.091a.506.506,0,0,1-.244-.949c.4-.223.814-.455,1.216-.691a.506.506,0,1,1,.511.872c-.41.24-.827.478-1.24.7A.5.5,0,0,1,1724.61,271.777Zm-50.167-.231a.5.5,0,0,1-.247-.065c-.415-.233-.831-.475-1.238-.718a.506.506,0,0,1,.519-.868c.4.239.807.476,1.214.7a.506.506,0,0,1-.248.946Zm52.6-1.2a.506.506,0,0,1-.268-.935c.393-.245.789-.5,1.177-.757a.506.506,0,1,1,.558.843c-.4.263-.8.522-1.2.772A.5.5,0,0,1,1727.047,270.348Zm-55.036-.258a.5.5,0,0,1-.271-.079c-.4-.253-.8-.517-1.2-.785a.506.506,0,0,1,.566-.838c.389.263.784.522,1.173.77a.506.506,0,0,1-.272.932Zm57.392-1.3a.506.506,0,0,1-.291-.919c.379-.266.76-.542,1.134-.82a.506.506,0,0,1,.6.811c-.382.284-.771.565-1.157.836A.5.5,0,0,1,1729.4,268.787Zm-59.74-.285a.5.5,0,0,1-.294-.095c-.386-.277-.773-.562-1.151-.849a.506.506,0,0,1,.611-.806c.371.281.751.561,1.129.833a.506.506,0,0,1-.295.917Zm62.009-1.4a.506.506,0,0,1-.313-.9c.365-.287.731-.584,1.089-.881a.506.506,0,1,1,.647.777c-.365.3-.738.606-1.11.9A.5.5,0,0,1,1731.672,267.1Zm-64.265-.309a.5.5,0,0,1-.316-.112c-.367-.295-.738-.6-1.1-.91a.506.506,0,1,1,.654-.771c.358.3.722.6,1.082.893a.506.506,0,0,1-.317.9Zm66.439-1.5a.506.506,0,0,1-.334-.886c.35-.307.7-.624,1.04-.939a.506.506,0,0,1,.688.741c-.347.322-.7.645-1.06.958A.5.5,0,0,1,1733.846,265.289Zm-68.6-.332a.5.5,0,0,1-.337-.129c-.354-.317-.708-.643-1.051-.969a.506.506,0,1,1,.7-.734c.337.319.684.639,1.031.95a.506.506,0,0,1-.338.882Zm70.672-1.593a.506.506,0,0,1-.354-.867c.332-.326.664-.66.987-.995a.506.506,0,1,1,.727.7c-.329.341-.668.683-1.006,1.015A.5.5,0,0,1,1735.919,263.363Zm-72.727-.353a.5.5,0,0,1-.358-.148c-.334-.334-.669-.679-1-1.024a.506.506,0,1,1,.734-.7c.321.339.65.677.978,1a.506.506,0,0,1-.358.863Zm74.693-1.684a.506.506,0,0,1-.373-.847c.312-.341.625-.693.932-1.047a.506.506,0,1,1,.765.662c-.312.361-.632.721-.95,1.068A.5.5,0,0,1,1737.885,261.327Zm-76.638-.371a.5.5,0,0,1-.377-.168c-.317-.353-.633-.716-.939-1.076a.506.506,0,0,1,.771-.654c.3.354.61.709.921,1.056a.506.506,0,0,1-.376.843Zm78.491-1.77a.506.506,0,0,1-.391-.826c.294-.359.588-.729.874-1.1a.506.506,0,0,1,.8.619c-.291.376-.591.752-.891,1.119A.5.5,0,0,1,1739.738,259.185Zm-80.322-.387a.5.5,0,0,1-.395-.189c-.3-.369-.591-.747-.879-1.126a.506.506,0,0,1,.806-.612c.282.371.572.743.862,1.1a.506.506,0,0,1-.394.822Zm82.056-1.853a.506.506,0,0,1-.408-.8c.274-.374.547-.759.813-1.143a.506.506,0,1,1,.832.574c-.271.392-.55.784-.829,1.166A.505.505,0,0,1,1741.472,256.945Zm-83.765-.4a.505.505,0,0,1-.411-.211c-.275-.384-.549-.778-.816-1.171a.506.506,0,0,1,.838-.567c.261.386.531.773.8,1.149a.506.506,0,0,1-.411.8Zm85.375-1.933a.506.506,0,0,1-.423-.781c.255-.391.506-.79.749-1.187a.506.506,0,1,1,.863.528c-.248.4-.5.812-.764,1.21A.505.505,0,0,1,1743.081,254.613Zm-86.958-.409a.506.506,0,0,1-.427-.234c-.255-.4-.508-.809-.75-1.214a.506.506,0,0,1,.868-.52c.238.4.485.8.736,1.19a.506.506,0,0,1-.426.777Zm88.438-2.009a.506.506,0,0,1-.438-.758c.232-.4.461-.815.683-1.226a.506.506,0,0,1,.89.48c-.226.42-.461.841-.7,1.251A.506.506,0,0,1,1744.562,252.195Zm-89.891-.414a.506.506,0,0,1-.441-.258c-.232-.413-.462-.835-.682-1.253a.506.506,0,0,1,.895-.472c.216.41.441.823.669,1.228a.506.506,0,0,1-.44.754Zm91.237-2.082a.506.506,0,0,1-.451-.733c.209-.416.416-.841.615-1.263a.506.506,0,0,1,.915.43c-.2.431-.413.864-.627,1.288A.506.506,0,0,1,1745.907,249.7Zm-92.554-.416a.506.506,0,0,1-.454-.282c-.209-.425-.415-.858-.612-1.287a.506.506,0,1,1,.919-.422c.193.421.395.846.6,1.262a.506.506,0,0,1-.453.729Zm93.761-2.152a.506.506,0,0,1-.463-.708c.186-.427.37-.863.544-1.3a.506.506,0,0,1,.938.379c-.179.442-.365.886-.555,1.321A.506.506,0,0,1,1747.114,247.131Zm-94.939-.413a.506.506,0,0,1-.465-.308c-.186-.435-.367-.879-.54-1.318a.506.506,0,1,1,.941-.371c.17.431.348.865.53,1.292a.506.506,0,0,1-.465.7Zm96-2.219a.506.506,0,0,1-.474-.682c.164-.439.323-.885.472-1.325a.506.506,0,0,1,.957.326c-.153.448-.315.9-.482,1.351A.506.506,0,0,1,1748.178,244.5Zm-97.039-.41a.506.506,0,0,1-.475-.334c-.162-.447-.32-.9-.469-1.35a.506.506,0,0,1,.96-.318c.146.44.3.885.459,1.324a.506.506,0,0,1-.475.678Zm97.956-2.278a.507.507,0,0,1-.483-.656c.137-.443.271-.895.4-1.344a.506.506,0,1,1,.974.273c-.129.459-.265.92-.4,1.371A.506.506,0,0,1,1749.1,241.811Zm-98.847-.409a.506.506,0,0,1-.484-.36c-.136-.452-.269-.915-.394-1.374a.506.506,0,1,1,.976-.265c.123.451.252.9.386,1.347a.506.506,0,0,1-.484.652Zm99.612-2.317a.5.5,0,0,1-.123-.015.505.505,0,0,1-.368-.613c.114-.454.222-.913.322-1.364a.506.506,0,1,1,.987.219c-.1.461-.213.929-.329,1.391A.506.506,0,0,1,1749.86,239.085Zm-100.354-.414a.506.506,0,0,1-.491-.387c-.112-.462-.219-.931-.317-1.394a.506.506,0,1,1,.989-.211c.1.454.2.914.311,1.367a.505.505,0,0,1-.372.61A.513.513,0,0,1,1649.506,238.67Zm100.966-2.349a.526.526,0,0,1-.1-.009.506.506,0,0,1-.4-.592c.088-.457.171-.921.246-1.38a.506.506,0,0,1,1,.164c-.077.468-.162.942-.251,1.407A.506.506,0,0,1,1750.473,236.321Zm-101.556-.42a.506.506,0,0,1-.5-.414c-.086-.466-.167-.941-.24-1.409a.506.506,0,0,1,1-.156c.072.46.151.924.235,1.382a.506.506,0,0,1-.406.589A.5.5,0,0,1,1648.916,235.9Zm102.016-2.374a.482.482,0,0,1-.069,0,.506.506,0,0,1-.433-.569c.063-.461.12-.929.171-1.391a.506.506,0,0,1,1.005.109c-.051.472-.11.949-.174,1.419A.506.506,0,0,1,1750.932,233.528ZM1648.48,233.1a.506.506,0,0,1-.5-.441c-.06-.472-.115-.95-.162-1.42a.506.506,0,0,1,1.006-.1c.047.462.1.93.159,1.393a.506.506,0,0,1-.437.566A.526.526,0,0,1,1648.48,233.1Zm102.759-2.391-.042,0a.506.506,0,0,1-.463-.545c.038-.463.069-.933.095-1.4a.506.506,0,0,1,1.01.055c-.026.475-.058.954-.1,1.426A.506.506,0,0,1,1751.239,230.714Zm-103.042-.426a.506.506,0,0,1-.5-.469c-.034-.47-.063-.95-.085-1.426a.506.506,0,0,1,1.01-.047c.021.467.049.938.083,1.4a.505.505,0,0,1-.467.541Zm103.194-2.4h-.014a.506.506,0,0,1-.492-.519c.012-.463.019-.935.019-1.4a.5.5,0,0,0,0-.552c-.005-.465-.016-.936-.034-1.4a.506.506,0,0,1,1.01-.038c.018.473.029.954.034,1.427a.515.515,0,0,0,0,.563c0,.476-.007.956-.019,1.429A.506.506,0,0,1,1751.391,227.887Zm-103.323-.427a.505.505,0,0,1-.505-.5q-.009-.5-.009-1,0-.216,0-.432a.506.506,0,1,1,1.011.008q0,.212,0,.423,0,.49.009.979a.506.506,0,0,1-.5.515Zm.023-2.831h-.018a.505.505,0,0,1-.488-.523c.017-.474.04-.954.069-1.427a.506.506,0,0,1,1.01.063c-.029.464-.052.935-.068,1.4A.506.506,0,0,1,1648.091,224.629Zm103.209-1.542a.506.506,0,0,1-.5-.473c-.03-.466-.067-.936-.109-1.4a.506.506,0,0,1,1.007-.093c.043.471.081.95.112,1.425a.506.506,0,0,1-.472.537ZM1648.267,221.8l-.046,0a.506.506,0,0,1-.459-.549c.042-.472.092-.951.147-1.422a.506.506,0,1,1,1,.118c-.054.462-.1.931-.144,1.394A.506.506,0,0,1,1648.267,221.8Zm102.773-1.535a.506.506,0,0,1-.5-.445c-.055-.461-.117-.928-.186-1.389a.506.506,0,1,1,1-.148c.07.47.133.947.189,1.417a.506.506,0,0,1-.442.562A.538.538,0,0,1,1751.04,220.269ZM1648.6,218.992a.518.518,0,0,1-.073-.005.506.506,0,0,1-.428-.573c.068-.468.143-.943.224-1.412a.506.506,0,0,1,1,.173c-.079.46-.154.925-.22,1.384A.506.506,0,0,1,1648.6,218.992Zm102.031-1.524a.506.506,0,0,1-.5-.418c-.08-.457-.168-.92-.262-1.377a.506.506,0,0,1,.991-.2c.1.466.185.939.266,1.4a.505.505,0,0,1-.41.585A.488.488,0,0,1,1750.627,217.468ZM1649.079,216.2a.5.5,0,0,1-.1-.01.506.506,0,0,1-.4-.6c.094-.463.195-.933.3-1.4a.506.506,0,1,1,.985.227c-.1.455-.2.916-.3,1.37A.506.506,0,0,1,1649.079,216.2Zm100.982-1.509a.506.506,0,0,1-.492-.391c-.106-.453-.219-.911-.337-1.36a.506.506,0,1,1,.978-.257c.12.458.236.925.344,1.388a.505.505,0,0,1-.377.607A.5.5,0,0,1,1750.061,214.695Zm-100.346-1.25a.507.507,0,0,1-.49-.633c.119-.459.246-.922.378-1.379a.506.506,0,0,1,.972.281c-.13.448-.254.9-.371,1.352A.506.506,0,0,1,1649.715,213.445Zm99.628-1.488a.506.506,0,0,1-.485-.364c-.131-.447-.269-.9-.411-1.34a.506.506,0,1,1,.962-.31c.145.451.287.911.42,1.366a.506.506,0,0,1-.486.648Zm-98.841-1.231a.506.506,0,0,1-.482-.66c.145-.453.3-.911.456-1.36a.506.506,0,1,1,.954.334c-.154.441-.3.89-.447,1.334A.506.506,0,0,1,1650.5,210.726Zm97.973-1.463a.506.506,0,0,1-.477-.338c-.154-.437-.317-.88-.485-1.315a.506.506,0,1,1,.944-.363c.171.444.337.9.495,1.341a.506.506,0,0,1-.477.674Zm-97.034-1.217a.506.506,0,0,1-.472-.686c.169-.443.347-.891.53-1.332a.506.506,0,0,1,.934.387c-.179.433-.354.872-.52,1.306A.506.506,0,0,1,1651.441,208.045Zm96.02-1.421a.505.505,0,0,1-.467-.311c-.178-.429-.365-.86-.555-1.283a.506.506,0,1,1,.923-.414c.193.431.384.871.565,1.308a.506.506,0,0,1-.467.7Zm-94.935-1.2a.506.506,0,0,1-.461-.712c.194-.435.4-.872.6-1.3a.506.506,0,1,1,.912.438c-.2.42-.4.849-.59,1.275A.506.506,0,0,1,1652.526,205.422Zm93.78-1.372a.506.506,0,0,1-.456-.286c-.2-.418-.412-.839-.624-1.251a.506.506,0,1,1,.9-.464c.217.42.431.849.637,1.276a.506.506,0,0,1-.455.725Zm-92.552-1.186a.506.506,0,0,1-.449-.737c.217-.423.444-.848.672-1.264a.506.506,0,0,1,.886.487c-.224.408-.446.825-.659,1.24A.506.506,0,0,1,1653.754,202.865Zm91.256-1.323a.506.506,0,0,1-.443-.262c-.223-.4-.456-.813-.692-1.215a.506.506,0,0,1,.872-.513c.241.41.479.827.706,1.24a.505.505,0,0,1-.442.75Zm-89.89-1.162a.506.506,0,0,1-.436-.761c.24-.409.489-.821.741-1.225a.506.506,0,1,1,.858.535c-.246.4-.491.8-.726,1.2A.506.506,0,0,1,1655.12,200.379Zm88.457-1.273a.506.506,0,0,1-.429-.237c-.247-.4-.5-.791-.758-1.176a.506.506,0,0,1,.843-.559c.261.393.521.8.773,1.2a.505.505,0,0,1-.428.774Zm-86.957-1.132a.506.506,0,0,1-.421-.785c.263-.4.534-.795.807-1.182a.506.506,0,0,1,.828.581c-.267.38-.533.77-.791,1.159A.5.5,0,0,1,1656.62,197.974Zm85.394-1.223a.505.505,0,0,1-.414-.214c-.269-.381-.545-.763-.822-1.133a.506.506,0,0,1,.811-.6c.282.378.564.767.838,1.156a.506.506,0,0,1-.413.8Zm-83.765-1.1a.506.506,0,0,1-.405-.808c.283-.381.576-.763.87-1.136a.506.506,0,0,1,.794.626c-.288.365-.575.74-.853,1.114A.505.505,0,0,1,1658.248,195.655Zm82.074-1.171a.505.505,0,0,1-.4-.192c-.29-.367-.587-.733-.882-1.088a.506.506,0,1,1,.776-.648c.3.361.6.734.9,1.109a.505.505,0,0,1-.4.819ZM1660,193.429a.505.505,0,0,1-.388-.829c.305-.367.618-.732.93-1.086a.506.506,0,1,1,.759.668c-.306.348-.613.706-.912,1.065A.5.5,0,0,1,1660,193.429Zm78.509-1.117a.5.5,0,0,1-.38-.171c-.308-.35-.625-.7-.941-1.038a.506.506,0,0,1,.74-.689c.322.346.645.7.959,1.059a.506.506,0,0,1-.379.84Zm-76.639-1.009a.505.505,0,0,1-.37-.85c.324-.349.657-.7.987-1.034a.506.506,0,0,1,.722.709c-.324.33-.65.671-.968,1.014A.5.5,0,0,1,1661.871,191.3Zm74.71-1.062a.5.5,0,0,1-.361-.151c-.325-.33-.66-.662-1-.986a.506.506,0,0,1,.7-.729c.343.33.685.669,1.016,1.005a.506.506,0,0,1-.361.86Zm-72.727-.958a.506.506,0,0,1-.351-.869c.342-.33.692-.659,1.042-.978a.506.506,0,1,1,.682.747c-.342.313-.686.636-1.021.959A.5.5,0,0,1,1663.854,189.283Zm70.688-1.005a.5.5,0,0,1-.34-.132c-.345-.314-.7-.627-1.049-.931a.506.506,0,0,1,.661-.766c.358.31.718.629,1.069.949a.506.506,0,0,1-.34.879Zm-68.6-.9a.505.505,0,0,1-.331-.888c.359-.311.727-.62,1.093-.919a.506.506,0,0,1,.641.783c-.359.294-.719.6-1.072.9A.5.5,0,0,1,1665.943,187.374Zm66.455-.947a.5.5,0,0,1-.319-.114c-.363-.3-.732-.59-1.1-.872a.506.506,0,0,1,.618-.8c.373.288.75.587,1.12.889a.506.506,0,0,1-.32.9Zm-64.266-.845a.506.506,0,0,1-.31-.905c.376-.291.76-.58,1.141-.859a.506.506,0,0,1,.6.817c-.373.273-.75.556-1.119.842A.5.5,0,0,1,1668.132,185.583Zm62.024-.887a.5.5,0,0,1-.3-.1c-.379-.276-.764-.549-1.145-.811a.506.506,0,1,1,.574-.833c.388.267.781.546,1.167.827a.506.506,0,0,1-.3.914Zm-59.742-.783a.506.506,0,0,1-.287-.922c.388-.268.787-.535,1.185-.794a.506.506,0,1,1,.552.847c-.391.254-.782.516-1.162.779A.5.5,0,0,1,1670.414,183.914Zm57.407-.824a.5.5,0,0,1-.275-.082c-.388-.252-.788-.5-1.187-.748a.506.506,0,1,1,.527-.863c.408.249.816.506,1.212.763a.506.506,0,0,1-.276.93Zm-55.038-.717a.506.506,0,0,1-.265-.937c.4-.246.814-.491,1.227-.728a.506.506,0,1,1,.5.876c-.4.233-.809.474-1.2.715A.5.5,0,0,1,1672.784,182.372Zm52.619-.76a.5.5,0,0,1-.251-.067c-.408-.234-.821-.463-1.228-.682a.506.506,0,1,1,.479-.891c.415.223.836.457,1.252.695a.506.506,0,0,1-.252.944Zm-50.17-.648a.506.506,0,0,1-.241-.951c.416-.224.841-.446,1.264-.66a.506.506,0,1,1,.456.9c-.415.209-.832.427-1.239.647A.5.5,0,0,1,1675.232,180.963Zm47.672-.693a.5.5,0,0,1-.227-.054c-.411-.207-.837-.413-1.264-.613a.506.506,0,1,1,.429-.916c.436.2.869.415,1.289.626a.506.506,0,0,1-.228.958Zm-45.151-.579a.506.506,0,0,1-.216-.963c.427-.2.863-.4,1.3-.589a.506.506,0,1,1,.406.926c-.426.186-.854.381-1.272.578A.5.5,0,0,1,1677.753,179.691Zm42.582-.625a.5.5,0,0,1-.2-.042c-.425-.185-.861-.367-1.3-.543a.506.506,0,0,1,.378-.938c.444.179.889.365,1.322.554a.506.506,0,0,1-.2.969Zm-40-.506a.506.506,0,0,1-.19-.974c.44-.178.888-.353,1.332-.519a.506.506,0,0,1,.354.947c-.435.163-.875.334-1.306.509A.505.505,0,0,1,1680.338,178.56Zm37.364-.554a.5.5,0,0,1-.176-.032c-.434-.161-.88-.32-1.325-.471a.506.506,0,1,1,.325-.958c.453.154.908.316,1.351.48a.506.506,0,0,1-.176.98Zm-34.712-.436a.506.506,0,0,1-.164-.984c.45-.154.907-.3,1.359-.444a.506.506,0,0,1,.3.965c-.443.138-.891.285-1.332.436A.5.5,0,0,1,1682.989,177.57Zm32.023-.478a.5.5,0,0,1-.149-.023c-.445-.138-.9-.271-1.345-.4a.506.506,0,0,1,.272-.974c.456.127.917.263,1.371.4a.506.506,0,0,1-.149.989Zm-29.321-.365a.506.506,0,0,1-.137-.993c.456-.128.92-.252,1.381-.368a.506.506,0,1,1,.247.981c-.452.114-.907.235-1.354.361A.506.506,0,0,1,1685.692,176.727Zm26.594-.4a.5.5,0,0,1-.123-.016c-.446-.111-.9-.219-1.364-.321a.506.506,0,1,1,.218-.988c.469.1.937.213,1.392.327a.506.506,0,0,1-.122,1Zm-23.849-.3a.506.506,0,0,1-.109-1c.462-.1.932-.2,1.4-.292a.506.506,0,0,1,.193.993c-.458.089-.919.185-1.372.286A.526.526,0,0,1,1688.436,176.035Zm21.085-.313a.5.5,0,0,1-.1-.009c-.458-.088-.922-.17-1.38-.245a.506.506,0,0,1,.163-1c.467.076.941.16,1.407.25a.506.506,0,0,1-.095,1Zm-18.306-.227a.506.506,0,0,1-.082-1c.469-.078.945-.15,1.413-.215a.506.506,0,0,1,.138,1c-.459.063-.926.134-1.386.21A.491.491,0,0,1,1691.215,175.495Zm15.513-.229a.509.509,0,0,1-.068,0c-.46-.062-.928-.119-1.391-.169a.506.506,0,1,1,.108-1.005c.473.051.95.109,1.419.172a.506.506,0,0,1-.067,1.007Zm-12.709-.157a.506.506,0,0,1-.055-1.008c.47-.052.949-.1,1.423-.137a.506.506,0,0,1,.083,1.008c-.465.038-.934.084-1.4.135Zm9.894-.146h-.041c-.46-.037-.93-.068-1.4-.093a.506.506,0,1,1,.053-1.01c.477.025.957.057,1.426.095a.506.506,0,0,1-.04,1.01Zm-7.073-.087a.506.506,0,0,1-.027-1.011c.467-.026.947-.046,1.428-.06a.506.506,0,0,1,.029,1.011c-.472.014-.943.033-1.4.058Zm4.246-.062h-.013c-.44-.011-.891-.017-1.339-.017h-.063a.506.506,0,0,1,0-1.011h.062c.46,0,.918.006,1.367.018a.506.506,0,0,1-.013,1.011Z" transform="translate(-1637.363 -163.595)"/><g transform="translate(0 0)"><circle class="u" cx="44.103" cy="44.103" r="44.103" transform="translate(0 62.371) rotate(-45)"/><path class="v" d="M1726.439,297.787a45.115,45.115,0,1,1,31.9-13.214A44.818,44.818,0,0,1,1726.439,297.787Zm0-88.206a43.092,43.092,0,1,0,43.092,43.092A43.141,43.141,0,0,0,1726.439,209.581Z" transform="translate(-1664.068 -190.301)"/></g><g transform="translate(24.347 24.347)"><circle class="w" cx="26.887" cy="26.887" r="26.887" transform="translate(0 38.024) rotate(-45)"/><path class="v" d="M1791.5,345.63a27.9,27.9,0,1,1,27.9-27.9A27.93,27.93,0,0,1,1791.5,345.63Zm0-53.775a25.876,25.876,0,1,0,25.876,25.876A25.906,25.906,0,0,0,1791.5,291.856Z" transform="translate(-1753.474 -279.707)"/></g><g transform="translate(49.82 49.82)"><circle class="x" cx="10.417" cy="10.417" r="10.417" transform="translate(0 20.264) rotate(-76.572)"/><path class="v" d="M1853.741,391.4a11.428,11.428,0,1,1,11.428-11.428A11.441,11.441,0,0,1,1853.741,391.4Zm0-20.834a9.406,9.406,0,1,0,9.406,9.406A9.416,9.416,0,0,0,1853.741,370.569Z" transform="translate(-1841.19 -367.423)"/></g></g><g transform="translate(62.157)"><rect class="y" width="1.97" height="74.584" transform="matrix(-0.707, -0.707, 0.707, -0.707, 11.515, 61.197)"/><path class="r" d="M1907.013,358.561c.8-.8,4.566,2.968,3.767,3.767l-13.971,10.983a.555.555,0,0,1-.779-.779Z" transform="translate(-1895.905 -302.118)"/><path class="z" d="M2146.969,129.8l7.1.705-9.74,9.74a15.057,15.057,0,0,1-12.136,4.336Z" transform="translate(-2082.747 -121.309)"/><path class="aa" d="M2140.034,96.329l-.705-7.1-9.74,9.74a15.059,15.059,0,0,0-4.336,12.137Z" transform="translate(-2077.204 -89.234)"/></g></g><g transform="translate(50.571 125.382)"><path class="c" d="M453.454,725.352l-4.291.642a18.9,18.9,0,0,0-4.691-3.935l-.118-4.334a.356.356,0,0,0-.249-.33l-4.964-1.562a.356.356,0,0,0-.394.128l-2.579,3.485a18.9,18.9,0,0,0-6.1.539L426.92,717a.356.356,0,0,0-.41-.057L421.9,719.35a.357.357,0,0,0-.188.369l.642,4.291a18.9,18.9,0,0,0-3.935,4.691l-4.334.118a.357.357,0,0,0-.33.249l-1.562,4.964a.356.356,0,0,0,.128.394L415.8,737a18.894,18.894,0,0,0,.539,6.1l-2.983,3.15a.356.356,0,0,0-.057.41l2.405,4.615a.356.356,0,0,0,.369.188l4.291-.642a18.9,18.9,0,0,0,4.691,3.935l.118,4.334a.356.356,0,0,0,.249.33l4.964,1.562a.356.356,0,0,0,.394-.128l2.579-3.485a18.9,18.9,0,0,0,6.1-.539l3.15,2.983a.356.356,0,0,0,.41.057l4.615-2.405a.357.357,0,0,0,.188-.369l-.642-4.291a18.9,18.9,0,0,0,3.935-4.691l4.334-.118a.356.356,0,0,0,.33-.249l1.562-4.964a.356.356,0,0,0-.128-.394l-3.485-2.579a18.9,18.9,0,0,0-.539-6.1l2.983-3.15a.356.356,0,0,0,.057-.41l-2.405-4.615A.356.356,0,0,0,453.454,725.352Z" transform="translate(-406.455 -710.088)"/><g transform="translate(23.261 23.272)"><path class="b" d="M504.861,808.032A5.045,5.045,0,1,1,506.1,805,5.041,5.041,0,0,1,504.861,808.032Zm-6.954-6.084a4.2,4.2,0,1,0,.368-.371A4.3,4.3,0,0,0,497.906,801.948Z" transform="translate(-496.016 -799.66)"/></g><g transform="translate(12.233 19.735)"><path class="ab" d="M646.8,785.111a.427.427,0,0,1-.736-.183c-.129-.542-.278-1.087-.442-1.622a.427.427,0,1,1,.817-.25c.169.552.322,1.115.456,1.674A.428.428,0,0,1,646.8,785.111Z" transform="translate(-603.274 -782.754)"/><path class="ab" d="M504.917,835.346a.427.427,0,0,1-.651-.553,27.593,27.593,0,0,0,1.888-2.6.427.427,0,0,1,.72.461,28.524,28.524,0,0,1-1.947,2.68Zm-3.729,3.76a.426.426,0,0,1-.048.047,28.633,28.633,0,0,1-2.662,1.969.427.427,0,0,1-.467-.715,27.766,27.766,0,0,0,2.583-1.911.427.427,0,0,1,.595.61Zm8.066-11.112a.427.427,0,0,1-.718-.44,27.441,27.441,0,0,0,1.009-3.05.427.427,0,1,1,.826.221,28.246,28.246,0,0,1-1.041,3.145A.425.425,0,0,1,509.254,827.994ZM493.878,843.51a.425.425,0,0,1-.159.113,28.055,28.055,0,0,1-3.133,1.072.427.427,0,0,1-.229-.823,27.357,27.357,0,0,0,3.038-1.039.427.427,0,0,1,.483.677Zm17.275-23.837a.427.427,0,0,1-.748-.312c.009-.128.017-.255.025-.383a27.843,27.843,0,0,0,.019-2.831.427.427,0,0,1,.854-.038,28.731,28.731,0,0,1-.02,2.919q-.012.2-.026.394A.425.425,0,0,1,511.152,819.672Zm-25.575,25.814a.426.426,0,0,1-.287.144,28.678,28.678,0,0,1-3.311.07.427.427,0,0,1,.031-.854,27.764,27.764,0,0,0,3.212-.068.428.428,0,0,1,.355.708Zm-8.513-.62a.427.427,0,0,1-.417.135,28.215,28.215,0,0,1-3.18-.928.427.427,0,0,1,.288-.8,27.39,27.39,0,0,0,3.083.9.427.427,0,0,1,.226.7Z" transform="translate(-466.933 -808.806)"/><path class="ab" d="M445.5,933.786a.427.427,0,0,1-.538.085c-.494-.292-.986-.6-1.464-.929a.427.427,0,1,1,.479-.707c.464.314.942.618,1.42.9a.427.427,0,0,1,.1.65Z" transform="translate(-443.31 -900.898)"/></g><path class="ab" d="M387.309,844.217a.427.427,0,0,1-.738-.192c-.121-.564-.226-1.138-.312-1.707a.427.427,0,0,1,.845-.128c.083.551.185,1.108.3,1.655A.427.427,0,0,1,387.309,844.217Z" transform="translate(-385.96 -809.732)"/><path class="ab" d="M424.159,691.268a.427.427,0,0,1-.485.113,27.378,27.378,0,0,0-2.984-1.038.427.427,0,0,1,.233-.822,28.264,28.264,0,0,1,3.078,1.07.428.428,0,0,1,.158.677Zm-8.154-2a.427.427,0,0,1-.36.144q-.452-.041-.908-.067c-.749-.043-1.506-.056-2.251-.039a.427.427,0,0,1-.02-.854c.768-.018,1.548,0,2.32.04q.471.027.936.069a.427.427,0,0,1,.283.707ZM385.6,716.042a.427.427,0,0,1-.748-.3q.011-.305.029-.611c.051-.879.143-1.765.274-2.633a.427.427,0,1,1,.845.128c-.127.841-.217,1.7-.266,2.555q-.018.3-.028.593A.424.424,0,0,1,385.6,716.042Zm22.025-26.277a.426.426,0,0,1-.231.136,27.417,27.417,0,0,0-3.046.839.427.427,0,1,1-.274-.809,28.181,28.181,0,0,1,3.141-.865.427.427,0,0,1,.41.7Zm-20.47,18.026a.427.427,0,0,1-.724-.423,28.091,28.091,0,0,1,1.256-3.007.427.427,0,0,1,.768.375,27.287,27.287,0,0,0-1.218,2.915A.427.427,0,0,1,387.153,707.79Zm12.622-15.047a.43.43,0,0,1-.111.09,27.6,27.6,0,0,0-2.657,1.71.427.427,0,1,1-.5-.691,28.425,28.425,0,0,1,2.74-1.763.427.427,0,0,1,.531.654ZM391.1,700.38a.427.427,0,0,1-.663-.538c.444-.6.918-1.181,1.409-1.74l.005-.006q.334-.38.682-.749a.427.427,0,0,1,.6-.018.433.433,0,0,1,.018.6c-.226.24-.458.487-.666.732-.476.542-.936,1.11-1.366,1.687Z" transform="translate(-384.85 -688.44)"/><path class="ab" d="M593.35,711.948a.427.427,0,0,1-.577.06c-.448-.336-.911-.661-1.376-.967a.427.427,0,0,1,.469-.714c.479.315.957.651,1.419,1a.427.427,0,0,1,.086.6Z" transform="translate(-548.026 -705.691)"/><path class="b" d="M480.394,783.546a12.984,12.984,0,1,1-5.873-20.935q.448.141.884.313a12.979,12.979,0,0,1,1.46.684l.19.106a.448.448,0,0,1,.07.05.427.427,0,0,1-.493.693,12.144,12.144,0,0,0-16.143,3.871,12.073,12.073,0,0,0-1.357,2.784l-.042.127-.037.116a12.129,12.129,0,1,0,23.37.825.427.427,0,1,1,.831-.2,12.989,12.989,0,0,1-2.86,11.564Z" transform="translate(-442.407 -746.617)"/></g><g transform="translate(91.811 54.588)"><rect class="k" width="121.179" height="125.958" rx="43.373"/><rect class="b" width="109.715" height="118.932" rx="43.373" transform="translate(5.837 3.691)"/><rect class="l" width="72.404" height="7.547" rx="3.774" transform="translate(9.527 7.029)"/><g transform="translate(85.5 7.996)"><path class="m" d="M993.638,394.15a2.915,2.915,0,1,1,3.088-2.91A3.007,3.007,0,0,1,993.638,394.15Zm0-5.011a2.108,2.108,0,1,0,2.279,2.1A2.2,2.2,0,0,0,993.638,389.139Z" transform="translate(-990.55 -388.33)"/><path class="m" d="M1043.6,394.15a2.915,2.915,0,1,1,3.089-2.91A3.007,3.007,0,0,1,1043.6,394.15Zm0-5.011a2.108,2.108,0,1,0,2.28,2.1A2.2,2.2,0,0,0,1043.6,389.139Z" transform="translate(-1030.055 -388.33)"/><path class="m" d="M1093.554,394.15a2.915,2.915,0,1,1,3.089-2.91A3.007,3.007,0,0,1,1093.554,394.15Zm0-5.011a2.108,2.108,0,1,0,2.28,2.1A2.2,2.2,0,0,0,1093.554,389.139Z" transform="translate(-1069.559 -388.33)"/></g><path class="n" d="M705.45,397.676H641.189a1.588,1.588,0,0,1,0-3.176H705.45a1.588,1.588,0,0,1,0,3.176Z" transform="translate(-627.535 -385.213)"/><g transform="translate(5.843 4.607)"><path class="ac" d="M617.341,420.8l-7.263,7.394a.746.746,0,0,0,.052,1.094l.055.046a.693.693,0,0,0,.979-.088l6.651-8.022Z" transform="translate(-609.864 -410.618)"/><ellipse class="ad" cx="4.808" cy="4.721" rx="4.808" ry="4.721" transform="matrix(0.902, -0.431, 0.431, 0.902, 4.226, 4.142)"/><path class="ae" d="M638.1,377.723a5.254,5.254,0,1,0,7.091,2.437A5.3,5.3,0,0,0,638.1,377.723Zm4.193,8.786a4.483,4.483,0,1,1,2.189-6.011A4.524,4.524,0,0,1,642.291,386.509Z" transform="translate(-629.762 -376.133)"/></g><rect class="ab" width="68.871" height="39.245" rx="19.623" transform="translate(11.772 79.037)"/><g transform="translate(15.703 82.573)"><path class="af" d="M718.5,748.445H659.1a1.854,1.854,0,0,1,0-3.708h59.4a1.854,1.854,0,1,1,0,3.708Z" transform="translate(-657.189 -744.737)"/><path class="af" d="M718.237,782.278h-59.4a1.854,1.854,0,0,1,0-3.708h59.4a1.854,1.854,0,0,1,0,3.708Z" transform="translate(-656.982 -771.491)"/><path class="af" d="M719.062,818.246h-59.4a1.854,1.854,0,0,1,0-3.708h59.4a1.854,1.854,0,1,1,0,3.708Z" transform="translate(-657.634 -799.932)"/><path class="af" d="M718.8,852.079H659.4a1.854,1.854,0,1,1,0-3.708h59.4a1.854,1.854,0,1,1,0,3.708Z" transform="translate(-657.427 -826.686)"/><path class="af" d="M718.357,883.011h-59.4a1.854,1.854,0,1,1,0-3.708h59.4a1.854,1.854,0,0,1,0,3.708Z" transform="translate(-657.077 -851.146)"/></g><rect class="l" width="29.017" height="39.358" rx="14.508" transform="translate(82.978 20.136)"/><rect class="l" width="29.017" height="55.303" rx="14.508" transform="translate(82.978 62.979)"/><path class="r" d="M716.573,702.062H657.537a1.854,1.854,0,0,1,0-3.708h59.036a1.854,1.854,0,1,1,0,3.708Z" transform="translate(-640.252 -625.486)"/><g transform="translate(14.42 20.136)"><rect class="r" width="63.756" height="49.553" rx="24.776"/><path class="m" d="M693.439,534.36h39.816a1.6,1.6,0,0,0,1.381-2.415l-15.763-26.8a1.6,1.6,0,0,0-2.839.147l-7.611,16.678a1.6,1.6,0,0,1-2.541.516l-3.079-2.822a1.6,1.6,0,0,0-2.4.266l-8.282,11.91A1.6,1.6,0,0,0,693.439,534.36Z" transform="translate(-683.258 -492.219)"/><circle class="m" cx="5.724" cy="5.724" r="5.724" transform="translate(41.978 9.022) rotate(-22.5)"/></g></g><g transform="translate(143.187 95.649)"><rect class="k" width="121.179" height="125.958" rx="43.373"/><rect class="l" width="109.714" height="118.932" rx="43.373" transform="translate(5.837 3.691)"/><rect class="n" width="72.404" height="7.547" rx="3.774" transform="translate(9.527 7.029)"/><g transform="translate(85.5 7.996)"><path class="m" d="M1239.168,590.381a2.915,2.915,0,1,1,3.088-2.91A3.007,3.007,0,0,1,1239.168,590.381Zm0-5.011a2.108,2.108,0,1,0,2.279,2.1A2.2,2.2,0,0,0,1239.168,585.37Z" transform="translate(-1236.079 -584.561)"/><path class="m" d="M1289.126,590.381a2.915,2.915,0,1,1,3.089-2.91A3.007,3.007,0,0,1,1289.126,590.381Zm0-5.011a2.108,2.108,0,1,0,2.28,2.1A2.2,2.2,0,0,0,1289.126,585.37Z" transform="translate(-1275.584 -584.561)"/><path class="m" d="M1339.084,590.381a2.915,2.915,0,1,1,3.089-2.91A3.007,3.007,0,0,1,1339.084,590.381Zm0-5.011a2.108,2.108,0,1,0,2.28,2.1A2.2,2.2,0,0,0,1339.084,585.37Z" transform="translate(-1315.089 -584.561)"/></g><path class="n" d="M950.98,593.907H886.719a1.588,1.588,0,0,1,0-3.176H950.98a1.588,1.588,0,1,1,0,3.176Z" transform="translate(-873.065 -581.443)"/><g transform="translate(5.843 5.666)"><path class="o" d="M862.871,617.033l-7.263,7.394a.746.746,0,0,0,.052,1.094l.055.046a.693.693,0,0,0,.979-.088l6.651-8.021Z" transform="translate(-855.394 -607.908)"/><path class="ag" d="M892.272,578.643a4.809,4.809,0,1,1-6.373-2.19A4.765,4.765,0,0,1,892.272,578.643Z" transform="translate(-877.334 -575.442)"/><path class="q" d="M883.628,573.954a5.254,5.254,0,1,0,7.091,2.437A5.3,5.3,0,0,0,883.628,573.954Zm4.193,8.786a4.483,4.483,0,1,1,2.189-6.01A4.524,4.524,0,0,1,887.821,582.74Z" transform="translate(-875.292 -573.423)"/></g><path class="ab" d="M1000.1,702.062H920.623a1.854,1.854,0,1,1,0-3.708H1000.1a1.854,1.854,0,0,1,0,3.708Z" transform="translate(-899.664 -666.547)"/><path class="ab" d="M1020.742,668.094h-62.1a1.854,1.854,0,0,1,0-3.708h62.1a1.854,1.854,0,0,1,0,3.708Z" transform="translate(-929.731 -639.687)"/><g transform="translate(11.648 40.36)"><rect class="b" width="46.947" height="74.478" rx="23.474"/><g transform="translate(2.399 3.504)"><path class="s" d="M934.8,759.683H896.728a1.854,1.854,0,1,1,0-3.708H934.8a1.854,1.854,0,1,1,0,3.708Z" transform="translate(-894.817 -755.975)"/><path class="s" d="M934.629,793.516H896.554a1.854,1.854,0,1,1,0-3.708h38.075a1.854,1.854,0,1,1,0,3.708Z" transform="translate(-894.679 -782.729)"/><path class="s" d="M935.176,829.484H897.1a1.854,1.854,0,1,1,0-3.708h38.075a1.854,1.854,0,1,1,0,3.708Z" transform="translate(-895.112 -811.17)"/><path class="s" d="M935,863.317H896.927a1.854,1.854,0,0,1,0-3.708H935a1.854,1.854,0,1,1,0,3.708Z" transform="translate(-894.974 -837.924)"/><path class="s" d="M934.709,894.25H896.634a1.854,1.854,0,0,1,0-3.708h38.075a1.854,1.854,0,0,1,0,3.708Z" transform="translate(-894.743 -862.384)"/><path class="s" d="M934.535,928.083H896.46a1.854,1.854,0,1,1,0-3.708h38.075a1.854,1.854,0,1,1,0,3.708Z" transform="translate(-894.605 -889.138)"/><path class="s" d="M935.082,964.05H897.007a1.854,1.854,0,0,1,0-3.708h38.075a1.854,1.854,0,1,1,0,3.708Z" transform="translate(-895.037 -917.579)"/><path class="s" d="M934.908,997.883H896.833a1.854,1.854,0,0,1,0-3.708h38.075a1.854,1.854,0,1,1,0,3.708Z" transform="translate(-894.9 -944.333)"/><path class="s" d="M934.53,1029.856H896.455a1.854,1.854,0,0,1,0-3.708H934.53a1.854,1.854,0,1,1,0,3.708Z" transform="translate(-894.601 -969.615)"/><path class="s" d="M935.076,1065.824H897a1.854,1.854,0,1,1,0-3.708h38.075a1.854,1.854,0,1,1,0,3.708Z" transform="translate(-895.033 -998.057)"/></g></g><g transform="translate(62.619 39.956)"><rect class="b" width="46.947" height="74.478" rx="23.474"/><g class="ah" transform="translate(2.399 3.504)"><path class="s" d="M1178.4,757.75h-38.075a1.854,1.854,0,0,1,0-3.708H1178.4a1.854,1.854,0,0,1,0,3.708Z" transform="translate(-1138.413 -754.042)"/><path class="s" d="M1178.226,791.583h-38.075a1.854,1.854,0,1,1,0-3.708h38.075a1.854,1.854,0,1,1,0,3.708Z" transform="translate(-1138.276 -780.796)"/><path class="s" d="M1178.772,827.551H1140.7a1.854,1.854,0,0,1,0-3.708h38.075a1.854,1.854,0,0,1,0,3.708Z" transform="translate(-1138.708 -809.237)"/><path class="s" d="M1178.6,861.384h-38.075a1.854,1.854,0,1,1,0-3.708H1178.6a1.854,1.854,0,1,1,0,3.708Z" transform="translate(-1138.571 -835.991)"/><path class="s" d="M1178.306,892.316h-38.075a1.854,1.854,0,1,1,0-3.708h38.075a1.854,1.854,0,1,1,0,3.708Z" transform="translate(-1138.339 -860.451)"/><path class="s" d="M1178.132,926.149h-38.075a1.854,1.854,0,0,1,0-3.708h38.075a1.854,1.854,0,1,1,0,3.708Z" transform="translate(-1138.202 -887.204)"/><path class="s" d="M1178.678,962.117H1140.6a1.854,1.854,0,0,1,0-3.708h38.075a1.854,1.854,0,0,1,0,3.708Z" transform="translate(-1138.634 -915.646)"/><path class="s" d="M1178.505,995.95H1140.43a1.854,1.854,0,0,1,0-3.708h38.075a1.854,1.854,0,0,1,0,3.708Z" transform="translate(-1138.497 -942.399)"/><path class="s" d="M1178.126,1027.922h-38.075a1.854,1.854,0,0,1,0-3.708h38.075a1.854,1.854,0,0,1,0,3.708Z" transform="translate(-1138.197 -967.682)"/><path class="s" d="M1178.672,1063.89H1140.6a1.854,1.854,0,1,1,0-3.708h38.075a1.854,1.854,0,0,1,0,3.708Z" transform="translate(-1138.629 -996.123)"/></g></g></g><g transform="translate(211.756 127.203)"><rect class="ai" width="121.179" height="127.887" rx="43.373"/><rect class="b" width="109.714" height="120.753" rx="43.373" transform="translate(5.837 3.747)"/><g transform="translate(5.843 4.607)"><g transform="translate(8.063 19.979)"><rect class="r" width="63.756" height="49.553" rx="24.776"/><path class="m" d="M1264.211,902.655h39.816a1.6,1.6,0,0,0,1.381-2.415l-15.763-26.8a1.6,1.6,0,0,0-2.839.147l-7.611,16.678a1.6,1.6,0,0,1-2.541.516l-3.079-2.822a1.6,1.6,0,0,0-2.4.266l-8.282,11.91A1.6,1.6,0,0,0,1264.211,902.655Z" transform="translate(-1254.03 -860.514)"/><circle class="m" cx="5.724" cy="5.724" r="5.724" transform="translate(41.978 9.022) rotate(-22.5)"/></g><rect class="n" width="72.404" height="7.547" rx="3.774" transform="translate(3.683 2.423)"/><g transform="translate(79.657 3.39)"><path class="m" d="M1566.863,741.179a2.915,2.915,0,1,1,3.089-2.91A3.007,3.007,0,0,1,1566.863,741.179Zm0-5.011a2.108,2.108,0,1,0,2.279,2.1A2.2,2.2,0,0,0,1566.863,736.168Z" transform="translate(-1563.775 -735.359)"/><path class="m" d="M1616.822,741.179a2.915,2.915,0,1,1,3.089-2.91A3.007,3.007,0,0,1,1616.822,741.179Zm0-5.011a2.108,2.108,0,1,0,2.279,2.1A2.2,2.2,0,0,0,1616.822,736.168Z" transform="translate(-1603.28 -735.359)"/><path class="m" d="M1666.78,741.179a2.915,2.915,0,1,1,3.089-2.91A3.007,3.007,0,0,1,1666.78,741.179Zm0-5.011a2.108,2.108,0,1,0,2.279,2.1A2.2,2.2,0,0,0,1666.78,736.168Z" transform="translate(-1642.784 -735.359)"/></g><path class="n" d="M1278.675,744.7h-64.261a1.588,1.588,0,0,1,0-3.176h64.261a1.588,1.588,0,0,1,0,3.176Z" transform="translate(-1206.604 -736.848)"/><g transform="translate(0 0)"><path class="aj" d="M1190.566,767.831l-7.263,7.394a.746.746,0,0,0,.052,1.094l.055.046a.693.693,0,0,0,.98-.088l6.651-8.022Z" transform="translate(-1183.089 -757.647)"/><ellipse class="ak" cx="4.808" cy="4.721" rx="4.808" ry="4.721" transform="matrix(0.902, -0.431, 0.431, 0.902, 4.226, 4.142)"/><path class="q" d="M1211.323,724.752a5.254,5.254,0,1,0,7.091,2.437A5.3,5.3,0,0,0,1211.323,724.752Zm4.193,8.786a4.483,4.483,0,1,1,2.189-6.01A4.523,4.523,0,0,1,1215.516,733.538Z" transform="translate(-1202.987 -723.162)"/></g><path class="ab" d="M1283.523,1079.218h-60.048a1.854,1.854,0,1,1,0-3.708h60.048a1.854,1.854,0,1,1,0,3.708Z" transform="translate(-1213.558 -1000.945)"/><path class="ab" d="M1283.259,1113.05h-60.047a1.854,1.854,0,0,1,0-3.708h60.047a1.854,1.854,0,1,1,0,3.708Z" transform="translate(-1213.35 -1027.698)"/><rect class="l" width="63.756" height="27.104" rx="13.552" transform="translate(8.007 89.196)"/><rect class="n" width="30.512" height="32.606" rx="15.256" transform="translate(75.825 19.979)"/><rect class="n" width="30.512" height="32.606" rx="15.256" transform="translate(75.825 60.008)"/><rect class="n" width="30.512" height="21.238" rx="10.619" transform="translate(75.825 95.061)"/><path class="n" d="M1574.4,983.344h-27.371a1.57,1.57,0,1,1,0-3.14H1574.4a1.57,1.57,0,0,1,0,3.14Z" transform="translate(-1469.637 -925.581)"/></g></g><g transform="translate(289.832 166.24)"><rect class="ai" width="121.179" height="127.887" rx="43.373"/><rect class="l" width="109.715" height="120.754" rx="43.373" transform="translate(5.837 3.747)"/><rect class="r" width="87.82" height="49.553" rx="24.776" transform="translate(17.345 24.586)"/><rect class="m" width="72.404" height="7.547" rx="3.774" transform="translate(9.527 7.029)"/><g transform="translate(85.5 7.996)"><path class="m" d="M1939.991,927.743a2.915,2.915,0,1,1,3.089-2.91A3.007,3.007,0,0,1,1939.991,927.743Zm0-5.011a2.108,2.108,0,1,0,2.28,2.1A2.2,2.2,0,0,0,1939.991,922.732Z" transform="translate(-1936.903 -921.923)"/><path class="m" d="M1989.949,927.743a2.915,2.915,0,1,1,3.089-2.91A3.007,3.007,0,0,1,1989.949,927.743Zm0-5.011a2.108,2.108,0,1,0,2.279,2.1A2.2,2.2,0,0,0,1989.949,922.732Z" transform="translate(-1976.407 -921.923)"/><path class="m" d="M2039.907,927.743a2.915,2.915,0,1,1,3.089-2.91A3.007,3.007,0,0,1,2039.907,927.743Zm0-5.011a2.108,2.108,0,1,0,2.28,2.1A2.2,2.2,0,0,0,2039.907,922.732Z" transform="translate(-2015.912 -921.923)"/></g><path class="n" d="M1651.8,931.269h-64.261a1.588,1.588,0,0,1,0-3.176H1651.8a1.588,1.588,0,0,1,0,3.176Z" transform="translate(-1573.888 -918.806)"/><g transform="translate(5.843 5.666)"><path class="al" d="M1563.694,954.395l-7.263,7.394a.746.746,0,0,0,.052,1.094l.055.046a.693.693,0,0,0,.98-.088l6.65-8.021Z" transform="translate(-1556.217 -945.27)"/><path class="am" d="M1593.1,916.005a4.809,4.809,0,1,1-6.373-2.19A4.765,4.765,0,0,1,1593.1,916.005Z" transform="translate(-1578.158 -912.804)"/><path class="an" d="M1584.452,911.316a5.254,5.254,0,1,0,7.091,2.437A5.3,5.3,0,0,0,1584.452,911.316Zm4.193,8.786a4.482,4.482,0,1,1,2.189-6.01A4.523,4.523,0,0,1,1588.645,920.1Z" transform="translate(-1576.115 -910.785)"/></g><path class="ab" d="M1688.853,1265.782h-89.228a1.854,1.854,0,0,1,0-3.708h89.228a1.854,1.854,0,1,1,0,3.708Z" transform="translate(-1583.233 -1182.902)"/><path class="ab" d="M1688.467,1299.615h-89.228a1.854,1.854,0,1,1,0-3.708h89.228a1.854,1.854,0,1,1,0,3.708Z" transform="translate(-1582.927 -1209.656)"/><rect class="m" width="63.756" height="27.104" rx="13.552" transform="translate(11.424 93.802)"/><rect class="m" width="30.512" height="27.104" rx="13.552" transform="translate(79.241 93.802)"/><g transform="translate(51.474 38.901)"><path class="m" d="M1795.213,1080.079a10.461,10.461,0,1,1-10.461-10.461A10.461,10.461,0,0,1,1795.213,1080.079Zm-.634,0a9.827,9.827,0,1,0-9.827,9.827A9.827,9.827,0,0,0,1794.579,1080.079Z" transform="translate(-1774.291 -1069.618)"/><g transform="translate(6.704 5.162)"><path class="m" d="M1807.119,1104.976a.543.543,0,0,1-.542-.528l-.248-9.263a.875.875,0,0,1,1.245-.816l9.15,4.28a.874.874,0,0,1,.041,1.564l-8.077,4.306a.543.543,0,1,1-.511-.958l7.7-4.107-8.457-3.955.239,8.92a.543.543,0,0,1-.528.558Z" transform="translate(-1806.328 -1094.286)"/></g></g></g><g transform="translate(109.773 73.187)"><path class="ao" d="M767.189,1055.823l-96.449,92.41a9.611,9.611,0,0,0,.247,14.108l.686.613a8.934,8.934,0,0,0,12.653-.755l88.8-100.731Z" transform="translate(-667.778 -926.755)"/><ellipse class="ap" cx="61.962" cy="60.844" rx="61.962" ry="60.844" transform="translate(59.897 49.961) rotate(-23.776)"/><path class="aq" d="M1055.09,505.835c-34.847,15.351-50.875,55.535-35.8,89.754s55.543,49.513,90.391,34.162,50.876-55.535,35.8-89.754S1089.937,490.484,1055.09,505.835Zm50.58,114.814c-29.728,13.1-64.252.048-77.113-29.144s.815-63.473,30.542-76.569,64.253-.048,77.113,29.143S1135.4,607.553,1105.669,620.649Z" transform="translate(-941.254 -487.132)"/><g transform="translate(76.845 17.16)"><path class="l" d="M1044.252,617.685a.249.249,0,0,1-.258-.116c-.832-1.382-1.619-2.813-2.341-4.255a.248.248,0,0,1,.444-.222c.716,1.43,1.5,2.85,2.323,4.221a.249.249,0,0,1-.085.341A.24.24,0,0,1,1044.252,617.685Zm-7.2-17.515a.248.248,0,0,1-.286-.186,62.109,62.109,0,0,1-1.722-13.1,63.48,63.48,0,0,1,9.867-35.467,65.484,65.484,0,0,1,64.543-29.734.248.248,0,1,1-.071.492,64.607,64.607,0,0,0-35.39,4.865,63.725,63.725,0,0,0-38.453,59.832,61.644,61.644,0,0,0,1.708,13,.248.248,0,0,1-.183.3Z" transform="translate(-1035.026 -521.007)"/></g><path class="l" d="M690.458,1475.62l-.025,0c-4.055.334-6.786-.864-8.116-3.561a7.251,7.251,0,0,1,1.515-8.3l11.423-11.454a.248.248,0,1,1,.351.35l-11.423,11.454a6.757,6.757,0,0,0-1.421,7.73c1.231,2.5,3.8,3.6,7.63,3.286a.248.248,0,0,1,.066.491Z" transform="translate(-678.718 -1240.219)"/><path class="l" d="M763.573,1430.25a.248.248,0,0,1-.221-.419l1.48-1.484a.248.248,0,1,1,.351.35l-1.48,1.485A.244.244,0,0,1,763.573,1430.25Z" transform="translate(-743.296 -1221.27)"/></g></g></g></g></svg>