<svg xmlns="http://www.w3.org/2000/svg" width="96.514" height="96.514" viewBox="0 0 96.514 96.514"><defs><style>.a{fill:#e8ffff;}.b{fill:#0c387d;}.c{fill:#c69a81;}.d{fill:#d1a385;}.e{fill:#534d46;}.f{fill:#fff;}.g{fill:#eaeaea;}.h{fill:#093e8c;}.i{fill:#0b2a62;}</style></defs><g transform="translate(-59.558 -303.24)"><circle class="a" cx="48.257" cy="48.257" r="48.257" transform="translate(59.558 303.241)"/><g transform="translate(69.509 317.607)"><path class="b" d="M170.306,399.976c-.533.828-6.006,12.992-7.191,18.544-.074.344-.144.672-.213,1a48.507,48.507,0,0,0,12.358-11.313C173.464,404.422,171.874,401.492,170.306,399.976Z" transform="translate(-98.693 -344.925)"/><path class="c" d="M123.315,386.353a11.514,11.514,0,0,0,9.258-4.607,5.752,5.752,0,0,0-.512-3.386l-.515-1.706a5.584,5.584,0,0,1-.657.72c-3.051,2.756-4.224,3.807-7.574,3.82-3.35-.013-4.524-1.064-7.574-3.82a5.55,5.55,0,0,1-.642-.7l-.509,1.686a5.777,5.777,0,0,0-.51,3.417A11.513,11.513,0,0,0,123.315,386.353Z" transform="translate(-84.89 -338.339)"/><path class="c" d="M115.455,376.589v0h0Z" transform="translate(-85.294 -338.32)"/><path class="c" d="M138.517,376.582l-.007-.036-.02.029Z" transform="translate(-91.799 -338.308)"/><path class="d" d="M113,366.664l-.024.082a5.553,5.553,0,0,0,.642.7c3.051,2.756,4.225,3.807,7.574,3.82,3.35-.013,4.523-1.064,7.574-3.82a5.582,5.582,0,0,0,.657-.72l-.019-.062.053.013.02-.029c2.417-3.216,1.206-8.468,2.971-8.4,2.719.106,3.9-2.248,3.259-5.294-.4-1.9-1.827-1.752-2.6-1.18-.222.632-.439,1.106-.588,1.061-.43-.13-.243-3.87.429-8.249.716-4.662-5.012-2.63-9.023-2.76s-13.607-1-14.323,1.206,1,8.936.43,9.195c-.078.036-.159,0-.243-.08.027.235.022.312-.033.175a1.614,1.614,0,0,0-3.074.631c-.639,3.046.54,5.4,3.259,5.294,1.77-.07.545,5.216,2.992,8.43h0Z" transform="translate(-82.767 -328.41)"/><path class="e" d="M109.542,347.078c.573-.259-1.146-6.993-.43-9.195s10.313-1.335,14.323-1.206,9.739-1.9,9.023,2.76c-.672,4.379-.859,8.119-.429,8.249.149.044.367-.429.588-1.061.416-1.19.844-2.954.844-2.954,2.005-1.165,1.289-9.584,1.289-10.879s-2.005-3.5-2.865-3.5-.144-3.627-6.016-5.181-11.029-.776-13.894.648-5.013,3.885-6.3,4.273.43,1.3-.573,2.2.716,2.072,1,3.885,1,7.641,1.575,8.288c.494.559,1.1,3.074,1.62,3.586C109.383,347.079,109.464,347.114,109.542,347.078Z" transform="translate(-82.282 -323.261)"/><path class="f" d="M127.027,410.883a.99.99,0,0,1-.116.1A.326.326,0,0,0,127.027,410.883Z" transform="translate(-88.529 -348.005)"/><path class="f" d="M130.188,391.577a11.277,11.277,0,0,0,1.563-2.148,13.308,13.308,0,0,1-7.865,2.5,13.484,13.484,0,0,1-7.842-2.494,11.231,11.231,0,0,0,1.56,2.142,44.189,44.189,0,0,1,6.237,13.343h0A46.031,46.031,0,0,1,130.188,391.577Z" transform="translate(-85.46 -341.946)"/><path class="f" d="M126.91,411.017h0Z" transform="translate(-88.529 -348.042)"/><path class="g" d="M123.338,390.325a13.308,13.308,0,0,0,7.865-2.5,11.081,11.081,0,0,0,1.393-4.075,11.606,11.606,0,0,1-18.493.031,11.1,11.1,0,0,0,1.393,4.05A13.484,13.484,0,0,0,123.338,390.325Z" transform="translate(-84.912 -340.342)"/><path class="b" d="M78.4,399.916h0c-1.574,1.5-3.169,4.423-4.97,8.218A48.492,48.492,0,0,0,85.83,419.506c-.07-.329-.141-.658-.215-1C84.407,412.844,78.74,400.308,78.4,399.916Z" transform="translate(-73.425 -344.907)"/><path class="h" d="M160.143,396.219a.5.5,0,0,1,.029-.043c.346-.393-3.594-2.519-8.6-4.764-3.144-1.41-5.811-3.318-8.419-4.74.457.923.914,1.965,1.364,3.153,0,0-7.6,1.367-8.418,1.619s-.112,1.015-1.166,2.137c-4.791,5.1-6.922,9.612-7.9,10.465a.325.325,0,0,1-.116.1h.442V423.3a48.008,48.008,0,0,0,25.385-7.537c.07-.329.139-.657.213-1C154.137,409.211,159.61,397.047,160.143,396.219Zm-8.774,19.2H129.713v-1.1h21.656Z" transform="translate(-88.529 -341.168)"/><path class="h" d="M126.911,411.017h0Z" transform="translate(-88.529 -348.042)"/><path class="h" d="M126.911,411.017h0Z" transform="translate(-88.529 -348.042)"/><path class="h" d="M113.16,404.307h.593c-.926-.573-2.926-5.257-7.912-10.561-1.054-1.122-.346-1.884-1.166-2.137s-8.418-1.619-8.418-1.619c.384-1.013.772-1.918,1.162-2.736-2.658,1.277-5.417,2.95-8.476,4.322-5.007,2.245-8.946,4.372-8.6,4.763h0c.345.392,6.011,12.928,7.221,18.587.073.345.144.674.215,1a48.008,48.008,0,0,0,25.383,7.536Zm-23.97,11.272v-1.1h21.657v1.1Z" transform="translate(-75.373 -341.332)"/><rect class="g" width="21.656" height="1.1" transform="translate(13.819 73.146)"/><rect class="g" width="21.656" height="1.1" transform="translate(41.183 73.146)"/><path class="g" d="M127.119,411.017h-1.036v19.159c.174,0,.344.013.518.013s.345-.011.518-.013Z" transform="translate(-88.295 -348.042)"/><path class="i" d="M102.53,386.972s7.6,1.367,8.418,1.619.112,1.015,1.166,2.137c4.985,5.3,6.985,9.988,7.912,10.561h0a44.2,44.2,0,0,0-6.238-13.344,11.231,11.231,0,0,1-1.56-2.142,11.1,11.1,0,0,1-1.393-4.05,5.777,5.777,0,0,1,.51-3.417l.509-1.686.024-.082-.07.017h0c-2.059.5-5.125,1.378-8.113,7.65C103.3,385.054,102.914,385.959,102.53,386.972Z" transform="translate(-81.644 -338.314)"/><path class="i" d="M135.167,376.568l.019.062.515,1.706a5.752,5.752,0,0,1,.512,3.386,11.082,11.082,0,0,1-1.393,4.075,11.278,11.278,0,0,1-1.563,2.148,46.032,46.032,0,0,0-6.346,13.342h0a.99.99,0,0,0,.116-.1c.982-.853,3.112-5.367,7.9-10.465,1.054-1.122.346-1.884,1.166-2.137s8.418-1.619,8.418-1.619c-.451-1.188-.907-2.23-1.364-3.153-2.92-5.887-5.891-6.737-7.9-7.231l-.027-.007Z" transform="translate(-88.529 -338.314)"/></g></g></svg>