<svg xmlns="http://www.w3.org/2000/svg" width="96.514" height="96.514" viewBox="0 0 96.514 96.514"><defs><style>.a{fill:#5abad3;}.b{fill:none;}.c{fill:#f7ddcb;}.d{fill:#9baec9;}.e{fill:#417ee7;}.f{fill:#c1d4f2;}.g{fill:#ffe6d4;}.h{fill:#534d46;}.i{fill:#191819;}.j{fill:#222123;}</style></defs><g transform="translate(-358.646 -303.24)"><circle class="a" cx="48.257" cy="48.257" r="48.257" transform="translate(358.646 303.241)"/><g transform="translate(372.407 320.856)"><path class="b" d="M443.273,387.6c.1.095.19.187.273.268A1.482,1.482,0,0,0,443.273,387.6Z" transform="translate(-396.305 -344.678)"/><path class="b" d="M409.695,387.489a1.536,1.536,0,0,0-.46.453C409.366,387.81,409.519,387.66,409.695,387.489Z" transform="translate(-386.693 -344.647)"/><path class="c" d="M422.865,390.116a.259.259,0,0,1,.088.121.266.266,0,0,1,.088-.121,86.859,86.859,0,0,0,9-8.126,12.409,12.409,0,0,1-1.083-4.141c-.119.111-.237.224-.359.332a14.36,14.36,0,0,1-2.215,1.62,10.681,10.681,0,0,1-2.133.962,10.158,10.158,0,0,1-2.083.432,10.384,10.384,0,0,1-2.652-.077,10.066,10.066,0,0,1-2.093-.57,11.473,11.473,0,0,1-2.154-1.137,16.153,16.153,0,0,1-2.244-1.832l-.01-.01a12.606,12.606,0,0,1-1.126,4.445A84.78,84.78,0,0,0,422.865,390.116Z" transform="translate(-388.008 -341.846)"/><path class="d" d="M419.591,401.929c-.776-1.738-1.643-2.73-1.737-4.171a3.9,3.9,0,0,0-1.292,2.688c.233,2.464-6.942-5.813-7.838-10-.09.736-.152,2.425,2.1,5.75,1.114,1.643,4.078,10.11,7,19.226.919-6.136,1.8-11.7,2.071-13.189A.724.724,0,0,1,419.591,401.929Z" transform="translate(-386.539 -345.482)"/><path class="d" d="M429.036,401.971a.723.723,0,0,1-.306.3c.278,1.523,1.2,7.347,2.144,13.669,2.472-8.469,5.519-17.681,6.894-19.707,2.156-3.178,2.194-4.857,2.115-5.643-1,4.22-8.048,12.336-7.818,9.893a3.9,3.9,0,0,0-1.292-2.688C430.68,399.241,429.811,400.233,429.036,401.971Z" transform="translate(-392.198 -345.524)"/><path class="d" d="M442.594,401.845l.061.046.019-.052Z" transform="translate(-396.113 -348.7)"/><path class="e" d="M428.809,417.331c-.945-6.322-1.866-12.146-2.144-13.669a.723.723,0,0,0,.306-.3c.776-1.738,1.644-2.73,1.738-4.171-1.391-1.556-3.424-2.969-3.631-3.682-.207.713-2.239,2.126-3.63,3.682.094,1.441.962,2.433,1.737,4.171a.725.725,0,0,0,.306.3c-.271,1.484-1.152,7.053-2.071,13.189.955,2.985,1.905,6.037,2.785,8.944.189,0,.376.014.565.014.574,0,1.142-.023,1.711-.043C427.116,423.29,427.925,420.36,428.809,417.331Z" transform="translate(-390.134 -346.911)"/><path class="f" d="M409.554,386.346c-.176.171-.329.322-.46.453a2.065,2.065,0,0,0-.319,1.305,3.087,3.087,0,0,1-.039.363c.9,4.187,8.071,12.465,7.838,10a3.9,3.9,0,0,1,1.292-2.688c1.391-1.556,3.424-2.97,3.63-3.682.207.713,2.24,2.126,3.631,3.682a3.9,3.9,0,0,1,1.292,2.688c-.23,2.443,6.822-5.673,7.818-9.893-.023-.224-.055-.379-.049-.471a2.014,2.014,0,0,0-.394-1.411c-.083-.082-.175-.174-.273-.268a1.324,1.324,0,0,0-.228-.141.7.7,0,0,1,.076-.007,12.669,12.669,0,0,1-2.114-2.672c-.14-.237-.337-.212-.667.043a86.867,86.867,0,0,1-9,8.126.266.266,0,0,0-.088.121.258.258,0,0,0-.088-.121,84.778,84.778,0,0,1-8.972-8.1c-.349-.278-.553-.313-.7-.068a12.689,12.689,0,0,1-2.116,2.673l.046.006A1.263,1.263,0,0,0,409.554,386.346Z" transform="translate(-386.552 -343.504)"/><path class="g" d="M415.139,370.6a11.479,11.479,0,0,0,2.154,1.137,10.066,10.066,0,0,0,2.093.57,10.384,10.384,0,0,0,2.652.077,10.158,10.158,0,0,0,2.083-.432,10.679,10.679,0,0,0,2.133-.962,14.36,14.36,0,0,0,2.215-1.62c.122-.108.24-.22.359-.332.1-.09.2-.177.291-.269,2.959-2.856,2.934-10.074,3.648-9.564,1.632,1.1,2.677-2.167,2.882-4.106.175-1.662-.451-2.49-1.147-2.18a1.893,1.893,0,0,1-.7.893s-1.021,4.219-1.458,4.087-.248-3.94.437-8.4c.729-4.746-5.1-2.677-9.185-2.809s-13.528-.928-14.257,1.314.7,9.01.114,9.274-1.312-3.074-1.9-3.732a2.164,2.164,0,0,1-.29-.7c-.588-.032-1.052.79-.9,2.25.2,1.939,1.249,5.2,2.882,4.106.713-.509.689,6.69,3.637,9.554l.01.01A16.155,16.155,0,0,0,415.139,370.6Z" transform="translate(-385.874 -333.03)"/><path class="h" d="M408.772,352.035c.583-.264-.843-7.033-.114-9.274s10.175-1.446,14.257-1.314,9.914-1.936,9.185,2.809c-.685,4.457-.875,8.265-.437,8.4s1.458-4.087,1.458-4.087a1.893,1.893,0,0,0,.7-.893c1.149-2.55.611-9.047.611-10.181,0-1.319-2.041-3.56-2.916-3.56s-.146-3.691-6.124-5.273-11.227-.792-14.143.659-5.1,3.955-6.415,4.351.437,1.318-.583,2.241.729,2.11,1.02,3.955c.245,1.549.8,5.965,1.314,7.738a2.165,2.165,0,0,0,.29.7C407.459,348.961,408.188,352.3,408.772,352.035Z" transform="translate(-385.196 -327.788)"/><path class="i" d="M444.781,392.447c1.434,2.565,1.512,4.139,2.525,4.893.959.714-6.967,1.277-7.826,1.336l-.019.052,5.557,4.194s-4.832,6.579-7.42,10.43c-.91,1.354-3.188,5.262-4.459,7.491-.36.63-1.065,1.954-1.851,3.434a47.957,47.957,0,0,0,20.785-6.537c.783-9.485,2.987-22.288,7.271-21.551-1.7-.721-6.45-1.669-9.666-2.975-2.779-1.13-4.989-2.548-6.362-2.573A7.383,7.383,0,0,1,444.781,392.447Z" transform="translate(-392.921 -345.538)"/><path d="M439.094,387.54a1.482,1.482,0,0,1,.273.268,2.014,2.014,0,0,1,.394,1.411c-.005.092.027.247.049.471.079.786.041,2.465-2.116,5.643-1.375,2.026-4.422,11.238-6.894,19.707-.884,3.029-1.694,5.959-2.327,8.435.677-.024,1.35-.063,2.02-.114.786-1.48,1.492-2.8,1.851-3.434,1.272-2.23,3.549-6.137,4.459-7.491,2.588-3.851,7.42-10.43,7.42-10.43l-5.557-4.194-.061-.046.08-.006c.858-.059,8.785-.622,7.826-1.336-1.013-.754-1.091-2.328-2.525-4.893a7.384,7.384,0,0,0-1.465-1.805c-.716-.662-1.422-1.125-1.785-1.434-1.008-.854-1.6-.909-1.793-.9a.71.71,0,0,0-.076.007A1.322,1.322,0,0,1,439.094,387.54Z" transform="translate(-392.126 -344.62)"/><path class="j" d="M390.776,418.461a47.947,47.947,0,0,0,19.832,5.824c-.771-1.745-1.366-3.052-1.6-3.458-1.272-2.23-3.549-6.137-4.459-7.491-2.588-3.851-7.42-10.43-7.42-10.43l5.618-4.24s-8.918-.587-7.905-1.342,1.092-2.328,2.525-4.893a7.437,7.437,0,0,1,1.516-1.851c-1.363.4-3.237,1.5-5.486,2.418-3.548,1.442-8.956,2.446-10.088,3.191C387.8,395.12,390.041,408.82,390.776,418.461Z" transform="translate(-379.372 -345.52)"/><path d="M401.876,391.529c-1.434,2.565-1.511,4.139-2.525,4.893s7.905,1.342,7.905,1.342L401.637,402s4.832,6.579,7.42,10.43c.91,1.354,3.188,5.262,4.459,7.491.232.406.827,1.714,1.6,3.458.939.066,1.883.108,2.835.118-.88-2.907-1.83-5.96-2.785-8.944-2.919-9.116-5.883-17.583-7-19.226-2.257-3.325-2.194-5.015-2.1-5.75a3.076,3.076,0,0,0,.039-.363,2.065,2.065,0,0,1,.319-1.305,1.537,1.537,0,0,1,.46-.453A1.264,1.264,0,0,1,407,387.4l-.046-.006c-.158-.016-.763,0-1.823.9-.355.3-1.036.751-1.735,1.388A7.438,7.438,0,0,0,401.876,391.529Z" transform="translate(-383.879 -344.619)"/><path d="M389.226,420.645c-.735-9.641-2.977-23.34-7.465-22.274a2.661,2.661,0,0,0-.563.206c-1.031.509-2.072,5.876-3.376,13.352A48.424,48.424,0,0,0,389.226,420.645Z" transform="translate(-377.822 -347.704)"/><path d="M460.253,419.912a48.465,48.465,0,0,0,11.156-9.064c-1.216-6.9-2.206-11.782-3.185-12.266a2.485,2.485,0,0,0-.7-.221C463.24,397.624,461.036,410.428,460.253,419.912Z" transform="translate(-401.1 -347.709)"/></g></g></svg>