<svg xmlns="http://www.w3.org/2000/svg" width="110.853" height="110.853" viewBox="0 0 110.853 110.853"><defs><style>.a{fill:#01e69f;}.b{fill:#3493a9;}.c{fill:#eaccb0;}.d{fill:#f2d4b6;}.e{fill:#4ea5b8;}.f{fill:#534d46;}.g{fill:#e5e5e5;}.h{fill:#a3a3a3;}.i{fill:#fff;}</style></defs><g transform="translate(-796.874 -485.047)"><circle class="a" cx="48.312" cy="48.312" r="48.312" transform="translate(796.874 580.422) rotate(-80.783)"/><g transform="translate(820.528 511.814)"><path class="b" d="M841.207,612.232a19.631,19.631,0,0,1,.292-4.552c-.007-.318-.014-.637-.022-.973-.544-5.31-1.744-14.5-5.381-15.769-1.823,1.933-3.839,6.82-5.233,12.187-.274,1.054-.644,2.266-1.064,3.541a48.343,48.343,0,0,0,11.842,7.63c-.02-.524-.036-1.091-.05-1.7A.384.384,0,0,1,841.207,612.232Z" transform="translate(-829.799 -541.631)"/><path class="b" d="M909.711,590.937c-3.638,1.271-4.676,9.855-5.219,15.164,0,2.488.027,4.828-.094,7.1a48.417,48.417,0,0,0,11.161-7.813c-.274-.873-.519-1.7-.713-2.45-1.539-5.926-3.836-11.255-5.793-12.679C909.225,590.444,909.61,590.666,909.711,590.937Z" transform="translate(-850.804 -541.439)"/><path class="c" d="M861.982,577.22a17.8,17.8,0,0,1-1.545,1.7,9.5,9.5,0,0,0-1.61,1.8c.82,1.229,2.576,3.776,4.7,6.367a31.8,31.8,0,0,0,7.061,6.268,31.676,31.676,0,0,0,5.17-4.206c.049-.05.1-.1.147-.148l.008-.007c.261-.27.5-.529.7-.767,2.191-2.58,3.73-4.642,4.723-6.062l.075-.107c.482-.693.828-1.224,1.052-1.578a9.394,9.394,0,0,0-1.448-1.17,8.076,8.076,0,0,0-.728-.781,12.571,12.571,0,0,1-1.162-1.32.4.4,0,0,0-.047-.061.746.746,0,0,1,.067-.041,11.035,11.035,0,0,1-1.834-6.51,13.491,13.491,0,0,1-1.644,1.162,10.556,10.556,0,0,1-2.095.945,9.994,9.994,0,0,1-2.045.424,10.168,10.168,0,0,1-2.6-.076,9.849,9.849,0,0,1-2.056-.56,11.171,11.171,0,0,1-2.114-1.116c-.351-.234-.686-.49-1.015-.754a11.067,11.067,0,0,1-1.766,6.395.329.329,0,0,1,.119.028C862.09,577.066,861.987,577.209,861.982,577.22Z" transform="translate(-837.973 -535.906)"/><path class="d" d="M865.806,562.267a9.855,9.855,0,0,0,2.056.56,10.168,10.168,0,0,0,2.6.075,9.981,9.981,0,0,0,2.045-.424,10.558,10.558,0,0,0,2.095-.945,13.5,13.5,0,0,0,1.644-1.162c.177-.143.361-.279.532-.429q.326-.288.639-.59c2.905-2.8,2.88-9.892,3.581-9.391,1.6,1.077,2.63-2.129,2.83-4.033a2.427,2.427,0,0,0-.443-2.032c-.025.055-.05.084-.075.078-1.351-.279-1.364,1.231-1.759,1.127-1.427-.376-4.583-3.185-8.123-6-4.47-3.558-7.125-4.539-9.836-4.846,0,0-.219,1.524-2.931,3.775s-3.178,6.956-3.741,6.6c-.359-.228-.918.167-1.276-.831-.415.227-.693.971-.57,2.132.2,1.9,1.227,5.109,2.83,4.033.7-.5.676,6.586,3.581,9.391.379.366.778.713,1.189,1.044.329.264.664.521,1.015.754A11.168,11.168,0,0,0,865.806,562.267Z" transform="translate(-836.909 -525.67)"/><path class="e" d="M858.014,616.554h0l-.141.012a.369.369,0,0,1-.4-.331c-.348-3.252-1.981-8.228-6.137-7.89-4.073.331-4.012,7.01-3.932,8.7a.387.387,0,0,1-.358.4l-.158.013c.02.244.06.909.12,1.986a47.946,47.946,0,0,0,11.679,3.437C858.283,619.178,858.053,617.036,858.014,616.554Z" transform="translate(-834.612 -546.528)"/><path class="e" d="M885.478,602.991a28.439,28.439,0,0,0-.286,2.867.686.686,0,0,1-.037.185,2.355,2.355,0,1,1-1.351-.233,29.3,29.3,0,0,1,.3-2.994c.537-4.209,1.341-10.978-1.18-15.769-1.206,1.8-3.02,4.43-4.625,6.4a31.4,31.4,0,0,1-9.081,7.227v.01l-.017-.005-.016.005v-.01a31.453,31.453,0,0,1-9.1-7.227c-1.431-1.757-3.028-4.03-4.216-5.781a30.922,30.922,0,0,0-1.974,12.7v.005c4.17.123,6.464,4.528,6.94,9.159a.371.371,0,0,1-.34.4l-.046,0c.04.484.274,2.664.691,6.443a48.691,48.691,0,0,0,7.218.539,48.094,48.094,0,0,0,21.821-5.212c.121-2.267.094-4.608.094-7.1.544-5.31,1.581-13.893,5.219-15.164-.1-.271-.486-.493-.658-.682-.012-.014-.032-.029-.042-.042-.356-.473-6.6-2.467-10.514-3.743,0,.006-.165.258-.434.67C887.023,590.836,886.068,598.365,885.478,602.991Z" transform="translate(-836.579 -539.955)"/><path class="e" d="M843.945,604.73c.008.336.015.655.022.973.045-.234.094-.467.153-.7.833-3.317,2.569-4.478,4.087-4.814a.617.617,0,0,1-.02-.088c-.149-6.741,1.014-11.161,2.484-14.044-.553-.836-.9-1.374-.9-1.374l2.221-.756.008-.01c-2.834.991-12.223,3.936-12.787,4.408-.327.273-.542.346-.65.637h0C842.2,590.233,843.4,599.42,843.945,604.73Z" transform="translate(-832.267 -539.654)"/><path class="e" d="M846.24,621.087c-.009,0-.017,0-.026,0,.014.611.029,1.177.05,1.7l.081.037c-.052-.92-.088-1.512-.106-1.734Z" transform="translate(-834.421 -550.119)"/><path class="e" d="M888.037,586.708c-.993,1.42-2.532,3.482-4.723,6.062-.2.238-.44.5-.7.767.576-.586,1.157-1.222,1.718-1.908C885.809,589.826,887.108,588.041,888.037,586.708Z" transform="translate(-844.671 -540.44)"/><path class="e" d="M882.546,596.223c-.047.049-.1.1-.146.148Z" transform="translate(-844.61 -543.119)"/><path class="e" d="M891.319,584.362c-.223.355-.57.886-1.052,1.578.459-.66.821-1.2,1.063-1.567Z" transform="translate(-846.826 -539.779)"/><path class="b" d="M895.289,585.5c.269-.412.43-.665.434-.67v0l-1.177-.4A11.118,11.118,0,0,1,895.289,585.5Z" transform="translate(-848.031 -539.797)"/><path class="b" d="M856.387,583.931l-2.221.756s.345.539.9,1.374A14.272,14.272,0,0,1,856.387,583.931Z" transform="translate(-836.66 -539.658)"/><path class="b" d="M869.959,600.507v.01l.017-.005.017.005v-.01a31.4,31.4,0,0,0,9.081-7.227c1.6-1.975,3.418-4.6,4.625-6.4a10.046,10.046,0,0,0-1.836-2.5c-.242.367-.6.907-1.063,1.567l-.075.107c-.93,1.333-2.229,3.118-3.7,4.921-.561.685-1.142,1.321-1.718,1.907l-.008.007-.147.148a31.682,31.682,0,0,1-5.17,4.206,31.8,31.8,0,0,1-7.061-6.268c-2.126-2.591-3.883-5.139-4.7-6.367a15.384,15.384,0,0,0-1.571,2.893c1.188,1.751,2.785,4.024,4.216,5.781A31.455,31.455,0,0,0,869.959,600.507Z" transform="translate(-837.357 -539.784)"/><path class="f" d="M857.025,541.262c.563.358,1.029-4.346,3.741-6.6s2.931-3.774,2.931-3.774c2.711.307,5.366,1.289,9.836,4.846,3.54,2.816,6.7,5.625,8.123,6,.394.1.408-1.406,1.759-1.126.025.006.05-.023.075-.078.35-.772.6-7.193-2.039-11.587a13.466,13.466,0,0,0-15.325-6.1c-3.545,1.062-3.751,2.611-5.345,3.029-3.316.869-5.373,6.088-5.373,11.154a11.076,11.076,0,0,0,.341,3.4C856.107,541.43,856.666,541.034,857.025,541.262Z" transform="translate(-837.01 -522.305)"/><path d="M852.664,584.825c-1.469,2.884-2.632,7.3-2.484,14.044a.624.624,0,0,0,.02.088c-1.518.336-3.254,1.5-4.087,4.814-.059.233-.108.466-.153.7a19.632,19.632,0,0,0-.292,4.552.384.384,0,0,0,.385.363c.009,0,.017,0,.026,0h.01l.451-.037.158-.013a.387.387,0,0,0,.358-.4c-.08-1.688-.141-8.366,3.932-8.7,4.156-.338,5.788,4.637,6.137,7.89a.369.369,0,0,0,.4.331l.141-.012.461-.037.046,0a.371.371,0,0,0,.34-.4c-.476-4.631-2.77-9.036-6.94-9.159v0a30.927,30.927,0,0,1,1.974-12.7,15.384,15.384,0,0,1,1.571-2.893,9.491,9.491,0,0,1,1.61-1.8,17.787,17.787,0,0,0,1.545-1.7c.005-.011.109-.154.114-.165a.328.328,0,0,0-.119-.028,1.368,1.368,0,0,0-.544.116,8.8,8.8,0,0,0-3.724,3.027l-.008.01A14.266,14.266,0,0,0,852.664,584.825Z" transform="translate(-834.26 -538.421)"/><path class="g" d="M846.26,621.075h-.011c.018.222.054.814.106,1.734.159.072.317.145.476.215-.06-1.077-.1-1.742-.12-1.986Z" transform="translate(-834.431 -550.106)"/><path class="g" d="M862.373,619.763h0c.039.482.269,2.624.677,6.328.159.025.316.054.475.078-.417-3.779-.651-5.959-.691-6.443Z" transform="translate(-838.971 -549.737)"/><path d="M887.067,579.733a12.571,12.571,0,0,0,1.162,1.32,8.06,8.06,0,0,1,.728.781A9.391,9.391,0,0,1,890.4,583l.011.011a10.045,10.045,0,0,1,1.836,2.5c2.521,4.79,1.717,11.56,1.18,15.769a29.312,29.312,0,0,0-.3,2.994,2.036,2.036,0,0,1,1.351.233.683.683,0,0,0,.037-.185,28.424,28.424,0,0,1,.286-2.867c.59-4.626,1.545-12.154-1.641-17.333a10.756,10.756,0,0,0-5.493-4.532.634.634,0,0,0-.59.041.714.714,0,0,0-.067.041A.411.411,0,0,1,887.067,579.733Z" transform="translate(-845.911 -538.421)"/><path class="h" d="M892.663,616.284a2.354,2.354,0,1,0,3.413-2.093,2.355,2.355,0,0,0-3.413,2.093Zm2.354-1.641a1.641,1.641,0,1,1-1.641,1.641A1.64,1.64,0,0,1,895.017,614.643Z" transform="translate(-847.5 -548.105)"/><path class="i" d="M895.3,618.2a1.641,1.641,0,1,0-1.641-1.64A1.641,1.641,0,0,0,895.3,618.2Z" transform="translate(-847.78 -548.385)"/></g></g></svg>