<svg xmlns="http://www.w3.org/2000/svg" width="96.548" height="96.548" viewBox="0 0 96.548 96.548"><defs><style>.a{fill:#557f8b;}.b{fill:#eaccb0;}.c{fill:#fff;}.d{fill:#9b9b9b;}.e{fill:#efefef;}.f{fill:#dedede;}.g{fill:#2c2a2d;}.h{fill:#202021;}.i{fill:#f2d4b6;}.j{fill:#534d46;}</style></defs><g transform="translate(-959.701 -112.444)"><circle class="a" cx="48.274" cy="48.274" r="48.274" transform="translate(959.701 112.444)"/><g transform="translate(971.02 127.776)"><path class="b" d="M1024.174,215.6v0Z" transform="translate(-989.211 -156.88)"/><path class="b" d="M1023.119,198.044c5.818-4.462,7.9-7.362,8.786-7.9a12.872,12.872,0,0,1-.5-3.037c-2.854,2.4-4.115,3.225-7.9,3.095-4.084.141-5.228-.823-8.6-3.688-.02-.017-.035-.037-.055-.055a13.521,13.521,0,0,1-.517,3.684C1015.215,190.676,1017.3,193.578,1023.119,198.044Z" transform="translate(-986.434 -148.657)"/><path class="c" d="M1016.818,223.645c.221-1.469.439-2.9.645-4.242h0l.012-.075c.668-4.337,1.223-7.8,1.435-8.959v0a.851.851,0,0,1-.261-.238v0a.544.544,0,0,1-.067-.091h0c-.114-.256-.23-.494-.345-.722l-.073-.144a12.034,12.034,0,0,1-1.4-3.185c-.02-.107-.037-.216-.048-.328,0-.011,0-.022-.005-.034a2.93,2.93,0,0,0-.69,1.9c.241,2.555-7.772-6.86-7.644-10.478a27.03,27.03,0,0,1-2.864,1.36l0,0A157.256,157.256,0,0,0,1016.818,223.645Z" transform="translate(-983.945 -151.645)"/><path class="d" d="M983.309,206.506l.008,0-.061.024c.012,0,.024,0,.036,0S983.3,206.509,983.309,206.506Z" transform="translate(-977.666 -154.313)"/><path class="c" d="M1031.865,207.554a2.923,2.923,0,0,0-.688-1.9c0,.011,0,.021,0,.032-.012.112-.029.222-.049.329a4.653,4.653,0,0,1-.167.652v0h0a20.032,20.032,0,0,1-1.229,2.522c-.026.051-.052.1-.078.151-.115.228-.23.465-.344.719a.52.52,0,0,1-.067.093v0a.835.835,0,0,1-.264.24c.21,1.15.757,4.561,1.417,8.844.01.063.019.126.03.191h0c.169,1.1.346,2.259.526,3.449a149.795,149.795,0,0,0,11.09-24.531h0a26.8,26.8,0,0,1-2.526-1.2C1039.528,200.82,1031.625,210.091,1031.865,207.554Z" transform="translate(-990.565 -151.674)"/><path class="d" d="M1069.375,206.506a3.416,3.416,0,0,1,.452.082c-.149-.067-.322-.135-.521-.205l.005,0C1069.344,206.4,1069.362,206.446,1069.375,206.506Z" transform="translate(-1001.943 -154.279)"/><path class="c" d="M981.095,206.537c-.012,0-.024,0-.036,0a3.4,3.4,0,0,0-.6.106c-2.166.578-3.652,5.823-4.987,11.67a48.5,48.5,0,0,0,11.558,10,23.494,23.494,0,0,0-.3-3.327C985.915,220.508,980.415,207.136,981.095,206.537Z" transform="translate(-975.469 -154.322)"/><path class="c" d="M1067.562,206.648c-.022-.006-.042-.006-.063-.011a3.422,3.422,0,0,0-.451-.082c.276,1.374-4.895,14.105-5.679,18.44a25.5,25.5,0,0,0-.313,3.876,48.492,48.492,0,0,0,11.688-9.648C1071.289,213.038,1069.838,207.256,1067.562,206.648Z" transform="translate(-999.616 -154.327)"/><path class="e" d="M1028.244,227.017h-1.182v-2.677h1.137l.016.106c-.66-4.283-1.207-7.694-1.417-8.844-.025.015-.047.036-.073.049a.887.887,0,0,1-.2.06v.065h-.612l-.637.041v.026l-.2-.013-.2.013v-.026l-.636-.041h-.612v-.065a.846.846,0,0,1-.2-.06c-.026-.013-.047-.034-.073-.049v0c-.212,1.162-.767,4.622-1.435,8.959l.034-.223h1.138v2.677h-1.184v-2.379c-.207,1.346-.424,2.773-.645,4.242h0c.037-.243.074-.492.111-.733v.919c.179.305.357.606.535.9v-1.879h1.184v2.676h-.689c.412.655.821,1.276,1.224,1.853v-.782h1.183v2.025c.177-.208.355-.429.535-.655v-1.37h1.024c.243-.342.487-.7.731-1.07h-.037v-2.676h1.182v.878c.176-.287.351-.581.526-.879-.18-1.19-.357-2.347-.526-3.449Zm-1.182-9.866c.109.654.238,1.458.383,2.372h-.383Zm0,3.442h.553q.2,1.243.419,2.676h-.971Zm-2.253-3.747v2.677h-1.183v-2.677Zm-1.718,6.423h-.973q.222-1.432.418-2.676h.554Zm0-3.747h-.384c.146-.917.276-1.722.384-2.378Zm1.718,11.24h-1.183v-2.676h1.183Zm0-3.747h-1.183v-2.677h1.183Zm0-3.747h-1.183v-2.676h1.183Zm1.717,7.494h-1.182v-2.676h1.182Zm0-3.747h-1.182v-2.677h1.182Zm0-3.747h-1.182v-2.676h1.182Zm0-3.747h-1.182v-2.677h1.182Z" transform="translate(-988.389 -156.88)"/><path class="c" d="M1023.234,214.138c.116.228.231.467.345.721v0h0C1023.465,214.6,1023.35,214.367,1023.234,214.138Z" transform="translate(-988.945 -156.467)"/><path class="c" d="M1021.108,209c0,.012,0,.022.005.034l0-.037Z" transform="translate(-988.345 -155.015)"/><path class="c" d="M1031.9,209.5a4.9,4.9,0,0,1-.167.652A4.689,4.689,0,0,0,1031.9,209.5Z" transform="translate(-991.344 -155.16)"/><path class="c" d="M1032.04,209v0c0,.01,0,.022,0,.034C1032.037,209.021,1032.04,209.011,1032.04,209Z" transform="translate(-991.429 -155.017)"/><path class="c" d="M1029.779,214.141c-.115.228-.23.464-.344.719C1029.549,214.606,1029.664,214.369,1029.779,214.141Z" transform="translate(-990.695 -156.468)"/><path class="c" d="M1023.4,212.219a.846.846,0,0,0,.2.06v-2.611h1.183v2.676h-.571l.636.041v.026l.2-.013.2.013v-.026l.637-.041h-.571v-2.676h1.182v2.611a.886.886,0,0,0,.2-.06c.026-.013.047-.034.073-.049a.837.837,0,0,0,.264-.24v-2.262h1.178c-.211.4-.448.831-.689,1.3a19.963,19.963,0,0,0,1.229-2.522V207.14q-.248-.312-.535-.617V208.6h-1.182v-2.676h.588c-.393-.378-.793-.736-1.168-1.07h-1.138v-1.077a2.946,2.946,0,0,1-.269-.337,2.759,2.759,0,0,1-.266.333v1.08h-1.141c-.374.335-.775.693-1.167,1.07h.59V208.6h-1.184v-2.075c-.19.2-.37.409-.535.617v1.307a4.845,4.845,0,0,1-.168-.655,12.037,12.037,0,0,0,1.4,3.185c-.242-.472-.48-.9-.692-1.307h1.179v2.263a.853.853,0,0,0,.261.238h0C1023.357,212.185,1023.379,212.206,1023.4,212.219Zm1.917-6.3h1.182V208.6h-1.182Zm-1.718,0h1.183V208.6H1023.6Z" transform="translate(-988.366 -153.448)"/><path d="M1025.738,212.116h-1.183v2.676h1.183Z" transform="translate(-989.318 -155.897)"/><rect width="1.182" height="2.677" transform="translate(35.237 59.967)"/><rect width="1.182" height="2.676" transform="translate(35.237 52.473)"/><rect width="1.182" height="2.676" transform="translate(35.237 63.714)"/><path d="M1024.555,238.214V239c.353.5.7.971,1.041,1.406l.142-.163v-2.025Z" transform="translate(-989.318 -163.26)"/><rect width="1.182" height="2.676" transform="translate(35.237 71.208)"/><rect width="1.182" height="2.676" transform="translate(35.237 67.461)"/><path d="M1021.262,233.813l.111.186v-.919C1021.336,233.32,1021.3,233.57,1021.262,233.813Z" transform="translate(-988.389 -161.811)"/><path d="M1022.161,209.573h1.184V206.9h-.59c-.2.2-.4.4-.594.6Z" transform="translate(-988.642 -154.424)"/><path d="M1021.33,208.593q-.115.143-.219.287l0,.037c.011.112.028.221.048.328a4.847,4.847,0,0,0,.168.655Z" transform="translate(-988.346 -154.902)"/><path d="M1023.347,212.117h-1.179c.212.406.45.835.692,1.307l.073.144c.116.229.231.466.345.721v0a.538.538,0,0,0,.067.091v-2.266Z" transform="translate(-988.644 -155.897)"/><path d="M1023.345,232.995h-1.184v1.879c.165.272.33.536.495.8h.689Z" transform="translate(-988.642 -161.787)"/><path d="M1023.345,230.452v-2.677h-1.138l-.034.223-.012.075h0v2.379Z" transform="translate(-988.642 -160.314)"/><path d="M1023.659,220.131v-2.378c-.108.655-.238,1.46-.384,2.378Z" transform="translate(-988.957 -157.487)"/><path d="M1022.455,225.232h.973v-2.676h-.554Q1022.678,223.8,1022.455,225.232Z" transform="translate(-988.725 -158.842)"/><path d="M1029.341,232.995v2.676h.037c.381-.573.762-1.17,1.145-1.8v-.878Z" transform="translate(-990.668 -161.787)"/><path d="M1029.341,227.775v2.677h1.182v-2.38h0c-.01-.065-.02-.128-.03-.191l-.016-.106Z" transform="translate(-990.668 -160.314)"/><path d="M1025.755,203.9c-.285.31-.688.676-1.141,1.08h1.141Z" transform="translate(-989.335 -153.579)"/><path d="M1028.086,204.983c-.451-.4-.854-.767-1.138-1.077v1.077Z" transform="translate(-989.993 -153.58)"/><rect width="1.182" height="2.676" transform="translate(36.955 63.714)"/><rect width="1.182" height="2.676" transform="translate(36.955 71.208)"/><rect width="1.182" height="2.676" transform="translate(36.955 67.461)"/><path d="M1028.131,212.116h-1.182v2.676h1.182v-2.676Z" transform="translate(-989.993 -155.897)"/><rect width="1.182" height="2.677" transform="translate(36.955 59.967)"/><path d="M1026.948,239.584c.338-.427.679-.882,1.024-1.37h-1.024Z" transform="translate(-989.993 -163.26)"/><rect width="1.182" height="2.676" transform="translate(36.955 52.473)"/><path d="M1029.341,217.761v2.372h.383C1029.579,219.219,1029.449,218.415,1029.341,217.761Z" transform="translate(-990.668 -157.489)"/><path d="M1029.341,212.117v2.265a.52.52,0,0,0,.067-.093c.114-.255.229-.491.344-.719.026-.052.052-.1.078-.151.241-.47.478-.9.689-1.3Z" transform="translate(-990.668 -155.897)"/><path d="M1031.734,209.9v0a4.944,4.944,0,0,0,.167-.653c.02-.108.037-.218.049-.33,0-.011,0-.024,0-.034-.069-.1-.143-.192-.219-.288V209.9Z" transform="translate(-991.343 -154.903)"/><path d="M1029.341,209.573h1.182V207.5c-.192-.2-.39-.406-.594-.6h-.588Z" transform="translate(-990.668 -154.424)"/><path d="M1029.894,222.556h-.552v2.676h.971Q1030.09,223.8,1029.894,222.556Z" transform="translate(-990.668 -158.842)"/><path class="f" d="M1017.142,205.949a2.93,2.93,0,0,1,.69-1.9l0,0q.1-.144.219-.287c.165-.207.345-.414.535-.617s.389-.4.594-.6c.392-.378.793-.736,1.167-1.07.452-.4.856-.77,1.141-1.08a2.735,2.735,0,0,0,.266-.333,2.95,2.95,0,0,0,.269.337c.284.309.687.674,1.138,1.077.375.335.775.693,1.168,1.07.2.2.4.4.594.6s.37.408.536.617c.076.1.15.191.219.288l0,0a2.923,2.923,0,0,1,.688,1.9c-.24,2.537,7.664-6.734,7.646-10.4a2.195,2.195,0,0,0-.011-.261c-.064-.518-1.576-1.3-2.973-3.668-.111-.189-.264-.2-.491-.06-.885.538-2.968,3.438-8.786,7.9-5.822-4.466-7.9-7.367-8.787-7.9-.226-.136-.378-.126-.488.062-1.4,2.363-2.91,3.149-2.973,3.668-.007.06-.006.125-.009.188C1009.371,199.089,1017.383,208.5,1017.142,205.949Z" transform="translate(-985.07 -150.069)"/><path class="g" d="M1011.2,231.653a9.909,9.909,0,0,0,2.734-2.367c-.342-.435-.688-.9-1.041-1.406-.4-.577-.812-1.2-1.224-1.853-.164-.261-.329-.525-.495-.8-.178-.293-.356-.594-.535-.9l-.11-.186h0a157.262,157.262,0,0,1-11.3-25.235l0,0c-.349-.9-15.053,5.046-15.914,5.428l-.008,0c-.007,0-.011.016-.017.022-.68.6,4.82,13.971,5.632,18.453a23.478,23.478,0,0,1,.3,3.327,47.985,47.985,0,0,0,21.649,7.064C1010.953,232.284,1011.063,231.722,1011.2,231.653Z" transform="translate(-977.657 -152.144)"/><path class="h" d="M1055.951,204.336c-.012-.06-.031-.106-.064-.121l-.005,0c-.841-.374-15.577-6.343-15.89-5.428h0a149.836,149.836,0,0,1-11.09,24.531c-.175.3-.35.591-.526.879-.383.628-.764,1.225-1.145,1.8-.245.37-.489.728-.731,1.07-.344.487-.686.943-1.024,1.37-.179.227-.358.447-.535.655l-.142.163a9.91,9.91,0,0,1-2.734,2.367c-.138.07-.248.632-.337,1.549,1.238.095,2.486.159,3.749.159a48.039,48.039,0,0,0,24.484-6.673,25.458,25.458,0,0,1,.313-3.876C1051.057,218.441,1056.227,205.71,1055.951,204.336Z" transform="translate(-988.52 -152.108)"/><path class="i" d="M1020.827,181.351c3.787.131,5.048-.691,7.9-3.095l.7-.594c3.543-3.009,1.758-9.286,3.909-8.894,2.114.385,4.513-5.339,3-6.782-.737-.07-1.343.627-1.909,1.58-.635,1.069-.388,2.719-1.021,2.681-.854-2.894-.663-5.472-.494-8.477-5.93,1.741-12.04,2.643-16.981-.984-1.012-.743-1.993-1.721-3.528-1.7-1.772.029-2.482,1.082-2.235,2.783.125.853.186,2,.235,2.511a7.261,7.261,0,0,1-1.337,4.366c-.264.272-.909,1.4-1.294,1.5-.317.077-.1-1.77-1.158-3.365-.834-1.259-1.221-.981-1.221-.981-1.69,1.307.769,7.259,2.92,6.866s.391,5.812,3.854,8.84c.02.017.035.037.055.055C1015.6,180.527,1016.743,181.491,1020.827,181.351Z" transform="translate(-983.753 -139.807)"/><path class="j" d="M1006.382,156.877c1.056,1.594.841,3.441,1.158,3.365.385-.094,1.029-1.225,1.294-1.5a7.261,7.261,0,0,0,1.337-4.366c-.049-.507-.11-1.658-.235-2.511-.248-1.7.463-2.754,2.235-2.783,1.535-.025,2.516.953,3.528,1.7,4.941,3.627,11.051,2.725,16.981.984-.168,3.006-.359,5.584.495,8.477.632.038.385-1.612,1.021-2.681.567-.953,1.172-1.65,1.909-1.58a1.145,1.145,0,0,1,.276.057c1.763-3.745,1.952-9.839.209-13.593s-4.524-5.513-7.281-8.642c.253.849-.893,2.118-1.976,2.217a19.7,19.7,0,0,1-3.309-.513c-4.561-.551-7.166-.759-10.9.551a13.926,13.926,0,0,0-5.182,3.03,14.326,14.326,0,0,0-3.719,7.647,18.881,18.881,0,0,0-.131,4.577,17.907,17.907,0,0,0,1.069,4.585S1005.548,155.618,1006.382,156.877Z" transform="translate(-983.52 -133.801)"/></g></g></svg>