<svg xmlns="http://www.w3.org/2000/svg" width="94.494" height="94.494" viewBox="0 0 94.494 94.494"><defs><style>.a{fill:#f8f1fb;}.b{fill:#866a5e;}.c{fill:#eaccb0;}.d{fill:#45779a;}.e{fill:#426987;}.f{fill:#f2d4b6;}.g{fill:#132026;}.h{fill:#e0e0e0;}.i{fill:#3d6181;}</style></defs><g transform="translate(-1106.791 -878.146)"><circle class="a" cx="47.247" cy="47.247" r="47.247" transform="translate(1106.791 878.146)"/><g transform="translate(1122.784 897.601)"><path class="b" d="M1188.372,937.777c-.686-.49-.661,6.441-3.5,9.184q-.306.3-.625.577c-.167.147-.347.28-.52.419a11.785,11.785,0,0,0,1.012,5.04,5.652,5.652,0,0,1,2.958,2.9,2.612,2.612,0,0,0,.3.139c.115.044.285.109.5.188,0-.031.013-.074.016-.1l1.055.344c0,.041-.016.1-.023.148l1.483.551c-.763-3.633-.334-12.994-.414-20.491l-.255.053C1189.878,937.71,1189.205,938.336,1188.372,937.777Z" transform="translate(-1145.665 -915.006)"/><path class="b" d="M1155.953,956.462l1.055-.344c0,.023.01.059.013.084l.448-.17a2.8,2.8,0,0,0,.28-.129,5.647,5.647,0,0,1,2.99-2.918,11.773,11.773,0,0,0,1.005-5c-.4-.323-.792-.662-1.163-1.021-2.841-2.743-2.816-9.674-3.5-9.184-.835.561-1.508-.07-1.986-1.06l-.228-.048c-.08,7.5.349,16.853-.414,20.488l1.522-.565C1155.968,956.552,1155.958,956.5,1155.953,956.462Z" transform="translate(-1136.959 -915.006)"/><path class="c" d="M1174.511,986.07v-.092c.018-.029.042-.077.063-.116l-.085.116-.063-.058Z" transform="translate(-1142.899 -929.636)"/><path class="c" d="M1162.633,958.672a5.107,5.107,0,0,0,.595,4.738c1.448,1.834,3.68,5.178,4.757,6.925h0c.052.08.1.166.152.249.021.036.047.077.067.11.034.056.067.112.1.169.134.229.226.4.269.5,1.2,2.316,2.31,4.767,2.31,4.767a33.136,33.136,0,0,1,1.957-4.767c.044-.1.136-.267.269-.5.033-.058.066-.113.1-.169l.068-.11c.05-.083.1-.169.151-.249h0c1.076-1.747,3.309-5.092,4.757-6.925a5.109,5.109,0,0,0,.6-4.738l-.533-.946c.038.013.081.035.12.051a11.786,11.786,0,0,1-1.012-5.04,13.2,13.2,0,0,1-1.608,1.137,10.282,10.282,0,0,1-2.049.924,9.755,9.755,0,0,1-2,.414,9.964,9.964,0,0,1-2.547-.073,9.669,9.669,0,0,1-2.01-.547,10.948,10.948,0,0,1-2.068-1.092c-.343-.229-.67-.48-.992-.738a11.771,11.771,0,0,1-1.005,5c.03-.011.063-.029.092-.039Z" transform="translate(-1139.292 -919.784)"/><path class="d" d="M1162.495,997.892c-1-1.44-2.786-5.187-6.106-14.939-.992-2.915-1.95-5.863-2.777-8.524a3.969,3.969,0,0,1-1.478.794c-.875.12-.658-3.525-.245-6.589a36.009,36.009,0,0,1-.877-3.609l-1.522.565c-3.639,1.35-9.372,3.488-11.723,4.537,2.058.149,3.833,4.831,4.865,7.5.9,2.319,1.2,11.307,1.272,16.71a46.947,46.947,0,0,0,15.429,3.971v-.413Z" transform="translate(-1131.997 -923.44)"/><path class="d" d="M1170.648,983.22c-.234-.217-1.162-1.1-2.662-2.807a9.908,9.908,0,0,0-2.08-1.937s-.92-.128.091-.6l.65-.3c-2.272-1.173-3.782-.856-4.921-.262,2.864,9.156,7.3,21.774,8.844,23.582a3.059,3.059,0,0,0,.192-.263c-.01-8.672-.025-16.358-.027-17.265Z" transform="translate(-1139.122 -926.937)"/><path class="d" d="M1158.378,965.661c.082-.4.16-.741.228-.984a5.063,5.063,0,0,1,.231-.63,2.8,2.8,0,0,1-.28.128l-.448.17C1158.15,964.648,1158.243,965.1,1158.378,965.661Z" transform="translate(-1138.047 -923.148)"/><path class="e" d="M1200.322,970.127c-2.362-1.051-8.067-3.179-11.7-4.525l-1.483-.551a38.238,38.238,0,0,1-.92,3.757c.4,3.028.592,6.54-.267,6.422a3.747,3.747,0,0,1-1.422-.755c-.825,2.651-1.777,5.585-2.765,8.485-3.319,9.752-5.1,13.5-6.1,14.939h3.691v.343a46.9,46.9,0,0,0,14.63-3.954c.075-5.408.376-14.345,1.271-16.657C1196.322,974.88,1198.179,969.968,1200.322,970.127Z" transform="translate(-1143.267 -923.447)"/><path class="e" d="M1189.87,965.815c.155-.634.258-1.124.3-1.457-.212-.079-.381-.143-.5-.188a2.62,2.62,0,0,1-.3-.139,5.121,5.121,0,0,1,.235.641C1189.689,964.946,1189.778,965.341,1189.87,965.815Z" transform="translate(-1147.345 -923.144)"/><path class="e" d="M1174.547,983.37c0,.907.018,8.593.027,17.265,1.691-2.51,5.886-14.483,8.642-23.287-1.146-.614-2.669-.963-4.981.231l.651.3c1.01.474.235.538.235.538a9.725,9.725,0,0,0-2.224,2c-1.4,1.593-2.073,2.464-2.287,2.749-.021.039-.045.087-.062.116Z" transform="translate(-1142.935 -926.937)"/><path class="f" d="M1157.009,933c.686-.49.661,6.441,3.5,9.184.372.359.762.7,1.164,1.021.322.259.649.509.992.738a10.966,10.966,0,0,0,2.068,1.092,9.671,9.671,0,0,0,2.01.547,9.97,9.97,0,0,0,2.547.073,9.763,9.763,0,0,0,2-.415,10.29,10.29,0,0,0,2.049-.924,13.213,13.213,0,0,0,1.608-1.137c.173-.14.353-.273.52-.419q.319-.28.625-.577c2.841-2.743,2.817-9.674,3.5-9.184.833.559,1.506-.067,1.983-1.054a9.408,9.408,0,0,0,.784-2.89c.138-1.309-.245-2.07-.754-2.141-.013.019-.026.048-.038.052-1.167.34-1.4,1.491-1.706,1.246-.688-.554-5.563-2.177-9.4-4.192-4.558-2.4-5.5-3.131-8.1-3.425l-3.126,2.728c-2.6,2.156-2.874,4.949-3.162,4.379-.356-.7-.688-.526-.931-.794-.585-.075-1.059.71-.908,2.148a9.45,9.45,0,0,0,.782,2.884C1155.5,932.925,1156.175,933.557,1157.009,933Z" transform="translate(-1136.888 -910.224)"/><path class="b" d="M1156.31,923.31c.288.57.566-2.223,3.162-4.379l3.126-2.728c2.6.294,3.542,1.029,8.1,3.425,3.833,2.015,8.709,3.638,9.4,4.192.3.245.539-.906,1.706-1.246.012,0,.025-.033.038-.052.344-.532.69-6.769-1.918-11.116-3.126-5.21-11.942-7.348-18.114-3.87-.594.335-.148.532-1.675.932-3.174.831-5.144,5.828-5.144,10.677,0,2.408.152,3.105.391,3.37S1155.954,922.6,1156.31,923.31Z" transform="translate(-1137.118 -905.836)"/><path class="g" d="M1157.658,964.435c0-.025-.01-.061-.013-.084l-1.055.344c0,.036.015.09.021.131a36,36,0,0,0,.877,3.609c.136-1.01.293-1.955.439-2.682C1157.79,965.186,1157.7,964.739,1157.658,964.435Z" transform="translate(-1137.594 -923.239)"/><path class="g" d="M1190.4,964.351c0,.028-.011.071-.016.1-.046.333-.148.823-.3,1.457.146.746.3,1.691.431,2.69a38.2,38.2,0,0,0,.92-3.757c.007-.047.019-.107.023-.148Z" transform="translate(-1147.555 -923.239)"/><path class="g" d="M1170.343,1000.86a3.066,3.066,0,0,1-.192.263c-1.546-1.808-5.979-14.426-8.844-23.582a9.066,9.066,0,0,0-.989.61c.828,2.661,1.785,5.609,2.777,8.524,3.319,9.752,5.1,13.5,6.106,14.939h1.9c1-1.44,2.786-5.187,6.1-14.939.988-2.9,1.941-5.834,2.766-8.485a10.075,10.075,0,0,0-.986-.618C1176.229,986.377,1172.034,998.35,1170.343,1000.86Z" transform="translate(-1138.704 -927.162)"/><path class="h" d="M1165.346,972.538l-.65.3c-1.01.474-.091.6-.091.6a9.906,9.906,0,0,1,2.08,1.937c1.5,1.706,2.428,2.59,2.662,2.807l.063.058s-1.111-2.451-2.31-4.767a5.636,5.636,0,0,0-.269-.5c-.032-.058-.065-.113-.1-.169-.02-.034-.046-.074-.067-.11-.051-.083-.1-.169-.152-.249h0c-1.076-1.747-3.309-5.092-4.757-6.925a5.107,5.107,0,0,1-.595-4.738l.532-.946c-.029.01-.062.028-.092.039a5.647,5.647,0,0,0-2.99,2.918,5.068,5.068,0,0,0-.231.63c-.069.243-.147.581-.228.984-.146.728-.3,1.673-.439,2.683-.413,3.064-.631,6.709.244,6.589a3.97,3.97,0,0,0,1.478-.794,9.043,9.043,0,0,1,.989-.61C1161.564,971.682,1163.074,971.365,1165.346,972.538Z" transform="translate(-1137.822 -921.896)"/><path class="h" d="M1185.192,963.424a5.121,5.121,0,0,0-.235-.641,5.652,5.652,0,0,0-2.958-2.9c-.04-.015-.082-.037-.12-.051l.533.946a5.109,5.109,0,0,1-.6,4.738c-1.447,1.834-3.681,5.178-4.757,6.925h0c-.051.08-.1.166-.151.249l-.068.11c-.033.056-.066.112-.1.169-.134.229-.226.4-.269.5a33.136,33.136,0,0,0-1.957,4.767l.085-.116c.214-.285.886-1.156,2.287-2.749a9.725,9.725,0,0,1,2.224-2s.776-.064-.235-.538l-.651-.3c2.312-1.194,3.835-.845,4.981-.231a10.072,10.072,0,0,1,.986.618,3.747,3.747,0,0,0,1.422.755c.859.118.665-3.394.267-6.422-.132-1-.285-1.944-.431-2.69C1185.358,964.094,1185.269,963.7,1185.192,963.424Z" transform="translate(-1142.926 -921.896)"/><path class="h" d="M1173.522,1011.8h-5.06v.413q1.555.128,3.134.155h1.567c1.364-.023,2.716-.089,4.05-.225v-.343Z" transform="translate(-1141.125 -937.352)"/><path class="i" d="M1135.324,972.285a1.4,1.4,0,0,0-.587.07c-1.687.613-3.4,5.456-4.274,10.787-.221,1.354-.556,3.422-.909,5.666a47.253,47.253,0,0,0,11.907,7.683c-.074-5.4-.374-14.39-1.272-16.71C1139.157,977.116,1137.382,972.434,1135.324,972.285Z" transform="translate(-1129.554 -925.597)"/><path class="i" d="M1213.633,988.716c-.349-2.21-.677-4.241-.9-5.577-.871-5.331-2.587-10.175-4.274-10.788a1.429,1.429,0,0,0-.386-.078c-2.144-.159-4,4.753-5.066,7.505-.9,2.312-1.2,11.249-1.271,16.657A47.277,47.277,0,0,0,1213.633,988.716Z" transform="translate(-1151.023 -925.594)"/></g></g></svg>