<svg xmlns="http://www.w3.org/2000/svg" width="96.522" height="96.522" viewBox="0 0 96.522 96.522"><defs><style>.a{fill:#03b8fa;}.b{fill:#3a3a3a;}.c{fill:#f7ddcb;}.d{fill:#ffe6d4;}.e{fill:#f4f4f4;}.f{fill:#eaeaea;}.g{fill:#001e51;}.h{fill:#e0e0e0;}</style></defs><g transform="translate(-507.892 -878.619)"><circle class="a" cx="48.261" cy="48.261" r="48.261" transform="translate(507.892 878.619)"/><g transform="translate(525.374 897.131)"><path class="b" d="M559.68,938.66c-2.964-2.862-2.939-10.095-3.654-9.584-1.635,1.1-2.683-2.172-2.888-4.114-.126-1.193.161-1.956.59-2.182a1.3,1.3,0,0,1,.586,0,1.21,1.21,0,0,1,.323.235,1.461,1.461,0,0,0,.3.243c.23.334.332.7.533.645,1.425-.376,4.578-3.181,8.114-6,4.466-3.553,7.118-4.534,9.826-4.841,0,0,.219,1.521,2.928,3.771s3.41,7.065,3.972,6.707c.344-.219.782.092,1.072-.787.675-.243,1.266.579,1.1,2.2-.2,1.943-1.252,5.213-2.888,4.114-.716-.511-.69,6.722-3.655,9.584q-.319.308-.652.6c-.225.2-.463.378-.7.563a12.079,12.079,0,0,0,.96,4.925h6.771s8.493-3.878,4.146-7.424c-5-4.08.619-3.5.382-7.974-.151-2.846-3.407-3.7-2.884-6.959.785-4.886-.935-13.148-6.953-14.549a21.48,21.48,0,0,0-5.817-2.738c-.07-.022-.134-.045-.207-.068a12.766,12.766,0,0,0-1.522-.345c-.083-.015-.164-.027-.246-.04-.141-.021-.281-.049-.421-.066a14.757,14.757,0,0,0-15.515,7.725c-4.082,8.192,1.67,9.871-3.288,13.653-1.633,1.244-2.21,3.212-1.557,4.481,1.268,2.463,4.187,4.236,2.041,5.79-3.252,2.354-1.84,5.508,2.828,8.514h6.764a12.08,12.08,0,0,0,.959-4.924A17.521,17.521,0,0,1,559.68,938.66Z" transform="translate(-536.746 -904.414)"/><path class="c" d="M575.126,1006.8c.055.272.122.581.2.914q.1-.463.184-.851c-.029.008-.058.02-.088.027C575.32,1006.861,575.224,1006.825,575.126,1006.8Z" transform="translate(-544.356 -933.32)"/><path class="c" d="M592.6,966.964c-.354-.214-.75-.452-1.2-.723-.016-.01-.029-.021-.046-.031l.008.021C591.725,966.472,592.143,966.717,592.6,966.964Z" transform="translate(-548.937 -921.861)"/><path class="c" d="M563.24,960.5a5.48,5.48,0,0,0,.639,5.083c1.553,1.968,3.949,5.557,5.1,7.431h0c.055.086.108.178.162.267l.072.118c.036.061.072.121.107.182.144.245.242.426.288.532,1.287,2.486,2.479,5.115,2.479,5.115a35.615,35.615,0,0,1,2.1-5.115c.047-.105.145-.286.289-.532.035-.062.071-.121.107-.182l.072-.118c.054-.089.107-.181.162-.267h0c1.154-1.875,3.55-5.464,5.1-7.431a5.48,5.48,0,0,0,.639-5.083l-.572-1.015c.052.017.111.047.165.069a8.925,8.925,0,0,1-.456-.87,12.077,12.077,0,0,1-.96-4.925,13.469,13.469,0,0,1-1.522,1.061,10.759,10.759,0,0,1-2.138.964,10.208,10.208,0,0,1-2.087.433,10.394,10.394,0,0,1-2.657-.077,10.021,10.021,0,0,1-2.1-.571,11.419,11.419,0,0,1-2.158-1.139c-.311-.207-.606-.438-.9-.67a12.079,12.079,0,0,1-.959,4.924,8.783,8.783,0,0,1-.416.8h.006Z" transform="translate(-540.898 -918.345)"/><path class="c" d="M559.189,966.345c-.284.172-.549.336-.79.491.278-.156.539-.311.78-.464Z" transform="translate(-539.633 -921.9)"/><path class="d" d="M577.879,942.065c2.965-2.862,2.94-10.095,3.655-9.584,1.636,1.1,2.683-2.172,2.888-4.115.171-1.621-.42-2.443-1.1-2.2-.29.879-.728.568-1.072.787-.562.358-1.263-4.458-3.972-6.707s-2.928-3.771-2.928-3.771c-2.708.306-5.36,1.288-9.826,4.841-3.536,2.814-6.689,5.619-8.114,6-.2.052-.3-.312-.533-.645a1.463,1.463,0,0,1-.3-.243,1.21,1.21,0,0,0-.323-.235,1.3,1.3,0,0,0-.586,0c-.428.227-.716.99-.59,2.182.2,1.943,1.252,5.213,2.888,4.115.716-.511.69,6.722,3.654,9.584a17.548,17.548,0,0,0,1.349,1.165c.294.232.589.462.9.67a11.432,11.432,0,0,0,2.158,1.139,10.022,10.022,0,0,0,2.1.571,10.394,10.394,0,0,0,2.657.077,10.208,10.208,0,0,0,2.087-.433,10.771,10.771,0,0,0,2.138-.964,13.5,13.5,0,0,0,1.522-1.061c.235-.184.473-.365.7-.563S577.666,942.27,577.879,942.065Z" transform="translate(-538.688 -907.82)"/><path class="e" d="M555.981,970.512a9.2,9.2,0,0,0,1.27,3.144,44.573,44.573,0,0,1,1.02-6.762,5.274,5.274,0,0,1,.188-.512c-.241.153-.5.308-.78.464-.5.282-1.059.567-1.639.85C556.213,967.833,555.586,968.718,555.981,970.512Z" transform="translate(-538.913 -921.91)"/><path class="e" d="M591.588,966.854a44.427,44.427,0,0,1,1.01,6.648,9.073,9.073,0,0,0,1.206-3.031c.47-2.133-.5-2.98.14-2.813-.469-.228-.921-.458-1.343-.687-.456-.246-.873-.492-1.239-.732A5.461,5.461,0,0,1,591.588,966.854Z" transform="translate(-548.94 -921.87)"/><path class="e" d="M575.543,980.387l.7.316c1.084.51.251.578.251.578a10.438,10.438,0,0,0-2.386,2.148c-1.875,2.131-2.546,3.074-2.546,3.074a40.74,40.74,0,0,1-2.924-3.074,10.628,10.628,0,0,0-2.231-2.079s-.987-.137.1-.647l.7-.316c-3.1-1.6-4.882-.622-6.2.275a83.027,83.027,0,0,1,5.784,9.264c1.5,2.756,3.985,6.763,4.244,8.592.021.146.06.353.107.581.1.029.194.065.292.09.029-.007.058-.019.088-.027.052-.255.1-.485.12-.644.258-1.829,2.742-5.835,4.244-8.592a82.858,82.858,0,0,1,5.809-9.3C580.381,979.741,578.605,978.805,575.543,980.387Z" transform="translate(-540.369 -925.623)"/><path class="f" d="M607.5,996.776a48.356,48.356,0,0,0,7.854-5.4c-1.824-7.737-3.623-14.384-4.183-14.989-.411,1.747-3.4,12.149-3.657,13.879C607.243,992.141,607.669,994,607.5,996.776Z" transform="translate(-553.475 -924.733)"/><path class="f" d="M540.14,990.242c-.253-1.732-3.135-12.192-3.52-13.919-.015,0-.029-.006-.043-.007-.455-.039-2.385,7.059-4.326,15.317a48.292,48.292,0,0,0,7.919,5.339C539.969,994.075,540.422,992.169,540.14,990.242Z" transform="translate(-532.251 -924.715)"/><path class="g" d="M590.1,968.452a6.856,6.856,0,0,0-.662-.243c-.642-.167.33.68-.14,2.813a9.073,9.073,0,0,1-1.206,3.031c.189,2.394.128,4.449-.557,4.356a5.066,5.066,0,0,1-1.78-.983,82.809,82.809,0,0,0-5.809,9.3c-1.5,2.756-3.985,6.763-4.244,8.592-.023.159-.068.389-.12.644s-.115.543-.184.851c.215.962.469,2.052.537,2.551.046.334.085.653.126.974h2.04a47.962,47.962,0,0,0,20.361-5.873c.166-2.779-.26-4.635.014-6.515.253-1.73,3.245-12.131,3.656-13.879a1.2,1.2,0,0,0,.048-.255C601.7,973.157,591.89,969.169,590.1,968.452Z" transform="translate(-544.433 -922.42)"/><path class="g" d="M564.918,996.81c-.074-.334-.141-.642-.2-.914-.047-.228-.086-.436-.107-.581-.259-1.829-2.742-5.835-4.244-8.592a83.016,83.016,0,0,0-5.784-9.264,4.861,4.861,0,0,1-1.731.95c-.675.092-.744-1.9-.566-4.243a9.206,9.206,0,0,1-1.27-3.144c-.395-1.795.232-2.679.059-2.816-.077-.06-.309.025-.86.245-1.791.717-11.463,4.672-11.94,5.329a1.091,1.091,0,0,0,.043.248c.385,1.727,3.267,12.187,3.52,13.919.282,1.927-.171,3.832.03,6.73a47.977,47.977,0,0,0,5.136,2.377V993.7h10.4v3.554h-9.884a48,48,0,0,0,14.321,3.078h3.738c-.04-.321-.08-.64-.126-.974C565.387,998.861,565.133,997.771,564.918,996.81Z" transform="translate(-533.952 -922.42)"/><path class="h" d="M558.79,965.582a44.559,44.559,0,0,0-1.02,6.762c-.178,2.345-.108,4.335.566,4.243a4.865,4.865,0,0,0,1.731-.95c1.314-.9,3.1-1.876,6.2-.275l-.7.316c-1.084.51-.1.647-.1.647A10.627,10.627,0,0,1,567.7,978.4a40.749,40.749,0,0,0,2.924,3.074s-1.192-2.63-2.479-5.115a6.006,6.006,0,0,0-.288-.532c-.035-.062-.071-.121-.107-.182l-.072-.118c-.054-.089-.107-.181-.162-.267h0c-1.155-1.875-3.55-5.464-5.1-7.432a5.48,5.48,0,0,1-.639-5.083l.572-1.015h-.006a6.055,6.055,0,0,0-3.352,3.308l-.01.027A5.246,5.246,0,0,0,558.79,965.582Z" transform="translate(-539.432 -920.597)"/><path class="h" d="M584.186,962.748a5.48,5.48,0,0,1-.639,5.083c-1.553,1.968-3.949,5.557-5.1,7.432h0c-.055.086-.108.178-.162.267l-.072.118c-.036.061-.072.12-.107.182-.144.245-.242.426-.289.532a35.611,35.611,0,0,0-2.1,5.115s.671-.943,2.546-3.074a10.438,10.438,0,0,1,2.386-2.148s.832-.068-.251-.578l-.7-.316c3.062-1.582,4.838-.646,6.147.242a5.069,5.069,0,0,0,1.78.983c.685.093.746-1.962.557-4.356a44.427,44.427,0,0,0-1.01-6.648,5.456,5.456,0,0,0-.226-.614l-.008-.021a6.065,6.065,0,0,0-3.157-3.144c-.054-.021-.113-.052-.165-.069Z" transform="translate(-544.522 -920.597)"/><path class="g" d="M564.171,1003.741H550.442l.063,6.077c.227.131,1.882.81,2.109.938l11.557-.1Z" transform="translate(-538.861 -935.752)"/></g></g></svg>