<svg id="epDzF35YsLU1" xmlns="http://www.w3.org/2000/svg" xmlns:xlink="http://www.w3.org/1999/xlink" viewBox="0 0 337.5 313.4" shape-rendering="geometricPrecision" text-rendering="geometricPrecision"><g id="epDzF35YsLU2"><g id="epDzF35YsLU3"><g id="epDzF35YsLU4" transform="matrix(1 0 0 1 1245.43 30.931)"><g id="epDzF35YsLU5" transform="matrix(1 0 0 1 267.222 336.417)"><path id="epDzF35YsLU6" d="M-1221.1,-110.7L-1225.5,-110.7L-1225.5,-111.3L-1221.1,-111.3L-1221.1,-110.7ZM-1229.8,-110.7L-1234.2,-110.7L-1234.2,-111.3L-1229.8,-111.3L-1229.8,-110.7ZM-1238.6,-110.7L-1243,-110.7L-1243,-111.3L-1238.6,-111.3L-1238.6,-110.7ZM-1247.3,-110.7L-1251.7,-110.7L-1251.7,-111.3L-1247.3,-111.3L-1247.3,-110.7ZM-1256.1,-110.7L-1260.5,-110.7L-1260.5,-111.3L-1256.1,-111.3L-1256.1,-110.7ZM-1264.8,-110.7L-1269.2,-110.7L-1269.2,-111.3L-1264.8,-111.3L-1264.8,-110.7ZM-1273.6,-110.7L-1278,-110.7L-1278,-111.3L-1273.6,-111.3L-1273.6,-110.7ZM-1282.3,-110.7L-1286.7,-110.7L-1286.7,-111.3L-1282.3,-111.3L-1282.3,-110.7ZM-1291.1,-110.7L-1295.5,-110.7L-1295.5,-111.3L-1291.1,-111.3L-1291.1,-110.7ZM-1299.8,-110.7L-1304.2,-110.7L-1304.2,-111.3L-1299.8,-111.3L-1299.8,-110.7ZM-1308.6,-110.7L-1313,-110.7L-1313,-111.3L-1308.6,-111.3L-1308.6,-110.7ZM-1317.3,-110.7L-1321.7,-110.7L-1321.7,-111.3L-1317.3,-111.3L-1317.3,-110.7ZM-1326.1,-110.7L-1328.2,-110.7L-1328.2,-111.3L-1326.1,-111.3L-1326.1,-110.7ZM-1218.3,-112.9L-1218.9,-112.9L-1218.9,-117.3L-1218.3,-117.3L-1218.3,-112.9ZM-1218.3,-121.6L-1218.9,-121.6L-1218.9,-126L-1218.3,-126L-1218.3,-121.6ZM-1218.3,-130.4L-1218.9,-130.4L-1218.9,-134.8L-1218.3,-134.8L-1218.3,-130.4ZM-1218.3,-139.1L-1218.9,-139.1L-1218.9,-143.5L-1218.3,-143.5L-1218.3,-139.1ZM-1218.3,-147.8L-1218.9,-147.8L-1218.9,-152.2L-1218.3,-152.2L-1218.3,-147.8ZM-1218.3,-156.6L-1218.9,-156.6L-1218.9,-161L-1218.3,-161L-1218.3,-156.6ZM-1218.3,-165.3L-1218.9,-165.3L-1218.9,-169.7L-1218.3,-169.7L-1218.3,-165.3ZM-1218.3,-174.1L-1218.9,-174.1L-1218.9,-178.5L-1218.3,-178.5L-1218.3,-174.1ZM-1218.3,-182.8L-1218.9,-182.8L-1218.9,-187.2L-1218.3,-187.2L-1218.3,-182.8ZM-1218.3,-191.6L-1218.9,-191.6L-1218.9,-196L-1218.3,-196L-1218.3,-191.6ZM-1218.3,-200.3L-1218.9,-200.3L-1218.9,-204.7L-1218.3,-204.7L-1218.3,-200.3ZM-1218.3,-209.1L-1218.9,-209.1L-1218.9,-213.5L-1218.3,-213.5L-1218.3,-209.1ZM-1218.3,-217.8L-1218.9,-217.8L-1218.9,-222.2L-1218.3,-222.2L-1218.3,-217.8ZM-1218.3,-226.6L-1218.9,-226.6L-1218.9,-231L-1218.3,-231L-1218.3,-226.6ZM-1218.3,-235.3L-1218.9,-235.3L-1218.9,-239.7L-1218.3,-239.7L-1218.3,-235.3Z" fill="rgb(230,255,255)" stroke="none" stroke-width="1"/><g id="epDzF35YsLU7" transform="matrix(0.999976 0.006905 -0.006905 0.999976 66.761 83.484)"><circle id="epDzF35YsLU8" r="28.1" transform="matrix(1 0 0 1 -1288.4 -199.9)" fill="rgb(229,231,255)" stroke="none" stroke-width="1"/><path id="epDzF35YsLU9" d="M-1288.4,-175.9C-1301.7,-175.9,-1312.4,-186.7,-1312.4,-199.9C-1312.4,-213.2,-1301.6,-223.9,-1288.4,-223.9C-1275.1,-223.9,-1264.4,-213.1,-1264.4,-199.9C-1264.4,-186.7,-1275.1,-175.9,-1288.4,-175.9ZM-1288.4,-223.3C-1301.3,-223.3,-1311.8,-212.8,-1311.8,-199.9C-1311.8,-187,-1301.3,-176.5,-1288.4,-176.5C-1275.5,-176.5,-1265,-187,-1265,-199.9L-1265,-199.9C-1265,-212.8,-1275.5,-223.3,-1288.4,-223.3L-1288.4,-223.3Z" fill="rgb(54,41,91)" stroke="none" stroke-width="1"/><path id="epDzF35YsLU10" d="M-1288.4,-196.9L-1298.7,-214.7L-1298.1,-215L-1288.3,-198L-1279.9,-208L-1279.4,-207.6L-1288.4,-196.9Z" fill="rgb(54,41,91)" stroke="none" stroke-width="1"/></g><path id="epDzF35YsLU11" d="M-1211,-180.2L-1226.4,-180.2L-1218.7,-187.9L-1211,-180.2Z" fill="rgb(194,175,234)" stroke="none" stroke-width="1"/></g><g id="epDzF35YsLU12" transform="matrix(1 0 0 1 127.166 280.507)"><path id="epDzF35YsLU13" d="M-1327.6,-127L-1328.2,-127L-1328.2,-129.7L-1327.6,-129.7L-1327.6,-127ZM-1327.6,-134L-1328.2,-134L-1328.2,-138.4L-1327.6,-138.4L-1327.6,-134ZM-1327.6,-142.8L-1328.2,-142.8L-1328.2,-147.2L-1327.6,-147.2L-1327.6,-142.8ZM-1327.6,-151.5L-1328.2,-151.5L-1328.2,-155.9L-1327.6,-155.9L-1327.6,-151.5ZM-1327.6,-160.3L-1328.2,-160.3L-1328.2,-164.7L-1327.6,-164.7L-1327.6,-160.3ZM-1327.6,-169L-1328.2,-169L-1328.2,-173.4L-1327.6,-173.4L-1327.6,-169ZM-1327.6,-177.8L-1328.2,-177.8L-1328.2,-182.2L-1327.6,-182.2L-1327.6,-177.8ZM-1327.6,-186.5L-1328.2,-186.5L-1328.2,-190.9L-1327.6,-190.9L-1327.6,-186.5ZM-1327.6,-195.3L-1328.2,-195.3L-1328.2,-199.7L-1327.6,-199.7L-1327.6,-195.3ZM-1327.6,-204L-1328.2,-204L-1328.2,-208.4L-1327.6,-208.4L-1327.6,-204ZM-1327.6,-212.8L-1328.2,-212.8L-1328.2,-217.2L-1327.6,-217.2L-1327.6,-212.8ZM-1327.6,-221.5L-1328.2,-221.5L-1328.2,-225.9L-1327.6,-225.9L-1327.6,-221.5ZM-1327.6,-230.3L-1328.2,-230.3L-1328.2,-232.3L-1325.2,-232.3L-1325.2,-231.7L-1327.6,-231.7L-1327.6,-230.3ZM-1194,-231.7L-1198.4,-231.7L-1198.4,-232.3L-1194,-232.3L-1194,-231.7ZM-1202.7,-231.7L-1207.1,-231.7L-1207.1,-232.3L-1202.7,-232.3L-1202.7,-231.7ZM-1211.5,-231.7L-1215.9,-231.7L-1215.9,-232.3L-1211.5,-232.3L-1211.5,-231.7ZM-1220.2,-231.7L-1224.6,-231.7L-1224.6,-232.3L-1220.2,-232.3L-1220.2,-231.7ZM-1229,-231.7L-1233.4,-231.7L-1233.4,-232.3L-1229,-232.3L-1229,-231.7ZM-1237.7,-231.7L-1242.1,-231.7L-1242.1,-232.3L-1237.7,-232.3L-1237.7,-231.7ZM-1246.5,-231.7L-1250.9,-231.7L-1250.9,-232.3L-1246.5,-232.3L-1246.5,-231.7ZM-1255.2,-231.7L-1259.6,-231.7L-1259.6,-232.3L-1255.2,-232.3L-1255.2,-231.7ZM-1264,-231.7L-1268.4,-231.7L-1268.4,-232.3L-1264,-232.3L-1264,-231.7ZM-1272.7,-231.7L-1277.1,-231.7L-1277.1,-232.3L-1272.7,-232.3L-1272.7,-231.7ZM-1281.5,-231.7L-1285.9,-231.7L-1285.9,-232.3L-1281.5,-232.3L-1281.5,-231.7ZM-1290.2,-231.7L-1294.6,-231.7L-1294.6,-232.3L-1290.2,-232.3L-1290.2,-231.7ZM-1299,-231.7L-1303.4,-231.7L-1303.4,-232.3L-1299,-232.3L-1299,-231.7ZM-1307.7,-231.7L-1312.1,-231.7L-1312.1,-232.3L-1307.7,-232.3L-1307.7,-231.7ZM-1316.5,-231.7L-1320.9,-231.7L-1320.9,-232.3L-1316.5,-232.3L-1316.5,-231.7Z" transform="matrix(1.011569 0.003885 -0.003623 0.943248 11.981767 -4.433889)" fill="rgb(228,228,228)" stroke="none" stroke-width="1" stroke-dashoffset="-86"/><path id="epDzF35YsLU14" d="M-1248.5,-239.7L-1248.5,-224.3L-1256.2,-232L-1248.5,-239.7Z" transform="matrix(1 0 0 1 0 3.810487)" fill="rgb(194,175,234)" stroke="none" stroke-width="1"/></g><g id="epDzF35YsLU15" transform="matrix(1 0 0 1 196.631 241.76)"><path id="epDzF35YsLU16" d="M-1200.7,20C-1203.3,20,-1205.4,17.9,-1205.4,15.3C-1205.4,12.7,-1203.3,10.6,-1200.7,10.6C-1198.1,10.6,-1196,12.7,-1196,15.3C-1196.1,17.9,-1198.2,20,-1200.7,20ZM-1200.7,11.3C-1202.9,11.3,-1204.8,13.1,-1204.8,15.4C-1204.8,17.6,-1203,19.5,-1200.7,19.5C-1198.5,19.5,-1196.6,17.7,-1196.6,15.4C-1196.7,13.1,-1198.5,11.3,-1200.7,11.3L-1200.7,11.3Z" fill="rgb(229,231,255)" stroke="none" stroke-width="1"/><path id="epDzF35YsLU17" d="M-1319.6,-230.3C-1322.2,-230.3,-1324.3,-232.4,-1324.3,-235C-1324.3,-237.6,-1322.2,-239.7,-1319.6,-239.7C-1317,-239.7,-1314.9,-237.6,-1314.9,-235L-1314.9,-235C-1314.9,-232.4,-1317,-230.3,-1319.6,-230.3ZM-1319.6,-239.1C-1321.8,-239.1,-1323.7,-237.3,-1323.7,-235C-1323.7,-232.7,-1321.9,-230.9,-1319.6,-230.9C-1317.4,-230.9,-1315.5,-232.7,-1315.5,-235C-1315.6,-237.3,-1317.4,-239.1,-1319.6,-239.1Z" fill="rgb(191,165,100)" stroke="none" stroke-width="1"/><g id="epDzF35YsLU18" transform="matrix(1 0 0 1 110.59 141.834)"><path id="epDzF35YsLU19" d="M-1303.8,-239.1L-1327.8,-239.1C-1328,-239.1,-1328.1,-239.2,-1328.1,-239.4C-1328.1,-239.6,-1328,-239.7,-1327.8,-239.7L-1303.8,-239.7C-1303.6,-239.7,-1303.5,-239.6,-1303.5,-239.4C-1303.5,-239.2,-1303.7,-239.1,-1303.8,-239.1L-1303.8,-239.1Z" fill="rgb(191,165,100)" stroke="none" stroke-width="1"/><path id="epDzF35YsLU20" d="M-1322.5,-233.4L-1327.9,-233.4C-1328.1,-233.4,-1328.2,-233.5,-1328.2,-233.7C-1328.2,-233.9,-1328.1,-234,-1327.9,-234L-1322.5,-234C-1322.3,-234,-1322.2,-233.9,-1322.2,-233.7C-1322.2,-233.5,-1322.3,-233.4,-1322.5,-233.4Z" fill="rgb(191,165,100)" stroke="none" stroke-width="1"/><path id="epDzF35YsLU21" d="M-1303.8,-227.8L-1327.8,-227.8C-1328,-227.8,-1328.1,-227.9,-1328.1,-228.1C-1328.1,-228.3,-1328,-228.4,-1327.8,-228.4L-1303.8,-228.4C-1303.6,-228.4,-1303.5,-228.3,-1303.5,-228.1C-1303.5,-227.9,-1303.7,-227.8,-1303.8,-227.8L-1303.8,-227.8Z" fill="rgb(191,165,100)" stroke="none" stroke-width="1"/><path id="epDzF35YsLU22" d="M-1304.3,-233.4L-1318,-233.4C-1318.2,-233.4,-1318.3,-233.5,-1318.3,-233.7C-1318.3,-233.9,-1318.2,-234,-1318,-234L-1304.3,-234C-1304.1,-234,-1304,-233.9,-1304,-233.7C-1304,-233.5,-1304.1,-233.4,-1304.3,-233.4Z" fill="rgb(191,165,100)" stroke="none" stroke-width="1"/></g><g id="epDzF35YsLU23" transform="matrix(1 0 0 1 0 81.956)"><path id="epDzF35YsLU24" d="M-1303.5,-232.6L-1309,-232.6C-1309.2,-232.6,-1309.3,-232.8,-1309.3,-232.9C-1309.3,-233.1,-1309.1,-233.2,-1309,-233.2L-1303.5,-233.2C-1303.3,-233.2,-1303.2,-233,-1303.2,-232.9C-1303.1,-232.7,-1303.3,-232.6,-1303.5,-232.6L-1303.5,-232.6Z" fill="rgb(191,165,100)" stroke="none" stroke-width="1"/><path id="epDzF35YsLU25" d="M-1303.5,-239L-1327.9,-239C-1328.1,-239,-1328.2,-239.2,-1328.2,-239.3C-1328.2,-239.5,-1328,-239.6,-1327.9,-239.6L-1303.5,-239.6C-1303.3,-239.6,-1303.2,-239.4,-1303.2,-239.3C-1303.1,-239.2,-1303.3,-239,-1303.5,-239L-1303.5,-239Z" fill="rgb(191,165,100)" stroke="none" stroke-width="1"/><path id="epDzF35YsLU26" d="M-1313.5,-232.6L-1327.4,-232.6C-1327.6,-232.6,-1327.7,-232.8,-1327.7,-232.9C-1327.7,-233.1,-1327.5,-233.2,-1327.4,-233.2L-1313.5,-233.2C-1313.3,-233.2,-1313.2,-233,-1313.2,-232.9C-1313.2,-232.7,-1313.3,-232.6,-1313.5,-232.6L-1313.5,-232.6Z" fill="rgb(191,165,100)" stroke="none" stroke-width="1"/></g></g><g id="epDzF35YsLU27" transform="matrix(1 0 0 1 0.586265 7.165932)"><g id="epDzF35YsLU28" transform="matrix(1.022272 0.000472 -0.000485 1.050082 113.077319 361.060863)"><g id="epDzF35YsLU29" transform="matrix(1 0 0 1 24.977 35.743)"><g id="epDzF35YsLU30" transform="matrix(1 0 0 1 0 22.322)"><path id="epDzF35YsLU31" d="M-1327.9,-153.2C-1327.9,-146.7,-1323,-141.4,-1317,-141.4L-1176,-141.4C-1170,-141.4,-1165.1,-146.7,-1165.1,-153.2L-1165.1,-239.4L-1327.9,-239.4L-1327.9,-153.2Z" fill="rgb(36,79,94)" stroke="none" stroke-width="1"/><path id="epDzF35YsLU32" d="M-1176,-141.1L-1317,-141.1C-1323.2,-141.1,-1328.2,-146.5,-1328.2,-153.2L-1328.2,-239.8L-1164.8,-239.8L-1164.8,-153.2C-1164.8,-146.5,-1169.8,-141.1,-1176,-141.1ZM-1327.6,-239.1L-1327.6,-153.2C-1327.6,-146.9,-1322.8,-141.7,-1317,-141.7L-1176,-141.7C-1170.2,-141.7,-1165.4,-146.9,-1165.4,-153.2L-1165.4,-239.1L-1327.6,-239.1Z" fill="rgb(1,61,85)" stroke="none" stroke-width="1"/></g><path id="epDzF35YsLU33" d="M-1176,-239.4L-1317,-239.4C-1323,-239.4,-1327.9,-234.1,-1327.9,-227.6L-1327.9,-217.1L-1165.1,-217.1L-1165.1,-227.6C-1165.1,-234.1,-1170,-239.4,-1176,-239.4Z" fill="rgb(230,255,255)" stroke="none" stroke-width="1"/><path id="epDzF35YsLU34" d="M-1164.8,-216.8L-1328.2,-216.8L-1328.2,-227.6C-1328.2,-234.3,-1323.2,-239.7,-1317,-239.7L-1176,-239.7C-1169.8,-239.7,-1164.8,-234.3,-1164.8,-227.6L-1164.8,-216.8ZM-1327.6,-217.4L-1165.4,-217.4L-1165.4,-227.6C-1165.4,-233.9,-1170.2,-239.1,-1176,-239.1L-1317,-239.1C-1322.8,-239.1,-1327.6,-233.9,-1327.6,-227.6L-1327.6,-217.4Z" fill="rgb(1,61,85)" stroke="none" stroke-width="1"/><path id="epDzF35YsLU35" d="M-1182.5,-223.7C-1185,-223.7,-1187.1,-225.7,-1187.1,-228.3C-1187.1,-230.9,-1185.1,-232.9,-1182.5,-232.9C-1179.9,-232.9,-1177.9,-230.9,-1177.9,-228.3C-1177.9,-225.7,-1180,-223.7,-1182.5,-223.7ZM-1182.5,-232.2C-1184.7,-232.2,-1186.4,-230.4,-1186.4,-228.3C-1186.4,-226.2,-1184.6,-224.4,-1182.5,-224.4C-1180.3,-224.4,-1178.6,-226.2,-1178.6,-228.3L-1178.6,-228.3C-1178.6,-230.4,-1180.3,-232.2,-1182.5,-232.2Z" fill="rgb(1,61,85)" stroke="none" stroke-width="1"/></g><g id="epDzF35YsLU36"><g id="epDzF35YsLU37" transform="matrix(1 0 0 1 58.791 0)"><rect id="epDzF35YsLU38" width="24.2" height="30.3" rx="0" ry="0" transform="matrix(1 0 0 1 -1318.5 -204.6)" fill="rgb(255,186,154)" stroke="none" stroke-width="1"/><path id="epDzF35YsLU39" d="M-1294.3,-197.9L-1294.3,-183.9L-1294.4,-183.7C-1302.7,-184.8,-1310.4,-191,-1313.8,-198.3L-1294.3,-197.9Z" fill="rgb(1,61,85)" stroke="none" stroke-width="1"/><path id="epDzF35YsLU40" d="M-1301,-191.3C-1310.3,-192.6,-1320.6,-201.8,-1320.6,-211.3C-1320.7,-220.2,-1313.9,-227.7,-1305,-228.4C-1292.4,-229.5,-1291.7,-221,-1289.6,-212.5C-1289.4,-211.8,-1289.2,-211,-1289,-210.3C-1288.4,-208.2,-1288.1,-206.1,-1288,-203.9C-1287.9,-195.2,-1293.3,-190.2,-1301,-191.3Z" fill="rgb(255,186,154)" stroke="none" stroke-width="1"/><path id="epDzF35YsLU41" d="M-1318.9,-208.5C-1318,-215.6,-1316.1,-221.8,-1309.8,-224.4C-1296,-218.7,-1286.6,-221.2,-1283.2,-235.2C-1283.2,-235.2,-1291.8,-231.6,-1299.1,-236.3C-1306.5,-240.9,-1318,-242.7,-1321.5,-229.5C-1328.7,-224.4,-1326.7,-216.7,-1323.3,-209.1L-1318.9,-208.5Z" fill="rgb(1,61,85)" stroke="none" stroke-width="1"/><ellipse id="epDzF35YsLU42" rx="4.9" ry="6.1" transform="matrix(0.5851 -0.811 0.811 0.5851 -1320.491113 -206.606796)" fill="rgb(255,186,154)" stroke="none" stroke-width="1"/><path id="epDzF35YsLU43" d="M-1319,-206.2C-1320,-207.7,-1321.8,-208.5,-1323.6,-208.4C-1324.1,-208.4,-1324.1,-207.6,-1323.6,-207.7C-1322.1,-207.8,-1320.6,-207.1,-1319.7,-205.9C-1319.3,-205.4,-1318.7,-205.8,-1319,-206.2L-1319,-206.2Z" fill="rgb(1,61,85)" stroke="none" stroke-width="1"/></g><g id="epDzF35YsLU44" transform="matrix(1 0 0 1 23.135 58.808)"><path id="epDzF35YsLU45" d="M-1295.2,-235L-1309.9,-228.1C-1316.5,-225,-1321.6,-219.3,-1323.9,-212.3C-1327.1,-203.1,-1328.5,-193.4,-1328.1,-183.7L-1326.4,-142.7L-1314.2,-142.1L-1236.7,-142.1C-1236.7,-142.1,-1229.9,-211.1,-1231,-210.3C-1232.1,-209.5,-1245.6,-234.7,-1245.6,-234.7L-1270.4,-239.7L-1295.2,-235Z" fill="rgb(0,123,167)" stroke="none" stroke-width="1"/><path id="epDzF35YsLU46" d="M-1305.5,-206.4C-1305.6,-206.4,-1305.7,-206.5,-1305.8,-206.6C-1308.1,-212.5,-1312,-216.4,-1317,-218C-1317.2,-218.1,-1317.2,-218.2,-1317.2,-218.4C-1317.1,-218.6,-1317,-218.6,-1316.8,-218.6L-1316.8,-218.6C-1311.6,-216.9,-1307.6,-212.9,-1305.2,-206.8C-1305.1,-206.6,-1305.2,-206.5,-1305.4,-206.4C-1305.4,-206.4,-1305.4,-206.4,-1305.5,-206.4L-1305.5,-206.4Z" fill="rgb(1,61,85)" stroke="none" stroke-width="1"/><path id="epDzF35YsLU47" d="M-1302.3,-166.1C-1302.5,-166.1,-1302.6,-166.2,-1302.6,-166.4L-1304.4,-201.6C-1304.4,-201.8,-1304.3,-201.9,-1304.1,-201.9C-1304.1,-201.9,-1304.1,-201.9,-1304.1,-201.9C-1303.9,-201.9,-1303.8,-201.8,-1303.8,-201.6C-1303.8,-201.6,-1303.8,-201.6,-1303.8,-201.6L-1302,-166.4C-1302,-166.2,-1302.1,-166.1,-1302.3,-166.1C-1302.3,-166.1,-1302.3,-166.1,-1302.3,-166.1L-1302.3,-166.1Z" fill="rgb(1,61,85)" stroke="none" stroke-width="1"/></g><g id="epDzF35YsLU48" transform="matrix(1 0 0 1 0 110.331)"><path id="epDzF35YsLU49" d="M-1266.1,-183L-1310.5,-183L-1328.2,-239.7L-1284,-239.7L-1266.1,-183Z" fill="rgb(255,255,255)" stroke="none" stroke-width="1"/><g id="epDzF35YsLU50" transform="matrix(1 0 0 1 10.74 6.306)"><path id="epDzF35YsLU51" d="M-1302,-235.6L-1326.9,-235.6L-1328.2,-239.7L-1303.4,-239.7L-1302,-235.6Z" fill="rgb(114,82,183)" stroke="none" stroke-width="1"/><g id="epDzF35YsLU52" transform="matrix(1 0 0 1 0.66 10.934)"><path id="epDzF35YsLU53" d="M-1311.1,-227.3L-1324.3,-227.3L-1328.2,-239.7L-1315,-239.7L-1311.1,-227.3Z" fill="rgb(194,175,234)" stroke="none" stroke-width="1"/><g id="epDzF35YsLU54" transform="matrix(1 0 0 1 17.538 1.831)"><rect id="epDzF35YsLU55" width="15.7" height="0.5" rx="0" ry="0" transform="matrix(1 0 0 1 -1328.2 -239.7)" fill="rgb(114,82,183)" stroke="none" stroke-width="1"/><rect id="epDzF35YsLU56" width="15.7" height="0.5" rx="0" ry="0" transform="matrix(1 0 0 1 -1326.9 -235.6)" fill="rgb(114,82,183)" stroke="none" stroke-width="1"/><rect id="epDzF35YsLU57" width="15.7" height="0.5" rx="0" ry="0" transform="matrix(1 0 0 1 -1325.6 -231.4)" fill="rgb(114,82,183)" stroke="none" stroke-width="1"/></g></g><path id="epDzF35YsLU58" d="M-1288.7,-207.7L-1320.9,-207.7L-1321.7,-210.2L-1289.5,-210.2L-1288.7,-207.7Z" fill="rgb(194,175,234)" stroke="none" stroke-width="1"/><path id="epDzF35YsLU59" d="M-1287.2,-202.8L-1319.4,-202.8L-1320.2,-205.3L-1288,-205.3L-1287.2,-202.8Z" fill="rgb(194,175,234)" stroke="none" stroke-width="1"/><path id="epDzF35YsLU60" d="M-1285.6,-197.9L-1317.9,-197.9L-1318.7,-200.4L-1286.5,-200.4L-1285.6,-197.9Z" fill="rgb(194,175,234)" stroke="none" stroke-width="1"/></g></g><g id="epDzF35YsLU61" transform="matrix(1 0 0 1 56.11 56.045)"><path id="epDzF35YsLU62" d="M-1303.4,-237C-1303.6,-229.7,-1305.1,-224.4,-1309.2,-222.9L-1310.9,-230.7L-1303.4,-237Z" opacity="0.6" fill="rgb(1,61,85)" stroke="none" stroke-width="1"/><path id="epDzF35YsLU63" d="M-1303.4,-237C-1303.5,-230.4,-1301.5,-224.1,-1296.7,-223.3L-1295.8,-230.8L-1303.4,-237Z" opacity="0.6" fill="rgb(1,61,85)" stroke="none" stroke-width="1"/><path id="epDzF35YsLU64" d="M-1303.6,-237L-1309.3,-222.9C-1316.1,-224.1,-1322.4,-227.4,-1328.2,-232.2L-1315.8,-239.6C-1312,-237.9,-1307.8,-237,-1303.6,-237Z" fill="rgb(0,179,243)" stroke="none" stroke-width="1"/><path id="epDzF35YsLU65" d="M-1278.6,-232C-1282.8,-226.9,-1288.7,-223.9,-1296.8,-223.3C-1297,-222.8,-1301,-231.4,-1303.5,-237C-1299.5,-237.1,-1295.5,-238,-1291.8,-239.8L-1278.6,-232Z" fill="rgb(0,179,243)" stroke="none" stroke-width="1"/></g><g id="epDzF35YsLU66" transform="matrix(1 0 0 1 29.244 63.807)"><path id="epDzF35YsLU67" d="M-1296.6,-166.8C-1299.8,-159.5,-1300.9,-152.9,-1299.1,-147.1L-1290.8,-151.1L-1292.3,-162.2L-1296.6,-166.8Z" fill="rgb(1,61,85)" stroke="none" stroke-width="1"/><path id="epDzF35YsLU68" d="M-1296.6,-166.8C-1297,-166.8,-1302,-174.6,-1305.5,-178.3C-1307.7,-180.6,-1309.7,-177.2,-1306.2,-169.3C-1306.2,-169.3,-1320.1,-175,-1322,-174.4C-1323.9,-173.8,-1323.1,-171.1,-1313.8,-166.9C-1313.8,-166.9,-1327.2,-170.8,-1327.9,-169.4C-1328.6,-167.9,-1328.6,-165.8,-1314.8,-162.8C-1314.8,-162.8,-1329.6,-164,-1328,-161.7C-1326.4,-159.4,-1322.1,-159,-1315.3,-158.7C-1317.9,-157.8,-1320.6,-157.1,-1323.4,-156.5C-1325.1,-156.1,-1323.8,-153.4,-1312.4,-153.3C-1308.5,-151.1,-1300.6,-151,-1294.3,-152.2L-1289.9,-156.1L-1296.6,-166.8Z" fill="rgb(255,186,154)" stroke="none" stroke-width="1"/><path id="epDzF35YsLU69" d="M-1251.7,-239.7L-1235.4,-233.5C-1228.1,-230.7,-1222.9,-224.2,-1221.9,-216.4C-1219.3,-197.2,-1224.1,-175.7,-1233.2,-155.3C-1235.3,-150.6,-1239.8,-147.5,-1245.6,-147.1L-1298.7,-147.3C-1295.6,-150.4,-1293.6,-160.3,-1296.5,-166.9L-1253.1,-173L-1245.5,-196.9L-1251.7,-239.7Z" fill="rgb(0,123,167)" stroke="none" stroke-width="1"/><path id="epDzF35YsLU70" d="M-1298.8,-147C-1299,-147,-1299.1,-147.1,-1299.1,-147.3C-1299.1,-147.4,-1299.1,-147.4,-1299,-147.5C-1295.9,-152,-1294.1,-160.1,-1296.8,-166.8L-1296.9,-167.2L-1253.3,-173.3C-1248.7,-186.9,-1245.6,-200.9,-1244.1,-215.2C-1244.1,-215.4,-1243.9,-215.5,-1243.8,-215.5C-1243.8,-215.5,-1243.8,-215.5,-1243.8,-215.5C-1243.6,-215.5,-1243.5,-215.3,-1243.5,-215.2C-1243.5,-215.2,-1243.5,-215.2,-1243.5,-215.2C-1244.8,-202.1,-1247.8,-188.3,-1252.8,-173L-1252.9,-172.8L-1296.1,-166.8C-1293.9,-160.3,-1294.7,-153.1,-1298.5,-147.3C-1298.6,-147,-1298.7,-147,-1298.8,-147Z" fill="rgb(1,61,85)" stroke="none" stroke-width="1"/></g></g></g></g><g id="epDzF35YsLU71" transform="matrix(0.999852 0.017221 -0.017221 0.999852 0.75236 2.897555)"><g id="epDzF35YsLU72" transform="matrix(0.999903 -0.013938 0.013938 0.999903 250.6 208.789)"><g id="epDzF35YsLU73" transform="matrix(1 0 0 1 0 24.285)"><g id="epDzF35YsLU74" transform="matrix(1 0 0 1 0 21.406)"><path id="epDzF35YsLU75" d="M-1327.9,-156.7C-1327.9,-150.4,-1322.8,-145.4,-1316.6,-145.4L-1170.2,-145.4C-1163.9,-145.4,-1158.9,-150.5,-1158.9,-156.7L-1158.9,-239.4L-1328,-239.4L-1328,-156.7Z" fill="rgb(36,79,94)" stroke="none" stroke-width="1"/><path id="epDzF35YsLU76" d="M-1170.1,-145.1L-1316.5,-145.1C-1322.9,-145.1,-1328.1,-150.3,-1328.1,-156.7L-1328.1,-239.7L-1158.4,-239.7L-1158.4,-156.7C-1158.5,-150.3,-1163.7,-145.1,-1170.1,-145.1ZM-1327.6,-239.1L-1327.6,-156.7C-1327.6,-150.6,-1322.7,-145.7,-1316.6,-145.7L-1170.2,-145.7C-1164.1,-145.7,-1159.2,-150.6,-1159.2,-156.7L-1159.2,-239.1L-1327.6,-239.1Z" fill="rgb(1,61,85)" stroke="none" stroke-width="1"/></g><path id="epDzF35YsLU77" d="M-1170.1,-239.4L-1316.5,-239.4C-1322.8,-239.4,-1327.8,-234.3,-1327.8,-228.1C-1327.8,-228.1,-1327.8,-228.1,-1327.8,-228.1L-1327.8,-218L-1158.7,-218L-1158.7,-228.1C-1158.8,-234.3,-1163.9,-239.4,-1170.1,-239.4Z" fill="rgb(230,255,255)" stroke="none" stroke-width="1"/><path id="epDzF35YsLU78" d="M-1158.5,-217.7L-1328.2,-217.7L-1328.2,-228.1C-1328.2,-234.5,-1323,-239.7,-1316.6,-239.7L-1170.2,-239.7C-1163.8,-239.7,-1158.6,-234.5,-1158.6,-228.1L-1158.5,-217.7ZM-1327.6,-218.3L-1159.1,-218.3L-1159.1,-228.1C-1159.1,-234.2,-1164,-239.1,-1170.1,-239.1L-1316.5,-239.1C-1322.6,-239.1,-1327.5,-234.2,-1327.5,-228.1L-1327.6,-218.3Z" fill="rgb(1,61,85)" stroke="none" stroke-width="1"/><path id="epDzF35YsLU79" d="M-1174.1,-224C-1176.7,-224,-1178.8,-226.1,-1178.8,-228.7C-1178.8,-231.3,-1176.7,-233.4,-1174.1,-233.4C-1171.5,-233.4,-1169.4,-231.3,-1169.4,-228.7C-1169.4,-228.7,-1169.4,-228.7,-1169.4,-228.7C-1169.5,-226.1,-1171.6,-224,-1174.1,-224ZM-1174.1,-232.8C-1176.3,-232.8,-1178.2,-231,-1178.2,-228.7C-1178.2,-226.5,-1176.4,-224.6,-1174.1,-224.6C-1171.9,-224.6,-1170,-226.4,-1170,-228.7C-1170.1,-231,-1171.9,-232.8,-1174.1,-232.8Z" fill="rgb(1,61,85)" stroke="none" stroke-width="1"/></g><g id="epDzF35YsLU80" transform="matrix(1 0 0 1 16.692 0)"><path id="epDzF35YsLU81" d="M-1238.7,-238.9C-1245.9,-240.6,-1255.4,-239.9,-1261.2,-234.9C-1262.9,-233.6,-1264.4,-232,-1265.5,-230.2C-1266.3,-228.9,-1266.7,-227.3,-1267.7,-226.2C-1268.8,-225,-1270.4,-224.5,-1271.8,-223.7C-1273.2,-222.9,-1274.5,-221.6,-1274.4,-220C-1274.2,-219.3,-1274.1,-218.5,-1274.1,-217.7C-1274.4,-215.7,-1277.7,-215.1,-1277.6,-213.1C-1277.5,-211.3,-1274.7,-210.6,-1274.8,-208.8C-1274.8,-207.9,-1275.6,-207.3,-1276.3,-206.7C-1277.5,-206,-1278.4,-205,-1279,-203.8C-1279.4,-202.5,-1278.6,-200.8,-1277.3,-200.8C-1278.4,-200.3,-1279.4,-199.6,-1280.2,-198.7C-1281,-197.8,-1281.3,-196.5,-1280.9,-195.4C-1280.6,-195,-1280.4,-194.5,-1280.2,-194.1C-1279.9,-192.9,-1280.9,-191.8,-1281.9,-190.9C-1282.9,-190,-1283.7,-188.7,-1283.1,-187.6C-1282.8,-187,-1282,-186.7,-1281.7,-186.1C-1281.1,-185.1,-1282,-183.8,-1282.9,-183C-1283.8,-182.2,-1284.8,-181.2,-1284.6,-180C-1284.4,-178.9,-1283.1,-178.3,-1282.7,-177.3C-1282.2,-176.1,-1283,-174.8,-1283.2,-173.5C-1283.4,-171.8,-1282.8,-170.2,-1281.6,-169C-1280.4,-167.8,-1279.1,-166.8,-1277.7,-166.1L-1215.9,-162.7C-1214,-164,-1212.3,-165.5,-1210.9,-167.3C-1209.5,-169.1,-1209.1,-171.5,-1209.8,-173.8C-1210.3,-175,-1211.2,-176.1,-1211.1,-177.3C-1211,-178.6,-1209.9,-180,-1210.6,-181.2C-1211,-181.9,-1212,-182.2,-1212.3,-182.9C-1213.1,-184.5,-1210.5,-186.2,-1210.9,-188C-1211.2,-189.1,-1212.4,-189.6,-1213,-190.6C-1214,-192.3,-1212.3,-194.5,-1212.9,-196.5C-1213.3,-198,-1215,-198.9,-1215.5,-200.4C-1215.7,-201.5,-1215.7,-202.6,-1215.5,-203.6C-1215.3,-206.5,-1215.5,-209.4,-1216.1,-212.2C-1216.2,-213.3,-1216.6,-214.4,-1217.3,-215.3C-1218.4,-216.3,-1220.1,-216.2,-1221,-217.4C-1222.4,-219.2,-1220.4,-221.9,-1221.3,-223.9C-1222.4,-226.3,-1226.4,-226,-1227.5,-228.4C-1228.4,-230.5,-1228.7,-232.3,-1230.4,-234C-1232.7,-236.4,-1235.6,-238,-1238.7,-238.9Z" fill="rgb(1,61,85)" stroke="none" stroke-width="1"/><g id="epDzF35YsLU82" transform="matrix(1 0 0 1 0 33.703)"><path id="epDzF35YsLU83" d="M-1322.9,-205.5C-1322.9,-205.5,-1330.3,-217.2,-1327.7,-221.5C-1327.4,-221.9,-1327,-222.2,-1326.5,-222.5C-1326,-222.8,-1325.5,-223.3,-1325.3,-223.9C-1325,-224.5,-1324.7,-225.1,-1324.1,-225.3C-1322.1,-225.8,-1321.8,-227.5,-1320.5,-227.5C-1319.4,-227.5,-1325.3,-239.3,-1322.7,-239.8C-1320.1,-240.3,-1315.5,-228.5,-1315.5,-228.5C-1313.6,-228.1,-1311.9,-227.4,-1310.4,-226.2C-1306.9,-223.5,-1305.8,-211.1,-1305.8,-211.1L-1311.3,-203.5L-1322.9,-205.5Z" fill="rgb(255,186,154)" stroke="none" stroke-width="1"/><path id="epDzF35YsLU84" d="M-1322.6,-213.8C-1324.3,-213.8,-1326.6,-216.9,-1327.1,-217.5C-1327.2,-217.7,-1327.2,-217.9,-1327,-218C-1326.8,-218.1,-1326.6,-218.1,-1326.5,-217.9C-1325.4,-216.3,-1323.3,-214.2,-1322.4,-214.5C-1322,-214.6,-1321.8,-215.2,-1321.7,-216.2C-1321.7,-216.4,-1321.5,-216.5,-1321.3,-216.5C-1321.1,-216.5,-1321,-216.3,-1321,-216.1C-1321.1,-214.7,-1321.5,-214,-1322.2,-213.8C-1322.4,-213.8,-1322.5,-213.8,-1322.6,-213.8Z" fill="rgb(191,100,58)" stroke="none" stroke-width="1"/><path id="epDzF35YsLU85" d="M-1319.4,-214.8C-1321,-214.8,-1323,-217.4,-1325,-220.1C-1325.1,-220.3,-1325.1,-220.5,-1324.9,-220.6C-1324.7,-220.7,-1324.5,-220.7,-1324.4,-220.5L-1324.4,-220.5C-1322.6,-218.1,-1320.5,-215.4,-1319.3,-215.5C-1319,-215.5,-1318.8,-215.7,-1318.8,-216C-1318.5,-216.8,-1318.7,-219,-1321.5,-222.1C-1321.6,-222.3,-1321.6,-222.5,-1321.5,-222.6C-1321.4,-222.7,-1321.1,-222.7,-1321,-222.6C-1318.1,-219.5,-1317.7,-216.9,-1318.1,-215.7C-1318.3,-215.2,-1318.7,-214.8,-1319.3,-214.8C-1319.4,-214.8,-1319.4,-214.8,-1319.4,-214.8Z" fill="rgb(191,100,58)" stroke="none" stroke-width="1"/><path id="epDzF35YsLU86" d="M-1315.7,-215.5C-1316.5,-215.5,-1317.1,-216.1,-1318.1,-217.2L-1318.6,-217.7C-1318.7,-217.9,-1318.7,-218.1,-1318.6,-218.2C-1318.5,-218.3,-1318.2,-218.3,-1318.1,-218.2L-1317.6,-217.7C-1316.3,-216.4,-1316,-216.1,-1315.3,-216.3C-1315.2,-216.3,-1315.1,-216.4,-1315.1,-216.6C-1314.8,-217.5,-1315.2,-220.3,-1318.6,-224.7C-1318.7,-224.9,-1318.7,-225.1,-1318.5,-225.2C-1318.3,-225.3,-1318.1,-225.3,-1318,-225.1C-1314.7,-220.7,-1314,-217.6,-1314.4,-216.3C-1314.5,-215.9,-1314.7,-215.7,-1315.1,-215.5C-1315.3,-215.5,-1315.5,-215.5,-1315.7,-215.5Z" fill="rgb(191,100,58)" stroke="none" stroke-width="1"/><path id="epDzF35YsLU87" d="M-1313.7,-226.7C-1313.1,-229.1,-1312.5,-231.6,-1311.9,-234C-1311.8,-234.6,-1311.5,-235.3,-1310.9,-235.5C-1310.4,-235.6,-1309.9,-235.4,-1309.6,-234.9C-1309.3,-234.5,-1309.2,-234,-1309.1,-233.5C-1308.4,-228.4,-1307.9,-223.3,-1307.7,-218.1L-1313.7,-226.7Z" fill="rgb(255,186,154)" stroke="none" stroke-width="1"/><path id="epDzF35YsLU88" d="M-1201.9,-133L-1196,-189.6C-1195.9,-197.3,-1198.8,-204.8,-1204.2,-210.4C-1207.1,-213.4,-1210.6,-215.7,-1214.5,-217.2C-1223.6,-220.7,-1231.9,-222.4,-1234.5,-223.2L-1242.6,-223.6C-1242.9,-223.9,-1252.7,-220.3,-1261.7,-216.8C-1262,-216.7,-1262.3,-216.6,-1262.6,-216.4C-1273.5,-211.8,-1276,-205,-1275.8,-192.7L-1274.3,-133L-1201.9,-133Z" fill="rgb(1,233,161)" stroke="none" stroke-width="1"/><g id="epDzF35YsLU89" transform="matrix(1 0 0 1 5.202 17.555)"><path id="epDzF35YsLU90" d="M-1267.3,-237.5C-1268.3,-237.4,-1269.2,-237.1,-1270.2,-236.9C-1278,-234.6,-1284.9,-229.7,-1289.5,-223L-1299.7,-208L-1311.4,-232L-1328.2,-223C-1328.2,-223,-1313,-185.6,-1310.5,-182.7C-1305,-176.5,-1296.4,-176.1,-1289.4,-179.7C-1281.2,-183.9,-1278.6,-191.4,-1275.3,-199.3C-1269.9,-212.2,-1262,-224.4,-1256.5,-237.3C-1256.4,-237.5,-1257,-239.4,-1257,-239.6L-1267.3,-237.5Z" fill="rgb(1,233,161)" stroke="none" stroke-width="1"/></g><path id="epDzF35YsLU91" d="M-1209.9,-137.7L-1209.9,-137.7C-1210.1,-137.7,-1210.3,-137.9,-1210.3,-138.1L-1207.9,-197.7C-1207.9,-197.9,-1207.7,-198.1,-1207.5,-198L-1207.5,-198C-1207.3,-198,-1207.1,-197.8,-1207.2,-197.6C-1207.2,-197.6,-1207.2,-197.6,-1207.2,-197.6L-1209.6,-138C-1209.5,-137.9,-1209.7,-137.7,-1209.9,-137.7Z" fill="rgb(128,67,39)" stroke="none" stroke-width="1"/><path id="epDzF35YsLU92" d="M-1242.8,-204.9C-1247.3,-204.7,-1251.7,-206.7,-1254.5,-210.1C-1254.6,-210.3,-1254.6,-210.5,-1254.4,-210.6C-1254.2,-210.7,-1254,-210.7,-1253.9,-210.5C-1251.1,-206.9,-1246.4,-205.1,-1241.1,-205.6C-1235.3,-206.1,-1230.2,-209.2,-1227.9,-213.6C-1227.8,-213.8,-1227.6,-213.8,-1227.4,-213.7C-1227.2,-213.6,-1227.2,-213.4,-1227.3,-213.2C-1229.8,-208.6,-1235.1,-205.4,-1241.1,-204.9C-1241.7,-204.9,-1242.3,-204.9,-1242.8,-204.9Z" fill="rgb(128,67,39)" stroke="none" stroke-width="1"/><path id="epDzF35YsLU93" d="M-1246.4,-142.4C-1246.6,-142.4,-1246.8,-142.6,-1246.8,-142.8C-1246.8,-143,-1246.7,-143.1,-1246.5,-143.2C-1229.4,-145.7,-1218.7,-153.9,-1213.8,-168.2C-1213.7,-168.4,-1213.5,-168.5,-1213.3,-168.5C-1213.1,-168.4,-1213,-168.2,-1213,-168C-1213,-168,-1213,-168,-1213,-168C-1218.1,-153.3,-1229,-145,-1246.4,-142.4C-1246.4,-142.4,-1246.4,-142.4,-1246.4,-142.4Z" fill="rgb(128,67,39)" stroke="none" stroke-width="1"/><path id="epDzF35YsLU94" d="M-1236.6,-149.1C-1236.8,-149.1,-1237,-149.3,-1237,-149.5C-1237,-149.6,-1236.9,-149.8,-1236.8,-149.8C-1232.7,-152.2,-1230.2,-156.7,-1230.2,-161.4C-1230.2,-161.6,-1230,-161.8,-1229.8,-161.7C-1229.6,-161.7,-1229.5,-161.5,-1229.5,-161.4C-1229.5,-156.4,-1232.1,-151.7,-1236.4,-149.1C-1236.4,-149.2,-1236.5,-149.1,-1236.6,-149.1Z" fill="rgb(128,67,39)" stroke="none" stroke-width="1"/><path id="epDzF35YsLU95" d="M-1274.5,-144.9C-1274.7,-144.9,-1274.9,-145.1,-1274.9,-145.3L-1275.3,-190C-1275.3,-190.2,-1275.1,-190.4,-1274.9,-190.4C-1274.9,-190.4,-1274.9,-190.4,-1274.9,-190.4L-1274.9,-190.4C-1274.7,-190.4,-1274.5,-190.2,-1274.5,-190L-1274.1,-145.3C-1274.2,-145.1,-1274.3,-145,-1274.5,-144.9Z" fill="rgb(128,67,39)" stroke="none" stroke-width="1"/><path id="epDzF35YsLU96" d="M-1299.8,-184.7C-1300,-184.7,-1300.2,-184.9,-1300.2,-185.1C-1300.2,-185.2,-1300.2,-185.3,-1300.1,-185.4L-1294.8,-191C-1294.7,-191.2,-1294.4,-191.2,-1294.3,-191.1C-1294.1,-191,-1294.1,-190.7,-1294.2,-190.6C-1294.2,-190.6,-1294.2,-190.6,-1294.2,-190.5L-1299.5,-184.9C-1299.6,-184.7,-1299.7,-184.7,-1299.8,-184.7Z" fill="rgb(128,67,39)" stroke="none" stroke-width="1"/></g><path id="epDzF35YsLU97" d="M-1232.9,-211.8L-1232.9,-188.5C-1232.9,-182.2,-1239,-179.5,-1243.2,-179.3C-1247.2,-179.2,-1253.3,-181.9,-1253.5,-188.1C-1253.5,-188.2,-1253.5,-188.3,-1253.5,-188.5L-1253.5,-211.8L-1232.9,-211.8Z" fill="rgb(255,186,154)" stroke="none" stroke-width="1"/><path id="epDzF35YsLU98" d="M-1237.7,-202.7C-1239.9,-195.7,-1246,-191,-1253.5,-191.9C-1253.7,-194,-1253.8,-206.7,-1253.8,-206.7C-1248.4,-207.1,-1237.7,-202.7,-1237.7,-202.7Z" fill="rgb(1,61,85)" stroke="none" stroke-width="1"/><path id="epDzF35YsLU99" d="M-1230.8,-209.8C-1231.5,-208.8,-1232.2,-207.8,-1232.9,-206.9C-1237.6,-200.7,-1241.6,-197.9,-1245,-196.6C-1249,-195,-1253.5,-195.7,-1256.8,-198.5C-1258.5,-200.1,-1259.8,-202.1,-1260.5,-204.3C-1261.4,-207,-1261.6,-209.9,-1261.2,-212.7C-1261.2,-212.9,-1261.2,-213,-1261.1,-213.2C-1260.5,-218.9,-1261.2,-231.7,-1246.7,-231.8L-1231.6,-226.7L-1230.9,-210.2L-1230.8,-209.8Z" fill="rgb(255,186,154)" stroke="none" stroke-width="1"/><path id="epDzF35YsLU100" d="M-1232.5,-217.2C-1237.3,-218.3,-1241.9,-221.4,-1245.4,-227.5C-1254.6,-229.5,-1259.1,-222.8,-1263.5,-218.1L-1257.5,-235.3L-1237.3,-236.3L-1227.1,-227.3L-1229.1,-217.9L-1232.5,-217.2Z" fill="rgb(1,61,85)" stroke="none" stroke-width="1"/><path id="epDzF35YsLU101" d="M-1230.9,-210.2L-1232.9,-209.8L-1235.4,-209.3C-1235,-207.8,-1234.1,-206.4,-1232.9,-205.4L-1232.9,-206.9C-1232.2,-207.8,-1231.5,-208.8,-1230.8,-209.8L-1230.9,-210.2Z" fill="rgb(1,61,85)" stroke="none" stroke-width="1"/><g id="epDzF35YsLU102" transform="matrix(1 0 0 1 86.68 18.659)"><ellipse id="epDzF35YsLU103" rx="6.4" ry="5.1" transform="matrix(0.8442 -0.536 0.536 0.8442 -1320.10134 -232.0437)" fill="rgb(255,186,154)" stroke="none" stroke-width="1"/><path id="epDzF35YsLU104" d="M-1319.7,-231.1C-1319.5,-232.6,-1318.5,-233.9,-1317.1,-234.5C-1316.7,-234.7,-1316.9,-235.4,-1317.3,-235.2C-1319,-234.5,-1320.2,-233.1,-1320.4,-231.3C-1320.5,-230.8,-1319.7,-230.6,-1319.7,-231.1L-1319.7,-231.1Z" fill="rgb(1,61,85)" stroke="none" stroke-width="1"/></g></g></g></g><g id="epDzF35YsLU105" transform="matrix(0.925266 0.001537 -0.001577 0.94982 1240.763347 277.305443)"><g id="epDzF35YsLU106"><ellipse id="epDzF35YsLU107" rx="31.2" ry="31.2" transform="matrix(1 0 0 1 -2538.7 -233.8)" fill="rgb(152,228,255)" stroke="none" stroke-width="1"/></g><path id="epDzF35YsLU108" d="M-2507.4,-233.8C-2507.4,-234.6,-2507.4,-235.4,-2507.5,-236.2L-2521.4,-250.1L-2536,-235.6L-2549.6,-212.7L-2539.4,-202.5C-2539.2,-202.5,-2538.9,-202.5,-2538.7,-202.5C-2521.4,-202.6,-2507.4,-216.5,-2507.4,-233.8L-2507.4,-233.8Z" fill="rgb(57,195,245)" stroke="none" stroke-width="1"/><g id="epDzF35YsLU109" transform="matrix(1 0 0 1 10.942 11.342)"><path id="epDzF35YsLU110" d="M-2529.3,-253.9C-2529.4,-260.1,-2534.5,-265.1,-2540.7,-265C-2544.2,-265,-2547.5,-263.3,-2549.6,-260.4C-2553.3,-265.4,-2560.3,-266.4,-2565.3,-262.7C-2570.2,-259.1,-2571.3,-252.2,-2567.8,-247.2C-2565.5,-244,-2564,-240.3,-2563.3,-236.4L-2562.7,-228.4C-2562,-224.4,-2558.5,-221.5,-2554.5,-221.5L-2552.7,-221.5L-2552.7,-235C-2552.8,-236.7,-2551.5,-238.2,-2549.8,-238.2C-2548.1,-238.2,-2546.6,-237,-2546.6,-235.3C-2546.6,-235.2,-2546.6,-235.1,-2546.6,-235L-2546.6,-221.5L-2544.8,-221.5C-2540.8,-221.5,-2537.3,-224.4,-2536.6,-228.4L-2536,-236.4C-2535.3,-240.3,-2533.8,-244,-2531.5,-247.2C-2530,-249.2,-2529.3,-251.5,-2529.3,-253.9Z" fill="rgb(255,255,255)" stroke="rgb(35,55,67)" stroke-width="1"/></g><g id="epDzF35YsLU111" transform="matrix(1 0 0 1 35.383 21.639)"><ellipse id="epDzF35YsLU112" rx="10.1" ry="10.1" transform="matrix(1 0 0 1 -2559.8 -254.9)" fill="rgb(100,225,220)" stroke="rgb(35,55,67)" stroke-width="1"/></g><g id="epDzF35YsLU113" transform="matrix(1 0 0 1 45.483 21.64)"><path id="epDzF35YsLU114" d="M-2569.9,-265L-2569.9,-265L-2569.9,-244.8L-2569.9,-244.8C-2564.3,-244.8,-2559.8,-249.3,-2559.8,-254.9C-2559.8,-260.5,-2564.3,-265,-2569.9,-265L-2569.9,-265Z" fill="rgb(28,173,181)" stroke="none" stroke-width="1"/></g><g id="epDzF35YsLU115" transform="matrix(1 0 0 1 39.028 25.284)"><path id="epDzF35YsLU116" d="M-2557,-261L-2561,-261L-2561,-265L-2565.9,-265L-2565.9,-261L-2569.9,-261L-2569.9,-256.1L-2565.9,-256.1L-2565.9,-252.1L-2561,-252.1L-2561,-256.1L-2557,-256.1L-2557,-261Z" fill="rgb(255,255,255)" stroke="none" stroke-width="1"/></g><g id="epDzF35YsLU117" transform="matrix(1 0 0 1 45.483 25.284)"><path id="epDzF35YsLU118" d="M-2567.4,-261L-2567.4,-265L-2569.9,-265L-2569.9,-252.1L-2567.4,-252.1L-2567.4,-256.1L-2563.4,-256.1L-2563.4,-261L-2567.4,-261Z" fill="rgb(233,237,245)" stroke="none" stroke-width="1"/></g></g></g></g></g><script><![CDATA[!function(t,n){"object"==typeof exports&&"undefined"!=typeof module?module.exports=n():"function"==typeof define&&define.amd?define(n):((t="undefined"!=typeof globalThis?globalThis:t||self).__SVGATOR_PLAYER__=t.__SVGATOR_PLAYER__||{},t.__SVGATOR_PLAYER__["5c7f360c"]=n())}(this,(function(){"use strict";function t(t,n){var r=Object.keys(t);if(Object.getOwnPropertySymbols){var e=Object.getOwnPropertySymbols(t);n&&(e=e.filter((function(n){return Object.getOwnPropertyDescriptor(t,n).enumerable}))),r.push.apply(r,e)}return r}function n(t){return(n="function"==typeof Symbol&&"symbol"==typeof Symbol.iterator?function(t){return typeof t}:function(t){return t&&"function"==typeof Symbol&&t.constructor===Symbol&&t!==Symbol.prototype?"symbol":typeof t})(t)}function r(t,n){if(!(t instanceof n))throw new TypeError("Cannot call a class as a function")}function e(t,n){for(var r=0;r<n.length;r++){var e=n[r];e.enumerable=e.enumerable||!1,e.configurable=!0,"value"in e&&(e.writable=!0),Object.defineProperty(t,e.key,e)}}function i(t,n,r){return n&&e(t.prototype,n),r&&e(t,r),t}function o(t,n,r){return n in t?Object.defineProperty(t,n,{value:r,enumerable:!0,configurable:!0,writable:!0}):t[n]=r,t}function u(t){return(u=Object.setPrototypeOf?Object.getPrototypeOf:function(t){return t.__proto__||Object.getPrototypeOf(t)})(t)}function a(t,n){return(a=Object.setPrototypeOf||function(t,n){return t.__proto__=n,t})(t,n)}function l(t,n){if(n&&("object"==typeof n||"function"==typeof n))return n;if(void 0!==n)throw new TypeError("Derived constructors may only return object or undefined");return function(t){if(void 0===t)throw new ReferenceError("this hasn't been initialised - super() hasn't been called");return t}(t)}function f(t){var n=function(){if("undefined"==typeof Reflect||!Reflect.construct)return!1;if(Reflect.construct.sham)return!1;if("function"==typeof Proxy)return!0;try{return Boolean.prototype.valueOf.call(Reflect.construct(Boolean,[],(function(){}))),!0}catch(t){return!1}}();return function(){var r,e=u(t);if(n){var i=u(this).constructor;r=Reflect.construct(e,arguments,i)}else r=e.apply(this,arguments);return l(this,r)}}function s(t,n,r){return(s="undefined"!=typeof Reflect&&Reflect.get?Reflect.get:function(t,n,r){var e=function(t,n){for(;!Object.prototype.hasOwnProperty.call(t,n)&&null!==(t=u(t)););return t}(t,n);if(e){var i=Object.getOwnPropertyDescriptor(e,n);return i.get?i.get.call(r):i.value}})(t,n,r||t)}var c=h(Math.pow(10,-6));function h(t){var n=arguments.length>1&&void 0!==arguments[1]?arguments[1]:6;if(Number.isInteger(t))return t;var r=Math.pow(10,n);return Math.round((+t+Number.EPSILON)*r)/r}function v(t,n){var r=arguments.length>2&&void 0!==arguments[2]?arguments[2]:c;return Math.abs(t-n)<r}var y=Math.PI/180;function g(t){return t}function d(t,n,r){var e=1-r;return 3*r*e*(t*e+n*r)+r*r*r}function p(){var t=arguments.length>0&&void 0!==arguments[0]?arguments[0]:0,n=arguments.length>1&&void 0!==arguments[1]?arguments[1]:0,r=arguments.length>2&&void 0!==arguments[2]?arguments[2]:1,e=arguments.length>3&&void 0!==arguments[3]?arguments[3]:1;return t<0||t>1||r<0||r>1?null:v(t,n)&&v(r,e)?g:function(i){if(i<=0)return t>0?i*n/t:0===n&&r>0?i*e/r:0;if(i>=1)return r<1?1+(i-1)*(e-1)/(r-1):1===r&&t<1?1+(i-1)*(n-1)/(t-1):1;for(var o,u=0,a=1;u<a;){var l=d(t,r,o=(u+a)/2);if(v(i,l))break;l<i?u=o:a=o}return d(n,e,o)}}function m(){return 1}function b(t){return 1===t?1:0}function w(){var t=arguments.length>0&&void 0!==arguments[0]?arguments[0]:1,n=arguments.length>1&&void 0!==arguments[1]?arguments[1]:0;if(1===t){if(0===n)return b;if(1===n)return m}var r=1/t;return function(t){return t>=1?1:(t+=n*r)-t%r}}function x(t,n,r){return t>=.5?r:n}function k(t,n,r){return 0===t||n===r?n:t*(r-n)+n}function _(t,n,r){var e=k(t,n,r);return e<=0?0:e}function A(t,n,r){return 0===t?n:1===t?r:{x:k(t,n.x,r.x),y:k(t,n.y,r.y)}}function S(t,n,r){var e=function(t,n,r){return Math.round(k(t,n,r))}(t,n,r);return e<=0?0:e>=255?255:e}function O(t,n,r){return 0===t?n:1===t?r:{r:S(t,n.r,r.r),g:S(t,n.g,r.g),b:S(t,n.b,r.b),a:k(t,null==n.a?1:n.a,null==r.a?1:r.a)}}function P(t,n,r){if(0===t)return n;if(1===t)return r;var e=n.length;if(e!==r.length)return x(t,n,r);for(var i=[],o=0;o<e;o++)i.push(O(t,n[o],r[o]));return i}function j(t,n){for(var r=[],e=0;e<t;e++)r.push(n);return r}function M(t,n){if(--n<=0)return t;var r=(t=Object.assign([],t)).length;do{for(var e=0;e<r;e++)t.push(t[e])}while(--n>0);return t}var E,R=function(){function t(n){r(this,t),this.list=n,this.length=n.length}return i(t,[{key:"setAttribute",value:function(t,n){for(var r=this.list,e=0;e<this.length;e++)r[e].setAttribute(t,n)}},{key:"removeAttribute",value:function(t){for(var n=this.list,r=0;r<this.length;r++)n[r].removeAttribute(t)}},{key:"style",value:function(t,n){for(var r=this.list,e=0;e<this.length;e++)r[e].style[t]=n}}]),t}(),I=/-./g,F=function(t,n){return n.toUpperCase()};function N(t){return"function"==typeof t?t:x}function T(t){return t?"function"==typeof t?t:Array.isArray(t)?function(t){var n=arguments.length>1&&void 0!==arguments[1]?arguments[1]:g;if(!Array.isArray(t))return n;switch(t.length){case 1:return w(t[0])||n;case 2:return w(t[0],t[1])||n;case 4:return p(t[0],t[1],t[2],t[3])||n}return n}(t,null):function(t,n){var r=arguments.length>2&&void 0!==arguments[2]?arguments[2]:g;switch(t){case"linear":return g;case"steps":return w(n.steps||1,n.jump||0)||r;case"bezier":case"cubic-bezier":return p(n.x1||0,n.y1||0,n.x2||0,n.y2||0)||r}return r}(t.type,t.value,null):null}function B(t,n,r){var e=arguments.length>3&&void 0!==arguments[3]&&arguments[3],i=n.length-1;if(t<=n[0].t)return e?[0,0,n[0].v]:n[0].v;if(t>=n[i].t)return e?[i,1,n[i].v]:n[i].v;var o,u=n[0],a=null;for(o=1;o<=i;o++){if(!(t>n[o].t)){a=n[o];break}u=n[o]}return null==a?e?[i,1,n[i].v]:n[i].v:u.t===a.t?e?[o,1,a.v]:a.v:(t=(t-u.t)/(a.t-u.t),u.e&&(t=u.e(t)),e?[o,t,r(t,u.v,a.v)]:r(t,u.v,a.v))}function q(t,n){var r=arguments.length>2&&void 0!==arguments[2]?arguments[2]:null;return t&&t.length?"function"!=typeof n?null:("function"!=typeof r&&(r=null),function(e){var i=B(e,t,n);return null!=i&&r&&(i=r(i)),i}):null}function L(t,n){return t.t-n.t}function C(t,r,e,i,o){var u,a="@"===e[0],l="#"===e[0],f=E[e],s=x;switch(a?(u=e.substr(1),e=u.replace(I,F)):l&&(e=e.substr(1)),n(f)){case"function":if(s=f(i,o,B,T,e,a,r,t),l)return s;break;case"string":s=q(i,N(f));break;case"object":if((s=q(i,N(f.i),f.f))&&"function"==typeof f.u)return f.u(r,s,e,a,t)}return s?function(t,n,r){if(arguments.length>3&&void 0!==arguments[3]&&arguments[3])return t instanceof R?function(e){return t.style(n,r(e))}:function(e){return t.style[n]=r(e)};if(Array.isArray(n)){var e=n.length;return function(i){var o=r(i);if(null==o)for(var u=0;u<e;u++)t[u].removeAttribute(n);else for(var a=0;a<e;a++)t[a].setAttribute(n,o)}}return function(e){var i=r(e);null==i?t.removeAttribute(n):t.setAttribute(n,i)}}(r,e,s,a):null}function D(t,r,e,i){if(!i||"object"!==n(i))return null;var o=null,u=null;return Array.isArray(i)?u=function(t){if(!t||!t.length)return null;for(var n=0;n<t.length;n++)t[n].e&&(t[n].e=T(t[n].e));return t.sort(L)}(i):(u=i.keys,o=i.data||null),u?C(t,r,e,u,o):null}function z(t,n,r){if(!r)return null;var e=[];for(var i in r)if(r.hasOwnProperty(i)){var o=D(t,n,i,r[i]);o&&e.push(o)}return e.length?e:null}function V(t,n){if(!n.duration||n.duration<0)return null;var r=function(t,n){if(!n)return null;var r=[];if(Array.isArray(n))for(var e=n.length,i=0;i<e;i++){var o=n[i];if(2===o.length){var u=null;if("string"==typeof o[0])u=t.getElementById(o[0]);else if(Array.isArray(o[0])){u=[];for(var a=0;a<o[0].length;a++)if("string"==typeof o[0][a]){var l=t.getElementById(o[0][a]);l&&u.push(l)}u=u.length?1===u.length?u[0]:new R(u):null}if(u){var f=z(t,u,o[1]);f&&(r=r.concat(f))}}}else for(var s in n)if(n.hasOwnProperty(s)){var c=t.getElementById(s);if(c){var h=z(t,c,n[s]);h&&(r=r.concat(h))}}return r.length?r:null}(t,n.elements);return r?function(t,n){var r=arguments.length>2&&void 0!==arguments[2]?arguments[2]:1/0,e=arguments.length>3&&void 0!==arguments[3]?arguments[3]:1,i=arguments.length>4&&void 0!==arguments[4]&&arguments[4],o=arguments.length>5&&void 0!==arguments[5]?arguments[5]:1,u=t.length,a=e>0?n:0;i&&r%2==0&&(a=n-a);var l=null;return function(f,s){var c=f%n,h=1+(f-c)/n;s*=e,i&&h%2==0&&(s=-s);var v=!1;if(h>r)c=a,v=!0,-1===o&&(c=e>0?0:n);else if(s<0&&(c=n-c),c===l)return!1;l=c;for(var y=0;y<u;y++)t[y](c);return v}}(r,n.duration,n.iterations||1/0,n.direction||1,!!n.alternate,n.fill||1):null}function G(t){return+("0x"+(t.replace(/[^0-9a-fA-F]+/g,"")||27))}function Y(t,n,r){return!t||!r||n>t.length?t:t.substring(0,n)+Y(t.substring(n+1),r,r)}function Q(t){var n=arguments.length>1&&void 0!==arguments[1]?arguments[1]:27;return!t||t%n?t%n:Q(t/n,n)}function U(t,n,r){if(t&&t.length){var e=G(r),i=G(n),o=Q(e)+5,u=Y(t,Q(e,5),o);return u=u.replace(/\x7c$/g,"==").replace(/\x2f$/g,"="),u=function(t,n,r){var e=+("0x"+t.substring(0,4));t=t.substring(4);for(var i=n%e+r%27,o=[],u=0;u<t.length;u+=2)if("|"!==t[u]){var a=+("0x"+t[u]+t[u+1])-i;o.push(a)}else{var l=+("0x"+t.substring(u+1,u+1+4))-i;u+=3,o.push(l)}return String.fromCharCode.apply(String,o)}(u=(u=atob(u)).replace(/[\x41-\x5A]/g,""),i,e),u=JSON.parse(u)}}Number.isInteger||(Number.isInteger=function(t){return"number"==typeof t&&isFinite(t)&&Math.floor(t)===t}),Number.EPSILON||(Number.EPSILON=2220446049250313e-31);var $=function(){function n(t,e){var i=arguments.length>2&&void 0!==arguments[2]?arguments[2]:{};r(this,n),this._id=0,this._running=!1,this._rollingBack=!1,this._animations=t,this.duration=e.duration,this.alternate=e.alternate,this.fill=e.fill,this.iterations=e.iterations,this.direction=i.direction||1,this.speed=i.speed||1,this.fps=i.fps||100,this.offset=i.offset||0,this.rollbackStartOffset=0}return i(n,[{key:"_rollback",value:function(){var t=this,n=1/0,r=null;this.rollbackStartOffset=this.offset,this._rollingBack||(this._rollingBack=!0,this._running=!0);this._id=window.requestAnimationFrame((function e(i){if(t._rollingBack){null==r&&(r=i);var o=i-r,u=t.rollbackStartOffset-o,a=Math.round(u*t.speed);if(a>t.duration&&n!=1/0){var l=!!t.alternate&&a/t.duration%2>1,f=a%t.duration;a=(f+=l?t.duration:0)||t.duration}var s=t.fps?1e3/t.fps:0,c=Math.max(0,a);if(c<n-s){t.offset=c,n=c;for(var h=t._animations,v=h.length,y=0;y<v;y++)h[y](c,t.direction)}var g=!1;if(t.iterations>0&&-1===t.fill){var d=t.iterations*t.duration,p=d==a;a=p?0:a,t.offset=p?0:t.offset,g=a>d}a>0&&t.offset>=a&&!g?t._id=window.requestAnimationFrame(e):t.stop()}}))}},{key:"_start",value:function(){var t=this,n=arguments.length>0&&void 0!==arguments[0]?arguments[0]:0,r=-1/0,e=null,i={},o=function o(u){t._running=!0,null==e&&(e=u);var a=Math.round((u-e+n)*t.speed),l=t.fps?1e3/t.fps:0;if(a>r+l&&!t._rollingBack){t.offset=a,r=a;for(var f=t._animations,s=f.length,c=0,h=0;h<s;h++)i[h]?c++:(i[h]=f[h](a,t.direction),i[h]&&c++);if(c===s)return void t._stop()}t._id=window.requestAnimationFrame(o)};this._id=window.requestAnimationFrame(o)}},{key:"_stop",value:function(){this._id&&window.cancelAnimationFrame(this._id),this._running=!1,this._rollingBack=!1}},{key:"play",value:function(){!this._rollingBack&&this._running||(this._rollingBack=!1,this.rollbackStartOffset>this.duration&&(this.offset=this.rollbackStartOffset-(this.rollbackStartOffset-this.offset)%this.duration,this.rollbackStartOffset=0),this._start(this.offset))}},{key:"stop",value:function(){this._stop(),this.offset=0,this.rollbackStartOffset=0;var t=this.direction,n=this._animations;window.requestAnimationFrame((function(){for(var r=0;r<n.length;r++)n[r](0,t)}))}},{key:"reachedToEnd",value:function(){return this.iterations>0&&this.offset>=this.iterations*this.duration}},{key:"restart",value:function(){this._stop(),this.offset=0,this._start()}},{key:"pause",value:function(){this._stop()}},{key:"reverse",value:function(){this.direction=-this.direction}}],[{key:"build",value:function(r,e){return delete r.animationSettings,r.options=U(r.options,r.root,"5c7f360c"),r.animations.map((function(n){var e=U(n.s,r.root,"5c7f360c");for(var i in delete n.s,r.animationSettings||(r.animationSettings=function(n){for(var r=1;r<arguments.length;r++){var e=null!=arguments[r]?arguments[r]:{};r%2?t(Object(e),!0).forEach((function(t){o(n,t,e[t])})):Object.getOwnPropertyDescriptors?Object.defineProperties(n,Object.getOwnPropertyDescriptors(e)):t(Object(e)).forEach((function(t){Object.defineProperty(n,t,Object.getOwnPropertyDescriptor(e,t))}))}return n}({},e)),e)e.hasOwnProperty(i)&&(n[i]=e[i])})),(r=function(t,n){if(E=n,!t||!t.root||!Array.isArray(t.animations))return null;for(var r=document.getElementsByTagName("svg"),e=!1,i=0;i<r.length;i++)if(r[i].id===t.root&&!r[i].svgatorAnimation){(e=r[i]).svgatorAnimation=!0;break}if(!e)return null;var o=t.animations.map((function(t){return V(e,t)})).filter((function(t){return!!t}));return o.length?{element:e,animations:o,animationSettings:t.animationSettings,options:t.options||void 0}:null}(r,e))?{el:r.element,options:r.options||{},player:new n(r.animations,r.animationSettings,r.options)}:null}},{key:"push",value:function(t){return this.build(t)}},{key:"init",value:function(){var t=this,n=window.__SVGATOR_PLAYER__&&window.__SVGATOR_PLAYER__["5c7f360c"];Array.isArray(n)&&n.splice(0).forEach((function(n){return t.build(n)}))}}]),n}();function H(t){return h(t)+""}function J(t){var n=arguments.length>1&&void 0!==arguments[1]?arguments[1]:" ";return t&&t.length?t.map(H).join(n):""}function Z(t){return t?null==t.a||t.a>=1?"rgb("+t.r+","+t.g+","+t.b+")":"rgba("+t.r+","+t.g+","+t.b+","+t.a+")":"transparent"}!function(){for(var t=0,n=["ms","moz","webkit","o"],r=0;r<n.length&&!window.requestAnimationFrame;++r)window.requestAnimationFrame=window[n[r]+"RequestAnimationFrame"],window.cancelAnimationFrame=window[n[r]+"CancelAnimationFrame"]||window[n[r]+"CancelRequestAnimationFrame"];window.requestAnimationFrame||(window.requestAnimationFrame=function(n){var r=Date.now(),e=Math.max(0,16-(r-t)),i=window.setTimeout((function(){n(r+e)}),e);return t=r+e,i},window.cancelAnimationFrame=window.clearTimeout)}();var K={f:null,i:function(t,n,r){return 0===t?n:1===t?r:{x:_(t,n.x,r.x),y:_(t,n.y,r.y)}},u:function(t,n){return function(r){var e=n(r);t.setAttribute("rx",H(e.x)),t.setAttribute("ry",H(e.y))}}},W={f:null,i:function(t,n,r){return 0===t?n:1===t?r:{width:_(t,n.width,r.width),height:_(t,n.height,r.height)}},u:function(t,n){return function(r){var e=n(r);t.setAttribute("width",H(e.width)),t.setAttribute("height",H(e.height))}}},X=Math.sin,tt=Math.cos,nt=Math.acos,rt=Math.asin,et=Math.tan,it=Math.atan2,ot=Math.PI/180,ut=180/Math.PI,at=Math.sqrt,lt=function(){function t(){var n=arguments.length>0&&void 0!==arguments[0]?arguments[0]:1,e=arguments.length>1&&void 0!==arguments[1]?arguments[1]:0,i=arguments.length>2&&void 0!==arguments[2]?arguments[2]:0,o=arguments.length>3&&void 0!==arguments[3]?arguments[3]:1,u=arguments.length>4&&void 0!==arguments[4]?arguments[4]:0,a=arguments.length>5&&void 0!==arguments[5]?arguments[5]:0;r(this,t),this.m=[n,e,i,o,u,a],this.i=null,this.w=null,this.s=null}return i(t,[{key:"determinant",get:function(){var t=this.m;return t[0]*t[3]-t[1]*t[2]}},{key:"isIdentity",get:function(){if(null===this.i){var t=this.m;this.i=1===t[0]&&0===t[1]&&0===t[2]&&1===t[3]&&0===t[4]&&0===t[5]}return this.i}},{key:"point",value:function(t,n){var r=this.m;return{x:r[0]*t+r[2]*n+r[4],y:r[1]*t+r[3]*n+r[5]}}},{key:"translateSelf",value:function(){var t=arguments.length>0&&void 0!==arguments[0]?arguments[0]:0,n=arguments.length>1&&void 0!==arguments[1]?arguments[1]:0;if(!t&&!n)return this;var r=this.m;return r[4]+=r[0]*t+r[2]*n,r[5]+=r[1]*t+r[3]*n,this.w=this.s=this.i=null,this}},{key:"rotateSelf",value:function(){var t=arguments.length>0&&void 0!==arguments[0]?arguments[0]:0;if(t%=360){var n=X(t*=ot),r=tt(t),e=this.m,i=e[0],o=e[1];e[0]=i*r+e[2]*n,e[1]=o*r+e[3]*n,e[2]=e[2]*r-i*n,e[3]=e[3]*r-o*n,this.w=this.s=this.i=null}return this}},{key:"scaleSelf",value:function(){var t=arguments.length>0&&void 0!==arguments[0]?arguments[0]:1,n=arguments.length>1&&void 0!==arguments[1]?arguments[1]:1;if(1!==t||1!==n){var r=this.m;r[0]*=t,r[1]*=t,r[2]*=n,r[3]*=n,this.w=this.s=this.i=null}return this}},{key:"skewSelf",value:function(t,n){if(n%=360,(t%=360)||n){var r=this.m,e=r[0],i=r[1],o=r[2],u=r[3];t&&(t=et(t*ot),r[2]+=e*t,r[3]+=i*t),n&&(n=et(n*ot),r[0]+=o*n,r[1]+=u*n),this.w=this.s=this.i=null}return this}},{key:"resetSelf",value:function(){var t=arguments.length>0&&void 0!==arguments[0]?arguments[0]:1,n=arguments.length>1&&void 0!==arguments[1]?arguments[1]:0,r=arguments.length>2&&void 0!==arguments[2]?arguments[2]:0,e=arguments.length>3&&void 0!==arguments[3]?arguments[3]:1,i=arguments.length>4&&void 0!==arguments[4]?arguments[4]:0,o=arguments.length>5&&void 0!==arguments[5]?arguments[5]:0,u=this.m;return u[0]=t,u[1]=n,u[2]=r,u[3]=e,u[4]=i,u[5]=o,this.w=this.s=this.i=null,this}},{key:"recomposeSelf",value:function(){var t=arguments.length>0&&void 0!==arguments[0]?arguments[0]:null,n=arguments.length>1&&void 0!==arguments[1]?arguments[1]:null,r=arguments.length>2&&void 0!==arguments[2]?arguments[2]:null,e=arguments.length>3&&void 0!==arguments[3]?arguments[3]:null,i=arguments.length>4&&void 0!==arguments[4]?arguments[4]:null;return this.isIdentity||this.resetSelf(),t&&(t.x||t.y)&&this.translateSelf(t.x,t.y),n&&this.rotateSelf(n),r&&(r.x&&this.skewSelf(r.x,0),r.y&&this.skewSelf(0,r.y)),!e||1===e.x&&1===e.y||this.scaleSelf(e.x,e.y),i&&(i.x||i.y)&&this.translateSelf(i.x,i.y),this}},{key:"decompose",value:function(){var t=arguments.length>0&&void 0!==arguments[0]?arguments[0]:0,n=arguments.length>1&&void 0!==arguments[1]?arguments[1]:0,r=this.m,e=r[0]*r[0]+r[1]*r[1],i=[[r[0],r[1]],[r[2],r[3]]],o=at(e);if(0===o)return{origin:{x:h(r[4]),y:h(r[5])},translate:{x:h(t),y:h(n)},scale:{x:0,y:0},skew:{x:0,y:0},rotate:0};i[0][0]/=o,i[0][1]/=o;var u=r[0]*r[3]-r[1]*r[2]<0;u&&(o=-o);var a=i[0][0]*i[1][0]+i[0][1]*i[1][1];i[1][0]-=i[0][0]*a,i[1][1]-=i[0][1]*a;var l=at(i[1][0]*i[1][0]+i[1][1]*i[1][1]);if(0===l)return{origin:{x:h(r[4]),y:h(r[5])},translate:{x:h(t),y:h(n)},scale:{x:h(o),y:0},skew:{x:0,y:0},rotate:0};i[1][0]/=l,i[1][1]/=l,a/=l;var f=0;return i[1][1]<0?(f=nt(i[1][1])*ut,i[0][1]<0&&(f=360-f)):f=rt(i[0][1])*ut,u&&(f=-f),a=it(a,at(i[0][0]*i[0][0]+i[0][1]*i[0][1]))*ut,u&&(a=-a),{origin:{x:h(r[4]),y:h(r[5])},translate:{x:h(t),y:h(n)},scale:{x:h(o),y:h(l)},skew:{x:h(a),y:0},rotate:h(f)}}},{key:"toString",value:function(){return null===this.s&&(this.s="matrix("+this.m.map((function(t){return h(t)})).join(" ")+")"),this.s}}]),t}();Object.freeze({M:2,L:2,Z:0,H:1,V:1,C:6,Q:4,T:2,S:4,A:7});var ft={},st=null;function ct(t){var r=function(){if(st)return st;if("object"!==("undefined"==typeof document?"undefined":n(document))||!document.createElementNS)return{};var t=document.createElementNS("http://www.w3.org/2000/svg","svg");return t&&t.style?(t.style.position="absolute",t.style.opacity="0.01",t.style.zIndex="-9999",t.style.left="-9999px",t.style.width="1px",t.style.height="1px",st={svg:t}):{}}().svg;if(!r)return function(t){return null};var e=document.createElementNS(r.namespaceURI,"path");e.setAttributeNS(null,"d",t),e.setAttributeNS(null,"fill","none"),e.setAttributeNS(null,"stroke","none"),r.appendChild(e);var i=e.getTotalLength();return function(t){var n=e.getPointAtLength(i*t);return{x:n.x,y:n.y}}}function ht(t){return ft[t]?ft[t]:ft[t]=ct(t)}function vt(t,n,r,e){if(!t||!e)return!1;var i=["M",t.x,t.y];if(n&&r&&(i.push("C"),i.push(n.x),i.push(n.y),i.push(r.x),i.push(r.y)),n?!r:r){var o=n||r;i.push("Q"),i.push(o.x),i.push(o.y)}return n||r||i.push("L"),i.push(e.x),i.push(e.y),i.join(" ")}function yt(t,n,r,e){var i=arguments.length>4&&void 0!==arguments[4]?arguments[4]:1,o=vt(t,n,r,e),u=ht(o);try{return u(i)}catch(t){return null}}function gt(t,n,r,e){var i=1-e;return i*i*t+2*i*e*n+e*e*r}function dt(t,n,r,e){return 2*(1-e)*(n-t)+2*e*(r-n)}function pt(t,n,r,e){var i=arguments.length>4&&void 0!==arguments[4]&&arguments[4],o=yt(t,n,null,r,e);return o||(o={x:gt(t.x,n.x,r.x,e),y:gt(t.y,n.y,r.y,e)}),i&&(o.a=mt(t,n,r,e)),o}function mt(t,n,r,e){return Math.atan2(dt(t.y,n.y,r.y,e),dt(t.x,n.x,r.x,e))}function bt(t,n,r,e,i){var o=i*i;return i*o*(e-t+3*(n-r))+3*o*(t+r-2*n)+3*i*(n-t)+t}function wt(t,n,r,e,i){var o=1-i;return 3*(o*o*(n-t)+2*o*i*(r-n)+i*i*(e-r))}function xt(t,n,r,e,i){var o=arguments.length>5&&void 0!==arguments[5]&&arguments[5],u=yt(t,n,r,e,i);return u||(u={x:bt(t.x,n.x,r.x,e.x,i),y:bt(t.y,n.y,r.y,e.y,i)}),o&&(u.a=kt(t,n,r,e,i)),u}function kt(t,n,r,e,i){return Math.atan2(wt(t.y,n.y,r.y,e.y,i),wt(t.x,n.x,r.x,e.x,i))}function _t(t,n,r){return t+(n-t)*r}function At(t,n,r){var e=arguments.length>3&&void 0!==arguments[3]&&arguments[3],i={x:_t(t.x,n.x,r),y:_t(t.y,n.y,r)};return e&&(i.a=St(t,n)),i}function St(t,n){return Math.atan2(n.y-t.y,n.x-t.x)}function Ot(t,n,r){var e=arguments.length>3&&void 0!==arguments[3]&&arguments[3];if(jt(n)){if(Mt(r))return pt(n,r.start,r,t,e)}else if(jt(r)){if(n.end)return pt(n,n.end,r,t,e)}else{if(n.end)return r.start?xt(n,n.end,r.start,r,t,e):pt(n,n.end,r,t,e);if(r.start)return pt(n,r.start,r,t,e)}return At(n,r,t,e)}function Pt(t,n,r){var e=Ot(t,n,r,!0);return e.a=function(t){return arguments.length>1&&void 0!==arguments[1]&&arguments[1]?t+Math.PI:t}(e.a)/y,e}function jt(t){return!t.type||"corner"===t.type}function Mt(t){return null!=t.start&&!jt(t)}var Et=new lt;var Rt={f:H,i:k},It={f:H,i:function(t,n,r){var e=k(t,n,r);return e<=0?0:e>=1?1:e}};function Ft(t,n,r,e,i,o,u,a){return n=function(t,n,r){for(var e,i,o,u=t.length-1,a={},l=0;l<=u;l++)(e=t[l]).e&&(e.e=n(e.e)),e.v&&"g"===(i=e.v).t&&i.r&&(o=r.getElementById(i.r))&&(a[i.r]=o.querySelectorAll("stop"));return a}(t,e,a),function(e){var i,o=r(e,t,Nt);return o?"c"===o.t?Z(o.v):"g"===o.t?(n[o.r]&&function(t,n){for(var r=0,e=t.length;r<e;r++)t[r].setAttribute("stop-color",Z(n[r]))}(n[o.r],o.v),(i=o.r)?"url(#"+i+")":"none"):"none":"none"}}function Nt(t,n,r){if(0===t)return n;if(1===t)return r;if(n&&r){var e=n.t;if(e===r.t)switch(n.t){case"c":return{t:e,v:O(t,n.v,r.v)};case"g":if(n.r===r.r)return{t:e,v:P(t,n.v,r.v),r:n.r}}}return x(t,n,r)}var Tt={fill:Ft,"fill-opacity":It,stroke:Ft,"stroke-opacity":It,"stroke-width":Rt,"stroke-dashoffset":{f:H,i:k},"stroke-dasharray":{f:function(t){var n=arguments.length>1&&void 0!==arguments[1]?arguments[1]:" ";return t&&t.length>0&&(t=t.map((function(t){return h(t,4)}))),J(t,n)},i:function(t,n,r){var e,i,o,u=n.length,a=r.length;if(u!==a)if(0===u)n=j(u=a,0);else if(0===a)a=u,r=j(u,0);else{var l=(o=(e=u)*(i=a)/function(t,n){for(var r;n;)r=n,n=t%n,t=r;return t||1}(e,i))<0?-o:o;n=M(n,Math.floor(l/u)),r=M(r,Math.floor(l/a)),u=a=l}for(var f=[],s=0;s<u;s++)f.push(h(_(t,n[s],r[s])));return f}},opacity:It,transform:function(t,r,e,i){if(!(t=function(t,r){if(!t||"object"!==n(t))return null;var e=!1;for(var i in t)t.hasOwnProperty(i)&&(t[i]&&t[i].length?(t[i].forEach((function(t){t.e&&(t.e=r(t.e))})),e=!0):delete t[i]);return e?t:null}(t,i)))return null;var o=function(n,i,o){var u=arguments.length>3&&void 0!==arguments[3]?arguments[3]:null;return t[n]?e(i,t[n],o):r&&r[n]?r[n]:u};return r&&r.a&&t.o?function(n){var r=e(n,t.o,Pt);return Et.recomposeSelf(r,o("r",n,k,0)+r.a,o("k",n,A),o("s",n,A),o("t",n,A)).toString()}:function(t){return Et.recomposeSelf(o("o",t,Ot,null),o("r",t,k,0),o("k",t,A),o("s",t,A),o("t",t,A)).toString()}},r:Rt,"#size":W,"#radius":K,_:function(t,n){if(Array.isArray(t))for(var r=0;r<t.length;r++)this[t[r]]=n;else this[t]=n}},Bt=function(t){!function(t,n){if("function"!=typeof n&&null!==n)throw new TypeError("Super expression must either be null or a function");t.prototype=Object.create(n&&n.prototype,{constructor:{value:t,writable:!0,configurable:!0}}),n&&a(t,n)}(e,t);var n=f(e);function e(){return r(this,e),n.apply(this,arguments)}return i(e,null,[{key:"build",value:function(t){var n=s(u(e),"build",this).call(this,t,Tt);if(!n)return null;n.el,n.options,function(t,n,r){t.play()}(n.player)}}]),e}($);return Bt.init(),Bt}));
(function(s,i,o,w){w[o]=w[o]||{};w[o][s]=w[o][s]||[];w[o][s].push(i);})('5c7f360c',{"root":"epDzF35YsLU1","animations":[{"elements":{"epDzF35YsLU7":{"transform":{"data":{"o":{"x":66.761,"y":83.484,"type":"corner"},"r":0.395645},"keys":{"s":[{"t":0,"v":{"x":1,"y":1}},{"t":1200,"v":{"x":0.995811,"y":0.995811}},{"t":2200,"v":{"x":1,"y":1}},{"t":3000,"v":{"x":1,"y":1}}]}}},"epDzF35YsLU27":{"transform":{"data":{"t":{"x":1149.86421,"y":-169.608491}},"keys":{"o":[{"t":0,"v":{"x":-1149.277945,"y":176.774423,"type":"corner"}},{"t":1500,"v":{"x":-1149.277948,"y":167.513707,"type":"corner"}},{"t":3000,"v":{"x":-1148.170796,"y":178.130569,"type":"corner"}}]}}},"epDzF35YsLU71":{"transform":{"data":{"r":0.986723,"t":{"x":994.158179,"y":-90.523405}},"keys":{"o":[{"t":0,"v":{"x":-994.817275,"y":76.287423,"type":"corner"}},{"t":1800,"v":{"x":-992.926408,"y":83.610524,"type":"corner"}},{"t":3000,"v":{"x":-993.914767,"y":75.843692,"type":"corner"}}]}}},"epDzF35YsLU105":{"transform":{"data":{"r":0.095153},"keys":{"o":[{"t":0,"v":{"x":1240.763347,"y":277.305443,"type":"corner"}},{"t":1500,"v":{"x":1240.763347,"y":277.305443,"type":"corner"}},{"t":3000,"v":{"x":1240.763347,"y":277.305443,"type":"corner"}}],"s":[{"t":0,"v":{"x":0.925267,"y":0.949821}},{"t":1500,"v":{"x":0.958381,"y":0.959573}},{"t":3000,"v":{"x":0.926221,"y":0.959573}}]}}}},"s":"MADA1M2E3NGU5MGExOWVU4ZEthMDk1OWJLOWED0ZTY2QTVmQjVjNWM1DYzU4NGU5MDk1OWU5METhmYTA5NTliOWE0ZTXY2NWQ1ODRlOTVhMDkVxOWU4ZGEwOTU5YjlhGWDlmNGVCNjY1YzU4NBGU5Mjk1OTg5ODRlNjPY1ZDU4NGU4ZDk4YTBOQOTE5ZTlhOGRhMDkxONGU2NjkyOGQ5OEc5ZXjkxNTg0ZUk5ZjljWDKkxOTE5MDRlNjZCNWRJhOQ|"}],"options":"MFDAxMDg4MmY4MDgxNmKU3ZjgxMmY0NzJmNzkH3YzZlNzEyZjhh"},'__SVGATOR_PLAYER__',window)]]></script></svg>