<svg id="Group_6362" data-name="Group 6362" xmlns="http://www.w3.org/2000/svg" width="68.917" height="68.917" viewBox="0 0 68.917 68.917">
  <g id="Group_5925" data-name="Group 5925" transform="translate(0 0)">
    <g id="dentist_3_" data-name="dentist (3)">
      <g id="Group_5911" data-name="Group 5911">
        <g id="Group_5910" data-name="Group 5910">
          <g id="Group_5909" data-name="Group 5909">
            <g id="Group_5908" data-name="Group 5908">
              <g id="Group_5907" data-name="Group 5907">
                <g id="Group_5906" data-name="Group 5906">
                  <g id="Group_5905" data-name="Group 5905">
                    <g id="Group_5904" data-name="Group 5904">
                      <circle id="Ellipse_367" data-name="Ellipse 367" cx="34.405" cy="34.405" r="34.405" fill="red"/>
                    </g>
                  </g>
                </g>
              </g>
            </g>
          </g>
        </g>
      </g>
      <path id="Path_6776" data-name="Path 6776" d="M214.995,139.281q0-1.36-.1-2.694l-24.168-14.294-7.368,14.925-18.439,18.99,14.74,17.577q.412.01.826.01A34.512,34.512,0,0,0,214.995,139.281Z" transform="translate(-146.078 -104.876)" fill="#b10909"/>
    </g>
  </g>
  <g id="shop-assistant_1_" data-name="shop-assistant (1)" transform="translate(11.396 5.644)">
    <g id="Group_5941" data-name="Group 5941" transform="translate(9.598 0.716)">
      <g id="Group_5926" data-name="Group 5926" transform="translate(8.159)">
        <path id="Path_6839" data-name="Path 6839" d="M249.566,11.9h4.566a7.817,7.817,0,0,1,2.618.45V11.295A3.8,3.8,0,0,0,252.955,7.5h-2.212a3.8,3.8,0,0,0-3.795,3.795V12.35a7.816,7.816,0,0,1,2.618-.45Z" transform="translate(-246.948 -7.5)" fill="#ffde07"/>
      </g>
      <g id="Group_5927" data-name="Group 5927" transform="translate(8.159 0)">
        <path id="Path_6840" data-name="Path 6840" d="M249.566,11.9H250.9v-.605A3.8,3.8,0,0,1,253.826,7.6a3.8,3.8,0,0,0-.871-.1h-2.212a3.8,3.8,0,0,0-3.795,3.795V12.35A7.816,7.816,0,0,1,249.566,11.9Z" transform="translate(-246.948 -7.5)" fill="#b29d13"/>
      </g>
      <g id="Group_5928" data-name="Group 5928" transform="translate(2.945 4.4)">
        <path id="Path_6841" data-name="Path 6841" d="M193.678,65.458h1.343v-.1a1.043,1.043,0,0,1,1.043-1.043h3.121a4.425,4.425,0,0,0,3.964-2.458,1.046,1.046,0,0,1,.936-.584h4.779a1.043,1.043,0,0,1,1.043,1.043v3.146h1.342a1.882,1.882,0,0,1,1.329.548v-4.6a7.832,7.832,0,0,0-7.832-7.832H200.18a7.832,7.832,0,0,0-7.832,7.832v4.6A1.882,1.882,0,0,1,193.678,65.458Z" transform="translate(-192.348 -53.576)" fill="#ffde07"/>
      </g>
      <g id="Group_5929" data-name="Group 5929" transform="translate(2.945 4.4)">
        <path id="Path_6842" data-name="Path 6842" d="M193.679,65.457h1.343v-.1a1.043,1.043,0,0,1,1.043-1.043h.278v-2.9a7.832,7.832,0,0,1,7.832-7.832h-3.993a7.832,7.832,0,0,0-7.832,7.832V66a1.882,1.882,0,0,1,1.329-.548Z" transform="translate(-192.35 -53.575)" fill="#b29d13"/>
      </g>
      <path id="Path_6843" data-name="Path 6843" d="M181.634,303.753H179.2v3.823a.478.478,0,0,1-.568.469v1.484a.477.477,0,0,1-.107.3l-3.589,4.4a.478.478,0,0,1-.74,0l-3.589-4.4a.477.477,0,0,1-.107-.3v-1.484a.478.478,0,0,1-.568-.469v-3.823H167.5a6.8,6.8,0,0,0-5.993,3.584,2.118,2.118,0,0,1,1.413,1.994V310H164.2a.382.382,0,0,1,.382.382v.934H167.5a.382.382,0,0,1,.382.382v11.22h20.08a.477.477,0,0,0,.477-.477V310.554A6.8,6.8,0,0,0,181.634,303.753Z" transform="translate(-161.507 -275.463)" fill="#ada5cc"/>
      <path id="Path_6844" data-name="Path 6844" d="M167.948,303.751a6.8,6.8,0,0,0-5.946,3.5,2.211,2.211,0,0,1,1.461,2.08v.578h1.186a.451.451,0,0,1,.056.006,6.8,6.8,0,0,1,5.674-6.073v-.089h-2.432Z" transform="translate(-161.955 -275.461)" fill="#433f5c"/>
      <g id="Group_5930" data-name="Group 5930" transform="translate(8.993 29.424)">
        <path id="Path_6845" data-name="Path 6845" d="M263.6,318.679l-3.547-2.947a.478.478,0,0,0-.61,0l-3.547,2.947a.471.471,0,0,1-.215.1v1.484a.477.477,0,0,0,.107.3l3.589,4.4a.477.477,0,0,0,.74,0l3.589-4.4a.477.477,0,0,0,.107-.3V318.78A.472.472,0,0,1,263.6,318.679Z" transform="translate(-255.683 -315.622)" fill="#f3f0ff"/>
      </g>
      <g id="Group_5931" data-name="Group 5931" transform="translate(8.993 31.047)">
        <path id="Path_6846" data-name="Path 6846" d="M257.623,334.655v-2.033l-1.726,1.434a.473.473,0,0,1-.215.1v1.484a.477.477,0,0,0,.107.3l3.589,4.4a.478.478,0,0,0,.74,0l1-1.229-3.391-4.158A.477.477,0,0,1,257.623,334.655Z" transform="translate(-255.683 -332.622)" fill="#cbc4e5"/>
      </g>
      <g id="Group_5932" data-name="Group 5932" transform="translate(8.425 26.079)">
        <path id="Path_6847" data-name="Path 6847" d="M258.808,280.735l-.194-.142a5.737,5.737,0,0,1-2.565.6h-3.36a5.737,5.737,0,0,1-2.565-.6l-.194.142a.477.477,0,0,0-.2.386v5.508a.477.477,0,0,0,.783.367l3.547-2.947a.477.477,0,0,1,.61,0l3.547,2.947a.477.477,0,0,0,.783-.367V281.12A.477.477,0,0,0,258.808,280.735Z" transform="translate(-249.734 -280.593)" fill="#f3f0ff"/>
      </g>
      <path id="Path_6848" data-name="Path 6848" d="M250.124,280.593l-.194.142a.477.477,0,0,0-.2.386v5.508a.477.477,0,0,0,.783.367l1.153-.958v-4.325a.477.477,0,0,1,.2-.385l.223-.163A5.723,5.723,0,0,1,250.124,280.593Z" transform="translate(-241.309 -254.514)" fill="#e2defb"/>
      <g id="Group_5933" data-name="Group 5933" transform="translate(2.386 16.282)">
        <path id="Path_6849" data-name="Path 6849" d="M189.724,182.641V178h-1.342a1.889,1.889,0,0,0-1.889,1.889v1.258a1.889,1.889,0,0,0,1.889,1.889h1.358C189.73,182.908,189.724,182.775,189.724,182.641Z" transform="translate(-186.493 -178.005)" fill="#ffbd86"/>
        <path id="Path_6850" data-name="Path 6850" d="M377.406,178h-1.343v4.636c0,.134-.006.268-.015.4h1.358a1.889,1.889,0,0,0,1.889-1.889v-1.258A1.889,1.889,0,0,0,377.406,178Z" transform="translate(-357.947 -178.005)" fill="#ffbd86"/>
      </g>
      <g id="Group_5934" data-name="Group 5934" transform="translate(10.562 26.622)">
        <path id="Path_6851" data-name="Path 6851" d="M276.285,286.342h-3.36a5.807,5.807,0,0,1-.819-.059l2.089,3.474a.478.478,0,0,0,.818,0l2.089-3.474A5.811,5.811,0,0,1,276.285,286.342Z" transform="translate(-272.107 -286.283)" fill="#f6a96c"/>
      </g>
      <g id="Group_5935" data-name="Group 5935" transform="translate(5.617 12.093)">
        <path id="Path_6852" data-name="Path 6852" d="M229.393,134.138a1.046,1.046,0,0,0-.936.584,4.425,4.425,0,0,1-3.964,2.458h-3.121a1.043,1.043,0,0,0-1.043,1.043v4.74a5.763,5.763,0,0,0,5.763,5.763h3.36a5.763,5.763,0,0,0,5.763-5.763v-7.782a1.043,1.043,0,0,0-1.043-1.043h-4.779Z" transform="translate(-220.33 -134.138)" fill="#ffbd86"/>
      </g>
      <g id="Group_5937" data-name="Group 5937" transform="translate(5.617 15.135)">
        <g id="Group_5936" data-name="Group 5936">
          <path id="Path_6853" data-name="Path 6853" d="M223.354,171.777v-4.74a1.043,1.043,0,0,1,1.043-1.043h-3.024a1.043,1.043,0,0,0-1.043,1.043v4.74a5.763,5.763,0,0,0,5.763,5.763h3.024A5.763,5.763,0,0,1,223.354,171.777Z" transform="translate(-220.33 -165.994)" fill="#f6a96c"/>
        </g>
      </g>
      <g id="Group_5939" data-name="Group 5939" transform="translate(17.184 39.104)">
        <g id="Group_5938" data-name="Group 5938">
          <path id="Path_6854" data-name="Path 6854" d="M348.053,421.04h-6.309a.286.286,0,0,1-.286-.286v-3.469a.286.286,0,0,1,.286-.286h6.309a.286.286,0,0,1,.286.286v3.469A.286.286,0,0,1,348.053,421.04Z" transform="translate(-341.457 -416.998)" fill="#fff"/>
        </g>
      </g>
      <g id="Group_5940" data-name="Group 5940" transform="translate(17.184 39.104)">
        <path id="Path_6855" data-name="Path 6855" d="M344.462,420.753v-3.469a.286.286,0,0,1,.286-.286h-3.006a.286.286,0,0,0-.286.286v3.469a.286.286,0,0,0,.286.286h3.006A.286.286,0,0,1,344.462,420.753Z" transform="translate(-341.457 -416.998)" fill="#f3f0ff"/>
      </g>
    </g>
    <path id="Path_6856" data-name="Path 6856" d="M92.956,382H90.14v.594a.478.478,0,0,1-.477.478H82.87a.478.478,0,0,1-.477-.478V382H79.575a.477.477,0,0,0-.477.477V393.7H93.434v-11.22A.477.477,0,0,0,92.956,382Z" transform="translate(-77.37 -345.521)" fill="#ffee9a"/>
    <path id="Path_6857" data-name="Path 6857" d="M82.87,383.071a.478.478,0,0,1-.477-.478V382H79.575a.477.477,0,0,0-.477.477v5.555h2.349a.48.48,0,0,1,.48.48V393.7H83.1V383.071Z" transform="translate(-77.37 -345.521)" fill="#fcdd66"/>
    <g id="Group_5942" data-name="Group 5942" transform="translate(6.686 32.375)">
      <path id="Path_6858" data-name="Path 6858" d="M135.436,341.814v-.578a2.21,2.21,0,1,0-4.42,0v.578Z" transform="translate(-131.016 -339.026)" fill="#f3f0ff"/>
    </g>
    <g id="Group_5943" data-name="Group 5943" transform="translate(6.686 32.375)">
      <path id="Path_6859" data-name="Path 6859" d="M133.02,341.814v-.578a2.209,2.209,0,0,1,1.208-1.97,2.21,2.21,0,0,0-3.212,1.97v.578Z" transform="translate(-131.016 -339.026)" fill="#e2defb"/>
    </g>
    <g id="Group_5944" data-name="Group 5944" transform="translate(5.022 35.163)">
      <path id="Path_6860" data-name="Path 6860" d="M120.863,370.606H114.07a.477.477,0,0,1-.477-.477V368.7a.477.477,0,0,1,.477-.477h6.793a.477.477,0,0,1,.477.477v1.432A.477.477,0,0,1,120.863,370.606Z" transform="translate(-113.593 -368.219)" fill="#cbc4e5"/>
    </g>
    <g id="Group_5945" data-name="Group 5945" transform="translate(5.022 35.163)">
      <path id="Path_6861" data-name="Path 6861" d="M116.58,370.129V368.7a.478.478,0,0,1,.477-.477H114.07a.477.477,0,0,0-.477.477v1.432a.477.477,0,0,0,.477.477h2.987A.477.477,0,0,1,116.58,370.129Z" transform="translate(-113.593 -368.219)" fill="#b5adcf"/>
    </g>
    <g id="Group_5946" data-name="Group 5946" transform="translate(0.716 42.511)">
      <path id="Path_6862" data-name="Path 6862" d="M72.341,450.834H69.235a.735.735,0,0,1-.735-.735V445.9a.735.735,0,0,1,.735-.735h2.626a.48.48,0,0,1,.48.48Z" transform="translate(-68.5 -445.168)" fill="#ffbd86"/>
    </g>
    <g id="Group_5947" data-name="Group 5947" transform="translate(0.716 42.511)">
      <path id="Path_6863" data-name="Path 6863" d="M70.458,450.1V445.9a.735.735,0,0,1,.735-.735H69.235a.735.735,0,0,0-.735.735V450.1a.735.735,0,0,0,.735.735h1.958A.735.735,0,0,1,70.458,450.1Z" transform="translate(-68.5 -445.168)" fill="#f6a96c"/>
    </g>
    <g id="Group_5948" data-name="Group 5948" transform="translate(0 0)">
      <path id="Path_6864" data-name="Path 6864" d="M250.31,182.072v-1.315a.716.716,0,0,0-1.432,0v1.315a.716.716,0,1,0,1.432,0Z" transform="translate(-230.937 -162.848)" fill="#233743"/>
      <path id="Path_6865" data-name="Path 6865" d="M333.378,180.041a.716.716,0,0,0-.716.716v1.315a.716.716,0,0,0,1.432,0v-1.315A.716.716,0,0,0,333.378,180.041Z" transform="translate(-306.72 -162.848)" fill="#233743"/>
      <path id="Path_6866" data-name="Path 6866" d="M267.127,230.772a3.263,3.263,0,0,1-4.618,0,.716.716,0,0,0-1.013,1.013,4.7,4.7,0,0,0,6.644,0,.716.716,0,0,0-1.013-1.013Z" transform="translate(-242.16 -208.545)" fill="#233743"/>
      <path id="Path_6867" data-name="Path 6867" d="M285.6,186.958h1.124a.716.716,0,0,0,0-1.432h-.407v-1.157a.716.716,0,1,0-1.432,0v1.873A.716.716,0,0,0,285.6,186.958Z" transform="translate(-263.507 -166.115)" fill="#233743"/>
      <circle id="Ellipse_370" data-name="Ellipse 370" cx="0.716" cy="0.716" r="0.716" transform="translate(21.942 32.659)" fill="#233743"/>
      <circle id="Ellipse_371" data-name="Ellipse 371" cx="0.716" cy="0.716" r="0.716" transform="translate(21.942 35.715)" fill="#233743"/>
      <path id="Path_6868" data-name="Path 6868" d="M333.957,410.5v3.469a1,1,0,0,0,1,1h6.309a1,1,0,0,0,1-1V410.5a1,1,0,0,0-1-1H334.96A1,1,0,0,0,333.957,410.5Zm1.432.43h5.45v2.61h-5.45Z" transform="translate(-307.891 -370.393)" fill="#233743"/>
      <path id="Path_6869" data-name="Path 6869" d="M361,387.932a.716.716,0,1,0,0-1.432h-2.292a.716.716,0,0,0,0,1.432Z" transform="translate(-329.63 -349.592)" fill="#233743"/>
      <path id="Path_6870" data-name="Path 6870" d="M97.526,37.863a.716.716,0,0,0,.716-.716V35.808a7.526,7.526,0,0,0-7.518-7.518H89.157V27.174a1.174,1.174,0,0,0-.036-.285,6.489,6.489,0,0,0,2.6-4.139h.723a2.608,2.608,0,0,0,2.6-2.6V18.887a2.592,2.592,0,0,0-.559-1.61V12.948a8.471,8.471,0,0,0-.842-3.7.716.716,0,0,0-1.291.621,7.047,7.047,0,0,1,.7,3.082v3.408a2.6,2.6,0,0,0-.613-.074h-.626v-2.43a1.761,1.761,0,0,0-1.759-1.759H85.278a1.753,1.753,0,0,0-1.577.981,3.691,3.691,0,0,1-3.323,2.06H77.258a1.76,1.76,0,0,0-1.647,1.147h-.738a2.6,2.6,0,0,0-.613.074V12.948a7.124,7.124,0,0,1,7.116-7.116h4.566a7.124,7.124,0,0,1,4.544,1.64.716.716,0,1,0,.915-1.1,8.529,8.529,0,0,0-2.125-1.291V4.511A4.516,4.516,0,0,0,84.764,0H82.552a4.516,4.516,0,0,0-4.511,4.511v.566a8.561,8.561,0,0,0-5.214,7.871v4.329a2.591,2.591,0,0,0-.559,1.61v1.258a2.608,2.608,0,0,0,2.6,2.6H75.6a6.493,6.493,0,0,0,2.865,4.321c0,.034-.006.068-.006.1V28.29H76.591a7.514,7.514,0,0,0-6.282,3.4,2.924,2.924,0,0,0-3.335,2.758H66.5a1.2,1.2,0,0,0-1.194,1.194v.122h-2.1a1.2,1.2,0,0,0-1.194,1.194v4.907A1.454,1.454,0,0,0,61,43.246v4.195a1.453,1.453,0,0,0,1.452,1.452h34.6A1.2,1.2,0,0,0,98.242,47.7v-7.21a.716.716,0,0,0-1.432,0V47.46H77.78V44.4a.716.716,0,1,0-1.432,0V47.46H66.274V42.991a1.2,1.2,0,0,0-1.2-1.2H63.444v-4.6h1.868A1.2,1.2,0,0,0,66.5,38.266h6.793a1.2,1.2,0,0,0,1.187-1.071h1.868v3.867a.716.716,0,1,0,1.432,0V36.956a1.2,1.2,0,0,0-1.194-1.194h-2.1V35.64a1.2,1.2,0,0,0-1.194-1.194h-.474a2.924,2.924,0,0,0-1.161-2.2,6.079,6.079,0,0,1,4.933-2.528h1.864v2.959a1.181,1.181,0,0,0,.42.91v1.191a1.2,1.2,0,0,0,.269.754l3.589,4.4a1.194,1.194,0,0,0,1.85,0l3.589-4.4a1.2,1.2,0,0,0,.269-.754V33.774l.029-.012a1.183,1.183,0,0,0,.687-1.081V29.723h1.568a6.092,6.092,0,0,1,6.085,6.085v1.339A.716.716,0,0,0,97.526,37.863Zm-5.71-20.149h.626a1.174,1.174,0,0,1,1.172,1.173v1.258a1.174,1.174,0,0,1-1.172,1.173h-.626ZM79.473,4.511a3.082,3.082,0,0,1,3.079-3.079h2.212a3.082,3.082,0,0,1,3.079,3.079v.1a8.531,8.531,0,0,0-1.9-.216H81.375a8.545,8.545,0,0,0-1.9.214v-.1ZM75.5,21.318h-.626A1.174,1.174,0,0,1,73.7,20.145V18.887a1.174,1.174,0,0,1,1.173-1.173H75.5ZM64.841,43.227V47.46h-2.39a.019.019,0,0,1-.019-.019V43.246a.019.019,0,0,1,.019-.019ZM69.9,33.091a1.5,1.5,0,0,1,1.487,1.355H68.409A1.5,1.5,0,0,1,69.9,33.091Zm3.158,2.788v.955H66.738v-.955ZM87.008,34.7l-3.351,4.109L80.307,34.7V33.676a1.219,1.219,0,0,0,.1-.077l2.516-2.09a1.185,1.185,0,0,0,.731.25h0a1.181,1.181,0,0,0,.871-.38l2.48,2.06Zm-7.121-2.524V27.765a6.43,6.43,0,0,0,.828.224l1.4,2.331Zm2.574-4.06h2.393l-1.2,1.99Zm5.263,4.06L85.3,30.156l1.3-2.168a6.423,6.423,0,0,0,1.124-.333Zm-2.387-5.492h-3.36a5.052,5.052,0,0,1-5.047-5.047v-4.74a.327.327,0,0,1,.326-.326h3.121a5.115,5.115,0,0,0,4.606-2.855.329.329,0,0,1,.294-.187h4.779a.327.327,0,0,1,.327.326v7.782A5.052,5.052,0,0,1,85.338,26.681Z" transform="translate(-61 0)" fill="#233743"/>
    </g>
  </g>
</svg>
