<svg xmlns="http://www.w3.org/2000/svg" xmlns:xlink="http://www.w3.org/1999/xlink" width="50.929" height="50.929" viewBox="0 0 50.929 50.929"><defs><style>.a{fill:#01e9a1;}.b{filter:url(#a);}</style><filter id="a" x="0" y="0" width="50.929" height="50.929" filterUnits="userSpaceOnUse"><feOffset dy="3" input="SourceAlpha"/><feGaussianBlur stdDeviation="3" result="b"/><feFlood flood-opacity="0.161"/><feComposite operator="in" in2="b"/><feComposite in="SourceGraphic"/></filter></defs><g class="b" transform="matrix(1, 0, 0, 1, 0, 0)"><path class="a" d="M28.105,0H4.824A4.829,4.829,0,0,0,0,4.824V28.105a4.829,4.829,0,0,0,4.824,4.824h9.712V21.288H10.676V15.5h3.859V11.577a5.8,5.8,0,0,1,5.788-5.788h5.853v5.788H20.323V15.5h5.853l-.965,5.788H20.323V32.929h7.782a4.829,4.829,0,0,0,4.824-4.824V4.824A4.829,4.829,0,0,0,28.105,0Zm0,0" transform="translate(9 6)"/></g></svg>