<svg xmlns="http://www.w3.org/2000/svg" width="81.999" height="82" viewBox="0 0 81.999 82"><defs><style>.a{fill:#fff;}.b{fill:#01e9a1;}</style></defs><g transform="translate(-0.003 0)"><path class="a" d="M381.434,29.889a1.192,1.192,0,0,0,1.2-1.182v-.038a1.2,1.2,0,0,0-2.4,0v.038A1.192,1.192,0,0,0,381.434,29.889Z" transform="translate(-319.335 -23.091)"/><path class="a" d="M337.872,39.972a1.2,1.2,0,0,0-1.626-.437,1.18,1.18,0,0,0-.44,1.616,1.216,1.216,0,0,0,1.645.47,1.18,1.18,0,0,0,.44-1.616Z" transform="translate(-281.89 -33.07)"/><path class="a" d="M304.815,72.172l-.033-.019a1.176,1.176,0,0,0-1.617.442,1.209,1.209,0,0,0,.436,1.639,1.2,1.2,0,0,0,1.65-.423A1.209,1.209,0,0,0,304.815,72.172Z" transform="translate(-254.477 -60.462)"/><path class="a" d="M292.28,116.548a1.211,1.211,0,0,0-1.22,1.2,1.2,1.2,0,1,0,1.22-1.2Z" transform="translate(-244.443 -97.882)"/><path class="a" d="M457.846,163.223a1.2,1.2,0,0,0,1.65-.423,1.211,1.211,0,0,0-.436-1.64l-.033-.019a1.175,1.175,0,0,0-1.617.442A1.21,1.21,0,0,0,457.846,163.223Z" transform="translate(-384.02 -135.199)"/><path class="a" d="M469.168,117.749a1.192,1.192,0,0,0,1.182,1.2h.038a1.2,1.2,0,0,0,0-2.4h-.038A1.192,1.192,0,0,0,469.168,117.749Z" transform="translate(-394.027 -97.882)"/><path class="a" d="M458.438,74.394a1.268,1.268,0,0,0,.622-.178,1.2,1.2,0,0,0,.436-1.627,1.181,1.181,0,0,0-1.617-.439l-.033.019a1.2,1.2,0,0,0-.436,1.627A1.182,1.182,0,0,0,458.438,74.394Z" transform="translate(-384.02 -60.462)"/><path class="a" d="M425.3,41.622a1.216,1.216,0,0,0,1.645-.47,1.179,1.179,0,0,0-.44-1.616,1.2,1.2,0,0,0-1.627.437l-.019.033A1.179,1.179,0,0,0,425.3,41.622Z" transform="translate(-356.681 -33.072)"/><path class="a" d="M388.074,70.037a1.2,1.2,0,0,0-1.2-1.2h-4.238V60.93a1.2,1.2,0,0,0-2.4,0v9.107a1.2,1.2,0,0,0,1.2,1.2h5.439A1.2,1.2,0,0,0,388.074,70.037Z" transform="translate(-319.335 -50.17)"/><path class="b" d="M89.53,216.675l3.566-3.559c1.064-1.062-.585-2.811-1.7-1.7l-3.566,3.559A1.2,1.2,0,1,0,89.53,216.675Z" transform="translate(-73.423 -177.258)"/><path class="b" d="M98.867,211.415,88.073,222.189a1.2,1.2,0,0,0,1.7,1.7l10.794-10.773C101.628,212.054,99.98,210.305,98.867,211.415Z" transform="translate(-73.663 -177.258)"/><path class="b" d="M81.04,45.814c-.433-1.7-2.666-.479-3.573-.088a46.536,46.536,0,0,0-3.116-10.2C89.154,23.953,80.92.03,62.1,0,49.377-.166,39.585,12.354,42.775,24.632H9.2A4.372,4.372,0,0,0,4.836,29v6.14a1.2,1.2,0,0,0,2.4,0V29A1.967,1.967,0,0,1,9.2,27.035h51.35A1.967,1.967,0,0,1,62.518,29V39.86l-.038.12a17.322,17.322,0,0,0-2.314-2.035V30.578a1.2,1.2,0,0,0-1.2-1.2H10.791a1.2,1.2,0,0,0-1.2,1.2v28.69H7.239V41.992a1.2,1.2,0,0,0-2.4,0V59.268H3.548a3.546,3.546,0,0,0,0,7.091H55.8a19,19,0,0,0,2.432,3.724v4.169A7.757,7.757,0,0,0,65.98,82h3.459a7.757,7.757,0,0,0,7.749-7.749V70.06a19.3,19.3,0,0,0,3.077-5.346,1.2,1.2,0,0,0-2.241-.864,16.969,16.969,0,0,1-2.6,4.57H67.647c-.384-8.485,2.942-17.449,11.334-20.722A36.627,36.627,0,0,1,79.4,58.012a1.2,1.2,0,0,0,2.387.27,38.253,38.253,0,0,0-.75-12.468ZM60.553,24.632H45.259C42.011,13.729,50.683,2.235,62.1,2.4c16.275.01,23.687,20.5,11.2,30.881a32.169,32.169,0,0,0-3.168-5.174,1.212,1.212,0,0,0-1.928.068,43.1,43.1,0,0,0-3.282,5.647V29A4.373,4.373,0,0,0,60.553,24.632ZM11.993,31.779H57.764v7.65a36.726,36.726,0,0,0-4.223,12.315,26.35,26.35,0,0,0,.015,7.524H11.993ZM3.548,63.957a1.143,1.143,0,0,1,0-2.287H54.042a23.429,23.429,0,0,0,.712,2.287Zm71.236,6.866v3.429A5.352,5.352,0,0,1,69.438,79.6H65.98a5.352,5.352,0,0,1-5.346-5.346V70.823ZM66.2,59.4a31.2,31.2,0,0,0-.955,9.02H59.974c-5.779-6.926-5.455-18.3-.183-27.688,1.9,1.705,5.961,6.11,8.1,14.1A23.9,23.9,0,0,0,66.2,59.4Zm3.372-7.355a32.736,32.736,0,0,0-5.219-9.922A42.566,42.566,0,0,1,69.222,31a42.887,42.887,0,0,1,6.005,15.86,18.47,18.47,0,0,0-5.66,5.183Z" transform="translate(0 0)"/></g></svg>