<svg id="Group_9299" data-name="Group 9299" xmlns="http://www.w3.org/2000/svg" width="68.917" height="68.917" viewBox="0 0 68.917 68.917">
  <g id="Group_5919" data-name="Group 5919" transform="translate(0 0)">
    <g id="dentist_3_" data-name="dentist (3)" transform="translate(0 0)">
      <g id="Group_5911" data-name="Group 5911" transform="translate(0)">
        <g id="Group_5910" data-name="Group 5910">
          <g id="Group_5909" data-name="Group 5909">
            <g id="Group_5908" data-name="Group 5908">
              <g id="Group_5907" data-name="Group 5907">
                <g id="Group_5906" data-name="Group 5906">
                  <g id="Group_5905" data-name="Group 5905">
                    <g id="Group_5904" data-name="Group 5904">
                      <circle id="Ellipse_367" data-name="Ellipse 367" cx="34.426" cy="34.426" r="34.426" fill="#8394e5"/>
                    </g>
                  </g>
                </g>
              </g>
            </g>
          </g>
        </g>
      </g>
      <path id="Path_6776" data-name="Path 6776" d="M214.963,135.792q0-1.359-.1-2.693l-30.146-8.952-1.37,9.582-18.427,18.977,14.731,17.565q.412.01.826.01A34.49,34.49,0,0,0,214.963,135.792Z" transform="translate(-146.046 -101.366)" fill="#6672af"/>
    </g>
  </g>
  <g id="receptionist_1_" data-name="receptionist (1)" transform="translate(12.544 14.307)">
    <path id="Path_6798" data-name="Path 6798" d="M203.359,139s-.006,0-.009,0h-7.533s-.006,0-.009,0A2,2,0,0,0,194,141.015v8.071h11.167v-8.071A2,2,0,0,0,203.359,139Z" transform="translate(-177.701 -130.299)" fill="#fb6771"/>
    <path id="Path_6799" data-name="Path 6799" d="M240.957,159.031l.9,4.348-1.548,1.218-1.548-1.218.9-4.349Z" transform="translate(-218.43 -148.525)" fill="#7ce5e9"/>
    <path id="Path_6800" data-name="Path 6800" d="M245.468,139.45v.05l-.505,1.714h-1.3l-.505-1.714v-.05Z" transform="translate(-222.434 -130.708)" fill="#53d8d8"/>
    <path id="Path_6801" data-name="Path 6801" d="M110.18,223.47h3.169v2.6H110.18Z" transform="translate(-101.429 -207.162)" fill="#494b53"/>
    <path id="Path_6802" data-name="Path 6802" d="M428.5,244.36a9.536,9.536,0,0,0-.947,6.673,7.631,7.631,0,0,0-.945,1,6.392,6.392,0,0,0-.954-2.827S425.765,245.575,428.5,244.36Z" transform="translate(-388.49 -226.171)" fill="#9be147"/>
    <path id="Path_6803" data-name="Path 6803" d="M387.922,279.067a8.563,8.563,0,0,0-1.587,3.4s0-.348-.046-.9c-.143-1.966-.736-6.535-3.149-7.5a4.931,4.931,0,0,1,3.828,2.17A6.394,6.394,0,0,1,387.922,279.067Z" transform="translate(-349.808 -253.205)" fill="#c6e02d"/>
    <ellipse id="Ellipse_369" data-name="Ellipse 369" cx="3.407" cy="3.401" rx="3.407" ry="3.401" transform="translate(18.473 0.54)" fill="#ffd8b7"/>
    <path id="Path_6804" data-name="Path 6804" d="M18.865,251l.022,2.882H48.775V251Z" transform="translate(-18.338 -232.213)" fill="#ffd8b7"/>
    <path id="Path_6805" data-name="Path 6805" d="M61.93,282.86V299H34.88V282.86Z" transform="translate(-32.911 -261.204)" fill="#c79a83"/>
    <path id="Path_6806" data-name="Path 6806" d="M108.18,334.538v2.979h-4.939a3.889,3.889,0,0,1-7.013,0H91.29v-2.979h4.939a3.888,3.888,0,0,1,7.013,0Z" transform="translate(-84.24 -306.218)" fill="#cae6ee"/>
    <path id="Path_6807" data-name="Path 6807" d="M393.865,404.37l-.7,5.336H388.6l-.7-5.336Z" transform="translate(-354.139 -371.771)" fill="#3090fc"/>
    <path id="Path_6808" data-name="Path 6808" d="M418.059,299.35a7.653,7.653,0,0,1,.945-1,8.918,8.918,0,0,1,4.166-1.99,9.267,9.267,0,0,0-4.462,8.107H416.26a7.881,7.881,0,0,1,.212-1.713A8.563,8.563,0,0,1,418.059,299.35Z" transform="translate(-379.945 -273.488)" fill="#50dd5a"/>
    <path id="Path_6809" data-name="Path 6809" d="M377.09,324.991c.041.556.046.9.046.9a7.873,7.873,0,0,0-.212,1.713H375.7a8.55,8.55,0,0,0-2.675-5.817,5.314,5.314,0,0,1,4.039,3.2Z" transform="translate(-340.608 -296.628)" fill="#81c83d"/>
    <path id="Path_6810" data-name="Path 6810" d="M378,386h7.745v1.711H378Z" transform="translate(-345.131 -355.055)" fill="#43a2ff"/>
    <path id="Path_6811" data-name="Path 6811" d="M21.567,251h-2.7l.022,2.882,2.7-.013Z" transform="translate(-18.338 -232.213)" fill="#e0b699"/>
    <path id="Path_6812" data-name="Path 6812" d="M34.88,282.86V299h2.7V282.873Z" transform="translate(-32.911 -261.204)" fill="#b2826d"/>
    <path id="Path_6813" data-name="Path 6813" d="M390.685,405h-2.7l.691,5.279h2.7Z" transform="translate(-354.215 -372.344)" fill="#1581d1"/>
    <path id="Path_6814" data-name="Path 6814" d="M378,386h2.7v1.711H378Z" transform="translate(-345.131 -355.055)" fill="#3093d6"/>
    <path id="Path_6815" data-name="Path 6815" d="M195.817,139s-.006,0-.009,0A2,2,0,0,0,194,141.015v8.071h2.7v-8.071A2,2,0,0,1,198.51,139s.006,0,.009,0Z" transform="translate(-177.701 -130.299)" fill="#db4d65"/>
    <path id="Path_6816" data-name="Path 6816" d="M192.3,224.012c.025,0,.05-.008.075-.012h-.218A1.1,1.1,0,0,0,192.3,224.012Z" transform="translate(-176.027 -207.644)" fill="#7d8696"/>
    <path id="Path_6817" data-name="Path 6817" d="M63.711,129h-11.6A1.129,1.129,0,0,0,51,130.146v6.312a1.088,1.088,0,0,0,1.116,1.1h11.6a1.11,1.11,0,0,0,.143.012,1.128,1.128,0,0,0,1.014-1.109v-6.312A1.163,1.163,0,0,0,63.711,129Z" transform="translate(-47.577 -121.199)" fill="#7d8696"/>
    <path id="Path_6818" data-name="Path 6818" d="M119.279,167.14a.84.84,0,1,1-.839.84A.84.84,0,0,1,119.279,167.14Z" transform="translate(-108.946 -155.905)" fill="#fff655"/>
    <path id="Path_6819" data-name="Path 6819" d="M53.7,136.458v-6.312A1.129,1.129,0,0,1,54.816,129h-2.7A1.129,1.129,0,0,0,51,130.146v6.312a1.088,1.088,0,0,0,1.116,1.1h2.7a1.088,1.088,0,0,1-1.116-1.1Z" transform="translate(-47.577 -121.199)" fill="#61687a"/>
    <g id="Group_5920" data-name="Group 5920">
      <path id="Path_6820" data-name="Path 6820" d="M43.459,133.987H41.016v-7.53a2.531,2.531,0,0,0-2.489-2.556H31.252a2.3,2.3,0,0,0-.575.076A1.708,1.708,0,0,0,29.143,123h-11.6a1.668,1.668,0,0,0-1.656,1.687V131a1.626,1.626,0,0,0,1.656,1.637H21.2v1.351H13.55a.57.57,0,0,0-.54.567l.009,2.846a.549.549,0,0,0,.54.549h.891v15.587a.524.524,0,0,0,.53.532h27.05a.515.515,0,0,0,.518-.532V137.949h.912a.542.542,0,0,0,.529-.553V134.56A.56.56,0,0,0,43.459,133.987Zm-8.123-9.006-.2.7-.49-.01-.2-.693Zm-.655,1.8H35.1l.742,3.59-.951.749-.951-.748Zm-4.832,5.721A1.648,1.648,0,0,0,30.84,131v-5.946a1.3,1.3,0,0,1,.412-.071h2.065l.368,1.268-.874,4.224a.549.549,0,0,0,.195.539l1.548,1.221a.539.539,0,0,0,.668,0l1.548-1.218a.54.54,0,0,0,.195-.534l-.871-4.232.369-1.271h2.064a1.45,1.45,0,0,1,1.408,1.475v7.53H29.849Zm-12.3-.951a.545.545,0,0,1-.575-.556v-6.312a.586.586,0,0,1,.575-.606h11.6a.621.621,0,0,1,.616.606V131a.612.612,0,0,1-.536.594s-.013-.02-.018-.019-.041-.018-.062-.018Zm11.222,1.081v1.351H25.437v-1.351Zm-4.413,0v1.351H22.285v-1.351Zm18.551,4.233H21.43a.54.54,0,0,0,0,1.081H41.466v15.039H15.531V137.949h2.923a.54.54,0,0,0,0-1.081H14.1l-.006-1.8H42.907Z" transform="translate(-13.01 -115.74)" fill="#233743"/>
      <path id="Path_6821" data-name="Path 6821" d="M85.566,332.741H90.18a4.428,4.428,0,0,0,7.662,0h4.614a.558.558,0,0,0,.555-.547v-2.979a.542.542,0,0,0-.555-.527H97.843a4.428,4.428,0,0,0-7.662,0H85.566a.552.552,0,0,0-.566.527v2.979A.569.569,0,0,0,85.566,332.741Zm.514-2.972h4.424a.546.546,0,0,0,.487-.313,3.344,3.344,0,0,1,6.038,0,.545.545,0,0,0,.488.313h4.413v1.891H97.518a.537.537,0,0,0-.487.3,3.35,3.35,0,0,1-6.038,0,.538.538,0,0,0-.487-.3H86.081Z" transform="translate(-78.517 -300.895)" fill="#233743"/>
      <path id="Path_6822" data-name="Path 6822" d="M216.087,50.263a3.942,3.942,0,1,0-3.947-3.942A3.942,3.942,0,0,0,216.087,50.263Zm0-6.8a2.861,2.861,0,1,1-2.866,2.861A2.861,2.861,0,0,1,216.087,43.461Z" transform="translate(-194.207 -42.38)" fill="#233743"/>
      <path id="Path_6823" data-name="Path 6823" d="M57.54,324.69a.54.54,0,0,0-.54.54v6.177a.54.54,0,1,0,1.081,0V325.23A.54.54,0,0,0,57.54,324.69Z" transform="translate(-53.038 -299.267)" fill="#233743"/>
      <path id="Path_6824" data-name="Path 6824" d="M57.54,300.37a.54.54,0,0,0-.54.54v.509a.54.54,0,0,0,1.081,0v-.509A.54.54,0,0,0,57.54,300.37Z" transform="translate(-53.038 -277.137)" fill="#233743"/>
      <path id="Path_6825" data-name="Path 6825" d="M113.811,161.14a1.38,1.38,0,1,0,1.38,1.381A1.38,1.38,0,0,0,113.811,161.14Zm0,1.68a.3.3,0,1,1,.3-.3A.3.3,0,0,1,113.811,162.819Z" transform="translate(-103.477 -150.445)" fill="#233743"/>
      <path id="Path_6826" data-name="Path 6826" d="M378.267,243.05a9.845,9.845,0,0,0-3.652,1.524,8.847,8.847,0,0,1,1-5.379.54.54,0,0,0-.669-.794A5.207,5.207,0,0,0,372.2,241.6a7.967,7.967,0,0,0-.252.885,5.272,5.272,0,0,0-1.027-.753,5.546,5.546,0,0,0-2.437-.7h0a.543.543,0,0,0-.2,1.047c1.374.548,2.078,2.619,2.427,4.259.046.214.086.426.122.634a5.224,5.224,0,0,0-3.192-1.632.539.539,0,0,0-.565.326.516.516,0,0,0,.16.615,7.882,7.882,0,0,1,2.408,4.837h-1.619a.574.574,0,0,0-.544.574v1.71a.516.516,0,0,0,.544.507h.415l.636,4.811a.57.57,0,0,0,.535.5h4.567a.571.571,0,0,0,.536-.5l.636-4.811h.415a.513.513,0,0,0,.54-.507v-1.71a.571.571,0,0,0-.54-.574h-1.314a8.172,8.172,0,0,1,2-5.186,8.841,8.841,0,0,1,2.184-1.882.536.536,0,0,0-.373-.993Zm-4.442-2.32a11.065,11.065,0,0,0-.195,4.645l-.027.026a6.455,6.455,0,0,0-.738-1.8A6.521,6.521,0,0,1,373.825,240.73Zm-3.277,2.033a4.806,4.806,0,0,1,2.154,3.66,8.494,8.494,0,0,0-.688,1.089c-.061-.437-.14-.908-.242-1.389A10.681,10.681,0,0,0,370.549,242.762Zm-1.26,4.288a5.529,5.529,0,0,1,1.818,2.2c.021.321.03.539.032.643a10.46,10.46,0,0,0-.187,1.214h-.217a10.063,10.063,0,0,0-1.446-4.06Zm4.418,11.084h-3.621l-.555-4.233h4.731Zm1.52-5.944v.63h-6.664v-.63Zm.432-7a9.328,9.328,0,0,0-2.288,5.918h-1.334a8.96,8.96,0,0,1,.736-2.716,7.166,7.166,0,0,1,2.947-3.273Z" transform="translate(-335.153 -220.706)" fill="#233743"/>
    </g>
  </g>
</svg>
