<svg id="Group_1923" data-name="Group 1923" xmlns="http://www.w3.org/2000/svg" xmlns:xlink="http://www.w3.org/1999/xlink" width="41.991" height="17.997" viewBox="0 0 41.991 17.997">
  <defs>
    <linearGradient id="linear-gradient" x1="-0.852" y1="0.401" x2="1.711" y2="0.589" gradientUnits="objectBoundingBox">
      <stop offset="0" stop-color="#fff"/>
      <stop offset="0.008" stop-color="#01ea9e"/>
      <stop offset="1" stop-color="#03bfff"/>
    </linearGradient>
    <linearGradient id="linear-gradient-3" x1="-0.002" y1="0.431" x2="0.993" y2="0.601" xlink:href="#linear-gradient"/>
  </defs>
  <circle id="Ellipse_325" data-name="Ellipse 325" cx="3.286" cy="3.286" r="3.286" transform="translate(7.458 1.864)" fill="url(#linear-gradient)"/>
  <circle id="Ellipse_326" data-name="Ellipse 326" cx="3.286" cy="3.286" r="3.286" transform="translate(27.737 1.864)" fill="url(#linear-gradient)"/>
  <path id="Path_6609" data-name="Path 6609" d="M540.051,79.12a1.722,1.722,0,0,1,2.29.392c1.249,1.567,4.136,4.927,6.146,5.214a6.268,6.268,0,0,0,6.384-2.629c1.878-2.816,3.568-7.135,3.943-7.7s2.253-1.315,3.38,1.314,3.755,7.886,6.572,8.825c1.5.376,4.882.751,7.886-3.38,1.4-1.755,2.316-3.346,3.962-2.013a1.952,1.952,0,0,1,.609.831c.264.713.264,1.98-2.693,3.247-3,2.253-5.821,4.506-6.947,7.135-.481.8-1.51,2.288-3.438.95a4.711,4.711,0,0,1-1.472-1.7c-1.8-3.434-4.923-10.532-5.793-10.706-.939-.188-1.5,0-3,2.629-1.5,3.38-3.755,8.637-5.069,9.576s-2.629.939-3.568-.564a24.236,24.236,0,0,0-3.755-4.694c-1.127-.939-5.336-3.646-5.633-3.943C539.474,81.533,538.825,79.946,540.051,79.12Z" transform="translate(-539.339 -73.849)" fill="url(#linear-gradient-3)"/>
</svg>
