<svg xmlns="http://www.w3.org/2000/svg" xmlns:xlink="http://www.w3.org/1999/xlink" width="20.291" height="29.226" viewBox="0 0 20.291 29.226">
  <defs>
    <linearGradient id="linear-gradient" x1="-0.673" y1="0.457" x2="8.392" y2="0.918" gradientUnits="objectBoundingBox">
      <stop offset="0.221" stop-color="#01bdfd"/>
      <stop offset="1" stop-color="#457ae6"/>
    </linearGradient>
  </defs>
  <g id="Group_1924" data-name="Group 1924" transform="translate(0 -0.606)">
    <path id="Path_6610" data-name="Path 6610" d="M566.826,123.512v13.013A65.982,65.982,0,0,1,573.5,128.6a5.594,5.594,0,0,1,4.325-1.415h3.112v.2a114.689,114.689,0,0,0-8.852,9.9c1.738,2.143,3.435,4.368,5.375,6.349,1.981,1.978,2.87,2.383,4.2,2.827a3.333,3.333,0,0,1-3.679,2.669,5.307,5.307,0,0,1-3.557-1.5,93.005,93.005,0,0,1-7.6-9.294v10.63l-1.738.04c-2.506.039-3.718-1.294-3.718-3.841V119.911h1.738C565.735,119.911,566.826,121.409,566.826,123.512Z" transform="translate(-561.37 -119.305)" fill="url(#linear-gradient)"/>
  </g>
</svg>
