<svg xmlns="http://www.w3.org/2000/svg" width="91.251" height="57.03" viewBox="0 0 91.251 57.03">
  <g id="hand-shake_1_" data-name="hand-shake (1)" transform="translate(0 -96.003)">
    <g id="Group_6574" data-name="Group 6574" transform="translate(13.303 100.041)">
      <g id="Group_6573" data-name="Group 6573" transform="translate(0 0)">
        <path id="Path_7430" data-name="Path 7430" d="M133.39,153.724c-1.791-3.734-8.2-8.916-14.387-13.923-3.452-2.791-6.715-5.429-8.794-7.509a1.9,1.9,0,0,0-1.988-.445c-1.281.464-2.072.821-2.7,1.1a6.287,6.287,0,0,1-2.551.7,1.9,1.9,0,0,0-1.392.833c-2.688,4.019-5.471,3.677-7.331,3.053-.593-.2-.7-.453-.757-.7-.4-1.669,1.6-5.555,4.2-8.152,6.179-6.182,9.365-7.73,16.094-4.722,7.635,3.414,15.285,6.087,15.361,6.114a1.9,1.9,0,1,0,1.251-3.593c-.076-.027-7.574-2.646-15.056-6-8.718-3.9-13.5-1.331-20.334,5.506-2.6,2.6-6.133,7.863-5.22,11.722a4.7,4.7,0,0,0,3.266,3.426c4.308,1.422,8.239.061,11.167-3.825a9.6,9.6,0,0,0,2.855-.9c.357-.16.776-.346,1.331-.57,2.175,2.042,5.11,4.418,8.2,6.916,5.589,4.521,11.927,9.646,13.353,12.612a2.228,2.228,0,0,1-.567,2.855,2.1,2.1,0,0,1-2.342.46,1.9,1.9,0,0,0-2.969,1.768,2.3,2.3,0,0,1-1.456,2.141,2.918,2.918,0,0,1-2.962.068,1.9,1.9,0,0,0-3.19,1.213,3.612,3.612,0,0,1-2.243,2.912,2,2,0,0,1-2.182-.338,1.923,1.923,0,0,0-1.738-.441,1.9,1.9,0,0,0-1.335,1.2c-.072.19-.236.646-2.015.646a10.947,10.947,0,0,1-4.658-1.593c-1.335-.878-9.7-7.121-16.931-13.174-1.015-.856-2.772-2.688-4.323-4.308-1.376-1.437-2.635-2.741-3.281-3.289a1.9,1.9,0,0,0-2.456,2.9c.589.5,1.73,1.7,2.988,3.015,1.7,1.772,3.448,3.6,4.627,4.593,7.08,5.928,15.589,12.327,17.284,13.44a14.586,14.586,0,0,0,6.749,2.213,6.543,6.543,0,0,0,4.315-1.27,5.918,5.918,0,0,0,4.323-.046,7.489,7.489,0,0,0,3.958-3.654,7.352,7.352,0,0,0,4.772-.688,6.45,6.45,0,0,0,3.175-3.315,6.217,6.217,0,0,0,4.361-1.563A6.044,6.044,0,0,0,133.39,153.724Z" transform="translate(-74.642 -118.658)" fill="#fff"/>
      </g>
    </g>
    <g id="Group_6576" data-name="Group 6576" transform="translate(19.011 103.606)">
      <g id="Group_6575" data-name="Group 6575">
        <path id="Path_7431" data-name="Path 7431" d="M125.677,138.663h-17.11a1.9,1.9,0,0,0,0,3.8h17.11a1.9,1.9,0,1,0,0-3.8Z" transform="translate(-106.666 -138.663)" fill="#fff"/>
      </g>
    </g>
    <g id="Group_6578" data-name="Group 6578" transform="translate(68.583 130.218)">
      <g id="Group_6577" data-name="Group 6577">
        <path id="Path_7432" data-name="Path 7432" d="M393.848,288.821a1.9,1.9,0,0,0-2.639-.517l-5.559,3.734a1.9,1.9,0,0,0,2.122,3.156l5.559-3.734A1.9,1.9,0,0,0,393.848,288.821Z" transform="translate(-384.811 -287.977)" fill="#fff"/>
      </g>
    </g>
    <g id="Group_6580" data-name="Group 6580" transform="translate(51.331 128.318)">
      <g id="Group_6579" data-name="Group 6579">
        <path id="Path_7433" data-name="Path 7433" d="M302.5,289.133c-1.361-1.072-7.448-7.3-11.212-11.228a1.9,1.9,0,0,0-2.745,2.631c.977,1.019,9.6,10,11.6,11.585a1.893,1.893,0,0,0,1.175.407,1.921,1.921,0,0,0,1.5-.726A1.9,1.9,0,0,0,302.5,289.133Z" transform="translate(-288.016 -277.317)" fill="#fff"/>
      </g>
    </g>
    <g id="Group_6582" data-name="Group 6582" transform="translate(45.626 134.025)">
      <g id="Group_6581" data-name="Group 6581" transform="translate(0 0)">
        <path id="Path_7434" data-name="Path 7434" d="M268.6,319.259c-2.278-1.821-8-7.9-9.292-9.308a1.9,1.9,0,0,0-2.8,2.574c.068.072,6.9,7.445,9.718,9.7a1.9,1.9,0,0,0,2.376-2.97Z" transform="translate(-256.005 -309.337)" fill="#fff"/>
      </g>
    </g>
    <g id="Group_6584" data-name="Group 6584" transform="translate(38.023 137.822)">
      <g id="Group_6583" data-name="Group 6583">
        <path id="Path_7435" data-name="Path 7435" d="M225.976,340.6c-2.711-2.285-8.258-8.19-9.342-9.349a1.9,1.9,0,1,0-2.779,2.6c1.559,1.669,6.867,7.3,9.669,9.661a1.9,1.9,0,0,0,2.452-2.909Z" transform="translate(-213.343 -330.644)" fill="#fff"/>
      </g>
    </g>
    <g id="Group_6586" data-name="Group 6586" transform="translate(0 96.003)">
      <g id="Group_6585" data-name="Group 6585" transform="translate(0 0)">
        <path id="Path_7436" data-name="Path 7436" d="M22.22,100.325c-3.258-3.087-16.288-4.087-20.2-4.319A1.9,1.9,0,0,0,0,97.9v34.219a1.9,1.9,0,0,0,1.9,1.9H13.307a1.9,1.9,0,0,0,1.806-1.312c.277-.852,6.829-20.957,7.692-30.843A1.891,1.891,0,0,0,22.22,100.325Zm-10.3,29.9H3.8V99.941c6.11.483,12.7,1.532,15.1,2.7C17.893,110.964,13.334,125.758,11.92,130.221Z" transform="translate(0 -96.003)" fill="#fff"/>
      </g>
    </g>
    <g id="Group_6588" data-name="Group 6588" transform="translate(64.704 99.804)">
      <g id="Group_6587" data-name="Group 6587">
        <path id="Path_7437" data-name="Path 7437" d="M387.692,117.33c-14.927,0-23.208,3.821-23.554,3.981a1.892,1.892,0,0,0-1.015,1.183,1.917,1.917,0,0,0,.209,1.544c2.35,3.783,9.707,24.794,11.121,29.919a1.9,1.9,0,0,0,1.833,1.4h11.406a1.9,1.9,0,0,0,1.9-1.9V119.231A1.9,1.9,0,0,0,387.692,117.33Zm-1.9,34.219h-8.083c-1.8-5.871-7.125-21.178-10.095-27.5a61.92,61.92,0,0,1,18.178-2.89Z" transform="translate(-363.046 -117.33)" fill="#fff"/>
      </g>
    </g>
  </g>
</svg>
