<svg xmlns="http://www.w3.org/2000/svg" width="447.487" height="311.708" viewBox="0 0 447.487 311.708"><defs><style>.a{fill:#04bbfd;}.b{opacity:0.6;}.c{fill:#f4f4f4;}.d{fill:#ff8f78;}.e{fill:#fff;}.f{fill:#d2d2d2;}.g{fill:#01e9a1;}.h{fill:#ffe585;}.i{fill:#102d37;}.j{fill:#2b6c84;}</style></defs><g transform="translate(-720.56 -358.495)"><g transform="translate(860.316 413.731)"><g transform="translate(6.787 123.162)"><path class="a" d="M1588.54,1253.73a18.7,18.7,0,0,1-17.094,11.1h-13.183l-46.921-30.029-66.6-10.36-3.56,14.6a23.209,23.209,0,0,1-15.894,16.941,16.141,16.141,0,0,1-9.21.262l-18.765-2.463L1409,1232.253l16.052-65.473a29.415,29.415,0,0,1,17.971-20.5L1479.883,1132l54.919,7.26a29,29,0,0,1,23.322,18.506l30.832,81.747A18.739,18.739,0,0,1,1588.54,1253.73Z" transform="translate(-1387.774 -1132)"/><path d="M1369.5,1551.138c3.392-1.271,19.67-.817,24.084,12.16,2.354,6.921-1.631,14.38-8.327,16.082C1360.525,1585.666,1342.255,1572.906,1369.5,1551.138Z" transform="translate(-1355.944 -1454.105)"/><path class="a" d="M1594.816,1323.286l-.155,82.106h117.164L1682,1314.675Z" transform="translate(-1539.605 -1272.544)"/><g class="b" transform="translate(27.327 6.83)"><path class="c" d="M1978.2,1161.615a15.177,15.177,0,0,0,.427,7.966c2.164,6.406,8.293,11.444,16,13.152a31.25,31.25,0,0,0,6.8.723,39.154,39.154,0,0,0,4.35-.26l-.341-.9a32.619,32.619,0,0,1-10.609-.46c-7.39-1.637-13.261-6.444-15.322-12.546a14.3,14.3,0,0,1-.4-7.551Z" transform="translate(-1861.75 -1161.615)"/><path class="c" d="M1525.573,1214.252a22.215,22.215,0,0,0,3.365-20.383l-.03.012c-.279.108-.548.232-.823.348a20.628,20.628,0,0,1-18.919,27.372l-.226.922A22.233,22.233,0,0,0,1525.573,1214.252Z" transform="translate(-1500.981 -1186.43)"/><path class="c" d="M1502.315,1469.856l-.6-.343c.031-.055.073-.106.105-.161l-.166-.138c-2.3,2.769-4.442,4.064-6.521,3.927-3.757-.226-6.889-5.088-9.652-9.378a37.943,37.943,0,0,0-4.007-5.536,11.269,11.269,0,0,0-6.822-3.254l-.22.9a10.354,10.354,0,0,1,6.38,3,37.3,37.3,0,0,1,3.893,5.393c2.882,4.474,6.148,9.545,10.371,9.8.114.007.226.011.34.011C1497.69,1474.073,1499.952,1472.688,1502.315,1469.856Z" transform="translate(-1474.43 -1387.314)"/><path class="c" d="M2052.692,1370.6a11.954,11.954,0,0,0-7.027,7.119c-.927,2.732-.76,5.65-.6,8.47.046.806.092,1.611.113,2.41.18,6.913-2.746,10.416-9.208,11.021a41.931,41.931,0,0,1-10.039-.682l-.135.911a54.4,54.4,0,0,0,8,.79c.75,0,1.5-.03,2.256-.1,6.95-.652,10.236-4.565,10.044-11.963-.022-.809-.068-1.623-.114-2.438-.156-2.733-.317-5.559.552-8.122a11.044,11.044,0,0,1,6.473-6.566Z" transform="translate(-1898.631 -1322.404)"/><path class="c" d="M1593.322,1474.6l.2.113c3.174-5.6,12.221-6.211,17.309-4.186,1.466.583,2.945,1.3,4.377,1.987,3.6,1.735,7.315,3.526,11.313,3.526q.422,0,.847-.027c5.2-.335,9.375-3.723,13.413-7,3.672-2.979,7.469-6.06,11.993-6.782,4.568-.736,9.141,1.029,13.4,3.038.515.243,1.031.491,1.547.739,3.784,1.817,7.7,3.7,11.94,4.051l.077-.919c-4.075-.341-7.909-2.183-11.617-3.963q-.778-.373-1.553-.741c-4.395-2.074-9.129-3.883-13.94-3.115-4.768.762-8.663,3.922-12.428,6.978-4.106,3.331-7.984,6.478-12.891,6.794-4.079.273-7.952-1.6-11.7-3.41-1.446-.7-2.94-1.417-4.437-2.013-7.53-2.994-15.637-.083-18.346,4.427-.033.054-.074.106-.106.161Z" transform="translate(-1565.437 -1392.063)"/></g><rect width="0.923" height="44.831" transform="translate(146.26 58.576) rotate(-18.807)"/><rect width="40.138" height="0.923" transform="translate(54.434 117.615) rotate(-88.88)"/><path d="M1744.168,1238.373a20.813,20.813,0,0,1-16.418-8.366l.728-.566a19.82,19.82,0,0,0,16.073,8.005,18.647,18.647,0,0,0,14.862-7.991l.751.537a19.569,19.569,0,0,1-15.594,8.377C1744.435,1238.372,1744.3,1238.373,1744.168,1238.373Z" transform="translate(-1641.998 -1206.968)"/></g><g transform="translate(0 219.486)"><path class="d" d="M1363.285,1553.368a8.259,8.259,0,0,1,1.214,13.123h0s-2.768,2.537-7.26,10.379c-1.633,2.842-6.329,2.915-5.535-.461,1.384-5.913,1.033-10.535-1.735-10.074s-10.489,11.227-13.718,11.919-2.306-3.921-2.306-3.921-2.076,4.152-4.843,4.613-5.461-2.971,4.151-17.3C1343.746,1546,1355.343,1548.471,1363.285,1553.368Z" transform="translate(-1326.518 -1549.644)"/><path d="M1357.786,1608.182l-.8-.463c3.459-5.959,6.921-11.542,11.216-14.375l.508.769C1364.584,1596.836,1361.188,1602.322,1357.786,1608.182Z" transform="translate(-1349.961 -1583.265)"/></g><g transform="translate(110.595 193.97)"><path class="e" d="M2069.391,1468.067l20.067-29.055-43.9,5.853-7.8,11.288Z" transform="translate(-1984.315 -1439.011)"/><g transform="translate(70.172 8.507)"><rect class="f" width="23.157" height="0.922" transform="matrix(0.547, -0.837, 0.837, 0.547, 7.392, 19.378)"/><rect class="f" width="18.361" height="0.923" transform="translate(0 17.53) rotate(-57.272)"/></g><path class="e" d="M1849.727,1467.108l41.388,22.575-46.2,33.027-38.88-19.858Z" transform="translate(-1806.04 -1460.628)"/><rect width="0.922" height="47.145" transform="translate(43.467 6.884) rotate(-61.389)"/></g><g transform="translate(158.53 228.838)"><path class="d" d="M2023.31,1615.088c10.3,6.072,23.735-.794,24.663-12.711a7.8,7.8,0,0,0-.846-4.67c-3.121-5.126-11.924-7.912-14.6-7.467s-3.9,3.12,2.006,7.912c0,0-9.918-8.135-13.261-7.466-2.274.455-.557,4.346-.557,4.346s-3.343-3.455-5.015-2.006c-2.225,1.928.111,5.683,1.226,7.689,0,0-3.466-1.477-3.009,1.226A19.072,19.072,0,0,0,2023.31,1615.088Z" transform="translate(-2013.876 -1590.194)"/><path d="M2056.009,1622.332a43.88,43.88,0,0,1-14.072-11.81l.735-.557a42.919,42.919,0,0,0,13.767,11.551Z" transform="translate(-2035.465 -1605.405)"/><path d="M2036.2,1646.5a62.025,62.025,0,0,1-10.687-11.333l.735-.557a61.1,61.1,0,0,0,10.526,11.168Z" transform="translate(-2022.825 -1624.362)"/></g><g transform="translate(87.123 65.964)"><path class="d" d="M1768.409,1045.085v24.033a12.055,12.055,0,0,1-12.056,12.02h-1.562a12.053,12.053,0,0,1-12.057-12.056v-24Z" transform="translate(-1733.862 -1007.933)"/><path d="M1785.3,1051.89v22.464c-9.106-.333-17.119-8.4-20.613-17.4Z" transform="translate(-1750.75 -1013.169)"/><path class="d" d="M1782.907,951.925a52.151,52.151,0,0,1-.48,7.1c-.018.1-.028.2-.046.3-.434,2.915-1.2,6.089-3.4,8.183-2.519,2.408-6.578,2.7-9.871,2.343-5.738-.618-12.362-3.782-15.471-8.856l-.729-20.61,4.705-12.113,24.051,8.312c.415,2.528.683,5.083.886,7.629S1782.916,949.351,1782.907,951.925Z" transform="translate(-1741.695 -918.068)"/><path d="M1715.551,914.522c.744-6.911,2.767-12.771,8.679-15.429,0,0,16.385,13.707,24.832,8.076,13.38-8.92-.482-22.3-10.969-17.84-7.848-8-17.84-6.389-19.045.844-18.591,2.336-17.237,11.693-9.041,23.988Z" transform="translate(-1704.269 -884)"/><ellipse class="d" cx="5.473" cy="6.897" rx="5.473" ry="6.897" transform="translate(1.74 29.414) rotate(-25.728)"/><path d="M1738.091,1018.159h-.923a4.624,4.624,0,0,0-1.382-3.64,1.965,1.965,0,0,0-1.677-.445l-.187-.9a2.88,2.88,0,0,1,2.446.632A5.521,5.521,0,0,1,1738.091,1018.159Z" transform="translate(-1727.083 -983.333)"/><path class="e" d="M1727.3,942.532c0-1.628-2.652-6.67-2.652-6.67S1722,940.9,1722,942.532a2.667,2.667,0,1,0,5.3,0Z" transform="translate(-1717.907 -923.901)"/></g></g><g transform="translate(1040.024 358.495)"><g transform="translate(0 0)"><path class="g" d="M2189.827,492.943a42.516,42.516,0,1,1-13.315-40.892A42.546,42.546,0,0,1,2189.827,492.943Z" transform="translate(-2105.7 -422.221)"/><path class="h" d="M2318.462,452.051l-28.26,31.83V441.325a42.67,42.67,0,0,1,28.26,10.726Z" transform="translate(-2247.649 -422.221)"/><g transform="translate(44.82)"><path class="h" d="M2329.661,405.363c-6.863-9.168-17.609-13.241-29.471-11.176l-.159-.909c12.04-2.1,23.4,2.215,30.369,11.532Z" transform="translate(-2300.031 -384.855)"/><path class="h" d="M2345.9,371.087a30.965,30.965,0,0,0-29.48-11.189l-.166-.908a31.883,31.883,0,0,1,30.361,11.516Z" transform="translate(-2312.51 -358.495)"/></g><path class="e" d="M2216.5,528.255a31.221,31.221,0,1,1-9.778-30.016A31.241,31.241,0,0,1,2216.5,528.255Z" transform="translate(-2143.421 -459.946)"/><path d="M2288.044,573.586l-1.451-.557V557.2h1.665v13.665l6.117-6.789,1.236,1.114Z" transform="translate(-2244.873 -511.369)"/><g transform="translate(41.673 32.992)"><rect width="1.665" height="3.606"/><rect width="1.665" height="3.606" transform="translate(0 53.813)"/></g><g transform="translate(13.845 60.827)"><rect width="3.606" height="1.664"/><rect width="3.605" height="1.664" transform="translate(53.813)"/></g></g></g><g transform="translate(810.465 539.352)"><g transform="translate(0)"><path class="c" d="M1169.787,1158.636a13.976,13.976,0,0,0-13.976-13.977h-29.467a13.976,13.976,0,1,0,0,27.953h27.787l3.869,8.775,4.664-10.578A13.964,13.964,0,0,0,1169.787,1158.636Z" transform="translate(-1111.907 -1144.199)"/><path d="M1156.462,1180.992l-4.17-9.456h-27.486a14.438,14.438,0,0,1,0-28.875h29.467a14.433,14.433,0,0,1,7.215,26.936Zm-31.656-37.409a13.515,13.515,0,0,0,0,27.031h28.088l3.568,8.092,4.3-9.76.134-.076a13.51,13.51,0,0,0-6.627-25.286Z" transform="translate(-1110.369 -1142.66)"/></g><g transform="translate(13.142 10.688)"><circle class="f" cx="3.344" cy="3.344" r="3.344"/><circle class="f" cx="3.344" cy="3.344" r="3.344" transform="translate(12.685)"/><circle class="f" cx="3.344" cy="3.344" r="3.344" transform="translate(25.37)"/></g></g><g transform="translate(1090.102 504.289)"><rect class="i" width="77.945" height="71.49" transform="translate(0 0)"/><rect class="j" width="9.456" height="9.456" transform="translate(9.263 10.826)"/><rect class="j" width="9.456" height="9.456" transform="translate(9.263 31.017)"/><rect class="j" width="9.456" height="9.456" transform="translate(9.263 51.208)"/><g transform="translate(31.788 12.479)"><rect class="e" width="34.595" height="0.923"/><rect class="e" width="23.525" height="0.923" transform="translate(0 5.228)"/></g><g transform="translate(31.788 32.67)"><rect class="e" width="34.595" height="0.923"/><rect class="e" width="14.915" height="0.923" transform="translate(0 5.228)"/></g><g transform="translate(31.787 52.861)"><rect class="e" width="34.595" height="0.923" transform="translate(0.002)"/><rect class="e" width="26.14" height="0.923" transform="matrix(1, -0.004, 0.004, 1, 0, 5.222)"/></g><path class="g" d="M2372.5,1026.426l-3.811-4.965,1.463-1.124,1.516,1.976a37.193,37.193,0,0,1,4.911-10.253l1.522,1.041a35.356,35.356,0,0,0-5.14,11.468Z" transform="translate(-2358.112 -1007.118)"/></g><g transform="translate(750.875 596.092)"><rect class="i" width="56.737" height="7.38" transform="translate(91.64 66.269)"/><path class="i" d="M955.016,1463.864H879.675L852,1390.675H927.34Z" transform="translate(-851.999 -1390.214)"/><path d="M1084.861,1462.488,1057.3,1389.6h-35.969v-.923h36.607l27.789,73.487Z" transform="translate(-982.275 -1388.676)"/><rect width="48.435" height="0.923" transform="translate(99.942 65.808)"/></g><rect width="393.044" height="0.923" transform="translate(720.56 669.281)"/></g></svg>