<svg xmlns="http://www.w3.org/2000/svg" xmlns:xlink="http://www.w3.org/1999/xlink" width="388.516" height="322.696" viewBox="0 0 388.516 322.696"><defs><style>.a{fill:none;}.b{fill:#26363b;}.c{fill:url(#a);}.d{fill:url(#b);}.e{fill:url(#c);}.f{fill:#de8bdf;}.g,.v,.z{fill:#fff;}.g{opacity:0.5;mix-blend-mode:soft-light;}.g,.i,.l,.q{isolation:isolate;}.h{fill:url(#d);}.i,.l{opacity:0.3;}.i,.l,.q{mix-blend-mode:multiply;}.i{fill:url(#e);}.j{fill:url(#f);}.k{fill:url(#g);}.l{fill:url(#h);}.m{fill:url(#i);}.n{fill:url(#j);}.o{clip-path:url(#k);}.p{fill:url(#l);}.q{opacity:0.87;fill:url(#m);}.r{fill:#ffde07;}.s{fill:#c9b008;}.t{fill:#3ec0fc;}.u{fill:#40a2fb;}.w{fill:#01e9a1;}.x{fill:#98e4ff;}.y{fill:#39c3f5;}.aa,.z{stroke:#233743;}.aa{fill:#64e1dc;}.ab{fill:#1cadb5;}.ac{fill:#e9edf5;}.ad{fill:#d44fbe;}.ae{fill:#af419d;}.af{fill:#f0afa3;}.ag{fill:#233743;}.ah{fill:#fc5793;}.ai{fill:#ed6063;}.aj{fill:#04bbfd;}.ak{fill:#0b7faa;}.al{fill:#f39f9e;}.am{fill:#cc7172;}.an{fill:#fbc072;}.ao{fill:#eeb66c;}.ap{fill:red;}.aq{fill:#b10909;}.ar{fill:#b29d13;}.as{fill:#ada5cc;}.at{fill:#433f5c;}.au{fill:#f3f0ff;}.av{fill:#cbc4e5;}.aw{fill:#e2defb;}.ax{fill:#ffbd86;}.ay{fill:#f6a96c;}.az{fill:#ffee9a;}.ba{fill:#fcdd66;}.bb{fill:#b5adcf;}</style><linearGradient id="a" x1="1.191" y1="0.814" x2="0.346" y2="0.444" gradientUnits="objectBoundingBox"><stop offset="0" stop-color="#444b8c"/><stop offset="0.996" stop-color="#26264f"/></linearGradient><linearGradient id="b" x1="-1.519" y1="0.841" x2="1.632" y2="0.901" xlink:href="#a"/><linearGradient id="c" x1="0.778" y1="0.288" x2="-0.35" y2="1.081" gradientUnits="objectBoundingBox"><stop offset="0" stop-color="#06759c"/><stop offset="0.996"/><stop offset="1" stop-color="#f36f56"/></linearGradient><linearGradient id="d" x1="-10.946" y1="-0.513" x2="-11.451" y2="0.045" gradientUnits="objectBoundingBox"><stop offset="0" stop-color="#311944"/><stop offset="1" stop-color="#893976"/></linearGradient><linearGradient id="e" x1="-12.157" y1="-0.806" x2="-12.715" y2="-0.007" xlink:href="#d"/><linearGradient id="f" x1="19.163" y1="-1.292" x2="18.322" y2="-0.55" xlink:href="#d"/><linearGradient id="g" x1="-5.378" y1="-0.292" x2="-5.144" y2="1.309" gradientUnits="objectBoundingBox"><stop offset="0" stop-color="#5101e8"/><stop offset="0.996" stop-color="#01e9a1"/><stop offset="1" stop-color="#6165d7"/></linearGradient><linearGradient id="h" x1="-5.516" y1="-3.039" x2="-5.277" y2="2.039" gradientUnits="objectBoundingBox"><stop offset="0" stop-color="#aa80f9"/><stop offset="0.996" stop-color="#6165d7"/></linearGradient><linearGradient id="i" x1="7.08" y1="-0.007" x2="5.969" y2="0.621" gradientUnits="objectBoundingBox"><stop offset="0.004" stop-color="#e38ddd"/><stop offset="1" stop-color="#9571f6"/></linearGradient><linearGradient id="j" x1="6.694" y1="0.284" x2="5.698" y2="0.298" gradientUnits="objectBoundingBox"><stop offset="0" stop-color="#ff9e6e"/><stop offset="1" stop-color="#102d37"/></linearGradient><clipPath id="k"><path class="a" d="M1871.188,930.122c3.756-1.2,6.942-3.959,9.47-8.195,2.573-4.31,4.351-9.923,5.285-16.683,1.963-14.209-.043-31.679-5.649-49.192s-14.118-32.9-23.968-43.328c-4.686-4.961-9.393-8.5-13.991-10.513-4.518-1.98-8.713-2.374-12.469-1.172s-6.942,3.96-9.47,8.195c-2.573,4.311-4.351,9.923-5.285,16.683-1.963,14.21.043,31.68,5.649,49.192s14.118,32.9,23.968,43.328c4.686,4.961,9.393,8.5,13.99,10.513C1863.237,930.93,1867.432,931.324,1871.188,930.122Z" transform="translate(-1814.378 -800.361)"/></clipPath><linearGradient id="l" x1="-17.235" y1="-1.127" x2="-16.771" y2="1.046" gradientUnits="objectBoundingBox"><stop offset="0" stop-color="#06759c"/><stop offset="0.996" stop-color="#06759c"/><stop offset="1" stop-color="#f36f56"/></linearGradient><linearGradient id="m" x1="-32.876" y1="-1.269" x2="-32.229" y2="0.929" gradientUnits="objectBoundingBox"><stop offset="0" stop-color="#06759c"/><stop offset="0.996" stop-color="#f36f56"/><stop offset="1" stop-color="#f36f56"/></linearGradient></defs><g transform="translate(-187.65 -2036.924)"><g transform="translate(187.65 2072.392)"><g transform="translate(0 0)"><path class="b" d="M529.071,455.63c-21.748,2.221-61,6.231-83.359,38.158-23.093,32.974-22.22,87.236.695,117.353,11.363,14.934,26.823,22.193,25.008,33.838-2.289,14.684-28.595,14.2-31.26,25.918-4.527,19.91,60.318,69.954,134.07,71.276,15.121.271,99.357,1.781,134.069-62.636,38.719-71.853-22.469-154.674-26.4-159.831C626.7,447.252,537.7,454.749,529.071,455.63Z" transform="translate(-428.801 -455)"/><g transform="translate(27.217 11.022)"><path class="c" d="M829.22,571.881V814.428c0,3.627-3.1,4.524-6.622,4.772L699.7,830.167l-1.9.134a6.481,6.481,0,0,1-7.087-6.461V567.8a6.782,6.782,0,0,1,7.087-6.734l2.572.083,123.314,9.407C827.212,570.67,829.22,568.253,829.22,571.881Z" transform="translate(-690.719 -561.066)"/><path class="d" d="M866.647,571.875V814.29a7.1,7.1,0,0,1-6.386,7.042l-124.882,8.819a6.476,6.476,0,0,1-7.079-6.458V567.8a6.777,6.777,0,0,1,7.079-6.73l124.882,4.009A6.767,6.767,0,0,1,866.647,571.875Z" transform="translate(-724.394 -561.066)"/><path class="e" d="M900.653,712.124v224.7a6.616,6.616,0,0,1-5.974,6.567l-117.424,8.052a6.039,6.039,0,0,1-6.581-6.027V709a6.347,6.347,0,0,1,6.581-6.3l117.424,3.114A6.283,6.283,0,0,1,900.653,712.124Z" transform="translate(-762.365 -687.974)"/><path class="f" d="M1394.289,633.106a2.248,2.248,0,0,1-2.317,2.269,2.412,2.412,0,0,1-2.322-2.4,2.248,2.248,0,0,1,2.322-2.269A2.412,2.412,0,0,1,1394.289,633.106Z" transform="translate(-1317.022 -623.465)"/><path class="g" d="M774.605,697.187c-19.182-41.4,14.2-74.155-6.213-113.482A71.784,71.784,0,0,0,750.2,561.546l-14.824-.476a6.776,6.776,0,0,0-7.079,6.73V823.693a6.475,6.475,0,0,0,7.079,6.458l124.159-8.768c-2.274-20.8-8.6-43.922-23.525-64.805C811.958,722.922,788.486,727.146,774.605,697.187Z" transform="translate(-724.394 -561.066)"/></g><g transform="translate(10.342 24.046)"><g transform="translate(0 0)"><g transform="translate(22.902 108.787)"><path class="h" d="M816.864,1818.905a14.47,14.47,0,0,1-14.43-4.6l-50.66-59.622a12.625,12.625,0,0,1,1.524-17.98c5.5-4.552,16.3-4.721,21,.753l51.64,60.131a12.346,12.346,0,0,1-1.826,18.2A30.067,30.067,0,0,1,816.864,1818.905Z" transform="translate(-748.713 -1733.312)"/><path class="i" d="M753.3,1736.7c5.5-4.552,16.3-4.721,21,.753l47.216,54.981c-4.866.284-10.155,2.092-16.7-.753-10.892-4.735-9.768-15.631-19.234-21.987-4.327-2.9-11.34-5.177-23.341-2.694l-10.468-12.32A12.625,12.625,0,0,1,753.3,1736.7Z" transform="translate(-748.713 -1733.312)"/></g><path class="j" d="M534.2,1635.526a5.648,5.648,0,0,1,.749-.183l17.641-5.861,14.735,46.031-17.17,5.238a5.706,5.706,0,0,1-1.287.6c-6.068,1.943-14.27-6.741-18.321-19.4S528.131,1637.468,534.2,1635.526Z" transform="translate(-528.322 -1531.484)"/><path class="k" d="M758.723,910.158c-1.8,17.474,3.09,32.747,14.735,46.031l145.242.184-40-129.631Z" transform="translate(-734.456 -812.16)"/><path class="l" d="M883.306,1690.868c-14.039-.735-23.745-17.655-38.477-13.613-11.56,3.172-11.451,15.347-23.009,17.73-11.832,2.439-17.7-9.28-31.9-9.526-6.458-.112-12.435,2.2-17.815,5.769a59.014,59.014,0,0,0,13.67,26.053l145.242.184-21.832-41.372C898.619,1687.823,890.112,1691.224,883.306,1690.868Z" transform="translate(-746.768 -1573.25)"/><ellipse class="m" cx="33.635" cy="70.147" rx="33.635" ry="70.147" transform="translate(116.368 20.509) rotate(-17.751)"/><path class="n" d="M1871.187,930.122c3.756-1.2,6.942-3.959,9.47-8.195,2.573-4.31,4.351-9.923,5.285-16.683,1.963-14.209-.043-31.679-5.649-49.192s-14.118-32.9-23.968-43.328c-4.686-4.961-9.393-8.5-13.991-10.513-4.517-1.98-8.713-2.374-12.469-1.172s-6.942,3.96-9.47,8.195c-2.573,4.311-4.351,9.923-5.285,16.683a90.184,90.184,0,0,0-.408,19.3c.752,9.527,9.738,16.848,13,27.038,3.469,10.836,1.107,23.713,6.429,32.25a88.419,88.419,0,0,0,10.6,13.933c4.686,4.961,9.393,8.5,13.99,10.513C1863.236,930.93,1867.431,931.324,1871.187,930.122Z" transform="translate(-1680.74 -788.519)"/><g transform="translate(133.638 11.841)"><g class="o" transform="translate(0)"><path class="p" d="M1751.017,1225.412c5.418,16.926-1.487,33.953-15.227,37.974-13.527,3.958-28.611-6.217-33.879-22.672s1.157-33.332,14.534-37.758C1730.033,1198.461,1745.6,1208.486,1751.017,1225.412Z" transform="translate(-1711.95 -1160.159)"/><path class="q" d="M1945.03,1267.91c4.023,12.569,1.757,24.3-4.966,26.168-6.619,1.842-15.081-6.59-18.992-18.809s-1.88-23.874,4.628-26.064C1932.31,1246.981,1941.007,1255.341,1945.03,1267.91Z" transform="translate(-1908.205 -1202.243)"/></g></g></g></g></g></g><g transform="translate(387.98 2142.695)"><g transform="translate(0 0)"><g transform="translate(0)"><ellipse class="r" cx="19.962" cy="19.962" rx="19.962" ry="19.962"/><path class="s" d="M193.882,130.887q0-.787-.06-1.558l-17.448-5.181-1.051,2.354-10.407,14.176,8.526,10.167q.238.006.478.006A19.962,19.962,0,0,0,193.882,130.887Z" transform="translate(-153.957 -110.925)"/></g></g><g transform="translate(8.318 6.654)"><path d="M859.088,539.294c.615-.867,1.178-1.674,1.755-2.469.733-1.009,1.447-1.2,2.4-.433a7.279,7.279,0,0,0,3.705,1.251,3.976,3.976,0,0,1,3.476,3.789c.088,1.84.071,3.686.077,5.529a1.285,1.285,0,0,1-1.159,1.34c-2.375.5-4.757.97-7.138,1.447-3.047.611-6.052.123-9.051-.385-1.271-.215-2.533-.489-3.795-.755a1.788,1.788,0,0,1-1.578-1.919c-.027-1.54-.057-3.079-.064-4.618a4.069,4.069,0,0,1,3.651-4.295,7.573,7.573,0,0,0,3.646-1.432c.906-.694,1.592-.518,2.258.416C857.857,537.578,858.444,538.4,859.088,539.294Zm1.716,9.641a2.871,2.871,0,0,0,.439,0q3.908-.76,7.814-1.528c.418-.082.525-.352.515-.749-.04-1.691-.048-3.383-.094-5.075a3.064,3.064,0,0,0-2.509-2.976c-.576-.115-1.168-.153-1.742-.276-.344-.074-.471.065-.593.343-.426.974-.871,1.939-1.309,2.907-.512,1.131-1.037,1.376-2.247,1.014a5.187,5.187,0,0,0-.526,2.378C860.734,546.263,860.728,547.579,860.8,548.935Zm-7.4-10.578c-.636.117-1.229.239-1.825.334a3.112,3.112,0,0,0-2.889,3.341c0,1.52.023,3.04.043,4.56.009.715.192.956.891,1.094,1.748.345,3.5.687,5.251,1,.809.142,1.632.2,2.5.307.079-1.173.121-2.235.23-3.291a4.4,4.4,0,0,0-.541-3.094,1.5,1.5,0,0,1-2.171-.979C854.394,540.545,853.906,539.458,853.406,538.358Zm6.354,1.672c.614.556,1.158,1.057,1.713,1.547.314.277.621.305.822-.128.533-1.151,1.054-2.307,1.594-3.492-.514-.333-.992-.677-1.506-.953a.592.592,0,0,0-.558.127C861.124,538.069,860.46,539.037,859.76,540.029Zm-5.451-2.082c.54,1.189,1.057,2.324,1.571,3.459.186.411.472.486.807.2.587-.5,1.153-1.028,1.754-1.567-.7-.98-1.366-1.92-2.04-2.854a.491.491,0,0,0-.778-.125C855.209,537.359,854.779,537.633,854.309,537.948Zm5.244,6.147h-.907c-.1,1.676-.2,3.312-.306,4.955h1.525C859.759,547.372,859.657,545.75,859.553,544.095Zm-.423-3.318c-1.33.959-1.409,1.232-.716,2.334,1.482.068,1.5.072,1.766-.892a.8.8,0,0,0-.156-.621A8.761,8.761,0,0,0,859.13,540.777Z" transform="translate(-847.718 -523.142)"/><path d="M904.206,430.307a1.252,1.252,0,0,1-1.226,1.358,1.089,1.089,0,0,0-.663,1.255,1.44,1.44,0,0,1-1.937,1.958,1.085,1.085,0,0,0-1.265.641,1.181,1.181,0,0,1-1.332,1.168,1.238,1.238,0,0,1-1.443-1.185,1.079,1.079,0,0,0-1.282-.615,1.439,1.439,0,0,1-1.942-1.93,1.058,1.058,0,0,0-.658-1.3,1.19,1.19,0,0,1-1.141-1.36,1.231,1.231,0,0,1,1.166-1.405,1.133,1.133,0,0,0,.668-1.269c-.346-.791-.291-1.143.261-1.688a1.208,1.208,0,0,1,1.642-.25,1.087,1.087,0,0,0,1.291-.689,1.187,1.187,0,0,1,1.368-1.128,1.218,1.218,0,0,1,1.393,1.114,1.021,1.021,0,0,0,1.325.664,1.447,1.447,0,0,1,1.916,1.942,1.047,1.047,0,0,0,.633,1.306A1.253,1.253,0,0,1,904.206,430.307Zm-8.928,3.38a6.819,6.819,0,0,0,1.169.494.926.926,0,0,1,.816.989c.011.316.088.569.48.559.357-.009.437-.24.44-.537a.913.913,0,0,1,.852-1.013,1.147,1.147,0,0,0,.473-.188.981.981,0,0,1,1.341.019.447.447,0,0,0,.608-.6.937.937,0,0,1,0-1.329.927.927,0,0,0,.192-.47c.057-.665.355-.991,1.065-.93.141.012.305-.252.459-.389-.162-.147-.318-.3-.491-.437-.049-.037-.149-.015-.224-.009a.633.633,0,0,1-.747-.593,3.39,3.39,0,0,0-.39-1,.706.706,0,0,1,.016-.886c.169-.223.362-.433.067-.738s-.526-.129-.787.039a3.059,3.059,0,0,1-2.319-.717,1.871,1.871,0,0,1-.1-.444c-.019-.112.019-.261-.041-.333-.118-.142-.285-.33-.435-.333s-.423.213-.417.32c.048.856-.463,1.159-1.178,1.318-.18.04-.333.211-.511.239a1.362,1.362,0,0,1-.728-.034c-.306-.139-.576-.336-.872-.035s-.031.547.128.8a2.775,2.775,0,0,1-.863,2.293,2.81,2.81,0,0,1-.392.067c-.094.014-.223-.014-.277.038-.132.13-.32.3-.318.445s.219.414.331.409c.814-.037,1.165.4,1.282,1.13a.748.748,0,0,0,.142.308.835.835,0,0,1-.029,1.137c-.207.25-.215.519.079.667a1.018,1.018,0,0,0,.63.024A2.373,2.373,0,0,0,895.279,433.687Z" transform="translate(-886.346 -423.871)"/><path class="t" d="M960.329,567.5c-.077-1.356-.07-2.673-.252-3.963a5.186,5.186,0,0,1,.526-2.378c1.209.362,1.735.117,2.247-1.014.438-.968.883-1.934,1.308-2.907.122-.279.25-.417.593-.344.574.123,1.166.161,1.742.276A3.064,3.064,0,0,1,969,560.141c.047,1.691.054,3.383.094,5.075.01.4-.1.667-.515.749q-3.907.764-7.814,1.528A2.842,2.842,0,0,1,960.329,567.5Z" transform="translate(-947.242 -541.702)"/><path class="t" d="M860.972,557.288c.5,1.1.988,2.187,1.488,3.268a1.5,1.5,0,0,0,2.171.979,4.4,4.4,0,0,1,.541,3.094c-.109,1.055-.151,2.117-.23,3.29-.867-.1-1.69-.165-2.5-.307-1.754-.308-3.5-.65-5.251-1-.7-.138-.882-.38-.891-1.094-.02-1.52-.043-3.04-.043-4.56a3.112,3.112,0,0,1,2.889-3.341C859.743,557.527,860.336,557.405,860.972,557.288Z" transform="translate(-855.283 -542.073)"/><path class="u" d="M953.314,548.223c.7-.992,1.364-1.96,2.065-2.9a.592.592,0,0,1,.558-.127c.514.276.992.62,1.506.953-.54,1.185-1.061,2.341-1.594,3.492-.2.434-.508.406-.822.128C954.472,549.281,953.928,548.779,953.314,548.223Z" transform="translate(-941.271 -531.336)"/><path class="u" d="M905.512,545.739c.47-.315.9-.589,1.314-.886a.491.491,0,0,1,.778.125c.674.933,1.34,1.873,2.04,2.854-.6.539-1.167,1.065-1.754,1.567-.335.287-.621.212-.807-.2C906.569,548.063,906.052,546.928,905.512,545.739Z" transform="translate(-898.921 -530.934)"/><path class="v" d="M942.071,607.594c.1,1.655.206,3.278.312,4.956h-1.526c.1-1.644.2-3.279.306-4.956Z" transform="translate(-930.236 -586.642)"/><path class="v" d="M938.887,578.5a8.735,8.735,0,0,1,.894.821.8.8,0,0,1,.156.621c-.266.964-.283.96-1.765.892C937.478,579.736,937.558,579.463,938.887,578.5Z" transform="translate(-927.474 -560.869)"/><path class="w" d="M902.853,441.257a2.363,2.363,0,0,1-.549.282,1.014,1.014,0,0,1-.63-.024c-.294-.148-.287-.417-.08-.667a.835.835,0,0,0,.029-1.137.749.749,0,0,1-.142-.309c-.117-.733-.468-1.167-1.282-1.13-.113.005-.33-.264-.332-.409s.186-.316.318-.445c.053-.052.183-.025.276-.038a2.811,2.811,0,0,0,.393-.067,2.775,2.775,0,0,0,.863-2.293c-.159-.251-.433-.488-.128-.8s.566-.1.872.035a1.365,1.365,0,0,0,.728.034c.178-.028.332-.2.511-.239.714-.16,1.225-.462,1.178-1.318-.006-.107.273-.322.417-.32s.317.191.435.333c.06.072.022.221.041.333a1.847,1.847,0,0,0,.1.444,3.058,3.058,0,0,0,2.319.717c.261-.168.478-.359.787-.039s.1.515-.067.738a.706.706,0,0,0-.016.886,3.386,3.386,0,0,1,.39,1,.633.633,0,0,0,.747.594c.075-.006.175-.028.224.009.173.134.329.29.491.437-.154.137-.318.4-.46.389-.709-.061-1.008.265-1.064.93a.926.926,0,0,1-.192.47.937.937,0,0,0,0,1.329.447.447,0,0,1-.608.6.981.981,0,0,0-1.341-.018,1.149,1.149,0,0,1-.473.188.913.913,0,0,0-.852,1.013c0,.3-.083.528-.44.537-.392.01-.469-.243-.48-.559a.927.927,0,0,0-.816-.989A6.806,6.806,0,0,1,902.853,441.257Zm-.316-3.439a2.76,2.76,0,1,0,2.712-2.734A2.749,2.749,0,0,0,902.536,437.818Z" transform="translate(-893.92 -431.441)"/><path d="M923.266,458.55a2.76,2.76,0,1,1,2.712,2.792A2.755,2.755,0,0,1,923.266,458.55Zm4.556.034a1.8,1.8,0,1,0-1.84,1.794A1.816,1.816,0,0,0,927.822,458.584Z" transform="translate(-914.65 -452.173)"/><path class="w" d="M935.265,466.075a1.834,1.834,0,0,1-1.84,1.794,1.8,1.8,0,1,1,1.84-1.794Z" transform="translate(-922.093 -459.663)"/></g></g><g transform="translate(387.981 2040.397)"><g transform="translate(0)"><ellipse class="x" cx="30.184" cy="30.184" rx="30.184" ry="30.184"/></g><path class="y" d="M206.9,137.724q0-1.19-.091-2.356l-13.453-13.453-14.128,14-13.11,22.1,9.875,9.875q.36.009.723.008A30.184,30.184,0,0,0,206.9,137.724Z" transform="translate(-146.529 -107.54)"/><g transform="translate(10.574 10.96)"><path class="z" d="M128.9,103.672A10.85,10.85,0,0,0,109.292,97.4,10.85,10.85,0,0,0,91.728,110.15a25.417,25.417,0,0,1,4.34,10.477l.555,7.736a8.032,8.032,0,0,0,7.91,6.635H106.3V121.966a2.992,2.992,0,1,1,5.985,0V135h1.767a8.032,8.032,0,0,0,7.909-6.635l.555-7.736a25.416,25.416,0,0,1,4.339-10.477A10.8,10.8,0,0,0,128.9,103.672Z" transform="translate(-89.682 -92.958)"/></g><g transform="translate(34.192 20.911)"><ellipse class="aa" cx="9.77" cy="9.77" rx="9.77" ry="9.77"/></g><g transform="translate(43.952 20.911)"><path class="ab" d="M372.784,177.357h-.01V196.9h.01a9.77,9.77,0,0,0,0-19.539Z" transform="translate(-372.774 -177.357)"/></g><g transform="translate(37.714 24.434)"><path class="v" d="M332.363,211.088H328.5v-3.859h-4.778v3.859h-3.859v4.778h3.859v3.859H328.5v-3.859h3.859Z" transform="translate(-319.868 -207.229)"/></g><g transform="translate(43.952 24.434)"><path class="ac" d="M375.173,211.088v-3.859h-2.4v12.5h2.4v-3.859h3.859v-4.778Z" transform="translate(-372.775 -207.229)"/></g></g><g transform="translate(460.614 2241.62)"><g transform="translate(0 0)"><ellipse class="ad" cx="25.665" cy="25.665" rx="25.665" ry="25.665"/><path class="ae" d="M202.158,134.926q0-1.011-.077-2l-17.973-10.63-5.479,11.1-13.713,14.122,10.962,13.071q.306.007.615.007A25.665,25.665,0,0,0,202.158,134.926Z" transform="translate(-150.827 -109.26)"/></g><g transform="translate(8.555 8.555)"><path class="af" d="M243,271.106a20.076,20.076,0,0,0,3.641-1.381,4.068,4.068,0,0,1,3.516-.377c1.255.5,4.645,1.381,5.273,2.26s1.507,1.381,1.381,1.758.251-1,.251-1l3.013-1s3.641-.879,4.143-.879,1,.628,1.13,1.13-.753,1.507-1,1.632-9.542,5.148-9.793,5.148S243,275.877,243,275.877Z" transform="translate(-237.596 -246.887)"/><path class="ag" d="M290.509,182.007a2.95,2.95,0,0,1,2.337-1.124,3.376,3.376,0,0,1,3.022,3.934,4.266,4.266,0,0,1-1.293,2.59c-1.133,1.049-2.337,2.022-3.513,3.025a.753.753,0,0,1-1.078.011c-1.192-1.016-2.436-1.979-3.554-3.072a3.971,3.971,0,0,1-1.222-3.775,3.175,3.175,0,0,1,2.145-2.566A2.762,2.762,0,0,1,290.509,182.007Zm0,7.823c1.249-1.141,2.4-2.134,3.483-3.2a3.149,3.149,0,0,0,.917-2.756,2.464,2.464,0,0,0-1.619-1.978,1.939,1.939,0,0,0-2.2.952c-.467.641-.713.654-1.156,0a1.927,1.927,0,0,0-2.075-.965,2.094,2.094,0,0,0-1.634,1.565,2.994,2.994,0,0,0,.761,3.13C288.068,187.672,289.246,188.672,290.508,189.83Z" transform="translate(-274.428 -169.722)"/><path class="af" d="M210.12,287.231V291.7h-2.248v-4.474Z" transform="translate(-178.063 -283.752)"/><path class="af" d="M341.773,269.629c1.1-.617,2.168-1.235,3.255-1.813a1.184,1.184,0,0,1,1.634.432,1.157,1.157,0,0,1-.794,1.578c-.724.268-1.452.53-2.184.776a.613.613,0,0,1-.45,0C342.76,270.312,342.307,269.989,341.773,269.629Z" transform="translate(-323.968 -245.618)"/><path class="ah" d="M225.14,287.053h1.832v4.09H225.14Z" transform="translate(-221.978 -262.576)"/><path class="af" d="M208.992,287.231v4.059h-1.12v-4.059Z" transform="translate(-206.878 -262.732)"/><path class="af" d="M246.141,104.879c-2,.717-3.959,1.434-5.931,2.123a1.163,1.163,0,0,1-.929-2.127q4.331-2.405,8.682-4.776a3.749,3.749,0,0,1,2.929-.2c2.327.677,4.652,1.361,6.985,2.02.638.18,1.3.283,2.068.447a6.113,6.113,0,0,0,0,.621c.036.4-.187,1.024.468,1.039.671.015.461-.605.491-1.01.017-.227,0-.457,0-.729h1.876v4.067h-1.822c-.158-.336.125-1.029-.534-.967-.247.023-.447.538-.6.9a6.461,6.461,0,0,0-2.715,1.223,4.054,4.054,0,0,1-4.225.284c-1.606-.757-3.247-1.44-4.869-2.163a1.244,1.244,0,1,1,.773-2.362c1.347.3,2.69.612,4.034.918.143.033.3.111.427.072a3.412,3.412,0,0,0,.6-.324c-.145-.193-.258-.507-.442-.558-1.048-.286-2.112-.51-3.172-.754-.326-.075-.652-.147-.978-.222C247.308,101.946,246.176,102.825,246.141,104.879Z" transform="translate(-233.785 -98.741)"/><path class="af" d="M279.6,149.558c-1.128.629-2.232,1.289-3.378,1.866a1.114,1.114,0,0,1-1.534-.562,1.145,1.145,0,0,1,.776-1.49c.723-.271,1.451-.533,2.184-.777a.7.7,0,0,1,.505,0C278.615,148.869,279.05,149.187,279.6,149.558Z" transform="translate(-265.245 -141.461)"/><path class="ai" d="M297.121,196.506c-1.261-1.158-2.44-2.158-3.518-3.257a2.994,2.994,0,0,1-.761-3.13,2.094,2.094,0,0,1,1.634-1.565,1.927,1.927,0,0,1,2.075.965c.443.656.689.642,1.156,0a1.939,1.939,0,0,1,2.2-.952,2.464,2.464,0,0,1,1.619,1.978,3.15,3.15,0,0,1-.917,2.756C299.524,194.372,298.37,195.365,297.121,196.506Z" transform="translate(-281.041 -176.398)"/><path class="ag" d="M223.753,262.464c.519-.186,1.023-.373,1.532-.547a2.124,2.124,0,0,1,2.735,1.1,2.076,2.076,0,0,1-.958,2.736q-4.273,2.381-8.568,4.721a4.517,4.517,0,0,1-3.466.388c-1.55-.43-3.095-.88-4.64-1.329-.324-.094-.708-.2-.572-.656.131-.436.5-.354.836-.254,1.444.422,2.891.832,4.333,1.259a4.165,4.165,0,0,0,3.378-.406c2.606-1.465,5.235-2.888,7.854-4.329a4.973,4.973,0,0,0,.54-.318,1.162,1.162,0,0,0,.389-1.449,1.1,1.1,0,0,0-1.357-.614c-2.013.693-4.015,1.421-6,2.129-.121,1.576-.591,2.3-1.69,2.562a2.176,2.176,0,0,1-.926.032c-1.512-.32-3.022-.658-4.52-1.038-.234-.059-.581-.38-.57-.561.028-.454.439-.412.78-.336,1.346.3,2.69.608,4.036.912a3.86,3.86,0,0,0,.554.1,1.208,1.208,0,0,0,1.306-.851,1.161,1.161,0,0,0-.615-1.428c-1.941-.879-3.88-1.768-5.856-2.561a4,4,0,0,0-3.634.613c-.812.477-1.689.845-2.654,1.319v3.763c.774.174,1.511.305,2.221.522.175.053.264.385.393.589-.2.1-.443.324-.605.278-2.31-.649-4.666-.194-7-.314-1.026-.053-1.052-.034-1.053-1.062q0-2.071,0-4.143c0-.76.1-.857.877-.859,1.612,0,3.223-.016,4.835.005a3.371,3.371,0,0,0,2.115-.644,5.253,5.253,0,0,1,5.891-.541,24.866,24.866,0,0,0,2.469,1.079,1.154,1.154,0,0,0,.843-.05c1.038-.539,2.048-1.134,3.068-1.708C222.095,259.431,223.432,260.089,223.753,262.464Zm-5.992.493c.534.36.987.683,1.462.97a.612.612,0,0,0,.45,0c.732-.246,1.459-.508,2.184-.776a1.157,1.157,0,0,0,.794-1.578,1.184,1.184,0,0,0-1.634-.432C219.929,261.721,218.864,262.339,217.761,262.956Zm-14.643.466v4.09h1.832v-4.09Zm-1.048.022h-1.12V267.5h1.12Z" transform="translate(-199.956 -238.945)"/><path class="ag" d="M235.551,100.686c-.581.2-1.107.4-1.641.571a2.1,2.1,0,0,1-2.627-1.1,2.046,2.046,0,0,1,.867-2.709q4.348-2.437,8.728-4.815a4.486,4.486,0,0,1,3.473-.325c2.429.7,4.853,1.414,7.289,2.087a7.312,7.312,0,0,0,1.787.253c1.694.033,3.389.008,5.084.014.734,0,.82.1.822.843q0,2.134,0,4.267c0,.865-.074.942-.918.944-1.59,0-3.181.018-4.771-.006a3.462,3.462,0,0,0-2.171.666,5.226,5.226,0,0,1-5.834.528c-.8-.407-1.649-.713-2.459-1.1a.869.869,0,0,0-.922.057c-1.025.607-2.07,1.18-3.108,1.765C237.209,103.715,235.768,102.975,235.551,100.686Zm3.973-2.449c.035-2.054,1.167-2.933,3.12-2.482.326.075.652.147.978.222,1.059.244,2.124.468,3.172.754.185.05.3.365.442.558a3.416,3.416,0,0,1-.6.324c-.122.039-.284-.04-.427-.072-1.345-.306-2.687-.622-4.034-.918a1.244,1.244,0,1,0-.773,2.362c1.622.724,3.263,1.406,4.869,2.163a4.054,4.054,0,0,0,4.225-.284,6.46,6.46,0,0,1,2.715-1.223c.151-.363.351-.878.6-.9.659-.063.376.631.534.967h1.822V95.64h-1.875c0,.273.014.5,0,.729-.03.405.18,1.026-.491,1.01-.655-.015-.432-.636-.468-1.039a6.112,6.112,0,0,1,0-.621c-.771-.164-1.43-.266-2.068-.447-2.332-.659-4.657-1.343-6.985-2.02a3.749,3.749,0,0,0-2.929.2q-4.355,2.362-8.682,4.776a1.163,1.163,0,0,0,.929,2.127C235.566,99.671,237.527,98.955,239.525,98.237Zm2,1.958c-.549-.371-.984-.689-1.447-.961a.7.7,0,0,0-.505,0c-.733.244-1.46.506-2.184.777a1.145,1.145,0,0,0-.776,1.49,1.114,1.114,0,0,0,1.533.562C239.292,101.484,240.4,100.825,241.524,100.2Zm16.83-4.556h-1.118v4.069h1.118Z" transform="translate(-227.169 -92.099)"/></g></g><g transform="translate(511.855 2134.848)"><g transform="translate(0 0)"><g transform="translate(0 0)"><ellipse class="aj" cx="24.386" cy="24.386" rx="24.386" ry="24.386"/><path class="ak" d="M212.9,154.9q0-.961-.073-1.9l-18.64-5.048-3.643,5.494-9.939,10.01,7.325,15.827q.291.007.584.007A24.386,24.386,0,0,0,212.9,154.9Z" transform="translate(-164.131 -130.511)"/><g transform="translate(7.089 7.089)"><path d="M1183.906,356.357a16.49,16.49,0,0,1-12.929-6.278c-1.347-1.663-2.659-3.355-3.981-5.038a2.328,2.328,0,0,1,.608-3.526q2.739-1.671,5.48-3.339a9.157,9.157,0,0,1,8.76-.677,4.917,4.917,0,0,0,3.984.011,9.167,9.167,0,0,1,8.763.65q2.893,1.764,5.787,3.529c.619.376.672.894.765,1.6.177,1.341-.688,2.016-1.326,2.857-1.076,1.417-2.167,2.826-3.31,4.19A16.4,16.4,0,0,1,1183.906,356.357Zm15.235-10.964-.173-.186c-.139.1-.284.188-.416.294-1.01.816-2.031,1.618-3.023,2.455a16.766,16.766,0,0,1-8.463,3.89,17.959,17.959,0,0,1-14.91-3.905c-1.05-.879-2.124-1.73-3.19-2.592a1.613,1.613,0,0,0-.242-.136c1.109,1.55,2.246,3.038,3.442,4.478a15.058,15.058,0,0,0,21.4,1.9A64.289,64.289,0,0,0,1199.14,345.393Zm.544-2.677c-.236-.192-.316-.273-.409-.33-1.844-1.129-3.675-2.282-5.539-3.376a7.836,7.836,0,0,0-7.335-.477,6.244,6.244,0,0,1-5.1,0,7.923,7.923,0,0,0-7.464.533c-1.241.732-2.461,1.5-3.69,2.255l-2.011,1.231A49.645,49.645,0,0,1,1199.685,342.716Zm-1.091,1.248-.056-.107c-.242.091-.489.173-.727.274a23.619,23.619,0,0,1-9.482,1.855c-3.175-.018-6.355.092-9.525-.045a39.364,39.364,0,0,1-5.975-.83,33.334,33.334,0,0,1-3.86-1.264c1.346,1.1,2.568,2.108,3.811,3.092a1.136,1.136,0,0,0,.663.183q10.393.012,20.785-.005a1.246,1.246,0,0,0,.725-.21C1196.179,345.944,1197.383,344.949,1198.594,343.964Zm-18.174.808h2.793v-3.363h-2.793Zm6.837.015v-3.372h-2.791v3.372Zm-10.3-.05h2.212v-3.294l-2.212.234Zm13.8-3.067-2.232-.219v3.394l2.232-.123ZM1181,350.743l2.225.235v-2.633H1181Zm5.7-2.4h-2.213v2.645l2.213-.251Zm-6.957,2.182v-2.2H1177.5a9.619,9.619,0,0,0,.012,1.089c.02.173.129.431.261.48C1178.409,350.133,1179.068,350.314,1179.745,350.524Zm8.181.008,2.233-.675v-1.524h-2.233Zm-12.219-5.95v-2.711l-1.65.347v2.043Zm16.256.016,1.68-.347v-2.042l-1.68-.319Zm-19.115-2.085-2.275.664,2.275.782Zm22.008-.006v1.47l2.248-.809Zm-20.064,5.809-.033.136,1.541.857v-.993Zm16.6,1,1.729-.982h-1.729Z" transform="translate(-1166.443 -326.958)"/><path d="M1351.218,286.508V285.39a3.391,3.391,0,0,0,2.686-1.107,3.843,3.843,0,0,0,.737-2.9h.9a15.8,15.8,0,0,0,.986,2.806,2.8,2.8,0,0,0,2.693,1.18V286.5a2.753,2.753,0,0,0-2.678,1.15,16.348,16.348,0,0,0-1.021,2.862h-.594a16.092,16.092,0,0,0-.991-2.836A2.758,2.758,0,0,0,1351.218,286.508Zm4.034-1.738-1.228,1.108,1.156,1.139,1.31-1.039Z" transform="translate(-1324.54 -279.631)"/><path d="M1282.05,272.149V273.2c-1.916.445-2.534,1.065-2.919,2.93h-1.056a3.041,3.041,0,0,0-2.906-2.9v-1.068a3.031,3.031,0,0,0,2.89-2.9h1.085A3.032,3.032,0,0,0,1282.05,272.149Zm-4.487.532.954,1.1,1.173-.981-1.021-1.239Z" transform="translate(-1259.471 -269.272)"/><path d="M1190.611,474.93h-1.04c-.334-1.593-.849-2.1-2.353-2.326V471.56c1.593-.349,2.07-.829,2.321-2.351h1.043c.317,1.572.833,2.086,2.347,2.323v1.044C1191.339,472.906,1190.844,473.4,1190.611,474.93Zm-.531-3.691-.8.852.818.767.673-.717Z" transform="translate(-1184.218 -440.342)"/><path class="al" d="M1212.66,395.849a64.391,64.391,0,0,1-5.571,6.193,15.059,15.059,0,0,1-21.4-1.9c-1.2-1.44-2.334-2.928-3.442-4.478a1.634,1.634,0,0,1,.242.136c1.065.861,2.139,1.713,3.189,2.592a17.959,17.959,0,0,0,14.91,3.9,16.767,16.767,0,0,0,8.463-3.89c.991-.838,2.012-1.64,3.022-2.455.131-.107.277-.2.416-.294Z" transform="translate(-1179.962 -377.414)"/><path class="al" d="M1209.75,349.534a49.645,49.645,0,0,0-31.543-.159l2.011-1.231c1.229-.753,2.448-1.523,3.69-2.255a7.923,7.923,0,0,1,7.464-.533,6.243,6.243,0,0,0,5.1,0,7.835,7.835,0,0,1,7.335.477c1.865,1.095,3.7,2.247,5.539,3.376C1209.435,349.262,1209.514,349.342,1209.75,349.534Z" transform="translate(-1176.508 -333.776)"/><path class="am" d="M1213.558,386.365c-1.212.985-2.415,1.979-3.643,2.943a1.248,1.248,0,0,1-.725.21q-10.393.018-20.785.005a1.135,1.135,0,0,1-.663-.183c-1.243-.984-2.464-1.994-3.811-3.092a33.372,33.372,0,0,0,3.86,1.264,39.351,39.351,0,0,0,5.975.83c3.17.137,6.349.027,9.525.045a23.619,23.619,0,0,0,9.482-1.855c.238-.1.485-.183.727-.274Z" transform="translate(-1181.407 -369.359)"/><path class="v" d="M1263.248,372.725v-3.363h2.793v3.363Z" transform="translate(-1249.271 -354.911)"/><path class="v" d="M1294.061,372.779h-2.791v-3.371h2.791Z" transform="translate(-1273.247 -354.95)"/><path class="v" d="M1239.251,372.891v-3.06l2.212-.234v3.294Z" transform="translate(-1228.739 -355.112)"/><path class="v" d="M1321.576,369.871v3.051l-2.232.123v-3.394Z" transform="translate(-1297.268 -355.159)"/><path class="v" d="M1267.249,419.794v-2.4h2.225v2.633Z" transform="translate(-1252.695 -396.009)"/><path class="v" d="M1293.645,417.378v2.394l-2.214.251v-2.645Z" transform="translate(-1273.386 -395.994)"/><path class="v" d="M1245.2,419.462c-.677-.21-1.336-.391-1.974-.63-.132-.05-.241-.307-.261-.48a9.649,9.649,0,0,1-.012-1.089h2.247Z" transform="translate(-1231.9 -395.896)"/><path class="v" d="M1315.244,419.523v-2.2h2.233v1.524Z" transform="translate(-1293.76 -395.949)"/><path class="v" d="M1220.83,375.271l-1.65-.32v-2.043l1.65-.347Z" transform="translate(-1211.566 -357.647)"/><path class="v" d="M1343.2,375.4v-2.708l1.68.319v2.042Z" transform="translate(-1317.683 -357.76)"/><path class="v" d="M1197.331,377.009v1.446l-2.275-.782Z" transform="translate(-1190.925 -361.454)"/><path class="v" d="M1363.246,376.969l2.248.661-2.248.809Z" transform="translate(-1334.831 -361.42)"/><path class="v" d="M1224.08,417.2h1.508v.993l-1.541-.856Z" transform="translate(-1215.73 -395.845)"/><path class="v" d="M1339.258,418.33v-.982h1.729Z" transform="translate(-1314.307 -395.969)"/><path class="an" d="M1371.882,304.865l1.237,1.207-1.31,1.039-1.155-1.139Z" transform="translate(-1341.17 -299.726)"/><path class="ao" d="M1291.755,286.242l1.106-1.12,1.021,1.239-1.172.981Z" transform="translate(-1273.662 -282.834)"/><path class="an" d="M1202.315,483.273l.692.9-.673.717-.818-.767Z" transform="translate(-1196.452 -452.375)"/></g></g></g></g><g transform="translate(536.241 2036.924)"><g transform="translate(0 0)"><ellipse class="ap" cx="19.962" cy="19.962" rx="19.962" ry="19.962"/><path class="aq" d="M193.882,132.119q0-.787-.06-1.558l-13.979-8.268-4.262,8.632-10.665,10.984,8.526,10.167q.238.006.478.006A19.962,19.962,0,0,0,193.882,132.119Z" transform="translate(-153.957 -112.156)"/></g><g transform="translate(6.654 3.327)"><g transform="translate(5.551 0.414)"><g transform="translate(4.719)"><path class="r" d="M248.462,10.045H251.1a4.521,4.521,0,0,1,1.514.26v-.61A2.195,2.195,0,0,0,250.423,7.5h-1.28a2.195,2.195,0,0,0-2.195,2.195v.61a4.521,4.521,0,0,1,1.514-.26Z" transform="translate(-246.948 -7.5)"/></g><g transform="translate(4.719 0)"><path class="ar" d="M248.462,10.045h.773v-.35a2.2,2.2,0,0,1,1.691-2.136,2.2,2.2,0,0,0-.5-.059h-1.28a2.195,2.195,0,0,0-2.195,2.195v.61A4.521,4.521,0,0,1,248.462,10.045Z" transform="translate(-246.948 -7.5)"/></g><g transform="translate(1.703 2.545)"><path class="r" d="M193.117,60.449h.777v-.06a.6.6,0,0,1,.6-.6h1.8a2.559,2.559,0,0,0,2.293-1.422.605.605,0,0,1,.541-.338H201.9a.6.6,0,0,1,.6.6v1.82h.777a1.089,1.089,0,0,1,.769.317v-2.66a4.53,4.53,0,0,0-4.53-4.53h-2.641a4.53,4.53,0,0,0-4.53,4.53v2.66A1.089,1.089,0,0,1,193.117,60.449Z" transform="translate(-192.348 -53.576)"/></g><g transform="translate(1.704 2.545)"><path class="ar" d="M193.119,60.448h.777v-.06a.6.6,0,0,1,.6-.6h.161V58.1a4.53,4.53,0,0,1,4.53-4.53H196.88a4.53,4.53,0,0,0-4.53,4.53v2.66A1.089,1.089,0,0,1,193.119,60.448Z" transform="translate(-192.35 -53.575)"/></g><path class="as" d="M173.149,303.753h-1.407v2.211a.276.276,0,0,1-.329.271v.858a.276.276,0,0,1-.062.175l-2.076,2.546a.276.276,0,0,1-.428,0l-2.076-2.546a.276.276,0,0,1-.062-.175v-.858a.276.276,0,0,1-.329-.271v-2.211h-1.407a3.933,3.933,0,0,0-3.466,2.073,1.225,1.225,0,0,1,.817,1.154v.389h.741a.221.221,0,0,1,.221.221v.54h1.684a.221.221,0,0,1,.221.221v6.49h11.615a.276.276,0,0,0,.276-.276v-6.878A3.934,3.934,0,0,0,173.149,303.753Z" transform="translate(-161.507 -287.39)"/><path class="at" d="M165.441,303.751A3.932,3.932,0,0,0,162,305.775a1.279,1.279,0,0,1,.845,1.2v.334h.686a.261.261,0,0,1,.033,0,3.936,3.936,0,0,1,3.282-3.512v-.052h-1.407Z" transform="translate(-161.975 -287.388)"/><g transform="translate(5.202 17.019)"><path class="au" d="M260.263,317.39l-2.052-1.7a.276.276,0,0,0-.353,0l-2.052,1.7a.273.273,0,0,1-.124.059v.858a.276.276,0,0,0,.062.175l2.076,2.546a.276.276,0,0,0,.428,0l2.076-2.546a.276.276,0,0,0,.062-.175v-.858A.273.273,0,0,1,260.263,317.39Z" transform="translate(-255.683 -315.622)"/></g><g transform="translate(5.202 17.958)"><path class="av" d="M256.805,333.8v-1.176l-1,.829a.273.273,0,0,1-.124.059v.858a.276.276,0,0,0,.062.174l2.076,2.546a.276.276,0,0,0,.428,0l.58-.711-1.961-2.405A.276.276,0,0,1,256.805,333.8Z" transform="translate(-255.683 -332.622)"/></g><g transform="translate(4.873 15.084)"><path class="au" d="M254.982,280.675l-.112-.082a3.318,3.318,0,0,1-1.484.348h-1.943a3.318,3.318,0,0,1-1.484-.348l-.112.082a.276.276,0,0,0-.113.223v3.186a.276.276,0,0,0,.453.212l2.052-1.7a.276.276,0,0,1,.353,0l2.052,1.7a.276.276,0,0,0,.453-.212V280.9A.276.276,0,0,0,254.982,280.675Z" transform="translate(-249.734 -280.593)"/></g><path class="aw" d="M249.96,280.593l-.112.082a.276.276,0,0,0-.113.223v3.186a.276.276,0,0,0,.453.212l.667-.554v-2.5a.276.276,0,0,1,.113-.223l.129-.094A3.31,3.31,0,0,1,249.96,280.593Z" transform="translate(-244.861 -265.509)"/><g transform="translate(1.38 9.418)"><path class="ax" d="M188.362,180.686v-2.681h-.777a1.092,1.092,0,0,0-1.092,1.092v.728a1.092,1.092,0,0,0,1.092,1.093h.785C188.366,180.841,188.362,180.764,188.362,180.686Z" transform="translate(-186.493 -178.005)"/><path class="ax" d="M376.833,178.005h-.777v2.681c0,.078,0,.155-.009.231h.785a1.092,1.092,0,0,0,1.092-1.092V179.1A1.092,1.092,0,0,0,376.833,178.005Z" transform="translate(-365.578 -178.005)"/></g><g transform="translate(6.109 15.398)"><path class="ay" d="M274.524,286.317h-1.943a3.36,3.36,0,0,1-.474-.034l1.208,2.009a.276.276,0,0,0,.473,0L275,286.283A3.362,3.362,0,0,1,274.524,286.317Z" transform="translate(-272.107 -286.283)"/></g><g transform="translate(3.249 6.995)"><path class="ax" d="M225.572,134.138a.605.605,0,0,0-.541.338,2.559,2.559,0,0,1-2.293,1.422h-1.8a.6.6,0,0,0-.6.6v2.742a3.333,3.333,0,0,0,3.333,3.333h1.943a3.333,3.333,0,0,0,3.333-3.333v-4.5a.6.6,0,0,0-.6-.6h-2.764Z" transform="translate(-220.33 -134.138)"/></g><g transform="translate(3.249 8.754)"><path class="ay" d="M222.079,169.339V166.6a.6.6,0,0,1,.6-.6h-1.749a.6.6,0,0,0-.6.6v2.742a3.333,3.333,0,0,0,3.333,3.333h1.749A3.333,3.333,0,0,1,222.079,169.339Z" transform="translate(-220.33 -165.994)"/></g><g transform="translate(9.939 22.618)"><path class="v" d="M345.272,419.336h-3.649a.166.166,0,0,1-.166-.166v-2.006a.166.166,0,0,1,.166-.166h3.649a.166.166,0,0,1,.166.166v2.006A.166.166,0,0,1,345.272,419.336Z" transform="translate(-341.457 -416.998)"/></g><g transform="translate(9.939 22.618)"><path class="au" d="M343.2,419.17v-2.006a.166.166,0,0,1,.166-.166h-1.738a.166.166,0,0,0-.166.166v2.006a.166.166,0,0,0,.166.166h1.738A.166.166,0,0,1,343.2,419.17Z" transform="translate(-341.457 -416.998)"/></g></g><path class="az" d="M87.114,382H85.485v.343a.276.276,0,0,1-.276.276H81.279a.276.276,0,0,1-.276-.276V382H79.374a.276.276,0,0,0-.276.276v6.49H87.39v-6.49A.276.276,0,0,0,87.114,382Z" transform="translate(-78.098 -360.901)"/><path class="ba" d="M81.279,382.62a.276.276,0,0,1-.276-.276V382H79.374a.276.276,0,0,0-.276.276v3.213h1.359a.278.278,0,0,1,.278.278v3h.678V382.62Z" transform="translate(-78.098 -360.901)"/><g transform="translate(3.867 18.726)"><path class="au" d="M133.573,340.638V340.3a1.278,1.278,0,1,0-2.557,0v.334Z" transform="translate(-131.016 -339.026)"/></g><g transform="translate(3.867 18.726)"><path class="aw" d="M132.175,340.638V340.3a1.278,1.278,0,0,1,.7-1.139,1.278,1.278,0,0,0-1.858,1.139v.334Z" transform="translate(-131.016 -339.026)"/></g><g transform="translate(2.905 20.338)"><path class="av" d="M117.8,369.6h-3.929a.276.276,0,0,1-.276-.276V368.5a.276.276,0,0,1,.276-.276H117.8a.276.276,0,0,1,.276.276v.829A.276.276,0,0,1,117.8,369.6Z" transform="translate(-113.593 -368.219)"/></g><g transform="translate(2.905 20.338)"><path class="bb" d="M115.32,369.324V368.5a.276.276,0,0,1,.276-.276h-1.727a.276.276,0,0,0-.276.276v.829a.276.276,0,0,0,.276.276H115.6A.276.276,0,0,1,115.32,369.324Z" transform="translate(-113.593 -368.219)"/></g><g transform="translate(0.414 24.589)"><path class="ax" d="M70.722,448.445h-1.8a.425.425,0,0,1-.425-.425v-2.426a.425.425,0,0,1,.425-.425h1.519a.278.278,0,0,1,.278.278Z" transform="translate(-68.5 -445.168)"/></g><g transform="translate(0.414 24.589)"><path class="ay" d="M69.632,448.02v-2.426a.425.425,0,0,1,.425-.425H68.925a.425.425,0,0,0-.425.425v2.426a.425.425,0,0,0,.425.425h1.132A.425.425,0,0,1,69.632,448.02Z" transform="translate(-68.5 -445.168)"/></g><g transform="translate(0 0)"><path class="ag" d="M249.707,181.216v-.76a.414.414,0,0,0-.829,0v.76a.414.414,0,0,0,.829,0Z" transform="translate(-238.501 -170.097)"/><path class="ag" d="M333.076,180.041a.414.414,0,0,0-.414.414v.76a.414.414,0,1,0,.828,0v-.76A.414.414,0,0,0,333.076,180.041Z" transform="translate(-317.657 -170.097)"/><path class="ag" d="M264.665,230.684a1.887,1.887,0,0,1-2.671,0,.414.414,0,0,0-.586.586,2.716,2.716,0,0,0,3.843,0,.414.414,0,0,0-.586-.586Z" transform="translate(-250.224 -217.827)"/><path class="ag" d="M285.3,185.565h.65a.414.414,0,0,0,0-.829h-.236v-.669a.414.414,0,0,0-.828,0v1.083A.414.414,0,0,0,285.3,185.565Z" transform="translate(-272.521 -173.509)"/><ellipse class="ag" cx="0.414" cy="0.414" rx="0.414" ry="0.414" transform="translate(12.691 18.89)"/><ellipse class="ag" cx="0.414" cy="0.414" rx="0.414" ry="0.414" transform="translate(12.691 20.658)"/><path class="ag" d="M333.957,410.078v2.006a.581.581,0,0,0,.58.58h3.649a.581.581,0,0,0,.58-.58v-2.006a.581.581,0,0,0-.58-.58h-3.649A.581.581,0,0,0,333.957,410.078Zm.829.249h3.152v1.509h-3.152Z" transform="translate(-318.88 -386.88)"/><path class="ag" d="M359.731,387.329a.414.414,0,0,0,0-.829h-1.326a.414.414,0,1,0,0,.829Z" transform="translate(-341.587 -365.152)"/><path class="ag" d="M82.127,21.9a.414.414,0,0,0,.414-.414v-.774a4.353,4.353,0,0,0-4.348-4.348h-.907v-.646a.68.68,0,0,0-.021-.165,3.753,3.753,0,0,0,1.5-2.394h.418a1.508,1.508,0,0,0,1.507-1.507v-.728a1.5,1.5,0,0,0-.324-.931v-2.5a4.9,4.9,0,0,0-.487-2.142.414.414,0,0,0-.747.359,4.076,4.076,0,0,1,.405,1.783V9.46a1.5,1.5,0,0,0-.355-.043h-.362V8.012a1.019,1.019,0,0,0-1.017-1.017H75.043a1.014,1.014,0,0,0-.912.568,2.135,2.135,0,0,1-1.922,1.192H70.4a1.018,1.018,0,0,0-.953.663h-.427a1.5,1.5,0,0,0-.355.043V7.489a4.12,4.12,0,0,1,4.116-4.116h2.641a4.121,4.121,0,0,1,2.628.949.414.414,0,1,0,.529-.637,4.933,4.933,0,0,0-1.229-.747V2.609A2.612,2.612,0,0,0,74.745,0h-1.28a2.612,2.612,0,0,0-2.609,2.609v.327a4.952,4.952,0,0,0-3.016,4.552v2.5a1.5,1.5,0,0,0-.323.931v.728a1.508,1.508,0,0,0,1.507,1.507h.418a3.756,3.756,0,0,0,1.657,2.5c0,.02,0,.04,0,.06v.646H70.018a4.346,4.346,0,0,0-3.634,1.965,1.691,1.691,0,0,0-1.929,1.6h-.274a.691.691,0,0,0-.69.69v.071H62.276a.691.691,0,0,0-.69.69v2.838a.841.841,0,0,0-.585.8V27.44a.841.841,0,0,0,.84.84H81.851a.691.691,0,0,0,.69-.69v-4.17a.414.414,0,1,0-.828,0v4.032H70.706V25.684a.414.414,0,0,0-.829,0v1.768H64.05V24.866a.693.693,0,0,0-.692-.692h-.945V21.514h1.08a.691.691,0,0,0,.687.62H68.11a.691.691,0,0,0,.687-.62h1.08v2.237a.414.414,0,1,0,.829,0V21.376a.691.691,0,0,0-.69-.69H68.8v-.071a.691.691,0,0,0-.69-.69h-.274a1.691,1.691,0,0,0-.671-1.27,3.516,3.516,0,0,1,2.853-1.462H71.1V18.9a.683.683,0,0,0,.243.526v.689a.692.692,0,0,0,.155.436L73.57,23.1a.69.69,0,0,0,1.07,0l2.076-2.546a.693.693,0,0,0,.155-.436v-.583l.017-.007a.684.684,0,0,0,.4-.625V17.192h.907a3.524,3.524,0,0,1,3.52,3.52v.774a.414.414,0,0,0,.414.414Zm-3.3-11.654h.362a.679.679,0,0,1,.678.678v.728a.679.679,0,0,1-.678.678h-.362Zm-7.14-7.637A1.783,1.783,0,0,1,73.466.829h1.28a1.783,1.783,0,0,1,1.781,1.781V2.67a4.935,4.935,0,0,0-1.1-.125H72.785a4.943,4.943,0,0,0-1.1.124V2.609Zm-2.3,9.721h-.362a.679.679,0,0,1-.678-.678v-.728a.679.679,0,0,1,.678-.678h.362ZM63.222,25v2.449H61.84a.011.011,0,0,1-.011-.011V25.014A.011.011,0,0,1,61.84,25Zm2.924-5.863a.865.865,0,0,1,.86.784h-1.72A.865.865,0,0,1,66.146,19.14Zm1.826,1.613V21.3H64.319v-.552Zm8.071-.684-1.938,2.376-1.938-2.376v-.59a.7.7,0,0,0,.06-.044l1.455-1.209a.685.685,0,0,0,.423.145h0a.683.683,0,0,0,.5-.22l1.434,1.192Zm-4.119-1.46V16.06a3.719,3.719,0,0,0,.479.129l.811,1.349Zm1.489-2.348H74.8l-.692,1.151Zm3.044,2.348-1.4-1.166.754-1.254a3.715,3.715,0,0,0,.65-.193Zm-1.38-3.177H73.134a2.922,2.922,0,0,1-2.919-2.919V9.772a.189.189,0,0,1,.189-.189h1.8a2.959,2.959,0,0,0,2.664-1.651.19.19,0,0,1,.17-.108h2.764A.189.189,0,0,1,78,8.012v4.5A2.922,2.922,0,0,1,75.077,15.432Z" transform="translate(-61 0)"/></g></g></g></g></svg>