<svg xmlns="http://www.w3.org/2000/svg" width="422.176" height="324.527" viewBox="0 0 422.176 324.527"><defs><style>.a{fill:#045673;}.b{fill:#06759c;}.c{fill:#ff5970;}.d{fill:#59ff6f;}.e{fill:#ffbe9d;}.f{fill:#033e53;}.g{fill:#01e9a1;}.h{fill:#356171;}.i{fill:#ffe585;}.j{fill:#fff;}</style></defs><g transform="translate(-240.937 -2024.787)"><g transform="translate(-116.635 1732.361)"><g transform="translate(357.572 474.669)"><g transform="translate(0 0)"><path class="a" d="M574.583,626.055A10.553,10.553,0,0,0,564.03,615.5H370.124a10.552,10.552,0,0,0-10.552,10.552V650.2H574.583Z" transform="translate(-358.903 -614.834)"/><path d="M573.921,649.536H357.572V624.726A11.235,11.235,0,0,1,368.794,613.5H562.7a11.234,11.234,0,0,1,11.221,11.222ZM358.91,648.2H572.583V624.726a9.894,9.894,0,0,0-9.883-9.883H368.794a9.9,9.9,0,0,0-9.883,9.883Z" transform="translate(-357.572 -613.504)"/></g><g transform="translate(0 34.694)"><path class="b" d="M359.572,719.2v95.7a10.553,10.553,0,0,0,10.552,10.553H564.03A10.553,10.553,0,0,0,574.583,814.9V719.2Z" transform="translate(-358.903 -718.534)"/><path d="M562.7,824.793H368.794a11.235,11.235,0,0,1-11.222-11.222V717.2H573.921v96.368A11.234,11.234,0,0,1,562.7,824.793ZM358.91,718.541v95.029a9.9,9.9,0,0,0,9.883,9.884H562.7a9.9,9.9,0,0,0,9.883-9.884V718.541Z" transform="translate(-357.572 -717.203)"/></g><circle class="c" cx="6.2" cy="6.2" r="6.2" transform="translate(13.51 11.842) rotate(-0.242)"/><circle class="d" cx="6.2" cy="6.2" r="6.2" transform="translate(36.549 11.894) rotate(-0.714)"/></g><g transform="translate(405.99 404.865)"><g transform="translate(155.383 0)"><rect width="25.317" height="1.338" transform="translate(0 18.545) rotate(-47.098)"/><rect width="25.317" height="1.339" transform="matrix(0.948, -0.318, 0.318, 0.948, 10.92, 34.864)"/><rect width="24.155" height="1.338" transform="matrix(0.878, -0.479, 0.479, 0.878, 5.274, 24.679)"/></g><g transform="translate(0 7.275)"><g transform="translate(56.861 0)"><path class="e" d="M784.965,589.869l-2.489,10.3L778.3,617.437l-3.439,14.239-26.846-13.691L759.9,583.766Z" transform="translate(-722.666 -531.187)"/><path d="M820.831,628.894l-4.175,17.264c-5.139-4.51-8.565-11.241-11-19.231Z" transform="translate(-761.021 -559.908)"/><circle cx="16.048" cy="16.048" r="16.048" transform="translate(0 22.696) rotate(-45)"/><path class="e" d="M834.7,530.053s.465,40.414-11.72,38.877-25.092-11.3-25.092-11.3l-3.9-27.164,18.179-7.678Z" transform="translate(-753.252 -490.61)"/><path class="f" d="M776.761,507.06c1.6-7.347,5.7-11.685,13.131-12,0,0,10.969,11.911,18.779,4.16,4.964-4.926-3.3-22.386-14-18.261-26.591-25.685-67.445,15.034-41.614,42.66,5.005-9.494,14.751-8.952,22.144-12.477Z" transform="translate(-720.548 -457.348)"/><path class="e" d="M833.832,561.534c.272,4.452-2.112,8.219-5.324,8.415s-6.036-3.254-6.308-7.706,2.112-8.219,5.324-8.415S833.56,557.083,833.832,561.534Z" transform="translate(-772.017 -511.26)"/><path class="e" d="M906.818,577.181s5.807,9.361,3.594,10.961-7.147,1.232-7.147,1.232Z" transform="translate(-825.974 -526.805)"/><path d="M836.981,572.188,835.656,572c.408-2.86-.551-4.883-2.443-5.153l.189-1.325C836.058,565.9,837.5,568.579,836.981,572.188Z" transform="translate(-779.359 -519.045)"/></g><g transform="translate(0 81.096)"><path class="e" d="M568.481,842.073,546.3,900.087H502.291l27.075-67.7Z" transform="translate(-502.291 -777.727)"/><path class="g" d="M704.513,727.8v.017a33.076,33.076,0,0,1-.667,5.763l-11.818,57.775H594.111l22.457-58.682-33.351-9.013,13.956-34.891a31.488,31.488,0,0,1,37.319-18.711l15.684,4.19a88.72,88.72,0,0,1,46.881,30.923A34.943,34.943,0,0,1,704.513,727.8Z" transform="translate(-556.141 -669.001)"/><rect width="30.175" height="1.339" transform="translate(59.8 63.43) rotate(-68.343)"/><rect width="1.339" height="9.905" transform="matrix(0.135, -0.991, 0.991, 0.135, 9.903, 96.962)"/></g><g transform="translate(134.769 40.556)"><path class="e" d="M952.12,792.047,944.9,843.712a14.217,14.217,0,0,1-14.08,12.25H907.027s9.552-49.976,13.982-69.525v-.017c.684-2.959,1.334-5.746,1.967-8.278L942.3,767.88c1.026-.547,2-1.06,2.891-1.591Z" transform="translate(-906.386 -693.2)"/><g transform="translate(23.089 31.493)"><path class="h" d="M1012.322,722.421l-21.029,4.166-17.17-84.625,24.12,9.4Z" transform="translate(-974.123 -641.962)"/><path d="M993.042,740.564l-15.5-76.176,1.311-.267,15.24,74.872,19.722-3.908L999.617,662.04l1.314-.255,14.447,74.354Z" transform="translate(-976.395 -655.153)"/></g><g transform="translate(16.32)"><path class="b" d="M1075.2,622.687l-81.183-23.908,1.485-16.442,1.287-14.249,84.945-17.744Z" transform="translate(-980.595 -549.503)"/><path class="h" d="M0,0H18.433V33.6H0Z" transform="translate(3.748 15.775) rotate(5.161)"/><rect width="4.127" height="13.757" transform="matrix(0.996, 0.09, -0.09, 0.996, 32.044, 32.817)"/><path d="M1049.094,621.888l-76.308-22.524-18.9-1.693,3.142-34.793,18.926,1.709,79.823-16.757Zm-93.75-25.429,17.692,1.6,74.871,22.087,6.379-70.631-78.25,16.427-17.791-1.607Z" transform="translate(-953.891 -547.83)"/></g><g transform="translate(41.615 71.355)"><path class="e" d="M1029.578,772.747c-.557-3.027,1.8-4.959,4.071-6.21,4.132-2.279,8.893-4.792,13.373-5.363a4.472,4.472,0,0,1,2.067.112c2.816,1.012,1.919,5.531.281,7.666a18.8,18.8,0,0,1-7.083,5.1C1038.506,775.845,1030.733,779.03,1029.578,772.747Z" transform="translate(-1029.495 -761.108)"/><path class="e" d="M1037.417,802.33c-.708-2.548,1.282-4.581,3.235-6.007,3.559-2.6,7.668-5.494,11.658-6.659a4.206,4.206,0,0,1,1.867-.211c2.6.459,2.105,4.522.779,6.622a19.269,19.269,0,0,1-6.019,5.495C1045.659,803.69,1038.887,807.62,1037.417,802.33Z" transform="translate(-1034.669 -779.945)"/><path class="e" d="M1043.931,827.716c-.714-2.467.972-4.291,2.648-5.539,3.053-2.274,6.581-4.8,10.063-5.686a3.377,3.377,0,0,1,1.641-.1c2.314.585,2.017,4.426.918,6.352a15.133,15.133,0,0,1-5.124,4.895C1051.257,829.476,1045.413,832.837,1043.931,827.716Z" transform="translate(-1038.99 -797.854)"/></g><path class="e" d="M976.914,743.726c-.89.53-1.865,1.043-2.891,1.591L954.7,755.579c1.2-4.823,2.309-8.757,3.25-11.374v-.017a11.7,11.7,0,0,1,1.539-3.147c5.558-6.414,21.806-11.117,24.372-7.269C986.1,737.141,983.123,740.169,976.914,743.726Z" transform="translate(-938.107 -670.638)"/><rect width="48.765" height="1.338" transform="translate(0 162.631) rotate(-78.504)"/></g></g><g transform="translate(271.136 41.054)"><path class="i" d="M1388.237,528.483c-1.965,5.162-4.072,10.256-6.259,15.312-1.07,2.539-2.212,5.044-3.319,7.565s-2.277,5.012-3.415,7.518l-1.208,2.663-2.539-1.688c-3.826-2.544-7.563-5.213-11.349-7.813l-5.613-3.995q-2.811-1.99-5.582-4.039l3.657-.807c-1.312,2.148-2.588,4.316-3.937,6.442s-2.65,4.28-4.028,6.39c-2.709,4.246-5.5,8.446-8.419,12.569l-1.812-1.046c2.108-4.593,4.351-9.108,6.673-13.577,1.137-2.248,2.344-4.457,3.518-6.684s2.406-4.421,3.609-6.631l1.295-2.377,2.363,1.57q2.87,1.907,5.691,3.884l5.66,3.928c3.729,2.681,7.507,5.294,11.2,8.032l-3.747.975c1.252-2.451,2.464-4.922,3.755-7.355s2.53-4.891,3.85-7.309c2.592-4.86,5.265-9.682,8.079-14.435Z" transform="translate(-1327.15 -527.574)"/><path class="i" d="M1377.556,714.664c-5.373,1.284-10.7,2.717-15.991,4.234-2.656.734-5.286,1.544-7.929,2.318s-5.264,1.612-7.9,2.418l3.307,2.014c-.6-4.555-1.348-9.086-2.016-13.631l-1.115-6.8c-.366-2.267-.75-4.531-1.167-6.79l-.516-2.789-2.608.723c-2.425.672-4.86,1.3-7.275,2.018s-4.843,1.374-7.249,2.121c-4.826,1.441-9.63,2.969-14.4,4.649l.509,2.03c4.995-.768,9.952-1.686,14.886-2.692,2.474-.477,4.929-1.031,7.393-1.55s4.911-1.1,7.366-1.652l-3.124-2.066c.3,2.278.63,4.55.981,6.819l1.034,6.811c.765,4.529,1.447,9.071,2.28,13.589l.553,3,2.754-.984c2.592-.926,5.2-1.81,7.778-2.775s5.176-1.879,7.744-2.876c5.154-1.944,10.279-3.974,15.356-6.152Z" transform="translate(-1312.705 -639.411)"/></g></g></g><g transform="translate(578 2024.787)"><path class="g" d="M2189.827,492.943a42.516,42.516,0,1,1-13.315-40.892A42.546,42.546,0,0,1,2189.827,492.943Z" transform="translate(-2105.7 -422.221)"/><path class="i" d="M2318.462,452.051l-28.26,31.83V441.325a42.67,42.67,0,0,1,28.26,10.726Z" transform="translate(-2247.649 -422.221)"/><g transform="translate(44.82)"><path class="i" d="M2329.661,405.363c-6.863-9.168-17.609-13.241-29.471-11.176l-.159-.909c12.04-2.1,23.4,2.215,30.369,11.532Z" transform="translate(-2300.031 -384.855)"/><path class="i" d="M2345.9,371.087a30.965,30.965,0,0,0-29.48-11.189l-.166-.908a31.883,31.883,0,0,1,30.361,11.516Z" transform="translate(-2312.51 -358.495)"/></g><path class="b" d="M2216.5,528.255a31.221,31.221,0,1,1-9.778-30.016A31.241,31.241,0,0,1,2216.5,528.255Z" transform="translate(-2143.421 -459.946)"/><path class="j" d="M2288.044,573.586l-1.451-.557V557.2h1.665v13.665l6.117-6.789,1.236,1.114Z" transform="translate(-2244.873 -511.369)"/><g transform="translate(41.673 32.992)"><rect class="j" width="1.665" height="3.606"/><rect class="j" width="1.665" height="3.606" transform="translate(0 53.813)"/></g><g transform="translate(13.845 60.827)"><rect class="j" width="3.606" height="1.664"/><rect class="j" width="3.605" height="1.664" transform="translate(53.813)"/></g></g></g></svg>