<svg id="Group_12299" data-name="Group 12299" xmlns="http://www.w3.org/2000/svg" width="66.216" height="66.216" viewBox="0 0 66.216 66.216">
  <g id="Group_6203" data-name="Group 6203" transform="translate(0 0)">
    <g id="Group_6202" data-name="Group 6202" transform="translate(0 0)">
      <g id="Group_6201" data-name="Group 6201" transform="translate(0 0)">
        <g id="Group_6200" data-name="Group 6200">
          <g id="Group_6199" data-name="Group 6199">
            <g id="Group_6198" data-name="Group 6198">
              <g id="Group_6197" data-name="Group 6197">
                <g id="Group_6194" data-name="Group 6194">
                  <g id="Group_6190" data-name="Group 6190">
                    <g id="dentist_3_" data-name="dentist (3)">
                      <g id="Group_5911" data-name="Group 5911">
                        <g id="Group_5910" data-name="Group 5910">
                          <g id="Group_5909" data-name="Group 5909">
                            <g id="Group_5908" data-name="Group 5908">
                              <g id="Group_5907" data-name="Group 5907">
                                <g id="Group_5906" data-name="Group 5906">
                                  <g id="Group_5905" data-name="Group 5905">
                                    <g id="Group_5904" data-name="Group 5904">
                                      <circle id="Ellipse_367" data-name="Ellipse 367" cx="33.108" cy="33.108" r="33.108" fill="#04bbfd"/>
                                    </g>
                                  </g>
                                </g>
                              </g>
                            </g>
                          </g>
                        </g>
                      </g>
                      <path id="Path_6776" data-name="Path 6776" d="M224.454,157.383q0-1.3-.1-2.585l-25.307-6.854L194.1,155.4l-13.493,13.59,9.945,21.489q.4.009.793.009A33.108,33.108,0,0,0,224.454,157.383Z" transform="translate(-158.238 -124.275)" fill="#0b7faa"/>
                    </g>
                  </g>
                  <g id="Group_6191" data-name="Group 6191" transform="translate(9.625 9.625)">
                    <path id="Path_6946" data-name="Path 6946" d="M1190.152,363.391a22.389,22.389,0,0,1-17.553-8.523c-1.829-2.258-3.61-4.555-5.405-6.84a3.161,3.161,0,0,1,.825-4.787q3.719-2.269,7.44-4.534a12.434,12.434,0,0,1,11.893-.919,6.676,6.676,0,0,0,5.409.014,12.445,12.445,0,0,1,11.9.883q3.929,2.394,7.857,4.792c.841.511.912,1.214,1.039,2.177.24,1.821-.934,2.737-1.8,3.879-1.461,1.924-2.941,3.837-4.493,5.688A22.263,22.263,0,0,1,1190.152,363.391Zm20.684-14.886-.235-.253c-.189.133-.386.255-.565.4-1.371,1.107-2.758,2.2-4.1,3.334a22.765,22.765,0,0,1-11.49,5.281c-7.507,1.133-14.327-.348-20.244-5.3-1.426-1.194-2.884-2.35-4.33-3.519a2.236,2.236,0,0,0-.329-.185c1.5,2.1,3.05,4.125,4.673,6.08a20.444,20.444,0,0,0,29.058,2.574C1206.1,354.463,1208.331,351.327,1210.836,348.5Zm.739-3.634c-.321-.261-.428-.37-.555-.448-2.5-1.533-4.989-3.1-7.52-4.584a10.639,10.639,0,0,0-9.958-.647,8.478,8.478,0,0,1-6.919.006,10.757,10.757,0,0,0-10.133.723c-1.686.994-3.341,2.04-5.01,3.062l-2.73,1.672A67.4,67.4,0,0,1,1211.574,344.871Zm-1.48,1.7-.077-.145c-.329.123-.664.234-.987.372a32.066,32.066,0,0,1-12.874,2.518c-4.312-.024-8.629.125-12.932-.06a53.445,53.445,0,0,1-8.113-1.128,45.316,45.316,0,0,1-5.24-1.716c1.828,1.491,3.486,2.863,5.174,4.2a1.54,1.54,0,0,0,.9.249q14.11.017,28.22-.007a1.694,1.694,0,0,0,.984-.285C1206.815,349.253,1208.449,347.9,1210.094,346.566Zm-24.675,1.1h3.793V343.1h-3.793Zm9.282.02V343.1h-3.789v4.577Zm-13.986-.068h3v-4.472l-3,.318Zm18.73-4.164-3.03-.3v4.608l3.03-.168ZM1186.2,355.768l3.021.319v-3.575H1186.2Zm7.745-3.26h-3.005V356.1l3.005-.341Zm-9.445,2.963v-2.985h-3.051a13.062,13.062,0,0,0,.017,1.478c.027.235.175.585.355.652C1182.689,354.941,1183.584,355.187,1184.5,355.471Zm11.108.011,3.032-.916V352.5h-3.032Zm-16.59-8.079v-3.681l-2.24.472v2.774Zm22.071.021,2.281-.471v-2.772l-2.281-.434Zm-25.952-2.83-3.088.9,3.088,1.062Zm29.881-.008v2l3.052-1.1Zm-27.241,7.887-.046.185,2.092,1.163v-1.348Zm22.539,1.362,2.347-1.333h-2.347Z" transform="translate(-1166.443 -323.476)"/>
                    <path id="Path_6947" data-name="Path 6947" d="M1351.218,288.343v-1.518a4.606,4.606,0,0,0,3.647-1.5,5.218,5.218,0,0,0,1-3.943h1.223a21.51,21.51,0,0,0,1.339,3.81c.729,1.275,2.135,1.627,3.656,1.6v1.54a3.737,3.737,0,0,0-3.635,1.562,22.173,22.173,0,0,0-1.387,3.886h-.806a21.876,21.876,0,0,0-1.346-3.851C1354.181,288.649,1352.782,288.288,1351.218,288.343Zm5.477-2.36-1.667,1.5,1.568,1.546,1.778-1.411Z" transform="translate(-1314.998 -279.006)"/>
                    <path id="Path_6948" data-name="Path 6948" d="M1284.511,273.178v1.433c-2.6.6-3.44,1.446-3.963,3.977h-1.434a4.128,4.128,0,0,0-3.945-3.936V273.2a4.116,4.116,0,0,0,3.924-3.931h1.474A4.116,4.116,0,0,0,1284.511,273.178Zm-6.091.722,1.3,1.493,1.592-1.332-1.386-1.682Z" transform="translate(-1253.856 -269.272)"/>
                    <path id="Path_6949" data-name="Path 6949" d="M1191.824,476.977h-1.412c-.454-2.162-1.152-2.855-3.195-3.159V472.4c2.163-.474,2.811-1.125,3.151-3.192h1.416c.43,2.134,1.131,2.833,3.187,3.154v1.417C1192.813,474.228,1192.141,474.9,1191.824,476.977Zm-.72-5.011-1.084,1.157,1.11,1.042.914-.973Z" transform="translate(-1183.145 -430.017)"/>
                    <path id="Path_6950" data-name="Path 6950" d="M1223.54,395.915c-2.5,2.822-4.737,5.958-7.564,8.409a20.445,20.445,0,0,1-29.058-2.574c-1.623-1.955-3.168-3.976-4.673-6.08a2.224,2.224,0,0,1,.329.185c1.446,1.169,2.9,2.325,4.33,3.519,5.917,4.954,12.737,6.434,20.244,5.3a22.762,22.762,0,0,0,11.49-5.281c1.346-1.137,2.733-2.226,4.1-3.334.179-.145.376-.267.565-.4Z" transform="translate(-1179.146 -370.887)" fill="#f39f9e"/>
                    <path id="Path_6951" data-name="Path 6951" d="M1221.032,351.277a67.4,67.4,0,0,0-42.825-.216l2.73-1.672c1.669-1.022,3.325-2.068,5.01-3.062a10.757,10.757,0,0,1,10.133-.723A8.478,8.478,0,0,0,1203,345.6a10.638,10.638,0,0,1,9.958.647c2.531,1.486,5.017,3.051,7.521,4.584C1220.6,350.907,1220.712,351.017,1221.032,351.277Z" transform="translate(-1175.901 -329.883)" fill="#f39f9e"/>
                    <path id="Path_6952" data-name="Path 6952" d="M1224.155,386.407c-1.645,1.337-3.279,2.687-4.945,4a1.7,1.7,0,0,1-.984.285q-14.109.025-28.22.007a1.54,1.54,0,0,1-.9-.249c-1.688-1.336-3.346-2.707-5.174-4.2a45.354,45.354,0,0,0,5.241,1.716,53.455,53.455,0,0,0,8.113,1.128c4.3.185,8.621.036,12.932.06a32.064,32.064,0,0,0,12.874-2.518c.323-.137.658-.248.987-.372Z" transform="translate(-1180.504 -363.318)" fill="#cc7172"/>
                    <path id="Path_6953" data-name="Path 6953" d="M1263.248,373.928v-4.566h3.793v4.566Z" transform="translate(-1244.272 -349.742)" fill="#fff"/>
                    <path id="Path_6954" data-name="Path 6954" d="M1295.059,373.984h-3.79v-4.577h3.79Z" transform="translate(-1266.8 -349.778)" fill="#fff"/>
                    <path id="Path_6955" data-name="Path 6955" d="M1239.251,374.069v-4.154l3-.318v4.472Z" transform="translate(-1224.979 -349.931)" fill="#fff"/>
                    <path id="Path_6956" data-name="Path 6956" d="M1322.374,369.95v4.142l-3.03.168v-4.608Z" transform="translate(-1289.372 -349.975)" fill="#fff"/>
                    <path id="Path_6957" data-name="Path 6957" d="M1267.249,420.652v-3.257h3.021v3.575Z" transform="translate(-1247.489 -388.36)" fill="#fff"/>
                    <path id="Path_6958" data-name="Path 6958" d="M1294.437,417.378v3.25l-3.005.341v-3.591Z" transform="translate(-1266.931 -388.346)" fill="#fff"/>
                    <path id="Path_6959" data-name="Path 6959" d="M1246.01,420.248c-.919-.284-1.814-.53-2.68-.855-.18-.067-.328-.417-.355-.652a13.008,13.008,0,0,1-.016-1.478h3.051Z" transform="translate(-1227.949 -388.254)" fill="#fff"/>
                    <path id="Path_6960" data-name="Path 6960" d="M1315.244,420.31v-2.985h3.032v2.069Z" transform="translate(-1286.075 -388.303)" fill="#fff"/>
                    <path id="Path_6961" data-name="Path 6961" d="M1221.421,376.241l-2.24-.435v-2.774l2.24-.472Z" transform="translate(-1208.843 -352.313)" fill="#fff"/>
                    <path id="Path_6962" data-name="Path 6962" d="M1343.2,376.368v-3.676l2.281.434V375.9Z" transform="translate(-1308.555 -352.419)" fill="#fff"/>
                    <path id="Path_6963" data-name="Path 6963" d="M1198.145,377.009v1.963l-3.089-1.062Z" transform="translate(-1189.447 -355.89)" fill="#fff"/>
                    <path id="Path_6964" data-name="Path 6964" d="M1363.245,376.969l3.053.9-3.053,1.1Z" transform="translate(-1324.668 -355.858)" fill="#fff"/>
                    <path id="Path_6965" data-name="Path 6965" d="M1224.092,417.2h2.047v1.348l-2.092-1.163Z" transform="translate(-1212.756 -388.205)" fill="#fff"/>
                    <path id="Path_6966" data-name="Path 6966" d="M1339.258,418.681v-1.333h2.347Z" transform="translate(-1305.383 -388.322)" fill="#fff"/>
                    <path id="Path_6967" data-name="Path 6967" d="M1372.321,304.865l1.68,1.64-1.778,1.41-1.569-1.546Z" transform="translate(-1330.624 -297.888)" fill="#fbc072"/>
                    <path id="Path_6968" data-name="Path 6968" d="M1291.755,286.643l1.5-1.521,1.387,1.682-1.593,1.332Z" transform="translate(-1267.191 -282.015)" fill="#eeb66c"/>
                    <path id="Path_6969" data-name="Path 6969" d="M1202.6,483.273l.94,1.225-.914.973-1.11-1.042Z" transform="translate(-1194.641 -441.324)" fill="#fbc072"/>
                  </g>
                </g>
              </g>
            </g>
          </g>
        </g>
      </g>
    </g>
  </g>
</svg>
