<svg xmlns="http://www.w3.org/2000/svg" width="282.374" height="72.302" viewBox="0 0 282.374 72.302"><defs><style>.a{fill:#0f2a33;stroke:#5a6d7e;stroke-width:0.478px;}.a,.g{stroke-miterlimit:10;}.b,.g{fill:#b4b6b9;}.c{fill:#3791ff;}.d{fill:#1432b9;}.e{fill:#8c9196;}.f{fill:#fff;}.g{stroke:#0f2a33;stroke-width:2.229px;}.h{fill:#2387f5;}.i{fill:#071ea0;}</style></defs><g transform="translate(-199.374 -492.398)"><rect class="a" width="281.896" height="71.824" rx="4.968" transform="translate(199.612 492.636)"/><path class="b" d="M550.457,530.87a7.266,7.266,0,0,1-12.3-.095l3.849-3.824H529.993v11.942l3.081-3.062a14.344,14.344,0,0,0,22.58-.062Z" transform="translate(-98.441 -10.224)"/><path class="c" d="M544.338,506.517H532.452l3.075,3.026a14.318,14.318,0,0,0-5.534,11.319h7.079a7.261,7.261,0,0,1,3.589-6.265l3.677,3.619Z" transform="translate(-98.441 -4.136)"/><path class="d" d="M561.956,512.329a14.322,14.322,0,0,0-11.53-5.812V513.6a7.262,7.262,0,0,1,6.36,3.754l-3.771,3.661h11.569V509.777Z" transform="translate(-104.529 -4.136)"/><g transform="translate(420.696 535.416)"><path class="e" d="M516.85,557.183l-.473-.025a.744.744,0,0,0-.52.189,1.207,1.207,0,0,0-.316.534v3.839H514.53v-5.389h.922l.074.812a1.715,1.715,0,0,1,.444-.669.929.929,0,0,1,.633-.242,1.287,1.287,0,0,1,.2.018.682.682,0,0,1,.164.043Z" transform="translate(-514.53 -554.365)"/><path class="e" d="M520.762,561.826a1.937,1.937,0,0,1-1.54-.668,2.518,2.518,0,0,1-.577-1.708v-.788a2.654,2.654,0,0,1,.565-1.743,1.783,1.783,0,0,1,1.436-.687,1.691,1.691,0,0,1,1.41.625,2.638,2.638,0,0,1,.494,1.681v.7h-2.9v.215a2.029,2.029,0,0,0,.306,1.153.987.987,0,0,0,.87.456,1.761,1.761,0,0,0,.717-.133,2,2,0,0,0,.567-.385l.319.628a1.857,1.857,0,0,1-.682.472A2.454,2.454,0,0,1,520.762,561.826ZM520.646,557a.8.8,0,0,0-.7.428,2.252,2.252,0,0,0-.293,1.086h1.9v-.206a1.751,1.751,0,0,0-.23-.943A.744.744,0,0,0,520.646,557Z" transform="translate(-515.756 -554.365)"/><path class="e" d="M529.85,558.726l.015.031a2.341,2.341,0,0,1-.578,1.68,2.14,2.14,0,0,1-1.618.6,2.164,2.164,0,0,1-1.7-.718,2.906,2.906,0,0,1-.638-2V556.3a2.945,2.945,0,0,1,.631-2.006,2.115,2.115,0,0,1,1.68-.723,2.2,2.2,0,0,1,1.639.583,2.38,2.38,0,0,1,.588,1.7l-.015.03h-.956a1.946,1.946,0,0,0-.314-1.173,1.13,1.13,0,0,0-.941-.376,1.1,1.1,0,0,0-.966.5,2.535,2.535,0,0,0-.344,1.436v2.03a2.521,2.521,0,0,0,.352,1.452,1.137,1.137,0,0,0,.988.5,1.1,1.1,0,0,0,.919-.366,1.931,1.931,0,0,0,.3-1.173Z" transform="translate(-517.747 -553.572)"/><path class="e" d="M536.407,559.139H534.1l-.527,1.833h-1.026l2.231-7.251h.977l2.211,7.251h-1.026Zm-2.078-.8h1.848l-.906-3.168h-.03Z" transform="translate(-519.897 -553.616)"/><path class="e" d="M542.429,558.1v2.869h-1.012v-7.251H543.8a2.1,2.1,0,0,1,1.594.6,2.47,2.47,0,0,1,0,3.177,2.1,2.1,0,0,1-1.594.6Zm0-.767H543.8a1.007,1.007,0,0,0,.867-.4,1.673,1.673,0,0,0,.293-1.012,1.725,1.725,0,0,0-.291-1.027,1,1,0,0,0-.87-.408h-1.369Z" transform="translate(-522.541 -553.616)"/><path class="e" d="M553.423,554.488H551.56v6.485h-1.011v-6.485H548.7v-.767h4.726Z" transform="translate(-524.711 -553.616)"/><path class="e" d="M560.661,558.726l.015.031a2.344,2.344,0,0,1-.578,1.68,2.143,2.143,0,0,1-1.618.6,2.166,2.166,0,0,1-1.7-.718,2.906,2.906,0,0,1-.638-2V556.3a2.949,2.949,0,0,1,.63-2.006,2.115,2.115,0,0,1,1.68-.723,2.2,2.2,0,0,1,1.639.583,2.381,2.381,0,0,1,.588,1.7l-.015.03H559.7a1.941,1.941,0,0,0-.315-1.173,1.13,1.13,0,0,0-.941-.376,1.1,1.1,0,0,0-.966.5,2.535,2.535,0,0,0-.344,1.436v2.03a2.515,2.515,0,0,0,.352,1.452,1.135,1.135,0,0,0,.988.5,1.1,1.1,0,0,0,.918-.366,1.932,1.932,0,0,0,.3-1.173Z" transform="translate(-526.928 -553.572)"/><path class="e" d="M568.957,560.972h-1.006v-3.2h-2.779v3.2h-1.011v-7.251h1.011V557h2.779v-3.282h1.006Z" transform="translate(-529.318 -553.616)"/><path class="e" d="M576.185,559.139h-2.311l-.528,1.833H572.32l2.231-7.251h.977l2.211,7.251h-1.026Zm-2.077-.8h1.848l-.906-3.168h-.029Z" transform="translate(-531.749 -553.616)"/></g><g transform="translate(416.936 548.13)"><path class="e" d="M509.934,575.614v2.251h-.76v-5.611h2.147a1.973,1.973,0,0,1,1.395.462,1.748,1.748,0,0,1,0,2.442,1.988,1.988,0,0,1-1.395.456Zm0-.6h1.387a1.019,1.019,0,0,0,1.133-1.077,1.111,1.111,0,0,0-.284-.777,1.091,1.091,0,0,0-.849-.312h-1.387Z" transform="translate(-509.174 -571.853)"/><path class="e" d="M518.147,574.945l-.389-.024a.875.875,0,0,0-.508.143.925.925,0,0,0-.317.4v2.979h-.759v-4.169h.678l.074.607a1.459,1.459,0,0,1,.437-.5,1.028,1.028,0,0,1,.6-.18.925.925,0,0,1,.161.013,1.069,1.069,0,0,1,.128.029Z" transform="translate(-511.26 -572.432)"/><path class="e" d="M520.873,572.457h-.759v-.774h.759Zm0,5.237h-.759v-4.169h.759Z" transform="translate(-512.434 -571.683)"/><path class="e" d="M524.091,577.247l.065.293h.024l.072-.293.96-2.939h.774l-1.533,4.169h-.574l-1.553-4.169h.778Z" transform="translate(-513.093 -572.465)"/><path class="e" d="M530.933,578.444c-.027-.126-.046-.237-.06-.333a2.358,2.358,0,0,1-.025-.291,1.78,1.78,0,0,1-.553.5,1.4,1.4,0,0,1-.734.2,1.363,1.363,0,0,1-.993-.332,1.23,1.23,0,0,1-.34-.92,1.075,1.075,0,0,1,.484-.934,2.258,2.258,0,0,1,1.311-.337h.825v-.413a.764.764,0,0,0-.224-.58.871.871,0,0,0-.631-.213.908.908,0,0,0-.6.187.563.563,0,0,0-.23.449h-.724l-.008-.023a1.007,1.007,0,0,1,.43-.831,1.764,1.764,0,0,1,1.17-.378,1.715,1.715,0,0,1,1.141.361,1.275,1.275,0,0,1,.432,1.038V577.6a4.091,4.091,0,0,0,.022.432,2.247,2.247,0,0,0,.085.409Zm-1.26-.559a1.35,1.35,0,0,0,.743-.211,1,1,0,0,0,.432-.484v-.677H530a1.109,1.109,0,0,0-.734.23.69.69,0,0,0-.276.543.568.568,0,0,0,.174.438A.73.73,0,0,0,529.672,577.885Z" transform="translate(-514.851 -572.432)"/><path class="e" d="M536.231,577.927a1.023,1.023,0,0,0,.665-.232.714.714,0,0,0,.287-.573h.682l.007.023a1.174,1.174,0,0,1-.479.96,1.751,1.751,0,0,1-1.162.419,1.686,1.686,0,0,1-1.391-.593,2.288,2.288,0,0,1-.482-1.491v-.162a2.28,2.28,0,0,1,.484-1.485,1.9,1.9,0,0,1,2.586-.163,1.342,1.342,0,0,1,.449,1.059l-.008.024h-.686a.879.879,0,0,0-.27-.649.93.93,0,0,0-.682-.268.918.918,0,0,0-.854.428,2.028,2.028,0,0,0-.256,1.054v.161a2.047,2.047,0,0,0,.254,1.064A.918.918,0,0,0,536.231,577.927Z" transform="translate(-516.678 -572.432)"/><path class="e" d="M541.662,576.931l.135.524h.023l1.024-3.147h.845l-1.754,4.808a2.154,2.154,0,0,1-.453.732,1.042,1.042,0,0,1-.8.312,1.681,1.681,0,0,1-.235-.021q-.143-.021-.219-.04l.077-.6a1.209,1.209,0,0,1,.136.007c.107.009.175.013.2.013a.468.468,0,0,0,.4-.217,2.225,2.225,0,0,0,.258-.477l.182-.436-1.549-4.084h.848Z" transform="translate(-518.34 -572.465)"/><path class="e" d="M550.321,577.041h-1.889v-.594h1.889Z" transform="translate(-520.871 -573.102)"/><path class="e" d="M558.662,572.851h-1.8v5.013H556.1v-5.013h-1.8v-.6h4.362Z" transform="translate(-522.62 -571.853)"/><path class="e" d="M562.655,578.524a1.753,1.753,0,0,1-1.385-.58,2.176,2.176,0,0,1-.515-1.5v-.17a2.137,2.137,0,0,1,.53-1.482,1.633,1.633,0,0,1,1.254-.591,1.583,1.583,0,0,1,1.276.509,2.029,2.029,0,0,1,.431,1.356v.474h-2.7l-.012.02a1.647,1.647,0,0,0,.3.985.97.97,0,0,0,.821.386,1.906,1.906,0,0,0,.677-.11,1.528,1.528,0,0,0,.5-.3l.3.495a1.747,1.747,0,0,1-.59.368A2.369,2.369,0,0,1,562.655,578.524Zm-.116-3.729a.827.827,0,0,0-.651.32,1.516,1.516,0,0,0-.331.805l.008.019h1.923v-.1a1.161,1.161,0,0,0-.239-.746A.855.855,0,0,0,562.539,574.794Z" transform="translate(-524.543 -572.432)"/><path class="e" d="M568.914,574.945l-.389-.024a.872.872,0,0,0-.507.143.922.922,0,0,0-.318.4v2.979h-.759v-4.169h.679l.073.607a1.465,1.465,0,0,1,.437-.5,1.03,1.03,0,0,1,.6-.18.938.938,0,0,1,.161.013,1.059,1.059,0,0,1,.127.029Z" transform="translate(-526.386 -572.432)"/><path class="e" d="M571.473,574.275l.053.546a1.422,1.422,0,0,1,.519-.461,1.559,1.559,0,0,1,.73-.164,1.288,1.288,0,0,1,.715.193,1.171,1.171,0,0,1,.449.578,1.539,1.539,0,0,1,.52-.562,1.358,1.358,0,0,1,.755-.208,1.248,1.248,0,0,1,1.006.437,2,2,0,0,1,.37,1.316v2.493h-.759v-2.5a1.383,1.383,0,0,0-.212-.873.773.773,0,0,0-.632-.256.8.8,0,0,0-.63.27,1.179,1.179,0,0,0-.284.682v2.678h-.762v-2.5a1.371,1.371,0,0,0-.218-.857.756.756,0,0,0-.626-.272,1.053,1.053,0,0,0-.571.143.924.924,0,0,0-.343.4v3.086h-.759v-4.169Z" transform="translate(-527.535 -572.432)"/><path class="e" d="M582.988,577.334a.514.514,0,0,0-.191-.412,1.8,1.8,0,0,0-.722-.282,3.047,3.047,0,0,1-1.143-.448.909.909,0,0,1-.383-.772,1.085,1.085,0,0,1,.432-.866,1.963,1.963,0,0,1,2.282.015,1.107,1.107,0,0,1,.411.909l-.008.024h-.724a.664.664,0,0,0-.23-.492.846.846,0,0,0-.607-.217.876.876,0,0,0-.6.177.556.556,0,0,0-.2.428.48.48,0,0,0,.173.39,1.823,1.823,0,0,0,.706.254,3.039,3.039,0,0,1,1.176.46.929.929,0,0,1,.385.781,1.075,1.075,0,0,1-.449.9,1.881,1.881,0,0,1-1.174.342,1.837,1.837,0,0,1-1.256-.4,1.157,1.157,0,0,1-.435-.945l.008-.023h.724a.7.7,0,0,0,.3.588,1.162,1.162,0,0,0,.659.185,1.077,1.077,0,0,0,.634-.164A.5.5,0,0,0,582.988,577.334Z" transform="translate(-530.406 -572.432)"/></g><g transform="translate(255.001 522.027)"><g transform="translate(0 0)"><path class="f" d="M279.852,545.38H278.51v-9.873h1.342Z" transform="translate(-278.51 -534.801)"/><path class="f" d="M284.783,535.81l-1.085,2.346h-.657l.406-2.325V534.5h1.336Z" transform="translate(-279.86 -534.501)"/><path class="f" d="M288.688,539.062l.095.963a2.488,2.488,0,0,1,.913-.81,2.728,2.728,0,0,1,1.283-.289,2.281,2.281,0,0,1,1.259.339,2.06,2.06,0,0,1,.789,1.017,2.734,2.734,0,0,1,.915-.99,2.4,2.4,0,0,1,1.329-.366,2.2,2.2,0,0,1,1.771.77,3.52,3.52,0,0,1,.649,2.316V546.4h-1.334V542a2.445,2.445,0,0,0-.374-1.536,1.359,1.359,0,0,0-1.113-.451,1.417,1.417,0,0,0-1.109.475,2.064,2.064,0,0,0-.5,1.2V546.4h-1.343V542a2.409,2.409,0,0,0-.383-1.509,1.333,1.333,0,0,0-1.1-.479,1.835,1.835,0,0,0-1,.251,1.627,1.627,0,0,0-.6.706V546.4h-1.335v-7.337Z" transform="translate(-281.187 -535.819)"/><path class="f" d="M310.9,539.062l.095,1.092a2.659,2.659,0,0,1,.919-.906,2.45,2.45,0,0,1,1.258-.322,2.4,2.4,0,0,1,1.837.7,3.048,3.048,0,0,1,.651,2.147V546.4H314.32v-4.6a1.98,1.98,0,0,0-.383-1.377,1.535,1.535,0,0,0-1.17-.407,1.88,1.88,0,0,0-1.021.279,2.045,2.045,0,0,0-.709.759V546.4H309.7v-7.337Z" transform="translate(-287.804 -535.819)"/><path class="f" d="M320.5,542.663a4.037,4.037,0,0,1,.882-2.682,2.954,2.954,0,0,1,2.394-1.055,2.985,2.985,0,0,1,2.411,1.052,4.024,4.024,0,0,1,.885,2.685v.149a4.018,4.018,0,0,1-.881,2.685,3.281,3.281,0,0,1-4.8,0,4.007,4.007,0,0,1-.885-2.682Zm1.336.145a3.471,3.471,0,0,0,.491,1.923,1.776,1.776,0,0,0,2.913,0,3.448,3.448,0,0,0,.495-1.923v-.149a3.447,3.447,0,0,0-.5-1.917,1.636,1.636,0,0,0-1.462-.765,1.614,1.614,0,0,0-1.448.765,3.486,3.486,0,0,0-.491,1.917Z" transform="translate(-291.022 -535.819)"/><path class="f" d="M333.64,536.6v1.771h1.391v.989H333.64v4.456a.994.994,0,0,0,.213.725.768.768,0,0,0,.567.211,1.381,1.381,0,0,0,.254-.027,1.454,1.454,0,0,0,.247-.068l.176.915a1.162,1.162,0,0,1-.437.2,2.207,2.207,0,0,1-.58.078,1.728,1.728,0,0,1-1.295-.491,2.133,2.133,0,0,1-.482-1.542v-4.456h-1.167v-.989H332.3V536.6Z" transform="translate(-294.191 -535.125)"/><path class="f" d="M348.35,546.4c-.046-.222-.081-.417-.106-.587a4.3,4.3,0,0,1-.044-.511,3.131,3.131,0,0,1-.973.885,2.5,2.5,0,0,1-1.292.355,2.4,2.4,0,0,1-1.747-.586,2.162,2.162,0,0,1-.6-1.618,1.894,1.894,0,0,1,.852-1.644,3.974,3.974,0,0,1,2.309-.594H348.2v-.724a1.35,1.35,0,0,0-.393-1.022,1.551,1.551,0,0,0-1.113-.376,1.609,1.609,0,0,0-1.047.328.992.992,0,0,0-.4.791h-1.275l-.013-.041a1.773,1.773,0,0,1,.755-1.464,3.108,3.108,0,0,1,2.058-.665,3.031,3.031,0,0,1,2.008.634,2.247,2.247,0,0,1,.76,1.828v3.533a7.005,7.005,0,0,0,.04.76,3.978,3.978,0,0,0,.15.718Zm-2.218-.983a2.386,2.386,0,0,0,1.309-.372,1.775,1.775,0,0,0,.76-.852V543h-1.5a1.948,1.948,0,0,0-1.292.405,1.212,1.212,0,0,0-.484.953,1,1,0,0,0,.305.77A1.276,1.276,0,0,0,346.132,545.416Z" transform="translate(-297.901 -535.819)"/><path class="f" d="M363.214,540.241l-.686-.04a1.533,1.533,0,0,0-.892.251,1.619,1.619,0,0,0-.56.7V546.4h-1.335v-7.337h1.193l.129,1.071a2.55,2.55,0,0,1,.769-.888,1.807,1.807,0,0,1,1.055-.319,1.616,1.616,0,0,1,.284.024,1.718,1.718,0,0,1,.224.051Z" transform="translate(-302.714 -535.819)"/><path class="f" d="M365.885,542.663a4.037,4.037,0,0,1,.882-2.682,2.953,2.953,0,0,1,2.393-1.055,2.985,2.985,0,0,1,2.411,1.052,4.023,4.023,0,0,1,.885,2.685v.149a4.018,4.018,0,0,1-.881,2.685,3.281,3.281,0,0,1-4.8,0,4.007,4.007,0,0,1-.885-2.682Zm1.336.145a3.471,3.471,0,0,0,.491,1.923,1.776,1.776,0,0,0,2.913,0,3.448,3.448,0,0,0,.495-1.923v-.149a3.453,3.453,0,0,0-.5-1.917,1.636,1.636,0,0,0-1.462-.765,1.613,1.613,0,0,0-1.448.765,3.486,3.486,0,0,0-.491,1.917Z" transform="translate(-304.544 -535.819)"/><path class="f" d="M383.84,541.69a4.031,4.031,0,0,1-.762,2.56,2.52,2.52,0,0,1-2.1.974,2.675,2.675,0,0,1-1.261-.281,2.349,2.349,0,0,1-.889-.831l-.163.969h-1.091V534.5h1.335v4.111a2.314,2.314,0,0,1,.859-.747,2.629,2.629,0,0,1,1.2-.258,2.437,2.437,0,0,1,2.116,1.085,4.878,4.878,0,0,1,.76,2.856Zm-1.337-.142a4.052,4.052,0,0,0-.464-2.058,1.527,1.527,0,0,0-1.414-.8,1.752,1.752,0,0,0-1.041.3,2.135,2.135,0,0,0-.675.811v3.18a2.191,2.191,0,0,0,.675.848,1.741,1.741,0,0,0,1.055.3,1.589,1.589,0,0,0,1.4-.67,3.092,3.092,0,0,0,.461-1.778Z" transform="translate(-308.027 -534.501)"/><path class="f" d="M388.373,542.663a4.037,4.037,0,0,1,.882-2.682,3.266,3.266,0,0,1,4.8,0,4.023,4.023,0,0,1,.885,2.685v.149a4.015,4.015,0,0,1-.881,2.685,3.281,3.281,0,0,1-4.8,0,4.01,4.01,0,0,1-.885-2.682Zm1.336.145a3.465,3.465,0,0,0,.492,1.923,1.775,1.775,0,0,0,2.913,0,3.448,3.448,0,0,0,.5-1.923v-.149a3.447,3.447,0,0,0-.5-1.917,1.636,1.636,0,0,0-1.462-.765,1.612,1.612,0,0,0-1.448.765,3.48,3.48,0,0,0-.492,1.917Z" transform="translate(-311.245 -535.819)"/><path class="f" d="M401.513,536.6v1.771H402.9v.989h-1.391v4.456a.994.994,0,0,0,.213.725.768.768,0,0,0,.567.211,1.381,1.381,0,0,0,.254-.027,1.452,1.452,0,0,0,.247-.068l.176.915a1.161,1.161,0,0,1-.437.2,2.207,2.207,0,0,1-.58.078,1.731,1.731,0,0,1-1.3-.491,2.133,2.133,0,0,1-.481-1.542v-4.456H399.01v-.989h1.167V536.6Z" transform="translate(-314.414 -535.125)"/></g></g><path class="g" d="M247.744,547.918a3.466,3.466,0,0,1-3.469,3.464H224.833a3.467,3.467,0,0,1-3.469-3.464V528.467A3.467,3.467,0,0,1,224.833,525h19.441a3.467,3.467,0,0,1,3.469,3.465Z" transform="translate(-6.481 -9.644)"/><path class="h" d="M529.993,526.382h7.079a7.287,7.287,0,0,1,.127-1.342h-7.144C530.015,525.482,529.993,525.929,529.993,526.382Z" transform="translate(-98.441 -9.655)"/><path class="i" d="M550.426,506.517V513.6a7.307,7.307,0,0,1,1.08.082v-7.119C551.15,506.532,550.79,506.517,550.426,506.517Z" transform="translate(-104.529 -4.136)"/></g></svg>