<svg xmlns="http://www.w3.org/2000/svg" width="79.816" height="79.816" viewBox="0 0 79.816 79.816">
  <g id="increase" transform="translate(-1 -1)">
    <path id="Path_7454" data-name="Path 7454" d="M56.734,33.837,41.663,48.908h-5.9V46.333h-.033a12.881,12.881,0,0,0,4.923-7.724h.26a5.155,5.155,0,0,0,5.149-5.149,5.1,5.1,0,0,0-1.287-3.37V25.736a16.736,16.736,0,1,0-33.471,0V30.09a5.1,5.1,0,0,0-1.287,3.37,5.155,5.155,0,0,0,5.149,5.149h.26a12.881,12.881,0,0,0,4.923,7.724H20.31v2.575H13.874A12.888,12.888,0,0,0,1,61.782V77.23a1.286,1.286,0,0,0,1.287,1.287H53.782a1.286,1.286,0,0,0,1.287-1.287V61.782a12.89,12.89,0,0,0-10.08-12.56L58.177,36.035h22.64V33.46H57.644A1.282,1.282,0,0,0,56.734,33.837ZM20.994,51.483,26,57.495l-4.942,2.47-2.828-8.482ZM27.8,65.644h.465l2.06,10.3H25.743Zm.723-2.575h-.984L26.158,60.3l1.877-.938,1.877.938Zm1.538-5.574,5.01-6.012h2.76l-2.828,8.484Zm10.843-21.46V30.885a2.575,2.575,0,1,1,0,5.149ZM12.586,33.46a2.577,2.577,0,0,1,2.575-2.575v5.149A2.577,2.577,0,0,1,12.586,33.46Zm2.575-5.149a5.071,5.071,0,0,0-1.287.183V25.736a14.161,14.161,0,0,1,28.322,0v2.758a5.071,5.071,0,0,0-1.287-.183,1.286,1.286,0,0,0-1.287-1.287,6.467,6.467,0,0,1-5.149-2.576l-1.545-2.06a1.337,1.337,0,0,0-2.06,0l-1.545,2.061a6.469,6.469,0,0,1-5.149,2.575H16.448a1.286,1.286,0,0,0-1.287,1.287Zm2.575,7.724V29.6h6.437a9.057,9.057,0,0,0,7.209-3.6l.515-.687.515.686A9.059,9.059,0,0,0,38.333,29.5v6.531a10.3,10.3,0,0,1-20.6,0Zm10.3,12.874a12.783,12.783,0,0,0,5.149-1.083v1.9l-5.149,6.179L22.885,49.73v-1.9A12.783,12.783,0,0,0,28.035,48.908ZM3.575,61.782a10.311,10.311,0,0,1,10.3-10.3h1.648L19.09,62.189a1.288,1.288,0,0,0,.727.781,1.263,1.263,0,0,0,.493.1,1.289,1.289,0,0,0,.575-.135l2.967-1.484L25.4,64.538l-2.28,11.4H11.3V68.219H8.724v7.724H3.575Zm48.92,0V75.943H47.345V68.219H44.77v7.724H32.952l-2.281-11.4,1.544-3.088,2.967,1.484a1.3,1.3,0,0,0,.577.135,1.285,1.285,0,0,0,1.22-.879l3.569-10.707H42.2A10.311,10.311,0,0,1,52.494,61.782Z" transform="translate(0 2.299)" fill="#fff"/>
    <path id="Path_7455" data-name="Path 7455" d="M67.9,28.31V10.287A1.286,1.286,0,0,0,66.609,9H61.46a1.286,1.286,0,0,0-1.287,1.287V28.31H57.6v-10.3a1.286,1.286,0,0,0-1.287-1.287H51.161a1.286,1.286,0,0,0-1.287,1.287v10.3H47.3V21.874a1.286,1.286,0,0,0-1.287-1.287H40.862a1.286,1.286,0,0,0-1.287,1.287V28.31H37v2.575H70.471V28.31ZM62.747,11.575h2.575V28.31H62.747ZM52.448,19.3h2.575V28.31H52.448Zm-10.3,3.862h2.575V28.31H42.149Z" transform="translate(10.345 2.299)" fill="#fff"/>
    <path id="Path_7456" data-name="Path 7456" d="M48.46,8.724h7.191a1.282,1.282,0,0,0,.91-.377L59.514,5.4V8.724h2.575V2.287A1.286,1.286,0,0,0,60.8,1H54.364V3.575h3.329L55.119,6.149H47.927a1.282,1.282,0,0,0-.91.377l-7.724,7.724,1.82,1.82Z" transform="translate(11.004)" fill="#fff"/>
  </g>
</svg>
