<svg xmlns="http://www.w3.org/2000/svg" xmlns:xlink="http://www.w3.org/1999/xlink" width="50.43" height="50.43" viewBox="0 0 50.43 50.43">
  <defs>
    <filter id="Path_267" x="0" y="0" width="50.43" height="50.43" filterUnits="userSpaceOnUse">
      <feOffset dy="3" input="SourceAlpha"/>
      <feGaussianBlur stdDeviation="3" result="blur"/>
      <feFlood flood-opacity="0.161"/>
      <feComposite operator="in" in2="blur"/>
      <feComposite in="SourceGraphic"/>
    </filter>
  </defs>
  <g id="instagram_4_" data-name="instagram (4)" transform="translate(9 6)">
    <g transform="matrix(1, 0, 0, 1, -9, -6)" filter="url(#Path_267)">
      <path id="Path_267-2" data-name="Path 267" d="M27.679,0H4.75A4.756,4.756,0,0,0,0,4.75V27.679a4.756,4.756,0,0,0,4.75,4.75H27.679a4.756,4.756,0,0,0,4.75-4.75V4.75A4.756,4.756,0,0,0,27.679,0Zm-11.4,24.7a8.551,8.551,0,1,1,8.551-8.551A8.56,8.56,0,0,1,16.278,24.7Zm9.5-15.2a2.85,2.85,0,1,1,2.85-2.85A2.854,2.854,0,0,1,25.779,9.5Zm0,0" transform="translate(9 6)" fill="#01e9a1"/>
    </g>
    <path id="Path_268" data-name="Path 268" d="M392.95,90a.95.95,0,1,0,.95.95A.951.951,0,0,0,392.95,90Zm0,0" transform="translate(-367.171 -84.299)" fill="#01e9a1"/>
    <path id="Path_269" data-name="Path 269" d="M158.651,150a6.651,6.651,0,1,0,6.651,6.651A6.659,6.659,0,0,0,158.651,150Zm0,0" transform="translate(-142.372 -140.499)" fill="#01e9a1"/>
  </g>
</svg>
