<svg xmlns="http://www.w3.org/2000/svg" width="67.013" height="67.013" viewBox="0 0 67.013 67.013"><defs><style>.a{fill:#01e9a1;}.b{fill:#fff;}</style></defs><g transform="translate(0)"><path class="a" d="M65.8,20.044a1.963,1.963,0,0,0-2.14.426l-2.538,2.538-2.538-2.538a1.963,1.963,0,0,0-2.776,0L53.27,23.008l-1.963-1.963V9.816A9.828,9.828,0,0,0,41.491,0H10.078A10.034,10.034,0,0,0,0,9.816V65.049a1.963,1.963,0,0,0,3.306,1.432l2.8-2.626L8.69,66.438a1.963,1.963,0,0,0,2.776,0L14,63.9l2.538,2.538a1.963,1.963,0,0,0,2.776,0L21.858,63.9,24.4,66.438a1.963,1.963,0,0,0,2.776,0L29.711,63.9l2.538,2.538A1.963,1.963,0,0,0,35.6,65.05v-21.6H57.2a9.827,9.827,0,0,0,9.816-9.816V21.858A1.963,1.963,0,0,0,65.8,20.044ZM31.674,60.31l-.575-.575a1.963,1.963,0,0,0-2.776,0l-2.538,2.538-2.538-2.538a1.963,1.963,0,0,0-2.776,0l-2.538,2.538-2.538-2.538a1.963,1.963,0,0,0-2.776,0l-2.538,2.538L7.54,59.735a1.963,1.963,0,0,0-2.731-.044l-.882.827V9.816a6.106,6.106,0,0,1,6.152-5.89H33.642a9.766,9.766,0,0,0-1.969,5.89ZM35.6,9.816a5.89,5.89,0,0,1,11.78,0V33.637a9.765,9.765,0,0,0,1.969,5.89H35.6ZM63.086,33.637a5.89,5.89,0,0,1-11.78,0V26.6l.575.575a1.963,1.963,0,0,0,2.776,0L57.2,24.634l2.538,2.538a1.963,1.963,0,0,0,2.776,0l.575-.575v7.04Z"/><path class="b" d="M79.669,302H63.963a1.963,1.963,0,1,0,0,3.927H79.669a1.963,1.963,0,1,0,0-3.927Z" transform="translate(-53.885 -262.473)"/><path class="b" d="M79.669,362H63.963a1.963,1.963,0,1,0,0,3.927H79.669a1.963,1.963,0,0,0,0-3.927Z" transform="translate(-53.885 -314.62)"/><path class="b" d="M86.816,81.633H82.89a1.965,1.965,0,0,1-1.963-1.963,1.963,1.963,0,0,0-3.927,0,5.9,5.9,0,0,0,5.89,5.89v1.963a1.963,1.963,0,0,0,3.927,0V85.559a5.89,5.89,0,0,0,0-11.78H82.89a1.963,1.963,0,0,1,0-3.927h3.927a1.965,1.965,0,0,1,1.963,1.963,1.963,1.963,0,0,0,3.927,0,5.9,5.9,0,0,0-5.89-5.89V63.963a1.963,1.963,0,1,0-3.927,0v1.963a5.89,5.89,0,0,0,0,11.78h3.927a1.963,1.963,0,1,1,0,3.927Z" transform="translate(-66.922 -53.885)"/></g></svg>