<svg xmlns="http://www.w3.org/2000/svg" width="39.434" height="34.297" viewBox="0 0 39.434 34.297"><defs><style>.a{fill:#04bbfd;}.b{fill:#56ffca;}.c{fill:#01e9a1;}.d{fill:#102d37;opacity:0.31;}.e{fill:#02c287;}.f{fill:#4a80aa;}.g{fill:#1e4b58;}.h{fill:#f4fbff;}.i{fill:#e4f6ff;stroke:#102d37;}.j{fill:#cbe2ff;}.k{fill:#bed8fb;}</style></defs><g transform="translate(0 -30.487)"><g transform="translate(0 30.487)"><g transform="translate(11.214)"><path class="a" d="M159.694,39.469a1.216,1.216,0,0,1-1.214-1.214V33.861a.947.947,0,0,0-.946-.946h-6.688a.947.947,0,0,0-.946.946v4.393a1.214,1.214,0,1,1-2.429,0V33.861a3.378,3.378,0,0,1,3.374-3.374h6.688a3.378,3.378,0,0,1,3.374,3.374v4.393A1.215,1.215,0,0,1,159.694,39.469Z" transform="translate(-147.472 -30.487)"/></g><g transform="translate(0 6.008)"><path class="b" d="M0,188.24v15.621a3.484,3.484,0,0,0,3.484,3.484H28.3a3.484,3.484,0,0,0,3.484-3.484V188.24Z" transform="translate(0 -182.252)"/><path class="c" d="M365.543,109.5h-4.961a3.484,3.484,0,0,1,3.484,3.484v18.125a3.484,3.484,0,0,1-3.484,3.484h4.961a3.484,3.484,0,0,0,3.484-3.484V112.983A3.484,3.484,0,0,0,365.543,109.5Z" transform="translate(-333.162 -109.499)"/><path class="d" d="M31.785,121.314v-8.33A3.484,3.484,0,0,0,28.3,109.5H3.484A3.484,3.484,0,0,0,0,112.983v2.423a6.314,6.314,0,0,0,6.314,6.314H29.551A6.3,6.3,0,0,0,31.785,121.314Z" transform="translate(0 -108.499)"/><path class="e" d="M365.543,109.5h-4.961a3.484,3.484,0,0,1,3.484,3.484v8.59a6.315,6.315,0,0,0,4.961-6.167v-2.423A3.484,3.484,0,0,0,365.543,109.5Z" transform="translate(-333.162 -109.499)"/><path class="c" d="M31.785,121.314v-8.33A3.484,3.484,0,0,0,28.3,109.5H3.484A3.484,3.484,0,0,0,0,112.983v2.423a6.314,6.314,0,0,0,6.314,6.314H29.551A6.3,6.3,0,0,0,31.785,121.314Z" transform="translate(0 -109.499)"/></g><g transform="translate(6.386 15.525)"><path class="f" d="M85.612,241.688a1.628,1.628,0,0,1-1.628-1.628v-3.784a1.628,1.628,0,0,1,3.256,0v3.784A1.628,1.628,0,0,1,85.612,241.688Z" transform="translate(-83.984 -234.647)"/><path class="g" d="M83.984,289.8v1.219a1.628,1.628,0,0,0,3.256,0V289.8Z" transform="translate(-83.984 -285.603)"/></g><g transform="translate(14.333 9.696)"><path class="h" d="M0,0H2.363V4.95H0Z" transform="translate(9.319 13.606) rotate(45)"/><path class="a" d="M195.611,389.974l-2.174-2.174-.677.242-3.735,3.735a1.845,1.845,0,1,0,2.609,2.609l3.735-3.735Z" transform="translate(-188.485 -370.325)"/><path class="f" d="M248.372,376.2l-1.615-1.615a.7.7,0,0,0-.994,0l-1.057,1.057,2.609,2.609,1.057-1.057A.7.7,0,0,0,248.372,376.2Z" transform="translate(-240.431 -357.925)"/><circle class="i" cx="9.149" cy="9.149" r="9.149" transform="translate(6.303)"/><circle class="j" cx="6.469" cy="6.469" r="6.469" transform="translate(8.983 2.68)"/><path class="k" d="M366.123,195.141a6.47,6.47,0,0,0-7.055-1.4,6.471,6.471,0,0,1,0,11.951,6.47,6.47,0,0,0,7.055-10.55Z" transform="translate(-346.096 -190.566)"/></g></g></g></svg>