<svg xmlns="http://www.w3.org/2000/svg" xmlns:xlink="http://www.w3.org/1999/xlink" width="83.967" height="103.071" viewBox="0 0 83.967 103.071"><defs><style>.a{fill:url(#a);}.b{fill:url(#c);}.c{fill:url(#d);}</style><linearGradient id="a" x1="-0.852" y1="0.401" x2="1.711" y2="0.589" gradientUnits="objectBoundingBox"><stop offset="0" stop-color="#fff"/><stop offset="0.008" stop-color="#01ea9e"/><stop offset="1" stop-color="#03bfff"/></linearGradient><linearGradient id="c" x1="-0.002" y1="0.431" x2="0.993" y2="0.601" xlink:href="#a"/><linearGradient id="d" x1="-0.673" y1="0.457" x2="8.392" y2="0.918" gradientUnits="objectBoundingBox"><stop offset="0.221" stop-color="#01bdfd"/><stop offset="1" stop-color="#457ae6"/></linearGradient></defs><g transform="translate(0)"><g transform="translate(0 0)"><circle class="a" cx="6.571" cy="6.571" r="6.571" transform="translate(14.914 3.727)"/><circle class="a" cx="6.571" cy="6.571" r="6.571" transform="translate(55.464 3.727)"/><path class="b" d="M540.762,84.389a3.444,3.444,0,0,1,4.58.783c2.5,3.132,8.271,9.852,12.29,10.425,3.754.751,9.762-.375,12.765-5.256,3.755-5.631,7.134-14.267,7.885-15.393s4.505-2.629,6.758,2.628,7.509,15.769,13.141,17.647c3,.751,9.762,1.5,15.769-6.758,2.807-3.509,4.631-6.69,7.923-4.026a3.906,3.906,0,0,1,1.217,1.662c.528,1.425.528,3.96-5.385,6.494-6.007,4.505-11.639,9.011-13.892,14.268-.962,1.6-3.02,4.576-6.875,1.9A9.419,9.419,0,0,1,594,105.368c-3.6-6.868-9.844-21.061-11.583-21.409-1.877-.376-3,0-6.007,5.256-3,6.758-7.509,17.271-10.137,19.149s-5.256,1.877-7.134-1.127-5.256-7.509-7.509-9.387-10.671-7.291-11.264-7.884C539.61,89.215,538.311,86.041,540.762,84.389Z" transform="translate(-539.339 -73.849)"/></g><g transform="translate(21.347 44.63)"><path class="c" d="M572.281,127.111v26.022c4.2-5.5,8.325-11.07,13.336-15.841,2.586-2.422,5.173-2.83,8.648-2.83h6.223v.408c-3.071,2.586-13.174,14.058-17.7,19.8,3.475,4.285,6.87,8.734,10.749,12.7,3.961,3.955,5.739,4.765,8.406,5.654-1.132,3.475-2.91,5.337-7.356,5.337a10.611,10.611,0,0,1-7.112-2.994,185.974,185.974,0,0,1-15.2-18.586v21.257l-3.476.079c-5.011.078-7.435-2.587-7.435-7.681V119.911h3.475C570.1,119.911,572.281,122.906,572.281,127.111Z" transform="translate(-561.37 -119.911)"/></g></g></svg>