<svg xmlns="http://www.w3.org/2000/svg" xmlns:xlink="http://www.w3.org/1999/xlink" width="178.631" height="73.748" viewBox="0 0 178.631 73.748"><defs><style>.a{fill:url(#a);}.b{fill:url(#c);}.c{fill:url(#d);}.d{fill:url(#e);}.e{fill:url(#f);}.f{fill:url(#g);}.g{fill:url(#h);}.h{fill:url(#i);}.i{fill:url(#j);}.j{fill:url(#k);}.k{fill:url(#l);}.l{fill:#102d37;}</style><linearGradient id="a" x1="-0.852" y1="0.401" x2="1.711" y2="0.589" gradientUnits="objectBoundingBox"><stop offset="0" stop-color="#fff"/><stop offset="0.008" stop-color="#01ea9e"/><stop offset="1" stop-color="#03bfff"/></linearGradient><linearGradient id="c" x1="-0.002" y1="0.431" x2="0.993" y2="0.601" xlink:href="#a"/><linearGradient id="d" x1="-0.673" y1="0.457" x2="8.392" y2="0.918" gradientUnits="objectBoundingBox"><stop offset="0.221" stop-color="#01bdfd"/><stop offset="1" stop-color="#457ae6"/></linearGradient><linearGradient id="e" x1="-1.653" y1="0.354" x2="7.064" y2="0.945" xlink:href="#d"/><linearGradient id="f" x1="-5.695" y1="0.34" x2="11.74" y2="0.799" xlink:href="#d"/><linearGradient id="g" x1="-6.938" y1="0.307" x2="10.497" y2="0.766" xlink:href="#d"/><linearGradient id="h" x1="-8.437" y1="0.277" x2="9.549" y2="0.727" xlink:href="#d"/><linearGradient id="i" x1="-4.922" y1="0.227" x2="4.215" y2="0.686" xlink:href="#d"/><linearGradient id="j" x1="-6.816" y1="0.072" x2="3.364" y2="0.668" xlink:href="#d"/><linearGradient id="k" x1="-11.244" y1="0.088" x2="2.977" y2="0.587" xlink:href="#d"/><linearGradient id="l" x1="-8.281" y1="-0.051" x2="1.199" y2="0.54" xlink:href="#d"/></defs><g transform="translate(-539.339 -73.849)"><g transform="translate(539.339 73.849)"><circle class="a" cx="3.286" cy="3.286" r="3.286" transform="translate(7.458 1.864)"/><circle class="a" cx="3.286" cy="3.286" r="3.286" transform="translate(27.737 1.864)"/><path class="b" d="M540.051,79.12a1.722,1.722,0,0,1,2.29.392c1.249,1.567,4.136,4.927,6.146,5.214a6.268,6.268,0,0,0,6.384-2.629c1.878-2.816,3.568-7.135,3.943-7.7s2.253-1.315,3.38,1.314,3.755,7.886,6.572,8.825c1.5.376,4.882.751,7.886-3.38,1.4-1.755,2.316-3.346,3.962-2.013a1.952,1.952,0,0,1,.609.831c.264.713.264,1.98-2.693,3.247-3,2.253-5.821,4.506-6.947,7.135-.481.8-1.51,2.288-3.438.95a4.711,4.711,0,0,1-1.472-1.7c-1.8-3.434-4.923-10.532-5.793-10.706-.939-.188-1.5,0-3,2.629-1.5,3.38-3.755,8.637-5.069,9.576s-2.629.939-3.568-.564a24.236,24.236,0,0,0-3.755-4.694c-1.127-.939-5.336-3.646-5.633-3.943C539.474,81.533,538.825,79.946,540.051,79.12Z" transform="translate(-539.339 -73.849)"/></g><g transform="translate(550.014 95.562)"><path class="c" d="M566.826,123.512v13.013A65.982,65.982,0,0,1,573.5,128.6a5.594,5.594,0,0,1,4.325-1.415h3.112v.2a114.689,114.689,0,0,0-8.852,9.9c1.738,2.143,3.435,4.368,5.375,6.349,1.981,1.978,2.87,2.383,4.2,2.827a3.333,3.333,0,0,1-3.679,2.669,5.307,5.307,0,0,1-3.557-1.5,93.005,93.005,0,0,1-7.6-9.294v10.63l-1.738.04c-2.506.039-3.718-1.294-3.718-3.841V119.911h1.738C565.735,119.911,566.826,121.409,566.826,123.512Z" transform="translate(-561.37 -119.305)"/><path class="d" d="M615.732,133.93c6.548,0,10.307,5.253,10.307,11.035,0,6.546-3.759,11.759-10.792,11.759-6.549,0-10.307-5.213-10.307-10.992C604.94,139.183,608.7,133.93,615.732,133.93Zm-.485,4.851c-3.113,0-4.689,2.587-4.689,6.184,0,4.325,1.576,6.911,5.174,6.911,3.152,0,4.688-2.587,4.688-6.144C620.421,141.368,618.8,138.781,615.247,138.781Z" transform="translate(-583.829 -126.532)"/><path class="e" d="M664.6,149.215c-4.486,0-6.911-2.382-6.911-6.789V119.911h1.536c2.708,0,3.88,1.577,3.88,3.64V141.9c0,2.182,1.132,2.867,3.678,2.867h1.455v1.175C668.236,148.288,666.983,149.215,664.6,149.215Z" transform="translate(-611.018 -119.305)"/><path class="f" d="M691.807,149.215c-4.487,0-6.911-2.382-6.911-6.789V119.911h1.536c2.709,0,3.881,1.577,3.881,3.64V141.9c0,2.182,1.131,2.867,3.678,2.867h1.455v1.175C695.445,148.288,694.192,149.215,691.807,149.215Z" transform="translate(-625.043 -119.305)"/><path class="g" d="M715.257,125.007a3.191,3.191,0,0,1-3.153-3.193,3.157,3.157,0,0,1,3.153-3.153,3.192,3.192,0,0,1,3.193,3.153A3.226,3.226,0,0,1,715.257,125.007Zm3.84,23.565c-4.2,0-6.508-2.382-6.508-6.789V127.027h1.536c2.425,0,3.88,1.3,3.88,4.045v10.186c0,2.182.93,2.867,3.314,2.867h1.011V145.3C722.33,147.643,721.4,148.571,719.1,148.571Z" transform="translate(-639.067 -118.661)"/><path class="h" d="M757.692,150.139c.04.889.081,2.06.081,2.788,0,5.457-3.638,10.347-10.671,10.347-4.486,0-7.558-2.182-7.558-4.769v-2.465h.242c1.294,1.372,3.8,2.343,6.912,2.343,3.921,0,5.821-1.86,5.7-5.013l-.08-2.222v-.527c-.445,1.577-2.507,3.232-5.619,3.232-5.3,0-9.054-3.676-9.054-8.81,0-6.144,4.042-11.114,11.075-11.114,5.416,0,8.892,3.96,8.892,9.538v3.719C757.611,147.914,757.652,149.168,757.692,150.139Zm-14.47-5.783c0,2.83,1.738,4.933,4.325,4.933,2.708,0,4.648-2.021,4.648-5.5,0-3.393-1.7-5.052-4.082-5.052C745.324,138.739,743.222,141.085,743.222,144.357Z" transform="translate(-652.232 -126.532)"/><path class="i" d="M797.878,156.69h-1.091c-5.174,0-8.731-2.913-8.731-6.915,0-3.88,2.83-6.829,10.833-6.829h1.9v-.283c0-3.071-1.455-4-4.689-4-3.92,0-6.1,1.494-6.912,2.508h-.2v-1.741c0-2.422,2.183-5.335,7.922-5.335,4.851,0,9.216,2.265,9.216,9.781v5.013C806.124,153.494,802.729,156.69,797.878,156.69Zm2.951-9.864h-1.94c-4.123,0-5.3.971-5.3,2.748,0,1.7,1.374,2.709,3.759,2.709,2.344,0,3.476-1.132,3.476-3.354Z" transform="translate(-678.218 -126.616)"/><path class="j" d="M836.2,126.248a3.787,3.787,0,0,1,2.547-1.494H840v4.93h7.558v2.225c0,1.128-1.011,2.586-3.233,2.586H840v8.527c0,2.831,1.253,3.92,3.435,3.92a7.71,7.71,0,0,0,3.921-.767h.2v1.939c0,2.225-1.616,3.64-4.77,3.64-5.5,0-8.164-2.992-8.164-8.086v-13.1A5.421,5.421,0,0,1,836.2,126.248Z" transform="translate(-702.224 -121.802)"/><path class="k" d="M875.1,147.671h-3.557c.4,2.748,2.91,4.489,6.1,4.489,2.264,0,4.932-.444,6.67-2.063h.2v1.7c0,2.788-1.9,4.93-7.882,4.93a10.75,10.75,0,0,1-10.711-10.953c0-7.273,4.447-11.842,10.671-11.842a8.424,8.424,0,0,1,8.73,8.448C885.328,146.377,882.3,147.671,875.1,147.671Zm1.01-9.215a4.66,4.66,0,0,0-4.567,4.651l-.041.727h2.426c5.133,0,6.3-.566,6.3-2.1C880.235,139.548,878.619,138.456,876.113,138.456Z" transform="translate(-718.357 -126.532)"/></g><g transform="translate(581.868 136.027)"><path class="l" d="M632.392,203.72v.828h-2.126v6.971h-1.018v-6.971h-2.137v-.828Z" transform="translate(-627.111 -202.97)"/><path class="l" d="M645.752,210.5h-4.9a1.927,1.927,0,0,0,1.991,1.925,1.881,1.881,0,0,0,1.1-.308,1.628,1.628,0,0,0,.621-.822h1.1a2.635,2.635,0,0,1-.984,1.438,2.97,2.97,0,0,1-1.836.554,3.1,3.1,0,0,1-1.561-.392,2.77,2.77,0,0,1-1.08-1.113,3.457,3.457,0,0,1-.392-1.673,3.5,3.5,0,0,1,.381-1.667,2.673,2.673,0,0,1,1.068-1.1,3.181,3.181,0,0,1,1.583-.385,3.079,3.079,0,0,1,1.544.38,2.638,2.638,0,0,1,1.035,1.047,3.083,3.083,0,0,1,.364,1.5A6.015,6.015,0,0,1,645.752,210.5Zm-1.275-1.829a1.67,1.67,0,0,0-.7-.638,2.184,2.184,0,0,0-.979-.218,1.889,1.889,0,0,0-1.315.492,2.007,2.007,0,0,0-.621,1.365h3.871A1.878,1.878,0,0,0,644.477,208.671Z" transform="translate(-633.657 -204.637)"/><path class="l" d="M663.563,207.227a2.143,2.143,0,0,1,.884.89,2.968,2.968,0,0,1,.325,1.443v3.614h-1.007V209.7a1.988,1.988,0,0,0-.453-1.4,1.6,1.6,0,0,0-1.225-.486,1.636,1.636,0,0,0-1.264.509,2.1,2.1,0,0,0-.47,1.472v3.379h-1.007V209.7a1.988,1.988,0,0,0-.453-1.4,1.6,1.6,0,0,0-1.225-.486,1.638,1.638,0,0,0-1.264.509,2.1,2.1,0,0,0-.47,1.472v3.379h-1.018v-6.131h1.018v.884a2.014,2.014,0,0,1,.811-.738,2.458,2.458,0,0,1,1.125-.257,2.655,2.655,0,0,1,1.365.347,2.117,2.117,0,0,1,.884,1.018,2.012,2.012,0,0,1,.85-1.007,2.51,2.51,0,0,1,1.32-.358A2.683,2.683,0,0,1,663.563,207.227Z" transform="translate(-641.442 -204.625)"/><path class="l" d="M680.617,207.306a2.694,2.694,0,0,1,1.393-.352,2.872,2.872,0,0,1,1.483.391,2.764,2.764,0,0,1,1.046,1.1,3.451,3.451,0,0,1,.38,1.65,3.53,3.53,0,0,1-.38,1.656,2.787,2.787,0,0,1-2.529,1.533,2.676,2.676,0,0,1-1.382-.352,2.513,2.513,0,0,1-.912-.878v4.039H678.7v-9.041h1.018v1.13A2.424,2.424,0,0,1,680.617,207.306Zm2.982,1.583a1.937,1.937,0,0,0-.755-.783,2.094,2.094,0,0,0-1.046-.269,2.037,2.037,0,0,0-1.035.274,2,2,0,0,0-.761.795,2.457,2.457,0,0,0-.285,1.2,2.483,2.483,0,0,0,.285,1.214,2,2,0,0,0,.761.794,2.036,2.036,0,0,0,1.035.274,2.059,2.059,0,0,0,1.046-.274,1.969,1.969,0,0,0,.755-.794,2.556,2.556,0,0,0,.28-1.225A2.5,2.5,0,0,0,683.6,208.889Z" transform="translate(-653.702 -204.637)"/><path class="l" d="M701.327,211.216a2.3,2.3,0,0,1-.956-.761,1.949,1.949,0,0,1-.358-1.125H701.1a1.431,1.431,0,0,0,.453.924,1.628,1.628,0,0,0,1.158.375,1.69,1.69,0,0,0,1.147-.364,1.179,1.179,0,0,0,.42-.934,1.063,1.063,0,0,0-.246-.727,1.583,1.583,0,0,0-.615-.425,9.762,9.762,0,0,0-1-.313,8.894,8.894,0,0,1-1.237-.4,2,2,0,0,1-.794-.633,1.854,1.854,0,0,1-.33-1.158,2.006,2.006,0,0,1,.325-1.13,2.116,2.116,0,0,1,.912-.761,3.205,3.205,0,0,1,1.348-.269,2.826,2.826,0,0,1,1.8.548,2.027,2.027,0,0,1,.789,1.455h-1.119a1.209,1.209,0,0,0-.47-.789,1.671,1.671,0,0,0-1.1-.341,1.586,1.586,0,0,0-1.041.33,1.127,1.127,0,0,0-.4.923,1,1,0,0,0,.24.694,1.557,1.557,0,0,0,.593.408q.352.14.99.319a9.393,9.393,0,0,1,1.242.419,2.072,2.072,0,0,1,.806.638,1.856,1.856,0,0,1,.336,1.169,2.056,2.056,0,0,1-.3,1.074,2.222,2.222,0,0,1-.895.816,2.955,2.955,0,0,1-1.4.313A3.338,3.338,0,0,1,701.327,211.216Z" transform="translate(-664.689 -202.863)"/><path class="l" d="M714.664,206.358v3.614a.858.858,0,0,0,.19.632.937.937,0,0,0,.66.185h.75v.862h-.917a1.826,1.826,0,0,1-1.276-.392,1.681,1.681,0,0,1-.425-1.286v-3.614h-.794v-.839h.794v-1.544h1.019v1.544h1.6v.839Z" transform="translate(-671.307 -203.102)"/><path class="l" d="M722.029,208.447a2.757,2.757,0,0,1,1.046-1.1,2.867,2.867,0,0,1,1.482-.391,2.722,2.722,0,0,1,1.4.346,2.318,2.318,0,0,1,.884.873v-1.119h1.03v6.131h-1.03v-1.141a2.4,2.4,0,0,1-.9.889,2.7,2.7,0,0,1-1.393.352,2.782,2.782,0,0,1-1.476-.4,2.827,2.827,0,0,1-1.041-1.13,3.518,3.518,0,0,1-.38-1.656A3.44,3.44,0,0,1,722.029,208.447Zm4.531.453a1.978,1.978,0,0,0-.755-.788,2.14,2.14,0,0,0-2.087-.005,1.944,1.944,0,0,0-.749.783,2.493,2.493,0,0,0-.28,1.208,2.551,2.551,0,0,0,.28,1.225,1.978,1.978,0,0,0,.749.794,2.031,2.031,0,0,0,1.041.274,2.058,2.058,0,0,0,1.046-.274,1.966,1.966,0,0,0,.755-.794,2.526,2.526,0,0,0,.28-1.214A2.5,2.5,0,0,0,726.561,208.9Z" transform="translate(-675.842 -204.637)"/><path class="l" d="M739.9,205.429H738.61v5.292h-1.018v-5.292H736.8v-.839h.795v-.437a1.925,1.925,0,0,1,.531-1.5,2.523,2.523,0,0,1,1.707-.475v.851a1.353,1.353,0,0,0-.946.263,1.162,1.162,0,0,0-.274.867v.437H739.9Z" transform="translate(-683.65 -202.173)"/><path class="l" d="M746.219,204.59h3.48v6.131h-1.018v-5.292h-2.462v5.292H745.2v-5.292h-.783v-.839h.783v-.437a1.925,1.925,0,0,1,.531-1.5,2.523,2.523,0,0,1,1.707-.475v.851a1.351,1.351,0,0,0-.945.263,1.159,1.159,0,0,0-.274.867Zm2.49-1.2a.716.716,0,0,1,0-.984.689.689,0,0,1,.973,0,.716.716,0,0,1,0,.984.687.687,0,0,1-.973,0Z" transform="translate(-687.578 -202.173)"/><path class="l" d="M763.626,207.607a2.6,2.6,0,0,1,.694,1.953v3.614h-1.007V209.7a1.974,1.974,0,0,0-.458-1.4,1.643,1.643,0,0,0-1.253-.486,1.681,1.681,0,0,0-1.282.5,2.058,2.058,0,0,0-.475,1.466v3.39h-1.019v-6.131h1.019v.873a2.021,2.021,0,0,1,.822-.728,2.552,2.552,0,0,1,1.147-.257A2.487,2.487,0,0,1,763.626,207.607Z" transform="translate(-695.005 -204.625)"/><path class="l" d="M777.122,207.3a2.311,2.311,0,0,1,.89.873v-1.119h1.03v6.266a3.062,3.062,0,0,1-.358,1.493,2.555,2.555,0,0,1-1.024,1.024,3.15,3.15,0,0,1-1.55.369,3.4,3.4,0,0,1-2.014-.57,2.229,2.229,0,0,1-.951-1.555h1.007a1.6,1.6,0,0,0,.693.9,2.275,2.275,0,0,0,1.264.342,1.867,1.867,0,0,0,1.371-.526,1.984,1.984,0,0,0,.531-1.477v-1.287a2.456,2.456,0,0,1-.895.9,2.637,2.637,0,0,1-1.388.358,2.788,2.788,0,0,1-2.529-1.533,3.524,3.524,0,0,1-.38-1.656,3.446,3.446,0,0,1,.38-1.65,2.759,2.759,0,0,1,1.047-1.1,2.867,2.867,0,0,1,1.482-.391A2.729,2.729,0,0,1,777.122,207.3Zm.61,1.6a1.982,1.982,0,0,0-.755-.788,2.14,2.14,0,0,0-2.087-.005,1.944,1.944,0,0,0-.749.783,2.493,2.493,0,0,0-.28,1.208,2.551,2.551,0,0,0,.28,1.225,1.978,1.978,0,0,0,.749.794,2.03,2.03,0,0,0,1.041.274,2.057,2.057,0,0,0,1.046-.274,1.97,1.97,0,0,0,.755-.794,2.531,2.531,0,0,0,.28-1.214A2.5,2.5,0,0,0,777.732,208.9Z" transform="translate(-702.218 -204.637)"/><path class="l" d="M799.487,211.519l-1.857-3.188H796.4v3.188h-1.018v-7.8H797.9a3.345,3.345,0,0,1,1.493.3,2.1,2.1,0,0,1,.912.817,2.261,2.261,0,0,1-1.556,3.413l1.958,3.267Zm-3.088-4.005h1.5a1.7,1.7,0,0,0,1.242-.408,1.465,1.465,0,0,0,.414-1.091,1.4,1.4,0,0,0-.408-1.074,1.778,1.778,0,0,0-1.247-.38h-1.5Z" transform="translate(-713.847 -202.97)"/><path class="l" d="M814.576,210.5h-4.9a1.927,1.927,0,0,0,1.992,1.925,1.88,1.88,0,0,0,1.1-.308,1.628,1.628,0,0,0,.621-.822h1.1a2.635,2.635,0,0,1-.985,1.438,2.969,2.969,0,0,1-1.835.554,3.1,3.1,0,0,1-1.561-.392,2.766,2.766,0,0,1-1.08-1.113,3.453,3.453,0,0,1-.392-1.673,3.5,3.5,0,0,1,.381-1.667,2.676,2.676,0,0,1,1.068-1.1,3.182,3.182,0,0,1,1.583-.385,3.078,3.078,0,0,1,1.544.38,2.638,2.638,0,0,1,1.035,1.047,3.082,3.082,0,0,1,.364,1.5A6.015,6.015,0,0,1,814.576,210.5Zm-1.275-1.829a1.668,1.668,0,0,0-.7-.638,2.183,2.183,0,0,0-.979-.218,1.89,1.89,0,0,0-1.315.492,2.006,2.006,0,0,0-.621,1.365h3.871A1.878,1.878,0,0,0,813.3,208.671Z" transform="translate(-720.679 -204.637)"/><path class="l" d="M823.333,206.269a2.757,2.757,0,0,1,1.046-1.1,2.888,2.888,0,0,1,1.494-.392,2.769,2.769,0,0,1,1.332.33,2.381,2.381,0,0,1,.94.867v-3.244h1.03v8.279h-1.03v-1.152a2.382,2.382,0,0,1-.9.9,2.668,2.668,0,0,1-1.388.352,2.787,2.787,0,0,1-2.528-1.533,3.518,3.518,0,0,1-.38-1.656A3.44,3.44,0,0,1,823.333,206.269Zm4.531.453a1.979,1.979,0,0,0-.755-.788,2.14,2.14,0,0,0-2.087-.005,1.945,1.945,0,0,0-.749.783,2.493,2.493,0,0,0-.28,1.208,2.551,2.551,0,0,0,.28,1.225,1.978,1.978,0,0,0,.749.794,2.031,2.031,0,0,0,1.041.274,2.058,2.058,0,0,0,1.046-.274,1.967,1.967,0,0,0,.755-.794,2.526,2.526,0,0,0,.28-1.214A2.5,2.5,0,0,0,827.865,206.722Z" transform="translate(-728.06 -202.459)"/><path class="l" d="M844.5,210.5h-4.9a1.927,1.927,0,0,0,1.992,1.925,1.88,1.88,0,0,0,1.1-.308,1.628,1.628,0,0,0,.621-.822h1.1a2.635,2.635,0,0,1-.985,1.438,2.969,2.969,0,0,1-1.835.554,3.1,3.1,0,0,1-1.561-.392,2.77,2.77,0,0,1-1.08-1.113,3.453,3.453,0,0,1-.391-1.673,3.5,3.5,0,0,1,.38-1.667,2.676,2.676,0,0,1,1.068-1.1,3.182,3.182,0,0,1,1.583-.385,3.078,3.078,0,0,1,1.544.38,2.638,2.638,0,0,1,1.035,1.047,3.081,3.081,0,0,1,.364,1.5A6,6,0,0,1,844.5,210.5Zm-1.275-1.829a1.667,1.667,0,0,0-.7-.638,2.183,2.183,0,0,0-.979-.218,1.89,1.89,0,0,0-1.315.492,2.006,2.006,0,0,0-.621,1.365h3.872A1.878,1.878,0,0,0,843.229,208.671Z" transform="translate(-736.106 -204.637)"/><path class="l" d="M854.242,204.59h3.48v6.131H856.7v-5.292h-2.461v5.292h-1.018v-5.292h-.783v-.839h.783v-.437a1.925,1.925,0,0,1,.531-1.5,2.523,2.523,0,0,1,1.707-.475v.851a1.351,1.351,0,0,0-.945.263,1.162,1.162,0,0,0-.274.867Zm2.49-1.2a.716.716,0,0,1,0-.984.69.69,0,0,1,.973,0,.716.716,0,0,1,0,.984.687.687,0,0,1-.973,0Z" transform="translate(-743.26 -202.173)"/><path class="l" d="M871.65,207.607a2.6,2.6,0,0,1,.694,1.953v3.614h-1.007V209.7a1.974,1.974,0,0,0-.459-1.4,1.643,1.643,0,0,0-1.253-.486,1.681,1.681,0,0,0-1.282.5,2.058,2.058,0,0,0-.475,1.466v3.39H866.85v-6.131h1.019v.873a2.015,2.015,0,0,1,.822-.728,2.548,2.548,0,0,1,1.146-.257A2.487,2.487,0,0,1,871.65,207.607Z" transform="translate(-750.687 -204.625)"/><path class="l" d="M886.784,210.5h-4.9a1.927,1.927,0,0,0,1.992,1.925,1.88,1.88,0,0,0,1.1-.308,1.627,1.627,0,0,0,.621-.822h1.1a2.635,2.635,0,0,1-.985,1.438,2.969,2.969,0,0,1-1.835.554,3.1,3.1,0,0,1-1.561-.392,2.766,2.766,0,0,1-1.08-1.113,3.452,3.452,0,0,1-.392-1.673,3.5,3.5,0,0,1,.381-1.667,2.676,2.676,0,0,1,1.068-1.1,3.182,3.182,0,0,1,1.583-.385,3.078,3.078,0,0,1,1.544.38,2.638,2.638,0,0,1,1.035,1.047,3.082,3.082,0,0,1,.364,1.5A6.015,6.015,0,0,1,886.784,210.5Zm-1.275-1.829a1.668,1.668,0,0,0-.7-.638,2.183,2.183,0,0,0-.979-.218,1.889,1.889,0,0,0-1.315.492,2.006,2.006,0,0,0-.621,1.365h3.872A1.878,1.878,0,0,0,885.509,208.671Z" transform="translate(-757.9 -204.637)"/><path class="l" d="M895.541,206.269a2.757,2.757,0,0,1,1.046-1.1,2.888,2.888,0,0,1,1.494-.392,2.769,2.769,0,0,1,1.332.33,2.381,2.381,0,0,1,.94.867v-3.244h1.03v8.279h-1.03v-1.152a2.381,2.381,0,0,1-.895.9,2.669,2.669,0,0,1-1.388.352,2.787,2.787,0,0,1-2.528-1.533,3.518,3.518,0,0,1-.38-1.656A3.44,3.44,0,0,1,895.541,206.269Zm4.531.453a1.978,1.978,0,0,0-.755-.788,2.14,2.14,0,0,0-2.087-.005,1.945,1.945,0,0,0-.749.783,2.492,2.492,0,0,0-.28,1.208,2.55,2.55,0,0,0,.28,1.225,1.978,1.978,0,0,0,.749.794,2.031,2.031,0,0,0,1.041.274,2.058,2.058,0,0,0,1.046-.274,1.966,1.966,0,0,0,.755-.794,2.525,2.525,0,0,0,.28-1.214A2.5,2.5,0,0,0,900.073,206.722Z" transform="translate(-765.28 -202.459)"/></g></g></svg>