<svg xmlns="http://www.w3.org/2000/svg" xmlns:xlink="http://www.w3.org/1999/xlink" width="50.929" height="50.929" viewBox="0 0 50.929 50.929"><defs><style>.a{fill:#102d37;}.b{filter:url(#a);}</style><filter id="a" x="0" y="0" width="50.929" height="50.929" filterUnits="userSpaceOnUse"><feOffset dy="3" input="SourceAlpha"/><feGaussianBlur stdDeviation="3" result="b"/><feFlood flood-opacity="0.161"/><feComposite operator="in" in2="b"/><feComposite in="SourceGraphic"/></filter></defs><g class="b" transform="matrix(1, 0, 0, 1, 0, 0)"><path class="a" d="M28.105,0H4.824A4.829,4.829,0,0,0,0,4.824V28.105a4.829,4.829,0,0,0,4.824,4.824H28.105a4.829,4.829,0,0,0,4.824-4.824V4.824A4.829,4.829,0,0,0,28.105,0ZM11.641,26.112H7.782V12.606h3.859Zm0-15.436H7.782V6.817h3.859ZM25.147,26.112H21.288V18.394a1.929,1.929,0,0,0-3.859,0v7.718H13.57V12.606h3.859v.727a8.365,8.365,0,0,1,2.894-.727,5.051,5.051,0,0,1,4.824,5.125Zm0,0" transform="translate(9 6)"/></g></svg>