<svg id="rec" xmlns="http://www.w3.org/2000/svg" width="22.91" height="22.91" viewBox="0 0 22.91 22.91">
  <path id="Path_7790" data-name="Path 7790" d="M22.91,11.455A11.455,11.455,0,1,1,11.455,0,11.455,11.455,0,0,1,22.91,11.455Zm0,0" fill="#04bbfd"/>
  <g id="Group_6839" data-name="Group 6839" transform="translate(2.506 2.506)">
    <path id="Path_7791" data-name="Path 7791" d="M64.949,56A8.951,8.951,0,0,0,56,64.932v.035a8.949,8.949,0,0,0,17.9,0v-.035A8.951,8.951,0,0,0,64.949,56Zm7.607,8.967a7.607,7.607,0,0,1-15.214,0v-.035a7.607,7.607,0,0,1,15.214,0Zm0,0" transform="translate(-56 -56)" fill="#fff"/>
    <path id="Path_7792" data-name="Path 7792" d="M163.046,157.906a4.354,4.354,0,1,0,4.354,4.354A4.359,4.359,0,0,0,163.046,157.906Zm0,7.366a3.012,3.012,0,1,1,3.012-3.012A3.015,3.015,0,0,1,163.046,165.272Zm0,0" transform="translate(-154.096 -153.346)" fill="#fff"/>
  </g>
</svg>
