<svg xmlns="http://www.w3.org/2000/svg" width="31.48" height="39.926" viewBox="0 0 31.48 39.926"><defs><style>.a{fill:#01e9a1;}.b{fill:#fff;}</style></defs><g transform="translate(6.91 31.47)"><g transform="translate(0)"><path class="a" d="M151.6,405.88a17.93,17.93,0,0,1-8.83-2.313v7.3a1.152,1.152,0,0,0,1.624,1.05l7.205-3.242,7.205,3.242a1.152,1.152,0,0,0,1.624-1.05v-7.3A17.931,17.931,0,0,1,151.6,405.88Z" transform="translate(-142.769 -403.567)"/></g></g><g transform="translate(8.298 7.146)"><path class="b" d="M190.774,119.508l1.935-3.637-4.117-.143a1.406,1.406,0,0,1-1.144-.66l-2.182-3.494-2.182,3.494a1.406,1.406,0,0,1-1.144.661l-4.117.143,1.935,3.636a1.406,1.406,0,0,1,0,1.321l-1.935,3.636,4.117.143a1.406,1.406,0,0,1,1.144.661l2.182,3.494,2.182-3.494a1.406,1.406,0,0,1,1.144-.66l4.117-.143-1.935-3.636A1.405,1.405,0,0,1,190.774,119.508Z" transform="translate(-177.824 -111.575)"/></g><g transform="translate(0)"><path class="a" d="M69.894,0a15.735,15.735,0,0,0-8.679,28.864l.127.084.155.1.129.081.154.1.208.123.2.112.141.079.156.085.145.077.152.079.243.121.169.081.163.076.152.069.166.073.146.063q.143.06.287.117l.127.049.193.074.144.053.19.067.135.047q.153.051.306.1l.1.032.228.068.134.038.214.058.125.033q.162.041.325.08l.078.017.266.058.123.025.237.046.115.021c.114.02.228.039.342.057l.05.007q.151.023.3.043l.115.014.255.029.11.012q.177.018.355.032l.024,0q.168.013.337.021l.11.005.267.01.109,0c.122,0,.243,0,.365,0s.244,0,.366,0l.109,0,.267-.01.11-.005c.113-.006.225-.013.337-.021l.024,0q.178-.014.355-.032l.11-.012.255-.029.115-.014q.152-.02.3-.043l.05-.007c.114-.018.228-.037.342-.057l.115-.021.237-.046.123-.025.266-.058.078-.017c.109-.025.217-.052.325-.08l.125-.033.214-.058.134-.038.228-.068.1-.032q.154-.048.306-.1l.135-.047.19-.067.144-.053.193-.074.127-.049q.144-.057.287-.117l.146-.063.165-.072.152-.069.163-.076.169-.081.243-.121.152-.079.145-.077.156-.085.141-.079.2-.112.208-.123.154-.1.129-.081.155-.1.127-.084A15.735,15.735,0,0,0,69.894,0Zm9,19.806a1.152,1.152,0,0,1-.977,1.692l-4.6.159-2.439,3.906a1.152,1.152,0,0,1-1.954,0l-2.439-3.906-4.6-.159a1.152,1.152,0,0,1-.977-1.692l2.163-4.066L60.9,11.674a1.152,1.152,0,0,1,.977-1.692l4.6-.159,2.439-3.906a1.152,1.152,0,0,1,1.954,0L73.31,9.823l4.6.159a1.152,1.152,0,0,1,.977,1.692L76.727,15.74Z" transform="translate(-54.154)"/></g></svg>