<svg xmlns="http://www.w3.org/2000/svg" xmlns:xlink="http://www.w3.org/1999/xlink" width="566.535" height="344.093" viewBox="0 0 566.535 344.093"><defs><style>.a{fill:none;}.b{opacity:0.32;}.c{fill:#425a63;}.d{fill:url(#a);}.e{clip-path:url(#b);}.f{fill:#fcfdfe;}.g{clip-path:url(#c);}.h{fill:url(#d);}.i{fill:url(#e);}.j{fill:url(#f);}.k{fill:url(#g);}.l{fill:#fff;}.m,.n{opacity:0.3;}.m,.n,.q{mix-blend-mode:multiply;isolation:isolate;}.n{fill:url(#h);}.o{clip-path:url(#i);}.p{fill:url(#j);}.q{opacity:0.4;fill:url(#k);}.r{fill:url(#l);}.s{fill:url(#m);}.t{fill:url(#n);}.u{fill:#fcb048;}.v{fill:url(#o);}.w{fill:url(#s);}.x{fill:url(#u);}.y{fill:url(#w);}.z{fill:url(#aa);}.aa{fill:url(#ae);}.ab{fill:url(#ai);}.ac{fill:url(#am);}.ad{fill:url(#aq);}.ae{fill:url(#ar);}.af{fill:url(#as);}.ag{fill:url(#at);}.ah{fill:url(#au);}.ai{fill:#233862;}.aj{fill:#06759c;}.ak{fill:#01e9a1;}.al{fill:#07aa77;}.am{fill:#ffb27d;}.an{fill:#ed975d;}.ao{fill:#2b478b;}.ap{fill:#417081;}.aq{fill:#2c4a54;}.ar{fill:url(#av);}.as{fill:url(#ax);}</style><linearGradient id="a" x1="-4.937" y1="-3.423" x2="-4.554" y2="-1.188" gradientUnits="objectBoundingBox"><stop offset="0" stop-color="#e38ddd"/><stop offset="0.004" stop-color="#e38ddd"/><stop offset="1" stop-color="#ce99f1"/></linearGradient><clipPath id="b"><path class="a" d="M2031.993,1655.109c1.346,12.685,2.194,25.649,3.48,38.43,6.977,2.076,15.234,4.347,18.649-4.048,4.748-11.672,26.8-11.9,36.8-10.036,12.374,2.3,39.583,4.8,37.614-13.607-1.639-15.32-8.724-24.11,9.229-29.778s26.977-16.747,22.666-33.432c-4.537-17.559,15.592-35.8,2.387-49.189-23.008-23.336-52.867,18.616-56.447,44.283s-16.255,17.274-33.578,18.812c-23.65,2.1-9.07,26.6-19.33,34.764C2045.419,1657.7,2040.67,1655.222,2031.993,1655.109Z" transform="translate(-2031.993 -1546.625)"/></clipPath><clipPath id="c"><path class="a" d="M2412.268,1057.7q-14-2.059-27.966-4.761c-.152.137-3.211-20.152,6.426-30.793,19.058-20.613,6.221-39.113,2.559-50.075-5.86-15.458-2.856-34.245,14.169-30.726,16.587,3.031,19.1-31.117,16.24-57.423-2.443-12.8,9.637-28.339,21.693-31.889,12.307-3.933,24.588,4.118,28.352,29.639,5.7,29.549-15.867,47.369-23.852,62.184-7.857,14.543,10.42,26.31-4.291,39.2-12.375,11.45-27.971,19.681-22.266,34.063C2429.193,1031.332,2427.79,1042.957,2412.268,1057.7Z" transform="translate(-2383.723 -851.085)"/></clipPath><linearGradient id="d" x1="-2.802" y1="-1.165" x2="-3.539" y2="-0.243" gradientUnits="objectBoundingBox"><stop offset="0" stop-color="#06759c"/><stop offset="1" stop-color="#01e9a1"/></linearGradient><linearGradient id="e" x1="0.148" y1="1.185" x2="0.902" y2="-0.284" gradientUnits="objectBoundingBox"><stop offset="0" stop-color="#444b8c"/><stop offset="0.996" stop-color="#26264f"/></linearGradient><linearGradient id="f" x1="-0.345" y1="2.146" x2="0.409" y2="0.677" gradientUnits="objectBoundingBox"><stop offset="0" stop-color="#aa80f9"/><stop offset="0.996" stop-color="#6165d7"/></linearGradient><linearGradient id="g" x1="0.958" y1="0.013" x2="0.169" y2="1.015" gradientUnits="objectBoundingBox"><stop offset="0" stop-color="#04bbfd"/><stop offset="0.996" stop-color="#01e9a1"/><stop offset="1" stop-color="#04bbfd"/></linearGradient><linearGradient id="h" x1="0" y1="0.5" x2="1" y2="0.5" xlink:href="#f"/><clipPath id="i"><path class="a" d="M535.334,426.7c-112.925,0-125.7,96.462-125.7,96.462H377.243v8.766l63.668,87.563,77.8-101.647H488.066l43.362-50.829s49.832,8.9,67.032,14.681c22.228,8.194,39.708,26.792,39.708,26.792S620.808,426.7,535.334,426.7Z" transform="translate(-377.243 -426.699)"/></clipPath><linearGradient id="j" x1="0.284" y1="1.037" x2="0.764" y2="0.039" gradientUnits="objectBoundingBox"><stop offset="0" stop-color="#fcb148"/><stop offset="0.052" stop-color="#fdb946"/><stop offset="0.142" stop-color="#fec144"/><stop offset="0.318" stop-color="#ffc444"/><stop offset="0.485" stop-color="#fdb946"/><stop offset="0.866" stop-color="#f8924f" stop-opacity="0.569"/><stop offset="1" stop-color="#f8924f" stop-opacity="0.161"/></linearGradient><linearGradient id="k" x1="0.401" y1="0.958" x2="0.726" y2="0.09" gradientUnits="objectBoundingBox"><stop offset="0" stop-color="#fcb148"/><stop offset="0.052" stop-color="#fdb946"/><stop offset="0.142" stop-color="#fec144"/><stop offset="0.318" stop-color="#ffc444"/><stop offset="0.485" stop-color="#fdb946"/><stop offset="0.775" stop-color="#f99c4c"/><stop offset="0.866" stop-color="#f8924f"/><stop offset="1" stop-color="#f8924f"/></linearGradient><linearGradient id="l" x1="-0.085" y1="0.5" x2="1.065" y2="0.5" xlink:href="#k"/><linearGradient id="m" x1="0.495" y1="0.179" x2="0.556" y2="4.091" gradientUnits="objectBoundingBox"><stop offset="0" stop-color="#ffdb44"/><stop offset="1" stop-color="#feef06"/></linearGradient><linearGradient id="n" x1="0.492" y1="-0.777" x2="0.511" y2="1.295" xlink:href="#m"/><linearGradient id="o" x1="0.072" y1="-41.299" x2="0.091" y2="-38.867" gradientUnits="objectBoundingBox"><stop offset="0.004" stop-color="#f36f56"/><stop offset="0.306" stop-color="#f99c4c"/><stop offset="0.545" stop-color="#fdb946"/><stop offset="0.682" stop-color="#ffc444"/><stop offset="0.804" stop-color="#fec144"/><stop offset="0.867" stop-color="#fdb946"/><stop offset="0.916" stop-color="#fbac49"/><stop offset="0.958" stop-color="#f8994d"/><stop offset="0.995" stop-color="#f58152"/><stop offset="1" stop-color="#f57e53"/></linearGradient><linearGradient id="s" x1="0.354" y1="-37.652" x2="0.373" y2="-35.22" xlink:href="#o"/><linearGradient id="u" x1="0.495" y1="0.179" x2="0.556" y2="4.091" xlink:href="#m"/><linearGradient id="w" x1="0.111" y1="-34.017" x2="0.13" y2="-31.585" xlink:href="#o"/><linearGradient id="aa" x1="-0.037" y1="-30.371" x2="-0.018" y2="-27.94" xlink:href="#o"/><linearGradient id="ae" x1="0.072" y1="-26.438" x2="0.091" y2="-24.006" xlink:href="#o"/><linearGradient id="ai" x1="0.354" y1="-22.792" x2="0.373" y2="-20.36" xlink:href="#o"/><linearGradient id="am" x1="0.111" y1="-19.156" x2="0.13" y2="-16.724" xlink:href="#o"/><linearGradient id="aq" x1="0.237" y1="-15.51" x2="0.256" y2="-13.079" xlink:href="#o"/><linearGradient id="ar" x1="0.644" y1="-0.34" x2="2.348" y2="-0.34" xlink:href="#k"/><linearGradient id="as" x1="1.569" y1="-0.522" x2="1.672" y2="0.098" xlink:href="#m"/><linearGradient id="at" x1="1.566" y1="-0.549" x2="1.597" y2="-0.358" xlink:href="#m"/><linearGradient id="au" x1="-4.316" y1="-1.025" x2="-4.284" y2="-0.832" xlink:href="#o"/><linearGradient id="av" x1="-0.852" y1="0.401" x2="1.711" y2="0.589" gradientUnits="objectBoundingBox"><stop offset="0" stop-color="#fff"/><stop offset="0.008" stop-color="#01ea9e"/><stop offset="1" stop-color="#03bfff"/></linearGradient><linearGradient id="ax" x1="-0.002" y1="0.431" x2="0.993" y2="0.601" xlink:href="#av"/></defs><g transform="translate(-255.116 -4112.355)"><g class="b" transform="translate(255.116 4382.188)"><path class="c" d="M378.635,694.056c-16.591.059-33.182.534-49.744,2.732-6.244.829-12.358,2.651-18.616,3.385-12.5,1.469-24.78,4.207-37.325,5.47-10.1,1.018-20.249,1.618-30.323,2.909a89.71,89.71,0,0,1-29.272-1.069c-6.938-1.48-13.909-2.313-20.73-4.69-7.631-2.66-15.921-4.561-23.872-4.493-11.338.1-22.379.109-33.23,4.805-3.808,1.648-8.471,4.358-11.364,7.817-6.621,7.919-7.517,27.679-.906,35.892,11.135,13.823,34.9,19.247,50.507,19.5,17.1.281,33.718-1.234,50.846-2.124,15.916-.828,31.792-2.005,47.734-1.964,32.56.085,65.124,0,97.625-2.594,30.535-2.438,61.148-1.6,91.75-1.6,31.381,0,62.551.294,93.706,5.269,13.575,2.168,27.4,2.926,41.047,4.445,12.218,1.36,23.959-.027,36.129-1.284a75.582,75.582,0,0,0,29.654-9.478c7.348-4.189,20.449-17.2,22.7-27.2,6.318-28.032-89.038-27.358-103.679-27.295-16.379.07-32.886.713-49.252-.031-6.884-.313-13.667-1.919-20.386-3.677-6.693-1.752-13.435-1.307-20.222-2.043-28.3-3.07-56.665-2.621-85.057-2.621C397.122,694.12,387.878,694.024,378.635,694.056Z" transform="translate(-118.722 -694.049)"/></g><g transform="translate(317.991 4058.184)"><g transform="translate(47.893 54.171)"><g transform="translate(177.676 120.25)"><path class="d" d="M2076.771,1691.727a15.3,15.3,0,0,1-5.564-4.593c-3.614-7.332-11.271-20.62-8.99-28.954.389-1.424,7.114-1.4,8.3-2.532,4.291-1.026,5.843-1.115,9.443-4.094,10.629-8.8-4.323-32.687,19.427-34.955,17.4-1.661,29.99,6.872,33.588-18.829s33.44-67.614,56.453-44.292c13.207,13.385-6.928,31.632-2.387,49.189,4.314,16.684-4.713,27.761-22.667,33.432s-10.858,14.448-9.229,29.78c1.957,18.418-25.2,15.869-37.638,13.622C2107.487,1677.693,2080.763,1679.844,2076.771,1691.727Z" transform="translate(-2058.599 -1546.654)"/><g class="e"><g transform="translate(8.09 -3.523)"><path class="f" d="M2107.428,1653.646l-.092-.368a150.96,150.96,0,0,0,76.806-47.109c19.617-22.27,33.6-50.511,40.423-81.669l.371.081c-6.841,31.221-20.849,59.52-40.509,81.839A151.334,151.334,0,0,1,2107.428,1653.646Z" transform="translate(-2107.336 -1523.351)"/><path class="f" d="M2468.089,2618.5c-14.384-8.338-40.21-13.94-57.564-12.488l-.032-.378c17.424-1.459,43.345,4.167,57.787,12.538Z" transform="translate(-2377.942 -2488.197)"/><path class="f" d="M2214.083,2233.646l-.191-.329c7.831-4.546,13.062-12.876,15.549-24.759,1.823-8.712,2.156-19.1.99-30.862l.379-.038c1.17,11.805.835,22.227-1,30.977C2227.3,2220.629,2222.01,2229.044,2214.083,2233.646Z" transform="translate(-2202.451 -2106.38)"/><path class="f" d="M2848.438,2187.7l-.207-.318c14.314-9.325,32.273-8.833,44.818-6.779l-.062.375C2880.51,2178.931,2862.651,2178.438,2848.438,2187.7Z" transform="translate(-2768.678 -2107.907)"/><path class="f" d="M2991.777,1561.006l-.365-.105c2.289-7.94,4.447-24.594-6.81-46.919l.339-.171a83.147,83.147,0,0,1,7.78,23.076A53.969,53.969,0,0,1,2991.777,1561.006Z" transform="translate(-2890.407 -1513.811)"/></g></g></g><g transform="translate(215.442 45.568)"><g class="g"><path class="h" d="M2412.268,1057.7q-14-2.059-27.966-4.761c-.152.137-3.211-20.152,6.426-30.793,19.058-20.613,6.221-39.113,2.559-50.075-5.8-15.446-2.75-32.173,12.971-32.42,17.437-.616,20.6-29.476,17.438-55.73-2.443-12.8,9.637-28.339,21.693-31.889,12.307-3.933,24.588,4.118,28.352,29.639,5.7,29.549-15.867,47.369-23.852,62.184-7.857,14.543,10.42,26.31-4.291,39.2-12.375,11.45-27.971,19.681-22.266,34.063C2429.193,1031.332,2427.79,1042.957,2412.268,1057.7Z" transform="translate(-2383.723 -851.085)"/><g transform="translate(4.713 -6.278)"><path class="f" d="M2530.167,1006.714l-.379-.006c0-.18,8.918-42.868,24.3-84.407,2.124-6.727,4.431-13.511,6.663-20.072,5.975-17.568,12.155-35.734,15.089-53.822,3.28-20.218,2.111-38.427-3.573-55.668l.361-.119c5.7,17.3,6.877,35.569,3.588,55.848-2.939,18.119-9.123,36.3-15.1,53.883-2.231,6.559-4.538,13.342-6.663,20.073C2538.945,964.288,2530.19,1006.465,2530.167,1006.714Z" transform="translate(-2518.817 -792.619)"/><path class="f" d="M2919.73,1130.32l-.283-.254c10.405-11.561,22.96-27.99,29.705-36.817,5.431-7.107,5.458-7.1,5.684-7.062l-.029.188.078.169c-.275.189-2.551,3.166-5.43,6.935C2942.706,1102.31,2930.145,1118.748,2919.73,1130.32Z" transform="translate(-2866.638 -1054.662)"/><path class="f" d="M2774.517,1056.328c-2.152-13.25-7.609-21.966-11.807-26.944-4.636-5.5-8.907-7.9-9.344-7.948a.144.144,0,0,0,.09-.027l-.211-.316c.1-.064.207-.048.46.062,1.152.5,5.458,3.194,9.975,8.808a56.25,56.25,0,0,1,11.213,26.3Z" transform="translate(-2718.281 -996.527)"/><path class="f" d="M2478.043,1743.2l-.377-.045c1.467-12.328-1.405-25.589-8.539-39.413a114.68,114.68,0,0,0-14.1-20.995c-.408-.487-.552-.66-.6-.738l.329-.191c.033.056.266.333.56.685a115.069,115.069,0,0,1,14.148,21.064C2476.634,1717.456,2479.521,1730.791,2478.043,1743.2Z" transform="translate(-2451.549 -1586.338)"/><path class="f" d="M2710.853,1970.678l-.323-.2c11.193-18.083,34.785-19.335,34.99-19.275l.141.178-.13.187-.06-.178-.017.186h0C2745.079,1951.575,2721.866,1952.885,2710.853,1970.678Zm34.557-19.471.061.179Z" transform="translate(-2680.153 -1826.8)"/><path class="f" d="M2440.527,2484.781l-.38-.014c.2-5.367-1.721-14.517-11.983-27.623-.557-.711-.557-.711-.542-.817l.376.053-.188-.027.174-.072c.029.054.238.32.478.627C2438.8,2470.107,2440.727,2479.351,2440.527,2484.781Z" transform="translate(-2427.619 -2277.65)"/><path class="f" d="M2566.874,2460.489l-.365-.106c1.183-4.083,5.84-12.082,23.733-19.785.247-.107.406-.175.463-.2l.174.338c-.06.031-.226.1-.486.215C2572.643,2448.588,2568.039,2456.47,2566.874,2460.489Z" transform="translate(-2551.596 -2263.467)"/></g></g></g><g transform="translate(46.818 46.153)"><path class="i" d="M1053.036,972.729c0,62.777-50.871,115.993-115.774,118.96-67.407,3.081-123.99-48.834-123.99-116.066s56.583-120.513,123.99-119.059C1002.165,857.964,1053.036,909.952,1053.036,972.729Z" transform="translate(-813.272 -856.535)"/><path class="j" d="M1123.226,972.729c0,62.777-50.871,115.993-115.774,118.96-67.407,3.081-123.99-48.834-123.99-116.066s56.583-120.513,123.99-119.059C1072.355,857.964,1123.226,909.952,1123.226,972.729Z" transform="translate(-875.925 -856.535)"/><path class="k" d="M1175.621,1031.2c0,59.15-47.985,109.2-109.086,111.868-63.315,2.767-116.35-46.059-116.35-109.147s53.036-113.195,116.35-111.956C1127.635,923.161,1175.621,972.05,1175.621,1031.2Z" transform="translate(-935.484 -914.919)"/><g transform="translate(56.229 55.48)"><path class="l" d="M1387.143,1439.71q7.371-9.566,7.371-28.617,0-18.221-7.5-28.037t-21.494-9.815q-28.575,0-28.575,37.852,0,18.555,7.454,28.368t21.121,9.815Q1379.77,1449.277,1387.143,1439.71Zm-21.452-7.578q-4.143,0-6-5.177t-1.864-15.7q0-10.518,1.864-15.613t6-5.094q7.952,0,7.952,20.707Q1373.643,1432.132,1365.691,1432.132Z" transform="translate(-1336.95 -1373.242)"/><path class="l" d="M2176.922,1833.55q-7.5-9.815-21.493-9.815-28.575,0-28.576,37.852,0,18.471,7.455,28.285t21.121,9.815q14.245,0,21.618-9.567t7.372-28.534Q2184.418,1843.366,2176.922,1833.55Zm-21.328,49.075q-4.143,0-6-5.177t-1.864-15.7q0-10.518,1.864-15.613t6-5.094q7.951,0,7.951,20.707Q2163.546,1882.625,2155.594,1882.625Z" transform="translate(-2042.039 -1775.364)"/><path class="l" d="M1693.2,1390.107a2.669,2.669,0,0,0-2.271-1.334h-12.281a5.337,5.337,0,0,0-4.638,2.767l-63.487,114.467a2.675,2.675,0,0,0,2.3,3.967h13.853a2.651,2.651,0,0,0,2.3-1.375l64.25-115.851A2.686,2.686,0,0,0,1693.2,1390.107Z" transform="translate(-1580.849 -1387.105)"/></g><g class="m" transform="translate(7.537 5.244)"><path class="n" d="M955.21,967.253c-3.986-12.992-3.8-32.724,15.634-61.878-50.143,14.445-87.382,59.915-87.382,114.308,0,67.232,56.583,119.147,123.99,116.066a122.141,122.141,0,0,0,66.205-23.081c-.576-17.93-4.477-37.557-15.447-55.66C1028.048,1007.23,967.716,1008.014,955.21,967.253Z" transform="translate(-883.462 -905.375)"/></g></g><g class="o"><g transform="translate(3.683 2.673)"><path class="p" d="M666.4,547.742v.367a159.583,159.583,0,0,0-13.019-13.991c-.067-.156-.181-.312-.248-.467a80.864,80.864,0,0,0-21.528-29c-.626-.587-1.349-1.1-2.018-1.659-.342-.27-.686-.55-1.033-.82l-.507-.413c-.178-.137-.362-.261-.54-.394q-1.075-.777-2.157-1.567l-.539-.394-.568-.367c-.376-.247-.751-.495-1.126-.738-1.482-1.022-3.081-1.906-4.64-2.841-.794-.454-1.627-.871-2.435-1.3-.4-.215-.809-.435-1.218-.646s-.842-.4-1.256-.6a81.374,81.374,0,0,0-21.442-6.815c-.934-.147-1.868-.293-2.811-.44-.938-.124-1.891-.2-2.825-.307l-1.415-.151-1.42-.073-1.42-.082c-.472-.023-.938-.069-1.415-.06-.943,0-1.887-.014-2.835-.018-.231,0-.481-.014-.7,0l-.631.032-1.261.064-1.252.06c-.111,0-.187,0-.332.014l-1.285.092-1.718.115-1.285.092-.217.014-.077,0s-.447,0,.3.014l-2.777.39c-.457.069-.919.11-1.376.206l-1.362.261-1.362.257-.679.128c-.226.041-.448.105-.669.156-.89.215-1.781.426-2.667.646-.447.092-.88.238-1.314.362l-1.3.39-1.3.371-1.271.445c-.847.3-1.694.568-2.517.889s-1.641.66-2.455.995a71.135,71.135,0,0,0-17.245,10.33l-.934.743-.886.793c-.587.522-1.194,1.022-1.752,1.558-.024.018-.043.046-.067.064-1.088,1.072-2.19,2.081-3.167,3.19-.26.27-.515.545-.765.82l-.385.4-.356.431c-.477.559-.948,1.123-1.42,1.677-.116.137-.241.27-.356.412l-.322.431c-.221.289-.438.577-.655.857-.424.577-.886,1.109-1.266,1.7a62.675,62.675,0,0,0-7.33,13.538,59.479,59.479,0,0,0-3.249,12.071c-.062.454-.125.9-.188,1.338s-.144.862-.164,1.288c-.072.853-.145,1.664-.217,2.438-.048.788-.048,1.544-.082,2.255-.014.357-.039.706-.043,1.04.014.344.024.678.029,1,.009.646.019,1.256.029,1.824a2.187,2.187,0,0,0,.034.353c.014.105.029.211.043.312.019.2.048.174.068.357.014.156.033.229.048.229h31.685l-19.253,20.325L475.56,619.353l-64.014-66.932H445.2a4.756,4.756,0,0,0,.154-.981c.13-.93.27-1.838.423-2.942.087-.55.164-1.063.255-1.654.048-.289.091-.564.14-.866s.087-.619.149-.88c.236-1.109.481-2.278.741-3.524.14-.619.274-1.251.419-1.9s.337-1.311.52-1.989c.366-1.352.722-2.773,1.165-4.235q.708-2.179,1.468-4.528c.246-.788.568-1.563.867-2.365s.616-1.6.934-2.424a113.682,113.682,0,0,1,10.95-20.792,115.511,115.511,0,0,1,17.982-20.889c.871-.848,1.834-1.622,2.763-2.434.472-.4.938-.8,1.41-1.205l.717-.6.732-.577c.987-.765,1.983-1.54,2.975-2.314l.751-.577.78-.55c.525-.371,1.045-.738,1.569-1.1,2.055-1.5,4.264-2.851,6.459-4.244,1.107-.678,2.252-1.311,3.393-1.966.563-.321,1.136-.642,1.709-.971l1.761-.907a117.615,117.615,0,0,1,30.458-10.811c1.343-.252,2.7-.509,4.043-.761s2.719-.4,4.077-.6l2.041-.275,2.055-.193,2.05-.188c.684-.06,1.362-.133,2.05-.156,1.367-.059,2.739-.215,4.11-.275.337-.014.683-.138,1.025-.138h1.03l2.046.11,2.046.064c.683,0,1.367.087,2.045.119l4.067.234c.924.014.318.023.553.028l.106.014.217.023.423.055.857.1,1.7.2.857.1.424.05.524.069,2.157.3,2.156.312,1.069.16c.351.055.664.128,1,.193,1.314.266,2.628.536,3.942.8.655.124,1.3.3,1.945.463l1.94.49,1.925.49,1.9.573c1.261.389,2.527.756,3.764,1.178,1.237.44,2.464.88,3.692,1.32a107.183,107.183,0,0,1,26.261,14.326c.481.353.958.71,1.434,1.063s.924.738,1.381,1.114c.915.742,1.834,1.457,2.715,2.218,1.737,1.554,3.47,3.043,5.054,4.656.4.394.8.793,1.2,1.182l.592.587.568.609q1.133,1.224,2.238,2.429l.553.6.529.623c.342.417.693.83,1.035,1.242.683.829,1.4,1.618,2.017,2.475a100.343,100.343,0,0,1,8.89,13.515c1.194,2.177,2.257,4.345,3.2,6.485a92.229,92.229,0,0,1,5.939,18.295c.13.7.27,1.379.4,2.053s.274,1.324.356,1.98c.183,1.306.366,2.557.534,3.763.145,1.21.221,2.374.327,3.478.043.55.1,1.086.135,1.618s.135,1.036.159,1.54C666.232,545.9,666.4,546.857,666.4,547.742Z" transform="translate(-411.545 -451.598)"/><path class="q" d="M1631.194,757.17v.367a159.545,159.545,0,0,0-13.019-13.991c-.067-.156-.181-.312-.248-.468a80.863,80.863,0,0,0-21.528-29c-.626-.587-1.349-1.1-2.018-1.659-.342-.27-.686-.55-1.033-.82l-.507-.413c-.178-.137-.362-.261-.54-.394q-1.075-.777-2.156-1.567l-.539-.394-.568-.367c-.375-.247-.751-.5-1.126-.738-1.482-1.022-3.08-1.906-4.64-2.841-.794-.454-1.627-.871-2.435-1.3-.4-.215-.809-.435-1.218-.646s-.842-.4-1.256-.6a81.368,81.368,0,0,0-21.443-6.815c-.934-.147-1.868-.293-2.811-.44-.938-.124-1.891-.2-2.825-.307l-1.415-.151-1.42-.073-1.42-.082c-.472-.023-.938-.069-1.415-.06-.943,0-1.887-.014-2.835-.018-.231,0-.481-.014-.7,0l-.63.032-1.261.064-1.251.06c-.111,0-.187,0-.332.014l-1.285.092-1.718.115-1.285.092-.216.014-.077,0s-.447,0,.3.014l-2.777.39c-.457.069-.919.11-1.377.206l-1.362.261-1.362.257-.679.128c-.226.041-.448.105-.669.156-.89.215-1.781.426-2.667.646-.447.092-.88.238-1.314.362l-1.3.39-1.3.371-1.271.444c-.847.3-1.694.568-2.517.889s-1.641.66-2.455.995a71.134,71.134,0,0,0-17.245,10.33l-.934.742-.886.793c-.587.522-1.194,1.022-1.752,1.558-.024.018-.043.046-.067.064,14.223-16.769,37.263-27.662,63.264-27.662,26.641,0,50.172,11.434,64.294,28.9,1.194,2.177,2.257,4.344,3.2,6.485a92.219,92.219,0,0,1,5.939,18.295c.13.7.27,1.379.4,2.053s.274,1.324.356,1.98c.183,1.306.366,2.557.534,3.762.145,1.21.222,2.374.328,3.478.043.55.1,1.086.135,1.618s.135,1.036.159,1.54C1631.025,755.327,1631.194,756.285,1631.194,757.17Z" transform="translate(-1376.339 -661.026)"/></g></g><g transform="translate(10.839 213.027)"><g transform="translate(12.264 72.7)"><path class="r" d="M592.653,3141.078v9.785c0,3.162,19.752,5.725,44.117,5.725s44.117-2.563,44.117-5.725v-9.785Z" transform="translate(-592.627 -3135.353)"/><path class="s" d="M680.888,3093.482c0,3.162-19.752,5.725-44.117,5.725s-44.117-2.563-44.117-5.725,19.752-5.725,44.117-5.725S680.888,3090.32,680.888,3093.482Z" transform="translate(-592.627 -3087.757)"/><path class="t" d="M636.557,3142.887c-21.579,0-44.143-2.061-44.143-6.036,0-.218.078-.6.3-.6s.124.3.124.519c0,2.521,17.956,5.33,43.722,5.33s43.722-2.809,43.722-5.33c0-.219.037-.423.256-.423s.166.292.166.51C680.7,3140.83,658.136,3142.887,636.557,3142.887Z" transform="translate(-592.414 -3131.042)"/><g transform="translate(16.352 3.556)"><path class="u" d="M768.325,3123.365c.433-.3.894-.595,1.387-.887a8.708,8.708,0,0,1,1.9-.79,18.109,18.109,0,0,1,2.908-.575,36.814,36.814,0,0,1,4.356-.235q2.557-.013,4.8.162a32.623,32.623,0,0,1,3.949.523,12.211,12.211,0,0,1,2.772.86,2.195,2.195,0,0,1,1.267,1.174l4.967.05a4.908,4.908,0,0,1,.952.088c.277.057.412.128.412.215l0,.409-6.386-.062a3.221,3.221,0,0,1-1.712,1.375,17.327,17.327,0,0,1-3.5,1.08l-2.326-.323a2.724,2.724,0,0,1-.514-.121c-.134-.049-.2-.1-.2-.16q0-.118.539-.269t1.218-.375a12.264,12.264,0,0,0,1.333-.527,1.806,1.806,0,0,0,.874-.726l-15.074-.149a14.336,14.336,0,0,1-1.331.859,8.662,8.662,0,0,1-1.956.76,20.437,20.437,0,0,1-3.033.548,42.945,42.945,0,0,1-4.573.224c-1.382.007-2.727-.045-4.044-.157a27.648,27.648,0,0,1-3.509-.5,10.927,10.927,0,0,1-2.518-.824c-.653-.328-1.02-.7-1.1-1.129l-4.09-.042a5.334,5.334,0,0,1-.966-.085c-.282-.055-.426-.127-.426-.218l0-.409,5.591.053a3,3,0,0,1,1.529-1.126,17.491,17.491,0,0,1,2.838-.854l1.873.257c.569.08.851.173.852.281,0,.058-.115.129-.35.215s-.517.189-.84.308a7.644,7.644,0,0,0-.931.42,1.975,1.975,0,0,0-.681.546Zm-13.795.557a1.485,1.485,0,0,0,.743.694,5.928,5.928,0,0,0,1.421.479,14.536,14.536,0,0,0,1.914.276q1.068.088,2.232.083a23.218,23.218,0,0,0,2.37-.117,13.734,13.734,0,0,0,1.773-.3,8.266,8.266,0,0,0,1.333-.44,7.467,7.467,0,0,0,1.019-.544Zm32.815-.366a1.536,1.536,0,0,0-.812-.714,7.3,7.3,0,0,0-1.634-.515,18,18,0,0,0-2.317-.311q-1.317-.1-2.911-.094a22.339,22.339,0,0,0-2.439.126,12.618,12.618,0,0,0-1.773.322,6.458,6.458,0,0,0-1.273.471,9.042,9.042,0,0,0-.977.575Z" transform="translate(-744.703 -3120.877)"/></g><path class="v" d="M642.546,3093.529c-19.671,0-40.153,1.731-43.429,5.082a4.024,4.024,0,0,1,.358.377c2.761-2.326,19.674-4.669,43.071-4.669,24,0,41.182,2.464,43.263,4.848a4.109,4.109,0,0,1,.33-.374C683.434,3095.324,662.567,3093.529,642.546,3093.529Z" transform="translate(-598.397 -3092.91)"/></g><g transform="translate(0 62.421)"><path class="r" d="M478.431,3045.351v9.785c0,3.162,19.752,5.725,44.117,5.725s44.117-2.563,44.117-5.725v-9.785Z" transform="translate(-478.405 -3039.626)"/><path class="s" d="M566.666,2997.756c0,3.162-19.752,5.725-44.117,5.725s-44.117-2.563-44.117-5.725,19.752-5.725,44.117-5.725S566.666,2994.594,566.666,2997.756Z" transform="translate(-478.405 -2992.031)"/><path class="t" d="M522.335,3047.162c-21.579,0-44.143-2.061-44.143-6.036,0-.219.078-.6.3-.6s.124.3.124.518c0,2.521,17.956,5.33,43.722,5.33s43.722-2.809,43.722-5.33c0-.218.037-.423.256-.423s.166.292.166.51C566.479,3045.1,543.914,3047.162,522.335,3047.162Z" transform="translate(-478.192 -3035.317)"/><g transform="translate(16.352 3.556)"><path class="u" d="M654.1,3027.639c.433-.3.894-.6,1.387-.887a8.734,8.734,0,0,1,1.9-.79,18.139,18.139,0,0,1,2.908-.575,36.965,36.965,0,0,1,4.356-.235q2.558-.012,4.8.163a32.67,32.67,0,0,1,3.949.523,12.232,12.232,0,0,1,2.772.86,2.2,2.2,0,0,1,1.267,1.175l4.967.05a4.885,4.885,0,0,1,.952.088c.278.056.412.128.412.215l0,.409-6.386-.061a3.221,3.221,0,0,1-1.712,1.375,17.359,17.359,0,0,1-3.5,1.08l-2.326-.323a2.684,2.684,0,0,1-.513-.122c-.134-.049-.2-.1-.2-.16q0-.118.539-.269t1.218-.375a12.332,12.332,0,0,0,1.333-.527,1.807,1.807,0,0,0,.874-.726l-15.073-.15a14.229,14.229,0,0,1-1.331.859,8.671,8.671,0,0,1-1.955.76,20.508,20.508,0,0,1-3.033.548,42.877,42.877,0,0,1-4.573.224c-1.382.007-2.727-.046-4.044-.157a27.7,27.7,0,0,1-3.51-.5,10.937,10.937,0,0,1-2.518-.824c-.653-.328-1.02-.7-1.1-1.129l-4.09-.042a5.334,5.334,0,0,1-.966-.085c-.282-.054-.426-.127-.426-.218l0-.409,5.591.053a3,3,0,0,1,1.529-1.126,17.489,17.489,0,0,1,2.838-.854l1.873.257c.569.08.851.173.852.281,0,.058-.115.13-.35.216s-.516.189-.839.308a7.615,7.615,0,0,0-.931.42,1.971,1.971,0,0,0-.681.545Zm-13.795.557a1.484,1.484,0,0,0,.743.693,5.919,5.919,0,0,0,1.421.48,14.536,14.536,0,0,0,1.914.276q1.068.088,2.232.083a23.443,23.443,0,0,0,2.37-.117,13.778,13.778,0,0,0,1.773-.3,8.271,8.271,0,0,0,1.333-.44,7.444,7.444,0,0,0,1.019-.545Zm32.815-.365a1.537,1.537,0,0,0-.812-.715,7.334,7.334,0,0,0-1.634-.516,18.125,18.125,0,0,0-2.317-.311q-1.317-.1-2.911-.094a22.408,22.408,0,0,0-2.439.126,12.652,12.652,0,0,0-1.773.322,6.461,6.461,0,0,0-1.273.471,9.032,9.032,0,0,0-.977.575Z" transform="translate(-630.48 -3025.15)"/></g><path class="w" d="M528.323,2997.8c-19.671,0-40.153,1.731-43.429,5.082a3.918,3.918,0,0,1,.358.377c2.762-2.327,19.674-4.669,43.071-4.669,24,0,41.182,2.464,43.263,4.848a4.028,4.028,0,0,1,.33-.374C569.211,2999.6,548.344,2997.8,528.323,2997.8Z" transform="translate(-484.174 -2997.183)"/></g><g transform="translate(10.582 52.173)"><path class="r" d="M576.989,2949.905v9.785c0,3.162,19.752,5.725,44.117,5.725s44.117-2.563,44.117-5.725v-9.785Z" transform="translate(-576.963 -2944.18)"/><path class="x" d="M665.224,2902.31c0,3.162-19.752,5.726-44.117,5.726s-44.117-2.563-44.117-5.726,19.752-5.725,44.117-5.725S665.224,2899.148,665.224,2902.31Z" transform="translate(-576.963 -2896.585)"/><path class="t" d="M620.893,2951.717c-21.579,0-44.143-2.061-44.143-6.037,0-.218.078-.6.3-.6s.124.3.124.518c0,2.521,17.956,5.33,43.722,5.33s43.722-2.809,43.722-5.33c0-.218.037-.423.256-.423s.166.291.166.51C665.037,2949.659,642.472,2951.717,620.893,2951.717Z" transform="translate(-576.75 -2939.871)"/><g transform="translate(16.352 3.556)"><path class="u" d="M752.662,2932.193c.433-.3.893-.6,1.386-.887a8.713,8.713,0,0,1,1.9-.79,18.115,18.115,0,0,1,2.908-.575,36.911,36.911,0,0,1,4.356-.235q2.558-.012,4.8.163a32.721,32.721,0,0,1,3.949.523,12.237,12.237,0,0,1,2.772.86,2.195,2.195,0,0,1,1.267,1.174l4.968.05a4.925,4.925,0,0,1,.952.088c.278.056.412.128.412.215l0,.409-6.386-.062a3.221,3.221,0,0,1-1.712,1.375,17.327,17.327,0,0,1-3.5,1.08l-2.326-.323a2.7,2.7,0,0,1-.513-.122c-.134-.049-.2-.1-.2-.16q0-.118.539-.269t1.218-.375a12.33,12.33,0,0,0,1.333-.527,1.81,1.81,0,0,0,.874-.726l-15.074-.149a14.3,14.3,0,0,1-1.331.859,8.672,8.672,0,0,1-1.955.76,20.51,20.51,0,0,1-3.033.548,42.879,42.879,0,0,1-4.573.224c-1.382.007-2.727-.046-4.044-.157a27.656,27.656,0,0,1-3.51-.5,10.948,10.948,0,0,1-2.518-.825c-.653-.327-1.02-.7-1.1-1.129l-4.09-.042a5.376,5.376,0,0,1-.966-.085c-.282-.055-.426-.127-.426-.218l0-.409,5.591.053a3,3,0,0,1,1.529-1.126,17.433,17.433,0,0,1,2.837-.854l1.873.257c.569.08.851.173.852.281,0,.058-.115.13-.35.216s-.517.189-.84.308a7.741,7.741,0,0,0-.931.42,1.977,1.977,0,0,0-.681.545Zm-13.795.557a1.483,1.483,0,0,0,.743.693,5.905,5.905,0,0,0,1.421.48,14.616,14.616,0,0,0,1.914.276q1.068.088,2.232.082a23.224,23.224,0,0,0,2.37-.117,13.739,13.739,0,0,0,1.773-.3,8.313,8.313,0,0,0,1.333-.44,7.426,7.426,0,0,0,1.018-.544Zm32.815-.366a1.535,1.535,0,0,0-.812-.715,7.313,7.313,0,0,0-1.634-.516,18.083,18.083,0,0,0-2.316-.311q-1.317-.1-2.911-.094a22.407,22.407,0,0,0-2.439.126,12.621,12.621,0,0,0-1.773.322,6.461,6.461,0,0,0-1.273.471,9.04,9.04,0,0,0-.977.576Z" transform="translate(-729.039 -2929.704)"/></g><path class="y" d="M626.882,2902.356c-19.671,0-40.153,1.731-43.43,5.082a3.967,3.967,0,0,1,.358.377c2.761-2.327,19.674-4.669,43.071-4.669,24,0,41.182,2.464,43.263,4.848a3.965,3.965,0,0,1,.33-.374C667.769,2904.151,646.9,2902.356,626.882,2902.356Z" transform="translate(-582.732 -2901.736)"/></g><g transform="translate(17.004 41.894)"><path class="r" d="M636.8,2854.18v9.786c0,3.162,19.752,5.725,44.117,5.725s44.117-2.563,44.117-5.725v-9.786Z" transform="translate(-636.772 -2848.454)"/><ellipse class="x" cx="44.117" cy="5.725" rx="44.117" ry="5.725" transform="translate(0.026)"/><path class="t" d="M680.7,2855.99c-21.578,0-44.143-2.061-44.143-6.037,0-.218.078-.6.3-.6s.124.3.124.518c0,2.521,17.956,5.33,43.722,5.33s43.723-2.809,43.723-5.33c0-.218.037-.423.256-.423s.166.292.166.51C724.845,2853.931,702.28,2855.99,680.7,2855.99Z" transform="translate(-636.558 -2844.144)"/><g transform="translate(16.352 3.556)"><path class="u" d="M812.47,2836.467c.433-.3.894-.595,1.387-.887a8.751,8.751,0,0,1,1.9-.79,18.141,18.141,0,0,1,2.908-.575,36.966,36.966,0,0,1,4.356-.235q2.557-.012,4.8.163a32.677,32.677,0,0,1,3.949.523,12.238,12.238,0,0,1,2.772.86,2.2,2.2,0,0,1,1.267,1.174l4.967.05a4.925,4.925,0,0,1,.952.088c.277.057.412.128.412.215l0,.409-6.386-.061a3.22,3.22,0,0,1-1.712,1.375,17.389,17.389,0,0,1-3.5,1.081l-2.326-.324a2.7,2.7,0,0,1-.514-.122c-.134-.049-.2-.1-.2-.16q0-.118.539-.269t1.218-.375a12.169,12.169,0,0,0,1.333-.527,1.807,1.807,0,0,0,.874-.726l-15.073-.149a14.254,14.254,0,0,1-1.331.859,8.683,8.683,0,0,1-1.955.76,20.472,20.472,0,0,1-3.033.548,42.878,42.878,0,0,1-4.574.224c-1.381.007-2.726-.046-4.044-.157a27.789,27.789,0,0,1-3.51-.5,10.963,10.963,0,0,1-2.518-.824c-.653-.328-1.02-.7-1.1-1.129l-4.09-.042a5.357,5.357,0,0,1-.966-.085c-.282-.055-.426-.127-.426-.218l0-.409,5.591.053a3.006,3.006,0,0,1,1.529-1.126,17.589,17.589,0,0,1,2.838-.854l1.873.257c.569.08.851.174.852.281,0,.058-.115.13-.35.216s-.517.189-.84.308a7.774,7.774,0,0,0-.931.42,1.976,1.976,0,0,0-.681.545Zm-13.795.557a1.484,1.484,0,0,0,.743.693,5.92,5.92,0,0,0,1.421.48,14.533,14.533,0,0,0,1.914.276q1.068.088,2.232.082a23.231,23.231,0,0,0,2.37-.117,13.776,13.776,0,0,0,1.773-.3,8.27,8.27,0,0,0,1.333-.44,7.4,7.4,0,0,0,1.018-.544Zm32.815-.365a1.539,1.539,0,0,0-.812-.715,7.321,7.321,0,0,0-1.634-.516,18.084,18.084,0,0,0-2.316-.311q-1.317-.1-2.912-.094a22.336,22.336,0,0,0-2.439.127,12.541,12.541,0,0,0-1.773.322,6.455,6.455,0,0,0-1.273.47,9.093,9.093,0,0,0-.977.575Z" transform="translate(-788.848 -2833.979)"/></g><path class="z" d="M686.69,2806.631c-19.671,0-40.153,1.73-43.43,5.082a3.937,3.937,0,0,1,.358.377c2.761-2.327,19.674-4.669,43.071-4.669,24,0,41.182,2.465,43.263,4.849a3.943,3.943,0,0,1,.33-.374C727.577,2808.426,706.71,2806.631,686.69,2806.631Z" transform="translate(-642.54 -2806.011)"/></g><g transform="translate(12.264 30.805)"><path class="r" d="M592.653,2750.9v9.785c0,3.162,19.752,5.725,44.117,5.725s44.117-2.563,44.117-5.725V2750.9Z" transform="translate(-592.627 -2745.177)"/><path class="x" d="M680.888,2703.306c0,3.162-19.752,5.725-44.117,5.725s-44.117-2.563-44.117-5.725,19.752-5.725,44.117-5.725S680.888,2700.145,680.888,2703.306Z" transform="translate(-592.627 -2697.581)"/><path class="t" d="M636.557,2752.712c-21.579,0-44.143-2.062-44.143-6.037,0-.218.078-.6.3-.6s.124.3.124.518c0,2.521,17.956,5.33,43.722,5.33s43.722-2.809,43.722-5.33c0-.218.037-.423.256-.423s.166.291.166.51C680.7,2750.654,658.136,2752.712,636.557,2752.712Z" transform="translate(-592.414 -2740.866)"/><g transform="translate(16.352 3.556)"><path class="u" d="M768.325,2733.188c.433-.3.894-.595,1.387-.887a8.719,8.719,0,0,1,1.9-.79,18.136,18.136,0,0,1,2.908-.575,36.807,36.807,0,0,1,4.356-.235q2.557-.012,4.8.163a32.575,32.575,0,0,1,3.949.523,12.2,12.2,0,0,1,2.772.86,2.194,2.194,0,0,1,1.267,1.174l4.967.051a4.888,4.888,0,0,1,.952.088c.277.056.412.128.412.215l0,.409-6.386-.062a3.221,3.221,0,0,1-1.712,1.375,17.343,17.343,0,0,1-3.5,1.08l-2.326-.323a2.7,2.7,0,0,1-.514-.122c-.134-.049-.2-.1-.2-.16q0-.119.539-.269t1.218-.375a12.211,12.211,0,0,0,1.333-.527,1.809,1.809,0,0,0,.874-.726l-15.074-.149a14.335,14.335,0,0,1-1.331.859,8.662,8.662,0,0,1-1.956.76,20.529,20.529,0,0,1-3.033.548,42.953,42.953,0,0,1-4.573.223c-1.382.007-2.727-.046-4.044-.157a27.6,27.6,0,0,1-3.509-.5,10.939,10.939,0,0,1-2.518-.824c-.653-.327-1.02-.7-1.1-1.129l-4.09-.042a5.354,5.354,0,0,1-.966-.085c-.282-.055-.426-.127-.426-.218l0-.409,5.591.053a3,3,0,0,1,1.529-1.126,17.54,17.54,0,0,1,2.838-.854l1.873.257c.569.08.851.174.852.281,0,.058-.115.13-.35.216s-.517.189-.84.308a7.644,7.644,0,0,0-.931.42,1.969,1.969,0,0,0-.681.545Zm-13.795.558a1.484,1.484,0,0,0,.743.693,5.916,5.916,0,0,0,1.421.48,14.577,14.577,0,0,0,1.914.276q1.068.088,2.232.082a23.231,23.231,0,0,0,2.37-.117,13.734,13.734,0,0,0,1.773-.3,8.289,8.289,0,0,0,1.333-.44,7.361,7.361,0,0,0,1.019-.544Zm32.815-.366a1.537,1.537,0,0,0-.812-.715,7.324,7.324,0,0,0-1.634-.516,18.09,18.09,0,0,0-2.317-.311q-1.317-.1-2.911-.094a22.456,22.456,0,0,0-2.439.127,12.654,12.654,0,0,0-1.773.322,6.475,6.475,0,0,0-1.273.471,9.123,9.123,0,0,0-.977.575Z" transform="translate(-744.703 -2730.7)"/></g><path class="aa" d="M642.546,2703.353c-19.671,0-40.153,1.731-43.429,5.082a4.054,4.054,0,0,1,.358.377c2.761-2.326,19.674-4.669,43.071-4.669,24,0,41.182,2.464,43.263,4.848a4.071,4.071,0,0,1,.33-.373C683.434,2705.148,662.567,2703.353,642.546,2703.353Z" transform="translate(-598.397 -2702.733)"/></g><g transform="translate(0 20.527)"><path class="r" d="M478.431,2655.176v9.786c0,3.162,19.752,5.725,44.117,5.725s44.117-2.563,44.117-5.725v-9.786Z" transform="translate(-478.405 -2649.45)"/><ellipse class="x" cx="44.117" cy="5.725" rx="44.117" ry="5.725" transform="translate(0.026)"/><path class="t" d="M522.335,2656.986c-21.579,0-44.143-2.061-44.143-6.037,0-.218.078-.6.3-.6s.124.3.124.519c0,2.521,17.956,5.33,43.722,5.33s43.722-2.809,43.722-5.33c0-.218.037-.423.256-.423s.166.291.166.51C566.479,2654.928,543.914,2656.986,522.335,2656.986Z" transform="translate(-478.192 -2645.14)"/><g transform="translate(16.352 3.556)"><path class="u" d="M654.1,2637.463c.433-.3.894-.595,1.387-.887a8.721,8.721,0,0,1,1.9-.79,18.217,18.217,0,0,1,2.908-.575,36.932,36.932,0,0,1,4.356-.235q2.558-.013,4.8.163a32.621,32.621,0,0,1,3.949.523,12.182,12.182,0,0,1,2.772.86,2.2,2.2,0,0,1,1.267,1.174l4.967.051a4.866,4.866,0,0,1,.952.088c.278.056.412.128.412.214l0,.409-6.386-.061a3.221,3.221,0,0,1-1.712,1.375,17.375,17.375,0,0,1-3.5,1.08l-2.326-.323a2.7,2.7,0,0,1-.513-.122c-.134-.049-.2-.1-.2-.16q0-.118.539-.269t1.218-.375a12.282,12.282,0,0,0,1.333-.527,1.809,1.809,0,0,0,.874-.726l-15.073-.15a14.329,14.329,0,0,1-1.331.859,8.682,8.682,0,0,1-1.955.76,20.419,20.419,0,0,1-3.033.548,42.74,42.74,0,0,1-4.573.224c-1.382.007-2.727-.045-4.044-.157a27.741,27.741,0,0,1-3.51-.5,10.913,10.913,0,0,1-2.518-.824c-.653-.328-1.02-.7-1.1-1.129l-4.09-.042a5.313,5.313,0,0,1-.966-.085c-.282-.055-.426-.127-.426-.218l0-.409,5.591.053a3,3,0,0,1,1.529-1.126,17.564,17.564,0,0,1,2.838-.854l1.873.257c.569.08.851.173.852.281,0,.058-.115.13-.35.216s-.516.189-.839.308a7.69,7.69,0,0,0-.931.42,1.979,1.979,0,0,0-.681.545Zm-13.795.557a1.482,1.482,0,0,0,.743.693,5.919,5.919,0,0,0,1.421.48,14.575,14.575,0,0,0,1.914.276q1.068.088,2.232.082a23.014,23.014,0,0,0,2.37-.117,13.658,13.658,0,0,0,1.773-.3,8.245,8.245,0,0,0,1.333-.44,7.416,7.416,0,0,0,1.019-.544Zm32.815-.365a1.539,1.539,0,0,0-.812-.715,7.309,7.309,0,0,0-1.634-.516,18.038,18.038,0,0,0-2.317-.311q-1.317-.1-2.911-.094a22.1,22.1,0,0,0-2.439.126,12.549,12.549,0,0,0-1.773.322,6.446,6.446,0,0,0-1.273.471,8.952,8.952,0,0,0-.977.575Z" transform="translate(-630.48 -2634.975)"/></g><path class="ab" d="M528.323,2607.626c-19.671,0-40.153,1.731-43.429,5.082a4.1,4.1,0,0,1,.358.377c2.762-2.326,19.674-4.669,43.071-4.669,24,0,41.182,2.464,43.263,4.848a3.988,3.988,0,0,1,.33-.373C569.211,2609.421,548.344,2607.626,528.323,2607.626Z" transform="translate(-484.174 -2607.006)"/></g><g transform="translate(10.582 10.278)"><path class="r" d="M576.989,2559.731v9.785c0,3.162,19.752,5.725,44.117,5.725s44.117-2.563,44.117-5.725v-9.785Z" transform="translate(-576.963 -2554.005)"/><ellipse class="x" cx="44.118" cy="5.725" rx="44.118" ry="5.725" transform="translate(0.026)"/><path class="t" d="M620.893,2561.54c-21.579,0-44.143-2.061-44.143-6.037,0-.218.078-.6.3-.6s.124.3.124.519c0,2.521,17.956,5.33,43.722,5.33s43.722-2.809,43.722-5.33c0-.219.037-.423.256-.423s.166.291.166.51C665.037,2559.481,642.472,2561.54,620.893,2561.54Z" transform="translate(-576.75 -2549.694)"/><g transform="translate(16.352 3.556)"><path class="u" d="M752.662,2542.018c.433-.3.893-.6,1.386-.887a8.739,8.739,0,0,1,1.9-.79,18.085,18.085,0,0,1,2.908-.575,36.858,36.858,0,0,1,4.356-.235q2.558-.012,4.8.163a32.721,32.721,0,0,1,3.949.523,12.237,12.237,0,0,1,2.772.86A2.195,2.195,0,0,1,776,2542.25l4.968.051a4.928,4.928,0,0,1,.952.088c.278.057.412.128.412.215l0,.409-6.386-.061a3.219,3.219,0,0,1-1.712,1.375,17.327,17.327,0,0,1-3.5,1.08l-2.326-.323a2.7,2.7,0,0,1-.513-.122c-.134-.049-.2-.1-.2-.16q0-.118.539-.269t1.218-.375a12.284,12.284,0,0,0,1.333-.527,1.809,1.809,0,0,0,.874-.726l-15.074-.149a14.345,14.345,0,0,1-1.331.859,8.662,8.662,0,0,1-1.955.759,20.443,20.443,0,0,1-3.033.548,42.87,42.87,0,0,1-4.573.224c-1.382.007-2.727-.046-4.044-.157a27.659,27.659,0,0,1-3.51-.5,10.949,10.949,0,0,1-2.518-.824c-.653-.328-1.02-.7-1.1-1.129l-4.09-.042a5.354,5.354,0,0,1-.966-.085c-.282-.055-.426-.127-.426-.218l0-.409,5.591.053a3,3,0,0,1,1.529-1.126,17.506,17.506,0,0,1,2.837-.854l1.873.257c.569.08.851.174.852.281,0,.058-.115.13-.35.216s-.517.189-.84.308a7.738,7.738,0,0,0-.931.42,1.98,1.98,0,0,0-.681.546Zm-13.795.557a1.485,1.485,0,0,0,.743.693,5.916,5.916,0,0,0,1.421.48,14.577,14.577,0,0,0,1.914.275q1.068.088,2.232.083a23.224,23.224,0,0,0,2.37-.117,13.7,13.7,0,0,0,1.773-.3,8.288,8.288,0,0,0,1.333-.44,7.374,7.374,0,0,0,1.018-.544Zm32.815-.366a1.537,1.537,0,0,0-.812-.715,7.326,7.326,0,0,0-1.634-.515,18.12,18.12,0,0,0-2.316-.311q-1.317-.1-2.911-.094a22.352,22.352,0,0,0-2.439.126,12.692,12.692,0,0,0-1.773.322,6.492,6.492,0,0,0-1.273.471,9.038,9.038,0,0,0-.977.575Z" transform="translate(-729.039 -2539.529)"/></g><path class="ac" d="M626.882,2512.18c-19.671,0-40.153,1.731-43.43,5.082a4.087,4.087,0,0,1,.358.377c2.761-2.326,19.674-4.668,43.071-4.668,24,0,41.182,2.464,43.263,4.848a4.033,4.033,0,0,1,.33-.374C667.769,2513.975,646.9,2512.18,626.882,2512.18Z" transform="translate(-582.732 -2511.561)"/></g><g transform="translate(5.078)"><path class="r" d="M525.725,2464v9.785c0,3.162,19.752,5.725,44.118,5.725s44.117-2.563,44.117-5.725V2464Z" transform="translate(-525.699 -2458.279)"/><ellipse class="x" cx="44.117" cy="5.725" rx="44.117" ry="5.725" transform="translate(0.026)"/><path class="t" d="M569.629,2465.813c-21.579,0-44.143-2.061-44.143-6.036,0-.218.078-.6.3-.6s.124.3.124.519c0,2.521,17.956,5.33,43.722,5.33s43.722-2.809,43.722-5.33c0-.218.037-.423.256-.423s.166.292.166.51C613.773,2463.755,591.208,2465.813,569.629,2465.813Z" transform="translate(-525.486 -2453.968)"/><g transform="translate(16.352 3.556)"><path class="u" d="M701.4,2446.291c.433-.3.894-.595,1.386-.887a8.744,8.744,0,0,1,1.9-.79,18.142,18.142,0,0,1,2.908-.575,36.812,36.812,0,0,1,4.356-.235q2.558-.012,4.8.163a32.63,32.63,0,0,1,3.949.523,12.234,12.234,0,0,1,2.772.86,2.2,2.2,0,0,1,1.267,1.175l4.967.051a4.868,4.868,0,0,1,.952.088c.278.057.412.128.412.215l0,.409-6.386-.062a3.22,3.22,0,0,1-1.712,1.375,17.36,17.36,0,0,1-3.5,1.08l-2.326-.324a2.72,2.72,0,0,1-.513-.121c-.134-.049-.2-.1-.2-.16q0-.118.539-.269t1.218-.375a12.282,12.282,0,0,0,1.333-.527,1.81,1.81,0,0,0,.874-.726l-15.074-.15a14.292,14.292,0,0,1-1.331.859,8.682,8.682,0,0,1-1.955.76,20.44,20.44,0,0,1-3.033.548,42.808,42.808,0,0,1-4.573.224c-1.382.007-2.727-.045-4.044-.156a27.6,27.6,0,0,1-3.51-.5,10.929,10.929,0,0,1-2.518-.824c-.653-.328-1.02-.7-1.1-1.129l-4.09-.042a5.334,5.334,0,0,1-.966-.085c-.282-.055-.426-.127-.426-.218l0-.409,5.591.053a3,3,0,0,1,1.529-1.126,17.509,17.509,0,0,1,2.838-.854l1.873.257c.569.08.851.173.852.281,0,.058-.115.13-.35.215s-.516.189-.839.308a7.7,7.7,0,0,0-.931.42,1.979,1.979,0,0,0-.681.545Zm-13.795.558a1.482,1.482,0,0,0,.743.693,5.927,5.927,0,0,0,1.421.48,14.494,14.494,0,0,0,1.914.275q1.068.088,2.232.082a23.242,23.242,0,0,0,2.37-.116,13.769,13.769,0,0,0,1.773-.3,8.244,8.244,0,0,0,1.333-.44,7.416,7.416,0,0,0,1.019-.544Zm32.815-.366a1.537,1.537,0,0,0-.812-.715,7.335,7.335,0,0,0-1.634-.516,18.038,18.038,0,0,0-2.316-.311q-1.318-.1-2.912-.094a22.4,22.4,0,0,0-2.439.127,12.551,12.551,0,0,0-1.773.322,6.473,6.473,0,0,0-1.273.471,9.012,9.012,0,0,0-.977.575Z" transform="translate(-677.774 -2443.803)"/></g><path class="ad" d="M575.617,2416.454c-19.671,0-40.153,1.731-43.429,5.082a3.914,3.914,0,0,1,.358.377c2.761-2.327,19.674-4.669,43.071-4.669,24,0,41.182,2.465,43.263,4.849a4.023,4.023,0,0,1,.33-.374C616.5,2418.249,595.638,2416.454,575.617,2416.454Z" transform="translate(-531.468 -2415.834)"/></g><g transform="translate(97.487 12.464)"><path class="ae" d="M1394.522,2528.251l-7.974,5.672c-2.577,1.833,6.783,19.414,20.906,39.269s27.66,34.465,30.237,32.632l7.974-5.672Z" transform="translate(-1386.121 -2528.091)"/><path class="af" d="M1511.956,2598.861c-2.577,1.833-16.114-12.777-30.237-32.632s-23.483-37.436-20.906-39.269,16.114,12.777,30.237,32.632S1514.532,2597.029,1511.956,2598.861Z" transform="translate(-1452.412 -2526.801)"/><path class="ag" d="M1479.618,2566.423c-12.508-17.584-23.907-37.166-20.667-39.47.178-.126.536-.285.662-.107s-.173.275-.35.4c-2.054,1.461,6.065,17.722,21,38.718s27.632,34,29.686,32.539c.178-.127.366-.215.493-.037s-.141.3-.319.43C1506.882,2601.2,1492.126,2584.007,1479.618,2566.423Z" transform="translate(-1450.633 -2526.766)"/><g transform="translate(17.423 13.511)"><path class="u" d="M1562.26,2671.982q.742.268,1.526.616a8.726,8.726,0,0,1,1.742,1.087,18.1,18.1,0,0,1,2.154,2.036,36.866,36.866,0,0,1,2.717,3.413q1.493,2.077,2.651,4.007a32.679,32.679,0,0,1,1.863,3.521,12.218,12.218,0,0,1,.906,2.757,2.194,2.194,0,0,1-.223,1.713l2.838,4.077a4.907,4.907,0,0,1,.48.827c.115.259.134.41.064.46l-.332.239-3.651-5.24a3.221,3.221,0,0,1-2.113-.6,17.367,17.367,0,0,1-2.91-2.227l-1.084-2.083a2.694,2.694,0,0,1-.2-.489c-.038-.137-.033-.221.015-.255q.1-.069.532.284t1.012.775a12.226,12.226,0,0,0,1.2.781,1.808,1.808,0,0,0,1.1.292l-8.615-12.37a14.288,14.288,0,0,1-1.471-.587,8.7,8.7,0,0,1-1.752-1.153,20.494,20.494,0,0,1-2.2-2.154,43,43,0,0,1-2.833-3.6q-1.209-1.683-2.216-3.386a27.712,27.712,0,0,1-1.626-3.15,10.941,10.941,0,0,1-.788-2.529,1.764,1.764,0,0,1,.285-1.548l-2.336-3.357a5.341,5.341,0,0,1-.491-.837c-.119-.261-.143-.42-.07-.474l.332-.239,3.2,4.588a3,3,0,0,1,1.8.593,17.513,17.513,0,0,1,2.34,1.817l.876,1.675c.265.51.352.794.265.857-.047.034-.172-.019-.379-.161s-.453-.311-.737-.506a7.7,7.7,0,0,0-.882-.515,1.982,1.982,0,0,0-.839-.239Zm-8.45-10.918a1.482,1.482,0,0,0-.135,1.007,5.935,5.935,0,0,0,.433,1.436,14.543,14.543,0,0,0,.885,1.72q.547.921,1.227,1.867a23.286,23.286,0,0,0,1.469,1.863,13.756,13.756,0,0,0,1.272,1.271,8.306,8.306,0,0,0,1.132.832,7.4,7.4,0,0,0,1.034.514Zm19.318,26.528a1.536,1.536,0,0,0,.112-1.076,7.315,7.315,0,0,0-.527-1.63,17.976,17.976,0,0,0-1.089-2.068q-.681-1.133-1.611-2.427a22.335,22.335,0,0,0-1.517-1.914,12.554,12.554,0,0,0-1.29-1.258,6.478,6.478,0,0,0-1.122-.764,9.037,9.037,0,0,0-1.035-.463Z" transform="translate(-1548.387 -2652.595)"/></g><path class="ah" d="M1496.77,2565.833c-11.4-16.03-24.684-31.717-29.314-32.444a3.963,3.963,0,0,1-.1.51c3.5.9,15.208,13.325,28.77,32.392,13.91,19.556,21.862,34.987,21.126,38.064a4,4,0,0,1,.5.052C1519.006,2600.192,1508.374,2582.148,1496.77,2565.833Z" transform="translate(-1458.633 -2532.678)"/></g></g></g></g><g transform="translate(641.887 4258.83)"><path class="ai" d="M554.562,1010.872s-23.292,17.069-28.99,16.658-25.875-12.862-25.875-12.862l4.269-5.075s18.274,6.77,21.62,4.9,16.415-17.71,21.9-16.865S558.385,1004.735,554.562,1010.872Z" transform="translate(-464.517 -969.012)"/><g transform="translate(63.372 75.729)"><path class="aj" d="M359.315,1733.561h6.963a4.22,4.22,0,0,0,1.9-3.19c.34-2.244,2.854-3.467,3.4-5.3s-2.243-4.416-2.243-4.416l-.466-.6-.485-.623-4.621,1.088s-.115,1.1-.184,2.5a32,32,0,0,0-.02,3.205c.136,2.447-.684,5.081-2.858,5.557C359.1,1732.134,359.168,1733.087,359.315,1733.561Z" transform="translate(-318.906 -1639.175)"/><path class="aj" d="M564.956,1761.509h15.924c.766-.935.483-4.384.368-5.509-.024-.227-.041-.359-.041-.359s-5.437-4.349-6.184-1.019c-.023.1-.05.207-.081.307-.941,3.115-5.162,4.531-7.6,4.925A2.761,2.761,0,0,0,564.956,1761.509Z" transform="translate(-564.956 -1667.122)"/><path class="ak" d="M510.195,1289.234s.826,10.3,1.8,22.684c1.319,16.821,2.9,37.483,3.062,41.4.271,6.8,1.36,17.669,1.36,17.669s2.581,2.583,7.747,1.494a177.869,177.869,0,0,0,5.918-31.942l.061-.811c1.223-16.717,3.125-51.918,3.125-51.918Z" transform="translate(-507.161 -1283.73)"/><path class="al" d="M510.195,1289.234s.826,10.3,1.8,22.684l18.087,28.618.061-.811c1.223-16.717,3.125-51.918,3.125-51.918Z" transform="translate(-507.161 -1283.73)"/><path class="ak" d="M372.35,1271.432s14.882,37.307,24.668,54.84,12.844,22.425,12.844,22.425,5.606-2.242,6.116-3.771c0,0-3.742-33.847-10.3-42.1-3.7-4.662-8.053-18.653-8.257-23.546S396.1,1264.7,396.1,1264.7Z" transform="translate(-365.545 -1264.705)"/></g><path class="am" d="M472.528,936.03c5.554,2.518,16.137-1.2,16.137-1.2s-4.842-4.637-3.562-12.911l-4.9,3.06-3.327,2.078a36.62,36.62,0,0,0-.134,4.007c.008.675.027,1.428.067,2.254A13.914,13.914,0,0,0,472.528,936.03Z" transform="translate(-392.542 -906.692)"/><path class="an" d="M495.471,941.329a36.615,36.615,0,0,0-.134,4.007c3.43-.172,7.9-5.143,7.9-5.143a10.789,10.789,0,0,0-4.435-.942Z" transform="translate(-411.135 -920.959)"/><path class="am" d="M478.042,877.272s9.346,2.734,10.959-3.113,3.905-9.431-1.994-11.424-7.679-.083-8.692,1.738S475.653,876.41,478.042,877.272Z" transform="translate(-395.455 -857.252)"/><path class="ao" d="M457.666,1032.43a37.582,37.582,0,0,0-.362,4.439.936.936,0,0,0,.58.305c2.171.232,8.348,2.2,13.765,2.294a40.118,40.118,0,0,0,13.235-2.15c.6-.186,1.995-.728,2.041-1.368.065-.7.117-1.718.185-3A160.2,160.2,0,0,1,489.3,1012.1c.289-1.622.532-3.24.731-4.836,1.479-11.894.38-22.644-3.933-26.76-.372-.338-3,.577-5.423,1.429a9.514,9.514,0,0,1-6.307,0l-2.207,1.522a20.067,20.067,0,0,0-7.447,9.223c-1.462,3.842-2.9,10.914-4.11,18.276-.548,3.338-1.073,6.706-1.488,9.912l-.014.115c-.067.315-.109.664-.147.982q-.115.854-.223,1.68C458.281,1027.068,457.917,1030.122,457.666,1032.43Z" transform="translate(-391.84 -954.87)"/><path class="ao" d="M481.27,851.955s-.959-.282-.639-1.611.531-3.091-.605-2.895-1.3,1.067-1.685.5-.136-2.727-3.379-3.27-4.7.432-6.141-.418-1.24-3.154-1.24-3.154a2.628,2.628,0,0,0,.952,1.211s-2.113-3.765,1.1-5.785,6.015-.107,7.7.2c3.707.676,6.093,1.191,7.018,3.792S483.952,849.881,481.27,851.955Z" transform="translate(-387.647 -835.62)"/><path class="ai" d="M497.091,1146.682c.458.085,8.429,1.516,13.847-2.054,5.579-3.675,12.115-25.463,12.115-25.463s-12.531,13.936-12.774,14.486c-.2.463-9.24,3.336-12.123,4.244C497.706,1141.32,497.342,1144.375,497.091,1146.682Z" transform="translate(-431.265 -1069.123)"/><g transform="translate(0 7.636)"><g transform="translate(0 0)"><path class="ap" d="M0,61.994H61.994V0H0Z" transform="matrix(-1, -0.014, 0.014, -1, 61.988, 62.87)"/><rect class="aq" width="61.994" height="61.994" transform="matrix(-1, -0.014, 0.014, -1, 75.216, 63.058)"/></g></g><path class="am" d="M722.555,1214.864a16.575,16.575,0,0,0,5.637-1.366,9.756,9.756,0,0,0,2.2-1.425l-.22-1.378-.265-1.646s-.161-.026-.43-.053-.643-.057-1.07-.064a1.4,1.4,0,0,1-1.258-.3,2.978,2.978,0,0,0-2.41-.663c-.792.191-2.5.013-2.551.29-.134.671,2.35.549,2.641.969a.5.5,0,0,1-.025.684l-.01.008c-1.454,1.467-6.46,2-6.26,3.164C718.6,1213.519,721.67,1214.881,722.555,1214.864Z" transform="translate(-677.679 -1142.209)"/><path class="ao" d="M520.694,1032.159s-11.465,26.5-16.589,29.03-28.5.563-28.5.563l-.154-4.524s20.136-3.988,22.079-7.29,5.207-23.58,10.366-25.622S520.889,1024.931,520.694,1032.159Z" transform="translate(-425.089 -990.463)"/></g><g transform="translate(659.112 4284.791) rotate(1)"><circle class="ar" cx="4.339" cy="4.339" r="4.339" transform="translate(9.849 2.461)"/><circle class="ar" cx="4.339" cy="4.339" r="4.339" transform="translate(36.627 2.461)"/><path class="as" d="M540.279,80.809a2.274,2.274,0,0,1,3.025.517c1.649,2.069,5.462,6.506,8.116,6.885a8.277,8.277,0,0,0,8.43-3.471c2.479-3.719,4.711-9.422,5.207-10.165s2.975-1.736,4.463,1.735,4.959,10.414,8.678,11.654c1.984.5,6.447.992,10.414-4.463,1.854-2.318,3.058-4.418,5.232-2.659a2.578,2.578,0,0,1,.8,1.1c.349.941.349,2.615-3.556,4.288-3.967,2.975-7.687,5.951-9.174,9.422-.635,1.058-1.994,3.022-4.54,1.254a6.221,6.221,0,0,1-1.943-2.241c-2.376-4.535-6.5-13.908-7.649-14.138-1.24-.248-1.983,0-3.967,3.471-1.983,4.463-4.959,11.405-6.694,12.645s-3.471,1.239-4.711-.744a32.009,32.009,0,0,0-4.959-6.2c-1.488-1.239-7.047-4.815-7.438-5.206C539.518,84,538.66,81.9,540.279,80.809Z" transform="translate(-539.339 -73.849)"/></g></g></svg>