<svg xmlns="http://www.w3.org/2000/svg" xmlns:xlink="http://www.w3.org/1999/xlink" width="41.991" height="51.544" viewBox="0 0 41.991 51.544">
  <defs>
    <linearGradient id="linear-gradient" x1="-0.852" y1="0.401" x2="1.711" y2="0.589" gradientUnits="objectBoundingBox">
      <stop offset="0" stop-color="#fff"/>
      <stop offset="0.008" stop-color="#01ea9e"/>
      <stop offset="1" stop-color="#03bfff"/>
    </linearGradient>
    <linearGradient id="linear-gradient-3" x1="-0.002" y1="0.431" x2="0.993" y2="0.601" xlink:href="#linear-gradient"/>
    <linearGradient id="linear-gradient-4" x1="-0.673" y1="0.457" x2="8.392" y2="0.918" gradientUnits="objectBoundingBox">
      <stop offset="0.221" stop-color="#01bdfd"/>
      <stop offset="1" stop-color="#457ae6"/>
    </linearGradient>
  </defs>
  <g id="Group_16769" data-name="Group 16769" transform="translate(-1468 -8272.126)">
    <g id="Group_16768" data-name="Group 16768">
      <g id="Group_16767" data-name="Group 16767" transform="translate(928.661 8198.277)">
        <g id="Group_1923" data-name="Group 1923" transform="translate(539.339 73.849)">
          <circle id="Ellipse_325" data-name="Ellipse 325" cx="3.286" cy="3.286" r="3.286" transform="translate(7.458 1.864)" fill="url(#linear-gradient)"/>
          <circle id="Ellipse_326" data-name="Ellipse 326" cx="3.286" cy="3.286" r="3.286" transform="translate(27.737 1.864)" fill="url(#linear-gradient)"/>
          <path id="Path_6609" data-name="Path 6609" d="M540.051,79.12a1.722,1.722,0,0,1,2.29.392c1.249,1.567,4.136,4.927,6.146,5.214a6.268,6.268,0,0,0,6.384-2.629c1.878-2.816,3.568-7.135,3.943-7.7s2.253-1.315,3.38,1.314,3.755,7.886,6.572,8.825c1.5.376,4.882.751,7.886-3.38,1.4-1.755,2.316-3.346,3.962-2.013a1.952,1.952,0,0,1,.609.831c.264.713.264,1.98-2.693,3.247-3,2.253-5.821,4.506-6.947,7.135-.481.8-1.51,2.288-3.438.95a4.711,4.711,0,0,1-1.472-1.7c-1.8-3.434-4.923-10.532-5.793-10.706-.939-.188-1.5,0-3,2.629-1.5,3.38-3.755,8.637-5.069,9.576s-2.629.939-3.568-.564a24.236,24.236,0,0,0-3.755-4.694c-1.127-.939-5.336-3.646-5.633-3.943C539.474,81.533,538.825,79.946,540.051,79.12Z" transform="translate(-539.339 -73.849)" fill="url(#linear-gradient-3)"/>
        </g>
        <g id="Group_1924" data-name="Group 1924" transform="translate(550.014 95.562)">
          <path id="Path_6610" data-name="Path 6610" d="M566.826,123.512v13.013A65.982,65.982,0,0,1,573.5,128.6a5.594,5.594,0,0,1,4.325-1.415h3.112v.2a114.689,114.689,0,0,0-8.852,9.9c1.738,2.143,3.435,4.368,5.375,6.349,1.981,1.978,2.87,2.383,4.2,2.827a3.333,3.333,0,0,1-3.679,2.669,5.307,5.307,0,0,1-3.557-1.5,93.005,93.005,0,0,1-7.6-9.294v10.63l-1.738.04c-2.506.039-3.718-1.294-3.718-3.841V119.911h1.738C565.735,119.911,566.826,121.409,566.826,123.512Z" transform="translate(-561.37 -119.305)" fill="url(#linear-gradient-4)"/>
        </g>
      </g>
    </g>
  </g>
</svg>
