<svg id="Group_5955" data-name="Group 5955" xmlns="http://www.w3.org/2000/svg" width="69.169" height="69.169" viewBox="0 0 69.169 69.169">
  <g id="Group_5922" data-name="Group 5922" transform="translate(0 0)">
    <g id="Group_5919" data-name="Group 5919" transform="translate(0 0)">
      <g id="dentist_3_" data-name="dentist (3)">
        <g id="Group_5911" data-name="Group 5911">
          <g id="Group_5910" data-name="Group 5910">
            <g id="Group_5909" data-name="Group 5909">
              <g id="Group_5908" data-name="Group 5908">
                <g id="Group_5907" data-name="Group 5907">
                  <g id="Group_5906" data-name="Group 5906">
                    <g id="Group_5905" data-name="Group 5905">
                      <g id="Group_5904" data-name="Group 5904">
                        <circle id="Ellipse_367" data-name="Ellipse 367" cx="34.423" cy="34.423" r="34.423" fill="#ffde07"/>
                      </g>
                    </g>
                  </g>
                </g>
              </g>
            </g>
          </g>
        </g>
        <path id="Path_6776" data-name="Path 6776" d="M215.334,135.879q0-1.369-.1-2.713l-30.37-9.018-1.83,4.1-18.114,24.674,14.84,17.7q.415.01.832.01A34.746,34.746,0,0,0,215.334,135.879Z" transform="translate(-146.164 -101.455)" fill="#c9b008"/>
      </g>
    </g>
  </g>
  <g id="Group_5923" data-name="Group 5923" transform="translate(14.155 11.259)">
    <path id="Path_6828" data-name="Path 6828" d="M867.509,541.792c1.071-1.509,2.05-2.913,3.056-4.3,1.275-1.755,2.518-2.089,4.177-.754,1.928,1.55,4.171,1.82,6.449,2.178a6.921,6.921,0,0,1,6.05,6.6c.154,3.2.123,6.415.134,9.624a2.236,2.236,0,0,1-2.018,2.332c-4.134.873-8.28,1.689-12.424,2.519-5.3,1.063-10.533.215-15.753-.67-2.212-.375-4.409-.85-6.605-1.314a3.112,3.112,0,0,1-2.746-3.341c-.047-2.68-.1-5.359-.111-8.039a7.083,7.083,0,0,1,6.355-7.476,13.184,13.184,0,0,0,6.346-2.493c1.577-1.208,2.771-.9,3.93.724C865.365,538.806,866.388,540.228,867.509,541.792Zm2.987,16.782a4.979,4.979,0,0,0,.763,0q6.8-1.323,13.6-2.66c.728-.143.913-.613.9-1.3-.07-2.944-.083-5.889-.164-8.833a5.334,5.334,0,0,0-4.367-5.18c-1-.2-2.033-.266-3.032-.48-.6-.128-.82.113-1.032.6-.742,1.694-1.516,3.375-2.278,5.06-.891,1.968-1.806,2.395-3.911,1.764-.415,1.352-1.139,2.554-.916,4.139C870.374,553.922,870.363,556.213,870.5,558.574Zm-12.877-18.412c-1.107.2-2.139.416-3.178.582-3.259.522-5.028,2.536-5.029,5.815,0,2.646.04,5.292.074,7.937.016,1.244.335,1.664,1.551,1.9,3.042.6,6.086,1.2,9.14,1.732,1.408.248,2.84.354,4.35.535.137-2.042.211-3.891.4-5.727a7.658,7.658,0,0,0-.942-5.385c-1.984.593-2.9.188-3.778-1.7S858.489,542.077,857.619,540.162Zm11.059,2.91c1.068.967,2.016,1.84,2.981,2.692.547.483,1.082.532,1.431-.223.927-2,1.835-4.015,2.775-6.078-.895-.58-1.726-1.179-2.62-1.659a1.03,1.03,0,0,0-.971.221C871.052,539.661,869.9,541.345,868.678,543.072Zm-9.488-3.623c.94,2.07,1.839,4.044,2.734,6.021.324.716.821.846,1.405.347,1.021-.874,2.006-1.789,3.052-2.727-1.218-1.706-2.377-3.342-3.551-4.967a.855.855,0,0,0-1.354-.217C860.757,538.424,860.008,538.9,859.19,539.449Zm9.128,10.7h-1.578c-.18,2.918-.357,5.765-.533,8.625h2.655C868.677,555.853,868.5,553.028,868.318,550.148Zm-.736-5.774c-2.314,1.669-2.453,2.145-1.246,4.063,2.58.118,2.609.125,3.073-1.553a1.384,1.384,0,0,0-.272-1.081A15.207,15.207,0,0,0,867.582,544.374Z" transform="translate(-847.718 -513.679)"/>
    <path id="Path_6829" data-name="Path 6829" d="M913.75,435.074a2.178,2.178,0,0,1-2.133,2.363,1.9,1.9,0,0,0-1.153,2.185,2.506,2.506,0,0,1-3.372,3.408,1.887,1.887,0,0,0-2.2,1.116,2.057,2.057,0,0,1-2.318,2.033,2.154,2.154,0,0,1-2.512-2.063,1.878,1.878,0,0,0-2.231-1.071,2.5,2.5,0,0,1-3.38-3.359,1.842,1.842,0,0,0-1.146-2.257,2.072,2.072,0,0,1-1.986-2.367,2.143,2.143,0,0,1,2.029-2.446,1.972,1.972,0,0,0,1.164-2.209c-.6-1.376-.507-1.99.454-2.938a2.1,2.1,0,0,1,2.859-.435,1.892,1.892,0,0,0,2.247-1.2,2.067,2.067,0,0,1,2.38-1.964,2.12,2.12,0,0,1,2.425,1.938,1.776,1.776,0,0,0,2.306,1.156,2.519,2.519,0,0,1,3.335,3.38,1.822,1.822,0,0,0,1.1,2.273A2.181,2.181,0,0,1,913.75,435.074Zm-15.539,5.883a11.851,11.851,0,0,0,2.035.859,1.612,1.612,0,0,1,1.42,1.721c.019.55.152.991.835.974.622-.016.761-.417.766-.934a1.59,1.59,0,0,1,1.483-1.764,1.994,1.994,0,0,0,.824-.328,1.707,1.707,0,0,1,2.334.032.778.778,0,0,0,1.059-1.039,1.631,1.631,0,0,1-.007-2.313,1.613,1.613,0,0,0,.334-.818c.1-1.158.618-1.725,1.853-1.618.245.021.532-.439.8-.677-.282-.257-.554-.529-.855-.761-.084-.065-.258-.027-.389-.016a1.1,1.1,0,0,1-1.3-1.033,5.9,5.9,0,0,0-.679-1.735,1.228,1.228,0,0,1,.028-1.543c.293-.388.629-.754.116-1.285-.538-.557-.915-.224-1.37.068-.642.412-3.729-.543-4.037-1.248a3.256,3.256,0,0,1-.167-.773c-.032-.2.034-.454-.071-.58-.206-.247-.5-.575-.757-.579s-.737.371-.726.557c.083,1.49-.806,2.017-2.05,2.295-.312.069-.579.368-.889.415a2.372,2.372,0,0,1-1.267-.059c-.533-.242-1-.586-1.518-.062-.53.54-.055.952.223,1.389.444.7-.707,3.758-1.5,3.991a4.893,4.893,0,0,1-.683.116c-.164.024-.388-.024-.482.066-.231.226-.557.515-.554.775s.381.72.577.711c1.417-.064,2.027.691,2.231,1.967a1.3,1.3,0,0,0,.247.537,1.453,1.453,0,0,1-.05,1.979c-.36.435-.373.9.139,1.162a1.771,1.771,0,0,0,1.1.042A4.136,4.136,0,0,0,898.212,440.957Z" transform="translate(-882.664 -423.871)"/>
    <path id="Path_6830" data-name="Path 6830" d="M960.533,575.364c-.133-2.36-.122-4.653-.438-6.9-.223-1.585.5-2.787.917-4.14,2.1.63,3.02.2,3.91-1.764.763-1.686,1.536-3.366,2.277-5.061.213-.485.434-.726,1.032-.6,1,.214,2.029.28,3.033.481a5.333,5.333,0,0,1,4.367,5.18c.081,2.944.093,5.889.163,8.833.017.691-.168,1.161-.9,1.3q-6.8,1.331-13.6,2.659A4.908,4.908,0,0,1,960.533,575.364Z" transform="translate(-937.754 -530.469)" fill="#3ec0fc"/>
    <path id="Path_6831" data-name="Path 6831" d="M864.464,557.288c.87,1.915,1.719,3.807,2.589,5.689s1.794,2.3,3.778,1.7a7.653,7.653,0,0,1,.942,5.385c-.189,1.836-.263,3.685-.4,5.727-1.509-.181-2.942-.287-4.35-.534-3.053-.537-6.1-1.132-9.14-1.733-1.216-.24-1.535-.66-1.551-1.9-.034-2.645-.075-5.291-.075-7.937,0-3.279,1.77-5.293,5.029-5.815C862.325,557.7,863.357,557.492,864.464,557.288Z" transform="translate(-854.562 -530.805)" fill="#3ec0fc"/>
    <path id="Path_6832" data-name="Path 6832" d="M953.314,550.485c1.217-1.727,2.374-3.411,3.6-5.047a1.03,1.03,0,0,1,.97-.221c.9.481,1.726,1.079,2.621,1.659-.94,2.064-1.847,4.076-2.775,6.078-.349.755-.883.706-1.431.223C955.329,552.325,954.382,551.452,953.314,550.485Z" transform="translate(-932.353 -521.092)" fill="#40a2fb"/>
    <path id="Path_6833" data-name="Path 6833" d="M905.512,546.5c.818-.549,1.568-1.025,2.287-1.543a.855.855,0,0,1,1.354.217c1.173,1.625,2.333,3.261,3.551,4.967-1.046.938-2.031,1.854-3.052,2.727-.584.5-1.081.369-1.405-.347C907.351,550.542,906.452,548.568,905.512,546.5Z" transform="translate(-894.04 -520.727)" fill="#40a2fb"/>
    <path id="Path_6834" data-name="Path 6834" d="M942.97,607.594c.182,2.881.359,5.705.544,8.626h-2.656c.177-2.861.353-5.708.533-8.626Z" transform="translate(-922.37 -571.125)" fill="#fff"/>
    <path id="Path_6835" data-name="Path 6835" d="M939.736,578.5a15.223,15.223,0,0,1,1.555,1.43,1.384,1.384,0,0,1,.272,1.081c-.464,1.679-.493,1.67-3.073,1.553C937.283,580.649,937.421,580.173,939.736,578.5Z" transform="translate(-919.871 -547.809)" fill="#fff"/>
    <path id="Path_6836" data-name="Path 6836" d="M905.063,447.805a4.115,4.115,0,0,1-.955.491,1.767,1.767,0,0,1-1.1-.042c-.512-.258-.5-.727-.139-1.162a1.453,1.453,0,0,0,.05-1.979,1.306,1.306,0,0,1-.247-.537c-.2-1.276-.815-2.031-2.231-1.967-.2.009-.573-.46-.577-.711s.323-.549.554-.775c.093-.091.318-.043.481-.067a4.9,4.9,0,0,0,.684-.116c.794-.233,1.945-3.293,1.5-3.99-.278-.437-.753-.849-.223-1.389.514-.524.985-.18,1.517.062a2.375,2.375,0,0,0,1.267.059c.31-.048.577-.346.889-.415,1.244-.278,2.133-.8,2.05-2.294-.01-.186.475-.561.726-.557s.552.332.757.579c.1.125.039.385.071.58a3.24,3.24,0,0,0,.167.773c.308.705,3.4,1.66,4.037,1.248.455-.292.832-.624,1.37-.068.514.53.177.9-.116,1.285a1.229,1.229,0,0,0-.028,1.543,5.9,5.9,0,0,1,.679,1.735,1.1,1.1,0,0,0,1.3,1.033c.131-.01.305-.049.39.016.3.233.572.5.855.761-.268.238-.554.7-.8.677-1.235-.106-1.754.461-1.853,1.619a1.612,1.612,0,0,1-.334.818,1.632,1.632,0,0,0,.007,2.313.778.778,0,0,1-1.058,1.039,1.707,1.707,0,0,0-2.334-.032,2,2,0,0,1-.823.328,1.589,1.589,0,0,0-1.483,1.764c-.005.517-.144.918-.766.934-.683.017-.816-.424-.835-.974a1.613,1.613,0,0,0-1.42-1.721A11.873,11.873,0,0,1,905.063,447.805Zm-.551-5.986a4.8,4.8,0,1,0,4.721-4.759A4.785,4.785,0,0,0,904.513,441.819Z" transform="translate(-889.516 -430.719)" fill="#01e9a1"/>
    <path id="Path_6837" data-name="Path 6837" d="M923.266,460.575a4.8,4.8,0,1,1,4.721,4.86A4.795,4.795,0,0,1,923.266,460.575Zm7.93.06a3.131,3.131,0,1,0-3.2,3.123A3.161,3.161,0,0,0,931.2,460.635Z" transform="translate(-908.27 -449.475)"/>
    <path id="Path_6838" data-name="Path 6838" d="M937.928,467.411a3.192,3.192,0,0,1-3.2,3.123,3.132,3.132,0,1,1,3.2-3.123Z" transform="translate(-915.003 -456.251)" fill="#01e9a1"/>
  </g>
</svg>
