<svg xmlns="http://www.w3.org/2000/svg" width="81.547" height="81.57" viewBox="0 0 81.547 81.57">
  <g id="transparency_1_" data-name="transparency (1)" transform="translate(-0.394 0)">
    <path id="Path_7411" data-name="Path 7411" d="M104.554,130.468a21.655,21.655,0,0,0-30.611-1.49,12.885,12.885,0,0,0-1.354,1.354l-.542.948.677.813.136.135a21.6,21.6,0,0,0,30.475,1.354,12.759,12.759,0,0,0,1.354-1.354l.677-.948Zm-18.691.813a2.709,2.709,0,1,1,2.709,2.709A2.717,2.717,0,0,1,85.863,131.281Zm.948-5.147a5.488,5.488,0,0,0-3.522,6.772,5.383,5.383,0,0,0,3.522,3.522,19.143,19.143,0,0,1-11.377-5.147A19.512,19.512,0,0,1,86.81,126.134Zm3.522,10.294a5.487,5.487,0,0,0,3.522-6.772,5.385,5.385,0,0,0-3.522-3.522,19.144,19.144,0,0,1,11.377,5.147A19.511,19.511,0,0,1,90.332,136.428Zm0,0" transform="translate(-59.522 -102.467)" fill="#fff"/>
    <path id="Path_7412" data-name="Path 7412" d="M56.674,34.187A23.026,23.026,0,1,0,79.7,57.213,23.006,23.006,0,0,0,56.674,34.187Zm0,43.342A20.317,20.317,0,1,1,76.99,57.213,20.289,20.289,0,0,1,56.674,77.53Zm0,0" transform="translate(-27.624 -28.399)" fill="#fff"/>
    <path id="Path_7413" data-name="Path 7413" d="M335.319,93.657V48.96a6.706,6.706,0,0,0-6.772-6.772h-14.9V44.9h14.9a3.991,3.991,0,0,1,4.063,4.063v44.7Zm0,0" transform="translate(-260.218 -35.045)" fill="#fff"/>
    <path id="Path_7414" data-name="Path 7414" d="M41.648,322.188v13.545a6.706,6.706,0,0,0,6.772,6.772H95.826V339.8H48.421a3.991,3.991,0,0,1-4.063-4.063V322.188Zm0,0" transform="translate(-34.27 -267.639)" fill="#fff"/>
    <path id="Path_7415" data-name="Path 7415" d="M337.648,82.187h12.19V84.9h-12.19Zm0,0" transform="translate(-280.155 -68.273)" fill="#fff"/>
    <path id="Path_7416" data-name="Path 7416" d="M353.648,122.188h9.481V124.9h-9.481Zm0,0" transform="translate(-293.446 -101.501)" fill="#fff"/>
    <path id="Path_7417" data-name="Path 7417" d="M353.648,162.188h9.481V164.9h-9.481Zm0,0" transform="translate(-293.446 -134.729)" fill="#fff"/>
    <path id="Path_7418" data-name="Path 7418" d="M353.648,202.188h9.481V204.9h-9.481Zm0,0" transform="translate(-293.446 -167.956)" fill="#fff"/>
    <path id="Path_7419" data-name="Path 7419" d="M353.648,242.188h9.481V244.9h-9.481Zm0,0" transform="translate(-293.446 -201.184)" fill="#fff"/>
    <path id="Path_7420" data-name="Path 7420" d="M361.648,282.188h8.127V284.9h-8.127Zm0,0" transform="translate(-300.092 -234.412)" fill="#fff"/>
    <path id="Path_7421" data-name="Path 7421" d="M73.648,354.188h36.57V356.9H73.648Zm0,0" transform="translate(-60.852 -294.222)" fill="#fff"/>
    <path id="Path_7422" data-name="Path 7422" d="M73.648,386.188h41.988V388.9H73.648Zm0,0" transform="translate(-60.852 -320.804)" fill="#fff"/>
    <path id="Path_7423" data-name="Path 7423" d="M113.648,234.188H132.61V236.9H113.648Zm0,0" transform="translate(-94.08 -194.538)" fill="#fff"/>
    <path id="Path_7424" data-name="Path 7424" d="M113.648,90.188H132.61V92.9H113.648Zm0,0" transform="translate(-94.08 -74.918)" fill="#fff"/>
    <path id="Path_7425" data-name="Path 7425" d="M66.026,57.122A3.9,3.9,0,0,0,63.181,55.9h-.948L52.481,44.932a28.875,28.875,0,1,0-5.824,6.1l9.481,10.7v1.084a3.688,3.688,0,0,0,1.219,2.844L71.444,79.741a6.13,6.13,0,0,0,8.668-8.669ZM3.315,28.814A25.735,25.735,0,1,1,29.05,54.549,25.723,25.723,0,0,1,3.315,28.814ZM48.689,49.4c.677-.677,1.489-1.489,2.032-2.167L59.66,57.257l-2.167,2.032ZM75.778,78.929a3.9,3.9,0,0,1-2.438-.948L59.254,63.894a1.229,1.229,0,0,1-.406-.948V61.862L62.1,58.612h1.083a1.231,1.231,0,0,1,.948.406L78.216,73.1a3.434,3.434,0,0,1,0,4.876,4.221,4.221,0,0,1-2.438.948Zm0,0" transform="translate(0 0)" fill="#fff"/>
  </g>
</svg>
