<svg id="Group_9301" data-name="Group 9301" xmlns="http://www.w3.org/2000/svg" width="66.214" height="66.214" viewBox="0 0 66.214 66.214">
  <g id="Group_6615" data-name="Group 6615" transform="translate(0 0)">
    <g id="Group_5955" data-name="Group 5955" transform="translate(0 0)">
      <g id="Group_5922" data-name="Group 5922">
        <g id="Group_5919" data-name="Group 5919">
          <g id="dentist_3_" data-name="dentist (3)">
            <g id="Group_5911" data-name="Group 5911">
              <g id="Group_5910" data-name="Group 5910">
                <g id="Group_5909" data-name="Group 5909">
                  <g id="Group_5908" data-name="Group 5908">
                    <g id="Group_5907" data-name="Group 5907">
                      <g id="Group_5906" data-name="Group 5906">
                        <g id="Group_5905" data-name="Group 5905">
                          <g id="Group_5904" data-name="Group 5904">
                            <circle id="Ellipse_367" data-name="Ellipse 367" cx="33.044" cy="33.044" r="33.044" fill="#fce794"/>
                          </g>
                        </g>
                      </g>
                    </g>
                  </g>
                </g>
              </g>
            </g>
            <path id="Path_6776" data-name="Path 6776" d="M213.048,135.347q0-1.307-.1-2.59l-28.993-8.609-1.747,3.911-17.292,23.555,14.167,16.893q.4.009.794.009A33.171,33.171,0,0,0,213.048,135.347Z" transform="translate(-146.833 -102.303)" fill="#f6d13e"/>
          </g>
        </g>
      </g>
    </g>
    <g id="Group_6613" data-name="Group 6613" transform="translate(15.214 15.437)">
      <g id="Group_6466" data-name="Group 6466" transform="translate(0.516 0.515)">
        <g id="Group_6465" data-name="Group 6465" transform="translate(0)">
          <g id="Group_6463" data-name="Group 6463" transform="translate(0 13.068)">
            <g id="Group_6459" data-name="Group 6459" transform="translate(2.062)">
              <path id="Path_6982" data-name="Path 6982" d="M86.768,224.672H61.712a1.918,1.918,0,0,1,0-3.837H86.768A4.213,4.213,0,0,0,86.768,224.672Z" transform="translate(-58.476 -219.237)" fill="#f7f7f7"/>
              <path id="Path_6983" data-name="Path 6983" d="M112.754,220.834h-2.062a4.213,4.213,0,0,0,0,3.837h2.062A4.213,4.213,0,0,1,112.754,220.834Z" transform="translate(-84.462 -219.236)" fill="#efefef"/>
              <path id="Path_6984" data-name="Path 6984" d="M44.132,204.624a3.519,3.519,0,0,1-3.516-3.551,3.547,3.547,0,0,1,3.554-3.481H69.189a1.039,1.039,0,0,1,0,2.078H44.132a1.438,1.438,0,0,0,0,2.877H69.189a1.039,1.039,0,0,1,0,2.078Z" transform="translate(-40.617 -197.592)" fill="#ff815c"/>
            </g>
            <g id="Group_6462" data-name="Group 6462" transform="translate(0 7.032)">
              <g id="Group_6460" data-name="Group 6460" transform="translate(0 7.032)">
                <path id="Path_6985" data-name="Path 6985" d="M64.957,429.273H35.776a1.918,1.918,0,0,1,0-3.837H64.957A4.212,4.212,0,0,0,64.957,429.273Z" transform="translate(-32.26 -423.838)" fill="#f7f7f7"/>
                <path id="Path_6986" data-name="Path 6986" d="M452.066,425.436H450a4.213,4.213,0,0,0,0,3.837h2.062A4.212,4.212,0,0,1,452.066,425.436Z" transform="translate(-419.37 -423.838)" fill="#efefef"/>
                <path id="Path_6987" data-name="Path 6987" d="M14.132,409.225a3.519,3.519,0,0,1-3.516-3.551,3.547,3.547,0,0,1,3.554-3.481H43.313a1.039,1.039,0,0,1,0,2.078H14.132a1.438,1.438,0,0,0,0,2.877H43.313a1.039,1.039,0,0,1,0,2.078Z" transform="translate(-10.617 -402.193)" fill="#ffe66b"/>
              </g>
              <g id="Group_6461" data-name="Group 6461" transform="translate(0)">
                <path id="Path_6988" data-name="Path 6988" d="M25.729,323.135H54.91a1.918,1.918,0,0,1,0,3.837H25.729A4.213,4.213,0,0,0,25.729,323.135Z" transform="translate(-24.69 -321.537)" fill="#f7f7f7"/>
                <path id="Path_6989" data-name="Path 6989" d="M11.656,306.924a1.039,1.039,0,0,1,0-2.078H40.837a1.438,1.438,0,0,0,0-2.877H11.656a1.039,1.039,0,0,1,0-2.078H40.837a3.519,3.519,0,0,1,3.516,3.551,3.547,3.547,0,0,1-3.554,3.482Z" transform="translate(-10.617 -299.892)" fill="#c9f0ff"/>
                <path id="Path_6990" data-name="Path 6990" d="M424.265,300.935a3.491,3.491,0,0,0-2.5-1.043h-2.062a3.519,3.519,0,0,1,3.515,3.551,3.547,3.547,0,0,1-3.554,3.482h2.062a3.547,3.547,0,0,0,3.554-3.482A3.492,3.492,0,0,0,424.265,300.935Z" transform="translate(-391.548 -299.892)" fill="#b5eaff"/>
              </g>
            </g>
          </g>
          <g id="Group_6464" data-name="Group 6464" transform="translate(0.86)">
            <path id="Path_6991" data-name="Path 6991" d="M135.245,103.526H116l2.062-6.943h15.123Z" transform="translate(-109.613 -90.458)" fill="#288a9a"/>
            <path id="Path_6992" data-name="Path 6992" d="M37.36,7.723,23.68,11.316a.737.737,0,0,0,0,1.426l13.68,3.593a7,7,0,0,0,3.555,0L54.6,12.742a.737.737,0,0,0,0-1.426L40.915,7.723A7,7,0,0,0,37.36,7.723Z" transform="translate(-23.13 -7.493)" fill="#3498ac"/>
            <path id="Path_6993" data-name="Path 6993" d="M219.215,11.316l-13.68-3.593a7,7,0,0,0-3.555,0l-2.079.546a7,7,0,0,1,2.884.141L216.465,12a.737.737,0,0,1,0,1.426l2.75-.687A.737.737,0,0,0,219.215,11.316Z" transform="translate(-187.75 -7.493)" fill="#288a9a"/>
            <path id="Path_6994" data-name="Path 6994" d="M305.268,180.333H302.3s0-4.478,1.484-4.478S305.268,180.333,305.268,180.333Z" transform="translate(-283.111 -164.282)" fill="#ffe66b"/>
          </g>
        </g>
        <path id="Path_6995" data-name="Path 6995" d="M95.449,337.15,93,338.437v-8.319h2.452Z" transform="translate(-87.334 -307.94)" fill="#3498ac"/>
      </g>
      <path id="Path_6997" data-name="Path 6997" d="M36.5,32.1a3.71,3.71,0,0,1,0-1.865,1.555,1.555,0,0,0,.01-3.088,4.008,4.008,0,0,0,1.372-2.972,4.074,4.074,0,0,0-2.344-3.7,1.573,1.573,0,0,0-1.382-2.446,3.712,3.712,0,0,1,0-1.846c2.054.108,2.189-3.109.11-3.109H30.508L29.037,8.114l7.051-1.852a1.261,1.261,0,0,0,0-2.424L22.408.246a7.526,7.526,0,0,0-3.817,0L13.5,1.582a.516.516,0,0,0,.262,1l5.087-1.336a6.5,6.5,0,0,1,3.293,0l13.68,3.593a.222.222,0,0,1,0,.429L25.3,8.031l-3.314-3V3.832a1.535,1.535,0,0,0-3.07,0V5.3a.515.515,0,0,0,.246.439,2.413,2.413,0,0,0,2.258.167l2.69,2.439-1.962.515a6.5,6.5,0,0,1-3.293,0L5.173,5.265a.222.222,0,0,1,0-.429l5.984-1.572a.516.516,0,0,0-.262-1L4.911,3.839a1.261,1.261,0,0,0,0,2.424l7.051,1.852-1.471,4.952H9.249A4.031,4.031,0,0,0,6.519,20.1H4.671A1.555,1.555,0,0,0,4.5,23.2a3.7,3.7,0,0,1,0,1.865,1.555,1.555,0,0,0-.01,3.088,4.023,4.023,0,0,0,2.659,7.043H36.328a1.555,1.555,0,0,0,.172-3.1ZM20.953,4.981a1.364,1.364,0,0,1-1.007,0V3.832a.5.5,0,0,1,1.007,0Zm12.9,18.227a.923.923,0,0,1,0,1.846H12.263V23.208Zm-22.62,6.205-1.421.746V23.208h1.421ZM8.779,25.054H5.558a4.74,4.74,0,0,0,0-1.846H8.779Zm.249,6.4a.516.516,0,0,0,.506.015l2.34-1.228H35.441a4.752,4.752,0,0,0,0,1.846H7.148a.923.923,0,0,1,0-1.846H8.779v.771A.516.516,0,0,0,9.028,31.452ZM33.1,18.021H9.21a.923.923,0,0,1,0-1.846H23.175c-.013.367-.011.906.507.906H26.65c.52,0,.52-.538.507-.906H33.1A4.752,4.752,0,0,0,33.1,18.021ZM25.166,12.6c.454,0,.887,1.612.958,3.447H24.208C24.279,14.216,24.712,12.6,25.166,12.6Zm9.623,2.017a.524.524,0,0,1-.523.523H27.089c-.034-.351-.079-.7-.142-1.047h7.319A.524.524,0,0,1,34.789,14.621Zm-5.357-1.554H26.69a2.193,2.193,0,0,0-1.008-1.382V9l2.358-.619ZM12.96,8.377l5.631,1.479a7.555,7.555,0,0,0,3.817,0l2.243-.589v2.418a2.193,2.193,0,0,0-1.008,1.382H11.567ZM7.079,19.209a2.98,2.98,0,0,1-.869-2.14A3.03,3.03,0,0,1,9.249,14.1H23.384c-.063.347-.108.7-.142,1.047H9.21a1.954,1.954,0,0,0,0,3.908H34.266a.524.524,0,0,1,0,1.047H9.21a2.979,2.979,0,0,1-2.131-.89ZM4.147,21.654a.524.524,0,0,1,.523-.523H33.851a3,3,0,1,1-.039,6h-2.7a.516.516,0,0,0,0,1.031h5.22a.523.523,0,0,1,0,1.047H12.262V28.162H28.391a.516.516,0,0,0,0-1.031H12.262V26.085H33.851a1.954,1.954,0,0,0,0-3.908H4.671A.524.524,0,0,1,4.147,21.654Zm.523,5.478a.523.523,0,0,1,0-1.047H8.779v1.047Zm31.658,7.032H7.148a3,3,0,0,1-3-3.03,3.029,3.029,0,0,1,3.039-2.971H8.779v1.047H7.148a1.954,1.954,0,0,0,0,3.908H36.328a.523.523,0,0,1,0,1.047Z" transform="translate(-3.116 0)"/>
    </g>
  </g>
</svg>
