<svg xmlns="http://www.w3.org/2000/svg" width="471.839" height="452.029" viewBox="0 0 471.839 452.029"><defs><style>.a,.o,.p{fill:#4a6c77;}.b{fill:#1c353e;}.c{opacity:0.38;}.d{fill:rgba(243,223,35,0.52);}.e{fill:#f95252;}.f{fill:#263238;}.g{fill:#01e69f;}.h{fill:#224552;}.i{opacity:0.07;}.j{fill:#fff;}.k{fill:#455a64;}.l{fill:#e0e0e0;}.m{opacity:0.44;}.n{opacity:0.5;}.o,.p{font-size:35px;}.o{font-family:Poppins-SemiBold, Poppins;font-weight:600;opacity:0.22;}.p{font-family:Poppins-Medium, Poppins;font-weight:500;}.q{fill:none;stroke:#4a6c77;opacity:0.26;}</style></defs><g transform="translate(-1211 -309)"><g transform="translate(1211 309)"><g transform="translate(12.999 9.878)"><g transform="translate(316.678 197.693)"><g transform="translate(0.344)"><rect class="a" width="118.624" height="94.837" transform="translate(0 14.776) rotate(-7.155)"/></g><g transform="translate(0 0)"><path class="a" d="M463.1,232.938s-.2.036-.569.089l-1.65.225-6.389.839L430.4,237.2l-84.967,10.821.266-.343,11.847,94.084,0,.009-.384-.3,117.707-14.718-.248.319c-3.5-28.342-6.394-51.835-8.421-68.265-1-8.219-1.783-14.667-2.321-19.082-.261-2.194-.461-3.878-.6-5.036-.133-1.143-.188-1.749-.188-1.749s.091.56.242,1.68l.657,4.975,2.459,19c2.1,16.465,5.11,40.005,8.737,68.406l.036.284-.284.035L357.25,342.153l-.341.043-.044-.341v-.01c-4.252-33.976-8.271-66.084-11.775-94.092l-.038-.306.306-.038,85.2-10.54,24.037-2.936,6.339-.759,1.621-.186C462.918,232.948,463.1,232.938,463.1,232.938Z" transform="translate(-345.051 -232.938)"/></g><g transform="translate(5.145 6.452)"><rect class="b" width="110.29" height="82.896" transform="matrix(0.992, -0.125, 0.125, 0.992, 0, 13.737)"/></g><g transform="translate(15.47 46.516)"><g class="c"><path class="a" d="M359.979,333.749l31.8-55.924,27.692,29.015,13.912-19.116,36.024,32.288Z" transform="translate(-359.979 -277.824)"/></g></g><g class="c" transform="translate(62.913 28.416)"><path class="a" d="M423.061,267.961a8.684,8.684,0,1,1-9.7-7.534A8.684,8.684,0,0,1,423.061,267.961Z" transform="translate(-405.76 -260.359)"/></g></g><g transform="translate(0 27.369)"><path class="d" d="M95.028,102.07l-5.366-1.913-5.893-20.5,3.819-10.712s-8.113-3.469-12.138,10.907-3.807,10.428-3.807,10.428S54,84.071,51.994,85.079c-1.461.733-8.18,18.058-11.746,27.481-1.8,4.744-.45,10.231,3.591,12.944a8.124,8.124,0,0,0,1.8.931c4.394,1.566,28.114,6,28.114,6l9.27,3.3Z" transform="translate(-39.467 -68.579)"/><g transform="translate(46.396 32.313)"><path class="d" d="M109.816,103.475l-16.387,35.53-9.191-3.277L97.06,99.76Z" transform="translate(-84.237 -99.76)"/></g></g><g transform="translate(77.023)"><path class="e" d="M157.332,58.99a13.532,13.532,0,0,0-2.121-7.856,13,13,0,0,0-5.94-5.31,10.505,10.505,0,0,0-12.34,3.275,10.5,10.5,0,0,0-10.276-6.922,13.017,13.017,0,0,0-7.417,2.911,13.544,13.544,0,0,0-4.723,6.627,16.48,16.48,0,0,0,.224,10.345,23.326,23.326,0,0,0,6.578,8.831c4.608,4.042,10.712,9.162,10.712,9.162s6.525-3.267,12.252-5.452a23.333,23.333,0,0,0,9.241-5.99A16.482,16.482,0,0,0,157.332,58.99Z" transform="translate(-113.792 -42.17)"/></g><g transform="translate(131.55 22.366)"><path class="e" d="M184.017,67.893a5.55,5.55,0,0,0-1.809-2.8,5.323,5.323,0,0,0-2.98-1.328,4.3,4.3,0,0,0-4.4,2.819,4.3,4.3,0,0,0-4.874-1.415,5.329,5.329,0,0,0-2.529,2.062,5.543,5.543,0,0,0-1.013,3.174,6.749,6.749,0,0,0,1.38,4.006,9.555,9.555,0,0,0,3.67,2.622c2.3,1,5.322,2.234,5.322,2.234s2.136-2.089,4.1-3.657a9.551,9.551,0,0,0,2.855-3.49A6.747,6.747,0,0,0,184.017,67.893Z" transform="translate(-166.408 -63.753)"/></g></g><g transform="translate(295.547 0)"><g transform="translate(0.289 0.335)"><rect class="a" width="141.705" height="141.705" transform="translate(0 136.037) rotate(-73.74)"/></g><path class="f" d="M448.442,208.687s.056-.224.175-.648.3-1.058.536-1.883c.479-1.664,1.184-4.116,2.1-7.312,1.851-6.4,4.561-15.763,8.01-27.681L487.9,72.584l.159.289L352.021,33.235l-.013,0,.335-.183c-14.542,49.811-28.17,96.491-39.712,136.026l-.159-.289,98.516,28.858,27.644,8.127,7.3,2.156,1.875.561c.422.127.64.2.64.2s-.206-.052-.622-.168l-1.859-.529-7.268-2.091-27.628-8-98.725-28.671-.224-.064.065-.225L351.824,32.9l.076-.259.259.076.013,0L488.185,72.426l.225.065-.065.224-28.9,98.656c-3.493,11.88-6.238,21.218-8.112,27.6-.938,3.17-1.657,5.6-2.144,7.253l-.554,1.852C448.511,208.485,448.442,208.687,448.442,208.687Z" transform="translate(-312.117 -32.638)"/><g transform="translate(9.068 8.318)"><rect class="b" width="126.599" height="126.599" transform="translate(35.448) rotate(16.26)"/></g><g transform="translate(8.779 7.983)"><path class="f" d="M442.413,197.659s.05-.2.155-.58.268-.947.478-1.684c.427-1.489,1.057-3.68,1.878-6.535l7.15-24.735c6.174-21.271,14.988-51.638,25.562-88.066l.159.289L356.261,40.939l-.011,0,.335-.183L321.1,162.276l-.159-.289,88,25.791,24.7,7.267,6.519,1.931,1.677.5c.377.114.573.18.573.18s-.184-.045-.555-.148l-1.659-.47-6.491-1.865-24.683-7.135-88.212-25.6-.224-.065.065-.224C330.946,126.819,343.1,85.109,356.066,40.6l.076-.259.259.076.011,0L477.926,75.9l.224.065-.065.224-25.832,88.143c-3.122,10.611-5.576,18.952-7.253,24.65-.838,2.829-1.481,5-1.917,6.477q-.326,1.083-.5,1.652C442.474,197.48,442.413,197.659,442.413,197.659Z" transform="translate(-320.588 -40.341)"/></g></g><g transform="translate(339.68 316.684)"><g transform="translate(0 0)"><path class="g" d="M428.368,341.445s-6.951-3.71-13.453,12.692-8.674,25.712-8.674,25.712-1.8,3.478-4.253,1.547-6.112-7.721-9.838-6.265c-3.864,1.509-4.755,6.064-3.384,12.5s3.855,20.662,4.075,21.948c.216,1.263-.336,3.206-2.219,2.159S377.5,400.321,372.9,405.949s2.164,22.944,2.867,24.851.4,2.778-.485,3.349-4.333-3.271-7.65-6.089-7.659-5.5-10.043-2.035-1.985,16.9,12.765,37.392l7.455,9.047,11.645-1.752c24.69-5.269,34.009-14.95,34.575-19.121s-4.455-5.1-8.806-5.238-9.487.388-9.758-.63.09-1.866,1.892-2.806,18.446-9.22,18.819-16.48-14.922-7.13-17.02-7.619-1.2-2.3-.193-3.089c1.027-.805,12.421-9.67,17.763-13.52s7.742-7.821,5.894-11.535c-1.781-3.58-8.381-1.749-11.5-1.968s-2.112-4-2.112-4,4.646-8.356,10.849-24.873-1.639-18.448-1.639-18.448" transform="translate(-356.493 -341.085)"/></g><g transform="translate(22.812 20.537)"><path class="f" d="M376.717,471.948c4.6-12.113,11.1-28.795,18.338-47.2s13.776-35.058,18.442-47.145l5.514-14.32c.648-1.677,1.152-2.985,1.5-3.891l.4-1.008c.092-.227.149-.34.149-.34s-.031.122-.111.353c-.088.247-.208.586-.364,1.023-.334.913-.817,2.23-1.434,3.918-1.249,3.4-3.093,8.31-5.4,14.365-4.6,12.114-11.1,28.794-18.334,47.19s-13.779,35.066-18.446,47.153" transform="translate(-376.717 -358.046)"/></g><g transform="translate(42.297 45.309)"><path class="f" d="M395.523,381.951a3.469,3.469,0,0,1,.375.762c.22.5.515,1.23.87,2.137.707,1.816,1.618,4.348,2.57,7.162.925,2.772,1.762,5.278,2.407,7.214q.437,1.284.74,2.181a3.526,3.526,0,0,1,.236.815,3.442,3.442,0,0,1-.38-.76c-.219-.5-.514-1.231-.86-2.142-.689-1.823-1.567-4.367-2.519-7.18-.944-2.764-1.8-5.262-2.458-7.193q-.441-1.284-.75-2.178A3.54,3.54,0,0,1,395.523,381.951Z" transform="translate(-395.519 -381.951)"/></g><g transform="translate(50.591 56.623)"><path class="f" d="M403.523,401.93c-.039-.1,5.1-2.213,11.474-4.714s11.58-4.447,11.619-4.344-5.1,2.212-11.474,4.714S403.563,402.033,403.523,401.93Z" transform="translate(-403.523 -392.868)"/></g><g transform="translate(38.201 90.554)"><path class="f" d="M391.567,428.5a3.615,3.615,0,0,1,.858-.127l2.342-.218c1.977-.185,4.707-.45,7.708-.851s5.708-.844,7.665-1.183l2.318-.4a3.636,3.636,0,0,1,.86-.1,3.607,3.607,0,0,1-.828.252c-.54.137-1.324.32-2.3.523-1.946.41-4.653.9-7.666,1.3s-5.753.624-7.739.737c-.993.053-1.8.086-2.354.092A3.7,3.7,0,0,1,391.567,428.5Z" transform="translate(-391.567 -425.611)"/></g><g transform="translate(26.644 76.66)"><path class="f" d="M380.417,412.2a3.108,3.108,0,0,1,.524.606c.316.405.763,1,1.308,1.739,1.09,1.478,2.573,3.536,4.192,5.823s3.065,4.371,4.1,5.89c.515.76.926,1.378,1.2,1.811a3.118,3.118,0,0,1,.4.7,3.177,3.177,0,0,1-.523-.606c-.316-.405-.763-1-1.308-1.739-1.09-1.478-2.573-3.536-4.192-5.823s-3.065-4.37-4.1-5.89c-.515-.76-.926-1.378-1.2-1.811A3.131,3.131,0,0,1,380.417,412.2Z" transform="translate(-380.415 -412.203)"/></g><g transform="translate(12.595 99.773)"><path class="f" d="M366.859,434.507a5.144,5.144,0,0,1,.661.783l1.683,2.223c1.406,1.887,3.328,4.51,5.43,7.421s3.988,5.561,5.337,7.49l1.58,2.3a4.952,4.952,0,0,1,.535.874,5.179,5.179,0,0,1-.66-.783l-1.683-2.223c-1.407-1.887-3.329-4.51-5.431-7.422s-3.988-5.56-5.336-7.489l-1.58-2.3A5.023,5.023,0,0,1,366.859,434.507Z" transform="translate(-366.857 -434.506)"/></g><g transform="translate(27.601 115.846)"><path class="f" d="M381.338,454.424a5.893,5.893,0,0,1,1.082-.187l2.96-.382c2.5-.323,5.949-.781,9.743-1.392s7.218-1.243,9.693-1.719l2.932-.561a5.817,5.817,0,0,1,1.085-.161,5.747,5.747,0,0,1-1.052.312c-.684.175-1.677.412-2.908.685-2.463.547-5.883,1.229-9.686,1.835s-7.264,1.027-9.774,1.28c-1.255.123-2.272.211-2.976.256A5.693,5.693,0,0,1,381.338,454.424Z" transform="translate(-381.338 -450.017)"/></g></g><g transform="translate(95.654 64.675)"><path class="h" d="M11.55,0H258.18a11.549,11.549,0,0,1,11.549,11.549V375.535a11.549,11.549,0,0,1-11.549,11.549H11.549A11.549,11.549,0,0,1,0,375.535V11.55A11.55,11.55,0,0,1,11.55,0Z"/><g class="i" transform="translate(8.375 27.616)"><rect class="j" width="252.718" height="323.262"/></g><g transform="translate(122.465 355.233)"><circle class="k" cx="10.349" cy="10.349" r="10.349" transform="translate(0 20.176) rotate(-77.094)"/></g><g transform="translate(94.245 11.148)"><rect class="k" width="81.239" height="4.276" rx="1.215"/></g><g transform="translate(123.116 325.1)"><path class="j" d="M242.7,411.1a2.337,2.337,0,1,1-2.337-2.337A2.338,2.338,0,0,1,242.7,411.1Z" transform="translate(-238.029 -408.759)"/><g transform="translate(9.412)"><path class="j" d="M251.786,411.1a2.337,2.337,0,1,1-2.338-2.337A2.338,2.338,0,0,1,251.786,411.1Z" transform="translate(-247.111 -408.759)"/></g><g transform="translate(18.822)"><path class="j" d="M260.867,411.1a2.337,2.337,0,1,1-2.338-2.337A2.338,2.338,0,0,1,260.867,411.1Z" transform="translate(-256.192 -408.759)"/></g></g><g transform="translate(29.318 50.044)"><g transform="translate(0.725 3.757)"><path class="j" d="M160.577,147.869H148.669a.452.452,0,0,1,0-.9h11.908a.452.452,0,0,1,0,.9Z" transform="translate(-148.217 -146.964)"/></g><path class="j" d="M153.317,151.8a.454.454,0,0,1-.261-.083l-5.348-3.8a.451.451,0,0,1,.007-.742l5.5-3.758a.452.452,0,0,1,.51.747l-4.969,3.392,4.819,3.425a.452.452,0,0,1-.262.821Z" transform="translate(-147.517 -143.339)"/></g><g transform="translate(222.261 50.044)"><g transform="translate(0 3.802)"><path class="j" d="M346.06,147.911H334.153a.452.452,0,1,1,0-.9H346.06a.452.452,0,1,1,0,.9Z" transform="translate(-333.701 -147.007)"/></g><g transform="translate(7.128)"><path class="j" d="M341.031,151.8a.452.452,0,0,1-.255-.825l4.968-3.392-4.819-3.426a.453.453,0,0,1,.524-.738l5.348,3.8a.454.454,0,0,1-.007.743l-5.5,3.758A.457.457,0,0,1,341.031,151.8Z" transform="translate(-340.579 -143.338)"/></g></g><g transform="translate(97.99 62.359)"><path class="l" d="M287.913,155.458c0,.13-16.6.235-37.063.235s-37.066-.106-37.066-.235,16.592-.236,37.066-.236S287.913,155.328,287.913,155.458Z" transform="translate(-213.783 -155.222)"/><g transform="translate(24.893 3.002)"><path class="l" d="M262.148,158.355c0,.13-5.45.235-12.171.235s-12.172-.106-12.172-.235,5.449-.236,12.172-.236S262.148,158.225,262.148,158.355Z" transform="translate(-237.804 -158.119)"/></g></g><g class="m" transform="translate(147.226 90.305)"><path class="j" d="M346.661,182.458c0,.149-19.111.269-42.681.269s-42.685-.12-42.685-.269,19.107-.269,42.685-.269S346.661,182.309,346.661,182.458Z" transform="translate(-261.295 -182.189)"/></g><g class="m" transform="translate(132.933 100.365)"><path class="j" d="M347.162,192.167c0,.149-22.312.269-49.827.269s-49.833-.12-49.833-.269,22.306-.27,49.833-.27S347.162,192.018,347.162,192.167Z" transform="translate(-247.502 -191.897)"/></g><g class="m" transform="translate(132.933 109.715)"><path class="j" d="M347.162,201.188c0,.149-22.312.27-49.827.27s-49.833-.121-49.833-.27,22.306-.269,49.833-.269S347.162,201.039,347.162,201.188Z" transform="translate(-247.502 -200.919)"/></g><g class="m" transform="translate(132.933 119.063)"><path class="j" d="M347.162,210.21c0,.149-22.312.269-49.827.269s-49.833-.12-49.833-.269,22.306-.27,49.833-.27S347.162,210.061,347.162,210.21Z" transform="translate(-247.502 -209.94)"/></g><g class="m" transform="translate(132.933 128.413)"><path class="j" d="M347.162,219.231c0,.149-22.312.27-49.827.27s-49.833-.121-49.833-.27,22.306-.269,49.833-.269S347.162,219.083,347.162,219.231Z" transform="translate(-247.502 -218.962)"/></g><g class="m" transform="translate(132.933 137.762)"><g transform="translate(0 0)"><path class="j" d="M347.162,228.253c0,.149-22.312.269-49.827.269s-49.833-.12-49.833-.269,22.306-.269,49.833-.269S347.162,228.1,347.162,228.253Z" transform="translate(-247.502 -227.984)"/></g></g><g class="m" transform="translate(132.933 147.111)"><path class="j" d="M347.162,237.274c0,.149-22.312.27-49.827.27s-49.833-.121-49.833-.27,22.306-.269,49.833-.269S347.162,237.126,347.162,237.274Z" transform="translate(-247.502 -237.005)"/></g><g class="m" transform="translate(132.933 155.888)"><path class="j" d="M347.162,245.744c0,.149-22.312.27-49.827.27s-49.833-.121-49.833-.27,22.306-.269,49.833-.269S347.162,245.6,347.162,245.744Z" transform="translate(-247.502 -245.475)"/></g><g class="m" transform="translate(132.933 165.851)"><path class="j" d="M297.333,255.358c0,.149-11.156.27-24.915.27s-24.916-.121-24.916-.27,11.154-.269,24.916-.269S297.333,255.21,297.333,255.358Z" transform="translate(-247.502 -255.089)"/></g><g transform="translate(132.933 200.654)"><path class="f" d="M347.162,288.941c0,.149-22.312.27-49.827.27s-49.833-.121-49.833-.27,22.306-.269,49.833-.269S347.162,288.793,347.162,288.941Z" transform="translate(-247.502 -288.672)"/></g><g transform="translate(132.933 210.798)"><path class="f" d="M347.162,298.731c0,.148-22.312.269-49.827.269s-49.833-.121-49.833-.269,22.306-.27,49.833-.27S347.162,298.582,347.162,298.731Z" transform="translate(-247.502 -298.461)"/></g><g transform="translate(132.933 220.661)"><path class="f" d="M347.162,308.248c0,.149-22.312.269-49.827.269s-49.833-.12-49.833-.269,22.306-.269,49.833-.269S347.162,308.1,347.162,308.248Z" transform="translate(-247.502 -307.979)"/></g><g transform="translate(132.933 230.524)"><path class="f" d="M347.162,317.765c0,.149-22.312.27-49.827.27s-49.833-.121-49.833-.27,22.306-.269,49.833-.269S347.162,317.617,347.162,317.765Z" transform="translate(-247.502 -317.496)"/></g><g transform="translate(132.933 240.104)"><path class="f" d="M297.333,327.011c0,.149-11.156.269-24.915.269s-24.916-.12-24.916-.269,11.154-.27,24.916-.27S297.333,326.862,297.333,327.011Z" transform="translate(-247.502 -326.741)"/></g><g class="n" transform="translate(131.025 79.454)"><path class="j" d="M245.781,171.718H257.4l.11,3.49h-.49a4.2,4.2,0,0,0-.918-2.141,3.765,3.765,0,0,0-2.343-.5h-1.143v10.511q0,1.188.371,1.471a3.43,3.43,0,0,0,1.626.375v.38H248.62v-.38a2.837,2.837,0,0,0,1.625-.43,2.675,2.675,0,0,0,.321-1.656V172.571h-1.153a3.917,3.917,0,0,0-2.321.491,3.628,3.628,0,0,0-.929,2.146h-.5Z" transform="translate(-245.661 -171.718)"/></g><g transform="translate(188.742 286.268)"><g transform="translate(0 1.557)"><path class="g" d="M301.356,379a5.03,5.03,0,0,0,7.74-4.468,3.6,3.6,0,0,0,.882-.915,3.553,3.553,0,0,1-1.016.279,1.772,1.772,0,0,0,.777-.979,3.52,3.52,0,0,1-1.123.429,1.771,1.771,0,0,0-3.015,1.615,5.025,5.025,0,0,1-3.646-1.849,1.771,1.771,0,0,0,.547,2.362,1.76,1.76,0,0,1-.8-.222,1.771,1.771,0,0,0,1.419,1.758,1.776,1.776,0,0,1-.8.03,1.77,1.77,0,0,0,1.652,1.229A3.557,3.557,0,0,1,301.356,379Z" transform="translate(-301.356 -372.789)"/></g><g transform="translate(21.4)"><path class="g" d="M326.712,372.135c1.257,0,1.405.005,1.9.027a2.623,2.623,0,0,1,.874.163,1.557,1.557,0,0,1,.893.892,2.612,2.612,0,0,1,.162.875c.023.5.028.645.028,1.9s-.005,1.405-.028,1.9a2.61,2.61,0,0,1-.162.874,1.562,1.562,0,0,1-.893.893,2.6,2.6,0,0,1-.874.162c-.5.023-.645.028-1.9.028s-1.405-.005-1.9-.028a2.61,2.61,0,0,1-.874-.162,1.563,1.563,0,0,1-.893-.893,2.609,2.609,0,0,1-.162-.874c-.023-.5-.028-.646-.028-1.9s.005-1.405.028-1.9a2.61,2.61,0,0,1,.162-.875,1.557,1.557,0,0,1,.893-.892,2.629,2.629,0,0,1,.874-.163c.5-.022.646-.027,1.9-.027m0-.848c-1.278,0-1.438.005-1.94.028a3.461,3.461,0,0,0-1.142.219,2.4,2.4,0,0,0-1.376,1.376,3.407,3.407,0,0,0-.219,1.142c-.024.5-.029.662-.029,1.941s.005,1.438.029,1.94a3.407,3.407,0,0,0,.219,1.142,2.395,2.395,0,0,0,1.376,1.376,3.434,3.434,0,0,0,1.142.219c.5.023.662.029,1.94.029s1.438-.006,1.94-.029a3.435,3.435,0,0,0,1.143-.219,2.4,2.4,0,0,0,1.376-1.376,3.46,3.46,0,0,0,.219-1.142c.023-.5.028-.662.028-1.94s-.005-1.438-.028-1.941a3.461,3.461,0,0,0-.219-1.142,2.411,2.411,0,0,0-1.376-1.376,3.462,3.462,0,0,0-1.143-.219c-.5-.023-.662-.028-1.94-.028" transform="translate(-322.006 -371.287)"/><g transform="translate(2.289 2.289)"><path class="g" d="M326.632,373.5a2.417,2.417,0,1,0,2.417,2.417,2.417,2.417,0,0,0-2.417-2.417m0,3.986a1.569,1.569,0,1,1,1.569-1.569,1.568,1.568,0,0,1-1.569,1.569" transform="translate(-324.215 -373.496)"/></g><g transform="translate(6.653 1.629)"><path class="g" d="M329.556,373.424a.565.565,0,1,1-.565-.565.565.565,0,0,1,.565.565" transform="translate(-328.426 -372.859)"/></g></g><g transform="translate(46.315 0.791)"><path class="g" d="M346.869,379.88h1.577v-3.948h1.1l.118-1.322h-1.218v-.753c0-.312.062-.434.364-.434h.854V372.05h-1.092c-1.173,0-1.7.516-1.7,1.506v1.054h-.82v1.338h.82Z" transform="translate(-346.049 -372.05)"/></g></g><g transform="translate(136.98 314.518)"><path class="l" d="M305.427,398.817c0,.149-12.094.27-27.008.27s-27.011-.121-27.011-.27,12.092-.269,27.011-.269S305.427,398.669,305.427,398.817Z" transform="translate(-251.408 -398.548)"/></g><g transform="translate(136.98 308.768)"><path class="l" d="M353.252,393.27c0,.149-22.8.269-50.919.269s-50.925-.12-50.925-.269S274.2,393,302.333,393,353.252,393.12,353.252,393.27Z" transform="translate(-251.408 -392.999)"/></g></g><g transform="translate(0 113.884)"><g transform="translate(0.3 0.27)"><rect class="a" width="201.028" height="264.64" transform="translate(0 23.996) rotate(-6.856)"/></g><path class="f" d="M258.4,407.552c-.258-2.126-12.964-107-31.831-262.719l.269.212L27.277,169.065l-.022,0,.235-.3c11.734,97.745,22.616,188.4,31.543,262.753l-.247-.194L258.4,407.552,58.84,431.768l-.221.027-.027-.221c-8.953-74.355-19.868-165-31.637-262.742l-.032-.268.268-.032.022,0,199.571-23.968.242-.029.029.241C245.637,300.531,258.15,405.426,258.4,407.552Z" transform="translate(-26.923 -144.533)"/><g transform="translate(7.414 8.845)"><rect class="b" width="189.083" height="225.168" transform="translate(0 22.571) rotate(-6.856)"/></g><g transform="translate(7.114 8.586)"><path class="f" d="M248.633,376.644c-.252-2.073-10.971-90.44-27.116-223.53l.266.209L34.139,175.913l-.02,0,.236-.3C44.269,258.206,53.5,335.1,61.191,399.179l-.252-.2,187.694-22.337L60.993,399.431l-.225.028-.027-.226L33.82,175.68l-.032-.267.267-.032.02,0,187.651-22.53.238-.029.028.238C237.854,286.181,248.386,374.572,248.633,376.644Z" transform="translate(-33.788 -152.818)"/></g></g><g transform="translate(16.846 451.489)"><path class="f" d="M463.547,468.581c0,.149-94.11.269-210.173.269-116.1,0-210.194-.12-210.194-.269s94.09-.27,210.194-.27C369.437,468.311,463.547,468.432,463.547,468.581Z" transform="translate(-43.179 -468.311)"/></g></g><text class="o" transform="translate(1277.129 566.398) rotate(-7)"><tspan x="0" y="0">BLOG</tspan></text><text class="p" transform="translate(1281.274 573.221) rotate(-7)"><tspan x="0" y="0">BLOG</tspan></text><line class="q" y1="11.399" x2="87.049" transform="translate(1287.168 574.811)"/><line class="q" y1="4.145" x2="29.482" transform="translate(1321.937 585.174)"/></g></svg>