<svg xmlns="http://www.w3.org/2000/svg" width="71.023" height="71.023" viewBox="0 0 71.023 71.023"><defs><style>.a{fill:#01e9a1;}</style></defs><ellipse class="a" cx="3" cy="2.5" rx="3" ry="2.5" transform="translate(50.512 26.512)"/><path class="a" d="M59.926,5.549H56.319V2.774a2.774,2.774,0,0,0-5.549,0V5.549H38.147V2.774a2.774,2.774,0,0,0-5.549,0V5.549H20.114V2.774a2.774,2.774,0,1,0-5.549,0V5.549H11.1A11.11,11.11,0,0,0,0,16.646v43.28a11.11,11.11,0,0,0,11.1,11.1H32.321a2.774,2.774,0,0,0,0-5.549H11.1a5.555,5.555,0,0,1-5.549-5.549V16.646A5.555,5.555,0,0,1,11.1,11.1h3.468v2.774a2.774,2.774,0,1,0,5.549,0V11.1H32.6v2.774a2.774,2.774,0,0,0,5.549,0V11.1H50.771v2.774a2.774,2.774,0,1,0,5.549,0V11.1h3.607a5.555,5.555,0,0,1,5.549,5.549V32.46a2.774,2.774,0,1,0,5.549,0V16.646A11.11,11.11,0,0,0,59.926,5.549Z"/><path class="a" d="M286.785,270a16.785,16.785,0,1,0,16.785,16.785A16.8,16.8,0,0,0,286.785,270Zm0,28.021a11.236,11.236,0,1,1,11.236-11.236A11.249,11.249,0,0,1,286.785,298.021Z" transform="translate(-232.546 -232.546)"/><path class="a" d="M377.8,335.687h-1.248v-2.913a2.774,2.774,0,1,0-5.549,0v5.687a2.774,2.774,0,0,0,2.774,2.774H377.8a2.774,2.774,0,0,0,0-5.549Z" transform="translate(-319.536 -284.223)"/><ellipse class="a" cx="3" cy="2.5" rx="3" ry="2.5" transform="translate(38.512 26.512)"/><ellipse class="a" cx="3" cy="2.5" rx="3" ry="2.5" transform="translate(26.512 38.512)"/><circle class="a" cx="2.5" cy="2.5" r="2.5" transform="translate(14.512 26.512)"/><circle class="a" cx="2.5" cy="2.5" r="2.5" transform="translate(14.512 38.512)"/><circle class="a" cx="2.5" cy="2.5" r="2.5" transform="translate(14.512 50.512)"/><ellipse class="a" cx="3" cy="2.5" rx="3" ry="2.5" transform="translate(26.512 50.512)"/><ellipse class="a" cx="3" cy="2.5" rx="3" ry="2.5" transform="translate(26.512 26.512)"/></svg>