<svg xmlns="http://www.w3.org/2000/svg" width="67.223" height="79.721" viewBox="0 0 67.223 79.721"><defs><style>.a{fill:#102d37;}</style></defs><g transform="translate(0 0)"><path class="a" d="M105.2,91.449a7.292,7.292,0,0,0-3.367-1.922,7.33,7.33,0,0,0-5.306-8.841,7.336,7.336,0,0,0-4.186-8.46l7.552-7.551A7.34,7.34,0,0,0,89.513,54.3L65.955,77.854l-1.378-5.97a9.686,9.686,0,0,0-16.288-4.671h0a2.338,2.338,0,0,0-.684,1.654l.029,29.056-6.821,6.821a2.336,2.336,0,0,0,0,3.3L55.824,123.06a2.336,2.336,0,0,0,1.652.684H79.21a9.777,9.777,0,0,0,6.958-2.883L105.2,101.829A7.339,7.339,0,0,0,105.2,91.449ZM92.816,85.906a2.668,2.668,0,1,1,3.773,3.774l-5.308,5.308a2.668,2.668,0,0,1-3.774-3.774Zm-8.612,2a2.668,2.668,0,0,1-3.773-3.773l7.077-7.077a2.668,2.668,0,0,1,3.773,3.773h0Zm-1.34,29.647a5.205,5.205,0,0,1-3.655,1.515H58.443L45.767,106.4l5.854-5.854a2.337,2.337,0,0,0,.684-1.654l-.029-28.944a5.015,5.015,0,0,1,7.748,2.99l2.326,10.078a2.332,2.332,0,0,0,.623,1.123l1.77,1.772a10.186,10.186,0,0,1,0,14.389,2.336,2.336,0,0,0,3.3,3.3,14.863,14.863,0,0,0,0-21l-.117-.117L92.816,57.6a2.668,2.668,0,0,1,3.773,3.774L77.128,80.833a7.334,7.334,0,0,0,4.937,12.52,7.32,7.32,0,0,0,7.074,7.077,7.344,7.344,0,0,0,4.383,6.469ZM101.9,98.524h0l-3.539,3.539a2.668,2.668,0,0,1-3.772-3.774l3.538-3.538a2.668,2.668,0,0,1,3.773,3.772Z" transform="translate(-40.127 -44.023)"/><path class="a" d="M187.063,14.668a2.336,2.336,0,0,0,2.336-2.336V2.324a2.336,2.336,0,0,0-4.672,0V12.332A2.336,2.336,0,0,0,187.063,14.668Z" transform="translate(-162.208 0)"/><path class="a" d="M107.581,54.611a2.336,2.336,0,1,0,3.3-3.3l-2.5-2.5a2.336,2.336,0,0,0-3.3,3.3Z" transform="translate(-94.386 -40.627)"/><path class="a" d="M252.982,54.611l2.5-2.5a2.336,2.336,0,0,0-3.3-3.3l-2.5,2.5a2.336,2.336,0,0,0,3.3,3.3Z" transform="translate(-216.467 -40.627)"/></g></svg>