<svg xmlns="http://www.w3.org/2000/svg" xmlns:xlink="http://www.w3.org/1999/xlink" width="344.075" height="306.339" viewBox="0 0 344.075 306.339"><defs><style>.a{opacity:0.99;}.b,.d{opacity:0.17;}.b{mix-blend-mode:screen;isolation:isolate;fill:url(#a);}.c{opacity:0.15;}.e{opacity:0.12;}.f{fill:#01e9a1;}.g{fill:#04bbfd;}.h{fill:#f7f7f7;}.i{opacity:0.07;}.j{fill:#98e4ff;}.k{fill:#39c3f5;}.l,.o{fill:#fff;}.l,.m{stroke:#233743;}.m{fill:#64e1dc;}.n{fill:#1cadb5;}.p{fill:#e9edf5;}.q{fill:#ffde07;}.r{fill:#c9b008;}.s{fill:#3ec0fc;}.t{fill:#40a2fb;}.u{fill:red;}.v{fill:#b10909;}.w{fill:#b29d13;}.x{fill:#ada5cc;}.y{fill:#433f5c;}.z{fill:#f3f0ff;}.aa{fill:#cbc4e5;}.ab{fill:#e2defb;}.ac{fill:#ffbd86;}.ad{fill:#f6a96c;}.ae{fill:#ffee9a;}.af{fill:#fcdd66;}.ag{fill:#b5adcf;}.ah{fill:#233743;}</style><radialGradient id="a" cx="0.5" cy="0.5" r="0.5" gradientUnits="objectBoundingBox"><stop offset="0" stop-color="#fff"/><stop offset="0.376" stop-color="#9a9a9a"/><stop offset="0.808" stop-color="#2c2c2c"/><stop offset="1"/></radialGradient></defs><g class="a" transform="translate(-1166.37 -194.029)"><g transform="translate(1166.37 194.029)"><g transform="translate(0 0)"><circle class="b" cx="151.674" cy="151.674" r="151.674"/></g><g transform="translate(88.881 39.069)"><g class="c" transform="translate(10.595 36.886)"><path d="M331.945,454.386a.346.346,0,0,0-.648-.07l-3.69,7.6-.032-.03c-2.82-2.332-5.685-4.512-8.292-7.1a66,66,0,0,1-7.416-8.836,75.149,75.149,0,0,1-9.982-20.216c-5.563-17.195-5.072-35.862-.89-53.289a.971.971,0,0,0-1.872-.516c-5.009,17.809-6.176,36.932-1.011,54.845A79.02,79.02,0,0,0,308,448.212c4.261,6.48,9.793,13.039,16.338,17.338l-5.8,3.869a.346.346,0,0,0,.144.631l17.133,2.363a.346.346,0,0,0,.384-.424Z" transform="translate(-294.758 -289.867)"/><path d="M751.5,233.809a79.033,79.033,0,0,0-13.542-19.336c-5.346-5.619-11.956-11.089-19.161-14.156l5.02-4.839a.346.346,0,0,0-.254-.595l-17.281.723a.346.346,0,0,0-.3.485l7.316,16.566a.346.346,0,0,0,.65-.047l2.281-8.133.037.023c3.19,1.793,6.4,3.429,9.421,5.509a65.92,65.92,0,0,1,8.87,7.377A75.128,75.128,0,0,1,747.974,235.5c8.533,15.932,11.37,34.388,10.354,52.281a.971.971,0,0,0,1.934.175C762.024,269.544,759.771,250.517,751.5,233.809Z" transform="translate(-516.223 -194.882)"/></g><g class="d" transform="translate(43.135 0.774)"><path d="M499.491,181.215l-7.207-3.109a4.439,4.439,0,0,1-1.077-7.491l6.039-5.013a.2.2,0,0,0,.053-.23l-9.147-20.029a.193.193,0,0,0-.208-.11l-7.743,1.281a4.461,4.461,0,0,1-4.31-1.763,4.388,4.388,0,0,1-.646-3.957l2.37-7.482a.194.194,0,0,0-.08-.221l-18.524-11.9a.194.194,0,0,0-.234.019l-5.822,5.264a4.354,4.354,0,0,1-2.961,1.15,4.405,4.405,0,0,1-4.3-3.282l-2.051-7.576a.193.193,0,0,0-.186-.143H421.435a.193.193,0,0,0-.186.143l-2.051,7.576a4.405,4.405,0,0,1-4.3,3.282,4.354,4.354,0,0,1-2.961-1.15l-5.821-5.264a.2.2,0,0,0-.234-.019l-18.524,11.9a.194.194,0,0,0-.08.221l2.37,7.482a4.389,4.389,0,0,1-.646,3.958,4.456,4.456,0,0,1-4.31,1.762l-7.743-1.281a.2.2,0,0,0-.208.11l-9.147,20.029a.2.2,0,0,0,.053.23l6.039,5.013a4.439,4.439,0,0,1-1.077,7.491l-7.207,3.109a.194.194,0,0,0-.115.205l3.134,21.8a.193.193,0,0,0,.168.164l7.791.952a4.439,4.439,0,0,1,3.144,6.885l-4.382,6.512a.194.194,0,0,0,.014.234L389.572,234.6a.2.2,0,0,0,.23.048l7.07-3.411a4.413,4.413,0,0,1,1.929-.447,4.488,4.488,0,0,1,3.184,1.349,4.387,4.387,0,0,1,1.254,3.19l-.166,7.847a.193.193,0,0,0,.139.19l21.127,6.2a.193.193,0,0,0,.219-.084l4.1-6.691a4.439,4.439,0,0,1,7.568,0l4.1,6.691a.193.193,0,0,0,.165.092.182.182,0,0,0,.054-.008l21.128-6.2a.193.193,0,0,0,.139-.19l-.166-7.847a4.387,4.387,0,0,1,1.254-3.19,4.488,4.488,0,0,1,3.184-1.349,4.416,4.416,0,0,1,1.929.447l7.069,3.411a.2.2,0,0,0,.23-.048l14.419-16.641a.194.194,0,0,0,.014-.234l-4.382-6.512a4.439,4.439,0,0,1,3.143-6.885l7.791-.952a.193.193,0,0,0,.168-.164l3.134-21.8A.194.194,0,0,0,499.491,181.215Zm-67.046,33.632A31.747,31.747,0,1,1,464.192,183.1,31.748,31.748,0,0,1,432.445,214.847Z" transform="translate(-365.282 -116.618)"/></g><ellipse class="e" cx="124.649" cy="9.788" rx="124.649" ry="9.788" transform="translate(0 247.693)"/><g transform="translate(39.653)"><path class="f" d="M491.944,179.538l-7.207-3.109a4.439,4.439,0,0,1-1.077-7.491l6.039-5.014a.194.194,0,0,0,.053-.229L480.6,143.666a.193.193,0,0,0-.208-.11l-7.743,1.281a4.461,4.461,0,0,1-4.31-1.763,4.388,4.388,0,0,1-.646-3.958l2.37-7.482a.194.194,0,0,0-.08-.221l-18.524-11.9a.194.194,0,0,0-.234.019l-5.821,5.264a4.353,4.353,0,0,1-2.961,1.149,4.4,4.4,0,0,1-4.3-3.282l-2.051-7.576a.193.193,0,0,0-.186-.143H413.888a.193.193,0,0,0-.186.143l-2.051,7.576a4.4,4.4,0,0,1-4.3,3.282,4.353,4.353,0,0,1-2.961-1.149l-5.822-5.264a.193.193,0,0,0-.234-.019l-18.524,11.9a.194.194,0,0,0-.08.221l2.37,7.482a4.388,4.388,0,0,1-.646,3.958,4.455,4.455,0,0,1-4.311,1.763l-7.743-1.281a.2.2,0,0,0-.208.11L360.044,163.7a.194.194,0,0,0,.053.229l6.039,5.014a4.439,4.439,0,0,1-1.077,7.491l-7.207,3.109a.194.194,0,0,0-.115.205l3.134,21.8a.193.193,0,0,0,.168.164l7.791.952a4.439,4.439,0,0,1,3.144,6.885l-4.382,6.511a.2.2,0,0,0,.014.235l14.419,16.641a.194.194,0,0,0,.23.048l7.07-3.411a4.407,4.407,0,0,1,1.929-.447,4.489,4.489,0,0,1,3.184,1.349,4.387,4.387,0,0,1,1.254,3.19l-.166,7.847a.194.194,0,0,0,.139.19l21.128,6.2a.192.192,0,0,0,.219-.084l4.1-6.691a4.439,4.439,0,0,1,7.568,0l4.1,6.691a.192.192,0,0,0,.165.092A.183.183,0,0,0,433,247.9l21.128-6.2a.194.194,0,0,0,.139-.19l-.166-7.847a4.387,4.387,0,0,1,1.254-3.19,4.488,4.488,0,0,1,3.184-1.349,4.409,4.409,0,0,1,1.929.447l7.069,3.411a.2.2,0,0,0,.23-.048l14.42-16.641a.2.2,0,0,0,.014-.235l-4.382-6.511a4.439,4.439,0,0,1,3.144-6.885l7.791-.952a.193.193,0,0,0,.168-.164l3.134-21.8A.194.194,0,0,0,491.944,179.538ZM424.9,213.17a31.747,31.747,0,1,1,31.747-31.747A31.747,31.747,0,0,1,424.9,213.17Z" transform="translate(-357.735 -114.941)"/></g><g transform="translate(128.723 111.175)"><path class="g" d="M654.1,430.682l-4.26-4.649a3.566,3.566,0,0,1,1.674-5.846l6.076-1.689a.156.156,0,0,0,.114-.151l-.118-17.691a.156.156,0,0,0-.116-.149l-6.1-1.608a3.583,3.583,0,0,1-2.58-2.71,3.525,3.525,0,0,1,.828-3.113l4.2-4.705a.156.156,0,0,0,.014-.189l-9.664-14.819a.156.156,0,0,0-.178-.063l-6,1.944a3.5,3.5,0,0,1-2.548-.131,3.539,3.539,0,0,1-2.074-3.821l.988-6.229a.155.155,0,0,0-.09-.166l-16.142-7.242a.155.155,0,0,0-.184.043l-4,4.879a3.539,3.539,0,0,1-4.232.991,3.5,3.5,0,0,1-1.793-1.817l-2.536-5.774a.157.157,0,0,0-.166-.091l-17.494,2.635a.155.155,0,0,0-.131.136l-.723,6.265a3.527,3.527,0,0,1-1.775,2.689,3.579,3.579,0,0,1-3.739-.126L576.1,364a.157.157,0,0,0-.189.012L562.62,375.689a.156.156,0,0,0-.037.185l2.779,5.661a3.567,3.567,0,0,1-3.254,5.137l-6.306-.091a.155.155,0,0,0-.152.113L550.78,403.7a.155.155,0,0,0,.069.176l5.4,3.26a3.567,3.567,0,0,1,.041,6.081l-5.354,3.332a.156.156,0,0,0-.067.177l5.1,16.941a.157.157,0,0,0,.153.111l6.3-.175a3.54,3.54,0,0,1,1.561.306,3.605,3.605,0,0,1,1.89,2.036,3.527,3.527,0,0,1-.13,2.751l-2.7,5.7a.156.156,0,0,0,.04.185l13.448,11.5a.155.155,0,0,0,.189.011l5.208-3.556a3.567,3.567,0,0,1,5.548,2.489l.807,6.254a.155.155,0,0,0,.09.122.171.171,0,0,0,.042.012l17.528,2.4a.156.156,0,0,0,.164-.093l2.459-5.807a3.525,3.525,0,0,1,1.968-1.926,3.6,3.6,0,0,1,2.778.058,3.544,3.544,0,0,1,1.267.962l4.061,4.826a.157.157,0,0,0,.184.041l16.044-7.457a.156.156,0,0,0,.088-.167l-1.071-6.215a3.566,3.566,0,0,1,4.569-4.013l6.024,1.865a.155.155,0,0,0,.177-.066l9.466-14.946A.156.156,0,0,0,654.1,430.682Zm-60.21,2.6a25.508,25.508,0,1,1,33.714-12.832A25.508,25.508,0,0,1,593.891,433.286Z" transform="translate(-550.774 -355.887)"/></g><g transform="translate(55.913 135.302)"><path class="h" d="M459.1,456.039l-2.726-2.975a2.282,2.282,0,0,1,1.071-3.741l3.888-1.081a.1.1,0,0,0,.073-.1l-.075-11.321a.1.1,0,0,0-.074-.1l-3.9-1.029a2.294,2.294,0,0,1-1.651-1.734,2.256,2.256,0,0,1,.53-1.992l2.686-3.011a.1.1,0,0,0,.009-.121l-6.184-9.483a.1.1,0,0,0-.114-.04l-3.839,1.245a2.239,2.239,0,0,1-1.631-.084,2.265,2.265,0,0,1-1.327-2.445l.633-3.986a.1.1,0,0,0-.058-.107l-10.329-4.634a.1.1,0,0,0-.118.028L433.4,412.46a2.265,2.265,0,0,1-2.709.634,2.24,2.24,0,0,1-1.147-1.163l-1.623-3.695a.1.1,0,0,0-.106-.058l-11.195,1.685a.1.1,0,0,0-.084.087l-.463,4.009a2.256,2.256,0,0,1-1.135,1.721,2.291,2.291,0,0,1-2.393-.08l-3.363-2.231a.1.1,0,0,0-.12.008l-8.506,7.471a.1.1,0,0,0-.024.119l1.778,3.623a2.283,2.283,0,0,1-2.082,3.288l-4.035-.059a.1.1,0,0,0-.1.072l-3.117,10.884a.1.1,0,0,0,.044.112l3.454,2.086a2.282,2.282,0,0,1,.026,3.891L393.078,447a.1.1,0,0,0-.042.113L396.3,457.95a.1.1,0,0,0,.1.071l4.034-.112a2.262,2.262,0,0,1,1,.2,2.306,2.306,0,0,1,1.21,1.3,2.256,2.256,0,0,1-.083,1.76l-1.729,3.646a.1.1,0,0,0,.025.118l8.6,7.356a.1.1,0,0,0,.121.007l3.333-2.276a2.282,2.282,0,0,1,3.55,1.593l.516,4a.1.1,0,0,0,.058.078.086.086,0,0,0,.027.008l11.216,1.536a.1.1,0,0,0,.1-.06l1.574-3.716a2.257,2.257,0,0,1,1.259-1.232,2.309,2.309,0,0,1,1.778.037,2.267,2.267,0,0,1,.811.616l2.6,3.088a.1.1,0,0,0,.118.026l10.266-4.771a.1.1,0,0,0,.056-.107l-.685-3.976a2.282,2.282,0,0,1,2.923-2.568l3.855,1.193a.1.1,0,0,0,.113-.042l6.057-9.565A.1.1,0,0,0,459.1,456.039ZM420.567,457.7a16.322,16.322,0,1,1,21.574-8.211A16.322,16.322,0,0,1,420.567,457.7Z" transform="translate(-392.976 -408.177)"/></g><g class="i" transform="translate(39.653 41.351)"><path d="M410.317,257.889a31.858,31.858,0,0,1-14.706-15.927l-.049-.054c-11.015-12.188-21.773-24.606-32.137-37.348l-3.381,7.4a.194.194,0,0,0,.053.229l6.039,5.014a4.439,4.439,0,0,1-1.077,7.491l-7.207,3.109a.194.194,0,0,0-.115.205l3.134,21.8a.193.193,0,0,0,.168.164l7.791.952a4.439,4.439,0,0,1,3.144,6.885l-4.382,6.511a.2.2,0,0,0,.014.235l14.419,16.641a.194.194,0,0,0,.23.048l7.07-3.411a4.407,4.407,0,0,1,1.929-.447,4.488,4.488,0,0,1,3.184,1.349,4.387,4.387,0,0,1,1.254,3.19l-.166,7.847a.194.194,0,0,0,.139.19l21.128,6.2a.192.192,0,0,0,.219-.084l4.1-6.691a4.439,4.439,0,0,1,7.568,0l4.1,6.691a.193.193,0,0,0,.165.092.184.184,0,0,0,.054-.008l10.626-3.12C432.576,281.276,421.366,269.66,410.317,257.889Z" transform="translate(-357.735 -204.56)"/><g transform="translate(89.07 100.518)"><path d="M602.456,471.286a25.525,25.525,0,0,1-23.6-26.692q-9.942-11.138-20.035-22.14l-3.018-.044a.155.155,0,0,0-.152.113l-4.871,17.008a.155.155,0,0,0,.069.176l5.4,3.26a3.567,3.567,0,0,1,.041,6.081l-5.354,3.332a.156.156,0,0,0-.067.177l5.1,16.941a.156.156,0,0,0,.153.111l6.3-.175a3.54,3.54,0,0,1,1.561.306,3.6,3.6,0,0,1,1.891,2.037,3.526,3.526,0,0,1-.13,2.75l-2.7,5.7a.155.155,0,0,0,.04.185l13.447,11.5a.155.155,0,0,0,.189.011l5.208-3.556a3.567,3.567,0,0,1,5.548,2.489l.807,6.254a.155.155,0,0,0,.091.122.165.165,0,0,0,.042.012l17.529,2.4a.156.156,0,0,0,.164-.093l2.459-5.807a3.524,3.524,0,0,1,1.968-1.926,3.6,3.6,0,0,1,2.778.058,3.547,3.547,0,0,1,1.267.962l4.061,4.825a.157.157,0,0,0,.184.041l4.859-2.259Q613.051,483.379,602.456,471.286Z" transform="translate(-550.774 -422.41)"/></g><g transform="translate(16.26 104.62)"><path d="M435.317,469.453a16.324,16.324,0,0,1-20.874-24.312q-5.837-6.892-11.607-13.841l-2.279,2a.1.1,0,0,0-.023.119l1.778,3.622a2.283,2.283,0,0,1-2.082,3.288l-4.035-.059a.1.1,0,0,0-.1.072l-3.117,10.884a.1.1,0,0,0,.044.113l3.454,2.086a2.282,2.282,0,0,1,.026,3.891l-3.426,2.132a.1.1,0,0,0-.043.113L396.3,470.4a.1.1,0,0,0,.1.071l4.034-.112a2.268,2.268,0,0,1,1,.2,2.307,2.307,0,0,1,1.21,1.3,2.254,2.254,0,0,1-.083,1.76l-1.73,3.646a.1.1,0,0,0,.025.118l8.605,7.356a.1.1,0,0,0,.121.007l3.332-2.276a2.282,2.282,0,0,1,3.551,1.593l.516,4a.1.1,0,0,0,.058.078.09.09,0,0,0,.027.008l11.216,1.536a.1.1,0,0,0,.105-.06l1.573-3.716a2.26,2.26,0,0,1,1.26-1.232,2.309,2.309,0,0,1,1.778.037,2.265,2.265,0,0,1,.811.616l2.6,3.088a.1.1,0,0,0,.118.026l10.266-4.771a.1.1,0,0,0,.056-.107l-.2-1.14Q440.968,475.953,435.317,469.453Z" transform="translate(-392.976 -431.3)"/></g></g></g></g><g transform="translate(1419.641 379.634)"><g transform="translate(0)"><ellipse class="j" cx="18.846" cy="18.846" rx="18.846" ry="18.846"/></g><path class="k" d="M191.577,131.785q0-.743-.057-1.471l-8.4-8.4-8.821,8.744-8.185,13.8,6.166,6.166q.225.005.451.005A18.845,18.845,0,0,0,191.577,131.785Z" transform="translate(-153.886 -112.939)"/><g transform="translate(6.602 6.843)"><path class="l" d="M114.168,99.647a6.774,6.774,0,0,0-12.243-3.913,6.775,6.775,0,0,0-10.966,7.957,15.869,15.869,0,0,1,2.709,6.541l.347,4.83a5.015,5.015,0,0,0,4.938,4.143h1.1v-8.136a1.868,1.868,0,1,1,3.737,0v8.137h1.1a5.015,5.015,0,0,0,4.938-4.142l.347-4.83a15.869,15.869,0,0,1,2.709-6.541A6.746,6.746,0,0,0,114.168,99.647Z" transform="translate(-89.682 -92.958)"/></g><g transform="translate(21.348 13.056)"><ellipse class="m" cx="6.1" cy="6.1" rx="6.1" ry="6.1"/></g><g transform="translate(27.442 13.056)"><path class="n" d="M372.78,177.357h-.006v12.2h.006a6.1,6.1,0,1,0,0-12.2Z" transform="translate(-372.774 -177.357)"/></g><g transform="translate(23.547 15.255)"><path class="o" d="M327.669,209.638H325.26v-2.409h-2.983v2.409h-2.409v2.983h2.409v2.409h2.983v-2.409h2.409Z" transform="translate(-319.868 -207.229)"/></g><g transform="translate(27.442 15.255)"><path class="p" d="M374.272,209.638v-2.409h-1.5v7.8h1.5v-2.409h2.409v-2.983Z" transform="translate(-372.775 -207.229)"/></g></g><g transform="translate(1338.407 276.108)"><g transform="translate(0 0)"><g transform="translate(0)"><ellipse class="q" cx="24.136" cy="24.136" rx="24.136" ry="24.136"/><path class="r" d="M199.939,132.3q0-.951-.072-1.884l-21.1-6.264-1.271,2.846-12.583,17.14,10.309,12.292q.288.007.578.007A24.136,24.136,0,0,0,199.939,132.3Z" transform="translate(-151.666 -108.16)"/></g></g><g transform="translate(10.057 8.045)"><path d="M861.466,540c.744-1.049,1.424-2.024,2.122-2.985.886-1.219,1.749-1.451,2.9-.524A8.8,8.8,0,0,0,870.97,538a4.807,4.807,0,0,1,4.2,4.582c.107,2.225.086,4.456.093,6.685a1.553,1.553,0,0,1-1.4,1.62c-2.872.607-5.752,1.173-8.63,1.75-3.685.738-7.317.149-10.943-.465-1.537-.261-3.062-.591-4.588-.913a2.162,2.162,0,0,1-1.908-2.321c-.033-1.861-.069-3.723-.077-5.584a4.92,4.92,0,0,1,4.415-5.193,9.157,9.157,0,0,0,4.408-1.732c1.1-.839,1.925-.626,2.73.5C859.977,537.925,860.687,538.912,861.466,540Zm2.075,11.657a3.471,3.471,0,0,0,.53,0q4.725-.919,9.448-1.848c.506-.1.634-.426.623-.905-.049-2.045-.057-4.091-.114-6.136a3.7,3.7,0,0,0-3.034-3.6c-.7-.139-1.412-.185-2.106-.334-.416-.089-.569.078-.717.415-.515,1.177-1.053,2.345-1.582,3.515-.619,1.367-1.254,1.663-2.717,1.226a6.27,6.27,0,0,0-.636,2.876C863.456,548.425,863.448,550.017,863.541,551.657Zm-8.945-12.79c-.769.142-1.486.289-2.207.4a3.763,3.763,0,0,0-3.494,4.04c0,1.838.027,3.676.052,5.513.011.864.232,1.156,1.077,1.323,2.113.418,4.228.83,6.349,1.2.978.172,1.973.246,3.022.371.1-1.419.147-2.7.278-3.978a5.318,5.318,0,0,0-.655-3.741c-1.378.412-2.017.131-2.625-1.184S855.2,540.2,854.6,538.867Zm7.683,2.021c.742.672,1.4,1.278,2.071,1.87.38.335.751.369.994-.155.644-1.391,1.275-2.789,1.928-4.222-.622-.4-1.2-.819-1.82-1.153a.715.715,0,0,0-.674.154C863.927,538.519,863.124,539.689,862.278,540.888Zm-6.591-2.517c.653,1.438,1.278,2.81,1.9,4.183.225.5.571.588.976.241.709-.607,1.394-1.243,2.12-1.894-.846-1.185-1.651-2.321-2.467-3.45a.594.594,0,0,0-.94-.151C856.776,537.66,856.255,537.99,855.687,538.372Zm6.341,7.432h-1.1c-.125,2.027-.248,4-.37,5.992h1.844Zm-.511-4.011c-1.607,1.159-1.7,1.49-.865,2.823,1.792.082,1.812.087,2.135-1.078a.961.961,0,0,0-.189-.751A10.586,10.586,0,0,0,861.516,541.792Z" transform="translate(-847.717 -520.47)"/><path d="M906.9,431.653a1.513,1.513,0,0,1-1.482,1.642,1.316,1.316,0,0,0-.8,1.518,1.741,1.741,0,0,1-2.342,2.367,1.312,1.312,0,0,0-1.529.775,1.428,1.428,0,0,1-1.61,1.412,1.5,1.5,0,0,1-1.745-1.433,1.3,1.3,0,0,0-1.55-.744,1.74,1.74,0,0,1-2.348-2.333,1.279,1.279,0,0,0-.8-1.568,1.439,1.439,0,0,1-1.379-1.644,1.489,1.489,0,0,1,1.41-1.7,1.37,1.37,0,0,0,.808-1.534c-.418-.956-.352-1.382.315-2.041a1.461,1.461,0,0,1,1.986-.3,1.314,1.314,0,0,0,1.561-.833,1.436,1.436,0,0,1,1.654-1.364,1.473,1.473,0,0,1,1.685,1.346,1.234,1.234,0,0,0,1.6.8,1.75,1.75,0,0,1,2.317,2.348,1.265,1.265,0,0,0,.765,1.579A1.515,1.515,0,0,1,906.9,431.653Zm-10.794,4.087a8.249,8.249,0,0,0,1.414.6,1.12,1.12,0,0,1,.986,1.2c.013.382.106.689.58.676.432-.011.529-.29.532-.649a1.1,1.1,0,0,1,1.03-1.225,1.387,1.387,0,0,0,.572-.228,1.186,1.186,0,0,1,1.621.022.54.54,0,0,0,.735-.722,1.133,1.133,0,0,1,0-1.607,1.121,1.121,0,0,0,.232-.568c.069-.8.429-1.2,1.287-1.124.17.015.369-.3.555-.471-.2-.178-.384-.367-.594-.529-.059-.045-.18-.019-.271-.011a.765.765,0,0,1-.9-.718,4.1,4.1,0,0,0-.471-1.205.853.853,0,0,1,.02-1.072c.2-.269.437-.524.081-.892-.374-.387-.636-.156-.952.047a3.7,3.7,0,0,1-2.8-.867,2.263,2.263,0,0,1-.116-.537c-.023-.136.023-.316-.049-.4-.143-.171-.345-.4-.526-.4s-.512.257-.5.387c.058,1.035-.56,1.4-1.424,1.594-.217.048-.4.255-.618.288a1.648,1.648,0,0,1-.88-.041c-.37-.168-.7-.407-1.055-.043s-.038.661.155.964a3.355,3.355,0,0,1-1.043,2.772,3.393,3.393,0,0,1-.474.081c-.114.017-.27-.017-.335.046-.16.157-.387.358-.385.539s.265.5.4.494c.984-.044,1.408.48,1.549,1.366a.9.9,0,0,0,.172.373,1.01,1.01,0,0,1-.035,1.375c-.25.3-.26.627.1.807a1.231,1.231,0,0,0,.762.029A2.873,2.873,0,0,0,896.107,435.74Z" transform="translate(-885.307 -423.871)"/><path class="s" d="M960.386,569.717c-.093-1.64-.085-3.232-.3-4.792a6.272,6.272,0,0,1,.637-2.876c1.462.438,2.1.142,2.716-1.225.53-1.171,1.067-2.338,1.582-3.515.148-.337.3-.5.717-.415.694.149,1.41.195,2.107.334a3.7,3.7,0,0,1,3.034,3.6c.056,2.045.065,4.091.113,6.136.012.48-.117.806-.623.906q-4.724.924-9.448,1.847A3.442,3.442,0,0,1,960.386,569.717Z" transform="translate(-944.563 -538.531)"/><path class="s" d="M861.957,557.288c.6,1.33,1.194,2.644,1.8,3.952s1.247,1.6,2.625,1.184a5.317,5.317,0,0,1,.655,3.741c-.131,1.276-.183,2.56-.278,3.978-1.048-.125-2.044-.2-3.022-.371-2.121-.373-4.236-.786-6.349-1.2-.845-.167-1.066-.459-1.077-1.323-.024-1.838-.052-3.676-.052-5.513a3.762,3.762,0,0,1,3.493-4.039C860.472,557.577,861.189,557.43,861.957,557.288Z" transform="translate(-855.08 -538.891)"/><path class="t" d="M953.314,548.862c.846-1.2,1.649-2.37,2.5-3.506a.715.715,0,0,1,.674-.154c.622.334,1.2.749,1.82,1.153-.653,1.433-1.283,2.831-1.927,4.222-.242.524-.614.49-.994.155C954.714,550.14,954.056,549.534,953.314,548.862Z" transform="translate(-938.753 -528.444)"/><path class="t" d="M905.512,545.953c.568-.381,1.089-.712,1.588-1.072a.594.594,0,0,1,.941.151c.815,1.129,1.62,2.265,2.467,3.45-.727.652-1.411,1.287-2.12,1.894-.406.347-.751.256-.976-.241C906.79,548.763,906.165,547.391,905.512,545.953Z" transform="translate(-897.543 -528.052)"/><path class="o" d="M942.325,607.594c.126,2,.249,3.963.378,5.992h-1.844c.123-1.988.245-3.965.37-5.992Z" transform="translate(-928.015 -582.26)"/><path class="o" d="M939.127,578.5a10.554,10.554,0,0,1,1.08.993.961.961,0,0,1,.189.751c-.322,1.166-.342,1.161-2.135,1.079C937.423,579.994,937.519,579.663,939.127,578.5Z" transform="translate(-925.328 -557.182)"/><path class="f" d="M903.477,443.106a2.854,2.854,0,0,1-.663.341,1.227,1.227,0,0,1-.762-.029c-.355-.179-.347-.5-.1-.807a1.01,1.01,0,0,0,.035-1.375.9.9,0,0,1-.172-.373c-.142-.886-.566-1.411-1.55-1.366-.136.006-.4-.32-.4-.494s.225-.382.385-.538c.065-.063.221-.03.334-.046a3.39,3.39,0,0,0,.475-.081,3.355,3.355,0,0,0,1.043-2.772c-.193-.3-.523-.59-.155-.965s.684-.125,1.054.043a1.65,1.65,0,0,0,.88.041c.215-.033.4-.24.618-.289.864-.193,1.482-.559,1.424-1.594-.008-.13.33-.39.5-.387s.383.231.526.4c.073.087.027.267.049.4a2.236,2.236,0,0,0,.116.537,3.7,3.7,0,0,0,2.8.867c.316-.2.578-.434.952-.047.357.368.123.623-.081.892a.853.853,0,0,0-.02,1.072,4.1,4.1,0,0,1,.471,1.205.766.766,0,0,0,.9.718c.091-.007.212-.034.271.011.209.162.4.35.594.529-.186.165-.385.485-.556.47-.858-.074-1.218.32-1.287,1.125a1.119,1.119,0,0,1-.232.568,1.133,1.133,0,0,0,.005,1.607.54.54,0,0,1-.735.722,1.185,1.185,0,0,0-1.621-.022,1.391,1.391,0,0,1-.572.228,1.1,1.1,0,0,0-1.03,1.225c0,.359-.1.638-.532.649-.474.012-.567-.294-.58-.676a1.12,1.12,0,0,0-.986-1.2A8.233,8.233,0,0,1,903.477,443.106Zm-.383-4.158a3.337,3.337,0,1,0,3.279-3.306A3.324,3.324,0,0,0,903.094,438.948Z" transform="translate(-892.677 -431.237)"/><path d="M923.266,459.122a3.337,3.337,0,1,1,3.279,3.376A3.331,3.331,0,0,1,923.266,459.122Zm5.509.041a2.175,2.175,0,1,0-2.224,2.169A2.218,2.218,0,0,0,928.775,459.163Z" transform="translate(-912.849 -451.411)"/><path class="f" d="M936.017,466.452a2.217,2.217,0,0,1-2.224,2.169,2.176,2.176,0,1,1,2.224-2.169Z" transform="translate(-920.091 -458.7)"/></g></g><g transform="translate(1333.792 390.863)"><g transform="translate(0 0)"><ellipse class="u" cx="11.99" cy="11.99" rx="11.99" ry="11.99"/><path class="v" d="M182.314,128.194q0-.473-.036-.936l-8.4-4.966-2.56,5.185-6.406,6.6,5.121,6.106q.143,0,.287,0A11.99,11.99,0,0,0,182.314,128.194Z" transform="translate(-158.334 -116.204)"/></g><g transform="translate(3.997 1.998)"><g transform="translate(3.334 0.249)"><g transform="translate(2.835)"><path class="q" d="M247.858,9.029h1.586a2.716,2.716,0,0,1,.91.156V8.818A1.318,1.318,0,0,0,249.035,7.5h-.769a1.318,1.318,0,0,0-1.318,1.318v.367A2.715,2.715,0,0,1,247.858,9.029Z" transform="translate(-246.948 -7.5)"/></g><g transform="translate(2.835 0)"><path class="w" d="M247.858,9.029h.464v-.21a1.319,1.319,0,0,1,1.016-1.283,1.321,1.321,0,0,0-.3-.035h-.769a1.318,1.318,0,0,0-1.318,1.318v.367A2.716,2.716,0,0,1,247.858,9.029Z" transform="translate(-246.948 -7.5)"/></g><g transform="translate(1.023 1.529)"><path class="q" d="M192.81,57.7h.466v-.036a.362.362,0,0,1,.362-.362h1.084a1.537,1.537,0,0,0,1.377-.854.364.364,0,0,1,.325-.2h1.66a.362.362,0,0,1,.362.362V57.7h.466a.654.654,0,0,1,.462.19V56.3a2.721,2.721,0,0,0-2.721-2.721h-1.586a2.721,2.721,0,0,0-2.721,2.721v1.6A.654.654,0,0,1,192.81,57.7Z" transform="translate(-192.348 -53.576)"/></g><g transform="translate(1.023 1.529)"><path class="w" d="M192.812,57.7h.466v-.036a.362.362,0,0,1,.362-.362h.1V56.3a2.721,2.721,0,0,1,2.721-2.721h-1.387A2.721,2.721,0,0,0,192.35,56.3v1.6A.654.654,0,0,1,192.812,57.7Z" transform="translate(-192.35 -53.575)"/></g><path class="x" d="M168.5,303.753h-.845v1.328a.166.166,0,0,1-.2.163v.515a.166.166,0,0,1-.037.1l-1.247,1.529a.166.166,0,0,1-.257,0l-1.247-1.529a.166.166,0,0,1-.037-.1v-.515a.166.166,0,0,1-.2-.163v-1.328h-.845A2.362,2.362,0,0,0,161.507,305a.736.736,0,0,1,.491.693v.234h.445a.133.133,0,0,1,.133.133v.324h1.012a.133.133,0,0,1,.133.133v3.9H170.7a.166.166,0,0,0,.166-.166v-4.131A2.363,2.363,0,0,0,168.5,303.753Z" transform="translate(-161.507 -293.924)"/><path class="y" d="M164.068,303.751A2.362,2.362,0,0,0,162,304.967a.768.768,0,0,1,.508.722v.2h.412l.02,0a2.364,2.364,0,0,1,1.971-2.11v-.031h-.845Z" transform="translate(-161.986 -293.922)"/><g transform="translate(3.124 10.222)"><path class="z" d="M258.434,316.684,257.2,315.66a.166.166,0,0,0-.212,0l-1.232,1.024a.164.164,0,0,1-.075.035v.515a.166.166,0,0,0,.037.1l1.247,1.529a.166.166,0,0,0,.257,0l1.247-1.529a.166.166,0,0,0,.037-.1v-.515A.164.164,0,0,1,258.434,316.684Z" transform="translate(-255.683 -315.622)"/></g><g transform="translate(3.124 10.786)"><path class="aa" d="M256.357,333.328v-.706l-.6.5a.164.164,0,0,1-.075.035v.515a.166.166,0,0,0,.037.1l1.247,1.529a.166.166,0,0,0,.257,0l.348-.427-1.178-1.445A.166.166,0,0,1,256.357,333.328Z" transform="translate(-255.683 -332.622)"/></g><g transform="translate(2.927 9.06)"><path class="z" d="M252.886,280.642l-.067-.049a1.992,1.992,0,0,1-.891.209h-1.167a1.993,1.993,0,0,1-.891-.209l-.067.049a.166.166,0,0,0-.068.134v1.913a.166.166,0,0,0,.272.128l1.232-1.024a.166.166,0,0,1,.212,0l1.232,1.024a.166.166,0,0,0,.272-.128v-1.913A.166.166,0,0,0,252.886,280.642Z" transform="translate(-249.734 -280.593)"/></g><path class="ab" d="M249.869,280.593l-.067.049a.166.166,0,0,0-.068.134v1.913a.166.166,0,0,0,.272.128l.4-.333v-1.5a.166.166,0,0,1,.068-.134l.077-.057A1.988,1.988,0,0,1,249.869,280.593Z" transform="translate(-246.807 -271.533)"/><g transform="translate(0.829 5.657)"><path class="ac" d="M187.616,179.616v-1.611h-.466a.656.656,0,0,0-.656.656v.437a.656.656,0,0,0,.656.656h.472C187.618,179.709,187.616,179.662,187.616,179.616Z" transform="translate(-186.493 -178.005)"/><path class="ac" d="M376.52,178.005h-.466v1.611c0,.047,0,.093-.005.139h.472a.656.656,0,0,0,.656-.656v-.437A.656.656,0,0,0,376.52,178.005Z" transform="translate(-369.759 -178.005)"/></g><g transform="translate(3.669 9.249)"><path class="ad" d="M273.559,286.3h-1.167a2.014,2.014,0,0,1-.284-.02l.726,1.207a.166.166,0,0,0,.284,0l.726-1.207A2.015,2.015,0,0,1,273.559,286.3Z" transform="translate(-272.107 -286.283)"/></g><g transform="translate(1.952 4.201)"><path class="ac" d="M223.479,134.138a.364.364,0,0,0-.325.2,1.537,1.537,0,0,1-1.377.854h-1.084a.362.362,0,0,0-.362.362V137.2a2,2,0,0,0,2,2H223.5a2,2,0,0,0,2-2v-2.7a.362.362,0,0,0-.362-.362h-1.66Z" transform="translate(-220.33 -134.138)"/></g><g transform="translate(1.952 5.258)"><path class="ad" d="M221.381,168v-1.647a.362.362,0,0,1,.362-.362h-1.051a.362.362,0,0,0-.362.362V168a2,2,0,0,0,2,2h1.051A2,2,0,0,1,221.381,168Z" transform="translate(-220.33 -165.994)"/></g><g transform="translate(5.97 13.586)"><path class="o" d="M343.748,418.4h-2.192a.1.1,0,0,1-.1-.1V417.1a.1.1,0,0,1,.1-.1h2.192a.1.1,0,0,1,.1.1V418.3A.1.1,0,0,1,343.748,418.4Z" transform="translate(-341.457 -416.998)"/></g><g transform="translate(5.97 13.586)"><path class="z" d="M342.5,418.3V417.1a.1.1,0,0,1,.1-.1h-1.044a.1.1,0,0,0-.1.1V418.3a.1.1,0,0,0,.1.1H342.6A.1.1,0,0,1,342.5,418.3Z" transform="translate(-341.457 -416.998)"/></g></g><path class="ae" d="M83.913,382h-.979v.206a.166.166,0,0,1-.166.166h-2.36a.166.166,0,0,1-.166-.166V382h-.979a.166.166,0,0,0-.166.166v3.9h4.98v-3.9A.166.166,0,0,0,83.913,382Z" transform="translate(-78.498 -369.327)"/><path class="af" d="M80.408,382.372a.166.166,0,0,1-.166-.166V382h-.979a.166.166,0,0,0-.166.166v1.93h.816a.167.167,0,0,1,.167.167v1.8h.407v-3.692Z" transform="translate(-78.498 -369.327)"/><g transform="translate(2.323 11.248)"><path class="z" d="M132.552,339.995v-.2a.768.768,0,0,0-1.536,0v.2Z" transform="translate(-131.016 -339.026)"/></g><g transform="translate(2.323 11.248)"><path class="ab" d="M131.712,339.995v-.2a.768.768,0,0,1,.42-.684.768.768,0,0,0-1.116.684v.2Z" transform="translate(-131.016 -339.026)"/></g><g transform="translate(1.745 12.216)"><path class="aa" d="M116.119,369.048h-2.36a.166.166,0,0,1-.166-.166v-.5a.166.166,0,0,1,.166-.166h2.36a.166.166,0,0,1,.166.166v.5A.166.166,0,0,1,116.119,369.048Z" transform="translate(-113.593 -368.219)"/></g><g transform="translate(1.745 12.216)"><path class="ag" d="M114.631,368.883v-.5a.166.166,0,0,1,.166-.166h-1.038a.166.166,0,0,0-.166.166v.5a.166.166,0,0,0,.166.166H114.8A.166.166,0,0,1,114.631,368.883Z" transform="translate(-113.593 -368.219)"/></g><g transform="translate(0.249 14.769)"><path class="ac" d="M69.834,447.136H68.756a.256.256,0,0,1-.256-.256v-1.457a.255.255,0,0,1,.256-.255h.912a.167.167,0,0,1,.167.167Z" transform="translate(-68.5 -445.168)"/></g><g transform="translate(0.249 14.769)"><path class="ad" d="M69.18,446.881v-1.457a.255.255,0,0,1,.256-.255h-.68a.255.255,0,0,0-.256.255v1.457a.256.256,0,0,0,.256.256h.68A.256.256,0,0,1,69.18,446.881Z" transform="translate(-68.5 -445.168)"/></g><g transform="translate(0 0)"><path class="ah" d="M249.376,180.747v-.457a.249.249,0,0,0-.5,0v.457a.249.249,0,0,0,.5,0Z" transform="translate(-242.645 -174.068)"/><path class="ah" d="M332.911,180.041a.249.249,0,0,0-.249.249v.457a.249.249,0,0,0,.5,0v-.457A.249.249,0,0,0,332.911,180.041Z" transform="translate(-323.649 -174.068)"/><path class="ah" d="M263.316,230.635a1.134,1.134,0,0,1-1.6,0,.249.249,0,0,0-.352.352,1.631,1.631,0,0,0,2.308,0,.249.249,0,0,0-.352-.352Z" transform="translate(-254.642 -222.913)"/><path class="ah" d="M285.136,184.8h.39a.249.249,0,0,0,0-.5h-.142v-.4a.249.249,0,1,0-.5,0v.651A.249.249,0,0,0,285.136,184.8Z" transform="translate(-277.459 -177.56)"/><ellipse class="ah" cx="0.249" cy="0.249" rx="0.249" ry="0.249" transform="translate(7.623 11.346)"/><ellipse class="ah" cx="0.249" cy="0.249" rx="0.249" ry="0.249" transform="translate(7.623 12.408)"/><path class="ah" d="M333.957,409.846v1.205a.349.349,0,0,0,.348.348H336.5a.349.349,0,0,0,.348-.348v-1.205a.349.349,0,0,0-.348-.348h-2.192A.349.349,0,0,0,333.957,409.846Zm.5.149h1.893v.907h-1.893Z" transform="translate(-324.901 -395.912)"/><path class="ah" d="M359.036,387a.249.249,0,0,0,0-.5h-.8a.249.249,0,1,0,0,.5Z" transform="translate(-348.138 -373.677)"/><path class="ah" d="M73.69,13.154a.249.249,0,0,0,.249-.249V12.44a2.615,2.615,0,0,0-2.612-2.612h-.545V9.441a.408.408,0,0,0-.013-.1,2.255,2.255,0,0,0,.9-1.438h.251a.906.906,0,0,0,.9-.905V6.562A.9.9,0,0,0,72.635,6V4.5a2.943,2.943,0,0,0-.293-1.287.249.249,0,0,0-.448.216A2.448,2.448,0,0,1,72.137,4.5V5.682a.9.9,0,0,0-.213-.026h-.218V4.812A.612.612,0,0,0,71.1,4.2h-1.66a.609.609,0,0,0-.548.341,1.282,1.282,0,0,1-1.154.716H66.648a.612.612,0,0,0-.572.4H65.82a.9.9,0,0,0-.213.026V4.5a2.475,2.475,0,0,1,2.472-2.472h1.586a2.475,2.475,0,0,1,1.579.57.249.249,0,1,0,.318-.383,2.963,2.963,0,0,0-.738-.449v-.2A1.569,1.569,0,0,0,69.256,0h-.769A1.569,1.569,0,0,0,66.92,1.567v.2A2.974,2.974,0,0,0,65.109,4.5V6a.9.9,0,0,0-.194.559V7a.906.906,0,0,0,.9.905h.251a2.256,2.256,0,0,0,1,1.5c0,.012,0,.024,0,.036v.388h-.648a2.611,2.611,0,0,0-2.183,1.18,1.016,1.016,0,0,0-1.159.958h-.165a.415.415,0,0,0-.415.415v.042h-.73a.415.415,0,0,0-.415.415v1.7a.505.505,0,0,0-.352.481v1.457a.5.5,0,0,0,.5.5h12.02a.415.415,0,0,0,.415-.415v-2.5a.249.249,0,1,0-.5,0v2.422H66.83V15.427a.249.249,0,1,0-.5,0v1.062h-3.5V14.936a.416.416,0,0,0-.416-.416h-.567v-1.6H62.5a.415.415,0,0,0,.413.372h2.36a.415.415,0,0,0,.413-.372h.649v1.344a.249.249,0,1,0,.5,0V12.839a.415.415,0,0,0-.415-.415h-.73v-.042a.415.415,0,0,0-.415-.415h-.165a1.016,1.016,0,0,0-.4-.763,2.112,2.112,0,0,1,1.714-.878h.648v1.028a.41.41,0,0,0,.146.316v.414a.416.416,0,0,0,.093.262l1.247,1.529a.415.415,0,0,0,.643,0l1.247-1.529a.416.416,0,0,0,.093-.262v-.35l.01,0a.411.411,0,0,0,.239-.375V10.326h.545a2.117,2.117,0,0,1,2.114,2.114v.465a.249.249,0,0,0,.249.249Zm-1.984-7h.218a.408.408,0,0,1,.407.407V7a.408.408,0,0,1-.407.407h-.218ZM67.418,1.567A1.071,1.071,0,0,1,68.487.5h.769a1.071,1.071,0,0,1,1.07,1.07V1.6a2.964,2.964,0,0,0-.661-.075H68.079a2.969,2.969,0,0,0-.661.074V1.567ZM66.037,7.406H65.82A.408.408,0,0,1,65.412,7V6.562a.408.408,0,0,1,.407-.407h.218Zm-3.7,7.612v1.471H61.5a.007.007,0,0,1-.007-.007V15.024a.007.007,0,0,1,.007-.007ZM64.091,11.5a.52.52,0,0,1,.517.471H63.574A.52.52,0,0,1,64.091,11.5Zm1.1.969V12.8H62.994v-.332Zm4.848-.411-1.164,1.427-1.164-1.427V11.7a.421.421,0,0,0,.036-.027l.874-.726a.412.412,0,0,0,.254.087h0a.41.41,0,0,0,.3-.132l.862.716Zm-2.474-.877V9.646a2.234,2.234,0,0,0,.288.078l.487.81Zm.894-1.41h.831l-.416.691Zm1.829,1.41-.843-.7.453-.753a2.232,2.232,0,0,0,.39-.116Zm-.829-1.908H68.288a1.755,1.755,0,0,1-1.753-1.753V5.869a.114.114,0,0,1,.113-.113h1.084a1.777,1.777,0,0,0,1.6-.992.114.114,0,0,1,.1-.065H71.1a.114.114,0,0,1,.113.113v2.7A1.755,1.755,0,0,1,69.455,9.269Z" transform="translate(-61 0)"/></g></g></g></g></svg>