<svg xmlns="http://www.w3.org/2000/svg" width="678.215" height="403.257" viewBox="0 0 678.215 403.257"><defs><style>.a{fill:#224552;}.b{fill:#263238;}.c{fill:#9f6b5b;}.d{fill:#774f44;}.e{fill:#e0e0e0;}.f{fill:#417ee7;}.g{opacity:0.2;}.h{fill:#455a64;}.i{fill:#ffbe9d;}.j{fill:#eb996e;}.k{fill:#01e69f;}.l{fill:#6b93a7;}.m{fill:#fff;}.n{fill:#ebebeb;}</style></defs><g transform="translate(-35.892 -55.094)"><path class="a" d="M606.6,323.9a8.155,8.155,0,0,1-2.624,4.412c-.946.792-3.956,2.392-4.3.128a17.482,17.482,0,0,1,.837-4.162c.742-1.766,1.534-.611,2.729-.378C604.465,324.135,605.618,323.006,606.6,323.9Z"/><path class="a" d="M598.412,140.6c.427,1.513.718,3,1.052,4.413-1.158,1.729-3.445,1.089-5.141,2.015-.8.436-1.017,2.028-1.785,2.27-.617.2-1.1-.643-1.678-.63-1.507.035-2.243,3.03-4.093,2.27-1.057.757.042,3.66-1.258,3.906-.925.175-1.434-1.261-1.995-2.143-.679-1.069-1.649-1.655-1.675-2.522-.029-.9,1.505-2.4,1.99-3.023.6-.768,1.767-2.2,2.517-2.4,1.4-.369,2.819.162,3.885-.375.918-.471.971-2.21,1.467-2.649.421-.373.9-.27,1.261-.5a5.061,5.061,0,0,0,1.468-5.043c-.35-1.407-2.292-2.947-1.047-4.667a6.206,6.206,0,0,1,4.615,4.667c.12.869-.28,1.739-.211,2.646A13.286,13.286,0,0,0,598.412,140.6Z"/><path class="a" d="M598.834,126.854c-.237.644-.711.51-1.154.882-.428.363-.938,1.519-1.467,1.64-.843.191-1.789-.993-2.627-.754-.982.279-.407,1.187-.733,2.266a3.377,3.377,0,0,1-2.308-2.521c-.023-.723.758-1.168.946-2.015.31-1.442-.5-2.168-.946-3.531-.032-.2.1-.217.1-.379,1.025-.258,3.039,2.063,5.352,2.521C597.495,125.26,598.746,125.1,598.834,126.854Z"/><path class="a" d="M594.954,254.815c.107,1.048-1.414.926-1.574.248C593.41,254.252,594.766,254,594.954,254.815Z"/><path class="a" d="M587.607,116.266c1.039.66,3.555,2.156,1.783,3.531A3.309,3.309,0,0,1,587.607,116.266Z"/><path class="a" d="M582.783,249.27c1.2-.787,2.511-2.512,4.614-1.643-.46,1.57-2.042,1.537-3.041,2.27s-1.868,2-3.148,2.143a1.066,1.066,0,0,0-.421-.506C580.782,250.126,581.95,249.8,582.783,249.27Z"/><path class="a" d="M579.95,225.566c1.231,0,2.392-.456,3.248.126-.159,3.153-4.228.755-6.921,1.262-.575.105-.744.639-1.367.374a2.507,2.507,0,0,1,1.994-2.266C577.674,224.967,578.823,225.562,579.95,225.566Z"/><path class="a" d="M581,229.471c.12,1.745-1.862,1.939-2.413,3.283.872,1.6,1.211,3.839,2.2,5.29-.042.962.162,2.219-.315,2.649-2.112.487-3.249-4.074-4.094-5.67-1.614.363-.14,6.569-2.3,5.8-1.062-.379.013-2.152-.212-3.528-.2-1.21-1.181-1.458-1.258-2.4-.061-.777.713-1.6.943-2.394.334-1.143.122-3.343,1.258-3.4.562-.031,1.315,1.418,1.68,1.51C577.738,230.933,579.227,229.074,581,229.471Z"/><path class="a" d="M577.114,248.257c-.386.956-2.543.5-2.725-.379C574.756,246.885,576.935,247.184,577.114,248.257Z"/><path class="a" d="M575.119,251.281a2.9,2.9,0,0,1-.416.507c-.8-.306-1.647-.538-1.888-1.513C573.4,249.238,575.093,250.1,575.119,251.281Z"/><path class="a" d="M572.287,248.13c-.532.908-2.379-.074-3.041.882-1.092-.032-2.191-.049-2.414-1.134.315-.923,1.31-.289,2.1-.378C570.2,247.362,571.951,246.293,572.287,248.13Z"/><path class="a" d="M557.495,296.414c-.008-1.114-.588-2.1-.737-3.275-.052-.427.053-.979,0-1.517a13.4,13.4,0,0,1-.314-1.891c.145-.834.955-.923,1.157-1.638.329-1.176-.4-1.364-.421-2.774-.014-.995.628-1.48,1.051-2.773.194-.6.2-1.716.417-2.142.272-.537,1.434-.993,1.889-1.257,1.608-.949,2.9-2.713,4.515-3.028.407-.08.964.061,1.258,0,.952-.2,2.146-1.159,3.462-1.512,1.273-.347,2.4-.217,3.357-.886a10,10,0,0,0,2.936-3.78c.48-1.385.34-2.553,1.26-3.025.452-.229.895.019,1.364-.125a6.139,6.139,0,0,0,1.889-1.135c.731-.787.851-2.076,1.677-2.9a14.775,14.775,0,0,1,2.416-1.889,3.62,3.62,0,0,1,1.675-.507c1.481.153,2.17,2.634,3.778,2.143.575-.174,1.161-1.642,1.682-2.521.756-1.286,1.307-3.018,2.621-3.4,1.062-.313,2.25.491,2.833-.63.132-.8-.5-1.271,0-1.767,1.224.092,3.29,2.075,5.139,2.142,1,.038,2.846-1.305,3.045.506.087.8-.747,1.449-.944,2.27-.14.579.207.892-.1,1.513-.854.4-1.758.617-1.783,1.763-.032,1.439,1.692,2.114,2.725,2.9.71.538,1.3,1.362,1.68,1.636.323.229.835.337,1.05.5.681.532,1.163,1.736,2.1,1.768,1.065.032,2.13-1.6,2.726-3.156.7-1.814.737-4.017,1.047-5.923.106-.637.482-1.258.63-1.891.406-1.724.955-4.053,2.2-4.665,1.253,1.6,1.681,4.7,1.473,7.316.837.764,2.311.51,2.515,2.27.071.608-.252,1.385-.209,2.013.071,1.062.729,1.992.842,2.9.209,1.68-.233,3.065.415,4.286.82,1.542,2.425,1.491,3.464,3.156a6.827,6.827,0,0,0,.524,2.263c.1.386.006,1.013.106,1.265.337.842,1.245.926,1.574,1.635.162.351.117,1.011.315,1.64a15.3,15.3,0,0,0,1.469,2.522,11.8,11.8,0,0,1,1.363,2.524c.211,1.255-.548,2.116-.735,3.149-.226,1.254,0,2.871-.416,4.16-.488,1.515-1.689,3.009-2.626,4.916a16.567,16.567,0,0,1-2.938,4.412c-.663.637-1.45,1.006-2.1,1.643a35.081,35.081,0,0,0-2.726,3.4c-.946,1.2-2.09,2.117-2.835,3.149-1.077,1.5-1.613,3.918-3.459,4.162a9.315,9.315,0,0,0-3.044.5c-1.554.742-2.584,2.108-3.355,2.143-.811.031-1.561-1.144-2.311-1.262-.84-.129-1.5.766-2.727.756-.5,0-.752-.357-1.467-.631-1.5-.569-3.148-.547-3.357-2.519-.119-1.075.569-1.559.523-2.524s-.831-1.2-1.156-2.015a2.374,2.374,0,0,0-.525-2.524,2.9,2.9,0,0,1,.421-1.764,12.95,12.95,0,0,0-2.1,1.013c-.764.553-1.314,1.826-2.2,1.636-.829-.35-.193-1.341-.315-2.142a11.745,11.745,0,0,0-1.786-3.656,13.562,13.562,0,0,0-3.566-1.642c-3.243-.609-5.309,1.474-7.872,1.77-.657.073-1.373-.133-1.99,0-2.109.443-4.459,2.454-5.773,3.779-2.17.258-4.369-.535-6.611.255-2.223.779-3.5,3.005-6.92,2.39-.678-.7-1.884-1.047-1.889-2.266-.008-.962,1.184-1.582,1.574-2.27a9.99,9.99,0,0,0,1.152-3.531c.022-.837-.469-1.839-.421-2.9C557.113,298.114,557.5,297.233,557.495,296.414Z"/><path class="a" d="M555.712,243.844c.573-.1,1-.6,1.574-.626,1.222-.058,2.432,1.085,3.878.878.316.408.1.746.11,1.391,1.226.787,3.239.643,3.878,2.14-.919,1.171-2.284.331-3.462.124-1.066-.181-2.2-.092-3.358-.251-1.467-.2-2.795-1.178-4.194-1.385-.85-.128-1.72.146-2.52,0-.943-.175-4.461-1.771-4.511-2.9-.051-1.162,1.583-1.49,3.041-1.265C552.034,242.25,553.293,244.25,555.712,243.844Z"/><path class="a" d="M558.542,235.148c-.793-.268-1.537-.121-1.884-.379-.719-.531-.612-2.041-.843-2.9s-1.1-1.334-1.57-2.521c-.684-1.719-.978-5.568.837-5.925.73-.147,1.483.528,1.992.379,1.012-.3.835-1.873,1.68-2.525.468-.363,1.328-.21,1.995-.5a4.88,4.88,0,0,0,1.677-1.764c.44-.629.785-1.687,1.364-2.142.652-.516,1.257-.528,1.783-1.009,1.376-1.261,1.42-3.019,2.518-4.54.932-1.286,2.4,1.239,2.52,2.27.521.8,1.547,1,1.992,1.891-.617,2.219-2.361,2.41-1.992,5.546a10.221,10.221,0,0,0,.63,2.146c.3.738,1.187,1.534,1.153,2.014-.069.942-1.649.9-2,1.891-.318.917.024.978-.1,2.394-.442,1.029-1.627,1.277-1.995,2.525-.443,1.5.066,3.437-.943,4.54-.7-.045-1.46.725-2.3.627-.919-.1-1.8-1.618-3.257-1.641-.556-.005-1.214.428-1.783.38C559.564,235.863,559.2,235.367,558.542,235.148Z"/><path class="a" d="M551.753,232.342c2.669,0,2.669,4.977,0,4.977S549.083,232.342,551.753,232.342Z"/><path class="a" d="M547.84,231.741a5.36,5.36,0,0,1,1.47,2.524c-.037.889-1.146.841-1.47,2.017-.493,1.811.222,3.863-.628,4.792a4.038,4.038,0,0,1-2.1.25,33.975,33.975,0,0,1-5.037-5.674,13.478,13.478,0,0,1-1.679-2.27c-.546-1.2-.74-2.527-1.362-3.654-.551-.99-1.561-1.7-2.1-2.772-.438-.886-.48-2.048-.941-2.9-.435-.792-1.166-1.133-1.683-1.767-.334-.414-.525-1.059-.837-1.512-1.319-1.9-3.855-2.887-3.985-5.673.538-.738,1.092.277,2.1.506.652.147,1.421-.063,1.889.125.954.385,1.611,2.174,2.623,3.151.567.548,1.306.926,1.886,1.512.623.628,1.079,1.525,1.575,1.891.683.5,1.629.834,2.519,1.516,1.213.927,3.378,1.89,3.673,3.784.071.469-.184,1.264-.107,1.634.146.662.843.949,1.259,1.513.516.7.623,1.753,1.364,1.893C547.006,232.874,547.04,231.617,547.84,231.741Z"/><path class="a" d="M498.318,205.267c.9.357,3.918,4.759,3.042,7.189a2.3,2.3,0,0,1-2.308,1.385c-2.078-.4-1.68-5.95-1.049-8.2A.6.6,0,0,1,498.318,205.267Z"/><path class="a" d="M428.545,269.061a6.214,6.214,0,0,1,1.364-3.282c.968-.862,2.276-.773,3.254-1.385a8.527,8.527,0,0,0,2.517-2.27c.506-.786.533-1.683.946-2.27.281-.4.917-.512,1.256-1.005.305-.446.239-1.273.736-1.764,1.458-.748,1.876,2.458,2.1,4.66.066.688.363,1.424.31,1.764-.151,1.006-1.073,1.214-1.361,1.9a23.487,23.487,0,0,1-1.786,7.432c-.7,1.963-1.1,4.111-1.677,5.8-.209.615-.649,1.095-.838,1.637-.758,2.146-1.036,5.514-2.415,6.431a9.577,9.577,0,0,1-2.939.882,3.144,3.144,0,0,1-2.726-2.519,21.5,21.5,0,0,1-.106-2.27,12.5,12.5,0,0,1-.525-3.027c.233-2.566,2.312-3.811,2.414-5.924C429.147,272.257,428.4,270.676,428.545,269.061Z"/><path class="a" d="M377.974,89.665c.122,2.114-2.689,1.85-3.045,3.658-.158.818.329,1.91.213,2.646-.215,1.324-1.28.938-2.623,1.639-.686.357-1.352,1.668-2.1,1.763-.691.09-1.113-.484-1.574-.375-.689.156-.458,1.171-1.47,1.385-.806.169-2.215-.866-2.308.378-.061.8,1.267,1.233,2.1,1.133.659-.075,1.142-.62,1.782-.629,1.243-.013,2.051,1.107,2.833,1.136,1.8.06,3.569-2,5.458-1.767.853.1,1.359.831,1.993.758,1.011-.115,1.873-1.519,2.623-2.019-.319-2.123.029-4.925,1.68-5.042,1.133-.08,2.834,2.33,3.041,0A1.839,1.839,0,0,0,385,92.438c-.6.016-1.4,1.435-1.889.254,0-1.155,1.082-.849,1.68-1.136.445-.213.76-.8,1.259-1.009,2.495-1.054,5.955,1.034,6.924-1.513-2.214-2.269-5.984.829-8.5.631a3.5,3.5,0,0,1-2.832-2.27c-.109-.388-.018-.91-.106-1.637-.1-.8-.442-1.648-.418-2.145.106-2.276,4.824-2.706,4.824-5.545-.9-1.038-3.542-.863-4.406.251-.309.4-.294,1.213-.734,2.018-.94,1.723-3.98,1.927-4.93,4.034a5.285,5.285,0,0,0-.422,2.521C375.7,88.086,377.9,88.411,377.974,89.665ZM353,212.959c-3.023-.532-6.115.932-8.185,2.014-1.195.628-2.411,1.583-3.462,1.64-1,.058-1.977-.636-2.936-.754a13.46,13.46,0,0,0-4.093.251c-1.206.258-2.295,1.292-3.357,1.385-2.035.185-3.97-2.2-5.247-3.4-.781-.731-1.576-1.331-2.307-2.016-.785-.738-1.8-1.184-2.414-1.891-.827-.96-.827-2.632-1.259-3.909-.51-1.5-2.066-2.607-3.253-4.033-.888-1.067-2.925-2.661-3.148-4.033-.111-.7.249-1.509.209-2.27-.055-1.1-.747-1.732-.733-2.522.021-1.108,1.107-1.964,1.364-2.9.132-.477.069-1.152.209-1.764.295-1.28,1-2.037.841-3.909a23.5,23.5,0,0,1-.631-2.393c-.022-.663.363-1.032.315-1.641-.08-1.076-1.243-1.285-1.365-2.52-.122-1.277,1.015-2.331,1.681-3.783.3-.65.463-1.646.733-2.143.589-1.072,1.548-1.591,2-2.648.329-.78.435-1.936.735-2.521.386-.751,1.155-1.156,1.888-2.143.6-.8.84-1.779,1.259-2.142a9.407,9.407,0,0,1,1.889-.881,9.058,9.058,0,0,0,4.3-4.668,6.041,6.041,0,0,1,.839-4.285c.641-1.3,1.11-2.534,2.205-3.279,1.311-.891,2.543-.974,3.46-2.645A8.739,8.739,0,0,0,335.69,144c.011-1.248-1.065-2.846-1.993-3.028-.948-.181-2.4.866-2.938-.376-.17-.4.064-1.327,0-1.766-.121-.825-.71-1.407-.734-2.016-.05-1.184.97-2.415,1.259-3.781.392-1.859.013-3.282-.106-5.421,1.468-2.78,4.727-1.4,7.975-1.137.487.041,1.046-.14,1.574-.124,1.926.053,3.442.751,4.09-1.261a16,16,0,0,0,.316-4.288,9.832,9.832,0,0,0-2.2-3.528c-1.04-.8-2.551-.449-3.147-1.89.485-2.49,2.806-.417,4.2-1.01.71-.3.63-1.779,1.261-2.018.429-.162.977.519,1.574.506a9.981,9.981,0,0,0,2.832-1.516c.67-.544.877-1.674,1.468-2.142.4-.315.927-.276,1.365-.5a8.138,8.138,0,0,0,2.622-2.269c.867-1.249,1.257-2.8,2.308-3.025,1.407-.309,4.589.335,4.828-1.516.225-1.76-1.29-3.144-.734-5.042.439-1.5,1.56-1.235,3.148-2.142.765.652.542,2.518.628,3.657.974.01,2.959-.346,3.147-1.387.236-1.3-1.42-2.621-1.783-3.4-.392-.85-.477-2.343-1.259-2.521-1.6-.369-3.15,2.646-5.142,2.646a3.563,3.563,0,0,1-3.042-2.394,12.459,12.459,0,0,1-.106-2.019,10.714,10.714,0,0,1-.419-3.528c.8-1.654,2.655-1.922,3.988-2.775.5-.322.908-1.009,1.468-1.26.94-.418,2.331,0,3.253-.631.583-.4.419-1.086.84-1.891.263-.507.9-.8,1.258-1.385.248-.4.276-1.016.526-1.388.911-1.363,2.575-1.865,3.251-3.276.3-.624-.518-.857-.313-1.766.339-.88,1.647-.233,2.411-.379,1.044-.194,2.008-1.719,3.147-2.016,1.19-.309,2.464-.121,3.569-.629.66-.307,1.267-1.026,1.89-1.137.219-.039.84.143,1.152.127.4-.019.832-.316,1.364-.379a25.931,25.931,0,0,1,2.73.252c1.658.044,3.234-.6,4.615.127.723.378.641,1.362,1.573,1.763.47.2,1.089-.079,1.784,0,1.027.118,2.1.971,3.462,1.137.485.057.986-.073,1.468,0a22.652,22.652,0,0,1,4.619,1.763c1.229.5,3.833,1.121,3.881,2.522.058,1.658-2.266,2.143-3.253,2.143-1.651,0-3.837-1.159-5.559-.5.026,2.853,2.588,5.012,4.931,4.664.206-1.34-1.325-.595-1.156-1.89,1.047-.949,2.3.636,3.779.378.576-.187.479-1.19.627-1.891,1.248-.91,2.811-2.247,4.722-1.261a1.044,1.044,0,0,1,.422-.5c.124-1.384-1.259-2.107-.526-3.406.366-.894,2.322-.585,2.623.128.151.853-.485.76-.421,1.512a1.645,1.645,0,0,0,1.68,1.136c1.03-.067,1.235-1.174,2.2-1.767.391-.238.967-.264,1.467-.5.594-.283,1.1-.856,1.574-1.009.35-.111.877,0,1.364-.127.62-.159,1.275-.757,1.784-.754.633,0,1.086.878,1.888,1.008.438.071.936-.3,1.574-.378.515-.067,1.047.073,1.469,0,1-.175,1.69-.809,2.519-.757.586.038,1.59.986,1.992.506.679-.81-.906-1.411-.416-2.147,1.608.147,3.318.1,4.932.38,2.4.41,4.654,1.836,6.817,1.891-.205-1.751-1.874-1.248-2.623-2.016a7.918,7.918,0,0,1-1.153-2.648A16.079,16.079,0,0,1,443.34,63.7c.925-1.043,3.958-1.037,4.825.376.594.968.4,2.426,1.258,2.4.742-.025,1.137-2.216,1.995-2.27.71-.045,1.071,1.4,1.783,1.388.87-.022,1.474-1.967,2.624-2.019.62-.028.826.383,1.782.5.658-.506-.219-1.175.107-1.891,1.173-1.025,3.852-.245,5.35-.882.418-.6-.534-1.022-.1-1.64,1.293-1.085,3.466-1.184,5.668-1.636,1.345-.277,2.614-1.4,3.669-1.516,1.1-.117,2.154.778,3.148.758a5.05,5.05,0,0,0,1.889-.5c.59-.278.993-.965,1.575-1.137.92-.271,2.084.13,3.148,0,1.126-.137,2.121-.662,2.936-.5.763.146,1.375,1.124,2.1,1.261,2.21.414,4.491-.4,6.5.251.36.118.724.567,1.155.758,1.349.592,2.268.408,2.52,2.394,1.06.452,1.683,1.621,2.936,2.018.837.264,1.679-.128,2.623-.128a24.537,24.537,0,0,1,3.881.252c.6.112,1.1.644,1.681.758.423.083.985-.054,1.467,0a17.04,17.04,0,0,0,1.783.379c1.1-.042,1.935-1.22,2.833-1.389a6.273,6.273,0,0,1,1.573.252c1.768.179,3.805-.277,5.247.128a10.089,10.089,0,0,1,2.938,2.015c.617.567.991,1.467,1.573,1.89a5.171,5.171,0,0,0,2.52,1.01c.671-.127.7-1.025,1.363-1.385,2.082-.557,5.775.8,7.45-.127.648-.36.522-1.184,1.049-1.64,3.148-.184,6.285.156,9.233.252a19.889,19.889,0,0,1,3.046-.124c1.037.217,1.8,1.467,2.829,1.891.688.28,1.9.134,2.938.378.7.163,1.267.666,1.783.755a12.1,12.1,0,0,0,3.257-.251c2.405-.233,5.5-.385,7.869.757,1.261.609,1.791,1.837,3.144,2.016,1.94.258,4.942-.192,6.926,0a10.772,10.772,0,0,0,1.259.251c.665-.058,1.07-.736,1.889-.755,1.038-.028,2.692,1.946,4.2,1.639.65-.528-.522-1.263.1-1.766.591-.589,1.4-.006,2.31,0,.5.006,1.106-.3,1.574-.251,1.153.12,2.247,1.365,3.672,1.763a10.9,10.9,0,0,0,4.094.254,9.586,9.586,0,0,1,2.832-.378c.465.077.877.481,1.362.631.449.136.885,0,1.259.124.35.115.7.509,1.052.63,1.949.671,4.547,1,6.61,1.767,1.214.448,2.454,1.352,3.463,1.385.5.019.938-.258,1.574-.252,3.169.026,6.9,1.611,6.606,5.17-3.709.977-6.813-3.069-10.7-1.891a1.942,1.942,0,0,0-1.256,1.763c.144,2.2,4.751,2.013,5.137,4.161-.755.679-1.579.039-2.2.128a7.358,7.358,0,0,0-3.148,2.015c-.71.8-1.333,2.846-2.1,3.027-.938.22-2.369-1.11-3.778-.757-.518.13-1.013.9-1.468,1.009-1.158.264-2.632-.758-3.355.882.382,1.152.149,2.757.943,3.4.511.42,1.153.1,1.783.378.737.332,1.145,1.411,1.781,2.019.522.494,1.078.507,1.367,1.134.066.929-.308,1.031-.212,1.639.165,1.057,1.54,1.3,1.574,2.015.048.911-.866.716-1.046,1.64-.066.585.564.742.627,1.512.043.515-.346,1.053-.312,1.64.045.84.6,1.4.522,2.142a1.92,1.92,0,0,1-.946,1.388c-2.009-1.55-3.818-3.687-5.98-5.673-2.213-2.038-5.721-4.54-6.084-8.825-.012-.656,1.158-1.172,1.363-2.142.084-.4-.13-.965-.1-1.513.073-1.48,1.091-2.9,1.051-3.781a5.072,5.072,0,0,0-2.311-3.028c-.609.385-.007,1.149-.1,1.766a2.286,2.286,0,0,1-1.574,1.765c-1.985.206-2.207-3.072-5.352-2.143a3.29,3.29,0,0,0-1.677,3.53c.087.551,1.348,1.143,1.258,1.891-.087.726-2.859.94-3.464.883-1.692-.163-2.563-1.685-4.09-1.64-.749.022-1.406.754-1.995.881-3.3.727-8.208-1.954-9.334,1.513-.162.49-.071,1.13-.212,1.64a18.745,18.745,0,0,1-.84,1.766c-.128.389-.106,1.155-.315,1.764-.191.55-2.175,2.7-.419,3.279.419.134.614-.217,1.156-.128.9.147,2.4,1.885,3.459,1.891.633,0,1.51-.855,1.994-.881.972-.057,1.674.7,2.412,1.133.706.417,1.785,1.293,2.311,1.261.991-.061.517-.885,1.468-1.261,1.815.647,2.665,2.957,4.4,4.791.632.662,1.565,1.232,2.415,2.143.474.509,1.934,1.875,2,2.521.054.6-.409.86-.528,1.388-.17.767.227,1.331-.21,1.891-1.674-.745-2.05-2.728-3.253-4.412-.445-.628-.893-1.373-1.571-2.27-.308-.4-1.42-1.824-2.1-1.512-1.319.6.724,3,1.05,3.53a9.511,9.511,0,0,1,1.683,3.782c.039.751-.408,2.117-.422,3.4-.008.869.182,1.658.1,2.394a18.789,18.789,0,0,1-.735,2.4c-.247.923-.3,2.027-.523,2.645-.407,1.136-1.78,2.474-2.732,2.521-.871.045-1.244-.805-2.1-.754-1.29.073-1.529,1.5-2.3,2.645.066,1.242.39,1.668.21,2.522-.284,1.337-1.831,1.569-1.783,2.9.042,1.233,1.414,1.472,2.095,2.019a19.319,19.319,0,0,1,3.466,3.782,7.789,7.789,0,0,1,1.364,3.527c-.08,1.248-3.068,2.983-4.306,2.521-1.173-.436-.77-1.782-1.046-3.023-.215-.956-.837-1.366-1.152-2.143-.168-.408-.091-1.053-.318-1.513-.633-1.283-1.738-.582-3.045-1.388-.855-.528-.606-1.639-.943-2.648-.45-1.356-2.352-2-3.879-1.636-1.123.261-1.473,1.394-2.52,1.636-1.539-1.1.316-3.8-1.573-4.033-1.446-.182-2.407,2.495-3.254,3.279-.572.525-1.61.633-1.677,1.385-.124,1.391,1.222,1.107,2.305,1.639.983.483,1.1,1.821,1.995,1.89.75.061,1.248-.929,1.993-1.008a4.625,4.625,0,0,1,3.147,1.136c-.524,1.528-3.349,2.648-3.357,4.664-.005,1.169,1.127,1.37,1.995,2.143.731.652,1.7,2.5,2.727,3.781.445.555,1.166.92,1.367,1.261.485.834.408,1.85.941,2.4.09.69-.262.859-.21,1.512.26.907,1.421.735,1.68,1.639-.215,2.174.538,4.221-.943,5.043-.684,3.9-1.455,6.95-3.672,9.075-2,1.908-4.629,2.471-7.032,3.4-.623.242-1.121,1.031-1.677,1.261-1.4.57-3.883.222-3.985,2.269-.058,1.01,1.065,1.618,1.152,2.646.132,1.579-1.044,3.167-1.889,3.279a1.911,1.911,0,0,1-2-1.767c-.081-1.5,1.553-2.117,1.681-3.024a2.677,2.677,0,0,0-2.726-3.025c-1.387.124-4.539,3.467-4.616,5.295-.061,1.366,2.252,4.208,3.042,5.042,2.946,3.12,6.075,4.992,5.558,12.607-.735,1.929-2.618,2.34-4.09,3.4-1.121.809-1.681,3.317-3.569,3.531-.758-.312-.316-1.735-.525-2.395-.286-.9-1.789-1.346-2.727-2.269-.768-.758-1.091-1.952-1.679-2.649-.734-.869-1.832-1.05-2.73-1.639-.564-.369-1-1.668-1.574-1.637-.924.045-.6,1.115-.836,2.9-.234,1.754-1.3,3.1-.947,5.17.149.847,1.029,1.532,1.468,2.394.729,1.429.83,3.1,1.575,3.909.491.539,1.33.656,1.888,1.134,1.113.955,3.071,3.025,3.464,4.162.455,1.326.015,2.89.315,4.287.349,1.614,2.106,2.769,1.052,4.412a8.042,8.042,0,0,1-2.732-1.639,9.5,9.5,0,0,1-3.042-3.782,11.988,11.988,0,0,1-.84-1.512c-.365-1.131-.286-2.41-.627-3.782a12.129,12.129,0,0,0-2.311-4.037c-.736-.833-2.043-1.321-2.1-2.521-.077-1.691.477-3.68.421-5.674-.013-.429-.257-.863-.313-1.384-.111-.968.08-2.152-.108-3.028a15.61,15.61,0,0,0-.944-2.267c-.281-.725-.567-1.454-.837-2.4-.426-1.457-.9-4.269-1.889-4.412-1.052-.152-2.091,2.368-3.463,2.4a1.973,1.973,0,0,1-1.783-1.515c-.133-.774.331-1.554.315-2.394-.04-1.69-1.039-2.343-1.785-3.53-.3-.481-.382-1.156-.631-1.513-.477-.684-1.389-1.066-1.993-1.763a9.991,9.991,0,0,1-1.47-2.27c-.4-.986-.536-2.267-1.153-2.4-.591-.125-1.274.894-1.888,1.136a14.767,14.767,0,0,1-2.833.63c-2.106.175-3.815-.5-3.567,2.522-.328,1.357-1.52,1.372-2.31,2.015-1,.821-1.736,2.467-2.832,3.782-.532.643-1.3,1.044-1.783,1.639-.4.5-.525,1.293-.946,1.767-1.119,1.271-2.8,1.379-3.564,3.152-.045,2.1.824,3.68.628,5.669-.09.908-.655,1.713-.736,2.65a20.58,20.58,0,0,1,.108,2.521c-.093.458-.516.7-.842,1.261-.292.5-.409,1.171-.625,1.512-.355.544-.936.922-1.265,1.388-.532.758-.643,1.3-1.153,1.388-2.3.4-2.865-4.858-3.881-7.062-.469-1.012-1.422-1.925-1.889-3.151-.537-1.413-.7-3.187-1.47-4.791a33.309,33.309,0,0,1-1.993-4.161c-.373-1.2-.7-2.7-1.049-4.033a25.419,25.419,0,0,1-.839-4.285c-.088-1.637.262-2.646-.841-3.279-1.011.286-1.462,1.512-2.623,1.512-1.118,0-4.125-2.331-3.249-4.413-.733-1.248-2.579-1.932-3.989-3.4-.8-.843-1.534-2.853-2.935-3.024a6.276,6.276,0,0,0-1.261.252c-.888.092-2.463-.1-3.464,0a18.64,18.64,0,0,1-4.406.251c-1.026-.134-2.3-.372-3.357-.5-1.343-.166-3.129-.548-3.88-1.388-.465-.516-.654-2.168-1.472-2.394-.973-.271-1.508.633-2.411.881-1.924.53-3.529-.474-4.828-1.511-.921-.735-1.762-1.118-2.413-1.64-1.6-1.283-1.882-5.141-4.3-5.17a2.338,2.338,0,0,0-2.309,1.767c-.081.8.8,2.292,1.156,2.9,1.177,1.992,3.338,2.741,3.988,5.417.435.2,1.32-.458,1.783.128.406,1.149-.006,3.282.943,3.782,4.361.865,5.606-2.006,7.557-4.033,1.131.887.757,1.665,1.152,2.645a3.888,3.888,0,0,0,1.783,2.145c.528.242,1.2.016,2,.376.5.226,2.563,2.579,2.625,3.407.053.741-1.359,3.265-1.788,3.9s-1.06.949-1.259,1.513c-.148.436-.1,1.362-.21,1.639-.193.5-1.135,1.159-1.679,1.764a22.4,22.4,0,0,1-1.783,1.639c-.663.611-1.074,1.452-1.783,1.767-1.4.618-2.725.353-3.882,1.261-.758.592-.76,1.929-1.677,2.646-.959.748-2.6.753-3.99,1.515-.893.487-1.429,1.432-2.2,1.763-.316.134-.71.02-1.052.127-.7.214-1.342.809-1.995,1.007-.517.159-1.065.08-1.574.254-1.616.561-3.1,2.534-4.722,1.385-.765-2.123-.889-4.8-1.783-6.682-.455-.961-1.351-1.258-1.677-2.267-.045-.811.769-.589.837-1.261-.267-1.362-1.337-2-1.992-3.154-.321-.564-.469-1.366-.839-2.015-1.252-2.187-3.718-3.324-4.2-6.053-.13-.741.021-1.324-.1-1.89a7.654,7.654,0,0,0-1.261-2.646c-.4-.56-1.219-.942-1.678-1.767-.3-.544-.371-1.311-.63-1.89a20.51,20.51,0,0,0-4.2-6.052c-.856.149-1.775.219-2.2.885a21.264,21.264,0,0,0,1.783,4.412,26.826,26.826,0,0,1,1.992,4.034c.165.524.135,1.212.316,1.763.659,2,2.733,2.614,3.147,4.919.278,1.544-.061,2.613.315,4.158.361,1.482,2.183,2.358,2.939,3.781.614,1.162.62,2.805,1.049,3.909.627,1.618,2.384,2.318,3.671,3.4a35.169,35.169,0,0,1,2.937,3.53c.561.612,1.333.723,1.47,1.388.178.853-.3,1.14-.422,1.889.806,1.009,1.59,2.871,2.939,3.027.554.063,1.254-.609,2.1-.758.427-.074.9.08,1.259,0,.559-.121,1.046-.72,1.682-.882,1.072-.277,2.313-.165,3.67-.378,1.283-.2,2.165-1.5,3.148-1.134,1.078,1.423.3,3.037,0,4.412-.107.484-.107.984-.206,1.388-.568,2.244-2.051,3.907-2.733,5.924-.209.618-.172,1.377-.415,2.016a25.412,25.412,0,0,1-3.676,5.674,23.137,23.137,0,0,1-2.1,2.52c-.752.745-1.672,1.15-2.52,1.891a25.511,25.511,0,0,0-4.615,5.549c-.459.758-.678,1.63-1.155,2.27-.684.917-1.741,1.369-2.307,2.269a28.431,28.431,0,0,0-1.26,3.277c-.576,1.442-1.783,2.416-1.573,4.411.079.764.648,1.239.84,2.019a10.141,10.141,0,0,1-.107,3.906c.594,1.729,1.021,3.652,2.1,4.791.129,2.551-.176,5.026,0,7.185.11,1.376.556,2.389.105,3.655a11.378,11.378,0,0,1-2.832,3.782c-.991.768-2.507.968-3.569,1.9-.739.643-1.352,1.77-2.1,2.524-1.237,1.239-2.932,2.4-3.042,3.654a10.491,10.491,0,0,0,.628,2.519c.411,1.862.809,4.54.107,6.555-.761,2.181-4.608,1.728-5.037,4.033-.13.7.257,1.26.21,2.019a19.514,19.514,0,0,1-1.05,3.654c-.464,1.044-1.518,1.512-2.2,2.4-.858,1.118-1.293,2.735-2.2,3.906a34.1,34.1,0,0,1-4.512,4.665,11.9,11.9,0,0,1-6.083,2.648c-1.275.109-2.641-.36-3.988-.124-.493.082-1.027.627-1.679.755-.379.073-.766-.08-1.154,0-.659.133-1.277.764-1.888.757-1.36-.019-3.1-1.967-3.148-3.906-.016-.748.533-1.458.525-2.147-.011-.8-.832-1.814-1.471-3.277-.612-1.408-.853-3-1.468-4.155-.651-1.229-1.512-1.812-1.992-2.777-.967-1.938-1.038-4.233-1.365-6.558-.105-.757-.537-1.579-.63-2.522-.114-1.157.116-2.444-.1-3.4a18.089,18.089,0,0,0-1.261-2.4c-.74-1.635-1.259-3.771-1.887-5.041-.591-1.19-1.783-2.432-1.89-3.781a22.505,22.505,0,0,1,.21-3.53c.114-.886.66-1.587.84-2.519.12-.621-.024-1.333.1-2.018.535-2.885,3.18-3.935,2.835-7.44-.148-1.487-1.023-2.22-1.155-3.909-.061-.79.329-1.483.315-2.27a13.422,13.422,0,0,0-1.154-3.656c-1.064-2.781-1.715-5.324-3.252-7.436-.837-1.152-1.934-1.964-2.623-3.028a8.748,8.748,0,0,1-1.261-3.15c-.011-.72.461-1.169.63-1.892.221-.93.237-2.69.525-4.161a12.665,12.665,0,0,0,.631-3.4c-.106-1.054-1.412-3.075-2.52-3.4-1.465-.437-2.973.562-4.825.377C355.185,216.537,355.3,213.363,353,212.959Zm58.021,45.132c.486-.926,1.1-3.531,0-4.161h-.209C410.346,254.977,409.847,257.505,411.023,258.091Zm-1.47-26.35c.355-.872,1.187-1.795,1.05-2.9-.3-2.43-4.084-1.232-4.51.5-.289,1.168.172,2.094-.212,3.278.413.933,1.449,1.117,2.729,1.007C409.317,233.26,409.23,232.543,409.553,231.741Zm-6.4,12.989c.416-.927-.663-1.531-.84-2.524-.207-1.162.236-2.529-.631-3.152h-.312C400.611,241.12,401.686,244.529,403.155,244.73ZM474.71,119.542c-.394-.952-1.528.28-1.046,1.137C474.374,120.733,474.628,120.24,474.71,119.542Zm-24.444,5.17c1.7-.395.018-3.661-1.261-3.279C447.333,121.936,449.106,124.98,450.266,124.712ZM442.5,140.973c.524-4.371-2.311-4.7-2.833-7.815.241.038.116-.363.315-.379.689-.4,1.73.637,2.1-.375a2.163,2.163,0,0,0-3.147-1.891c-.455-.376-.516-1.226-.628-2.018-1.19-.851-4.134-2.71-4.093-4.413.034-1.4,1.539-2.187,3.253-2.142.724-.659.258-2.684-.419-3.152-2.713-.714-4.159-.233-5.877,1.26-.823.716-1.742,1.21-2.2,1.64a3.466,3.466,0,0,0-.942,2.015c.066.78,1,1.238,1.364,2.27.188.532.148,1.2.315,1.64.459,1.215,1.632,2,2.517,3.024.626.723,2.379,2.289,2.414,3.151.032.72-.538.879-.732,1.639a11.248,11.248,0,0,0-.314,3.152c.23,1.385,1.423,1.433,2.513,2.018s2.129,1.6,3.254,1.637A3.981,3.981,0,0,0,442.5,140.973ZM417.843,131.9c2.844-.617,1.545-3.505.1-4.536-1.092-.783-2.4-1.464-3.672-2.4-.74-.54-3.548-1.562-3.566-2.645-.022-1.184,2.089-1.572,1.258-3.658-1.436-.42-4.851.242-4.615,2.143.135,1.1,1.218.49,1.467,1.639-1.027.44-2.278,1.592-3.357,1.388-1.285-.242-1.615-2.139-2.307-3.279-1,.039-1.656-1.162-2.833-1.009-1.234.162-1.889,2.314-2.519,3.407-.335.572-.867.869-1.05,1.385-.108.311.01.808-.1,1.26-.36,1.4-1.37,1.914-1.262,3.152.1,1.091,1.087,1.582,1.156,2.521-.069.968-1.362.464-1.259,1.64,1.879,1.862,1.982-.879,2.939-1.261.768-.309,2.276.254,3.251,0,.787-.207,1.406-1.108,2.308-1.512a5.533,5.533,0,0,1,2-.507c3.338-.166,5.493,2.445,8.393,2.521A18.937,18.937,0,0,0,417.843,131.9Zm-6.716,14.877c.058-1.353-.429-2.372-.524-4.285-1.938-1.4-3.385,1.3-5.35,1.006-1.208-.182-2.075-1.872-3.357-1.636-.708.127-1.057,1.225-1.786,1.384-1.5.331-2.183-1.442-3.775-.754-2.247-2.057-3.251-5.406-3.779-9.2-1.223-1.929-3.091-.359-3.986.882-.552-.006-1.241-.366-1.362.379-.413,2.33,2.742,2.579,2.726,4.161-.01,1.028-1.232.933-1.783,1.636-.586.748-.2,1.414-.943,1.891-2.07.3-2.756-1.06-2.73-3.276-.893-1.63-2.021-2.817-2.832-4.16a5.59,5.59,0,0,1-.84-2.019c-.074-.588.234-1.337.106-2.015-.228-1.2-2.093-2.111-3.253-2.773a18.236,18.236,0,0,1-3.673-2.27c-.622-.63-.917-1.725-1.467-2.142-.469-.354-1.052-.281-1.471-.63-.575-.484-.479-1.29-1.258-1.516-.4-.175-1.005.472-1.259.885-.512,2.751,1.351,2.939,2.2,4.158.587.837.877,2.1,1.471,2.648.633.589,1.494.481,2.308.882.562.277.927,1.118,1.468,1.512,1,.733,2.61.86,2.729,2.27-.623.51-2.035-.742-2.517.506-.124.819.54,1.239.525,2.015-.027,1.242-1.175,2.6-2.205,2.4-.1-.739.548-1.344.525-2.146-.046-1.605-2.73-4.052-4.091-4.788-.639-.346-1.415-.366-2-.758a16.024,16.024,0,0,1-3.462-3.4c-.75-1.195-1.391-3.4-3.042-3.279-.673.051-1.229.792-1.783,1.136a14.293,14.293,0,0,0-1.574,1.006c-.612.487-1.11.98-1.68,1.009-1.317.067-2.435-1.175-3.566-.882-.381.1-.7.509-1.155,1.01-.016.735.183,1.206.106,2.014-.342.71-1.357.666-2.1,1.137a15.721,15.721,0,0,0-2.939,3.151,4.357,4.357,0,0,0-1.155,1.764c-.056.417.294,1.207.212,1.767a5.87,5.87,0,0,1-1.68,2.394c-.371.306-.864.347-1.259.63-.826.589-1.2,1.357-1.888,1.513-1.834.41-5.167-.443-5.141,1.891.016,1.559,1.768,1.566,2.833,1.512,1.483-.07,2.744.379,3.566.127.567-.172,1.187-.936,1.783-1.26.376-.2.766-.207,1.049-.379.629-.379.983-.994,1.471-1.261a11.263,11.263,0,0,1,3.776-1.009c1.414-.1,2.893.175,4.721,0,.652-.061,1.3-.564,1.995-.631,1.142-.108,2.644.542,3.566.506.639-.025,1.352-.77,2.1-.758a2.159,2.159,0,0,1,1.888,1.389c.088.369-.177.958-.105,1.513.122.916.776,1.294.736,1.89-.056.79-1.693,1.843-1.47,2.773.145.6,1.319,1.222,1.889,1.639a6.255,6.255,0,0,0,2.307,1.134c.594.08,1.119-.2,1.68-.124a7.373,7.373,0,0,1,2.939,1.26c.986.834.848,2.171,1.992,2.646.488.2,1.367.089,1.993.255,1.528.4,2.662,1.919,3.778,1.763,1.757-.245.956-2.235,1.155-3.655.448-3.218,5.681-3.072,6.714-.885.766.245,1.436.038,2.308.379.5.2.879.859,1.364,1.01a13.443,13.443,0,0,0,1.364,0c2.012.273,3.834,2.072,5.562,1.763,1.1-.194,1.891-1.432,2.936-1.512,2.008-.15,3.292,1.8,5.458.882,1.592-.672,1.237-2.655,1.783-4.665C410.354,148.779,411.084,147.827,411.127,146.774Zm113.106-42.99a5.125,5.125,0,0,0-1.049-4.286c-1.211.252-.337,1.765-.419,2.649-.119,1.252-1.224,2.121-1.155,3.4-.4.566-1.092.789-1.153,1.763.668.555.959-.436,1.468-1.009C522.728,105.4,523.955,104.866,524.233,103.784ZM496.744,60.04a3.633,3.633,0,0,0-2.308,1.009c-.394.251-1.2.391-.943,1.133C494.5,62.036,496.5,61.488,496.744,60.04ZM452.468,75.546c2.467.691,3.624-2.655,1.992-4.539-.382-.44-1.669-.612-2.2-1.637-.642-1.232-.553-2.878-2.1-2.521-.016.146.019.356-.107.376-.144,2.756,3.2,3.45,3.148,5.672C453.178,74.063,452.153,74.187,452.468,75.546Z"/><path class="a" d="M417.947,70.756c-.3-1.364,1.847-1.144,1.47.127A1,1,0,0,1,417.947,70.756Z"/><path class="a" d="M405.044,146.143c.048-1.041,2.024-1.423,2.411-.5C407.325,146.653,405.45,147.35,405.044,146.143Z"/><path class="a" d="M369.056,139.337c1.094-1.063,3.528-.344,5.037-.379-.284.965-.327,2.216-.946,2.773C371.427,141.358,369.824,140.849,369.056,139.337Z"/><path class="a" d="M361.4,132.655c1.441-1.809,2.954-.853,2.413,2.646-.344,1.043-1.843,2.438-2.52.884A15.746,15.746,0,0,0,361.4,132.655Z"/><path class="a" d="M363.494,128.622a1.785,1.785,0,0,1-.734,1.891C361.377,130.219,362.429,127.236,363.494,128.622Z"/><path class="a" d="M343.141,103.03a2.258,2.258,0,0,0-.946-2.019c-.345-.233-.872-.124-1.259-.379-1.023-.675-1.394-2.082-1.992-2.394.077-1.382-.316-2.381,0-3.279a6.707,6.707,0,0,1,2.308-2.394c.916-.388,1.875-.041,2.413-.881a.6.6,0,0,1,.525.124c-.005.795-.562.926-.631,1.639.13,1.146,1.81.43,1.992,1.512-.158,1.178-1.041,1.41-1.048,2.27,0,.748,1.272,2.168,1.889,3.152.46.729,1.266,1.27,1.68,2.018.359.653.439,1.429.733,1.764.551.627,1.8.732,1.89,1.639.121,1.2-1.246,1.678-1.05,3.024-1.441,1.36-3.844.656-6.192,1.01-1.062.162-2.233,1.432-3.357.378-.26-.846.933-.961,1.049-1.763-.081-.745-.866-.64-1.049-1.261.3-.98,1.256-1.181,1.156-2.649C341.837,103.774,342.963,104.064,343.141,103.03Z"/><path class="a" d="M335.272,100c1.4-1.029,3.849-.242,3.984,1.009.1.946-.744,1.082-1.049,2.143-.273.964.053,2.11-.313,2.776-.32.575-1.192.541-1.785.754-1.32.474-3.869,2.337-4.931.251.153-1.117,1.054-1.34,1.365-2.266.018-.729-.628-1.114-.525-1.891.127-.952.724-.624,1.574-1.009C334.209,101.486,334.474,100.588,335.272,100Z"/><path class="a" d="M263.609,72.646c.221,1.121-2.76,2.585-3.044,1.137C260.34,72.624,262.849,71.175,263.609,72.646Z"/><path class="a" d="M260.147,356.8h-1.574A2.082,2.082,0,0,1,260.147,356.8Z"/><path class="a" d="M255.425,63.7a.445.445,0,0,1,.631,0c-.1.3-.186.618-.631.5Z"/><path class="a" d="M246.088,83.74c.021.695-2.085,1.844-2.311.5a1.073,1.073,0,0,1,.422-1.006C244.758,82.824,246.067,83.059,246.088,83.74Z"/><path class="a" d="M202.44,200.855c-.056.188-.156.318-.21.506C201.115,201.313,202.122,199.6,202.44,200.855Z"/><path class="a" d="M159.841,112.736c.736-.516,1.441.776.946,1.387C159.976,114.312,159.769,113.2,159.841,112.736Z"/><path class="a" d="M274.2,117.4c-.49-.147-1.157-.118-1.783-.252-.536-.115-1.172-.305-1.677-.379-1.3-.185-2.7.268-3.463-.63a38.71,38.71,0,0,1,4.512-5.673c.476-.512,1.5-.863,1.258-1.891-.892-.942-1.989.057-2.832.63a9,9,0,0,1-2.938,1.64c-1.736.309-4.038-.612-5.456.5-.2.953,1.614.583,1.363,2.019a1.813,1.813,0,0,1-1.887-.379c-.488-.528-.209-1.321-.525-1.64-.538-.534-2.56-.681-3.463-.5a2.605,2.605,0,0,0-2.2,2.142c1.325.745,3.508-.767,3.987,1.136-.725,1.57-2.435,2.433-2.2,4.537a2.73,2.73,0,0,0,1.471,2.019c.579.121.906-.57,1.468-.506.593.067.458.881,1.154.757,1.01-.519,1.569-2.222,2.727-2.142,1.389,2.025-1.253,3.011-2.727,3.654-1.68.732-3.863,1.121-5.142,1.767-.671.338-3.209,3.285-3.566,1.006-.258-1.643,1.255-1.168,1.573-2.522-1.624-.378-3.137.841-4.615,1.516-2.109.959-5.683,1.567-6.192,4.413-.1.569.207,1.636-.1,2.015-.252.305-1.757.359-2.415.63-1.011.417-1.894,1.308-2.519,1.512-.472.156-1.169.112-1.468.255-.834.388-1.142,1.744-2.1,2.645-.392.37-1.261.637-1.574,1.01-.542.649-.614,2.276-1.573,2.52-.609.065-1.1-.55-1.68-.126-.069,1.607.471,3.794-.1,5.421a28.608,28.608,0,0,1-4.2,3.152c-.881.6-1.667.748-2.73,1.387-.752.453-1.441,1.529-2.308,2.143-2,1.417-4.422,3.094-4.406,6.683,0,.776.337,1.613.419,2.521.05.534-.053,1.057,0,1.64.125,1.317.919,2.995,0,3.9-1.413-.7-3.209-.933-4.2-2.142-.27-1.246.546-2.27.421-3.4-.1-.911-1.166-2.532-1.785-2.649-.639-.122-1.227.694-1.887.63-.784-.073-1.513-1.372-2.52-1.512-1.476-.207-2.562.4-4.2.127-1.582,1.016-2.045,2.824-3.985,2.645-.683-.06-1.308-.686-2.1-.881a11.082,11.082,0,0,0-3.044-.5c-1.786.143-3.082,1.687-4.615,2.645-1.355.847-3.27,1.9-3.673,3.659-.22.945-.035,2.276-.315,3.151a16.086,16.086,0,0,1-.841,1.636,14.889,14.889,0,0,0-1.257,9.71,24.446,24.446,0,0,0,1.782,4.285,5.49,5.49,0,0,0,3.042,1.764,11.484,11.484,0,0,0,2.414-.63,19.707,19.707,0,0,0,2.729-.5c2.268-.872,1.82-4.559,4.091-5.8a9.19,9.19,0,0,1,3.881-.755,3.163,3.163,0,0,1,.737,2.394,17.479,17.479,0,0,1-.84,2.143c-.238.806-.289,1.748-.524,2.4-.313.85-1.01,1.471-1.259,2.27-.165.519-.074,1.165-.21,1.636-.241.831-1.165,1.417-.736,2.27,2.247,1.073,4.965-.306,6.926.128.826.181,2.532,1.369,2.517,2.9-.011,1.146-.737,1.9-.84,3.151-.127,1.579-.676,3.512-.734,4.789-.092,2.091,2.554,5.7,4.406,5.672,2-.031,3.159-2.384,5.562-1.133.8.414,1.64,1.967,2.519,1.891.726-.064,1.823-1.591,2.308-2.649.591-1.289.633-2.375,1.677-3.024,1.126-.7,2.022-.363,3.463-1.009a8.171,8.171,0,0,0,1.783-1.261c.509-.42,1.044-1.521,1.68-.757.838,1.006-1.025,1.572-.315,2.648,1.454.927,2.2-1.722,3.254-1.764a7,7,0,0,1,2.1,1.261c.818.647,1.1,1.553,1.992,1.764.575.137,1.5-.264,2.308-.128,1.071.185,1.709,1.289,2.519,1.261.989-.032,1.463-1.324,2.309-1.512,1.852-.408,2.54.249,3.357,1.64.914.191.945-1.271,1.783-.755-.459,1.1.156,1.6.524,2.521.239.589.2,1.006.422,1.261.5.573,1.467.573,2.2,1.134.774.585,1.211,1.674,2.1,2.9.915,1.255,2.451,2.554,3.673,2.646,1.152.09,2.09-.392,3.044-.251,2.17.321,3.519,1.623,5.037,3.027.848.783,1.614,1.328,1.886,2.267.191.655.1,1.534.316,2.27.464,1.569,2.369,2.327,1.68,5.042.315.8,1.022,1.082,1.783,1.639.609.449,1.123,1.385,1.783,1.513.426.083.89-.154,1.258-.128a8.665,8.665,0,0,1,3.045,1.137,10.918,10.918,0,0,1,1.889.761c.532.429.6,1.881,1.258,2.264.429.25,1.384-.1,2.1,0,1.127.159,2.656.986,3.673,1.012.617.015,1.129-.307,1.677-.255,2.57.239,4.027,3.932,6.508,5.043.768.347,1.987.1,2.516.379.93.483,1.715,3.9,1.784,5.417.212,4.582-2.716,6.052-4.406,9.08-.353.634-.549,1.636-1.05,2.521-1.007,1.78-2.127,2.15-1.992,5.422.037.9.418,1.773.418,2.773a21.628,21.628,0,0,1-.315,3.908c-.172.836-.747,1.513-.84,2.271s.189,1.362.106,2.018a12.956,12.956,0,0,1-1.155,2.77c-.97,2.152-1.182,4.683-3.148,5.546-1.155.509-2.721.225-3.985.757-.511.217-1.157.783-1.785,1.133-1.825,1.022-4.428,2.4-4.931,4.665-.448,2.018.625,3.625.315,5.927a20.832,20.832,0,0,1-1.258,2.142c-.453.717-.679,1.557-1.156,2.271-.63.948-1.61,1.369-1.992,2.648-.13.433-.048.948-.209,1.637-.061.254-.448.648-.631,1.133-.169.448-.161,1.022-.315,1.391-.48,1.162-1.9,3.808-2.939,4.16-2.178.733-4.475-1.111-5.98-.761.217,1.265.981,1.133,1.471,2.019a14.712,14.712,0,0,0,.838,1.765c.471.655.887.9.945,1.638a4.791,4.791,0,0,1-1.574,3.657,8.367,8.367,0,0,1-3.044,1.007c-.777.156-2.779.165-3.148.761-.54.876.286,3.037-.1,3.906-.784,1.844-2.893-.05-3.987.5a2.64,2.64,0,0,0,.839,2.393c.66.466,1.661-.139,2.1.759-.215,1.254-1.338,1.416-1.574,2.649.029,1.2.336,1.518.209,2.266-.273,1.62-2.369,1.553-2.308,3.28.091,2.581,4.123,1.524,4.2,4.036.043,1.521-1.155,1.538-1.574,3.022-.225.794.13.979,0,1.638-.174.895-1.049,1.153-1.049,2.143,0,1.206,1.468,2.534,2.2,3.53a13.087,13.087,0,0,0,2.623,3.028c1.474.977,3.667.757,4.3,2.521-.2,1.06-1.052,1.344-1.889,1.636h-.209a2.082,2.082,0,0,0-1.574,0h-1.468c-1.4-.776-3.108-1.28-4.827-2.014-.621-.265-1.32-.895-1.993-1.257-.506-.279-1.076-.386-1.47-.635-.9-.569-1.921-2.416-2.833-3.149-.554-.448-1.423-.684-1.783-1.139a19.285,19.285,0,0,1-.84-1.887c-.339-.58-.962-1-1.365-1.64-.871-1.392-1.984-3.264-1.992-4.288s.8-1.694.524-2.643c-.256-.894-1.867-.7-2.1-1.769-.14-.644.463-1.729.419-2.644-.024-.531-.851-1.254-.524-2.021.375-.882,1.086.073,1.679-.376-.445-1.82.035-4.749-1.47-5.3-.774.783.789,2.544-.525,3.028-1.269-.678-.975-2.686-1.259-4.16a18.677,18.677,0,0,1-.628-2.9c-.021-.552.18-1.191.1-1.762-.223-1.7-1.8-3.091-1.89-4.794a15.281,15.281,0,0,1,.525-2.394c.075-.6-.069-1.263,0-1.891.093-.8.462-1.538.525-2.269a23.851,23.851,0,0,0-.209-4.919c-.26-1.455-1.222-2.693-1.365-4.282-.05-.576.159-1.534.106-2.27-.05-.684-.363-1.363-.418-2.146a17.259,17.259,0,0,1,.209-2.269c.111-1.582-.257-3.346-.209-4.918.012-.462.214-.806.209-1.259-.014-1.3-.374-2.613-.421-3.908-.083-2.394.22-4.091-.1-6.3a25.74,25.74,0,0,0-1.05-5.292,14.736,14.736,0,0,0-3.882-3.913c-.734-.489-1.613-.658-2.413-1.133-1.709-1.005-5.022-3.135-5.771-5.166-.217-.59-.188-1.367-.421-2.019a27.217,27.217,0,0,0-2.1-3.657c-1.295-2.38-2.342-5.361-3.672-7.816a32.56,32.56,0,0,0-1.992-3.655c-.432-.585-1.815-1.133-1.993-2.019-.236-1.164-.953-2.765-.84-3.654.151-1.207,2.1-2.181,2.1-3.276,0-.936-1.042-1.479-1.259-2.269-.53-1.929.31-3.06.943-4.668.209-.525.414-1.374.631-1.763.384-.694,1.166-.889,1.677-1.64.286-.42.466-1.3.84-1.891.8-1.273,2.085-1.75,2.414-2.9a28.822,28.822,0,0,0,.1-7.185,26.58,26.58,0,0,0-1.153-2.522c-.473-1.521-.584-3.183-1.888-3.151-.806.019-1.373,1.089-1.89,1.764-.124.9-.058,1.869-.839,2.143-1.193.423-1.651-1.51-3.042-2.016-.554-.2-1.436-.192-1.783-.378-1.015-.549-1.344-2.334-2.414-3.028-.9-.577-1.662-.376-2.2-1.261a11.884,11.884,0,0,1-.1-2.521c-1.15-.809-2.125-3.823-3.463-4.537-.887-.474-2.247-.429-3.357-.882a11.518,11.518,0,0,0-1.471-.63,7.571,7.571,0,0,1-1.886-.506c-2.077-1.238-3.2-5.253-5.77-5.167-1.1.035-2.154,1.267-3.148,1.261s-2.644-.949-3.884-1.639c-1.288-.72-2.713-1.111-3.776-1.765-.858-.528-1.454-1.492-2.2-1.894-.575-.3-1.415-.359-1.886-.626a21.216,21.216,0,0,1-2.205-1.9,4.246,4.246,0,0,1-1.68-2.518c-.035-.987.755-1.828.84-2.776.27-3-1.571-5.161-2.729-6.933-.858-1.318-1.865-2.436-2.726-3.655a11.053,11.053,0,0,0,0-1.764,24.917,24.917,0,0,1-1.889-3.028c-.623-1.028-1.837-2.123-1.993-3.276-.193-1.415.448-2.66,0-4.036-.747-2.283-3.383-1.251-3.044,1.766.1.832,1.07,1.95,1.364,2.774.3.84.244,1.888.525,2.9.27.971,1.084,1.808,1.364,2.9.445,1.726.432,3.585.84,4.664.361.958,1.688,1.866.944,3.024-.994.248-1.376-.945-1.993-1.639-.345-.386-1.592-1.118-1.783-2.015-.159-.743.392-1.742.209-2.649-.36-1.779-3.349-1.824-3.36-3.655-.005-1.149,1.251-1.286,1.262-2.4.008-1.216-1.38-2.244-1.68-3.275a22.461,22.461,0,0,1-.418-3.783,28.051,28.051,0,0,0-.213-3.658,5.621,5.621,0,0,0-1.992-2.521c-.92-.614-1.648-.36-2.1-1.26a12,12,0,0,1-.734-3.276c-.152-1.516-.035-3.174-.106-4.792a29.217,29.217,0,0,1,0-4.915c.519-1.22,1.465-1.821,1.995-3.027.368-.841.421-1.879.837-2.773.768-1.646,2.443-3.167,3.569-4.791a23.051,23.051,0,0,0,3.042-5.422,9.34,9.34,0,0,0,.839-3.152c-.138-1.212-2.04-2.212-1.889-3.654.1-.9,1.156-.882,1.471-1.764a10.641,10.641,0,0,0,.315-2.27c.016-1.216-.519-2.483-.315-3.781.172-1.109,1.544-1.558.84-2.773s-1.956.649-2.73-.128c-.709-.716.144-1.582.21-2.9.026-.525-.255-1.124-.21-1.512.064-.564.978-1.512.735-1.892-.567-.862-1.2-3.052-2.414-3.781-1.539-.929-3.206-.3-5.349-.758-1.315-.277-1.937-1.754-3.148-1.636-.747.07-1.176,1.1-2.2,1.636s-2.348.353-3.358.63-1.483,1.108-2.519,1.009c-.864-.079-.869-1.015-1.887-1.133a14.039,14.039,0,0,0-1.783.379,20.335,20.335,0,0,1-6.192-.127,16.231,16.231,0,0,1-4.091-1.891c-1.248-.695-3.563-1.551-3.463-2.649.064-.707,2.194-1.455,3.042-1.764,1.367-.5,2.21-1.308,3.254-1.388.4-.028.932.3,1.468.255s1.2-.643,1.889-.757c1.465-.246,3.531.089,3.356-1.64-1.112-1.057-5.651.783-5.77-1.512-.072-1.388,1.722-1.808,3.044-2.142a17.106,17.106,0,0,1,4.091-.758c1.2.073,2.774,1.683,3.463-.125.334-1.285-.408-2.364-.631-3.406.891-1.477,2.53-1.292,3.779-1.511a13.389,13.389,0,0,0,3.987-1.261,13.323,13.323,0,0,1,3.985-1.261c1.426-.223,2.809-.869,4.094-1.009a24.629,24.629,0,0,0,3.041-.252,10.4,10.4,0,0,1,2.835-.755c.66.036,1.225.615,1.887.755.622.131,1.335-.038,1.995.128.506.127.962.538,1.468.629.795.144,1.648-.133,2.413,0,.705.122,1.3.65,1.993.756,1.616.251,3.466-.1,5.037.254.6.134,1.134.487,1.783.63.615.134,1.29-.019,1.889.125.835.2,1.531,1.149,2.414,1.261,1.624.2,3.446-.848,5.14-1.01a24.983,24.983,0,0,0,3.778-.251,20.8,20.8,0,0,1,3.357-.882c.572-.029,1.052.21,1.574.127.543-.089,1.2-.872,1.783-.758.781.15.644,1.337,1.471,1.64.914-.57,1.825.038,2.831,0,.981-.042,1.858-.582,2.939-.379,1.91.36,4.578,2.608,6.083,1.387.38-.308.289-.84.631-1.639.464-1.085,1.377-2.361,1.155-3.909-2.1.041-4.112,1.277-6.507,1.388-2.419-1.821.647-2.951,2.414-3.782,1.456-.688,2.61-2.213,4.409-2.521,1.467-.255,3.081.389,4.825.63a25.387,25.387,0,0,1,2.622.124c1.031.373,1.561,1.6,2.414,1.891.368.128.973.115,1.468.255.943.261,1.788.86,2.729,0,.739.159.827,1.1,1.574,1.261.7-.452,1.235-1.6,2.307-1.891.467-.128.957.1,1.468,0,.856-.165,2-1.557,2.52-.255-.215.91-1.359,1.047-1.995,1.767a5.548,5.548,0,0,0-1.362,2.773c.124,1.2,1.624.738,1.677,2.269-.223.882-1.075.488-1.783.882-.647.36-.888,1.1-1.574,1.261-1.908.432-3.49-.576-5.14-.5-.077.86.816,1.36,1.258,1.637,1.5.946,2.716.815,4.825.758,1.082-.029,2.324.388,3.254-.379.588-.483.556-1.55,1.049-2.142a3.654,3.654,0,0,1,2.833-1.261A1.715,1.715,0,0,1,236.33,70.5c.016,1.145-1.349.78-1.364,2.018.887.64,3.232-.7,3.357-1.766.089-.778-.764-1.227-.735-2.016.051-1.321,1.545-1.3,1.365-2.649-.721-.681-1.473.147-2.205,0-1.031-.207-1.958-1.69-2.414-2.649.456-.677,1.41-.226,2.1-.124.771-1.282,2.207-1.782,4.2-2.018.708-.083,1.651-.42,1.995.378.169,1.195-1.47,1.911-1.155,3.28,1.412.423,1.876-1.866,3.044-2.776a10.463,10.463,0,0,1,1.992-1.006c.647-.3,1.36-1.028,1.889-1.009.581.019.684.592,1.259.882.517.26,1.193-.179,1.365.629-1.217,2.532-5.749,1.077-6.926,3.656.262,1.728-.71,3.377.106,4.539.583.828,1.9.265,2.2,1.134.41,1.161-1.272,1.161-.837,2.521,1.109.8,2.432-.762,3.46-1.385,1.1-.672,2.5-1.464,2.622-3.028-.553-1.279-2.619-.289-2.935-1.636a5.246,5.246,0,0,1,.837-2.649c1.1-1.474,4.916-3.572,7.66-3.278.522.057,1.05.439,1.574.506,1.8.222,3.935-.936,5.352,0,1.14-.8,2.507.108,4.091-.128,1.222.866.885,2.71,2.729,3.531.5.222,1.126.064,1.783.251.487.14,1.015.828,1.574,1.137.795.433,1.4.334,1.573,1.006s-.577,1.086-.524,1.767c.453.448.074,1.124.315,1.764.453,1.167,1.6,1.082,2.726,1.639.8.391,2.491,1.591,2.415,2.521-.051.624-1.593,1.719-2.1,2.019-.357.209-2.127,1.238-2.727,1.133-.99-.175-1.377-2.585-2.728-2.522a1.244,1.244,0,0,0-1.155,1.389c-.022,1.655,1.542,1.718,1.573,3.152.043,1.712-.779,1.829-1.992,2.9a7.641,7.641,0,0,0-2.729-1.133c-.671.958,1.1,1.3.525,2.521-1.686.43-2.971-.573-4.51-1.133-.482-.175-1.176-.1-1.574-.379-.6-.414-.771-1.639-1.261-2.27-.567-.732-1.7-1.77-2.623-1.764-1.3,0-3.172,1.94-4.2.124.71-2.887,4.075-.744,6.3-1.763.827-.379,1.111-1.429,1.786-1.892,1.356-.929,3.562-1.059,3.357-2.9-.1-.927-1.182-.914-1.783-1.388-.821-.643-1.449-2.913-2.623-3.024-.6-.058-1.039.557-1.68.63-1.357.152-2.866-.656-4.09,0-.571.392-.186,1.019-.631,1.764-.366.611-1.229.783-1.574,1.388-.4.709-.321,1.592-.84,2.142-.861.917-2.684,1.063-3.776,1.512-.487.2-1.1.888-1.574.885-.866-.007-1.237-1.4-2.2-.885-.085,1.35,1.187,1.9,1.993,2.521a4.917,4.917,0,0,1,2.1,2.522c-.854,2.177-2.215-.115-3.567-.124-1.488-.013-3.661,3.406-4.93.63.315-1.471,1.664-1.7,1.992-3.152-1.481.3-2.771,1.8-4.512,2.271-.731.193-1.444.146-2.1.375-1.256.443-2.133,1.557-3.46,2.146-.52.229-1.139.159-1.68.375a26.154,26.154,0,0,0-4.091,2.27,23.222,23.222,0,0,0-3.672,2.649,7.064,7.064,0,0,0-1.574,2.645c.053.751,1.229,1,1.258,1.767-.026.464-.681,1.468-.209,2.142.429.615,1.29.118,2.2.252,1.6.239,2.652,1.83,3.881,2.649a9.764,9.764,0,0,0,3.36,1.511c1.441.218,3.055-.505,3.251.883.191,1.333-1.357,1.811-1.468,2.649.776,1.231-.527,1.82-.525,2.9,0,.875.9,2.187,1.677,2.266,1.058.108,2.6-1.251,3.045-2.521.522-1.512.3-3.563,1.258-4.664,4.888.163,9.025-2.668,8.71-8.7a9.725,9.725,0,0,1-.21-2.019c.153-.974,1.547-1.792,1.362-3.024,1.37-.506,1.311-3.145,2.729-3.531,1.188-.321,2.53,1.01,4.091.882.508-.041,1.168-.589,1.68-.5,1.025.172,1.643,1.691,2.413,2.395.682.627,1.4.427,1.574,1.26-.2,1.413-1.03,1.449-.946,2.773a2.589,2.589,0,0,0,1.575,2.145,4.347,4.347,0,0,0,2.622-.757c1.4-.8,2.607-3.206,3.778-2.9.925.243,1.648,3.773,1.783,5.044.147,1.362-.153,2.4-.1,3.657.136,2.127,2.363,1.91,3.461,3.024.33.338.461,1.2.736,1.64.532.853,1.176.853,1.259,1.764.2,2.177-1.643,2.362-1.471,4.791-.379.942-1.335.885-1.258,2.142.122,1.99,2.5.465,3.148,2.018.349.835-.059,1.456-.316,2.646.813,1.166.808,3.024-.628,3.028C275.328,118.788,275.087,117.661,274.2,117.4Zm-113.418-3.277c.495-.611-.21-1.9-.946-1.387C159.769,113.2,159.976,114.312,160.787,114.123Zm73.235,11.471c-.437-.513-1.862-.366-2.835-.252-.686.084-1.5.259-1.574.882C230.705,126.826,233.68,127.259,234.022,125.594Zm-5.458-2.142a1.69,1.69,0,0,0-.419-2.649c-.344-.108-.8.305-1.364.254-.594-.054-1.187-.706-1.678-.757a2.307,2.307,0,0,0-1.994.882c-.032.754.461.875.421,1.639-1.02.875-.48,3.8.525,3.909,1.065.112,1.616-3.237,3.041-3.53C227.613,123.092,227.878,123.553,228.564,123.452Zm-1.468,5.043c-1.491-.638-2.869.432-4.091.629-.728.118-2.055-.178-1.889,1.134.135,1.069,1.511.681,2.308.379A9.459,9.459,0,0,0,227.1,128.495Zm-4.615-9.583c2.09-1.07-.414-4.364-1.365-4.665-1.7-.534-4.12,1.5-6.085,2.144-1.109.362-2.163.394-2.415,1.515.994,1.974,2.957-.433,4.407-.127.734.155,1.163,1.362,1.889,1.512A18.4,18.4,0,0,0,222.481,118.912Zm-1.471,2.018c-.434-.614-2.787.073-3.463.63a12.643,12.643,0,0,0-1.258,2.019c-.495.716-1.049,1.27-1.468,1.891-.379.56-2.5,4.243-.84,4.664.71.178,2.17-1.592,2.308-2.27a7.729,7.729,0,0,1,2.832-5.043C219.985,122.194,220.87,122.273,221.01,120.93ZM207.9,106.811c1.171-.051,1.964-4.208,0-3.657C206.581,103.523,206.263,106.882,207.9,106.811Zm-5.665,94.55c.054-.188.154-.318.21-.506C202.122,199.6,201.115,201.313,202.23,201.361ZM157.848,95.844c.024-.238-.119-.28-.1-.506-.321,0-.692-.073-.631.379C157.265,96.08,157.671,96.144,157.848,95.844ZM268.121,76.049c.517.076.808-.121.735-.754C268.389,74.9,267.709,75.418,268.121,76.049ZM256.056,63.7a.445.445,0,0,0-.631,0v.5C255.87,64.315,255.952,63.993,256.056,63.7ZM216.186,73.4c.349-.271.885-.638.628-1.261-1.159-.653-3.117-.156-4.825-.379-.97-1.646-2.591-1.9-2.729.758C211.212,74.425,214.169,71.633,216.186,73.4ZM197.4,86.389c.6-.248,1.423-.121,1.573-.885-.489-.471-.993-1.108-1.573-1.133-.76-.032-1.126.777-1.889,1.261-.888.563-2.117.7-2.2,1.639C194.936,87.653,196.4,86.8,197.4,86.389Zm-.525-9.079c.671-.137,1.359.226,1.786-.5-.5-2.776-3.7-1.08-5.561-.883a6.976,6.976,0,0,0-1.05,2.522C193.5,78.885,195.246,77.644,196.878,77.31Zm31.477,128.842c.83-.162.588-2.451-.419-1.894C227.176,204.681,227.57,206.3,228.355,206.152Z"/><path class="a" d="M157.745,95.338c-.016.226.127.268.1.506-.177.3-.583.236-.734-.127C157.053,95.265,157.424,95.335,157.745,95.338Z"/><path class="a" d="M154.6,102.778a2.406,2.406,0,0,1-1.471,1.512,2.948,2.948,0,0,1-.524-.631C152.647,102.463,154.064,101.581,154.6,102.778Z"/><g transform="translate(109 -0.001)"><path class="b" d="M243.268,191.224s-6.416,23.986-6.968,40.958l-.184,5.654s14.155,11.755,26.029,12.479l9.952-24.472Z"/><path class="b" d="M306.145,205.936c-2.706-11.7-3.745-25.316-13.474-32.944-7.219-5.66-15.445-7.239-24.61-6.855-4.514.189-9.61,2.271-13.541,4.5-5.39,3.051-7.673,9.239-10.274,14.86-5.21,11.262-4.549,26.511-1.021,30.75l47.059,24.851c9.4-4.891,15.284-6.838,16.786-19.364A45.9,45.9,0,0,0,306.145,205.936Z"/><path class="c" d="M291.653,182.289l-29.616-8.738c-9.541-1.391-16.374,10.155-17.359,19.746-1.093,10.655-2.008,23.707-1.056,31.726,1.914,16.126,14.117,18.649,14.117,18.649.006-.054.029.241-.067,5.006l-.313,7.719a13.377,13.377,0,0,0,2.607,8.737c4.368,5.659,12.329,6.415,21.716,2.942,5.441-2.014,9.224-6.062,9.64-11.579l5.149-68.292A5.641,5.641,0,0,0,291.653,182.289Z"/><path class="d" d="M257.739,243.672a40.8,40.8,0,0,0,21.688-4.88S273.68,249.8,257.7,247.667Z"/><path class="b" d="M262.452,171.823c-.028.116-.05.232-.076.348l.056.024C262.438,172.071,262.445,171.947,262.452,171.823Z"/><path class="b" d="M283.158,250.143c.453-4.2-1.238-8.424-.747-12.622.52-4.451,3.4-8.265,4.585-12.587,1.895-6.922-.705-14.282-1.657-21.436a16.982,16.982,0,0,1-10.424-6.018c-3.214-3.747-5.158-8.391-7.051-12.951a21.69,21.69,0,0,0,4.361,12.457,5.839,5.839,0,0,1-4.995-1.623,13.036,13.036,0,0,1-2.932-4.553,35.569,35.569,0,0,1-2.84-12.823,46.1,46.1,0,0,0,2.1,18.724,8.016,8.016,0,0,0-3.486.132,3.818,3.818,0,0,1-3.315-.7,4.164,4.164,0,0,1-.908-2.137,48.046,48.046,0,0,1-.532-16.314,49.741,49.741,0,0,0-3.677,9.04,17.525,17.525,0,0,0-.068,9.646,1.414,1.414,0,0,1-1.991-.012,3.372,3.372,0,0,1-.871-2.013,24.809,24.809,0,0,1,.528-8.12c-1.6,2.841-2.135,6.137-3.021,9.276s-2.3,6.358-5.026,8.146a42.738,42.738,0,0,1,.4-12.3c.539-3.361,2.133-6.694,3.6-9.763a29.02,29.02,0,0,1,6.5-9.046c4.723-4.137,6.7-2.355,9.712-.779l.357.149c.01-.073.014-.148.024-.222l.136-.642a45.243,45.243,0,0,1,23.825,1.115c5.686,1.853,12.68,7.7,15.574,12.932l.165.3c6.705,12.094,11.126,26.121,11.452,56.437h0Z"/><path class="b" d="M295.781,288.2a4.728,4.728,0,0,1,.032-1.208,19.994,19.994,0,0,1,.588-3.243,22.756,22.756,0,0,1,14.131-15.564,20.015,20.015,0,0,1,3.171-.9,4.72,4.72,0,0,1,1.2-.148c.022.1-1.687.356-4.236,1.389a23.657,23.657,0,0,0-13.91,15.321C295.973,286.491,295.881,288.217,295.781,288.2Z"/><path class="e" d="M225.524,375.98s-1.853,31.137,6.338,43.32l6.053-20.517V376.2Z"/><path class="f" d="M288.7,251.179s-17.245,13.036-25.643,11.563c-6.728-1.181-5.57-11.41-5.57-11.41l-3.271,7.066-7.049,28.225,2.983,13.282,16.022-9.889Z"/><path class="e" d="M229.829,307.558c1.811-18.624,24.21-50.886,24.21-50.886l3.541-5.726-3.531,15.82s-3.513,23.1-4.01,23.574l19.748-19.125,22.2-23.513,4.4,6.294,19.49,10.8-1.991,61.182L306.9,343.907s20.582,56.339,23.246,76.313l4.456,37.871-105.075-.168s3.691-59.237,4.1-71.879,1.322-40.636,1.322-40.636S228.017,326.181,229.829,307.558Z"/><path class="b" d="M334.6,458.091a1.776,1.776,0,0,1-.067-.343c-.036-.255-.084-.589-.145-1.012l-.508-3.9c-.422-3.42-1.026-8.313-1.771-14.346-.367-3.032-.768-6.35-1.2-9.91l-.663-5.522c-.223-1.9-.444-3.85-.806-5.823a258.07,258.07,0,0,0-6.661-25.348c-1.484-4.835-2.946-9.545-4.476-14.025s-3.007-8.784-4.4-12.848l-7.17-21.054-.021-.06.023-.058,4.619-11.535,1.258-3.076c.14-.329.251-.589.336-.79a1.285,1.285,0,0,1,.13-.263,1.388,1.388,0,0,1-.084.28c-.075.206-.171.472-.292.808-.279.737-.671,1.777-1.174,3.11l-4.474,11.591,0-.118c2,5.753,4.48,12.907,7.294,21.012,1.4,4.061,2.886,8.359,4.433,12.838s3.007,9.2,4.492,14.036a250.718,250.718,0,0,1,6.636,25.416c.359,2,.574,3.961.788,5.855s.431,3.742.637,5.524c.408,3.563.787,6.883,1.135,9.917.675,6.041,1.224,10.941,1.607,14.366.175,1.672.313,2.983.41,3.909l.094,1.018A1.735,1.735,0,0,1,334.6,458.091Z"/><g class="g"><path d="M318.445,377.42s-14.2,18.343-17.566,17.757-6.694-6.995-6.694-6.995l-3.7-1.724-3.62-6.6,7.819-6.988Z"/></g><path class="e" d="M250.8,261.381s-8.306,3.533-11.015,7.775-4.52,22.681-4.52,22.681l13.193-22.22Z"/><path class="c" d="M262.972,378.456l13.056-4.84,9.941-6.692,8.467,13.558-3.833,2.3s-.107,3.287-.119,3.681-1.3,3.643-11.826,3.433-12.981-5.556-12.981-5.556-5.469,6.272-7.738,7.251-4.411-1.986-4.411-1.986Z"/><path class="c" d="M234.762,351.214s-4.97,5.214-6.178,9.3-.507,15.571-.507,15.571l1.432.047s-.029,7.524,2.077,7.772,4.11.313,4.221-3.088a60.186,60.186,0,0,0-.95-9.348Z"/><path class="b" d="M244.82,458.091a2.723,2.723,0,0,1-.033-.436l-.046-1.278c-.029-1.15-.072-2.8-.126-4.915-.087-4.3-.212-10.465-.366-18.078-.26-15.287-.617-36.363-1.012-59.643-.754-23.29-.884-44.417.392-59.661a70.729,70.729,0,0,1,3.715-17.68c.351-1.011.712-1.889,1.045-2.642.313-.761.6-1.394.864-1.893l.574-1.144a2.656,2.656,0,0,1,.212-.381,2.782,2.782,0,0,1-.164.4l-.527,1.164c-.245.505-.519,1.143-.816,1.909-.317.757-.662,1.638-1,2.65A72.621,72.621,0,0,0,244,314.115c-1.18,15.208-.992,36.331-.238,59.61.335,23.284.639,44.364.859,59.653.085,7.615.153,13.786.2,18.082.012,2.114.021,3.766.028,4.916,0,.543,0,.967-.006,1.279A2.647,2.647,0,0,1,244.82,458.091Z"/><path class="b" d="M281.521,435.779a2.2,2.2,0,0,1-.515-.176,13.938,13.938,0,0,1-1.426-.631,21.808,21.808,0,0,1-4.744-3.219,27.987,27.987,0,0,1-5.423-6.55,35.335,35.335,0,0,1-3.981-9.622,61.29,61.29,0,0,1-1.179-18.812c.171-2.41.375-4.353.533-5.693.08-.622.146-1.131.2-1.542a2.226,2.226,0,0,1,.1-.534,2.1,2.1,0,0,1,0,.544c-.027.413-.06.926-.1,1.551-.1,1.345-.244,3.291-.367,5.7a64.72,64.72,0,0,0,1.317,18.665,35.828,35.828,0,0,0,3.886,9.5,26.649,26.649,0,0,0,11.7,10.824Z"/><path class="b" d="M250.8,261.381a4.1,4.1,0,0,1-.021.676c-.034.482-.081,1.131-.141,1.954-.145,1.747-.352,4.226-.611,7.333l-.007.08-.071.041-2.239,1.283.087-.161c.377,5.138.858,11.678,1.4,19.086l-.323-.211,17.74-6.414,5.668-2.041-.168.28q-.422-2.913-.826-5.714l-.06-.415.395.14,6.754,2.4-.278.089c5.32-7.562,9.859-14.012,13.1-18.611,1.6-2.248,2.881-4.041,3.786-5.309l1.024-1.4a3.369,3.369,0,0,1,.376-.469,3.462,3.462,0,0,1-.308.511c-.239.358-.557.837-.959,1.442l-3.671,5.384L278.5,280.063l-.1.15-.174-.061-6.763-2.377.335-.275q.41,2.8.837,5.712l.031.209-.2.072-5.668,2.045-17.752,6.379-.3.109-.021-.319c-.49-7.412-.922-13.955-1.262-19.1l-.007-.109.094-.052L249.8,271.2l-.078.12c.32-3.1.575-5.576.755-7.32.093-.819.167-1.466.222-1.946A3.979,3.979,0,0,1,250.8,261.381Z"/><path class="b" d="M234.857,371.464a2.355,2.355,0,0,1-.036-.468c-.01-.343-.023-.8-.039-1.367-.02-1.237-.049-2.986-.085-5.2-.043-4.52-.1-10.92-.178-18.616l.009.061c-1.176-4.1-2.225-8.652-3.234-13.525-.5-2.436-.979-4.954-1.439-7.536a51.6,51.6,0,0,1-.92-8.007,53.8,53.8,0,0,1,3.62-21.069l-.007.019a96.969,96.969,0,0,1,5.554-12.517c1.881-3.652,3.659-6.8,5.163-9.377s2.744-4.6,3.614-5.963l1.007-1.556a3.851,3.851,0,0,1,.371-.52,4.029,4.029,0,0,1-.3.563l-.942,1.594c-.827,1.391-2.025,3.429-3.494,6.027s-3.208,5.757-5.056,9.415A99.2,99.2,0,0,0,233,295.912v0l-.006.017a53.853,53.853,0,0,0-3.54,20.861,51.411,51.411,0,0,0,.906,7.934c.456,2.579.926,5.094,1.422,7.527.992,4.863,2.022,9.42,3.165,13.5l.009.032v.03c0,7.7,0,14.1-.006,18.617-.016,2.21-.028,3.959-.037,5.2-.011.572-.02,1.025-.026,1.367A2.529,2.529,0,0,1,234.857,371.464Z"/><g class="g"><path d="M313.083,330.781c-10.873-7.769-17.382-21.32-17.559-34.681Z"/></g><path class="e" d="M308.2,261.31s9.282,1.809,12.94,9.763,27.917,68.1,28.382,72.337S348,353,343.01,358.264s-42.616,31.76-42.616,31.76L284.069,363.88,317.3,339.951l-21.653-44.7S297.243,264.57,308.2,261.31Z"/><path class="b" d="M331.154,345.917a58.277,58.277,0,0,0-6.174-3.732,58.375,58.375,0,0,0-6.791-2.437,6.786,6.786,0,0,1,2.125.274,23.389,23.389,0,0,1,9.287,4.419A6.816,6.816,0,0,1,331.154,345.917Z"/><path class="b" d="M329.916,336.433a50.2,50.2,0,0,0-6,.936,50.477,50.477,0,0,0-5.679,2.161,16.4,16.4,0,0,1,11.681-3.1Z"/><path class="b" d="M343.01,358.264a1.69,1.69,0,0,1,.215-.268l.67-.748a14.12,14.12,0,0,0,1.054-1.242,19.111,19.111,0,0,0,1.311-1.792,18.365,18.365,0,0,0,2.559-5.477,14.423,14.423,0,0,0,.549-3.726,9.322,9.322,0,0,0-.733-4.114c-4.349-11.213-10.339-26.655-16.954-43.711-2.582-6.239-5.074-12.259-7.416-17.919q-1.755-4.242-3.389-8.2a17.014,17.014,0,0,0-5.131-6.1l.021.013L297.05,254.51l-.023-.013-.015-.021-3.763-5.014-.957-1.3a3.4,3.4,0,0,1-.307-.456,3.383,3.383,0,0,1,.36.415l1.008,1.265,3.858,4.942-.039-.033,18.8,10.316.014.007.008.007a17.388,17.388,0,0,1,5.307,6.258l3.417,8.194c2.35,5.659,4.851,11.68,7.441,17.92,6.645,17.065,12.533,32.566,16.817,43.777a9.662,9.662,0,0,1,.719,4.247,14.727,14.727,0,0,1-.6,3.8,18.245,18.245,0,0,1-2.672,5.511,17.99,17.99,0,0,1-1.359,1.777,13.007,13.007,0,0,1-1.1,1.215l-.709.715A1.591,1.591,0,0,1,343.01,358.264Z"/><path class="b" d="M319.316,376.489a2.169,2.169,0,0,1-.319.263l-.967.725-3.746,2.742-13.779,9.96-.165.119-.108-.173-16.377-26.111-.125-.2.191-.138,14.964-10.787,18.266-13.139-.077.311c-6.433-13.041-11.962-24.252-15.9-32.232l-4.55-9.326q-.766-1.6-1.2-2.5c-.123-.268-.221-.482-.3-.648a1.112,1.112,0,0,1-.089-.227.994.994,0,0,1,.127.207l.336.631q.453.877,1.267,2.461c1.1,2.184,2.689,5.324,4.679,9.262,3.977,7.96,9.565,19.142,16.065,32.149l.094.188-.171.123-18.251,13.159-14.973,10.773.066-.337,16.274,26.176-.273-.055,13.878-9.822,3.8-2.658,1-.682A2.43,2.43,0,0,1,319.316,376.489Z"/><path class="b" d="M295.781,288.2a4.728,4.728,0,0,1,.032-1.208,19.994,19.994,0,0,1,.588-3.243,22.756,22.756,0,0,1,14.131-15.564,20.015,20.015,0,0,1,3.171-.9,4.72,4.72,0,0,1,1.2-.148c.022.1-1.687.356-4.236,1.389a23.657,23.657,0,0,0-13.91,15.321C295.973,286.491,295.881,288.217,295.781,288.2Z"/><path class="b" d="M319.316,376.489a2.169,2.169,0,0,1-.319.263l-.967.725-3.746,2.742-13.779,9.96-.165.119-.108-.173-16.377-26.111-.125-.2.191-.138,14.964-10.787,18.266-13.139-.077.311c-6.433-13.041-11.962-24.252-15.9-32.232l-4.55-9.326q-.766-1.6-1.2-2.5c-.123-.268-.221-.482-.3-.648a1.112,1.112,0,0,1-.089-.227.994.994,0,0,1,.127.207l.336.631q.453.877,1.267,2.461c1.1,2.184,2.689,5.324,4.679,9.262,3.977,7.96,9.565,19.142,16.065,32.149l.094.188-.171.123-18.251,13.159-14.973,10.773.066-.337,16.274,26.176-.273-.055,13.878-9.822,3.8-2.658,1-.682A2.43,2.43,0,0,1,319.316,376.489Z"/><g class="g"><path d="M278.3,279.924l-5.54-.18,1.156,5.6-24.957,6.341,23.414-8.44-.832-5.713Z"/></g><path class="b" d="M229.527,457.923a4.568,4.568,0,0,1,0-.77c.022-.549.051-1.285.088-2.212.1-1.971.241-4.749.415-8.182.4-6.982.954-16.621,1.576-27.475l.053.173a18.273,18.273,0,0,1-2.305-4.285,55.16,55.16,0,0,1-2.917-12.339c-.534-3.976-.813-7.731-.977-11.148-.316-6.837-.2-12.325-.041-15.709l.005-.109.107.006,2.962.161.762.056a.859.859,0,0,1,.257.038.927.927,0,0,1-.259.019h-.764l-2.966-.058.112-.1c-.068,3.378-.108,8.861.26,15.678.191,3.406.49,7.148,1.036,11.1a55.516,55.516,0,0,0,2.907,12.214,17.834,17.834,0,0,0,2.233,4.164l.058.077-.006.1c-.689,10.85-1.3,20.485-1.745,27.464-.241,3.429-.435,6.2-.574,8.173q-.112,1.386-.179,2.2A4.522,4.522,0,0,1,229.527,457.923Z"/><path class="h" d="M291.585,276.516l-1.353-.565c.03-.072,3.052-7.32,6.027-15,1.18-3.047,1.605-5.588,1.264-7.553a3.507,3.507,0,0,0-3.553-2.851l-.924-1.322a5.265,5.265,0,0,1,5.922,3.922c.387,2.231-.064,5.035-1.341,8.333C294.644,269.179,291.615,276.444,291.585,276.516Z"/><path class="h" d="M293.766,293.461l-1.864-.724c1.529-3.937,3.62-10.913,2.72-12.876a5.773,5.773,0,0,0-4.01-2.65,6.712,6.712,0,0,0-5.853,1.2c-2.135,1.806-5.361,8.185-6.424,10.492l-1.816-.837c.163-.356,4.038-8.721,6.949-11.182a8.679,8.679,0,0,1,7.58-1.623,7.67,7.67,0,0,1,5.392,3.767C297.952,282.327,294.478,291.63,293.766,293.461Z"/><path class="b" d="M273.623,323.892c-2.308,0-4.571-1.234-6.746-3.687l.748-.664c2.394,2.7,4.851,3.771,7.306,3.2,9.976-2.346,17.569-30.064,17.644-30.343l.966.26c-.315,1.166-7.83,28.575-18.381,31.056A6.748,6.748,0,0,1,273.623,323.892Z"/><path class="b" d="M268.8,321.352h0a1.2,1.2,0,0,1-1.555.107l-2.166-1.609a1.433,1.433,0,0,1-.4-1.994h0a1.433,1.433,0,0,1,2.206-.216l1.944,2.028A1.2,1.2,0,0,1,268.8,321.352Z"/><path class="b" d="M277.858,324.8c-3.081,0-5.365-1.016-6.8-3.035-6.135-8.6,5.429-32.484,5.924-33.5l.9.439c-.119.243-11.8,24.358-6.008,32.477,1.509,2.114,4.161,2.956,7.884,2.493l.123.992A16.316,16.316,0,0,1,277.858,324.8Z"/><path class="b" d="M277.677,324.258h0a1.2,1.2,0,0,0,1.1,1.107l2.69.224a1.433,1.433,0,0,0,1.621-1.228h0a1.434,1.434,0,0,0-1.513-1.621l-2.8.237A1.2,1.2,0,0,0,277.677,324.258Z"/><circle class="b" cx="7.832" cy="7.832" r="7.832" transform="matrix(0.923, -0.385, 0.385, 0.923, 219.333, 296.599)"/><circle class="b" cx="7.832" cy="7.832" r="7.832" transform="matrix(0.923, -0.385, 0.385, 0.923, 219.333, 296.599)"/><path class="e" d="M235.359,300.817a5.785,5.785,0,1,1-5.784-5.784A5.785,5.785,0,0,1,235.359,300.817Z"/><path class="h" d="M232.791,293.757l-1.3-.671c.658-1.281,16.142-31.388,17.071-32.75.164-.24.362-.572.585-.943a21.245,21.245,0,0,1,1.545-2.333c1.559-1.925,3.418-3.708,5.654-4.113l-1.3,2.1c-1.2.468-1.824,1.216-3.217,2.935a20.4,20.4,0,0,0-1.427,2.165c-.24.4-.455.756-.631,1.015C249.041,262.23,237.266,285.053,232.791,293.757Z"/></g><g transform="translate(109 -0.001)"><path class="i" d="M402.794,198.536l.746,60.064c.127,10.214-1.774,25.244-17.932,24.708h0c-13.984-1.522-17.694-14.76-17.8-24.292-.051-4.521-.1-8.292-.139-8.756,0,0-15.308-1.249-16.6-16.369-.624-7.306-.685-22.461-.581-36.171A28.265,28.265,0,0,1,376.7,169.76l1.46-.107C393.972,169.423,403,182.724,402.794,198.536Z"/><path class="j" d="M367.666,250.26A36.653,36.653,0,0,0,386.944,243s-4,11.4-19.2,11.144Z"/><path class="i" d="M402.376,209.832c.25-.13,10.174-3.834,10.6,6.536s-10.074,8.658-10.105,8.361S402.376,209.832,402.376,209.832Z"/><path class="j" d="M405.877,220.67c.044-.035.186.12.5.247a1.807,1.807,0,0,0,1.352-.028c1.079-.447,1.93-2.224,1.9-4.1a5.983,5.983,0,0,0-.612-2.566A2.092,2.092,0,0,0,407.6,212.9a.921.921,0,0,0-1.046.539c-.127.3-.052.5-.107.52-.028.027-.229-.164-.163-.6a1.152,1.152,0,0,1,.381-.667,1.371,1.371,0,0,1,.988-.3,2.542,2.542,0,0,1,1.953,1.531,6.146,6.146,0,0,1,.745,2.865c.019,2.092-.971,4.091-2.452,4.586a1.935,1.935,0,0,1-1.663-.207C405.906,220.92,405.842,220.691,405.877,220.67Z"/><path class="b" d="M416.165,193.043c-2.161-3.658-2.665-8.022-3.845-12.1s-3.455-8.309-7.457-9.735l-.09.039c-3.593-1.444-8.022-1.466-10.973,1.029-.731-5.39-5.456-9.658-10.717-11.039s-13.7-.557-18.745,1.475c-3.9,1.57-7.671,4.786-12.255,9.512a50.909,50.909,0,0,0-5.291,6.412l-4.575,14.127,3.919,7.408c.235.5.477,1.008.771,1.507l0-.034,3.533,15.611c.224-4.257-.086-19.066.138-23.324a23.746,23.746,0,0,0,16.92-7.815c2.325-2.575,4.153-5.8,7.263-7.341,4.009-1.984,8.789-.541,13.015.927l-.179-.161a18.982,18.982,0,0,1,5.857,4.228,59.011,59.011,0,0,0,2.555,24.979c.4,1.207,1.478,3.694,2.664,4.152,2.329.9,2.956-1.471,4.357-2.731,1.032-.927,2.563-1.047,4.236-1.043a92.673,92.673,0,0,0,2.846-10.761,9.458,9.458,0,0,0,4.354.291q-.67-1.6-1.34-3.206a4.966,4.966,0,0,0,1.863.843,1.688,1.688,0,0,0,1.767-.77C417.154,194.724,416.617,193.808,416.165,193.043Z"/><path class="h" d="M389.041,174.009a13.07,13.07,0,0,1,1.517,1.388,10.847,10.847,0,0,1,2.321,5.022,19.044,19.044,0,0,1,.387,3.843c.006,1.393-.106,2.885-.213,4.457a39.744,39.744,0,0,0-.113,4.96,17.358,17.358,0,0,0,.341,2.617,5.448,5.448,0,0,0,1.067,2.537,2.282,2.282,0,0,0,2.135.718,3.392,3.392,0,0,0,1.92-1.085,7.837,7.837,0,0,0,1.458-3.846l-.317.039a12.622,12.622,0,0,0,1.84,3.168,4.5,4.5,0,0,0,2.942,1.6,2.914,2.914,0,0,0,1.559-.274,2.511,2.511,0,0,0,1.06-1.043,2.592,2.592,0,0,0,.321-1.341,1.873,1.873,0,0,0-.486-1.176l-.16.143a9.772,9.772,0,0,0,3.249,2.438,8.95,8.95,0,0,0,1.007.391,1.735,1.735,0,0,0,.361.089,1.826,1.826,0,0,0-.341-.145c-.225-.093-.56-.228-.977-.439a10.074,10.074,0,0,1-3.136-2.474l-.16.143a1.94,1.94,0,0,1,.1,2.248,2.254,2.254,0,0,1-.958.923,2.63,2.63,0,0,1-1.413.23,4.217,4.217,0,0,1-2.731-1.522,12.494,12.494,0,0,1-1.772-3.1l-.218-.485-.1.524a7.572,7.572,0,0,1-1.388,3.674,3.052,3.052,0,0,1-1.719.971,1.926,1.926,0,0,1-1.814-.608,5.158,5.158,0,0,1-.985-2.375,17.153,17.153,0,0,1-.339-2.563,40.475,40.475,0,0,1,.093-4.918c.1-1.572.2-3.07.18-4.48a18.989,18.989,0,0,0-.435-3.895,10.7,10.7,0,0,0-2.464-5.06A6.144,6.144,0,0,0,389.041,174.009Z"/><path class="h" d="M342.25,188.726a.558.558,0,0,0,.121.1l.378.276a5.125,5.125,0,0,0,.641.411,8.017,8.017,0,0,0,.92.484,13.41,13.41,0,0,0,6.474,1.165,17.139,17.139,0,0,0,9.129-3.371,29.709,29.709,0,0,0,7.842-9.039c1.1-1.831,2-3.709,2.985-5.443a20.015,20.015,0,0,1,3.38-4.6,10.328,10.328,0,0,1,4.358-2.646,7.384,7.384,0,0,1,2.3-.264,8.1,8.1,0,0,1,2.1.4,8.748,8.748,0,0,1,4.861,4.113,10.4,10.4,0,0,1,.78,2.267.524.524,0,0,0-.012-.158c-.019-.126-.043-.278-.071-.463a7.6,7.6,0,0,0-.574-1.708,8.62,8.62,0,0,0-1.694-2.3,8.853,8.853,0,0,0-3.208-1.992,8.333,8.333,0,0,0-2.171-.44,7.626,7.626,0,0,0-2.391.255,10.576,10.576,0,0,0-4.507,2.693,20.2,20.2,0,0,0-3.454,4.668c-1,1.746-1.9,3.619-2.988,5.433a29.691,29.691,0,0,1-7.73,8.956,17.038,17.038,0,0,1-8.953,3.385,13.619,13.619,0,0,1-6.4-1.04A21.485,21.485,0,0,1,342.25,188.726Z"/><path class="b" d="M348.059,176.892c-1.266,1.715-3.226,3.289-5.349,3.088a15.825,15.825,0,0,1-2.264-.633c-.735.457-.529,2.991-.01,3.684a13.559,13.559,0,0,0,1.61,1.624c-2.47,1.368-4.743.738-7.4-.2a13.006,13.006,0,0,0,7.851,10.327c1.343.547,2.969.832,4.177.029a5.252,5.252,0,0,0,1.794-3.279,56.911,56.911,0,0,0,1.684-13.928Z"/><path class="k" d="M360.543,261.907l7.051-3.723s7.4,10.983,18.4,9.9,17.989-10.82,17.989-10.82l7.024,3.55-23.966,39.368Z"/><path class="l" d="M439.413,376.452,431.3,320.931l5.956-52.133-27.693-9.68L386.9,296.106l-25.931-35.831L345.625,267c-13.384,5.868-25.476,18.548-28.245,32.9q-.056.285-.108.573c-3.552,19.219.378,46.617.378,46.617l26.261-11.624L341.79,326.2l5.032,21.152s-21.45,78.184-18.406,103.809c0,0,40.5,9.031,77.788,2.891s47.406-7.838,47.406-7.838Z"/><path class="l" d="M437.251,268.8s16.114,13.962,17.89,33.448,5.073,36.836,5.073,36.836l-32.47,3.47s-.761-13.347,0-14.147,6.088-40.84,6.088-40.84Z"/><g class="g"><path d="M340.015,374.768l-1.161,5.375,19.672,7.016c7.01,2.5,14.064,5.011,21.4,6.27,13.459,2.309,27.241.312,40.75-1.686,7.55-1.117,16.02-2.8,20.168-9.206A368.591,368.591,0,0,1,340.015,374.768Z"/></g><path class="k" d="M320.057,346c.254.267,9.008,25.644,14.082,30.182s34.5,2.936,46.929-1.6,38.83-10.049,38.83-10.049l-4.04-20.478s-9.654.961-22.36,3.034c-4.6.75-46.676.266-46.676.266l-2.911-11.89Z"/><path class="k" d="M458.482,339.267c-.077.008-.8,33.448-4.356,37.719s-15.966,9.342-25.36,10.41-66.469-1.527-74.841-8.505L386.9,355.9l33.612,8.3,9.418-4.05.855-17.922Z"/><path class="b" d="M428.339,392.267a3.646,3.646,0,0,1-.448.564l-1.362,1.55c-.591.675-1.324,1.491-2.228,2.388s-1.883,1.971-3.075,3.045c-1.169,1.1-2.446,2.3-3.9,3.509-1.413,1.252-3,2.489-4.676,3.8a112.254,112.254,0,0,1-11.482,7.645,113.646,113.646,0,0,1-12.385,6.084c-1.979.764-3.842,1.538-5.64,2.113-.895.3-1.752.608-2.587.869l-2.417.708c-1.532.477-2.95.79-4.186,1.1s-2.308.538-3.191.7l-2.029.373a3.643,3.643,0,0,1-.714.1,3.881,3.881,0,0,1,.694-.2l2.007-.468c.874-.187,1.94-.436,3.163-.779s2.633-.669,4.152-1.166l2.4-.737c.829-.27,1.68-.588,2.567-.895,1.785-.59,3.634-1.375,5.6-2.148a119.2,119.2,0,0,0,12.309-6.092,117.38,117.38,0,0,0,11.452-7.577c1.672-1.289,3.268-2.508,4.686-3.741,1.459-1.185,2.745-2.373,3.927-3.449,1.2-1.053,2.2-2.1,3.119-2.98s1.674-1.67,2.286-2.322c.594-.613,1.07-1.106,1.433-1.482A3.921,3.921,0,0,1,428.339,392.267Z"/><path class="b" d="M417.537,261.907a1.328,1.328,0,0,1-.125.276l-.411.783-1.626,2.991-6.072,10.97-20.277,36.236-.2.353-.24-.327-.781-1.067-25-34.261-7.529-10.418-2.025-2.848c-.214-.309-.384-.556-.516-.748a1.37,1.37,0,0,1-.162-.266,1.388,1.388,0,0,1,.205.234c.143.185.327.421.558.718.5.667,1.207,1.6,2.1,2.79l7.662,10.32,25.126,34.171.781,1.067-.436.027c7.987-14.149,15.188-26.9,20.413-36.159l6.215-10.89c.728-1.254,1.3-2.24,1.71-2.943l.455-.759A1.283,1.283,0,0,1,417.537,261.907Z"/><path class="b" d="M398.18,345.017a2.831,2.831,0,0,1-.052-.621c-.013-.462-.029-1.052-.049-1.78-.021-1.613-.049-3.833-.083-6.547-.016-2.784-.035-6.071-.056-9.709-.005-1.829-.01-3.747-.015-5.734q0-1.491,0-3.032,0-.771,0-1.552l0-.214a.6.6,0,0,1,.119-.318.653.653,0,0,1,.536-.24l.8-.044c8.453-.15,16.082.022,21.612.1l6.546.157,1.779.071a2.742,2.742,0,0,1,.619.061,2.84,2.84,0,0,1-.621.044l-1.78.026-6.546.01c-5.525.015-13.172-.1-21.591.05l-.774.042c-.176.008-.125.009-.164.035a.077.077,0,0,0-.016.043v.176q0,.781,0,1.552,0,1.539,0,3.032c-.005,1.987-.01,3.9-.015,5.734-.021,3.638-.04,6.925-.056,9.709-.034,2.714-.062,4.934-.083,6.547l-.048,1.78A2.781,2.781,0,0,1,398.18,345.017Z"/><path class="b" d="M430.788,342.226a1.268,1.268,0,0,1,.015.314c0,.24-.009.541-.015.915-.027.847-.065,2.021-.113,3.508-.126,3.084-.3,7.459-.523,12.813l-.005.13-.123.048c-3.808,1.492-8.213,3.177-13.071,4.895-4.855,1.736-10.222,3.316-15.847,4.841-12.846,3.429-24.715,5.473-33.284,6.944l-10.161,1.7-2.765.443-.722.1a.884.884,0,0,1-.249.017.908.908,0,0,1,.24-.069l.712-.154,2.749-.539,10.133-1.858c8.552-1.563,20.394-3.662,33.213-7.084,5.615-1.523,10.971-3.088,15.819-4.8s9.271-3.352,13.088-4.808l-.128.177c.292-5.351.531-9.722.7-12.8.094-1.484.168-2.657.221-3.5.03-.373.053-.674.072-.913A1.283,1.283,0,0,1,430.788,342.226Z"/><path class="i" d="M416.239,345.707a83.2,83.2,0,0,1,9.564-.69,27.616,27.616,0,0,1,4.819.683l-.689,14.449L419.8,364.2Z"/><path class="b" d="M333.675,292.766a11.764,11.764,0,0,1,.477,1.711c.285,1.193.665,2.78,1.125,4.7.951,4.052,2.231,9.5,3.645,15.528,1.432,6.063,2.767,11.541,3.758,15.5l1.182,4.687a11.65,11.65,0,0,1,.379,1.734,11.462,11.462,0,0,1-.574-1.68c-.344-1.09-.794-2.68-1.344-4.648-1.082-3.939-2.476-9.408-3.908-15.475s-2.655-11.571-3.5-15.567c-.394-1.938-.719-3.537-.963-4.74A11.267,11.267,0,0,1,333.675,292.766Z"/><path class="b" d="M430.077,322.979a5.88,5.88,0,0,1-1.254.135c-.809.054-1.979.11-3.426.162-2.894.107-6.894.189-11.313.184s-8.42-.1-11.314-.211c-1.447-.057-2.617-.115-3.425-.171a5.876,5.876,0,0,1-1.254-.138,5.887,5.887,0,0,1,1.26-.065l3.427.006,11.307.058,11.3-.031,3.428,0A5.866,5.866,0,0,1,430.077,322.979Z"/><path class="b" d="M371.476,347.494a4.073,4.073,0,0,1-.621-.841l-1.555-2.372c-1.313-2-3.165-4.738-5.329-7.676s-4.235-5.515-5.758-7.361q-1.055-1.279-1.805-2.187a4.123,4.123,0,0,1-.62-.841,3.969,3.969,0,0,1,.771.706c.473.476,1.135,1.187,1.934,2.082,1.6,1.79,3.721,4.343,5.9,7.292s3.984,5.732,5.22,7.789c.619,1.028,1.1,1.87,1.418,2.463A4.054,4.054,0,0,1,371.476,347.494Z"/><path class="b" d="M377.222,347.763a16.845,16.845,0,0,1-3.681-8.789c.151-.033.667,2.044,1.687,4.459S377.351,347.678,377.222,347.763Z"/><path class="b" d="M393.307,305.015a2.309,2.309,0,0,1-.371-.424l-.981-1.275-3.532-4.745L376.931,282.8c-4.422-6.169-8.423-11.75-11.371-15.864l-3.4-4.843c-.366-.54-.665-.98-.9-1.333a2.363,2.363,0,0,1-.287-.486,2.307,2.307,0,0,1,.37.422l.981,1.274,3.531,4.745,11.5,15.775,11.371,15.864c1.4,2,2.554,3.639,3.4,4.843.365.539.664.979.9,1.332A2.275,2.275,0,0,1,393.307,305.015Z"/><path class="b" d="M407.061,259.118a2.139,2.139,0,0,1-.163.526,13.212,13.212,0,0,1-.6,1.463,19.116,19.116,0,0,1-3.25,4.821,22.739,22.739,0,0,1-6.948,5.1,26.015,26.015,0,0,1-10.251,2.505,23.25,23.25,0,0,1-10.338-2.082,24,24,0,0,1-7.119-4.863,21.818,21.818,0,0,1-3.585-4.577,14.847,14.847,0,0,1-.733-1.4,2.226,2.226,0,0,1-.213-.508,28.278,28.278,0,0,0,4.787,6.22,24.325,24.325,0,0,0,7.058,4.69,23.157,23.157,0,0,0,10.124,2A25.967,25.967,0,0,0,395.9,270.6a22.955,22.955,0,0,0,6.883-4.922,20.47,20.47,0,0,0,3.338-4.66C406.737,259.807,407.013,259.1,407.061,259.118Z"/><g class="g"><path d="M353.925,378.891c26.692,2.227,54.792,2.819,76.876-19.3-23.227,9.527-52.046,15.594-76.876,19.3"/></g><g class="g"><path d="M430.725,345.661c-3.643-3.317-4.162-8.805-4.052-13.731.186-8.248,2.185-17.424,4.491-25.345-.478,14.069-1.52,26.447-.6,39.128"/></g><path class="b" d="M346.822,347.356c.04.072-.484.409-1.281,1a11.35,11.35,0,0,0-2.66,2.727,26.842,26.842,0,0,0-1.8,3.422,5.214,5.214,0,0,1-.785,1.432,5.138,5.138,0,0,1,.445-1.573,16.943,16.943,0,0,1,1.708-3.572,9.414,9.414,0,0,1,2.884-2.741A4.227,4.227,0,0,1,346.822,347.356Z"/><path class="l" d="M449.473,442.3l2.467,15.792H330.517l1.432-11.873Z"/><path class="b" d="M452.983,446.034a1.481,1.481,0,0,1-.308.107l-.918.262-3.542.96c-1.537.422-3.423.915-5.633,1.41s-4.708,1.135-7.508,1.668l-4.386.885c-1.525.3-3.125.551-4.775.843-3.3.61-6.848,1.084-10.579,1.619-7.476.955-15.731,1.744-24.422,2.143-8.7.356-16.991.285-24.523-.02-3.764-.21-7.343-.375-10.68-.7-1.669-.148-3.285-.256-4.831-.426l-4.446-.5c-2.836-.288-5.382-.7-7.624-1.011s-4.166-.629-5.734-.916l-3.611-.65-.937-.182a1.467,1.467,0,0,1-.315-.08,1.556,1.556,0,0,1,.325.027l.945.131,3.626.554c1.571.256,3.5.554,5.742.828s4.79.669,7.625.934l4.443.468c1.545.159,3.159.257,4.827.4,3.333.3,6.907.451,10.665.647,7.521.278,15.8.335,24.48-.02,8.675-.4,16.916-1.171,24.384-2.1,3.726-.521,7.273-.978,10.568-1.569,1.649-.283,3.248-.52,4.774-.812L435,450.08c2.8-.509,5.3-1.114,7.516-1.591s4.105-.93,5.649-1.322l3.564-.865.931-.213A1.478,1.478,0,0,1,452.983,446.034Z"/><path class="b" d="M434.1,284.495a2.744,2.744,0,0,1-.051.62c-.064.458-.146,1.041-.247,1.761-.231,1.525-.547,3.736-.912,6.469-.734,5.467-1.577,13.043-2.085,21.442s-.57,16.026-.495,21.541c.035,2.758.084,4.99.131,6.532.014.727.026,1.315.035,1.777a2.774,2.774,0,0,1-.024.622,2.8,2.8,0,0,1-.081-.616c-.034-.461-.078-1.049-.132-1.774-.11-1.54-.215-3.773-.3-6.533-.169-5.521-.158-13.161.344-21.58s1.412-16,2.24-21.462c.413-2.731.784-4.935,1.077-6.452.141-.713.254-1.291.344-1.745A2.8,2.8,0,0,1,434.1,284.495Z"/></g><g transform="translate(109 -0.001)"><path class="e" d="M167.408,161.366a7.034,7.034,0,0,0-7.254-3.683,9.616,9.616,0,0,0-11.843.053,8.553,8.553,0,0,0-13.005,6.805,7.146,7.146,0,0,0-6.418,11.951,6.87,6.87,0,0,0,2.7,13.4l34.422-20.513A7.034,7.034,0,0,0,167.408,161.366Z"/><path class="i" d="M130.575,190.841a29.146,29.146,0,0,1,29.441-26.378l1.509.022c16.26,1.188,24.335,15.659,22.7,31.88l-3.144,54.156-.179,2.629-37.662,6.982.254-13.811s-15.609-2.66-15.575-18.3C127.934,220.461,129.234,204.906,130.575,190.841Z"/><path class="j" d="M143.363,246.3a37.936,37.936,0,0,0,20.582-5.7s-4.984,11.186-20.571,9.551Z"/><path class="e" d="M132.183,183.69s4.268-9.736,9.025-11.953c5.758-2.684,8.128,3.628,13.6,2.185s10.968-4.02,16.476.273c6.028,4.7,3.125,7.892,3.4,14.838,1.117,28.159,6.14,36.191,7.794,22.959.182-1.45,4.228-2.546,4.915-8.672.889-7.943,1.336-17.6-.357-23.269-1.428-4.78-4.093-8.107-8.9-11.8-7.6-5.833-18.144-6.109-25.318-5.493S131.709,171.416,132.183,183.69Z"/><path class="i" d="M181.489,211.552a4.245,4.245,0,0,1,4.643-4.025c2.913.32,6.135,2.024,5.855,8.049-.5,10.688-11.125,7.984-11.129,7.677C180.855,223.044,181.241,216.023,181.489,211.552Z"/><path class="j" d="M183.37,219.34c.049-.032.18.139.488.3a1.867,1.867,0,0,0,1.391.093c1.148-.362,2.182-2.11,2.324-4.035a6.156,6.156,0,0,0-.4-2.689,2.154,2.154,0,0,0-1.333-1.5.949.949,0,0,0-1.123.46c-.157.292-.1.508-.157.524-.031.026-.221-.19-.114-.627a1.189,1.189,0,0,1,.451-.65,1.4,1.4,0,0,1,1.043-.224,2.62,2.62,0,0,1,1.868,1.747,6.342,6.342,0,0,1,.507,3.009c-.169,2.151-1.365,4.115-2.931,4.489a2,2,0,0,1-1.69-.361C183.377,219.6,183.332,219.357,183.37,219.34Z"/><path class="e" d="M181.581,190.831a10.162,10.162,0,0,1-4.56,2.025c-1.675.141-3.575-.848-3.833-2.51-.116-.746.078-1.607-.4-2.189-.574-.695-1.654-.5-2.552-.414a6.826,6.826,0,0,1-7.013-5c-.81,1.175-2.66,1.1-3.849.306a15.357,15.357,0,0,1-2.866-3.157c-.924-1.09-2.227-2.071-3.644-1.89a10.5,10.5,0,0,1-2.333.478c-1.4-.145-2.064-1.8-2.257-3.2s-.333-3.025-1.512-3.8c-1.092-.718-2.526-.333-3.821-.162s-2.961-.156-3.273-1.425a2.538,2.538,0,0,1,.506-1.932,6.928,6.928,0,0,1,8.214-2.5,9.387,9.387,0,0,1,17.273-1.569,9.528,9.528,0,0,1,15.178,3.695,6.906,6.906,0,0,1,7.639,10.157c1.907,1.127,3.524,3.06,3.532,5.275s-2.181,4.388-4.308,3.774a3.825,3.825,0,0,1-6.67,3.718"/><path class="m" d="M188.484,186.786a2.565,2.565,0,0,1-.7,2.046,3.443,3.443,0,0,1-2.162,1.247,3.709,3.709,0,0,1-3.036-.931l.454-.061a10.693,10.693,0,0,1-2.174,2.636,6.138,6.138,0,0,1-1.966,1.183,4.75,4.75,0,0,1-5.216-1.646,6.2,6.2,0,0,1-.833-2.238,2.14,2.14,0,0,1-.07-.865c.047-.01.133.286.3.806a7.176,7.176,0,0,0,.958,2.048c.991,1.549,4.282,2.38,6.424.244a10.735,10.735,0,0,0,2.071-2.469l.193-.312.261.251a3.251,3.251,0,0,0,2.566.859,3.156,3.156,0,0,0,1.951-.992A5.206,5.206,0,0,0,188.484,186.786Z"/><path class="m" d="M168.633,162.069c.005.037-.28.071-.761.267a3.669,3.669,0,0,0-1.681,1.387l-.131.2-.145-.2a13.311,13.311,0,0,0-5.109-4.262,10.382,10.382,0,0,0-4.2-.985,8.679,8.679,0,0,0-4.547,1.228,8.835,8.835,0,0,0-2.734,2.517,7.25,7.25,0,0,0-1.223,3.207l-.038.337-.323-.093a6,6,0,0,0-4.452.476,5.851,5.851,0,0,0-2.469,2.57,7.989,7.989,0,0,0-.713,3.158,2.186,2.186,0,0,1-.117-.876,5.958,5.958,0,0,1,.517-2.428,6.086,6.086,0,0,1,2.552-2.841,6.427,6.427,0,0,1,4.84-.6l-.361.244a7.719,7.719,0,0,1,1.289-3.49,9.3,9.3,0,0,1,2.919-2.706,9.165,9.165,0,0,1,4.87-1.293,10.725,10.725,0,0,1,4.417,1.094,13,13,0,0,1,5.154,4.559h-.276a3.638,3.638,0,0,1,1.9-1.368A1.612,1.612,0,0,1,168.633,162.069Z"/><path class="j" d="M159.168,220.41c-.174,0-.224-1.13-1.12-2.075-.863-.975-1.982-1.123-1.968-1.3,0-.076.3-.161.786-.071a3.176,3.176,0,0,1,2.441,2.665C159.354,220.124,159.243,220.416,159.168,220.41Z"/><path class="j" d="M160.159,217.468c-.151.089-.534-.288-1.1-.55-.557-.278-1.091-.341-1.116-.514-.041-.162.638-.4,1.382-.041S160.311,217.4,160.159,217.468Z"/><path class="j" d="M172.565,242.674c-.008-.05.155-.078.29-.276a.932.932,0,0,0,.038-.945c-.167-.407-.646-.77-.968-1.467a1.389,1.389,0,0,1,.031-1.245,8.409,8.409,0,0,1,.7-.9c.831-1.057-1.577-1.812-1.259-3.171a1.655,1.655,0,0,1,.59-1.135c.245-.185.418-.2.432-.17a2.178,2.178,0,0,0-.588,1.324,1.672,1.672,0,0,0,.778,1.27,2.71,2.71,0,0,1,.713.9,1.312,1.312,0,0,1-.163,1.342c-.257.352-.538.587-.674.836a.821.821,0,0,0-.032.746c.194.525.67.972.846,1.517a1.151,1.151,0,0,1-.269,1.269C172.765,242.777,172.556,242.705,172.565,242.674Z"/><path class="j" d="M175.882,242.208c-.049-.007-.05-.158-.136-.388a3.642,3.642,0,0,0-.583-.9,4.2,4.2,0,0,1-.454-.689,1.533,1.533,0,0,1-.144-1.046c.188-.769.82-1.243,1.122-1.8.341-.544.046-1.008-.406-1.478a3.2,3.2,0,0,1-.569-.789,1.882,1.882,0,0,1-.158-.872c.1-1.115.853-1.434.854-1.356a2.833,2.833,0,0,0-.419,1.359,1.812,1.812,0,0,0,.706,1.271,2.784,2.784,0,0,1,.655.884,1.477,1.477,0,0,1-.125,1.28c-.423.707-.985,1.134-1.109,1.632-.148.469.169.951.407,1.356a2.684,2.684,0,0,1,.457,1.1C176,242.067,175.915,242.216,175.882,242.208Z"/><path class="i" d="M62.407,289.55s2.4,9.664,3.984,12.306a12.9,12.9,0,0,1,1.8,4.862l.993,15.472-12.659,12.5L31.991,316.369s-8.8-8.6-6.423-11.858c0,0,1.167-1.59,3.219.031,0,0-9.178-7.113-7.054-9.9s5.284,1.255,8.606,4.073,4.408,3.61,4.408,3.61L25.2,293.089s-2.694-2.375-.305-4.312,5.919,2.915,7.593,3.926,11.067,9.962,11.067,9.962-6.512-8.294-6.974-8.748-6.352-4.869-4.158-7.418,7.826,3.649,9.685,5.064,8.848,9.766,10.409,10.615,4.379,3.291,6.115,2.516-1.817-7.258-1.26-9.585S58.9,288.348,62.407,289.55Z"/><path class="j" d="M56.4,319.444a14.14,14.14,0,0,1-.89-2.288,9.729,9.729,0,0,1,.677-5.748c.846-2.176,2.005-3.966,2.638-5.427a4.813,4.813,0,0,0,.44-1.837c-.008-.455-.114-.69-.149-.682a6.7,6.7,0,0,1-.711,2.325,45.373,45.373,0,0,0-2.827,5.383,9.257,9.257,0,0,0-.515,6.1A3.75,3.75,0,0,0,56.4,319.444Z"/><path class="j" d="M39.3,314.408c.069-.02-.309-.9-1.506-1.7-1.131-.844-3.065-1.417-4.413-2.873a14.67,14.67,0,0,1-1.571-2.425,9.262,9.262,0,0,0-1.451-2.01c-1.035-1.044-2.029-1.119-2.019-1.039a7.487,7.487,0,0,1,1.68,1.353,10.746,10.746,0,0,1,1.263,1.987,12.87,12.87,0,0,0,1.608,2.568,7.929,7.929,0,0,0,2.505,1.763c.828.406,1.566.734,2.151,1.068A16.272,16.272,0,0,1,39.3,314.408Z"/><path class="b" d="M109.327,457.811h78.537V429.375l-78.537-8.8Z"/><path class="k" d="M143.389,251.912l5.672,3.568,32.646-14.032,1.481,7.218-29.535,61.262-1.768,116.819-31.962-2.615,19.758-157.777Z"/><path class="b" d="M173.944,255.01a6.607,6.607,0,0,1-1.144.7l-3.187,1.775c-2.691,1.5-6.4,3.586-10.465,5.937l-5.127,2.985-.217.126-.119-.213c-1.593-2.869-2.528-5.486-3.346-7.264-.394-.9-.722-1.6-.954-2.078a3.5,3.5,0,0,1-.33-.754,2.984,2.984,0,0,1,.471.678c.278.458.65,1.145,1.085,2.027.9,1.749,1.9,4.354,3.5,7.145l-.336-.087c1.57-.946,3.3-1.967,5.116-3.017,4.073-2.352,7.813-4.393,10.552-5.809,1.369-.71,2.489-1.261,3.268-1.631A6.635,6.635,0,0,1,173.944,255.01Z"/><path class="n" d="M136.708,260.734l-16.676,6.384a13.844,13.844,0,0,0-5.5,3.853c-3.635,4.178-10.09,13.206-13.955,28.008C95.337,319.03,89.755,334.1,89.755,334.1L71.118,320.285,45.232,345.849s43.578,37.94,57.417,37.774l-9.383,74.286h26.752l22.115-197.175,1.256-8.822C142.929,252.088,137.945,259.025,136.708,260.734Z"/><path class="b" d="M112.033,285.569a1.074,1.074,0,0,1-.008.274c-.02.209-.045.471-.075.8-.082.738-.195,1.76-.339,3.056l-1.285,11.237c-1.073,9.488-2.459,22.607-3.829,37.112S104,365.7,103.182,375.216c-.415,4.726-.751,8.565-.988,11.266-.123,1.3-.22,2.323-.291,3.062-.036.324-.065.586-.089.795a1.061,1.061,0,0,1-.048.269,1.092,1.092,0,0,1,0-.273c.01-.21.022-.473.038-.8.046-.741.111-1.767.193-3.069.2-2.7.478-6.548.823-11.28.727-9.523,1.8-22.676,3.164-37.19s2.815-27.626,3.982-37.106c.581-4.741,1.078-8.574,1.449-11.219.185-1.291.33-2.31.436-3.045.051-.322.093-.582.126-.79A1.035,1.035,0,0,1,112.033,285.569Z"/><path class="b" d="M191.93,360.119a36.2,36.2,0,0,0-5.471-3.665,36.127,36.127,0,0,0-6.238-2.115,5.518,5.518,0,0,1,1.961.146,17.413,17.413,0,0,1,8.44,4.166A5.525,5.525,0,0,1,191.93,360.119Z"/><path class="n" d="M215.578,273.407s-6.639-5.175-13.325-10.563-17.822-13.4-17.822-13.4l-2.008-6.73s-5.894,6.2-11.056,17.421c-7.418,16.119-15.984,39.639-17.713,49.8L143.389,457.811h76.519l-17.8-105.125Z"/><path class="b" d="M153.181,319.4a4.787,4.787,0,0,1,.351-.725l1.094-2.028c.995-1.8,2.392-4.317,4.106-7.411l13.72-24.355.726-1.28-.023.2L171.47,278.1l-.052-.176.15-.106,4.1-2.9-.091.123c2.534-7.432,4.713-13.824,6.279-18.415l1.853-5.3.515-1.407a2.433,2.433,0,0,1,.2-.476,2.387,2.387,0,0,1-.124.5c-.113.367-.258.841-.439,1.432l-1.718,5.344-6.1,18.475-.025.076-.067.047q-1.977,1.407-4.094,2.912l.1-.28c.548,1.85,1.114,3.76,1.693,5.711l.031.106-.055.1-.725,1.28-13.852,24.279-4.251,7.33-1.179,1.98A4.535,4.535,0,0,1,153.181,319.4Z"/><path class="b" d="M135.153,322.974a3.338,3.338,0,0,1-.153-.668c-.087-.494-.2-1.136-.338-1.932-.28-1.743-.669-4.16-1.146-7.12-.926-6.074-2.189-14.363-3.586-23.52q-.211-1.425-.419-2.819l-.013-.087.042-.077,3.48-6.3.14.356-3.466-1.14-.237-.078.087-.231c2.069-5.466,3.828-10.112,5.1-13.457l1.489-3.819c.166-.406.3-.737.413-1.007a1.369,1.369,0,0,1,.167-.337,1.412,1.412,0,0,1-.094.364l-.343,1.033c-.336.953-.794,2.251-1.363,3.866-1.223,3.361-2.921,8.03-4.918,13.522l-.149-.309,3.473,1.12.286.093-.145.264L129.995,287l.029-.163q.208,1.393.421,2.819c1.338,9.166,2.548,17.463,3.435,23.542.409,2.971.742,5.4.983,7.145.1.8.179,1.448.241,1.946A3.5,3.5,0,0,1,135.153,322.974Z"/><path class="b" d="M142.064,261.354a20.963,20.963,0,0,1,1.783,3.493l-.418-.016c.439-.849,1.005-1.781,1.628-2.748,1.065-1.649,2.075-3.1,2.789-4.166a11.363,11.363,0,0,1,1.209-1.692,6.6,6.6,0,0,1-.9,1.887c-.638,1.119-1.6,2.611-2.663,4.252-.62.963-1.2,1.875-1.656,2.686l-.237.42-.181-.436A20.959,20.959,0,0,1,142.064,261.354Z"/><path class="b" d="M133.238,425.22a2.711,2.711,0,0,1,.014-.437c.023-.312.054-.736.094-1.279.1-1.15.235-2.8.412-4.914.383-4.291.934-10.456,1.613-18.063,1.414-15.268,3.363-36.32,5.516-59.571,2.213-23.254,4.216-44.3,5.669-59.567.748-7.6,1.355-13.759,1.777-18.046.219-2.109.39-3.756.509-4.9.062-.541.11-.963.146-1.274a2.761,2.761,0,0,1,.067-.432,2.71,2.71,0,0,1-.014.437c-.023.312-.054.736-.094,1.279-.1,1.149-.235,2.8-.412,4.913-.383,4.29-.934,10.454-1.613,18.061-1.414,15.269-3.363,36.322-5.517,59.583-2.212,23.246-4.215,44.293-5.668,59.558-.748,7.6-1.355,13.759-1.777,18.046-.219,2.109-.39,3.757-.51,4.9-.061.541-.11.964-.145,1.274A2.924,2.924,0,0,1,133.238,425.22Z"/><g class="g"><path d="M183.709,251.593l-7.264,26.2-3.04,1.157,2.081,6.564-20.834,31.3L173.4,283.734l-1.689-5.713,4.1-2.905Z"/></g><g class="g"><path d="M149.905,257.813l1.917,13.636,18.558-14.389L153.9,266.2Z"/></g><g class="g"><path d="M101.766,390.608l-.783,6.206s3.745,4.815,7.4,3.8,18.926-7.674,18.926-7.674l-.238-2.336s-8.907-3.655-9.413-3.528S101.766,390.608,101.766,390.608Z"/></g><g class="g"><path d="M131.179,404.423l.458,5.707s27.649-3.171,39.565-7.7c0,0,23.253-8.619,29.849-16.753a245.935,245.935,0,0,1-32.342,10.446Z"/></g><path class="h" d="M152.913,364.915l-34.66-45.807a2.842,2.842,0,0,0-3.184-.975l-53.037,18.1a2.842,2.842,0,0,0-1.268,4.505l43.152,51.937a2.841,2.841,0,0,0,3.158.854l49.6-18.075a2.841,2.841,0,0,0,1.222-4.473Z"/><path class="b" d="M82.555,334.71a1.474,1.474,0,1,0,1.421-1.525A1.474,1.474,0,0,0,82.555,334.71Z"/><path class="b" d="M93.267,331.078a1.473,1.473,0,1,0,1.421-1.524A1.472,1.472,0,0,0,93.267,331.078Z"/><path class="i" d="M124.015,372.966l-2.787-.627s-1.14-4.606-2.4-5.54-13.681-6.078-16.419-7.448-13.411-5.789-14.642-3.2c-1.391,2.931,2.968,5.147,5.327,6.165s9.068,3.355,7.78,4.989-16.7,1.539-16.7,1.539l-1.77-2.056s-2.725,2.729-2.265,5.4a11.754,11.754,0,0,0,1.62,4.345l1.1-.039a3.064,3.064,0,0,0-.011,3.179,29.331,29.331,0,0,0,3.06,3.56,10.883,10.883,0,0,0,7.138,4.84c.617.145,25.125,1.409,25.125,1.409l8.893,1.994Z"/><path class="n" d="M188.421,285.731c-.282.6-7.564,68.226-7.564,68.226l-57.073,17.308,5.445,33.525s77.1-13.807,85.061-28.271c6.77-12.3,8.391-64.594,8.725-79.986a40.629,40.629,0,0,0-1.277-11.127c-1.129-4.335-3.064-9.565-6.16-12C209.795,268.861,188.421,285.731,188.421,285.731Z"/><path class="b" d="M186.816,299.849s-.014.339-.074.993c-.067.673-.162,1.639-.285,2.889-.267,2.551-.655,6.259-1.148,10.975-1.021,9.478-2.478,23-4.232,39.275l-.015.145-.14.043-57.063,17.345.182-.291.111.689c1.865,11.5,3.664,22.6,5.323,32.838l-.291-.2c23.214-4.414,43.046-9.222,56.844-13.549,1.736-.5,3.346-1.1,4.885-1.6l2.232-.745,2.061-.775c1.323-.506,2.563-.947,3.681-1.4l3.016-1.318a22.7,22.7,0,0,0,2.362-1.114l1.685-.89,1.036-.538c.234-.119.359-.17.359-.17s-.11.076-.337.207l-1.016.576-1.669.929a22.021,22.021,0,0,1-2.35,1.153l-3.007,1.355c-1.116.467-2.353.92-3.674,1.438l-2.059.793-2.229.763c-1.538.509-3.147,1.115-4.882,1.631-13.792,4.415-33.618,9.29-56.848,13.74l-.25.048-.041-.254c-1.666-10.235-3.473-21.334-5.344-32.834-.039-.236-.077-.471-.112-.688l-.037-.225.218-.066,57.085-17.271-.155.188c1.829-16.264,3.35-29.782,4.416-39.255.545-4.711.974-8.414,1.268-10.961.152-1.248.269-2.211.351-2.882C186.756,300.183,186.816,299.849,186.816,299.849Z"/><path class="b" d="M211.943,271.931c0,.108-1.614-.025-4.165.312a25.54,25.54,0,0,0-4.393,1,25.917,25.917,0,0,0-9.478,5.5,25.543,25.543,0,0,0-3.05,3.317c-1.56,2.047-2.244,3.509-2.339,3.459a4.639,4.639,0,0,1,.445-1.04,9.331,9.331,0,0,1,.636-1.164,15.9,15.9,0,0,1,.962-1.475,23.344,23.344,0,0,1,3.021-3.45,24.774,24.774,0,0,1,9.658-5.6,23.39,23.39,0,0,1,4.494-.908,16.046,16.046,0,0,1,1.758-.1,9.4,9.4,0,0,1,1.327.027A4.64,4.64,0,0,1,211.943,271.931Z"/></g><path class="m" d="M714.107,458.091c0,.144-151.835.26-339.091.26-187.32,0-339.124-.116-339.124-.26s151.8-.261,339.124-.261C562.272,457.83,714.107,457.947,714.107,458.091Z"/></g></svg>