<svg xmlns="http://www.w3.org/2000/svg" xmlns:xlink="http://www.w3.org/1999/xlink" width="460.823" height="452.137" viewBox="0 0 460.823 452.137"><defs><style>.a{fill:#06759c;}.b{fill:#fafafa;}.c{fill:#224552;}.d{fill:#364953;}.e{fill:#076a8d;}.f{fill:#455a64;}.g{fill:#fff;}.h{fill:#263238;}.i{opacity:0.6;}.j{opacity:0.3;}.k{fill:#ebebeb;}.l{fill:#01e9a1;}.m{fill:#e0e0e0;}.n{fill:#ffbe9d;}.o{fill:#eb996e;}.p{fill:#e8505b;}.q{opacity:0.8;}.r{fill:url(#a);}.s{fill:url(#c);}.t{fill:url(#d);}.u{fill:url(#e);}.v{fill:url(#f);}.w{fill:url(#g);}.x{fill:url(#h);}.y{fill:url(#i);}.z{fill:url(#j);}.aa{fill:url(#k);}.ab{fill:url(#l);}</style><linearGradient id="a" x1="-0.852" y1="0.401" x2="1.711" y2="0.589" gradientUnits="objectBoundingBox"><stop offset="0" stop-color="#fff"/><stop offset="0.008" stop-color="#01ea9e"/><stop offset="1" stop-color="#03bfff"/></linearGradient><linearGradient id="c" x1="-0.002" y1="0.431" x2="0.993" y2="0.601" xlink:href="#a"/><linearGradient id="d" x1="-0.673" y1="0.457" x2="8.392" y2="0.918" gradientUnits="objectBoundingBox"><stop offset="0.221" stop-color="#01bdfd"/><stop offset="1" stop-color="#457ae6"/></linearGradient><linearGradient id="e" x1="-1.653" y1="0.354" x2="7.064" y2="0.945" xlink:href="#d"/><linearGradient id="f" x1="-5.695" y1="0.34" x2="11.74" y2="0.799" xlink:href="#d"/><linearGradient id="g" x1="-6.938" y1="0.307" x2="10.497" y2="0.766" xlink:href="#d"/><linearGradient id="h" x1="-8.437" y1="0.277" x2="9.549" y2="0.727" xlink:href="#d"/><linearGradient id="i" x1="-4.922" y1="0.227" x2="4.215" y2="0.686" xlink:href="#d"/><linearGradient id="j" x1="-6.816" y1="0.072" x2="3.364" y2="0.668" xlink:href="#d"/><linearGradient id="k" x1="-11.244" y1="0.088" x2="2.977" y2="0.587" xlink:href="#d"/><linearGradient id="l" x1="-8.281" y1="-0.051" x2="1.199" y2="0.54" xlink:href="#d"/></defs><g transform="translate(-1195.089 -3263.5)"><g transform="translate(1195.089 3263.5)"><g transform="translate(269.707 0)"><g transform="translate(135.926 106.688)"><path class="a" d="M475.25,146.7c-1.158-6.754-7.2-12.821-14.043-12.508a15.024,15.024,0,0,0-10.415,5.556,27.8,27.8,0,0,0-2.551,3.328,27.693,27.693,0,0,0-2.187-3.577,15.022,15.022,0,0,0-9.772-6.622c-6.774-1.032-13.42,4.366-15.283,10.961s.278,13.8,4.107,19.484,10.31,13.044,21.771,16.314c7.735-1.358,17.835-8.742,22.241-13.991S476.408,153.456,475.25,146.7Z" transform="translate(-420.316 -132.753)"/><g transform="translate(1.278 14.099)"><path class="b" d="M473.321,158.717a.8.8,0,0,1-.226.012l-.662-.012-2.543-.091-9.35-.421.163-.11-3.41,10.292-.206.62-.182-.628c-1.41-4.852-2.989-10.289-4.653-16.018-.512-1.774-1.016-3.519-1.508-5.223l.4.06-6.653,10.1-.063.1-.115-.006-16.435-.948-4.654-.3-1.231-.1a2.077,2.077,0,0,1-.422-.055,2.078,2.078,0,0,1,.425-.01l1.234.035,4.66.189,16.444.787-.179.09,6.619-10.122.264-.4.134.464c.494,1.7,1,3.448,1.512,5.222l4.614,16.029-.388-.008c1.3-3.815,2.478-7.294,3.486-10.266l.041-.118.123.007,9.342.566,2.539.177.659.058A.782.782,0,0,1,473.321,158.717Z" transform="translate(-421.567 -146.551)"/></g></g><g transform="translate(48.861)"><g transform="translate(27.779 32.164)"><path class="a" d="M362.294,183.871a3.084,3.084,0,0,1,.4-.284l1.194-.783a20.017,20.017,0,0,0,1.9-1.328,30.519,30.519,0,0,0,2.47-1.974l1.415-1.242,1.462-1.474a21.429,21.429,0,0,0,1.524-1.671c.5-.6,1.072-1.19,1.556-1.883a44.222,44.222,0,0,0,9.215-23.246,41.694,41.694,0,0,0-.023-7.714,76.065,76.065,0,0,0-1.395-8.091c-1.164-5.483-2.713-11.342-2.242-17.567S382.716,104.318,386,98.7c3.318-5.609,7.166-10.834,11.963-14.776a29.617,29.617,0,0,1,7.791-4.675,34.47,34.47,0,0,1,8.452-2.1,104.086,104.086,0,0,1,16.039-.256,72.862,72.862,0,0,0,13.882-.565,27.888,27.888,0,0,0,10.691-3.842,21.092,21.092,0,0,0,6.246-5.877,15.455,15.455,0,0,0,2.3-4.923c.323-1.209.381-1.872.423-1.865a10.9,10.9,0,0,1-.311,1.893,15.036,15.036,0,0,1-2.231,5.02,21.093,21.093,0,0,1-6.258,6.023,28.074,28.074,0,0,1-10.8,3.972,72.523,72.523,0,0,1-13.96.641,104.591,104.591,0,0,0-15.959.306,33.964,33.964,0,0,0-8.314,2.087,29.063,29.063,0,0,0-7.64,4.6c-4.714,3.882-8.528,9.059-11.823,14.63-3.263,5.575-5.711,11.575-6.169,17.666s1.043,11.914,2.2,17.413a75.7,75.7,0,0,1,1.38,8.151,42.139,42.139,0,0,1-.006,7.809,44.282,44.282,0,0,1-9.437,23.4c-.495.694-1.074,1.28-1.586,1.881a21.354,21.354,0,0,1-1.552,1.667l-1.489,1.465-1.44,1.23a29.219,29.219,0,0,1-2.515,1.941,18.337,18.337,0,0,1-1.937,1.287l-1.227.736A3.043,3.043,0,0,1,362.294,183.871Z" transform="translate(-362.294 -59.817)"/></g><path class="a" d="M335.107,156.916s.061-.159.205-.459l.656-1.323c.3-.574.725-1.257,1.2-2.078.54-.781,1.108-1.723,1.884-2.683a37.646,37.646,0,0,1,6.27-6.427,38.2,38.2,0,0,1,10.283-5.961,39.067,39.067,0,0,1,6.683-1.863,50.291,50.291,0,0,1,7.483-.692c5.189-.152,10.721.279,16.509-.068a39.926,39.926,0,0,0,8.733-1.476,38.061,38.061,0,0,0,8.47-3.666,42.86,42.86,0,0,0,13.985-13.3,48.481,48.481,0,0,0,7.136-18,59,59,0,0,0,.495-18.1c-.73-5.753-2.131-11.121-2.941-16.247a41.5,41.5,0,0,1-.2-14.4,30.951,30.951,0,0,1,4.5-10.989,30.217,30.217,0,0,1,10.592-9.976l1.317-.666c.3-.147.458-.208.458-.208s-.142.1-.431.261l-1.286.714a33.845,33.845,0,0,0-4.576,3.3,31.8,31.8,0,0,0-5.8,6.746,30.789,30.789,0,0,0-4.366,10.89,41.259,41.259,0,0,0,.273,14.245c.825,5.1,2.244,10.458,3,16.257a59.318,59.318,0,0,1-.467,18.267,48.936,48.936,0,0,1-7.21,18.211,43.334,43.334,0,0,1-14.181,13.473,38.526,38.526,0,0,1-8.6,3.706,40.387,40.387,0,0,1-8.854,1.479c-5.84.334-11.371-.115-16.529.016a50.2,50.2,0,0,0-7.42.652,38.887,38.887,0,0,0-6.615,1.805,38.64,38.64,0,0,0-16.52,12.145c-.785.945-1.364,1.872-1.917,2.638-.489.808-.928,1.48-1.245,2.043l-.7,1.294C335.2,156.774,335.107,156.916,335.107,156.916Z" transform="translate(-335.107 -28.338)"/><g transform="translate(91.013 10.542)"><path class="a" d="M424.181,38.658a10.812,10.812,0,0,1,1.567.911c.992.614,2.4,1.544,4.116,2.73a157.882,157.882,0,0,1,24.669,21.24c1.428,1.519,2.557,2.774,3.313,3.663a10.917,10.917,0,0,1,1.133,1.415,10.928,10.928,0,0,1-1.3-1.264l-3.439-3.532c-2.922-2.963-7.059-6.958-11.869-11.1s-9.379-7.636-12.743-10.085l-4.005-2.876A11.09,11.09,0,0,1,424.181,38.658Z" transform="translate(-424.18 -38.656)"/></g><g transform="translate(86.971 21.461)"><path class="a" d="M420.226,49.343a8.162,8.162,0,0,1,1.166,1.039l3.056,2.945c2.584,2.482,6.2,5.857,10.338,9.428s8.009,6.657,10.841,8.851l3.36,2.592a8.06,8.06,0,0,1,1.2,1,8.265,8.265,0,0,1-1.328-.819c-.836-.556-2.024-1.392-3.474-2.449-2.9-2.115-6.82-5.16-10.971-8.74s-7.733-7.013-10.248-9.573c-1.259-1.279-2.259-2.333-2.931-3.079A8.144,8.144,0,0,1,420.226,49.343Z" transform="translate(-420.224 -49.342)"/></g><g transform="translate(88.319 34.849)"><path class="a" d="M421.546,62.448a17.543,17.543,0,0,1,2.632,1.929c1.574,1.255,3.71,3.037,6.016,5.066s4.343,3.927,5.786,5.33a17.369,17.369,0,0,1,2.246,2.367,19.387,19.387,0,0,1-2.522-2.068l-5.892-5.2-5.9-5.188A19.246,19.246,0,0,1,421.546,62.448Z" transform="translate(-421.544 -62.445)"/></g><g transform="translate(78.171 50.934)"><path class="a" d="M411.615,78.191a11.242,11.242,0,0,1,2,1.463l4.653,3.71,4.7,3.655a11.242,11.242,0,0,1,1.89,1.6,10.042,10.042,0,0,1-2.129-1.269c-1.268-.854-2.982-2.091-4.815-3.533s-3.434-2.819-4.561-3.852A10.032,10.032,0,0,1,411.615,78.191Z" transform="translate(-411.612 -78.187)"/></g><g transform="translate(66.125 55.801)"><path class="a" d="M399.825,82.952c.063-.061,1.267,1.109,3.27,2.931s4.829,4.273,8.112,6.776,6.4,4.576,8.688,6.021,3.737,2.295,3.695,2.373a4.677,4.677,0,0,1-1.083-.478c-.681-.338-1.646-.865-2.822-1.547A87.337,87.337,0,0,1,402.816,86.18c-.97-.953-1.734-1.744-2.242-2.311A4.662,4.662,0,0,1,399.825,82.952Z" transform="translate(-399.823 -82.95)"/></g><g transform="translate(58.488 64.952)"><path class="a" d="M392.35,91.908c.1-.126,6.045,4.275,13.284,9.829s13.033,10.16,12.936,10.285-6.044-4.273-13.285-9.829S392.253,92.035,392.35,91.908Z" transform="translate(-392.349 -91.905)"/></g><g transform="translate(49.238 73.251)"><path class="a" d="M383.3,100.03a6.876,6.876,0,0,1,1.162.839l3.05,2.425c2.572,2.051,6.141,4.862,10.152,7.873s7.711,5.651,10.4,7.546l3.181,2.25a6.887,6.887,0,0,1,1.13.882,6.838,6.838,0,0,1-1.254-.695c-.788-.478-1.912-1.194-3.287-2.1-2.751-1.812-6.492-4.4-10.516-7.422s-7.557-5.884-10.065-8.018c-1.254-1.068-2.257-1.945-2.935-2.569A6.717,6.717,0,0,1,383.3,100.03Z" transform="translate(-383.296 -100.028)"/></g><g transform="translate(46.437 85.192)"><path class="a" d="M380.556,111.717c.1-.126,5.153,3.609,11.292,8.341s11.038,8.671,10.941,8.8-5.152-3.608-11.293-8.341S380.459,111.844,380.556,111.717Z" transform="translate(-380.555 -111.714)"/></g><g transform="translate(43.773 97.649)"><path class="a" d="M377.949,123.913a52.178,52.178,0,0,1,6.574,4.047,51.844,51.844,0,0,1,6.255,4.526,52.01,52.01,0,0,1-6.575-4.048A51.718,51.718,0,0,1,377.949,123.913Z" transform="translate(-377.947 -123.906)"/></g><g transform="translate(30.884 109.566)"><path class="a" d="M365.334,135.573a18.438,18.438,0,0,1,2.953,1.675c1.778,1.109,4.193,2.707,6.793,4.569s4.889,3.639,6.511,4.967a18.361,18.361,0,0,1,2.533,2.259,21.616,21.616,0,0,1-2.783-1.938c-1.682-1.243-4-2.961-6.6-4.82s-4.964-3.5-6.681-4.7A21.493,21.493,0,0,1,365.334,135.573Z" transform="translate(-365.333 -135.569)"/></g><g transform="translate(19.622 109.777)"><path class="a" d="M354.312,135.778a6.933,6.933,0,0,1,1.186.812c.742.551,1.8,1.372,3.085,2.406,2.576,2.067,6.066,5.011,9.794,8.405s6.983,6.6,9.281,8.971c1.149,1.185,2.065,2.159,2.683,2.847a6.981,6.981,0,0,1,.919,1.106,6.858,6.858,0,0,1-1.079-.949l-2.81-2.716c-2.368-2.295-5.662-5.444-9.381-8.833s-7.161-6.373-9.666-8.518l-2.965-2.545A6.865,6.865,0,0,1,354.312,135.778Z" transform="translate(-354.311 -135.776)"/></g><g transform="translate(10.171 118.162)"><path class="a" d="M345.062,143.984a8.1,8.1,0,0,1,1.281.9c.8.607,1.945,1.5,3.348,2.627,2.807,2.245,6.639,5.4,10.8,8.973s7.867,6.881,10.513,9.313c1.322,1.217,2.383,2.211,3.1,2.912a8.112,8.112,0,0,1,1.082,1.129,8.2,8.2,0,0,1-1.232-.964l-3.226-2.774-10.615-9.18-10.685-9.1-3.232-2.767A8.227,8.227,0,0,1,345.062,143.984Z" transform="translate(-345.061 -143.982)"/></g></g><g transform="translate(0 13.573)"><g transform="translate(25.235)"><path class="c" d="M327.745,42.005a15.463,15.463,0,0,1,5.581,10.746,27.3,27.3,0,0,1-1.939,12.189c-2.807,7.524-9.155,14.245-15.434,19.251-5.1-7.315-4.129-17.615-3.307-22.81,1.3-8.21,8.633-22.259,15.1-19.376" transform="translate(-311.984 -41.621)"/></g><g transform="translate(33.599 44.326)"><path class="c" d="M320.17,97.915a13.189,13.189,0,0,1,7.169-11.139,17.523,17.523,0,0,1,13.515-.793c2.034.675,4.125,1.839,4.887,3.843a5.644,5.644,0,0,1-1.3,5.57,11.442,11.442,0,0,1-5.116,3.022c-6.532,2.138-13.247,3.007-19.157-.5" transform="translate(-320.17 -85.003)"/></g><g transform="translate(21.412 51.749)"><path class="a" d="M308.251,113.745a25.925,25.925,0,0,1,2.145-4.857,24.652,24.652,0,0,1,3.279-4.788,54.1,54.1,0,0,1,4.853-5.155,26.418,26.418,0,0,1,11.251-6.174,19.153,19.153,0,0,1,3.882-.5,4.236,4.236,0,0,1,1.431.125c.006.163-2.04.112-5.149,1a28.307,28.307,0,0,0-10.813,6.228,63.529,63.529,0,0,0-4.826,5.025,27.134,27.134,0,0,0-3.351,4.557A38.4,38.4,0,0,1,308.251,113.745Z" transform="translate(-308.243 -92.268)"/></g><g transform="translate(20.072 11.575)"><path class="a" d="M323.215,52.95a15.453,15.453,0,0,1-.387,2.659c-.307,1.7-.784,4.152-1.4,7.178-1.232,6.05-3.027,14.391-5.236,23.552s-4.447,17.4-6.189,23.328c-.871,2.963-1.6,5.352-2.144,6.993a15.354,15.354,0,0,1-.92,2.524,15.384,15.384,0,0,1,.583-2.622c.482-1.825,1.111-4.2,1.867-7.066,1.584-5.964,3.718-14.215,5.927-23.368,2.125-9.091,4.048-17.315,5.489-23.476.679-2.883,1.243-5.278,1.678-7.116A15.308,15.308,0,0,1,323.215,52.95Z" transform="translate(-306.931 -52.95)"/></g><g transform="translate(0 31.92)"><path class="c" d="M310.3,98.7a30.86,30.86,0,0,0-14.357-24.268c-2.118-1.308-4.96-2.317-6.973-.853s-1.923,4.5-1.27,6.9a26.368,26.368,0,0,0,22.373,18.853" transform="translate(-287.287 -72.861)"/></g><g transform="translate(9.479 40.732)"><path class="a" d="M296.568,81.491c.04-.048.457.231,1.18.779s1.736,1.381,2.949,2.461a34.807,34.807,0,0,1,7.855,9.968,21.828,21.828,0,0,1,2.046,6.751,21.257,21.257,0,0,1-1.039,9.5,4.272,4.272,0,0,1-.558,1.3c-.173-.051.489-1.956.861-5.125a22.77,22.77,0,0,0-.086-5.559,22.459,22.459,0,0,0-2.032-6.465,39.123,39.123,0,0,0-7.488-9.905A44.846,44.846,0,0,1,296.568,81.491Z" transform="translate(-296.564 -81.486)"/></g></g></g><g transform="translate(86.755 77.642)"><path class="d" d="M11.55,0h237.5A11.549,11.549,0,0,1,260.6,11.549V362.436a11.549,11.549,0,0,1-11.549,11.549H11.549A11.549,11.549,0,0,1,0,362.436V11.55A11.55,11.55,0,0,1,11.55,0Z"/><g transform="translate(8.092 26.682)"><rect class="e" width="244.166" height="312.323"/></g><g transform="translate(120.302 345.192)"><path class="f" d="M245.97,452.161a10,10,0,1,1-10-10A10,10,0,0,1,245.97,452.161Z" transform="translate(-225.972 -442.161)"/></g><g transform="translate(91.055 10.771)"><rect class="f" width="78.49" height="4.131" rx="1.215"/></g><g transform="translate(35.175 117.86)"><path class="g" d="M342.2,228.989s-.009-.187-.014-.554-.009-.927-.016-1.664c-.01-1.494-.023-3.746-.043-6.831l.074.075c-24.185.11-104.311.192-199.261.192h-.01l.266-.267v9.049l-.266-.266,141.154.11,42.52.08,11.55.038,3.01.019c.679.006,1.037.018,1.037.018s-.332.012-1,.018l-2.974.019-11.488.038-42.458.08-141.351.11h-.266v-.266c0-2.865,0-5.949,0-9.049v-.266h.277c94.95,0,175.076.081,199.261.192h.075v.074c-.019,3.1-.033,5.369-.043,6.872-.007.732-.012,1.274-.016,1.648S342.2,228.989,342.2,228.989Z" transform="translate(-142.66 -219.674)"/></g><g transform="translate(32.528 105.577)"><path class="g" d="M179.182,207.919c0,.147-8.757.266-19.556.266s-19.558-.119-19.558-.266,8.755-.267,19.558-.267S179.182,207.772,179.182,207.919Z" transform="translate(-140.069 -207.652)"/></g><g transform="translate(32.261 256.245)"><path class="g" d="M339.346,364.425s-.009-.187-.014-.555-.009-.926-.017-1.664c-.009-1.494-.022-3.745-.042-6.83l.074.074c-24.185.111-104.311.192-199.261.192h-.01l.266-.266v9.048l-.266-.266,141.154.11,42.52.081,11.55.038,3.01.018c.679.006,1.037.019,1.037.019s-.332.012-1,.018l-2.974.018-11.488.038-42.458.081-141.351.11h-.266v-.267c0-2.865,0-5.948,0-9.048v-.267h.277c94.95,0,175.076.082,199.261.192h.075v.074c-.019,3.1-.033,5.369-.043,6.873-.007.731-.013,1.274-.016,1.647S339.346,364.425,339.346,364.425Z" transform="translate(-139.808 -355.109)"/></g><g transform="translate(34.29 247.146)"><path class="g" d="M180.907,346.47c0,.147-8.757.266-19.556.266s-19.558-.119-19.558-.266,8.755-.266,19.558-.266S180.907,346.323,180.907,346.47Z" transform="translate(-141.793 -346.204)"/></g><g transform="translate(32.261 152.452)"><path class="g" d="M339.346,262.843s-.009-.187-.014-.554-.009-.926-.017-1.664c-.009-1.494-.022-3.745-.042-6.83l.074.074c-24.185.111-104.311.192-199.261.192h-.01l.266-.266v9.048l-.266-.266,141.154.11,42.52.08,11.55.039,3.01.018c.679.006,1.037.018,1.037.018s-.332.013-1,.019l-2.974.018-11.488.038L281.426,263l-141.351.109h-.266v-.267c0-2.865,0-5.949,0-9.048v-.267h.277c94.95,0,175.076.082,199.261.192h.075v.074c-.019,3.1-.033,5.369-.043,6.873-.007.731-.013,1.274-.016,1.647S339.346,262.843,339.346,262.843Z" transform="translate(-139.808 -253.528)"/></g><g transform="translate(32.528 143.352)"><path class="g" d="M179.182,244.889c0,.147-8.757.266-19.556.266s-19.558-.119-19.558-.266,8.755-.267,19.558-.267S179.182,244.742,179.182,244.889Z" transform="translate(-140.069 -244.622)"/></g><g transform="translate(32.261 187.019)"><path class="g" d="M224.818,296.7s-.014-.211-.021-.606c-.007-.415-.015-.993-.028-1.742-.014-1.544-.036-3.79-.063-6.7l.112.112c-14.723.091-47.151.153-84.739.153h0c.117-.119-.268.266.264-.266v4.6c0,1.514,0,3,0,4.445l-.265-.265,60.138.115,18,.078,4.885.037,1.276.018c.289.006.447.018.447.018a3.173,3.173,0,0,1-.411.017l-1.241.018-4.825.037-17.936.079-60.33.113h-.265V296.7c0-1.443,0-2.93,0-4.445q0-1.137,0-2.291v-2.312c.532-.531.149-.147.269-.266h0c37.588,0,70.016.062,84.739.153h.113v.112c-.028,2.94-.049,5.207-.063,6.766-.011.739-.02,1.308-.027,1.717C224.832,296.514,224.818,296.7,224.818,296.7Z" transform="translate(-139.808 -287.359)"/></g><g transform="translate(32.528 177.944)"><g transform="translate(0 0)"><path class="g" d="M179.182,278.743c0,.147-8.757.267-19.556.267s-19.558-.12-19.558-.267,8.755-.266,19.558-.266S179.182,278.6,179.182,278.743Z" transform="translate(-140.069 -278.477)"/></g></g><g transform="translate(32.202 219.935)"><path class="g" d="M154.182,328.892a4.56,4.56,0,0,1-.046-.678c-.014-.493-.033-1.1-.054-1.838-.028-1.644-.065-3.86-.11-6.532l.21.21-14.1.055c-.059.058.5-.5.265-.265v1.194c0,.4,0,.791,0,1.182q0,1.172,0,2.308c-.006,1.512-.011,2.97-.016,4.363l-.244-.245c4.093.019,7.585.074,10.082.12l2.934.066a8.889,8.889,0,0,1,1.09.059,6.1,6.1,0,0,1-.985.058l-2.877.066c-2.483.047-6.044.1-10.243.12l-.244,0v-.246c-.005-1.393-.01-2.851-.015-4.363q0-1.136,0-2.308c0-.391,0-.785,0-1.182v-1.194c-.238.237.324-.325.268-.267l14.1.055h.213l0,.209c-.025,2.812-.073,5.1-.111,6.663-.021.718-.039,1.311-.053,1.791A2.741,2.741,0,0,1,154.182,328.892Z" transform="translate(-139.75 -319.573)"/></g><g transform="translate(50.826 219.935)"><path class="g" d="M172.409,328.892a4.551,4.551,0,0,1-.046-.678c-.014-.493-.033-1.1-.054-1.838-.028-1.644-.065-3.86-.11-6.532l.21.21-14.1.055c-.059.058.5-.5.265-.265v1.194c0,.4,0,.791,0,1.182q0,1.172,0,2.308c-.006,1.512-.011,2.97-.016,4.363l-.244-.245c4.093.019,7.585.074,10.082.12l2.934.066a8.889,8.889,0,0,1,1.09.059,6.1,6.1,0,0,1-.985.058l-2.877.066c-2.483.047-6.044.1-10.243.12l-.244,0v-.246c-.005-1.393-.01-2.851-.015-4.363q0-1.136,0-2.308c0-.391,0-.785,0-1.182v-1.194c-.238.237.324-.325.268-.267l14.1.055h.213l0,.209c-.025,2.812-.073,5.1-.111,6.663-.021.718-.039,1.311-.053,1.791A2.744,2.744,0,0,1,172.409,328.892Z" transform="translate(-157.977 -319.573)"/></g><g transform="translate(69.45 219.935)"><path class="g" d="M190.635,328.892a4.561,4.561,0,0,1-.046-.678c-.014-.493-.033-1.1-.054-1.838-.028-1.644-.065-3.86-.11-6.532l.21.21-14.1.055c-.059.058.5-.5.265-.265v1.194c0,.4,0,.791,0,1.182q0,1.172,0,2.308c-.006,1.512-.011,2.97-.016,4.363l-.244-.245c4.093.019,7.585.074,10.082.12l2.934.066a8.888,8.888,0,0,1,1.09.059,6.1,6.1,0,0,1-.985.058l-2.877.066c-2.483.047-6.044.1-10.243.12l-.244,0v-.246c-.005-1.393-.01-2.851-.015-4.363q0-1.136,0-2.308c0-.391,0-.785,0-1.182v-1.194c-.238.237.324-.325.268-.267l14.1.055h.213l0,.209c-.025,2.812-.073,5.1-.111,6.663-.021.718-.039,1.311-.053,1.791A2.745,2.745,0,0,1,190.635,328.892Z" transform="translate(-176.204 -319.573)"/></g><g transform="translate(88.074 219.935)"><path class="g" d="M208.863,328.892a4.552,4.552,0,0,1-.046-.678c-.014-.493-.033-1.1-.054-1.838-.028-1.644-.065-3.86-.11-6.532l.211.21-14.1.055c-.059.058.5-.5.265-.265v1.194c0,.4,0,.791,0,1.182q0,1.172,0,2.308c-.006,1.512-.011,2.97-.016,4.363l-.244-.245c4.093.019,7.585.074,10.082.12l2.932.066a8.9,8.9,0,0,1,1.091.059,6.1,6.1,0,0,1-.985.058l-2.877.066c-2.483.047-6.044.1-10.243.12l-.244,0v-.246c-.005-1.393-.01-2.851-.015-4.363q0-1.136,0-2.308c0-.391,0-.785,0-1.182v-1.194c-.238.237.324-.325.268-.267l14.1.055h.213l0,.209c-.025,2.812-.073,5.1-.111,6.663-.021.718-.039,1.311-.053,1.791A2.744,2.744,0,0,1,208.863,328.892Z" transform="translate(-194.431 -319.573)"/></g><g transform="translate(106.698 219.935)"><path class="g" d="M227.09,328.892a4.55,4.55,0,0,1-.046-.678c-.014-.493-.033-1.1-.054-1.838-.028-1.644-.065-3.86-.11-6.532l.21.21-14.1.055c-.059.058.5-.5.265-.265v1.194c0,.4,0,.791,0,1.182q0,1.172,0,2.308c-.006,1.512-.011,2.97-.016,4.363l-.244-.245c4.093.019,7.585.074,10.082.12l2.932.066a8.9,8.9,0,0,1,1.091.059,6.1,6.1,0,0,1-.985.058l-2.877.066c-2.483.047-6.044.1-10.243.12l-.244,0v-.246c-.005-1.393-.01-2.851-.015-4.363q0-1.136,0-2.308c0-.391,0-.785,0-1.182v-1.194c-.238.237.324-.325.268-.267l14.1.055h.213l0,.209c-.025,2.812-.073,5.1-.111,6.663-.021.718-.039,1.311-.053,1.791A2.746,2.746,0,0,1,227.09,328.892Z" transform="translate(-212.658 -319.573)"/></g><g transform="translate(125.322 219.935)"><path class="g" d="M245.316,328.892a4.553,4.553,0,0,1-.046-.678c-.014-.493-.033-1.1-.054-1.838-.028-1.644-.065-3.86-.11-6.532l.21.21-14.1.055c-.059.058.5-.5.265-.265v1.194c0,.4,0,.791,0,1.182q0,1.172,0,2.308c-.006,1.512-.011,2.97-.016,4.363l-.244-.245c4.093.019,7.585.074,10.082.12l2.933.066a8.9,8.9,0,0,1,1.091.059,6.1,6.1,0,0,1-.985.058l-2.877.066c-2.483.047-6.044.1-10.243.12l-.244,0v-.246c-.005-1.393-.01-2.851-.015-4.363q0-1.136,0-2.308c0-.391,0-.785,0-1.182v-1.194c-.238.237.324-.325.268-.267l14.1.055h.213l0,.209c-.025,2.812-.073,5.1-.111,6.663-.021.718-.039,1.311-.053,1.791A2.743,2.743,0,0,1,245.316,328.892Z" transform="translate(-230.885 -319.573)"/></g><g transform="translate(143.946 219.935)"><path class="g" d="M263.544,328.892a4.558,4.558,0,0,1-.046-.678c-.014-.493-.033-1.1-.054-1.838-.028-1.644-.065-3.86-.11-6.532l.21.21-14.1.055c-.059.058.5-.5.265-.265v1.194c0,.4,0,.791,0,1.182q0,1.172,0,2.308c-.006,1.512-.011,2.97-.016,4.363l-.244-.245c4.093.019,7.585.074,10.082.12l2.932.066a8.9,8.9,0,0,1,1.091.059,6.1,6.1,0,0,1-.985.058l-2.877.066c-2.483.047-6.044.1-10.243.12l-.244,0v-.246c-.005-1.393-.01-2.851-.015-4.363q0-1.136,0-2.308c0-.391,0-.785,0-1.182v-1.194c-.238.237.324-.325.268-.267l14.1.055h.213l0,.209c-.025,2.812-.073,5.1-.111,6.663-.021.718-.039,1.311-.053,1.791A2.742,2.742,0,0,1,263.544,328.892Z" transform="translate(-249.112 -319.573)"/></g><g transform="translate(162.569 219.935)"><path class="g" d="M281.771,328.892a4.552,4.552,0,0,1-.046-.678c-.014-.493-.033-1.1-.054-1.838-.028-1.644-.065-3.86-.11-6.532l.211.21-14.1.055c-.059.058.5-.5.265-.265v1.194c0,.4,0,.791,0,1.182q0,1.172,0,2.308c-.006,1.512-.011,2.97-.016,4.363l-.244-.245c4.093.019,7.585.074,10.082.12l2.932.066a8.9,8.9,0,0,1,1.091.059,6.1,6.1,0,0,1-.985.058l-2.877.066c-2.483.047-6.044.1-10.243.12l-.244,0v-.246c-.005-1.393-.01-2.851-.015-4.363q0-1.136,0-2.308c0-.391,0-.785,0-1.182v-1.194c-.238.237.324-.325.268-.267l14.1.055h.211v.209c-.025,2.812-.073,5.1-.111,6.663-.021.718-.039,1.311-.053,1.791A2.75,2.75,0,0,1,281.771,328.892Z" transform="translate(-267.339 -319.573)"/></g><g transform="translate(181.193 219.935)"><path class="g" d="M300,328.892a4.394,4.394,0,0,1-.046-.678c-.014-.493-.033-1.1-.054-1.838-.028-1.644-.065-3.86-.11-6.532l.21.21-14.1.055c-.059.058.5-.5.265-.265v1.194c0,.4,0,.791,0,1.182q0,1.172,0,2.308c-.006,1.512-.011,2.97-.016,4.363l-.244-.245c4.093.019,7.585.074,10.082.12l2.933.066a8.9,8.9,0,0,1,1.091.059,6.1,6.1,0,0,1-.985.058l-2.877.066c-2.483.047-6.044.1-10.243.12l-.244,0v-.246c-.005-1.393-.01-2.851-.016-4.363q0-1.136,0-2.308c0-.391,0-.785,0-1.182v-1.194c-.238.237.324-.325.268-.267l14.1.055h.212v.209c-.025,2.812-.073,5.1-.111,6.663-.021.718-.039,1.311-.053,1.791A2.743,2.743,0,0,1,300,328.892Z" transform="translate(-285.566 -319.573)"/></g><g transform="translate(199.817 219.935)"><path class="g" d="M318.225,328.892a4.379,4.379,0,0,1-.046-.678c-.014-.493-.033-1.1-.054-1.838-.028-1.644-.065-3.86-.11-6.532l.21.21-14.1.055c-.059.058.5-.5.265-.265v1.194c0,.4,0,.791,0,1.182q0,1.172,0,2.308c-.006,1.512-.011,2.97-.016,4.363l-.244-.245c4.093.019,7.585.074,10.082.12l2.933.066a8.9,8.9,0,0,1,1.091.059,6.1,6.1,0,0,1-.985.058l-2.877.066c-2.483.047-6.044.1-10.243.12l-.244,0v-.246c-.005-1.393-.01-2.851-.016-4.363q0-1.136,0-2.308c0-.391,0-.785,0-1.182v-1.194c-.238.237.324-.325.268-.267l14.1.055h.211v.209c-.024,2.812-.073,5.1-.111,6.663-.021.718-.039,1.311-.053,1.791A2.753,2.753,0,0,1,318.225,328.892Z" transform="translate(-303.793 -319.573)"/></g><g transform="translate(218.441 219.935)"><path class="g" d="M336.452,328.892a4.38,4.38,0,0,1-.046-.678c-.014-.493-.033-1.1-.054-1.838-.028-1.644-.065-3.86-.11-6.532l.211.21-14.1.055c-.059.058.5-.5.265-.265v1.194c0,.4,0,.791,0,1.182q0,1.172,0,2.308c-.006,1.512-.011,2.97-.016,4.363l-.244-.245c4.093.019,7.585.074,10.082.12l2.932.066a8.9,8.9,0,0,1,1.091.059,6.1,6.1,0,0,1-.985.058l-2.877.066c-2.483.047-6.044.1-10.243.12l-.244,0v-.246c-.005-1.393-.01-2.851-.016-4.363q0-1.136,0-2.308c0-.391,0-.785,0-1.182v-1.194c-.238.237.324-.325.268-.267l14.1.055h.212v.209c-.025,2.812-.073,5.1-.111,6.663-.021.718-.039,1.311-.053,1.791A2.75,2.75,0,0,1,336.452,328.892Z" transform="translate(-322.02 -319.573)"/></g><g transform="translate(34.29 210.839)"><path class="g" d="M180.907,310.937c0,.147-8.757.267-19.556.267s-19.558-.12-19.558-.267,8.755-.266,19.558-.266S180.907,310.791,180.907,310.937Z" transform="translate(-141.793 -310.671)"/></g><g transform="translate(145.378 187.019)"><path class="g" d="M335.524,296.7s-.014-.211-.021-.606c-.007-.415-.015-.993-.028-1.742-.014-1.544-.036-3.79-.063-6.7l.112.112c-14.723.091-47.151.153-84.739.153h0c.117-.119-.268.266.264-.266v4.6c0,1.514,0,3,0,4.445l-.265-.265,60.138.115,18,.078,4.885.037,1.276.018c.289.006.447.018.447.018a3.173,3.173,0,0,1-.411.017l-1.241.018-4.825.037-17.936.079-60.33.113h-.265V296.7c0-1.443,0-2.93,0-4.445v-4.6c.532-.531.149-.147.269-.266h0c37.588,0,70.016.062,84.739.153h.113v.112c-.028,2.94-.049,5.207-.063,6.766-.012.739-.021,1.308-.027,1.717C335.538,296.514,335.524,296.7,335.524,296.7Z" transform="translate(-250.514 -287.359)"/></g><g transform="translate(147.406 177.944)"><g transform="translate(0 0)"><path class="g" d="M291.612,278.743c0,.147-8.757.267-19.556.267s-19.558-.12-19.558-.267,8.755-.266,19.558-.266S291.612,278.6,291.612,278.743Z" transform="translate(-252.499 -278.477)"/></g></g></g><g transform="translate(5.481 450.714)"><path class="h" d="M474.815,469.713c0,.147-99.876.267-223.051.267-123.217,0-223.072-.119-223.072-.267s99.855-.266,223.072-.266C374.938,469.447,474.815,469.566,474.815,469.713Z" transform="translate(-28.692 -469.447)"/></g><g transform="translate(338.297 116.397)"><g transform="translate(0 0)"><g transform="translate(53.285 308.27)"><path class="a" d="M423.648,444.421,422.6,461.466s16.974,6.79,17.087,9.958l-33.122-.845.543-26.624Z" transform="translate(-406.565 -443.955)"/><g class="i" transform="translate(4.833 15.766)"><path class="g" d="M412.292,459.434a1.352,1.352,0,0,0-.975,1.519,1.3,1.3,0,0,0,1.5.98,1.429,1.429,0,0,0,1.024-1.615,1.351,1.351,0,0,0-1.672-.846" transform="translate(-411.295 -459.385)"/></g><g class="i" transform="translate(0 23.943)"><path class="g" d="M406.565,470.069l.159-2.681,31.7,1.813s1.458.678,1.265,1.714Z" transform="translate(-406.565 -467.388)"/></g><g transform="translate(13.512 17.193)"><path class="h" d="M422.853,460.945c-.009.161-.821.215-1.629.714-.823.479-1.251,1.169-1.4,1.1-.148-.036.118-1,1.108-1.585S422.892,460.8,422.853,460.945Z" transform="translate(-419.789 -460.781)"/></g><g transform="translate(17.763 18.811)"><path class="h" d="M426.2,462.435c.033.158-.674.415-1.242,1.085-.586.653-.744,1.39-.9,1.378-.152.021-.24-.929.48-1.748S426.2,462.281,426.2,462.435Z" transform="translate(-423.949 -462.365)"/></g><g transform="translate(21.702 20.33)"><path class="h" d="M427.983,466.612c-.147.031-.351-.784.086-1.658s1.2-1.209,1.268-1.072c.089.135-.415.6-.763,1.322C428.208,465.919,428.144,466.6,427.983,466.612Z" transform="translate(-427.804 -463.852)"/></g><g transform="translate(12.936 12.822)"><path class="h" d="M422.673,457.127c-.072.145-.808-.1-1.724-.058-.917.02-1.636.31-1.717.169-.091-.12.619-.7,1.7-.732S422.756,457,422.673,457.127Z" transform="translate(-419.225 -456.504)"/></g><g class="j" transform="translate(0.414 2.806)"><path d="M423.427,447.737l-.183,3.038-16.275-.563.063-3.51Z" transform="translate(-406.97 -446.701)"/></g><g transform="translate(11.544 7.228)"><path class="h" d="M422.851,453.8a3.1,3.1,0,0,1-1.659-.05,7.5,7.5,0,0,1-1.722-.577,7.88,7.88,0,0,1-.939-.53,2.044,2.044,0,0,1-.492-.4.706.706,0,0,1-.052-.862.886.886,0,0,1,.718-.352,2.152,2.152,0,0,1,.619.1,6.041,6.041,0,0,1,1.023.38,5.876,5.876,0,0,1,1.5,1.043c.75.732,1,1.343.941,1.372-.075.051-.436-.465-1.2-1.072a6.63,6.63,0,0,0-1.458-.872,6.144,6.144,0,0,0-.945-.318c-.348-.1-.647-.111-.741.043-.035.058-.039.082.032.186a1.659,1.659,0,0,0,.361.294,8.539,8.539,0,0,0,.863.523,9.217,9.217,0,0,0,1.588.656A11.686,11.686,0,0,1,422.851,453.8Z" transform="translate(-417.863 -451.029)"/></g><g transform="translate(15.917 4.998)"><path class="h" d="M422.541,454.077a2.633,2.633,0,0,1-.4-1.613,5.353,5.353,0,0,1,.72-2.807,1.373,1.373,0,0,1,1.079-.81.775.775,0,0,1,.681.48,2.22,2.22,0,0,1,.154.612,3.7,3.7,0,0,1-.027,1.118,3.823,3.823,0,0,1-.752,1.7c-.669.842-1.35,1.018-1.362.964-.051-.083.52-.381,1.036-1.194a3.827,3.827,0,0,0,.565-1.545,3.431,3.431,0,0,0-.006-.959c-.043-.354-.168-.641-.3-.608-.164-.007-.452.251-.594.528a5.563,5.563,0,0,0-.434.889,5.977,5.977,0,0,0-.364,1.647C422.473,453.445,422.63,454.055,422.541,454.077Z" transform="translate(-422.143 -448.847)"/></g></g><g transform="translate(50.901 204.913)"><path class="h" d="M430.565,342.8l-26.333,8.461c.313.233,4.886,29.83,4.886,29.83l-3.807,78.546,20.9.255,9.353-82.4Z" transform="translate(-404.232 -342.8)"/></g><g transform="translate(23.935 308.673)"><path class="a" d="M394.389,444.349l-.531,17.069s17.172,6.272,17.38,9.436l-33.132.159-.265-26.63Z" transform="translate(-377.841 -444.349)"/><g class="i" transform="translate(4.806 15.624)"><path class="g" d="M383.5,459.7a1.354,1.354,0,0,0-.929,1.549,1.3,1.3,0,0,0,1.528.933,1.427,1.427,0,0,0,.974-1.645,1.349,1.349,0,0,0-1.7-.795" transform="translate(-382.545 -459.64)"/></g><g class="i" transform="translate(0.265 23.979)"><path class="g" d="M378.1,470.5l.079-2.685,31.737.851s1.477.635,1.316,1.675Z" transform="translate(-378.1 -467.817)"/></g><g transform="translate(13.541 16.75)"><path class="h" d="M394.105,460.889c-.005.162-.813.239-1.607.763-.807.5-1.214,1.206-1.363,1.143-.149-.032.088-1,1.06-1.618S394.139,460.741,394.105,460.889Z" transform="translate(-391.094 -460.742)"/></g><g transform="translate(17.849 18.253)"><path class="h" d="M397.5,462.277c.038.157-.662.435-1.208,1.123-.567.67-.7,1.411-.863,1.4-.151.026-.268-.921.427-1.763S397.49,462.124,397.5,462.277Z" transform="translate(-395.309 -462.213)"/></g><g transform="translate(21.831 19.67)"><path class="h" d="M399.4,466.4c-.147.035-.376-.772.036-1.66s1.166-1.245,1.234-1.11c.093.132-.4.61-.722,1.345C399.608,465.7,399.565,466.38,399.4,466.4Z" transform="translate(-399.207 -463.6)"/></g><g transform="translate(12.798 12.42)"><path class="h" d="M393.81,457.078c-.067.148-.81-.072-1.725-.005-.916.048-1.626.358-1.711.22-.094-.117.6-.718,1.676-.782S393.889,456.951,393.81,457.078Z" transform="translate(-390.367 -456.504)"/></g><g class="j" transform="translate(0.019 2.842)"><path d="M394.279,447.669l-.09,3.042-16.285-.07-.043-3.511Z" transform="translate(-377.86 -447.13)"/></g><g transform="translate(11.238 6.899)"><path class="h" d="M393.887,453.75a3.115,3.115,0,0,1-1.659,0,7.406,7.406,0,0,1-1.738-.524,7.808,7.808,0,0,1-.955-.5,2.017,2.017,0,0,1-.5-.387.7.7,0,0,1-.079-.86.89.89,0,0,1,.707-.374,2.185,2.185,0,0,1,.622.084,5.942,5.942,0,0,1,1.034.348,5.846,5.846,0,0,1,1.535,1c.772.708,1.037,1.311.982,1.343-.073.054-.45-.451-1.234-1.035a6.617,6.617,0,0,0-1.484-.827,6.193,6.193,0,0,0-.954-.289c-.352-.09-.65-.091-.739.065-.033.059-.037.083.037.185a1.646,1.646,0,0,0,.37.284,9.052,9.052,0,0,0,.879.5,9.157,9.157,0,0,0,1.607.607A11.387,11.387,0,0,1,393.887,453.75Z" transform="translate(-388.839 -451.101)"/></g><g transform="translate(15.623 4.511)"><path class="h" d="M393.584,454.034a2.649,2.649,0,0,1-.444-1.6,5.393,5.393,0,0,1,.217-1.818,5.469,5.469,0,0,1,.418-1.009,1.373,1.373,0,0,1,1.055-.842.775.775,0,0,1,.7.459,2.252,2.252,0,0,1,.173.608,3.692,3.692,0,0,1,.007,1.117,3.815,3.815,0,0,1-.7,1.718c-.643.862-1.317,1.059-1.331,1-.054-.082.508-.4,1-1.224a3.831,3.831,0,0,0,.518-1.561,3.425,3.425,0,0,0-.036-.959c-.053-.351-.187-.635-.319-.6-.165,0-.443.266-.577.547a5.563,5.563,0,0,0-.407.9,6.005,6.005,0,0,0-.314,1.657C393.5,453.4,393.671,454.009,393.584,454.034Z" transform="translate(-393.131 -448.763)"/></g></g><g transform="translate(19.282 209.105)"><path class="h" d="M373.287,346.9c0,5.94,2.35,116.219,2.35,116.219l19.834-1.77,4.051-67.763,2.133-5.907,2.487-36.51Z" transform="translate(-373.287 -346.903)"/></g><g transform="translate(0 45.51)"><g transform="translate(58.185 20.596)"><path class="k" d="M414.483,206.952c.27.357,15.76,24.935,15.76,24.935l17.42-18.228,8.909,12.865s-18.628,26.293-21.36,27.244-11.55-.545-11.55-.545l-12.3-16.237Z" transform="translate(-411.361 -206.952)"/></g><g transform="translate(76.868 45.531)"><path class="h" d="M429.98,237.033a7.057,7.057,0,0,1-.334-2.836,8.744,8.744,0,0,1,.2-2.841,7.06,7.06,0,0,1,.334,2.837A8.778,8.778,0,0,1,429.98,237.033Z" transform="translate(-429.646 -231.356)"/></g><g transform="translate(4.153 2.267)"><path class="k" d="M376.245,189.014l-2.676,6.6s-13.741,11.6-14.99,13.384,9.815,59.6,9.815,59.6-.714,84.943,0,84.943,10.172,3.034,29.622,1.606,23.021-3.39,23.021-3.39l-6.067-75.129-9.282-50.5-15.929-20.521Z" transform="translate(-358.481 -189.014)"/></g><g transform="translate(22.481)"><path class="l" d="M407.164,217.727s-2.031-9.8-1.867-10.105-4.58-11.882-4.58-11.882-1.59-5.3-1.59-5.28S377.47,186.8,377.47,186.8l-1.052,3.273,28.879,36.49,2.957,15.662,3.059-4.271Z" transform="translate(-376.418 -186.795)"/></g><g transform="translate(46.038 6.47)"><path class="k" d="M425.983,291.347l-4.7-56.522-3.853-22.054a23.879,23.879,0,0,0-3.463-8.83l-11.275-6.512a48.641,48.641,0,0,1-3.218-4.3l5.322,13.6,1.867,10.865,1.161,24.926h0l6.149,33.454,6,73.594,13.06-2.549Z" transform="translate(-399.473 -193.127)"/></g><g transform="translate(46.038 6.47)"><path class="k" d="M408.286,225.5l2.526-18.543-8.121-9.529-3.218-4.3,4.992,14.357Z" transform="translate(-399.473 -193.127)"/></g><g transform="translate(37.886 45.531)"><path class="l" d="M395.629,259.279l19.626-27.923,34.163,10.337-25.843,33.425-32.081-10.43Z" transform="translate(-391.494 -231.356)"/><g transform="translate(46.252 8.202)"><path class="h" d="M438.451,240.228a.845.845,0,1,1-.845-.845A.846.846,0,0,1,438.451,240.228Z" transform="translate(-436.761 -239.383)"/></g><g transform="translate(32.599 4.392)"><path class="h" d="M425.09,236.5a.846.846,0,1,1-.845-.845A.846.846,0,0,1,425.09,236.5Z" transform="translate(-423.399 -235.654)"/></g></g><g transform="translate(55.394 27.583)"><g transform="translate(0.762)"><path class="h" d="M409.38,213.79c-.055.014.369,1.822.946,4.036s1.089,4,1.144,3.985-.37-1.821-.947-4.036S409.434,213.776,409.38,213.79Z" transform="translate(-409.375 -213.79)"/></g><g transform="translate(0 6.548)"><g transform="translate(0 0.156)"><g transform="translate(0.099 0.07)"><path class="m" d="M415.91,226.178a4.24,4.24,0,0,1-.305,2.35,2.892,2.892,0,0,1-1.767,1.623,3.228,3.228,0,0,1-3.118-.665,8.12,8.12,0,0,1-1.953-5.9A3.58,3.58,0,0,1,411,220.547a3.238,3.238,0,0,1,3.695,1.587" transform="translate(-408.726 -220.42)"/></g><path class="h" d="M414.7,222.135a2.61,2.61,0,0,0-.522-.738,3.47,3.47,0,0,0-.84-.658,3.007,3.007,0,0,0-1.363-.386,3.048,3.048,0,0,0-.827.081,2.471,2.471,0,0,0-.839.34,3.536,3.536,0,0,0-1.261,1.515,4.627,4.627,0,0,0-.417,2.135,8.477,8.477,0,0,0,.417,2.293,6.428,6.428,0,0,0,1.822,3.023,3.032,3.032,0,0,0,1.507.621,3.528,3.528,0,0,0,1.489-.132l-.011,0a2.211,2.211,0,0,0,.956-.52,3.482,3.482,0,0,0,.629-.736,3.958,3.958,0,0,0,.512-1.466,3.784,3.784,0,0,0,.025-.991,2.537,2.537,0,0,0-.041-.256c-.013-.057-.021-.086-.026-.085a5.311,5.311,0,0,1-.052,1.316,4,4,0,0,1-.531,1.409,3.4,3.4,0,0,1-.615.694,2.092,2.092,0,0,1-.89.472h0l-.008,0a3.136,3.136,0,0,1-2.82-.485,6.3,6.3,0,0,1-1.748-2.933,5.957,5.957,0,0,1-.023-4.287,3.4,3.4,0,0,1,1.181-1.452,2.338,2.338,0,0,1,.784-.329,2.933,2.933,0,0,1,2.1.252,3.6,3.6,0,0,1,.838.613A7.22,7.22,0,0,1,414.7,222.135Z" transform="translate(-408.629 -220.351)"/></g><g transform="translate(0.908)"><g transform="translate(0.099 0.07)"><path class="m" d="M416.8,226.024a4.241,4.241,0,0,1-.306,2.351A2.891,2.891,0,0,1,414.727,230a3.229,3.229,0,0,1-3.118-.665,8.122,8.122,0,0,1-1.953-5.9,3.58,3.58,0,0,1,2.238-3.041,3.239,3.239,0,0,1,3.695,1.587" transform="translate(-409.615 -220.267)"/></g><path class="h" d="M415.59,221.982a2.638,2.638,0,0,0-.522-.738,3.479,3.479,0,0,0-.841-.658,3,3,0,0,0-1.362-.386,3.1,3.1,0,0,0-.828.08,2.511,2.511,0,0,0-.839.341,3.534,3.534,0,0,0-1.26,1.515,4.614,4.614,0,0,0-.417,2.135,8.434,8.434,0,0,0,.417,2.293,6.412,6.412,0,0,0,1.822,3.023,3.041,3.041,0,0,0,1.507.621,3.545,3.545,0,0,0,1.489-.132l-.011,0a2.216,2.216,0,0,0,.956-.52,3.465,3.465,0,0,0,.629-.737,3.947,3.947,0,0,0,.512-1.465,3.782,3.782,0,0,0,.025-.991,2.479,2.479,0,0,0-.041-.257.275.275,0,0,0-.026-.086,5.325,5.325,0,0,1-.052,1.317,4,4,0,0,1-.531,1.409,3.4,3.4,0,0,1-.615.694,2.079,2.079,0,0,1-.89.471h0l-.008,0a3.142,3.142,0,0,1-2.821-.485,6.308,6.308,0,0,1-1.747-2.933,5.951,5.951,0,0,1-.023-4.287,3.384,3.384,0,0,1,1.181-1.452,2.333,2.333,0,0,1,.783-.329,2.933,2.933,0,0,1,2.1.252,3.559,3.559,0,0,1,.838.613A7.163,7.163,0,0,1,415.59,221.982Z" transform="translate(-409.518 -220.198)"/></g><g transform="translate(3.888 1.537)"><g transform="translate(0.07 0.044)"><path class="m" d="M413.95,221.9a2.018,2.018,0,0,1,2.344.643,3.482,3.482,0,0,1,.641,2.478,3.158,3.158,0,0,1-.341,1.28,1.723,1.723,0,0,1-.988.846,2.035,2.035,0,0,1-1.809-.518,3.647,3.647,0,0,1-1.294-2.771,1.69,1.69,0,0,1,.985-1.7" transform="translate(-412.503 -221.745)"/></g><path class="h" d="M413.49,222.163a.356.356,0,0,0-.151.035,1.108,1.108,0,0,0-.376.247,2.086,2.086,0,0,0-.527,1.533,3.705,3.705,0,0,0,.84,2.261,3.118,3.118,0,0,0,1.141.9,1.7,1.7,0,0,0,1.556-.031,2.109,2.109,0,0,0,.921-1.261,4.422,4.422,0,0,0,.146-1.439,3.017,3.017,0,0,0-.977-2.194,2.111,2.111,0,0,0-1.544-.5,1.5,1.5,0,0,0-.433.111c-.091.046-.137.073-.134.08a2.852,2.852,0,0,1,.574-.111,2.079,2.079,0,0,1,1.444.527,2.908,2.908,0,0,1,.882,2.094,4.324,4.324,0,0,1-.149,1.371,1.923,1.923,0,0,1-.832,1.141,1.506,1.506,0,0,1-1.374.025,2.969,2.969,0,0,1-1.076-.832,3.619,3.619,0,0,1-.841-2.147,2.058,2.058,0,0,1,.441-1.472A1.62,1.62,0,0,1,413.49,222.163Z" transform="translate(-412.434 -221.702)"/></g><g transform="translate(5.078 7.067)"><path class="h" d="M413.638,228.524c.032,0,.041-.138.131-.325a1.47,1.47,0,0,1,.539-.584,3.737,3.737,0,0,1,.764-.331c.208-.07.338-.123.331-.151s-.144-.025-.366.011a2.313,2.313,0,0,0-.838.3,1.3,1.3,0,0,0-.566.706C413.567,228.379,413.614,228.527,413.638,228.524Z" transform="translate(-413.6 -227.114)"/></g><g transform="translate(3.057 1.615)"><path class="h" d="M411.622,221.962c-.013.021.094.121.307.215a1.951,1.951,0,0,0,1.75-.134c.2-.126.287-.239.271-.259a4.825,4.825,0,0,1-1.145.329A4.774,4.774,0,0,1,411.622,221.962Z" transform="translate(-411.621 -221.779)"/></g></g></g><g transform="translate(21.254 23.681)"><g transform="translate(17.273 25.837)"><path class="h" d="M396.263,235.448c-1.037.292-2.187-.464-3.192-.078a1.5,1.5,0,1,0,1.159,2.759c1.035-.473,1.256-1.937,2.233-2.521" transform="translate(-392.123 -235.258)"/></g><path class="h" d="M388.227,239.684a6.509,6.509,0,0,0,.933-.39l-.169-.331a4.275,4.275,0,0,1-3.361.407,6.2,6.2,0,0,1-3.328-3.439l-.035-.07c-.365-.733-5.419-15.8-6.349-18.668a5.144,5.144,0,0,1,2.445-6.446c.149-.081,3.532-1.836,7.017,2.445,3.647,4.485,10.024,13.336,10.609,14.426.072.134.168.3.279.485.81,1.376,2.5,4.239,1.014,6.682-1.652,2.724-3.71,2.543-3.8,2.534l-.041.37c.1.009,2.373.227,4.155-2.712,1.6-2.633-.165-5.625-1.012-7.062-.108-.184-.2-.343-.272-.473-.59-1.1-6.991-9.989-10.648-14.485-3.686-4.532-7.439-2.563-7.475-2.541a5.589,5.589,0,0,0-2.628,6.892c.766,2.363,5.983,17.94,6.371,18.718l.034.069a6.545,6.545,0,0,0,3.545,3.627A4.271,4.271,0,0,0,388.227,239.684Z" transform="translate(-375.217 -209.972)"/><g transform="translate(1.359 3.275)"><path class="h" d="M376.649,220.072a6.944,6.944,0,0,1,.165-2,6.3,6.3,0,0,1,2.829-3.772,6.985,6.985,0,0,1,4.663-.865,8.273,8.273,0,0,1,1.917.611c0-.006-.037-.035-.115-.083a3.26,3.26,0,0,0-.357-.2,5.6,5.6,0,0,0-1.42-.467,6.91,6.91,0,0,0-4.787.835,6.345,6.345,0,0,0-1.97,1.872,6.189,6.189,0,0,0-.893,2.033,4.955,4.955,0,0,0-.119,1.492,3,3,0,0,0,.052.4A.414.414,0,0,0,376.649,220.072Z" transform="translate(-376.548 -213.177)"/></g></g><g transform="translate(19.242 2.268)"><path class="k" d="M373.248,195.617l16.942,20.99,15.177,9.525-29.442-37.118Z" transform="translate(-373.248 -189.014)"/></g><g transform="translate(0.126 21.718)"><path class="k" d="M358.665,208.586s-3.552,5.6-4.119,11.323c-.222,2.245,5.356,44.263,5.987,46.154s8.033,6.616,10.238,7.561,29.142,9.924,40.168,9.766L413.3,262.6l-28.353-4.726s-3.307-3.151-5.04-3.781l-2.363-23.155-3.465-18.588S364.2,206.241,358.665,208.586Z" transform="translate(-354.54 -208.05)"/></g><g transform="translate(61.668 19.843)"><path class="h" d="M421.076,233.794c-.143.033-1.668-6.114-3.407-13.73s-3.033-13.816-2.889-13.849,1.669,6.114,3.407,13.732S421.219,233.761,421.076,233.794Z" transform="translate(-414.77 -206.215)"/></g><g transform="translate(0 22.254)"><path class="h" d="M376.149,228.872s.039.145.091.433c.052.311.124.737.217,1.285.184,1.156.449,2.824.789,4.97.669,4.357,1.636,10.649,2.842,18.494l-.115-.142a11.525,11.525,0,0,1,2.639,1.674c.837.658,1.657,1.371,2.475,2.133l-.1-.052,28.361,4.677.231.038-.027.233c-.734,6.5-1.525,13.51-2.347,20.794l-.027.236-.23,0c-5.13-.068-10.344-1.2-15.6-2.432-6.54-1.567-12.836-3.43-18.871-5.362-1.506-.491-3-.98-4.467-1.5a18.951,18.951,0,0,1-4.177-2.055c-1.3-.8-2.567-1.634-3.777-2.518a18.206,18.206,0,0,1-3.352-2.967,2.173,2.173,0,0,1-.481-1.061c-.088-.371-.146-.728-.2-1.081q-.172-1.067-.34-2.118-.313-2.1-.617-4.15-.569-4.1-1.1-7.943c-.695-5.128-1.315-9.908-1.856-14.275s-1.01-8.319-1.365-11.8c-.079-.872-.179-1.708-.23-2.522a9.547,9.547,0,0,1-.015-2.364,27.923,27.923,0,0,1,.959-3.994,31.369,31.369,0,0,1,2.2-5.229c.3-.573.561-1,.737-1.279a4.437,4.437,0,0,1,.286-.414s-.078.152-.239.441-.4.721-.688,1.3a33.437,33.437,0,0,0-2.095,5.242,28.154,28.154,0,0,0-.907,3.973,9.35,9.35,0,0,0,.04,2.3c.058.807.166,1.645.251,2.514.382,3.472.879,7.42,1.442,11.783.586,4.362,1.229,9.137,1.919,14.262q.547,3.841,1.13,7.937.31,2.041.627,4.143.172,1.047.345,2.108c.058.354.119.708.2,1.041a1.708,1.708,0,0,0,.4.891,17.876,17.876,0,0,0,3.253,2.857c1.2.872,2.453,1.7,3.747,2.487a18.357,18.357,0,0,0,4.086,2c1.459.517,2.951,1,4.454,1.493,6.025,1.921,12.314,3.778,18.834,5.34,5.235,1.228,10.448,2.354,15.469,2.425l-.257.233c.833-7.283,1.635-14.292,2.379-20.791l.2.271-28.345-4.775-.059-.01-.045-.041c-.8-.754-1.616-1.469-2.437-2.122a11.3,11.3,0,0,0-2.529-1.633l-.1-.041-.014-.1c-1.137-7.856-2.05-14.157-2.681-18.519-.3-2.152-.533-3.824-.7-4.984-.072-.551-.127-.98-.168-1.292C376.154,229.022,376.149,228.872,376.149,228.872Z" transform="translate(-354.416 -208.575)"/></g><g transform="translate(7.067 23.463)"><path class="h" d="M374.327,222.6a17.4,17.4,0,0,1-1.307-2.527,28.187,28.187,0,0,0-3.54-5.776,12.661,12.661,0,0,0-5.407-3.865,20.388,20.388,0,0,0-2.74-.6,1.878,1.878,0,0,1,.768-.081,7.719,7.719,0,0,1,2.085.319,12.011,12.011,0,0,1,5.7,3.881,23.667,23.667,0,0,1,3.475,5.963A13.312,13.312,0,0,1,374.327,222.6Z" transform="translate(-361.332 -209.758)"/></g><g transform="translate(15.521 67.692)"><path class="h" d="M369.612,256.978a10.846,10.846,0,0,1,9.827-3.767,17.095,17.095,0,0,0-9.827,3.767Z" transform="translate(-369.607 -253.045)"/></g><g transform="translate(18.727 67.721)"><path class="h" d="M372.759,260.266a10.557,10.557,0,0,1,7.036-7.179,17.424,17.424,0,0,0-7.036,7.179Z" transform="translate(-372.744 -253.073)"/></g><g transform="translate(19.032 2.267)"><path class="h" d="M405.371,226.132a7.827,7.827,0,0,1-1.174-.637l-3.187-1.914-10.95-6.76-.036-.021-.027-.034-5.092-6.286c-4.686-5.807-8.886-11.062-11.8-14.748l-.068-.087.041-.1,2.039-4.811c.23-.515.42-.94.574-1.289a1.843,1.843,0,0,1,.232-.434,1.772,1.772,0,0,1-.136.473c-.131.358-.291.795-.484,1.325-.472,1.218-1.109,2.861-1.887,4.873l-.027-.183c2.989,3.622,7.239,8.837,11.926,14.643,1.78,2.214,3.493,4.344,5.07,6.3l-.062-.055,10.849,6.922,3.108,2.037A8.008,8.008,0,0,1,405.371,226.132Z" transform="translate(-373.042 -189.014)"/></g><g transform="translate(46.035 6.469)"><path class="h" d="M407.269,229.986a7.266,7.266,0,0,1,.1-1.364c.123-.969.281-2.217.471-3.722.421-3.153,1.04-7.537,1.766-12.468l.029.163-1.008-1.871c-2.594-4.826-4.916-9.207-6.573-12.391l-1.938-3.784a8.7,8.7,0,0,1-.647-1.422,8.809,8.809,0,0,1,.829,1.324l2.087,3.7c1.742,3.139,4.117,7.493,6.711,12.317l1,1.873.042.078-.013.087c-.74,4.929-1.421,9.3-1.936,12.442-.255,1.5-.467,2.736-.631,3.7A7.272,7.272,0,0,1,407.269,229.986Z" transform="translate(-399.47 -193.127)"/></g><g transform="translate(16.928 6.131)"><path class="h" d="M376.811,211.8l.875-.528-.878.524a52.384,52.384,0,0,1-3.813-7.108l-.182-.439c-1.036-2.5-2.209-5.338-1.712-8.077l.015-.072a5.379,5.379,0,0,1,1.862-3.062l.285-.238.844,0-.006,1.583.184.223c-.063.053-.127.109-.186.166v.073h-.074a3.227,3.227,0,0,0-.909,1.675l-.011.059c-.368,2.139.675,4.66,1.6,6.888l.182.442a50.962,50.962,0,0,0,3.672,6.827Z" transform="translate(-370.983 -192.795)"/></g><g transform="translate(60.12 87.407)"><path class="h" d="M413.263,272.339a4.208,4.208,0,0,1,.141.765q.113.834.3,2.208c.251,1.919.585,4.7.976,8.137.782,6.877,1.756,16.388,2.646,26.91s1.523,20.067,1.907,26.977c.192,3.455.329,6.251.4,8.186.031.926.055,1.666.075,2.226a4.3,4.3,0,0,1-.011.779,4.333,4.333,0,0,1-.1-.772c-.044-.559-.1-1.3-.174-2.221-.139-1.987-.333-4.766-.572-8.173-.478-6.9-1.173-16.434-2.061-26.955s-1.8-20.03-2.49-26.915c-.337-3.4-.611-6.171-.808-8.154q-.126-1.384-.2-2.219A4.231,4.231,0,0,1,413.263,272.339Z" transform="translate(-413.255 -272.339)"/></g><g transform="translate(25.715 111.378)"><path class="h" d="M400.888,295.8c.022.029-.226.264-.693.664s-1.155.965-2.02,1.643a61.826,61.826,0,0,1-7.091,4.873,37.714,37.714,0,0,1-4.265,2.1,26.146,26.146,0,0,1-3.7,1.19,17.415,17.415,0,0,1-2.578.442,3.324,3.324,0,0,1-.961.029c-.011-.1,1.344-.244,3.442-.836a30.417,30.417,0,0,0,3.6-1.278,43.486,43.486,0,0,0,4.188-2.108c2.885-1.67,5.346-3.44,7.131-4.713A25.925,25.925,0,0,1,400.888,295.8Z" transform="translate(-379.583 -295.8)"/></g><g transform="translate(27.046 115.357)"><path class="h" d="M402.419,299.7a3.507,3.507,0,0,1-.549.827,20.675,20.675,0,0,1-1.768,2.045,28.969,28.969,0,0,1-15.541,8.274,20.616,20.616,0,0,1-2.683.325,3.559,3.559,0,0,1-.992-.006c-.008-.1,1.4-.205,3.6-.688a32.168,32.168,0,0,0,15.35-8.172C401.47,300.739,402.345,299.637,402.419,299.7Z" transform="translate(-380.886 -299.694)"/></g><g transform="translate(26.065 121.536)"><path class="h" d="M380.6,311.391a15.323,15.323,0,0,1-.573-5.65,15.265,15.265,0,0,1,.573,5.65Z" transform="translate(-379.926 -305.741)"/></g></g><g transform="translate(18.368)"><g transform="translate(1.404)"><path class="h" d="M378.288,179.532a1.99,1.99,0,0,1-1.763-1.192,6.878,6.878,0,0,1-.587-2.286L374.5,165.613a53.547,53.547,0,0,1-.722-8.9,19.034,19.034,0,0,1,2.624-8.2c1.575-3.029,7.947-8.372,18.532-5.376" transform="translate(-373.766 -142.254)"/></g><g transform="translate(0 0.443)"><g transform="translate(0 24.089)"><path class="n" d="M377.775,166.49c-.141-.058-5.654-1.559-5.371,4.032s5.837,4.155,5.838,3.994S377.775,166.49,377.775,166.49Z" transform="translate(-372.393 -166.264)"/><g transform="translate(1.429 1.848)"><path class="o" d="M376.4,172.444c-.026-.016-.094.074-.254.157a.977.977,0,0,1-.728.051,2.411,2.411,0,0,1-1.224-2.106,3.215,3.215,0,0,1,.2-1.408,1.127,1.127,0,0,1,.695-.785.5.5,0,0,1,.588.238c.083.152.053.266.083.274s.116-.1.058-.329a.623.623,0,0,0-.237-.339.738.738,0,0,0-.546-.114,1.369,1.369,0,0,0-.974.918,3.3,3.3,0,0,0-.26,1.576,2.531,2.531,0,0,0,1.543,2.343,1.045,1.045,0,0,0,.883-.192C376.393,172.58,376.417,172.453,376.4,172.444Z" transform="translate(-373.791 -168.073)"/></g></g><g transform="translate(2.888)"><g transform="translate(1.596 1.524)"><path class="n" d="M406.424,177.369c-.023-3.952-.736-12.087-1.466-19.442A15.253,15.253,0,0,0,389.5,144.182l-.79.015c-8.5.654-12.7,8.243-11.811,16.725l1.194,27.06,20.287,11.13-.067-12.135S406.474,185.554,406.424,177.369Z" transform="translate(-376.781 -144.179)"/></g><g transform="translate(12.412 41.482)"><path class="o" d="M398.091,186.121a19.033,19.033,0,0,1-10.724-2.835s2.575,5.934,10.728,5.047Z" transform="translate(-387.367 -183.286)"/></g><path class="h" d="M395.52,143.343c-2.894-1.139-5.824-.538-8.9-.087a14.052,14.052,0,0,0-6.547,2.6,12.585,12.585,0,0,0-4.817,9.819,36.015,36.015,0,0,0,1.209,11.027l.3-.068a5.349,5.349,0,0,0-.043,2.847,1.839,1.839,0,0,0,2.258,1.232c1.029-.451,1.064-1.871.97-2.991a80.431,80.431,0,0,1-.044-11.36c.16-2.828,1.773-6.289,3.978-7.63,4.015-2.672,9.241-.49,11.017-.18,2.719-2.332,5.264-.509,6.929,1.514C401.223,147.022,398.413,144.481,395.52,143.343Z" transform="translate(-375.219 -142.688)"/></g></g><g transform="translate(14.712 4.712)"><path class="h" d="M386.791,146.866" transform="translate(-386.791 -146.866)"/></g><g transform="translate(19.97 0.162)"><path class="h" d="M394.539,148.563c1.791.017,3.222-1.207,5.22-.88,1.207.2,2.419,2.163,3.472,4.617a3.544,3.544,0,0,0-1.043-6.486,3.227,3.227,0,0,0,1.594.521,1.109,1.109,0,0,0,1.123-1.028,1.491,1.491,0,0,0-.667-.987,8.73,8.73,0,0,0-12.3,1.409" transform="translate(-391.937 -142.413)"/></g><g transform="translate(22.535 1.523)"><path class="f" d="M403.714,145.148c-.05.074-.579-.309-1.546-.611a5.971,5.971,0,0,0-6.867,2.382c-.572.836-.751,1.462-.836,1.437a2.9,2.9,0,0,1,.516-1.635,5.823,5.823,0,0,1,7.315-2.537C403.293,144.6,403.753,145.107,403.714,145.148Z" transform="translate(-394.447 -143.745)"/></g><g transform="translate(22.523 3.467)"><path class="f" d="M403.336,151.275a6.38,6.38,0,0,0,.013-1.9,4,4,0,0,0-.9-1.787,4.219,4.219,0,0,0-2.08-1.248,5.588,5.588,0,0,0-4.359.756c-1.009.628-1.509,1.207-1.575,1.146a3.77,3.77,0,0,1,1.366-1.459,6.075,6.075,0,0,1,1.986-.953,5.284,5.284,0,0,1,2.718-.005,4.514,4.514,0,0,1,2.317,1.445,4.106,4.106,0,0,1,.893,2.042A2.457,2.457,0,0,1,403.336,151.275Z" transform="translate(-394.436 -145.648)"/></g><g transform="translate(1.913 6.622)"><path class="f" d="M374.665,164.674a2.04,2.04,0,0,1-.213-.747,11.678,11.678,0,0,1-.186-2.106,14.1,14.1,0,0,1,6.407-11.851,11.7,11.7,0,0,1,1.864-1,2.008,2.008,0,0,1,.742-.23c.039.084-.977.512-2.392,1.538a14.972,14.972,0,0,0-6.244,11.55C374.558,163.576,374.756,164.66,374.665,164.674Z" transform="translate(-374.265 -148.735)"/></g><g transform="translate(3.324 12.248)"><path class="f" d="M375.883,165.583a12.6,12.6,0,0,1,3.775-11.337,25.789,25.789,0,0,0-2.812,5.361A25.882,25.882,0,0,0,375.883,165.583Z" transform="translate(-375.646 -154.242)"/></g></g><g transform="translate(94.931 56.9)"><path class="n" d="M466.807,211.41c-.239-.627-1.419-.764-1.419-.764l.237-.356a1.718,1.718,0,0,0,.118-1.7c-.04-.083-.086-.168-.135-.252a2.838,2.838,0,0,0-1.365-.984s.867-1.18.654-1.763a2.807,2.807,0,0,0-2.672-1.569,41.375,41.375,0,0,0-5.57,1.661,1.233,1.233,0,0,1-1.637-.909,17.8,17.8,0,0,0-1.789-5.156c-1.02-1.709-2.22-1.773-2.947-1.614a.572.572,0,0,0-.41.778,30.949,30.949,0,0,1,1.3,3.6c.189.923-.475,7.57-.475,7.57l-3.375,4.548,7.661,11.066,3.368-5.006,7.23-3.185s1.367-1.721,1.221-2.311a1.81,1.81,0,0,0-.71-.953l.894-1.26A3.928,3.928,0,0,0,466.807,211.41Z" transform="translate(-447.324 -197.942)"/><g transform="translate(9.001 7.017)"><path class="o" d="M464.7,207.34a.684.684,0,0,1-.149.1l-.444.255-1.649.912L460,209.94c-.467.242-.935.531-1.477.756a1.958,1.958,0,0,1-1.781-.043,1.324,1.324,0,0,1-.544-.765,1.883,1.883,0,0,1-.015-.9,2.556,2.556,0,0,1,.93-1.39,10.094,10.094,0,0,1,1.253-.832l1.117-.666,1.625-.955.447-.252a.708.708,0,0,1,.161-.079.719.719,0,0,1-.144.107l-.429.28-1.6,1-1.107.685a10.1,10.1,0,0,0-1.225.832,2.409,2.409,0,0,0-.868,1.3,1.4,1.4,0,0,0,.489,1.493,1.432,1.432,0,0,0,.809.209,2.349,2.349,0,0,0,.819-.179c.518-.212,1-.5,1.463-.739l2.474-1.3,1.674-.864.46-.228A.754.754,0,0,1,464.7,207.34Z" transform="translate(-456.133 -204.809)"/></g><g transform="translate(10.879 12.865)"><path class="o" d="M465.633,210.537a1.825,1.825,0,0,1-.343.206c-.227.123-.558.293-.972.495-.828.4-1.986.932-3.292,1.451a9.093,9.093,0,0,1-.973.349,1.942,1.942,0,0,1-.984.031,1.506,1.506,0,0,1-1.082-1.188,1.482,1.482,0,0,1,.253-1.069,1.223,1.223,0,0,1,.2-.222c.054-.043.085-.061.088-.057s-.1.1-.237.316a1.471,1.471,0,0,0-.191,1.013,1.4,1.4,0,0,0,1,1.058,1.807,1.807,0,0,0,.9-.041,9.765,9.765,0,0,0,.953-.346c1.3-.517,2.465-1.026,3.3-1.4l.993-.445A1.9,1.9,0,0,1,465.633,210.537Z" transform="translate(-457.972 -210.532)"/></g><g transform="translate(11.942 15.349)"><path class="o" d="M465.992,213.636a1.545,1.545,0,0,1-.345.136l-.96.309c-.812.254-1.938.594-3.185.959a8.83,8.83,0,0,1-.926.242,1.7,1.7,0,0,1-.913-.068,1,1,0,0,1-.595-.585,1.115,1.115,0,0,1,.007-.727,1.529,1.529,0,0,1,.659-.78,1,1,0,0,1,.338-.157c.006.012-.112.073-.3.213a1.54,1.54,0,0,0-.581.761,1.009,1.009,0,0,0,.01.642.857.857,0,0,0,.52.488,1.558,1.558,0,0,0,.828.05c.292-.051.594-.152.906-.241,1.246-.365,2.377-.687,3.2-.911l.975-.258A1.574,1.574,0,0,1,465.992,213.636Z" transform="translate(-459.012 -212.964)"/></g><g transform="translate(13.018 17.555)"><path class="o" d="M466.006,216.467a6.979,6.979,0,0,1-1.088.109c-.672.046-1.6.1-2.631.144l-.751.033a3.041,3.041,0,0,1-.716-.025,1.028,1.028,0,0,1-.588-.321.673.673,0,0,1-.155-.568.962.962,0,0,1,.51-.636.494.494,0,0,1,.288-.078c0,.014-.1.036-.255.135a.929.929,0,0,0-.424.6.546.546,0,0,0,.142.455.892.892,0,0,0,.512.26,3.1,3.1,0,0,0,.68.012l.75-.036c1.028-.047,1.96-.08,2.634-.1A6.969,6.969,0,0,1,466.006,216.467Z" transform="translate(-460.064 -215.122)"/></g><g transform="translate(8.292 15.776)"><path class="o" d="M459.183,214.056a6.5,6.5,0,0,0-3.743-.4,4.186,4.186,0,0,1,3.743.4Z" transform="translate(-455.44 -213.382)"/></g></g><g transform="translate(57.737 112.21)"><path class="n" d="M411.935,262.862l1.586-.415s.561-2.664,1.262-3.225,7.721-3.76,9.263-4.6,7.572-3.589,8.329-2.127c.857,1.652-1.6,3.01-2.929,3.642s-5.131,2.106-4.36,3.016,9.26.5,9.26.5l1.065-1.428s1.871,1.772,1.66,3.314a6.742,6.742,0,0,1-.841,2.523H435.6a1.757,1.757,0,0,1,.071,1.823,16.849,16.849,0,0,1-1.682,2.1,6.244,6.244,0,0,1-4,2.918c-.35.1-14.376,1.314-14.376,1.314l-4.693.471Z" transform="translate(-410.923 -252.073)"/></g></g></g><g transform="translate(0 8.276)"><g transform="translate(0 0)"><g transform="translate(33.094 9.04)"><path class="p" d="M138.607,58.991,101.4,45.285,64.547,58.806c-4.7,2.28-8.83,3.644-8.83,8.138V89.326a86.224,86.224,0,0,0,12.138,44.541,76.251,76.251,0,0,0,33.9,30.713c15.062-5.019,26.306-18.4,33.179-29.839A86.229,86.229,0,0,0,147.076,90.2V70.072C147.076,63.663,143.764,60.533,138.607,58.991Z" transform="translate(-55.717 -45.285)"/><g class="q"><path class="g" d="M138.607,58.991,101.4,45.285,64.547,58.806c-4.7,2.28-8.83,3.644-8.83,8.138V89.326a86.224,86.224,0,0,0,12.138,44.541,76.251,76.251,0,0,0,33.9,30.713c15.062-5.019,26.306-18.4,33.179-29.839A86.229,86.229,0,0,0,147.076,90.2V70.072C147.076,63.663,143.764,60.533,138.607,58.991Z" transform="translate(-55.717 -45.285)"/></g></g><g transform="translate(42.125 20.831)"><path class="l" d="M131.058,67.822l-29.854-11L71.639,67.674C67.866,69.5,64.555,70.6,64.555,74.2V92.16A69.176,69.176,0,0,0,74.294,127.9a61.178,61.178,0,0,0,27.2,24.64c12.085-4.026,21.1-14.76,26.619-23.94a69.173,69.173,0,0,0,9.739-35.736V76.713C137.852,71.57,135.2,69.059,131.058,67.822Z" transform="translate(-64.555 -56.825)"/></g><g transform="translate(56.172 45.127)"><path class="g" d="M123.505,98.161H105.948V80.6H95.861V98.161H78.3v10.087H95.861v17.558h10.087V108.248h17.558Z" transform="translate(-78.303 -80.604)"/></g><g transform="translate(19.785 10.351)"><path class="a" d="M157.083,150.052s.173-.24.52-.7l.293-.384c.1-.148.187-.324.294-.508a7.885,7.885,0,0,0,.661-1.32c.1-.261.226-.532.33-.827q.124-.452.263-.952a6.771,6.771,0,0,0,.22-1.062,11.51,11.51,0,0,0,.162-1.169,22.127,22.127,0,0,0-.259-5.637,50.7,50.7,0,0,0-5.176-14.578,113.823,113.823,0,0,0-11.117-17.288A177,177,0,0,0,126.7,87.009a202.674,202.674,0,0,0-21.763-18.577c-4.063-2.986-8.348-5.881-12.865-8.609A124.33,124.33,0,0,0,77.78,52.33a66.744,66.744,0,0,0-15.9-4.983,28.139,28.139,0,0,0-8.479-.209,15.888,15.888,0,0,0-4.1,1.186,10.212,10.212,0,0,0-5.55,6.213,15.856,15.856,0,0,0-.715,4.206,28.057,28.057,0,0,0,1.168,8.4,66.708,66.708,0,0,0,6.761,15.234A124.118,124.118,0,0,0,60.04,95.726c3.225,4.179,6.59,8.108,10.018,11.8a202.823,202.823,0,0,0,20.935,19.51,176.908,176.908,0,0,0,20.386,14.351,113.8,113.8,0,0,0,18.441,9.076,50.709,50.709,0,0,0,15.071,3.483,22.083,22.083,0,0,0,5.628-.385,11.447,11.447,0,0,0,1.143-.294,6.747,6.747,0,0,0,1.029-.339l.917-.369c.281-.138.536-.29.784-.422a7.906,7.906,0,0,0,1.236-.807c.17-.128.334-.235.47-.35l.349-.334c.415-.4.635-.6.635-.6s-.2.215-.611.621l-.344.342c-.135.117-.3.228-.468.359a7.85,7.85,0,0,1-1.234.825c-.247.135-.5.291-.784.431l-.92.379a6.768,6.768,0,0,1-1.033.349,11.233,11.233,0,0,1-1.147.3,22.05,22.05,0,0,1-5.656.418,50.585,50.585,0,0,1-15.13-3.437,113.585,113.585,0,0,1-18.5-9.049,176.47,176.47,0,0,1-20.44-14.339A202.335,202.335,0,0,1,69.832,107.74c-3.437-3.7-6.812-7.633-10.046-11.818a124.186,124.186,0,0,1-9.1-13.378,66.986,66.986,0,0,1-6.8-15.31,28.374,28.374,0,0,1-1.181-8.5,16.2,16.2,0,0,1,.733-4.3,10.536,10.536,0,0,1,5.726-6.409,16.215,16.215,0,0,1,4.187-1.214,28.427,28.427,0,0,1,8.581.21,66.979,66.979,0,0,1,15.98,5.013,124.368,124.368,0,0,1,14.323,7.518c4.524,2.736,8.816,5.641,12.883,8.635a202.282,202.282,0,0,1,21.774,18.627,176.3,176.3,0,0,1,16.571,18.675,113.479,113.479,0,0,1,11.1,17.347,50.567,50.567,0,0,1,5.139,14.642,22.092,22.092,0,0,1,.229,5.667,11.541,11.541,0,0,1-.172,1.175,6.688,6.688,0,0,1-.229,1.067q-.143.5-.272.956c-.107.3-.234.567-.339.829a7.773,7.773,0,0,1-.679,1.32c-.11.183-.2.358-.3.5l-.3.382C157.273,149.828,157.083,150.052,157.083,150.052Z" transform="translate(-42.691 -46.568)"/></g><g transform="translate(5.375 36.831)"><path class="a" d="M177.961,99.834s-.033-.294-.078-.867c-.011-.143-.024-.3-.038-.481s-.076-.367-.117-.575a7.876,7.876,0,0,0-.386-1.425c-.1-.263-.185-.547-.3-.836l-.438-.886a6.762,6.762,0,0,0-.543-.939,11.232,11.232,0,0,0-.657-.98,22.1,22.1,0,0,0-3.945-4.035,50.683,50.683,0,0,0-13.567-7.432,113.72,113.72,0,0,0-19.8-5.5,176.933,176.933,0,0,0-24.766-2.861,202.635,202.635,0,0,0-28.606.624c-5.019.476-10.145,1.167-15.332,2.139A124.313,124.313,0,0,0,53.73,79.7a66.773,66.773,0,0,0-15.183,6.864,28.114,28.114,0,0,0-6.466,5.488,15.879,15.879,0,0,0-2.267,3.612,10.205,10.205,0,0,0-.006,8.332,15.884,15.884,0,0,0,2.265,3.614,28.037,28.037,0,0,0,6.465,5.493,66.722,66.722,0,0,0,15.186,6.868,124.369,124.369,0,0,0,15.655,3.923c5.189.972,10.315,1.662,15.335,2.139a202.682,202.682,0,0,0,28.609.624,176.774,176.774,0,0,0,24.767-2.862,113.833,113.833,0,0,0,19.8-5.5,50.712,50.712,0,0,0,13.565-7.432,22.19,22.19,0,0,0,3.944-4.035,11.213,11.213,0,0,0,.656-.98,6.607,6.607,0,0,0,.543-.938l.438-.886c.118-.29.207-.573.3-.836a7.9,7.9,0,0,0,.386-1.425c.042-.208.093-.4.117-.575s.027-.338.038-.482c.045-.573.078-.867.078-.867s-.009.3-.044.871l-.029.485c-.022.177-.07.369-.11.578a7.9,7.9,0,0,1-.372,1.438c-.1.265-.182.552-.3.844l-.433.894a6.814,6.814,0,0,1-.538.948,11.5,11.5,0,0,1-.655.991,22.088,22.088,0,0,1-3.942,4.076,50.566,50.566,0,0,1-13.579,7.507,113.467,113.467,0,0,1-19.827,5.559,176.308,176.308,0,0,1-24.8,2.906,202.362,202.362,0,0,1-28.653-.594c-5.028-.473-10.165-1.162-15.363-2.132a124.168,124.168,0,0,1-15.7-3.925,67,67,0,0,1-15.264-6.9,28.334,28.334,0,0,1-6.542-5.559,16.225,16.225,0,0,1-2.315-3.7,10.545,10.545,0,0,1,.006-8.6,16.226,16.226,0,0,1,2.317-3.693,28.414,28.414,0,0,1,6.543-5.555,67.005,67.005,0,0,1,15.261-6.9,124.321,124.321,0,0,1,15.693-3.924c5.2-.97,10.334-1.658,15.361-2.131a202.473,202.473,0,0,1,28.65-.595,176.464,176.464,0,0,1,24.8,2.906A113.478,113.478,0,0,1,157.957,81.2a50.568,50.568,0,0,1,13.581,7.507,22.025,22.025,0,0,1,3.942,4.076,11.256,11.256,0,0,1,.655.991,6.824,6.824,0,0,1,.54.948l.433.9c.117.292.2.578.3.844a7.86,7.86,0,0,1,.372,1.438c.04.209.088.4.11.578l.029.485C177.952,99.54,177.961,99.834,177.961,99.834Z" transform="translate(-28.588 -72.484)"/></g><g transform="translate(31.105)"><path class="a" d="M150.157,38.811s-.252-.155-.733-.471l-.4-.266c-.155-.088-.336-.165-.527-.26a7.847,7.847,0,0,0-1.363-.567c-.267-.085-.546-.189-.847-.273l-.969-.2a6.738,6.738,0,0,0-1.074-.146,11.321,11.321,0,0,0-1.177-.082,22.145,22.145,0,0,0-5.605.647,50.7,50.7,0,0,0-14.187,6.167A113.878,113.878,0,0,0,106.79,55.646,176.971,176.971,0,0,0,89.355,73.467a202.892,202.892,0,0,0-17.033,22.99c-2.7,4.259-5.293,8.733-7.7,13.428a124.028,124.028,0,0,0-6.491,14.772,66.792,66.792,0,0,0-3.877,16.205,28.128,28.128,0,0,0,.376,8.473,15.922,15.922,0,0,0,1.465,4,10.213,10.213,0,0,0,6.581,5.11,15.912,15.912,0,0,0,4.244.424,28.084,28.084,0,0,0,8.3-1.744,66.764,66.764,0,0,0,14.732-7.794,124.228,124.228,0,0,0,12.691-9.969c3.946-3.5,7.634-7.133,11.085-10.808a202.719,202.719,0,0,0,18.022-22.229A177.022,177.022,0,0,0,144.664,85a113.859,113.859,0,0,0,7.785-19.022,50.652,50.652,0,0,0,2.436-15.275,22.069,22.069,0,0,0-.771-5.589,11.5,11.5,0,0,0-.372-1.12,6.658,6.658,0,0,0-.41-1q-.227-.467-.431-.889c-.156-.271-.327-.515-.475-.752a7.873,7.873,0,0,0-.89-1.179c-.139-.16-.257-.317-.382-.444L150.8,39.4c-.425-.387-.639-.593-.639-.593s.228.187.662.567q.162.144.365.32c.127.127.248.282.39.441a7.841,7.841,0,0,1,.907,1.175c.152.237.325.481.484.753l.441.89a6.8,6.8,0,0,1,.42,1.006,11.338,11.338,0,0,1,.381,1.125,22.064,22.064,0,0,1,.807,5.613,50.57,50.57,0,0,1-2.387,15.332,113.512,113.512,0,0,1-7.754,19.077,176.437,176.437,0,0,1-12.9,21.379,202.355,202.355,0,0,1-18.023,22.281c-3.456,3.684-7.146,7.321-11.1,10.836a124.124,124.124,0,0,1-12.719,10,66.956,66.956,0,0,1-14.806,7.837,28.359,28.359,0,0,1-8.4,1.765,16.217,16.217,0,0,1-4.339-.435A10.537,10.537,0,0,1,55.8,153.5a16.213,16.213,0,0,1-1.5-4.094,28.411,28.411,0,0,1-.381-8.575,67.011,67.011,0,0,1,3.9-16.286,124.316,124.316,0,0,1,6.515-14.808c2.419-4.7,5.021-9.184,7.728-13.447A202.129,202.129,0,0,1,89.145,73.286a176.39,176.39,0,0,1,17.489-17.818A113.546,113.546,0,0,1,123.176,43.2a50.6,50.6,0,0,1,14.253-6.135,22.123,22.123,0,0,1,5.638-.618,11.417,11.417,0,0,1,1.184.09,6.69,6.69,0,0,1,1.079.155l.973.205c.3.087.582.193.85.281a7.847,7.847,0,0,1,1.364.587c.19.1.371.177.524.268l.4.274C149.919,38.637,150.157,38.811,150.157,38.811Z" transform="translate(-53.77 -36.438)"/></g><g transform="translate(0 94.16)"><g transform="translate(0 0)"><path class="a" d="M28.058,129.4a2.771,2.771,0,1,1-3.919,0A2.771,2.771,0,0,1,28.058,129.4Z" transform="translate(-23.328 -128.591)"/></g></g><g transform="translate(155.512 6.346)"><path class="a" d="M181.067,45.419a2.771,2.771,0,1,1-2.771-2.77A2.771,2.771,0,0,1,181.067,45.419Z" transform="translate(-175.526 -42.649)"/></g><g transform="translate(20.818 103.377)"><g transform="translate(0 0)"><path class="a" d="M45.111,138.317a.7.7,0,1,1-.705-.705A.7.7,0,0,1,45.111,138.317Z" transform="translate(-43.702 -137.612)"/></g></g><g transform="translate(35.847 25.74)"><path class="p" d="M59.819,62.333a.7.7,0,1,1-.7-.7A.7.7,0,0,1,59.819,62.333Z" transform="translate(-58.411 -61.629)"/></g><g transform="translate(145.727 63.477)"><path class="a" d="M167.357,99.266a.7.7,0,1,1-.7-.7A.7.7,0,0,1,167.357,99.266Z" transform="translate(-165.949 -98.562)"/></g><g transform="translate(155.512 30.65)"><path class="a" d="M176.934,67.139a.7.7,0,1,1-.7-.7A.7.7,0,0,1,176.934,67.139Z" transform="translate(-175.526 -66.435)"/></g></g></g></g><g transform="translate(1340.736 3386.954)"><g transform="translate(-0.001 0.001)"><ellipse class="r" cx="2.65" cy="2.65" rx="2.65" ry="2.65" transform="translate(6.015 1.503)"/><ellipse class="r" cx="2.65" cy="2.65" rx="2.65" ry="2.65" transform="translate(22.369 1.503)"/><path class="s" d="M539.913,78.1a1.389,1.389,0,0,1,1.847.316c1.007,1.263,3.336,3.973,4.956,4.2a5.055,5.055,0,0,0,5.148-2.12,61.522,61.522,0,0,0,3.18-6.208c.3-.454,1.817-1.06,2.725,1.06s3.028,6.36,5.3,7.117c1.211.3,3.937.606,6.36-2.726,1.132-1.415,1.867-2.7,3.2-1.624a1.572,1.572,0,0,1,.491.67c.213.575.213,1.6-2.172,2.619-2.423,1.817-4.694,3.634-5.6,5.754-.388.646-1.218,1.846-2.773.766a3.8,3.8,0,0,1-1.187-1.368c-1.451-2.77-3.97-8.494-4.672-8.634-.757-.152-1.211,0-2.423,2.12-1.211,2.726-3.028,6.965-4.088,7.723s-2.12.757-2.877-.454a19.546,19.546,0,0,0-3.028-3.786c-.908-.757-4.3-2.941-4.543-3.18A1.558,1.558,0,0,1,539.913,78.1Z" transform="translate(-539.339 -73.849)"/></g><g transform="translate(8.608 17.512)"><path class="t" d="M565.77,122.815V133.31a53.219,53.219,0,0,1,5.378-6.389,4.512,4.512,0,0,1,3.488-1.141h2.51v.165a92.481,92.481,0,0,0-7.138,7.984c1.4,1.728,2.771,3.522,4.335,5.12a7.4,7.4,0,0,0,3.39,2.28,2.688,2.688,0,0,1-2.967,2.152,4.28,4.28,0,0,1-2.868-1.207,75,75,0,0,1-6.128-7.5v8.573l-1.4.032c-2.021.032-3-1.043-3-3.1V119.911h1.4A2.657,2.657,0,0,1,565.77,122.815Z" transform="translate(-561.37 -119.423)"/><path class="u" d="M613.644,133.93c5.28,0,8.312,4.236,8.312,8.9,0,5.279-3.032,9.484-8.7,9.484-5.281,0-8.312-4.2-8.312-8.865C604.94,138.166,607.971,133.93,613.644,133.93Zm-.391,3.912c-2.51,0-3.781,2.086-3.781,4.987,0,3.488,1.271,5.574,4.173,5.574,2.542,0,3.781-2.086,3.781-4.955C617.424,139.929,616.121,137.842,613.252,137.842Z" transform="translate(-587.914 -127.963)"/><path class="v" d="M663.261,143.544c-3.618,0-5.574-1.921-5.574-5.475V119.911h1.239c2.184,0,3.129,1.272,3.129,2.935v14.8c0,1.76.913,2.312,2.966,2.312h1.173v.948C666.195,142.8,665.184,143.544,663.261,143.544Z" transform="translate(-620.05 -119.423)"/><path class="w" d="M690.47,143.544c-3.618,0-5.574-1.921-5.574-5.475V119.911h1.238c2.184,0,3.129,1.272,3.129,2.935v14.8c0,1.76.912,2.312,2.966,2.312H693.4v.948C693.4,142.8,692.393,143.544,690.47,143.544Z" transform="translate(-636.626 -119.423)"/><path class="x" d="M714.647,123.778A2.573,2.573,0,0,1,712.1,121.2a2.546,2.546,0,0,1,2.543-2.543,2.574,2.574,0,0,1,2.575,2.543A2.6,2.6,0,0,1,714.647,123.778Zm3.1,19c-3.39,0-5.248-1.921-5.248-5.475v-11.9h1.239c1.956,0,3.129,1.046,3.129,3.262v8.215c0,1.76.75,2.312,2.673,2.312h.815v.948C720.351,142.034,719.6,142.783,717.744,142.783Z" transform="translate(-653.202 -118.661)"/><path class="y" d="M753.812,147c.032.717.065,1.661.065,2.248,0,4.4-2.934,8.345-8.606,8.345-3.618,0-6.1-1.76-6.1-3.846v-1.988h.2a7.766,7.766,0,0,0,5.574,1.89c3.162,0,4.694-1.5,4.6-4.042l-.065-1.792v-.425c-.359,1.272-2.021,2.606-4.531,2.606a6.934,6.934,0,0,1-7.3-7.105c0-4.955,3.26-8.963,8.932-8.963,4.368,0,7.172,3.193,7.172,7.692v3C753.747,145.208,753.779,146.219,753.812,147Zm-11.67-4.663c0,2.282,1.4,3.978,3.488,3.978,2.184,0,3.749-1.63,3.749-4.435,0-2.737-1.369-4.074-3.292-4.074C743.838,137.808,742.142,139.7,742.142,142.339Z" transform="translate(-668.762 -127.963)"/><path class="z" d="M795.977,152.317h-.88c-4.173,0-7.041-2.349-7.041-5.577,0-3.129,2.282-5.507,8.736-5.507h1.532V141c0-2.477-1.174-3.228-3.782-3.228-3.162,0-4.922,1.205-5.574,2.023h-.163v-1.4c0-1.953,1.76-4.3,6.389-4.3,3.912,0,7.432,1.826,7.432,7.888v4.042C802.627,149.74,799.889,152.317,795.977,152.317Zm2.38-7.955h-1.565c-3.325,0-4.27.783-4.27,2.216,0,1.37,1.108,2.184,3.032,2.184,1.891,0,2.8-.913,2.8-2.7Z" transform="translate(-699.475 -128.063)"/><path class="aa" d="M835.9,125.959a3.054,3.054,0,0,1,2.054-1.205h1.01v3.976h6.1v1.794a2.324,2.324,0,0,1-2.607,2.086h-3.488v6.877c0,2.283,1.01,3.161,2.77,3.161a6.216,6.216,0,0,0,3.162-.619h.163v1.563c0,1.794-1.3,2.935-3.847,2.935-4.433,0-6.584-2.413-6.584-6.521V129.447A4.372,4.372,0,0,1,835.9,125.959Z" transform="translate(-727.848 -122.373)"/><path class="ab" d="M873.327,145.012h-2.869c.326,2.216,2.347,3.62,4.922,3.62a7.957,7.957,0,0,0,5.379-1.664h.163v1.369c0,2.248-1.532,3.976-6.356,3.976a8.67,8.67,0,0,1-8.638-8.833c0-5.866,3.586-9.55,8.606-9.55a6.794,6.794,0,0,1,7.041,6.813C881.574,143.968,879.129,145.012,873.327,145.012Zm.815-7.432a3.758,3.758,0,0,0-3.683,3.751l-.033.587h1.956c4.139,0,5.084-.457,5.084-1.7C877.466,138.461,876.163,137.58,874.142,137.58Z" transform="translate(-746.917 -127.963)"/></g><g transform="translate(34.298 50.145)"><path class="g" d="M631.37,203.72v.668h-1.715v5.622h-.821v-5.622h-1.724v-.668Z" transform="translate(-627.111 -203.116)"/><path class="g" d="M644.6,209.814H640.65a1.554,1.554,0,0,0,1.606,1.552,1.517,1.517,0,0,0,.889-.248,1.313,1.313,0,0,0,.5-.663h.884a2.125,2.125,0,0,1-.794,1.159,2.4,2.4,0,0,1-1.48.447,2.5,2.5,0,0,1-1.258-.316,2.234,2.234,0,0,1-.871-.9,2.787,2.787,0,0,1-.316-1.349,2.821,2.821,0,0,1,.307-1.344,2.156,2.156,0,0,1,.862-.889,2.565,2.565,0,0,1,1.277-.311,2.483,2.483,0,0,1,1.245.306,2.128,2.128,0,0,1,.835.844,2.486,2.486,0,0,1,.293,1.213A4.839,4.839,0,0,1,644.6,209.814Zm-1.029-1.475a1.346,1.346,0,0,0-.564-.514,1.762,1.762,0,0,0-.79-.176,1.524,1.524,0,0,0-1.06.4,1.617,1.617,0,0,0-.5,1.1h3.122A1.515,1.515,0,0,0,643.574,208.339Z" transform="translate(-634.848 -205.086)"/><path class="g" d="M661.889,207.169a1.727,1.727,0,0,1,.713.717,2.393,2.393,0,0,1,.262,1.164v2.914h-.812v-2.8a1.6,1.6,0,0,0-.366-1.132,1.286,1.286,0,0,0-.988-.392,1.319,1.319,0,0,0-1.019.41,1.689,1.689,0,0,0-.379,1.187v2.725h-.812v-2.8a1.6,1.6,0,0,0-.365-1.132,1.287,1.287,0,0,0-.988-.392,1.321,1.321,0,0,0-1.02.41,1.692,1.692,0,0,0-.379,1.187v2.725h-.821V207.02h.821v.713a1.624,1.624,0,0,1,.654-.6,1.982,1.982,0,0,1,.907-.207,2.141,2.141,0,0,1,1.1.28,1.706,1.706,0,0,1,.713.821,1.623,1.623,0,0,1,.686-.812,2.024,2.024,0,0,1,1.064-.288A2.163,2.163,0,0,1,661.889,207.169Z" transform="translate(-644.05 -205.071)"/><path class="g" d="M680.246,207.238a2.173,2.173,0,0,1,1.124-.284,2.316,2.316,0,0,1,1.2.316,2.23,2.23,0,0,1,.844.889,2.783,2.783,0,0,1,.307,1.331,2.846,2.846,0,0,1-.307,1.336,2.247,2.247,0,0,1-2.039,1.236,2.158,2.158,0,0,1-1.115-.284,2.026,2.026,0,0,1-.735-.708v3.257H678.7v-7.291h.821v.912A1.955,1.955,0,0,1,680.246,207.238Zm2.4,1.277a1.562,1.562,0,0,0-.609-.632,1.69,1.69,0,0,0-.844-.217,1.643,1.643,0,0,0-.835.221,1.616,1.616,0,0,0-.614.641,1.984,1.984,0,0,0-.23.97,2.005,2.005,0,0,0,.23.979,1.618,1.618,0,0,0,.614.64,1.642,1.642,0,0,0,.835.221,1.661,1.661,0,0,0,.844-.221,1.588,1.588,0,0,0,.609-.64,2.06,2.06,0,0,0,.225-.988A2.013,2.013,0,0,0,682.651,208.515Z" transform="translate(-658.54 -205.086)"/><path class="g" d="M701.072,209.725a1.853,1.853,0,0,1-.771-.614,1.573,1.573,0,0,1-.289-.907h.876a1.153,1.153,0,0,0,.365.745,1.313,1.313,0,0,0,.934.3,1.363,1.363,0,0,0,.925-.294.95.95,0,0,0,.339-.753.857.857,0,0,0-.2-.587,1.276,1.276,0,0,0-.5-.343,7.877,7.877,0,0,0-.8-.252,7.172,7.172,0,0,1-1-.324,1.611,1.611,0,0,1-.641-.51,1.5,1.5,0,0,1-.266-.934,1.618,1.618,0,0,1,.262-.911,1.707,1.707,0,0,1,.735-.613,2.587,2.587,0,0,1,1.088-.217,2.279,2.279,0,0,1,1.448.442,1.634,1.634,0,0,1,.636,1.173h-.9a.975.975,0,0,0-.379-.637,1.347,1.347,0,0,0-.884-.275,1.279,1.279,0,0,0-.839.266.909.909,0,0,0-.325.744.808.808,0,0,0,.194.56,1.255,1.255,0,0,0,.478.329q.285.113.8.257a7.563,7.563,0,0,1,1,.338,1.671,1.671,0,0,1,.65.515,1.5,1.5,0,0,1,.271.943,1.659,1.659,0,0,1-.244.866,1.793,1.793,0,0,1-.722.658,2.383,2.383,0,0,1-1.128.253A2.692,2.692,0,0,1,701.072,209.725Z" transform="translate(-671.525 -202.989)"/><path class="g" d="M714.313,205.9v2.915a.692.692,0,0,0,.153.509.756.756,0,0,0,.533.149h.6v.695h-.74a1.473,1.473,0,0,1-1.029-.316,1.354,1.354,0,0,1-.343-1.037V205.9h-.64v-.677h.64v-1.245h.821v1.245h1.29v.677Z" transform="translate(-679.347 -203.271)"/><path class="g" d="M721.956,208.158a2.225,2.225,0,0,1,.844-.889,2.311,2.311,0,0,1,1.2-.316,2.195,2.195,0,0,1,1.128.279,1.869,1.869,0,0,1,.713.7v-.9h.83v4.945h-.83v-.92a1.935,1.935,0,0,1-.726.717,2.178,2.178,0,0,1-1.124.284,2.244,2.244,0,0,1-1.191-.324,2.281,2.281,0,0,1-.839-.912,2.839,2.839,0,0,1-.307-1.336A2.776,2.776,0,0,1,721.956,208.158Zm3.654.365a1.6,1.6,0,0,0-.609-.636,1.726,1.726,0,0,0-1.683,0,1.568,1.568,0,0,0-.6.632,2.011,2.011,0,0,0-.226.975,2.058,2.058,0,0,0,.226.988,1.6,1.6,0,0,0,.6.64,1.637,1.637,0,0,0,.839.221,1.659,1.659,0,0,0,.844-.221,1.587,1.587,0,0,0,.609-.64,2.037,2.037,0,0,0,.225-.979A2.013,2.013,0,0,0,725.61,208.523Z" transform="translate(-684.707 -205.086)"/><path class="g" d="M739.3,204.8h-1.037v4.268h-.821V204.8H736.8v-.677h.641v-.352a1.552,1.552,0,0,1,.428-1.214,2.034,2.034,0,0,1,1.376-.383v.686a1.091,1.091,0,0,0-.763.212.937.937,0,0,0-.221.7v.352H739.3Z" transform="translate(-693.936 -202.173)"/><path class="g" d="M745.87,204.122h2.807v4.945h-.821V204.8H745.87v4.268h-.821V204.8h-.632v-.677h.632v-.352a1.553,1.553,0,0,1,.428-1.214,2.034,2.034,0,0,1,1.376-.383v.686a1.09,1.09,0,0,0-.763.212.935.935,0,0,0-.221.7Zm2.008-.966a.578.578,0,0,1,0-.794.556.556,0,0,1,.785,0,.577.577,0,0,1,0,.794.554.554,0,0,1-.785,0Z" transform="translate(-698.578 -202.173)"/><path class="g" d="M762.7,207.476a2.1,2.1,0,0,1,.56,1.575v2.914h-.812v-2.8a1.592,1.592,0,0,0-.37-1.132,1.326,1.326,0,0,0-1.011-.392,1.355,1.355,0,0,0-1.033.406,1.66,1.66,0,0,0-.383,1.182v2.734h-.822V207.02h.822v.7a1.628,1.628,0,0,1,.663-.587,2.057,2.057,0,0,1,.925-.207A2.006,2.006,0,0,1,762.7,207.476Z" transform="translate(-707.356 -205.071)"/><path class="g" d="M776.29,207.233a1.865,1.865,0,0,1,.717.7v-.9h.83v5.053a2.468,2.468,0,0,1-.289,1.2,2.06,2.06,0,0,1-.826.826,2.54,2.54,0,0,1-1.25.3,2.74,2.74,0,0,1-1.624-.46,1.8,1.8,0,0,1-.767-1.254h.812a1.287,1.287,0,0,0,.559.726,1.835,1.835,0,0,0,1.02.275,1.506,1.506,0,0,0,1.106-.424,1.6,1.6,0,0,0,.428-1.191V211.05a1.98,1.98,0,0,1-.722.722,2.126,2.126,0,0,1-1.119.288,2.249,2.249,0,0,1-2.04-1.236,2.844,2.844,0,0,1-.307-1.336,2.781,2.781,0,0,1,.307-1.331,2.225,2.225,0,0,1,.844-.889,2.312,2.312,0,0,1,1.2-.316A2.2,2.2,0,0,1,776.29,207.233Zm.492,1.29a1.6,1.6,0,0,0-.609-.636,1.726,1.726,0,0,0-1.683,0,1.569,1.569,0,0,0-.6.632,2.011,2.011,0,0,0-.226.975,2.058,2.058,0,0,0,.226.988,1.6,1.6,0,0,0,.6.64,1.637,1.637,0,0,0,.839.221,1.659,1.659,0,0,0,.844-.221,1.589,1.589,0,0,0,.609-.64,2.043,2.043,0,0,0,.225-.979A2.019,2.019,0,0,0,776.782,208.523Z" transform="translate(-715.882 -205.086)"/><path class="g" d="M798.693,210.009l-1.5-2.571H796.2v2.571h-.821V203.72h2.03a2.7,2.7,0,0,1,1.2.244,1.7,1.7,0,0,1,.736.659,1.823,1.823,0,0,1-1.255,2.752l1.579,2.635Zm-2.49-3.23h1.209a1.371,1.371,0,0,0,1-.329,1.181,1.181,0,0,0,.334-.88,1.126,1.126,0,0,0-.329-.866,1.434,1.434,0,0,0-1.006-.307H796.2Z" transform="translate(-729.627 -203.116)"/><path class="g" d="M813.427,209.814h-3.952a1.554,1.554,0,0,0,1.607,1.552,1.516,1.516,0,0,0,.889-.248,1.314,1.314,0,0,0,.5-.663h.884a2.126,2.126,0,0,1-.794,1.159,2.4,2.4,0,0,1-1.48.447,2.5,2.5,0,0,1-1.259-.316,2.228,2.228,0,0,1-.87-.9,2.783,2.783,0,0,1-.316-1.349,2.82,2.82,0,0,1,.307-1.344,2.158,2.158,0,0,1,.861-.889,2.567,2.567,0,0,1,1.277-.311,2.482,2.482,0,0,1,1.245.306,2.127,2.127,0,0,1,.835.844,2.485,2.485,0,0,1,.294,1.213A4.858,4.858,0,0,1,813.427,209.814Zm-1.028-1.475a1.346,1.346,0,0,0-.564-.514,1.761,1.761,0,0,0-.79-.176,1.524,1.524,0,0,0-1.06.4,1.617,1.617,0,0,0-.5,1.1h3.122A1.515,1.515,0,0,0,812.4,208.339Z" transform="translate(-737.702 -205.086)"/><path class="g" d="M823.26,205.584a2.223,2.223,0,0,1,.844-.889,2.329,2.329,0,0,1,1.2-.316,2.233,2.233,0,0,1,1.074.266,1.921,1.921,0,0,1,.758.7v-2.617h.83v6.677h-.83v-.929a1.92,1.92,0,0,1-.722.726,2.153,2.153,0,0,1-1.119.284,2.247,2.247,0,0,1-2.039-1.236,2.838,2.838,0,0,1-.307-1.336A2.775,2.775,0,0,1,823.26,205.584Zm3.654.365a1.594,1.594,0,0,0-.609-.636,1.726,1.726,0,0,0-1.683,0,1.567,1.567,0,0,0-.6.631,2.008,2.008,0,0,0-.226.975,2.055,2.055,0,0,0,.226.988,1.594,1.594,0,0,0,.6.64,1.637,1.637,0,0,0,.839.221,1.66,1.66,0,0,0,.844-.221,1.584,1.584,0,0,0,.609-.64,2.035,2.035,0,0,0,.226-.979A2.011,2.011,0,0,0,826.914,205.949Z" transform="translate(-746.425 -202.511)"/><path class="g" d="M843.354,209.814H839.4a1.554,1.554,0,0,0,1.606,1.552,1.516,1.516,0,0,0,.889-.248,1.313,1.313,0,0,0,.5-.663h.884a2.125,2.125,0,0,1-.794,1.159,2.4,2.4,0,0,1-1.48.447,2.5,2.5,0,0,1-1.259-.316,2.233,2.233,0,0,1-.871-.9,2.785,2.785,0,0,1-.316-1.349,2.822,2.822,0,0,1,.307-1.344,2.158,2.158,0,0,1,.862-.889,2.565,2.565,0,0,1,1.277-.311,2.483,2.483,0,0,1,1.245.306,2.128,2.128,0,0,1,.835.844,2.484,2.484,0,0,1,.293,1.213A4.839,4.839,0,0,1,843.354,209.814Zm-1.028-1.475a1.344,1.344,0,0,0-.564-.514,1.759,1.759,0,0,0-.79-.176,1.525,1.525,0,0,0-1.06.4,1.617,1.617,0,0,0-.5,1.1h3.122A1.515,1.515,0,0,0,842.326,208.339Z" transform="translate(-755.935 -205.086)"/><path class="g" d="M853.894,204.122H856.7v4.945h-.822V204.8h-1.985v4.268h-.821V204.8h-.631v-.677h.631v-.352a1.552,1.552,0,0,1,.428-1.214,2.034,2.034,0,0,1,1.376-.383v.686a1.089,1.089,0,0,0-.762.212.937.937,0,0,0-.221.7Zm2.008-.966a.578.578,0,0,1,0-.794.556.556,0,0,1,.785,0,.577.577,0,0,1,0,.794.554.554,0,0,1-.785,0Z" transform="translate(-764.39 -202.173)"/><path class="g" d="M870.721,207.476a2.1,2.1,0,0,1,.56,1.575v2.914h-.812v-2.8a1.592,1.592,0,0,0-.37-1.132,1.325,1.325,0,0,0-1.01-.392,1.356,1.356,0,0,0-1.033.406,1.659,1.659,0,0,0-.383,1.182v2.734h-.822V207.02h.822v.7a1.625,1.625,0,0,1,.663-.587,2.055,2.055,0,0,1,.925-.207A2.005,2.005,0,0,1,870.721,207.476Z" transform="translate(-773.168 -205.071)"/><path class="g" d="M885.635,209.814h-3.952a1.554,1.554,0,0,0,1.606,1.552,1.516,1.516,0,0,0,.889-.248,1.313,1.313,0,0,0,.5-.663h.884a2.126,2.126,0,0,1-.794,1.159,2.4,2.4,0,0,1-1.48.447,2.5,2.5,0,0,1-1.259-.316,2.228,2.228,0,0,1-.871-.9,2.783,2.783,0,0,1-.316-1.349,2.821,2.821,0,0,1,.307-1.344,2.16,2.16,0,0,1,.861-.889,2.567,2.567,0,0,1,1.277-.311,2.482,2.482,0,0,1,1.245.306,2.126,2.126,0,0,1,.835.844,2.485,2.485,0,0,1,.294,1.213A4.89,4.89,0,0,1,885.635,209.814Zm-1.029-1.475a1.346,1.346,0,0,0-.564-.514,1.761,1.761,0,0,0-.79-.176,1.524,1.524,0,0,0-1.06.4,1.619,1.619,0,0,0-.5,1.1h3.122A1.515,1.515,0,0,0,884.606,208.339Z" transform="translate(-781.693 -205.086)"/><path class="g" d="M895.468,205.584a2.221,2.221,0,0,1,.844-.889,2.329,2.329,0,0,1,1.2-.316,2.234,2.234,0,0,1,1.074.266,1.919,1.919,0,0,1,.758.7v-2.617h.83v6.677h-.83v-.929a1.92,1.92,0,0,1-.722.726,2.152,2.152,0,0,1-1.119.284,2.247,2.247,0,0,1-2.039-1.236,2.838,2.838,0,0,1-.307-1.336A2.775,2.775,0,0,1,895.468,205.584Zm3.654.365a1.593,1.593,0,0,0-.609-.636,1.726,1.726,0,0,0-1.683,0,1.569,1.569,0,0,0-.6.631,2.009,2.009,0,0,0-.226.975,2.056,2.056,0,0,0,.226.988,1.6,1.6,0,0,0,.6.64,1.637,1.637,0,0,0,.839.221,1.66,1.66,0,0,0,.844-.221,1.583,1.583,0,0,0,.609-.64,2.035,2.035,0,0,0,.226-.979A2.011,2.011,0,0,0,899.122,205.949Z" transform="translate(-790.416 -202.511)"/></g></g></g></svg>