<svg xmlns="http://www.w3.org/2000/svg" xmlns:xlink="http://www.w3.org/1999/xlink" width="144.06" height="59.475" viewBox="0 0 144.06 59.475"><defs><style>.a{fill:url(#a);}.b{fill:url(#c);}.c{fill:url(#d);}.d{fill:url(#e);}.e{fill:url(#f);}.f{fill:url(#g);}.g{fill:url(#h);}.h{fill:url(#i);}.i{fill:url(#j);}.j{fill:url(#k);}.k{fill:url(#l);}.l{fill:#fff;}</style><linearGradient id="a" x1="-0.852" y1="0.401" x2="1.711" y2="0.589" gradientUnits="objectBoundingBox"><stop offset="0" stop-color="#fff"/><stop offset="0.008" stop-color="#01ea9e"/><stop offset="1" stop-color="#03bfff"/></linearGradient><linearGradient id="c" x1="-0.002" y1="0.431" x2="0.993" y2="0.601" xlink:href="#a"/><linearGradient id="d" x1="-0.673" y1="0.457" x2="8.392" y2="0.918" gradientUnits="objectBoundingBox"><stop offset="0.221" stop-color="#01bdfd"/><stop offset="1" stop-color="#457ae6"/></linearGradient><linearGradient id="e" x1="-1.653" y1="0.354" x2="7.064" y2="0.945" xlink:href="#d"/><linearGradient id="f" x1="-5.695" y1="0.34" x2="11.74" y2="0.799" xlink:href="#d"/><linearGradient id="g" x1="-6.938" y1="0.307" x2="10.497" y2="0.766" xlink:href="#d"/><linearGradient id="h" x1="-8.437" y1="0.277" x2="9.549" y2="0.727" xlink:href="#d"/><linearGradient id="i" x1="-4.922" y1="0.227" x2="4.215" y2="0.686" xlink:href="#d"/><linearGradient id="j" x1="-6.816" y1="0.072" x2="3.364" y2="0.668" xlink:href="#d"/><linearGradient id="k" x1="-11.244" y1="0.088" x2="2.977" y2="0.587" xlink:href="#d"/><linearGradient id="l" x1="-8.281" y1="-0.051" x2="1.199" y2="0.54" xlink:href="#d"/></defs><g transform="translate(0.001 0)"><g transform="translate(-0.001 0.001)"><ellipse class="a" cx="2.65" cy="2.65" rx="2.65" ry="2.65" transform="translate(6.015 1.503)"/><ellipse class="a" cx="2.65" cy="2.65" rx="2.65" ry="2.65" transform="translate(22.369 1.503)"/><path class="b" d="M539.913,78.1a1.389,1.389,0,0,1,1.847.316c1.007,1.263,3.336,3.973,4.956,4.2a5.055,5.055,0,0,0,5.148-2.12,61.522,61.522,0,0,0,3.18-6.208c.3-.454,1.817-1.06,2.725,1.06s3.028,6.36,5.3,7.117c1.211.3,3.937.606,6.36-2.726,1.132-1.415,1.867-2.7,3.2-1.624a1.572,1.572,0,0,1,.491.67c.213.575.213,1.6-2.172,2.619-2.423,1.817-4.694,3.634-5.6,5.754-.388.646-1.218,1.846-2.773.766a3.8,3.8,0,0,1-1.187-1.368c-1.451-2.77-3.97-8.494-4.672-8.634-.757-.152-1.211,0-2.423,2.12-1.211,2.726-3.028,6.965-4.088,7.723s-2.12.757-2.877-.454a19.546,19.546,0,0,0-3.028-3.786c-.908-.757-4.3-2.941-4.543-3.18A1.558,1.558,0,0,1,539.913,78.1Z" transform="translate(-539.339 -73.849)"/></g><g transform="translate(8.608 17.512)"><path class="c" d="M565.77,122.815V133.31a53.219,53.219,0,0,1,5.378-6.389,4.512,4.512,0,0,1,3.488-1.141h2.51v.165a92.481,92.481,0,0,0-7.138,7.984c1.4,1.728,2.771,3.522,4.335,5.12a7.4,7.4,0,0,0,3.39,2.28,2.688,2.688,0,0,1-2.967,2.152,4.28,4.28,0,0,1-2.868-1.207,75,75,0,0,1-6.128-7.5v8.573l-1.4.032c-2.021.032-3-1.043-3-3.1V119.911h1.4A2.657,2.657,0,0,1,565.77,122.815Z" transform="translate(-561.37 -119.423)"/><path class="d" d="M613.644,133.93c5.28,0,8.312,4.236,8.312,8.9,0,5.279-3.032,9.484-8.7,9.484-5.281,0-8.312-4.2-8.312-8.865C604.94,138.166,607.971,133.93,613.644,133.93Zm-.391,3.912c-2.51,0-3.781,2.086-3.781,4.987,0,3.488,1.271,5.574,4.173,5.574,2.542,0,3.781-2.086,3.781-4.955C617.424,139.929,616.121,137.842,613.252,137.842Z" transform="translate(-587.914 -127.963)"/><path class="e" d="M663.261,143.544c-3.618,0-5.574-1.921-5.574-5.475V119.911h1.239c2.184,0,3.129,1.272,3.129,2.935v14.8c0,1.76.913,2.312,2.966,2.312h1.173v.948C666.195,142.8,665.184,143.544,663.261,143.544Z" transform="translate(-620.05 -119.423)"/><path class="f" d="M690.47,143.544c-3.618,0-5.574-1.921-5.574-5.475V119.911h1.238c2.184,0,3.129,1.272,3.129,2.935v14.8c0,1.76.912,2.312,2.966,2.312H693.4v.948C693.4,142.8,692.393,143.544,690.47,143.544Z" transform="translate(-636.626 -119.423)"/><path class="g" d="M714.647,123.778A2.573,2.573,0,0,1,712.1,121.2a2.546,2.546,0,0,1,2.543-2.543,2.574,2.574,0,0,1,2.575,2.543A2.6,2.6,0,0,1,714.647,123.778Zm3.1,19c-3.39,0-5.248-1.921-5.248-5.475v-11.9h1.239c1.956,0,3.129,1.046,3.129,3.262v8.215c0,1.76.75,2.312,2.673,2.312h.815v.948C720.351,142.034,719.6,142.783,717.744,142.783Z" transform="translate(-653.202 -118.661)"/><path class="h" d="M753.812,147c.032.717.065,1.661.065,2.248,0,4.4-2.934,8.345-8.606,8.345-3.618,0-6.1-1.76-6.1-3.846v-1.988h.2a7.766,7.766,0,0,0,5.574,1.89c3.162,0,4.694-1.5,4.6-4.042l-.065-1.792v-.425c-.359,1.272-2.021,2.606-4.531,2.606a6.934,6.934,0,0,1-7.3-7.105c0-4.955,3.26-8.963,8.932-8.963,4.368,0,7.172,3.193,7.172,7.692v3C753.747,145.208,753.779,146.219,753.812,147Zm-11.67-4.663c0,2.282,1.4,3.978,3.488,3.978,2.184,0,3.749-1.63,3.749-4.435,0-2.737-1.369-4.074-3.292-4.074C743.838,137.808,742.142,139.7,742.142,142.339Z" transform="translate(-668.762 -127.963)"/><path class="i" d="M795.977,152.317h-.88c-4.173,0-7.041-2.349-7.041-5.577,0-3.129,2.282-5.507,8.736-5.507h1.532V141c0-2.477-1.174-3.228-3.782-3.228-3.162,0-4.922,1.205-5.574,2.023h-.163v-1.4c0-1.953,1.76-4.3,6.389-4.3,3.912,0,7.432,1.826,7.432,7.888v4.042C802.627,149.74,799.889,152.317,795.977,152.317Zm2.38-7.955h-1.565c-3.325,0-4.27.783-4.27,2.216,0,1.37,1.108,2.184,3.032,2.184,1.891,0,2.8-.913,2.8-2.7Z" transform="translate(-699.475 -128.063)"/><path class="j" d="M835.9,125.959a3.054,3.054,0,0,1,2.054-1.205h1.01v3.976h6.1v1.794a2.324,2.324,0,0,1-2.607,2.086h-3.488v6.877c0,2.283,1.01,3.161,2.77,3.161a6.216,6.216,0,0,0,3.162-.619h.163v1.563c0,1.794-1.3,2.935-3.847,2.935-4.433,0-6.584-2.413-6.584-6.521V129.447A4.372,4.372,0,0,1,835.9,125.959Z" transform="translate(-727.848 -122.373)"/><path class="k" d="M873.327,145.012h-2.869c.326,2.216,2.347,3.62,4.922,3.62a7.957,7.957,0,0,0,5.379-1.664h.163v1.369c0,2.248-1.532,3.976-6.356,3.976a8.67,8.67,0,0,1-8.638-8.833c0-5.866,3.586-9.55,8.606-9.55a6.794,6.794,0,0,1,7.041,6.813C881.574,143.968,879.129,145.012,873.327,145.012Zm.815-7.432a3.758,3.758,0,0,0-3.683,3.751l-.033.587h1.956c4.139,0,5.084-.457,5.084-1.7C877.466,138.461,876.163,137.58,874.142,137.58Z" transform="translate(-746.917 -127.963)"/></g><g transform="translate(34.298 50.145)"><path class="l" d="M631.37,203.72v.668h-1.715v5.622h-.821v-5.622h-1.724v-.668Z" transform="translate(-627.111 -203.116)"/><path class="l" d="M644.6,209.814H640.65a1.554,1.554,0,0,0,1.606,1.552,1.517,1.517,0,0,0,.889-.248,1.313,1.313,0,0,0,.5-.663h.884a2.125,2.125,0,0,1-.794,1.159,2.4,2.4,0,0,1-1.48.447,2.5,2.5,0,0,1-1.258-.316,2.234,2.234,0,0,1-.871-.9,2.787,2.787,0,0,1-.316-1.349,2.821,2.821,0,0,1,.307-1.344,2.156,2.156,0,0,1,.862-.889,2.565,2.565,0,0,1,1.277-.311,2.483,2.483,0,0,1,1.245.306,2.128,2.128,0,0,1,.835.844,2.486,2.486,0,0,1,.293,1.213A4.839,4.839,0,0,1,644.6,209.814Zm-1.029-1.475a1.346,1.346,0,0,0-.564-.514,1.762,1.762,0,0,0-.79-.176,1.524,1.524,0,0,0-1.06.4,1.617,1.617,0,0,0-.5,1.1h3.122A1.515,1.515,0,0,0,643.574,208.339Z" transform="translate(-634.848 -205.086)"/><path class="l" d="M661.889,207.169a1.727,1.727,0,0,1,.713.717,2.393,2.393,0,0,1,.262,1.164v2.914h-.812v-2.8a1.6,1.6,0,0,0-.366-1.132,1.286,1.286,0,0,0-.988-.392,1.319,1.319,0,0,0-1.019.41,1.689,1.689,0,0,0-.379,1.187v2.725h-.812v-2.8a1.6,1.6,0,0,0-.365-1.132,1.287,1.287,0,0,0-.988-.392,1.321,1.321,0,0,0-1.02.41,1.692,1.692,0,0,0-.379,1.187v2.725h-.821V207.02h.821v.713a1.624,1.624,0,0,1,.654-.6,1.982,1.982,0,0,1,.907-.207,2.141,2.141,0,0,1,1.1.28,1.706,1.706,0,0,1,.713.821,1.623,1.623,0,0,1,.686-.812,2.024,2.024,0,0,1,1.064-.288A2.163,2.163,0,0,1,661.889,207.169Z" transform="translate(-644.05 -205.071)"/><path class="l" d="M680.246,207.238a2.173,2.173,0,0,1,1.124-.284,2.316,2.316,0,0,1,1.2.316,2.23,2.23,0,0,1,.844.889,2.783,2.783,0,0,1,.307,1.331,2.846,2.846,0,0,1-.307,1.336,2.247,2.247,0,0,1-2.039,1.236,2.158,2.158,0,0,1-1.115-.284,2.026,2.026,0,0,1-.735-.708v3.257H678.7v-7.291h.821v.912A1.955,1.955,0,0,1,680.246,207.238Zm2.4,1.277a1.562,1.562,0,0,0-.609-.632,1.69,1.69,0,0,0-.844-.217,1.643,1.643,0,0,0-.835.221,1.616,1.616,0,0,0-.614.641,1.984,1.984,0,0,0-.23.97,2.005,2.005,0,0,0,.23.979,1.618,1.618,0,0,0,.614.64,1.642,1.642,0,0,0,.835.221,1.661,1.661,0,0,0,.844-.221,1.588,1.588,0,0,0,.609-.64,2.06,2.06,0,0,0,.225-.988A2.013,2.013,0,0,0,682.651,208.515Z" transform="translate(-658.54 -205.086)"/><path class="l" d="M701.072,209.725a1.853,1.853,0,0,1-.771-.614,1.573,1.573,0,0,1-.289-.907h.876a1.153,1.153,0,0,0,.365.745,1.313,1.313,0,0,0,.934.3,1.363,1.363,0,0,0,.925-.294.95.95,0,0,0,.339-.753.857.857,0,0,0-.2-.587,1.276,1.276,0,0,0-.5-.343,7.877,7.877,0,0,0-.8-.252,7.172,7.172,0,0,1-1-.324,1.611,1.611,0,0,1-.641-.51,1.5,1.5,0,0,1-.266-.934,1.618,1.618,0,0,1,.262-.911,1.707,1.707,0,0,1,.735-.613,2.587,2.587,0,0,1,1.088-.217,2.279,2.279,0,0,1,1.448.442,1.634,1.634,0,0,1,.636,1.173h-.9a.975.975,0,0,0-.379-.637,1.347,1.347,0,0,0-.884-.275,1.279,1.279,0,0,0-.839.266.909.909,0,0,0-.325.744.808.808,0,0,0,.194.56,1.255,1.255,0,0,0,.478.329q.285.113.8.257a7.563,7.563,0,0,1,1,.338,1.671,1.671,0,0,1,.65.515,1.5,1.5,0,0,1,.271.943,1.659,1.659,0,0,1-.244.866,1.793,1.793,0,0,1-.722.658,2.383,2.383,0,0,1-1.128.253A2.692,2.692,0,0,1,701.072,209.725Z" transform="translate(-671.525 -202.989)"/><path class="l" d="M714.313,205.9v2.915a.692.692,0,0,0,.153.509.756.756,0,0,0,.533.149h.6v.695h-.74a1.473,1.473,0,0,1-1.029-.316,1.354,1.354,0,0,1-.343-1.037V205.9h-.64v-.677h.64v-1.245h.821v1.245h1.29v.677Z" transform="translate(-679.347 -203.271)"/><path class="l" d="M721.956,208.158a2.225,2.225,0,0,1,.844-.889,2.311,2.311,0,0,1,1.2-.316,2.195,2.195,0,0,1,1.128.279,1.869,1.869,0,0,1,.713.7v-.9h.83v4.945h-.83v-.92a1.935,1.935,0,0,1-.726.717,2.178,2.178,0,0,1-1.124.284,2.244,2.244,0,0,1-1.191-.324,2.281,2.281,0,0,1-.839-.912,2.839,2.839,0,0,1-.307-1.336A2.776,2.776,0,0,1,721.956,208.158Zm3.654.365a1.6,1.6,0,0,0-.609-.636,1.726,1.726,0,0,0-1.683,0,1.568,1.568,0,0,0-.6.632,2.011,2.011,0,0,0-.226.975,2.058,2.058,0,0,0,.226.988,1.6,1.6,0,0,0,.6.64,1.637,1.637,0,0,0,.839.221,1.659,1.659,0,0,0,.844-.221,1.587,1.587,0,0,0,.609-.64,2.037,2.037,0,0,0,.225-.979A2.013,2.013,0,0,0,725.61,208.523Z" transform="translate(-684.707 -205.086)"/><path class="l" d="M739.3,204.8h-1.037v4.268h-.821V204.8H736.8v-.677h.641v-.352a1.552,1.552,0,0,1,.428-1.214,2.034,2.034,0,0,1,1.376-.383v.686a1.091,1.091,0,0,0-.763.212.937.937,0,0,0-.221.7v.352H739.3Z" transform="translate(-693.936 -202.173)"/><path class="l" d="M745.87,204.122h2.807v4.945h-.821V204.8H745.87v4.268h-.821V204.8h-.632v-.677h.632v-.352a1.553,1.553,0,0,1,.428-1.214,2.034,2.034,0,0,1,1.376-.383v.686a1.09,1.09,0,0,0-.763.212.935.935,0,0,0-.221.7Zm2.008-.966a.578.578,0,0,1,0-.794.556.556,0,0,1,.785,0,.577.577,0,0,1,0,.794.554.554,0,0,1-.785,0Z" transform="translate(-698.578 -202.173)"/><path class="l" d="M762.7,207.476a2.1,2.1,0,0,1,.56,1.575v2.914h-.812v-2.8a1.592,1.592,0,0,0-.37-1.132,1.326,1.326,0,0,0-1.011-.392,1.355,1.355,0,0,0-1.033.406,1.66,1.66,0,0,0-.383,1.182v2.734h-.822V207.02h.822v.7a1.628,1.628,0,0,1,.663-.587,2.057,2.057,0,0,1,.925-.207A2.006,2.006,0,0,1,762.7,207.476Z" transform="translate(-707.356 -205.071)"/><path class="l" d="M776.29,207.233a1.865,1.865,0,0,1,.717.7v-.9h.83v5.053a2.468,2.468,0,0,1-.289,1.2,2.06,2.06,0,0,1-.826.826,2.54,2.54,0,0,1-1.25.3,2.74,2.74,0,0,1-1.624-.46,1.8,1.8,0,0,1-.767-1.254h.812a1.287,1.287,0,0,0,.559.726,1.835,1.835,0,0,0,1.02.275,1.506,1.506,0,0,0,1.106-.424,1.6,1.6,0,0,0,.428-1.191V211.05a1.98,1.98,0,0,1-.722.722,2.126,2.126,0,0,1-1.119.288,2.249,2.249,0,0,1-2.04-1.236,2.844,2.844,0,0,1-.307-1.336,2.781,2.781,0,0,1,.307-1.331,2.225,2.225,0,0,1,.844-.889,2.312,2.312,0,0,1,1.2-.316A2.2,2.2,0,0,1,776.29,207.233Zm.492,1.29a1.6,1.6,0,0,0-.609-.636,1.726,1.726,0,0,0-1.683,0,1.569,1.569,0,0,0-.6.632,2.011,2.011,0,0,0-.226.975,2.058,2.058,0,0,0,.226.988,1.6,1.6,0,0,0,.6.64,1.637,1.637,0,0,0,.839.221,1.659,1.659,0,0,0,.844-.221,1.589,1.589,0,0,0,.609-.64,2.043,2.043,0,0,0,.225-.979A2.019,2.019,0,0,0,776.782,208.523Z" transform="translate(-715.882 -205.086)"/><path class="l" d="M798.693,210.009l-1.5-2.571H796.2v2.571h-.821V203.72h2.03a2.7,2.7,0,0,1,1.2.244,1.7,1.7,0,0,1,.736.659,1.823,1.823,0,0,1-1.255,2.752l1.579,2.635Zm-2.49-3.23h1.209a1.371,1.371,0,0,0,1-.329,1.181,1.181,0,0,0,.334-.88,1.126,1.126,0,0,0-.329-.866,1.434,1.434,0,0,0-1.006-.307H796.2Z" transform="translate(-729.627 -203.116)"/><path class="l" d="M813.427,209.814h-3.952a1.554,1.554,0,0,0,1.607,1.552,1.516,1.516,0,0,0,.889-.248,1.314,1.314,0,0,0,.5-.663h.884a2.126,2.126,0,0,1-.794,1.159,2.4,2.4,0,0,1-1.48.447,2.5,2.5,0,0,1-1.259-.316,2.228,2.228,0,0,1-.87-.9,2.783,2.783,0,0,1-.316-1.349,2.82,2.82,0,0,1,.307-1.344,2.158,2.158,0,0,1,.861-.889,2.567,2.567,0,0,1,1.277-.311,2.482,2.482,0,0,1,1.245.306,2.127,2.127,0,0,1,.835.844,2.485,2.485,0,0,1,.294,1.213A4.858,4.858,0,0,1,813.427,209.814Zm-1.028-1.475a1.346,1.346,0,0,0-.564-.514,1.761,1.761,0,0,0-.79-.176,1.524,1.524,0,0,0-1.06.4,1.617,1.617,0,0,0-.5,1.1h3.122A1.515,1.515,0,0,0,812.4,208.339Z" transform="translate(-737.702 -205.086)"/><path class="l" d="M823.26,205.584a2.223,2.223,0,0,1,.844-.889,2.329,2.329,0,0,1,1.2-.316,2.233,2.233,0,0,1,1.074.266,1.921,1.921,0,0,1,.758.7v-2.617h.83v6.677h-.83v-.929a1.92,1.92,0,0,1-.722.726,2.153,2.153,0,0,1-1.119.284,2.247,2.247,0,0,1-2.039-1.236,2.838,2.838,0,0,1-.307-1.336A2.775,2.775,0,0,1,823.26,205.584Zm3.654.365a1.594,1.594,0,0,0-.609-.636,1.726,1.726,0,0,0-1.683,0,1.567,1.567,0,0,0-.6.631,2.008,2.008,0,0,0-.226.975,2.055,2.055,0,0,0,.226.988,1.594,1.594,0,0,0,.6.64,1.637,1.637,0,0,0,.839.221,1.66,1.66,0,0,0,.844-.221,1.584,1.584,0,0,0,.609-.64,2.035,2.035,0,0,0,.226-.979A2.011,2.011,0,0,0,826.914,205.949Z" transform="translate(-746.425 -202.511)"/><path class="l" d="M843.354,209.814H839.4a1.554,1.554,0,0,0,1.606,1.552,1.516,1.516,0,0,0,.889-.248,1.313,1.313,0,0,0,.5-.663h.884a2.125,2.125,0,0,1-.794,1.159,2.4,2.4,0,0,1-1.48.447,2.5,2.5,0,0,1-1.259-.316,2.233,2.233,0,0,1-.871-.9,2.785,2.785,0,0,1-.316-1.349,2.822,2.822,0,0,1,.307-1.344,2.158,2.158,0,0,1,.862-.889,2.565,2.565,0,0,1,1.277-.311,2.483,2.483,0,0,1,1.245.306,2.128,2.128,0,0,1,.835.844,2.484,2.484,0,0,1,.293,1.213A4.839,4.839,0,0,1,843.354,209.814Zm-1.028-1.475a1.344,1.344,0,0,0-.564-.514,1.759,1.759,0,0,0-.79-.176,1.525,1.525,0,0,0-1.06.4,1.617,1.617,0,0,0-.5,1.1h3.122A1.515,1.515,0,0,0,842.326,208.339Z" transform="translate(-755.935 -205.086)"/><path class="l" d="M853.894,204.122H856.7v4.945h-.822V204.8h-1.985v4.268h-.821V204.8h-.631v-.677h.631v-.352a1.552,1.552,0,0,1,.428-1.214,2.034,2.034,0,0,1,1.376-.383v.686a1.089,1.089,0,0,0-.762.212.937.937,0,0,0-.221.7Zm2.008-.966a.578.578,0,0,1,0-.794.556.556,0,0,1,.785,0,.577.577,0,0,1,0,.794.554.554,0,0,1-.785,0Z" transform="translate(-764.39 -202.173)"/><path class="l" d="M870.721,207.476a2.1,2.1,0,0,1,.56,1.575v2.914h-.812v-2.8a1.592,1.592,0,0,0-.37-1.132,1.325,1.325,0,0,0-1.01-.392,1.356,1.356,0,0,0-1.033.406,1.659,1.659,0,0,0-.383,1.182v2.734h-.822V207.02h.822v.7a1.625,1.625,0,0,1,.663-.587,2.055,2.055,0,0,1,.925-.207A2.005,2.005,0,0,1,870.721,207.476Z" transform="translate(-773.168 -205.071)"/><path class="l" d="M885.635,209.814h-3.952a1.554,1.554,0,0,0,1.606,1.552,1.516,1.516,0,0,0,.889-.248,1.313,1.313,0,0,0,.5-.663h.884a2.126,2.126,0,0,1-.794,1.159,2.4,2.4,0,0,1-1.48.447,2.5,2.5,0,0,1-1.259-.316,2.228,2.228,0,0,1-.871-.9,2.783,2.783,0,0,1-.316-1.349,2.821,2.821,0,0,1,.307-1.344,2.16,2.16,0,0,1,.861-.889,2.567,2.567,0,0,1,1.277-.311,2.482,2.482,0,0,1,1.245.306,2.126,2.126,0,0,1,.835.844,2.485,2.485,0,0,1,.294,1.213A4.89,4.89,0,0,1,885.635,209.814Zm-1.029-1.475a1.346,1.346,0,0,0-.564-.514,1.761,1.761,0,0,0-.79-.176,1.524,1.524,0,0,0-1.06.4,1.619,1.619,0,0,0-.5,1.1h3.122A1.515,1.515,0,0,0,884.606,208.339Z" transform="translate(-781.693 -205.086)"/><path class="l" d="M895.468,205.584a2.221,2.221,0,0,1,.844-.889,2.329,2.329,0,0,1,1.2-.316,2.234,2.234,0,0,1,1.074.266,1.919,1.919,0,0,1,.758.7v-2.617h.83v6.677h-.83v-.929a1.92,1.92,0,0,1-.722.726,2.152,2.152,0,0,1-1.119.284,2.247,2.247,0,0,1-2.039-1.236,2.838,2.838,0,0,1-.307-1.336A2.775,2.775,0,0,1,895.468,205.584Zm3.654.365a1.593,1.593,0,0,0-.609-.636,1.726,1.726,0,0,0-1.683,0,1.569,1.569,0,0,0-.6.631,2.009,2.009,0,0,0-.226.975,2.056,2.056,0,0,0,.226.988,1.6,1.6,0,0,0,.6.64,1.637,1.637,0,0,0,.839.221,1.66,1.66,0,0,0,.844-.221,1.583,1.583,0,0,0,.609-.64,2.035,2.035,0,0,0,.226-.979A2.011,2.011,0,0,0,899.122,205.949Z" transform="translate(-790.416 -202.511)"/></g></g></svg>