<svg xmlns="http://www.w3.org/2000/svg" width="61.769" height="61.737" viewBox="0 0 61.769 61.737"><defs><style>.a{fill:#01e9a1;}</style></defs><path class="a" d="M16.166,32.067a2.413,2.413,0,0,1,2.413-2.413h11.1V12.764a2.413,2.413,0,1,1,4.826,0v19.3a2.413,2.413,0,0,1-2.413,2.413H18.579A2.413,2.413,0,0,1,16.166,32.067Zm44.594,7.2a2.412,2.412,0,0,0-3.366.557L45.5,56.437a1.378,1.378,0,0,1-1.984.1l-7.686-7.5a2.413,2.413,0,0,0-3.37,3.454l7.7,7.514.022.021a6.221,6.221,0,0,0,4.28,1.71c.136,0,.273,0,.409-.014a6.22,6.22,0,0,0,4.424-2.3c.028-.035.055-.071.081-.107l11.941-16.68a2.413,2.413,0,0,0-.557-3.366ZM30.333,56.914A26.057,26.057,0,0,1,11.582,13.358v4.956a2.413,2.413,0,0,0,4.826,0v-5.55A7.247,7.247,0,0,0,9.169,5.526H3.619a2.413,2.413,0,1,0,0,4.826H7.8A30.882,30.882,0,0,0,30.233,61.738h.051a2.413,2.413,0,0,0,.049-4.825ZM31.99,4.825A25.986,25.986,0,0,1,56.943,30.861c0,.368-.008.74-.023,1.107a2.413,2.413,0,0,0,2.31,2.511l.1,0a2.413,2.413,0,0,0,2.409-2.312c.018-.434.027-.874.027-1.309A30.885,30.885,0,0,0,32.191,0a2.413,2.413,0,1,0-.2,4.821Zm0,0" transform="translate(0 -0.001)"/></svg>