<svg xmlns="http://www.w3.org/2000/svg" width="137.08" height="121.228" viewBox="0 0 137.08 121.228"><defs><style>.a{fill:#01e9a1;}.b{fill:#f5e4a6;}.c{fill:#ffe585;}.d{fill:#ff9e6e;}.e{fill:#f4fbff;}.f{fill:#e4f6ff;}.g{fill:#cbe2ff;}.h{fill:#bed8fb;}</style></defs><g transform="translate(0 -29.603)"><g transform="translate(2.008 31.611)"><g transform="translate(0 0)"><g transform="translate(38.325)"><path class="a" d="M192.413,67.8a4.154,4.154,0,0,1-4.15-4.15V48.635a3.236,3.236,0,0,0-3.233-3.233H162.176a3.236,3.236,0,0,0-3.233,3.233V63.647a4.15,4.15,0,0,1-8.3,0V48.635A11.545,11.545,0,0,1,162.176,37.1h22.855a11.545,11.545,0,0,1,11.532,11.532V63.647A4.154,4.154,0,0,1,192.413,67.8Z" transform="translate(-150.644 -37.103)"/></g><g transform="translate(0 20.533)"><path class="b" d="M118.16,199.55H19.407A11.908,11.908,0,0,1,7.5,187.642V125.7a11.908,11.908,0,0,1,11.908-11.908H118.16A11.908,11.908,0,0,1,130.068,125.7v61.941A11.908,11.908,0,0,1,118.16,199.55Z" transform="translate(-7.499 -113.794)"/><path class="c" d="M374.452,113.795H357.5A11.908,11.908,0,0,1,369.406,125.7v61.941A11.908,11.908,0,0,1,357.5,199.551h16.954a11.908,11.908,0,0,0,11.908-11.908V125.7A11.908,11.908,0,0,0,374.452,113.795Z" transform="translate(-263.791 -113.795)"/><path class="c" d="M118.16,113.795H19.407A11.908,11.908,0,0,0,7.5,125.7v8.282a21.577,21.577,0,0,0,21.577,21.577H108.49a21.577,21.577,0,0,0,21.577-21.577V125.7a11.907,11.907,0,0,0-11.907-11.908Z" transform="translate(-7.499 -113.795)"/><path class="d" d="M374.452,113.795H357.5A11.908,11.908,0,0,1,369.406,125.7V155.06a21.582,21.582,0,0,0,16.954-21.076V125.7A11.908,11.908,0,0,0,374.452,113.795Z" transform="translate(-263.791 -113.795)"/></g></g><g transform="translate(21.825 53.056)"><path class="e" d="M94.583,259.33a5.564,5.564,0,0,1-5.565-5.565V240.834a5.565,5.565,0,0,1,11.129,0v12.932A5.565,5.565,0,0,1,94.583,259.33Z" transform="translate(-89.018 -235.269)"/><path class="f" d="M89.018,288.8v4.164a5.565,5.565,0,1,0,11.129,0V288.8Z" transform="translate(-89.018 -274.469)"/></g><g transform="translate(48.983 33.137)"><path class="e" d="M0,0H8.077V16.918H0Z" transform="translate(31.849 46.498) rotate(45)"/><path class="a" d="M201.217,396.9l16.374-16.374a2.4,2.4,0,0,0,0-3.4l-5.519-5.519a2.4,2.4,0,0,0-3.4,0L192.3,387.979a6.305,6.305,0,0,0,8.917,8.917Z" transform="translate(-190.453 -314.669)"/><path class="a" d="M257.551,377.124l-5.519-5.519a2.4,2.4,0,0,0-3.4,0l-3.611,3.611,8.917,8.917,3.611-3.611a2.4,2.4,0,0,0,0-3.4Z" transform="translate(-230.413 -314.669)"/><circle class="f" cx="31.267" cy="31.267" r="31.267" transform="translate(21.541)"/><circle class="g" cx="22.109" cy="22.109" r="22.109" transform="translate(30.699 9.158)"/><path class="h" d="M380.139,201.558a22.112,22.112,0,0,0-24.11-4.788,22.114,22.114,0,0,1,0,40.843,22.11,22.11,0,0,0,24.11-36.055Z" transform="translate(-311.699 -185.925)"/></g></g><g transform="translate(0 29.603)"><path d="M127.327,72.486c-.244-.244-.492-.482-.743-.718V64.052a13.931,13.931,0,0,0-13.916-13.916H88.26V43.143A13.555,13.555,0,0,0,74.72,29.6H51.865a13.555,13.555,0,0,0-13.54,13.54v6.993H13.916A13.931,13.931,0,0,0,0,64.052v61.941a13.931,13.931,0,0,0,13.916,13.916H42.969a2.008,2.008,0,0,0,0-4.016H13.916a9.911,9.911,0,0,1-9.9-9.9V85.484A23.6,23.6,0,0,0,21.825,95.853v7.311a7.572,7.572,0,0,0,15.145,0V95.918H70.525c0,.032,0,.064,0,.1a33.033,33.033,0,0,0,5.857,18.866l-4.263,4.263a4.411,4.411,0,0,0-4.326,1.12L51.418,136.638a8.313,8.313,0,0,0,11.756,11.756L79.549,132.02a4.412,4.412,0,0,0,1.12-4.326l4.267-4.267a33.356,33.356,0,0,0,37.633.063v2.5a9.911,9.911,0,0,1-9.9,9.9H80.952a2.008,2.008,0,0,0,0,4.016h31.717a13.931,13.931,0,0,0,13.916-13.916v-5.731c.25-.235.5-.473.743-.718a33.257,33.257,0,0,0,0-47.057ZM42.341,43.143a9.535,9.535,0,0,1,9.524-9.524H74.719a9.535,9.535,0,0,1,9.524,9.524v6.993H79.96V43.143A5.247,5.247,0,0,0,74.719,37.9H51.865a5.247,5.247,0,0,0-5.241,5.241v6.993H42.341Zm8.3,6.993V43.143a1.226,1.226,0,0,1,1.225-1.225H74.719a1.226,1.226,0,0,1,1.225,1.225v6.993ZM32.954,96.992H25.841v-6.76a3.557,3.557,0,0,1,7.113,0ZM29.4,106.72a3.561,3.561,0,0,1-3.557-3.557v-2.156h7.113v2.156A3.561,3.561,0,0,1,29.4,106.72ZM36.97,91.9V90.232a7.572,7.572,0,0,0-15.145,0V91.82A19.593,19.593,0,0,1,4.016,72.333V64.052a9.911,9.911,0,0,1,9.9-9.9h98.753a9.911,9.911,0,0,1,9.9,9.9v4.479A33.287,33.287,0,0,0,70.774,91.9H36.97Zm23.364,53.653a4.3,4.3,0,1,1-6.077-6.077L65.6,128.135l6.077,6.077Zm16.374-16.374-2.191,2.191L68.441,125.3l2.191-2.191a.395.395,0,0,1,.558,0h0l5.518,5.518a.4.4,0,0,1,0,.558Zm1.516-4.721-2.872-2.872,3.525-3.525q.671.757,1.391,1.48t1.481,1.391Zm4.885-7.756a29.259,29.259,0,1,1,41.378,0A29.066,29.066,0,0,1,83.109,116.7Z" transform="translate(0 -29.603)"/><path d="M343.791,214.435a2.008,2.008,0,0,0-2.389,1.535,20.093,20.093,0,1,1,0-8.6,2.008,2.008,0,0,0,3.924-.855,24.111,24.111,0,1,0,0,10.3A2.008,2.008,0,0,0,343.791,214.435Z" transform="translate(-217.964 -145.266)"/></g></g></svg>