<svg xmlns="http://www.w3.org/2000/svg" width="68.615" height="45.065" viewBox="0 0 68.615 45.065"><defs><style>.a{fill:#01e9a1;}</style></defs><g transform="translate(0 -16.713)"><g transform="translate(0 16.713)"><path class="a" d="M68.531,71.21a.349.349,0,0,0-.264-.121H.348a.349.349,0,0,0-.345.4c.01.063,1.034,6.352,8.985,6.352H59.626c7.95,0,8.975-6.289,8.985-6.352A.353.353,0,0,0,68.531,71.21ZM39.415,75.639H29.2V73.29H39.415Z" transform="translate(0 -32.777)"/><path class="a" d="M9.916,52.58H63.725a1.41,1.41,0,0,0,1.409-1.409V18.122a1.41,1.41,0,0,0-1.409-1.409H9.916a1.41,1.41,0,0,0-1.409,1.409V51.171A1.41,1.41,0,0,0,9.916,52.58Zm3.523-30.935H60.2v26H13.439v-26Z" transform="translate(-2.513 -16.713)"/></g></g></svg>