<svg xmlns="http://www.w3.org/2000/svg" width="118.732" height="106.765" viewBox="0 0 118.732 106.765"><defs><style>.a{fill:#b3dafe;}.b{fill:#8ac9fe;}.c{fill:#01e9a1;}.d{fill:#10a275;}.e{fill:#ffd15b;}.f{fill:#04bbfd;}.g{fill:#ffe177;}.h{fill:#0593fc;}</style></defs><g transform="translate(0 -25.804)"><g transform="translate(1.739 27.543)"><path class="a" d="M114.869,230.436H15.385A7.884,7.884,0,0,1,7.5,222.551V155.483H122.754v67.068A7.884,7.884,0,0,1,114.869,230.436Z" transform="translate(-7.5 -127.15)"/><path class="b" d="M441.385,155.483v67.068a7.884,7.884,0,0,1-7.885,7.885h8.58a7.884,7.884,0,0,0,7.885-7.885V155.483Z" transform="translate(-334.711 -127.15)"/><path class="c" d="M122.754,61.636H7.5V41.188A7.884,7.884,0,0,1,15.385,33.3h99.485a7.884,7.884,0,0,1,7.885,7.885Z" transform="translate(-7.5 -33.303)"/><path class="d" d="M442.08,33.3H433.5a7.884,7.884,0,0,1,7.885,7.885V61.637h8.58V41.189A7.884,7.884,0,0,0,442.08,33.3Z" transform="translate(-334.711 -33.304)"/><path class="e" d="M43.5,245.1v-48.98a4.638,4.638,0,0,1,4.638-4.638H94.093a4.638,4.638,0,0,1,4.638,4.638V245.1a4.638,4.638,0,0,1-4.638,4.638H48.138A4.638,4.638,0,0,1,43.5,245.1Z" transform="translate(-35.152 -154.801)"/><path class="f" d="M89.3,290.276H81.953a7.346,7.346,0,0,1,0-14.692H89.3Z" transform="translate(-59.045 -219.399)"/><path class="a" d="M152.5,254.182l-14.535,4.932v14.692l14.535,4.932a.747.747,0,0,0,.987-.708V254.889A.747.747,0,0,0,152.5,254.182Z" transform="translate(-107.707 -202.929)"/><g transform="translate(49.469 52.378)"><g transform="translate(0 9.414)"><path class="g" d="M227.271,303.239h-4.709a1.739,1.739,0,1,1,0-3.478h4.709a1.739,1.739,0,1,1,0,3.478Z" transform="translate(-220.823 -299.761)"/></g><g transform="translate(0.69)"><path class="g" d="M225.538,265.351a1.739,1.739,0,0,1-1.1-3.089l3.33-2.7a1.739,1.739,0,1,1,2.193,2.7l-3.33,2.7A1.732,1.732,0,0,1,225.538,265.351Z" transform="translate(-223.797 -259.168)"/></g><g transform="translate(0.689 16.122)"><path class="g" d="M228.864,334.874a1.731,1.731,0,0,1-1.1-.389l-3.33-2.7a1.739,1.739,0,1,1,2.193-2.7l3.33,2.7a1.739,1.739,0,0,1-1.1,3.089Z" transform="translate(-223.796 -328.691)"/></g></g><path class="g" d="M331,386.563V374.42a2.087,2.087,0,0,1,2.087-2.087H360.8a2.087,2.087,0,0,1,2.087,2.087v12.143a2.087,2.087,0,0,1-2.087,2.087H333.087A2.087,2.087,0,0,1,331,386.563Z" transform="translate(-255.981 -293.712)"/><g transform="translate(56.797 8.665)"><path class="b" d="M432.008,81.1h-8.58a.928.928,0,0,1-.928-.928v-8.58a.928.928,0,0,1,.928-.928h8.58a.928.928,0,0,1,.928.928v8.58A.928.928,0,0,1,432.008,81.1Z" transform="translate(-383.059 -70.667)"/><path class="b" d="M346.969,81.1h-8.58a.928.928,0,0,1-.928-.928v-8.58a.928.928,0,0,1,.928-.928h8.58a.928.928,0,0,1,.928.928v8.58A.928.928,0,0,1,346.969,81.1Z" transform="translate(-317.74 -70.667)"/><path class="b" d="M261.929,81.1h-8.58a.928.928,0,0,1-.928-.928v-8.58a.928.928,0,0,1,.928-.928h8.58a.928.928,0,0,1,.928.928v8.58A.928.928,0,0,1,261.929,81.1Z" transform="translate(-252.421 -70.667)"/></g><path class="h" d="M98.915,337.8a7.34,7.34,0,0,1-2.225-.344v8.095a2.97,2.97,0,0,0,2.968,2.97h.086a2.97,2.97,0,0,0,2.972-2.97V337.8Z" transform="translate(-76.007 -266.922)"/></g><g transform="translate(0 25.804)"><path d="M109.109,25.8H23.4a1.739,1.739,0,0,0,0,3.478h85.712a6.152,6.152,0,0,1,6.145,6.145v18.71H3.478V35.428a6.152,6.152,0,0,1,6.145-6.145H15.28a1.739,1.739,0,0,0,0-3.478H9.624A9.635,9.635,0,0,0,0,35.428v87.517a9.635,9.635,0,0,0,9.624,9.624h99.485a9.635,9.635,0,0,0,9.624-9.624V103.8a1.739,1.739,0,1,0-3.478,0v19.148a6.152,6.152,0,0,1-6.145,6.145H9.624a6.152,6.152,0,0,1-6.145-6.145V57.616H115.254V95.68a1.739,1.739,0,0,0,3.478,0V35.428a9.635,9.635,0,0,0-9.624-9.624Z" transform="translate(0 -25.804)"/><path d="M355.038,364.833H327.326a3.831,3.831,0,0,0-3.826,3.826V380.8a3.831,3.831,0,0,0,3.826,3.826h27.712a3.831,3.831,0,0,0,3.826-3.826V368.659A3.831,3.831,0,0,0,355.038,364.833Zm.348,15.969a.348.348,0,0,1-.348.348H327.326a.348.348,0,0,1-.348-.348V368.659a.348.348,0,0,1,.348-.348h27.712a.348.348,0,0,1,.348.348Z" transform="translate(-248.481 -286.212)"/><path d="M426.247,77.081a2.67,2.67,0,0,0,2.667-2.667v-8.58a2.67,2.67,0,0,0-2.667-2.667h-8.58A2.67,2.67,0,0,0,415,65.834v8.58a2.67,2.67,0,0,0,2.667,2.667Zm-7.769-10.435h6.957V73.6h-6.957Z" transform="translate(-318.762 -54.503)"/><path d="M341.207,77.081a2.67,2.67,0,0,0,2.667-2.667v-8.58a2.67,2.67,0,0,0-2.667-2.667h-8.58a2.67,2.67,0,0,0-2.667,2.667v8.58a2.67,2.67,0,0,0,2.667,2.667Zm-7.769-10.435H340.4V73.6h-6.957Z" transform="translate(-253.442 -54.503)"/><path d="M256.168,77.081a2.67,2.67,0,0,0,2.667-2.667v-8.58a2.67,2.67,0,0,0-2.667-2.667h-8.58a2.67,2.67,0,0,0-2.667,2.667v8.58a2.67,2.67,0,0,0,2.667,2.667ZM248.4,66.645h6.957V73.6H248.4Z" transform="translate(-188.124 -54.503)"/><path d="M42.377,183.983A6.384,6.384,0,0,0,36,190.36v48.98a6.384,6.384,0,0,0,6.377,6.377H88.332a6.384,6.384,0,0,0,6.377-6.377V190.36a6.384,6.384,0,0,0-6.377-6.377Zm48.854,6.377v48.98a2.9,2.9,0,0,1-2.9,2.9H42.377a2.9,2.9,0,0,1-2.9-2.9V190.36a2.9,2.9,0,0,1,2.9-2.9H88.332A2.9,2.9,0,0,1,91.231,190.36Z" transform="translate(-27.652 -147.301)"/><path d="M357.125,212.33H325.239a1.739,1.739,0,0,0,0,3.478h31.886a1.739,1.739,0,1,0,0-3.478Z" transform="translate(-248.481 -169.075)"/><path d="M357.125,246.346H325.239a1.739,1.739,0,0,0,0,3.479h31.886a1.739,1.739,0,1,0,0-3.478Z" transform="translate(-248.481 -195.202)"/><path d="M357.125,280.361H325.239a1.739,1.739,0,0,0,0,3.478h31.886a1.739,1.739,0,1,0,0-3.478Z" transform="translate(-248.481 -221.329)"/><path d="M357.125,314.377H325.239a1.739,1.739,0,0,0,0,3.478h31.886a1.739,1.739,0,1,0,0-3.478Z" transform="translate(-248.481 -247.457)"/><path d="M97.514,246.771l-14.263,4.84H76.192a9.084,9.084,0,0,0-3.964,17.258v7.922a1.739,1.739,0,0,0,1.739,1.739c4.974,0,6.219.014,6.027.014a1.74,1.74,0,0,0,1.739-1.739v-7.024h1.518l14.263,4.84a2.488,2.488,0,0,0,3.285-2.354V249.125a2.488,2.488,0,0,0-3.285-2.355Zm-21.322,8.319H81.8V266.3c-5.9,0-5.881.024-6.463-.065l-.021,0a5.607,5.607,0,0,1,.878-11.144Zm2.063,19.964-2.466,0h-.082v-5.283c.333.018.346.013,2.548.013v5.272Zm19.066-4.171L85.277,266.8V254.6l12.043-4.087Z" transform="translate(-51.545 -195.426)"/><path d="M227.216,299.761h-4.756a1.739,1.739,0,1,0,0,3.478h4.756a1.739,1.739,0,1,0,0-3.478Z" transform="translate(-169.535 -236.231)"/><path d="M226.561,264.58l3.363-2.732a1.739,1.739,0,1,0-2.193-2.7l-3.363,2.732a1.739,1.739,0,0,0,2.193,2.7Z" transform="translate(-171.843 -204.737)"/><path d="M229.924,332.1l-3.363-2.732a1.739,1.739,0,0,0-2.193,2.7l3.363,2.732a1.739,1.739,0,1,0,2.193-2.7Z" transform="translate(-171.843 -258.676)"/></g></g></svg>