<svg xmlns="http://www.w3.org/2000/svg" width="68" height="68" viewBox="0 0 68 68"><defs><style>.a{fill:#01e9a1;}</style></defs><path class="a" d="M50.5,17.5a25.958,25.958,0,1,0-33,33,25.958,25.958,0,1,0,33-33ZM3.984,26.031A21.971,21.971,0,0,1,45.71,16.339a26.261,26.261,0,0,0-3.742-.269,25.932,25.932,0,0,0-25.9,25.9,26.261,26.261,0,0,0,.269,3.742A21.928,21.928,0,0,1,3.984,26.031ZM40.047,42.864l-14.91-14.91a22.107,22.107,0,0,1,2.817-2.817l14.91,14.91a22.107,22.107,0,0,1-2.817,2.817ZM32.79,46.877,21.123,35.21a21.8,21.8,0,0,1,1.716-3.919L36.709,45.162a21.794,21.794,0,0,1-3.919,1.716Zm-12.635-7,7.968,7.968A22.129,22.129,0,0,1,20.7,47.3a22.128,22.128,0,0,1-.548-7.42Zm25.006-3.167L31.291,22.838a21.8,21.8,0,0,1,3.919-1.716L46.877,32.79A21.8,21.8,0,0,1,45.162,36.709Zm2.683-8.586-7.968-7.968a22.129,22.129,0,0,1,7.42.548A22.128,22.128,0,0,1,47.845,28.123ZM41.969,64.016A21.928,21.928,0,0,1,22.29,51.661,25.929,25.929,0,0,0,51.661,22.289a21.971,21.971,0,0,1-9.692,41.726Z"/></svg>