<svg xmlns="http://www.w3.org/2000/svg" width="23.567" height="18.311" viewBox="0 0 23.567 18.311"><defs><style>.a{fill:#02e6a9;}</style></defs><path class="a" d="M4.855,46.42a5.191,5.191,0,0,1,4.313-3.779.466.466,0,0,0,.329-.123.337.337,0,0,0,.205-.205,1.961,1.961,0,0,0-.739-2.793c-1.191-.863-3.081,0-4.026.78C2.554,42.271.131,45.68.254,48.925a13.584,13.584,0,0,0,.288,6.449A3.039,3.039,0,0,0,3.376,57.3c1.232.082,3.779.452,4.888-.287s1.191-2.177,1.314-3.409c.123-1.356.493-3.9-.657-4.97C7.771,47.611,4.485,48.72,4.855,46.42Z" transform="translate(0 -39.159)"/><path class="a" d="M206.815,46.42a5.191,5.191,0,0,1,4.313-3.779.466.466,0,0,0,.329-.123.338.338,0,0,0,.205-.205,1.961,1.961,0,0,0-.739-2.793c-1.191-.863-3.081,0-4.026.78-2.382,1.972-4.806,5.381-4.683,8.626a13.585,13.585,0,0,0,.287,6.449,3.039,3.039,0,0,0,2.834,1.931c1.232.082,3.779.452,4.888-.287s1.191-2.177,1.314-3.409c.123-1.356.493-3.9-.657-4.97C209.731,47.611,206.4,48.72,206.815,46.42Z" transform="translate(-188.405 -39.159)"/></svg>