<svg xmlns="http://www.w3.org/2000/svg" width="19.199" height="19.199" viewBox="0 0 19.199 19.199"><defs><style>.a{fill:#417ee7;}</style></defs><g transform="translate(0)"><path class="a" d="M16.388,2.812A9.6,9.6,0,0,0,2.812,16.388,9.6,9.6,0,0,0,16.388,2.812ZM9.6,9a2.7,2.7,0,0,1,.738,5.3.188.188,0,0,0-.138.181v.506a.611.611,0,0,1-.571.616A.6.6,0,0,1,9,15v-.523a.188.188,0,0,0-.138-.18A2.7,2.7,0,0,1,6.9,11.716a.61.61,0,0,1,.582-.616.6.6,0,0,1,.618.6,1.5,1.5,0,1,0,1.5-1.5,2.7,2.7,0,0,1-.738-5.3A.188.188,0,0,0,9,4.723V4.217A.611.611,0,0,1,9.571,3.6a.6.6,0,0,1,.629.6v.523a.188.188,0,0,0,.138.18A2.7,2.7,0,0,1,12.3,7.483a.61.61,0,0,1-.582.616.6.6,0,0,1-.618-.6A1.5,1.5,0,1,0,9.6,9Z" transform="translate(0 0)"/></g></svg>