<svg xmlns="http://www.w3.org/2000/svg" width="352.508" height="230.604" viewBox="0 0 352.508 230.604"><defs><style>.a{fill:#dbdcee;}.b{fill:#8a8ebb;}.c{fill:#99b9cb;opacity:0.46;}.d{fill:#9da8ae;}.e{fill:#ffc000;}.f{fill:#ff8f00;}.g{fill:#ffd660;}.h{fill:#f18800;}.i{fill:#ffa421;}.j{fill:#fff;}.k{fill:#522d34;}.l{fill:#067e60;}.m{fill:#01e4ab;}.n{fill:#afffeb;}.o{fill:#035440;}.p{fill:#5f5583;}</style></defs><g transform="translate(1261.403 -81.553)"><g transform="translate(-1316.565 34.657)"><path class="a" d="M407.3,148.658c5.327,54.614-46.159,116.386-158.69,127.364s-187.533-41-192.86-95.618S79.592,2.085,222.817,63.685,401.968,94.044,407.3,148.658Z" transform="translate(0 0)"/><path class="b" d="M347.232,280.329s70.327-11.482,73.129-35.953-56.267-.611-56.267-.611,26.188-44.48,14.629-58.311-44.478,34.9-44.478,34.9,5.375-51.4-10.192-53.477-29.941,107.1-29.941,107.1Z" transform="translate(-72.936 -36.613)"/><path class="c" d="M373.127,214.5q6.368-9.7,12.618-19.482l.772-1.2q-.141-.184-.288-.363c-.115-.138-.233-.267-.352-.392q-5.952,9.265-11.955,18.5-6.3,9.65-12.8,19.171-6.462,9.418-13.258,18.6-6.741,9.057-13.951,17.75c-4.734,5.673-9.649,11.2-14.787,16.508-.139.144-.28.286-.42.429l1.184.142q6.724-6.959,12.97-14.361c4.856-5.727,9.519-11.616,14.039-17.61q6.893-9.142,13.383-18.575Q366.832,224.149,373.127,214.5Z" transform="translate(-80.442 -44.616)"/><path class="c" d="M431.671,272.952a8.719,8.719,0,0,0-.215-.927L410.781,279.7l-23.32,8.657-23.209,8.617-23.321,8.657-9.549,3.545,2.052.245,4.848-1.8,23.32-8.657,23.209-8.617,23.321-8.657,23.209-8.616Z" transform="translate(-84.312 -68.718)"/><path class="c" d="M321.508,271.624q1.891-9.438,3.427-18.942,1.673-10.24,3.022-20.53,1.416-10.713,2.527-21.465,1.135-10.96,1.958-21.948.8-10.685,1.276-21.391a6.93,6.93,0,0,0-.934-.288q-.413,9.469-1.088,18.925-.772,10.892-1.859,21.759-1.077,10.791-2.454,21.552-1.331,10.378-2.969,20.714-1.524,9.567-3.365,19.081-.223,1.141-.452,2.283C320.476,271.967,321.388,272.222,321.508,271.624Z" transform="translate(-81.017 -36.678)"/><path class="b" d="M202.871,280.586s-64.018-16.622-66.82-41.063,56.056,1.7,56.056,1.7-32.285-41.577-20.726-55.39,43.247,36.85,43.247,36.85-4.144-53.332,11.424-55.405,24.866,104.663,24.866,104.663Z" transform="translate(-24.661 -36.737)"/><path class="c" d="M265.059,184.868c.57,6.653,1.269,13.295,2.037,19.928q1.193,10.3,2.585,20.575,1.337,9.99,2.78,19.965,1.288,8.974,2.609,17.943l.29,1.99c.088.6,1,.345.914-.252Q275,256.256,273.722,247.5q-1.424-9.863-2.771-19.736-1.394-10.289-2.63-20.6c-.789-6.66-1.511-13.328-2.113-20.008-.542-6.012-.991-12.035-1.237-18.067q-.035-.87-.063-1.74a6.805,6.805,0,0,0-.939.225C264.167,173.344,264.567,179.111,265.059,184.868Z" transform="translate(-63.735 -36.765)"/><path class="d" d="M53.719,0c29.668,0,53.719,3.552,53.719,7.933s-24.051,7.933-53.719,7.933S0,12.314,0,7.933,24.051,0,53.719,0Z" transform="translate(169.896 237.503)"/><path class="c" d="M235.708,262.518q6.856,8.036,14.08,15.75.9.961,1.806,1.916c.42.443,1.089-.227.67-.67q-7.256-7.657-14.152-15.645-6.972-8.078-13.571-16.467-6.685-8.5-12.982-17.287-6.357-8.867-12.322-18.005-6.007-9.2-11.616-18.647l-.183-.311a7.844,7.844,0,0,0-.545.589c-.041.049-.079.1-.119.149q4.963,8.356,10.234,16.524,5.948,9.21,12.291,18.157,6.24,8.8,12.864,17.316Q228.746,254.355,235.708,262.518Z" transform="translate(-40.173 -44.643)"/><path class="c" d="M223.931,300.371q1.13.186,2.261.359c.6.092.853-.821.251-.914q-9.194-1.414-18.245-3.607-9.109-2.207-18.013-5.176-9-3-17.738-6.729-8.813-3.767-17.305-8.234-8.6-4.521-16.833-9.709-.984-.619-1.961-1.248a8.659,8.659,0,0,0-.212.987q8.06,5.164,16.5,9.708,8.491,4.565,17.328,8.444,8.666,3.8,17.618,6.9,8.909,3.074,18.054,5.4Q214.7,298.849,223.931,300.371Z" transform="translate(-24.717 -66.608)"/><g transform="translate(261.297 60.365)"><path class="e" d="M402.764,80.944l19.716-4.073,18.286,91.065L420,172.227Z" transform="translate(-367.398 -69.514)"/><ellipse class="e" cx="36.883" cy="46.441" rx="36.883" ry="46.441" transform="translate(0 18.736) rotate(-11.671)"/><g transform="translate(11.34 13.414)"><path class="f" d="M394.893,122.119l-26.228,5.418c-.239,1.688-.4,3.405-.483,5.151l27.712-5.724Z" transform="translate(-368.182 -96.739)"/><path class="f" d="M397.91,159.62l-1-4.845-25.947,5.359q.648,2.432,1.484,4.745Z" transform="translate(-369.031 -106.707)"/><path class="f" d="M389,140.385,368.3,144.66q.169,2.449.552,4.937L390,145.23Z" transform="translate(-368.219 -102.315)"/><path class="f" d="M401.657,103.854l-28.853,5.96a47.239,47.239,0,0,0-1.9,5.444l31.753-6.559Z" transform="translate(-369.013 -91.164)"/><path class="f" d="M379.2,97.028l31.926-6.595-1-4.845-25.84,5.337A36.988,36.988,0,0,0,379.2,97.028Z" transform="translate(-371.544 -85.589)"/><path class="f" d="M427.4,197.264l-26.883,5.553A37.009,37.009,0,0,0,407.6,206.4l20.8-4.3Z" transform="translate(-378.051 -119.676)"/><path class="f" d="M414.611,183.545,385.9,189.477a47.07,47.07,0,0,0,3.939,4.237l25.778-5.325Z" transform="translate(-373.589 -115.489)"/><path class="f" d="M406.945,173.94l-1-4.845-29.241,6.04q1.167,2.354,2.522,4.531Z" transform="translate(-370.783 -111.078)"/></g><ellipse class="e" cx="36.883" cy="46.441" rx="36.883" ry="46.441" transform="translate(18.459 14.923) rotate(-11.671)"/><path class="g" d="M396.189,101.555a50.559,50.559,0,0,0-5.869,27.468l61.385,38.7c6.151-5.735,10.446-14,12.235-23.457Z" transform="translate(-363.57 -77.048)"/><path class="g" d="M402.531,92.049l65.887,41.533a56.74,56.74,0,0,0-.553-14.113l-56.79-35.8A34.725,34.725,0,0,0,402.531,92.049Z" transform="translate(-367.326 -71.589)"/><ellipse class="h" cx="30.157" cy="37.971" rx="30.157" ry="37.971" transform="matrix(0.979, -0.202, 0.202, 0.979, 26.76, 21.857)"/><g transform="translate(33.452 18.709)"><path class="i" d="M404.14,111.076A43.318,43.318,0,0,0,401,139c.1.5.22.989.336,1.478l43.3,27.292c7.6-4,13.072-11.905,15.3-21.521Z" transform="translate(-400.008 -98.663)"/><path class="i" d="M418.175,93.21a28.141,28.141,0,0,0-8.709,8.274l54.217,34.177a46.542,46.542,0,0,0-.714-14.214Z" transform="translate(-402.895 -93.21)"/></g><path class="f" d="M433.827,88.63c15.117-.859,29.741,12.486,33.677,31.539,4.242,20.537-5.541,39.917-21.852,43.286-.218.045-.436.075-.655.114a24.258,24.258,0,0,0,3.537-.453c16.311-3.37,26.094-22.749,21.852-43.287C466.2,99.567,449.926,85.761,433.827,88.63Z" transform="translate(-376.879 -72.988)"/><g transform="translate(50.163 26.39)"><path class="f" d="M452.331,135.192q.589,4.994-3.748,9.61-3.962,4.053-7.668,4.456l.734,6.723-2.629.287-.734-6.723a22.636,22.636,0,0,1-5.635-.083,19.212,19.212,0,0,1-6.086-1.822l-.917-8.4,3.232-.353a12.093,12.093,0,0,0,2.066,6.142q1.766,2.206,7.006,1.46l-1.763-16.161a11.691,11.691,0,0,1-8.038-2.917,11.04,11.04,0,0,1-4.006-7.543,11.683,11.683,0,0,1,2.176-8.437,11.4,11.4,0,0,1,7.305-4.591l-.249-2.284,2.629-.287.249,2.284a17.618,17.618,0,0,1,2.192-.086q1.2.022,2.652.125a26.868,26.868,0,0,1,5.3.992l.841,7.714-2.672.291a5.972,5.972,0,0,0-3-5.516,6.922,6.922,0,0,0-5.02-.848l1.59,14.567a13.534,13.534,0,0,1,6.972,1.55A11.668,11.668,0,0,1,452.331,135.192ZM435.454,123.6l-1.547-14.179a7.929,7.929,0,0,0-6.019,7.984,6.468,6.468,0,0,0,2.6,4.6A6.85,6.85,0,0,0,435.454,123.6Zm12.081,13.6a7.889,7.889,0,0,0-2.935-4.913,7.261,7.261,0,0,0-5.726-1.73L440.58,146.2a7.6,7.6,0,0,0,5.368-3.159A7.088,7.088,0,0,0,447.536,137.2Z" transform="translate(-424.061 -104.266)"/></g><g transform="translate(52.076 26.182)"><path class="e" d="M455.084,134.891q.589,5-3.748,9.611-3.962,4.052-7.668,4.456l.734,6.723-2.629.287-.734-6.723a22.674,22.674,0,0,1-5.635-.083,19.207,19.207,0,0,1-6.085-1.822l-.917-8.4,3.232-.353a12.092,12.092,0,0,0,2.065,6.142q1.767,2.206,7.006,1.46l-1.763-16.162a11.687,11.687,0,0,1-8.038-2.917,11.042,11.042,0,0,1-4.006-7.543,11.682,11.682,0,0,1,2.176-8.437,11.4,11.4,0,0,1,7.3-4.591l-.249-2.284,2.629-.287.249,2.284a17.629,17.629,0,0,1,2.193-.087q1.2.023,2.652.126a26.848,26.848,0,0,1,5.3.991l.842,7.714-2.672.292a5.972,5.972,0,0,0-3-5.516,6.918,6.918,0,0,0-5.02-.848l1.59,14.567a13.535,13.535,0,0,1,6.972,1.55A11.667,11.667,0,0,1,455.084,134.891ZM438.207,123.3l-1.547-14.179a7.927,7.927,0,0,0-6.02,7.983,6.474,6.474,0,0,0,2.6,4.6A6.853,6.853,0,0,0,438.207,123.3Zm12.081,13.6a7.888,7.888,0,0,0-2.935-4.913,7.262,7.262,0,0,0-5.727-1.73l1.707,15.644a7.593,7.593,0,0,0,5.368-3.158A7.1,7.1,0,0,0,450.289,136.9Z" transform="translate(-426.814 -103.966)"/></g><path class="g" d="M440.889,128.264l-.007-.065-2.857-1.8.183,1.68a6.853,6.853,0,0,1-4.97-1.594,6.474,6.474,0,0,1-2.6-4.6c0-.048,0-.1-.008-.143l-3.374-2.126a12.325,12.325,0,0,0-.362,4.728,11.042,11.042,0,0,0,4.006,7.543,11.691,11.691,0,0,0,8.038,2.917l1.763,16.162q-5.24.746-7.006-1.46a12.092,12.092,0,0,1-2.066-6.142l-3.232.353.912,8.362.213.133a19.233,19.233,0,0,0,5.878,1.73,22.673,22.673,0,0,0,5.635.083l.638,5.847,1.2.755,1.526-.166-.734-6.723q3.7-.4,7.668-4.456,4.336-4.617,3.748-9.611a13.822,13.822,0,0,0-.656-2.929l-13.451-8.479C440.949,128.262,440.918,128.261,440.889,128.264Zm9.4,13.41a7.091,7.091,0,0,1-1.587,5.842,7.592,7.592,0,0,1-5.368,3.158l-1.707-15.644a7.262,7.262,0,0,1,5.727,1.73A7.888,7.888,0,0,1,450.29,141.674Z" transform="translate(-374.739 -82.56)"/><path class="g" d="M445.865,106.377c-.277-.031-.555-.067-.829-.088q-1.45-.1-2.652-.126a17.629,17.629,0,0,0-2.193.087l-.249-2.284-2.629.287.249,2.284a11.386,11.386,0,0,0-6.868,4.043l2.6,1.636c.078-.1.15-.208.235-.311a6.857,6.857,0,0,1,4.319-2.783l.7,6.4,2.857,1.8-.917-8.405a6.918,6.918,0,0,1,5.02.848,5.97,5.97,0,0,1,3,5.516l2.673-.292-.618-5.659Z" transform="translate(-375.923 -77.784)"/></g><path class="e" d="M494.774,76.488l1.182-16.737L498.1,76.391l10.159,1.373L498.2,79.722,497,95.653,494.87,79.818l-10.159-1.373Z" transform="translate(-131.114 -3.924)"/><path class="e" d="M520.092,105.071l.78-11.043,1.418,10.979,6.7.906-6.639,1.292-.8,10.511-1.4-10.448-6.7-.906Z" transform="translate(-139.887 -14.386)"/><path class="e" d="M81.208,101.72S53.478,87.2,56.891,83.641s17.454,3.607,17.454,3.607-3.567-15.813,2.043-15.887S81.208,101.72,81.208,101.72Z" transform="translate(-0.439 -7.468)"/><path class="e" d="M106.938,84.221s-6.385-8.938-4.569-9.695,3.888,2.32,3.888,2.32-.069-4.339,1.991-3.471S106.938,84.221,106.938,84.221Z" transform="translate(-14.31 -8.047)"/><g transform="translate(86.953 65.217)"><circle class="e" cx="47.951" cy="47.951" r="47.951" transform="translate(0 0)"/><path class="f" d="M110.589,128.517a41.4,41.4,0,0,1,36.754-45.566c22.732-2.434,42.372,17.056,44.805,39.788s-11.2,39.386-33.93,41.819S113.023,151.249,110.589,128.517Z" transform="translate(-103.798 -76.159)"/><circle class="j" cx="37.651" cy="37.651" r="37.651" transform="translate(5.366 15.988) rotate(-8.109)"/><path class="k" d="M165.673,141.719a.565.565,0,0,1-.35-.122l-11.236-8.826a.568.568,0,1,1,.7-.893l10.793,8.478,16.939-21.183a.568.568,0,0,1,.888.71l-17.291,21.623A.57.57,0,0,1,165.673,141.719Z" transform="translate(-117.082 -87.213)"/><path class="k" d="M165.526,102.842a.378.378,0,0,1-.376-.338l-.813-7.592a.379.379,0,0,1,.754-.081l.812,7.592a.378.378,0,0,1-.336.417Z" transform="translate(-120.276 -79.745)"/><path class="k" d="M174.593,187.548a.379.379,0,0,1-.377-.338l-.813-7.593a.379.379,0,0,1,.754-.081l.813,7.593a.379.379,0,0,1-.337.417Z" transform="translate(-123.044 -105.6)"/><path class="k" d="M206.721,138.761a.379.379,0,0,1-.04-.756l7.592-.813a.379.379,0,1,1,.081.754l-7.592.813Z" transform="translate(-133.099 -92.778)"/><path class="k" d="M122.015,147.828a.379.379,0,0,1-.04-.756l7.593-.812a.379.379,0,0,1,.081.753l-7.593.813Z" transform="translate(-107.243 -95.546)"/><path class="j" d="M111.378,153.532c1.375,4.749,3.341,8.352,1.225,8.965s-4.947-2.74-6.322-7.489-.775-9.094,1.342-9.707S110,148.783,111.378,153.532Z" transform="translate(-102.331 -95.235)"/><path class="f" d="M201.665,183.916c1.021,2.491-4.874,9.051-14.58,13.03s-19.546,3.871-20.567,1.38,5.68-2.849,15.386-6.828S200.644,181.425,201.665,183.916Z" transform="translate(-120.911 -106.863)"/><path class="f" d="M226.4,117.435c1.538-.407,4.811,3.1,6.239,8.489s.474,10.633-1.064,11.04-1.138-3.185-2.566-8.578S224.859,117.843,226.4,117.435Z" transform="translate(-139.08 -86.738)"/></g><path class="l" d="M282.326,243.859l-21.2,59.905c6.589,6.878,47.1,6.123,50.561,0l-21.2-59.905Z" transform="translate(-62.869 -60.12)"/><path class="m" d="M313.423,309.055l-13.473-59.4-4.044.053-1.986,60.672A98.826,98.826,0,0,0,313.423,309.055Z" transform="translate(-72.878 -61.891)"/><path class="n" d="M277.507,307.03l11.953-66.212L271.52,306.011A57.438,57.438,0,0,0,277.507,307.03Z" transform="translate(-66.041 -59.192)"/><path class="o" d="M294.689,256.659a9.881,9.881,0,0,0,6.946-3.078l-2.948-8.576-8.425-.409-2.94,8.552A10.065,10.065,0,0,0,294.689,256.659Z" transform="translate(-70.864 -60.346)"/><path class="m" d="M0,0H189.227a0,0,0,0,1,0,0V0A4.825,4.825,0,0,1,184.4,4.825H4.825A4.825,4.825,0,0,1,0,0V0A0,0,0,0,1,0,0Z" transform="translate(128.926 182.996)"/><path class="l" d="M309.478,247.616H263.342l-2.771-4.825h51.335Z" transform="translate(-62.699 -59.794)"/><path class="n" d="M8.027,0A8.027,8.027,0,1,1,0,8.027,8.027,8.027,0,0,1,8.027,0Z" transform="translate(215.392 178.053)"/><circle class="o" cx="5.676" cy="5.676" r="5.676" transform="translate(217.743 180.404)"/><ellipse class="l" cx="4.697" cy="5.064" rx="4.697" ry="5.064" transform="translate(218.722 181.626)"/><path class="l" d="M293.815,235.675a8.026,8.026,0,0,0-7.847,9.716,28.2,28.2,0,0,1,8.078-1.556,16.372,16.372,0,0,1,7.656,1.349,8.022,8.022,0,0,0-7.888-9.509Z" transform="translate(-70.396 -57.622)"/><path class="o" d="M294.848,239.059a5.669,5.669,0,0,0-5.587,6.67,31.281,31.281,0,0,1,5.818-.861,16.58,16.58,0,0,1,5.4.547,5.789,5.789,0,0,0,.042-.681A5.675,5.675,0,0,0,294.848,239.059Z" transform="translate(-71.429 -58.655)"/><path class="m" d="M0,0H81.494a0,0,0,0,1,0,0V0a11.6,11.6,0,0,1-11.6,11.6H11.6A11.6,11.6,0,0,1,0,0V0A0,0,0,0,1,0,0Z" transform="translate(91.169 169.191)"/><path class="m" d="M0,0H81.494a11.6,11.6,0,0,1-11.6,11.6H11.6A11.6,11.6,0,0,1,0,0Z" transform="translate(274.421 169.191)"/><rect class="p" width="5.977" height="2.205" transform="translate(128.927 180.792)"/><rect class="p" width="5.977" height="2.205" transform="translate(312.179 180.792)"/><g transform="translate(135.514 169.191)"><path class="l" d="M203.332,222.92h-5.086l-3.688,11.6h5.086Z" transform="translate(-178.063 -222.92)"/><path class="l" d="M170.816,234.521h13.809l3.688-11.6H174.5Z" transform="translate(-170.816 -222.92)"/></g><g transform="translate(102.11 169.191)"><path class="j" d="M144.223,222.92h-5.086l-3.688,11.6h5.086Z" transform="translate(-126.617 -222.92)"/><path class="j" d="M122.736,234.521h5.086l3.688-11.6h-5.086Z" transform="translate(-122.736 -222.92)"/></g><g transform="translate(319.235 169.191)"><path class="l" d="M467.769,222.92h-5.086l-3.688,11.6h5.086Z" transform="translate(-442.5 -222.92)"/><path class="l" d="M435.253,234.521h13.809l3.688-11.6H438.941Z" transform="translate(-435.253 -222.92)"/></g><g transform="translate(285.831 169.191)"><path class="j" d="M408.66,222.92h-5.086l-3.688,11.6h5.086Z" transform="translate(-391.054 -222.92)"/><path class="j" d="M387.173,234.521h5.086l3.688-11.6h-5.086Z" transform="translate(-387.173 -222.92)"/></g><path class="n" d="M291.616,248.287c.2.875.1,1.642-.213,1.715s-.734-.579-.933-1.454-.1-1.643.213-1.715S291.416,247.411,291.616,248.287Z" transform="translate(-71.793 -61.026)"/><g transform="translate(137.921 182.996)"><path class="l" d="M200.037,247.616l2.786-4.825H177.066l-2.786,4.825Z" transform="translate(-174.28 -242.791)"/><path class="l" d="M229.526,242.791h-9.487l-2.786,4.825h9.487Z" transform="translate(-187.397 -242.791)"/></g><g transform="translate(262.614 182.996)"><path class="l" d="M379.513,247.616l2.786-4.825H356.542l-2.786,4.825Z" transform="translate(-353.757 -242.791)"/><path class="l" d="M409,242.791h-9.487l-2.786,4.825h9.487Z" transform="translate(-366.874 -242.791)"/></g><rect class="n" width="29.774" height="1.616" rx="0.808" transform="translate(145.3 184.332)"/><rect class="n" width="6.065" height="1.616" rx="0.808" transform="translate(178.444 184.332)"/><rect class="n" width="20.469" height="1.616" rx="0.808" transform="translate(254.541 184.332)"/><rect class="n" width="4.169" height="1.616" rx="0.808" transform="translate(277.327 184.332)"/></g></g></svg>